<?xml version="1.0" encoding="utf-8"?>
<!-- Generator: Adobe Illustrator 25.4.0, SVG Export Plug-In . SVG Version: 6.00 Build 0)  -->
<svg version="1.1" id="Layer_1" xmlns="http://www.w3.org/2000/svg" xmlns:xlink="http://www.w3.org/1999/xlink" x="0px" y="0px"
	 viewBox="0 0 870 194" style="enable-background:new 0 0 870 194;" xml:space="preserve">
<style type="text/css">
	.st0{clip-path:url(#SVGID_00000054250098366131941620000014643767601809934486_);}
	.st1{enable-background:new    ;}
	.st2{fill:#FFFFFF;}
	.st3{clip-path:url(#SVGID_00000009551071872033257830000003779682776627907263_);}
	.st4{clip-path:url(#SVGID_00000145747056500722679130000009215557542595354296_);}
	.st5{clip-path:url(#SVGID_00000055700325737152474920000011948592364072178614_);}
	.st6{clip-path:url(#SVGID_00000049210812573528174700000014209039607302744742_);}
	.st7{clip-path:url(#SVGID_00000144336609834815653680000004094260753263426485_);}
</style>
<g>
	<defs>
		<rect id="SVGID_1_" x="-448" y="-1518.3" width="646" height="660.3"/>
	</defs>
	<clipPath id="SVGID_00000000223579586170269520000003122199718915788464_">
		<use xlink:href="#SVGID_1_"  style="overflow:visible;"/>
	</clipPath>
	<g style="clip-path:url(#SVGID_00000000223579586170269520000003122199718915788464_);">
	</g>
</g>
<g class="st1">
	<path class="st2" d="M192.8,77.1l-15.5-45.5c-0.1-0.5-0.2-0.9-0.2-1.2c0-0.9,1.3-1.4,3.8-1.4h1.8c2.1,0,3.3,0.6,3.7,1.7L197,63.6
		l0.7,2.9h0.3l0.8-2.9l10.9-32.9c0.4-1.1,1.6-1.7,3.7-1.7h1.6c2.5,0,3.8,0.5,3.8,1.4c0,0.3-0.1,0.7-0.2,1.2l-15.5,45.5
		c-0.2,0.9-1.4,1.3-3.5,1.3h-3.2C194.2,78.5,193,78,192.8,77.1z"/>
</g>
<g class="st1">
	<path class="st2" d="M223,74c-2.9-3.2-4.3-7.9-4.3-14c0-6.1,1.4-10.8,4.3-14.1c2.9-3.2,7-4.8,12.5-4.8c5.4,0,9.6,1.6,12.4,4.8
		c2.8,3.2,4.3,7.9,4.3,14.1c0,6.1-1.4,10.8-4.3,14c-2.8,3.2-7,4.8-12.4,4.8C230,78.8,225.9,77.2,223,74z M241.2,68.8
		c1.2-1.9,1.9-4.9,1.9-8.9c0-3.9-0.6-6.9-1.9-8.8c-1.2-1.9-3.2-2.9-5.8-2.9c-2.6,0-4.6,1-5.8,2.9c-1.3,1.9-1.9,4.9-1.9,8.8
		c0,4,0.6,6.9,1.9,8.9c1.3,1.9,3.2,2.9,5.8,2.9C238.1,71.7,240,70.7,241.2,68.8z"/>
</g>
<g class="st1">
	<path class="st2" d="M262.1,76.2c-1.8-1.7-2.7-4.5-2.7-8.2V48.7h-1.9c-0.7,0-1.1-0.2-1.4-0.7c-0.3-0.5-0.5-1.2-0.5-2.3v-1.1
		c0-1.1,0.2-1.8,0.5-2.3c0.3-0.5,0.8-0.7,1.4-0.7h1.9l0.9-6.9c0.2-1.4,1.3-2,3.2-2h1.7c2,0,3,0.7,3,2v6.9h4.3c0.7,0,1.1,0.2,1.4,0.7
		c0.3,0.5,0.5,1.2,0.5,2.3v1.1c0,1.1-0.2,1.9-0.5,2.3c-0.3,0.5-0.8,0.7-1.4,0.7h-4.3v19.3c0,1.4,0.2,2.4,0.7,3
		c0.5,0.6,1.2,0.8,2.2,0.8c0.5,0,0.9,0,1.3-0.1c0.4-0.1,0.7-0.1,1-0.1c0.6,0,1,0.6,1.4,1.8c0.4,1.2,0.6,2.1,0.6,2.6c0,2-2.1,3-6.2,3
		C266.3,78.8,263.9,77.9,262.1,76.2z"/>
</g>
<g class="st1">
	<path class="st2" d="M282.8,74c-3-3.2-4.4-7.8-4.4-13.8c0-6.5,1.5-11.3,4.4-14.4c2.9-3.1,7.1-4.7,12.4-4.7c5.1,0,8.8,1.6,11.3,4.9
		c2.5,3.3,3.7,7.7,3.7,13.3c0,0.5-0.4,1.3-1.3,2.2c-0.8,1-1.5,1.4-1.9,1.4h-19.4c0.2,3.1,1.1,5.3,2.6,6.7s3.6,2.1,6.4,2.1
		c2.5,0,5.1-0.7,7.7-2c0.7-0.3,1.2-0.5,1.4-0.5c0.6,0,1.3,0.6,2.1,1.9s1.2,2.2,1.2,2.8c0,0.9-0.7,1.7-2,2.5c-1.4,0.8-3,1.3-5,1.8
		c-2,0.4-3.9,0.6-5.6,0.6C290.2,78.8,285.7,77.2,282.8,74z M301.3,56.7c0-2.7-0.5-4.8-1.6-6.3c-1.1-1.5-2.6-2.2-4.7-2.2
		c-4.4,0-6.9,2.8-7.5,8.5H301.3z"/>
</g>
<g class="st1">
	<path class="st2" d="M326.6,76.4v-23c0-3.1-0.1-5.4-0.4-6.9c-0.3-1.5-0.4-2.3-0.4-2.7c0-0.7,0.8-1.2,2.3-1.5
		c1.5-0.4,2.9-0.5,4.1-0.5c0.8,0,1.4,0.3,1.7,1c0.3,0.7,0.6,1.4,0.7,2.1c0.2,0.7,0.3,1.2,0.3,1.4c1.2-1.5,2.8-2.8,4.7-3.8
		c1.9-1,3.9-1.5,5.9-1.5c7.1,0,10.7,3.8,10.7,11.4v24c0,0.7-0.3,1.2-0.9,1.5c-0.6,0.3-1.5,0.5-2.8,0.5h-1.3c-2.5,0-3.7-0.7-3.7-2
		V53.7c0-3.5-1.8-5.2-5.3-5.2c-1.4,0-2.6,0.4-3.8,1.3c-1.2,0.8-2.2,1.9-2.9,3.1v23.6c0,1.4-1.2,2-3.7,2h-1.4
		C327.9,78.5,326.6,77.8,326.6,76.4z"/>
</g>
<g class="st1">
	<path class="st2" d="M367.1,74c-2.9-3.2-4.3-7.9-4.3-14c0-6.1,1.4-10.8,4.3-14.1c2.9-3.2,7-4.8,12.5-4.8c5.4,0,9.6,1.6,12.4,4.8
		c2.8,3.2,4.3,7.9,4.3,14.1c0,6.1-1.4,10.8-4.3,14c-2.8,3.2-7,4.8-12.4,4.8C374.1,78.8,369.9,77.2,367.1,74z M385.3,68.8
		c1.2-1.9,1.9-4.9,1.9-8.9c0-3.9-0.6-6.9-1.9-8.8c-1.2-1.9-3.2-2.9-5.8-2.9s-4.6,1-5.8,2.9c-1.3,1.9-1.9,4.9-1.9,8.8
		c0,4,0.6,6.9,1.9,8.9c1.3,1.9,3.2,2.9,5.8,2.9S384.1,70.7,385.3,68.8z"/>
</g>
<g class="st1">
	<path class="st2" d="M408.3,77.1l-9-32.9c-0.1-0.4-0.2-0.8-0.2-1.2c0-1.1,1.3-1.6,4-1.6c1.5,0,2.6,0.1,3.3,0.3
		c0.7,0.2,1.1,0.6,1.3,1l5,20c0.2,0.8,0.4,1.7,0.5,2.8l0.6,3h0.3c0.5-2.8,0.8-4.8,1.1-6l5-19.7c0.2-0.9,1.3-1.4,3.4-1.4h1.3
		c0.9,0,1.7,0.1,2.4,0.4c0.7,0.2,1,0.6,1.1,1.1l5,20l0.8,4.3c0-0.1,0.1,0.4,0.3,1.6h0.1l0.4-2.5c0.3-1.9,0.5-3,0.7-3.5l5-20
		c0.2-0.9,1.4-1.3,3.7-1.3c2.5,0,3.8,0.5,3.8,1.6c0,0.4,0,0.8-0.1,1.1l-8.7,33c-0.1,0.4-0.5,0.8-1.1,1c-0.7,0.2-1.5,0.4-2.4,0.4h-3
		c-2.1,0-3.2-0.4-3.5-1.3l-4.7-18.7c-0.1-0.3-0.2-1.2-0.4-2.6c0-0.3-0.1-0.7-0.1-1.1c0-0.4-0.1-0.8-0.2-1.2h-0.2
		c-0.1,0.4-0.2,0.8-0.2,1.3s-0.1,0.8-0.1,1.1c-0.2,1.4-0.3,2.3-0.4,2.6l-4.6,18.6c-0.1,0.4-0.5,0.8-1.1,1c-0.6,0.2-1.4,0.4-2.4,0.4
		h-3C409.7,78.5,408.5,78,408.3,77.1z"/>
</g>
<g class="st1">
	<path class="st2" d="M461.8,34v-4.6c0-1.5,1.5-2.3,4.6-2.3c3,0,4.4,0.8,4.4,2.3V34c0,0.8-0.4,1.4-1.1,1.8c-0.7,0.4-1.9,0.6-3.5,0.6
		C463.2,36.3,461.8,35.5,461.8,34z M461.8,76.4v-33c0-1.4,1.2-2,3.7-2h1.4c2.5,0,3.7,0.7,3.7,2v33c0,1.4-1.2,2-3.7,2h-1.4
		C463.1,78.5,461.8,77.8,461.8,76.4z"/>
</g>
<g class="st1">
	<path class="st2" d="M479.2,76.4v-23c0-3.1-0.1-5.4-0.4-6.9c-0.3-1.5-0.4-2.3-0.4-2.7c0-0.7,0.8-1.2,2.3-1.5
		c1.5-0.4,2.9-0.5,4.1-0.5c0.8,0,1.4,0.3,1.7,1c0.3,0.7,0.6,1.4,0.7,2.1c0.2,0.7,0.3,1.2,0.3,1.4c1.2-1.5,2.8-2.8,4.7-3.8
		c1.9-1,3.9-1.5,5.9-1.5c7.1,0,10.7,3.8,10.7,11.4v24c0,0.7-0.3,1.2-0.9,1.5c-0.6,0.3-1.5,0.5-2.8,0.5h-1.3c-2.5,0-3.7-0.7-3.7-2
		V53.7c0-3.5-1.8-5.2-5.3-5.2c-1.4,0-2.6,0.4-3.8,1.3s-2.2,1.9-2.9,3.1v23.6c0,1.4-1.2,2-3.7,2h-1.4
		C480.4,78.5,479.2,77.8,479.2,76.4z"/>
</g>
<g class="st1">
	<path class="st2" d="M530.2,76.2c-1.8-1.7-2.7-4.5-2.7-8.2V48.7h-1.9c-0.7,0-1.1-0.2-1.4-0.7c-0.3-0.5-0.5-1.2-0.5-2.3v-1.1
		c0-1.1,0.2-1.8,0.5-2.3c0.3-0.5,0.8-0.7,1.4-0.7h1.9l0.9-6.9c0.2-1.4,1.3-2,3.2-2h1.7c2,0,3,0.7,3,2v6.9h4.3c0.7,0,1.1,0.2,1.4,0.7
		c0.3,0.5,0.5,1.2,0.5,2.3v1.1c0,1.1-0.2,1.9-0.5,2.3c-0.3,0.5-0.8,0.7-1.4,0.7h-4.3v19.3c0,1.4,0.2,2.4,0.7,3
		c0.5,0.6,1.2,0.8,2.2,0.8c0.5,0,0.9,0,1.3-0.1c0.4-0.1,0.7-0.1,1-0.1c0.6,0,1,0.6,1.4,1.8c0.4,1.2,0.6,2.1,0.6,2.6c0,2-2.1,3-6.2,3
		C534.5,78.8,532,77.9,530.2,76.2z"/>
</g>
<g class="st1">
	<path class="st2" d="M549.1,76.4v-49c0-1.3,1.2-2,3.7-2h1.4c2.5,0,3.7,0.7,3.7,2v18.5c1.2-1.4,2.7-2.6,4.5-3.4
		c1.8-0.9,3.7-1.3,5.7-1.3c3.3,0,6,0.9,7.9,2.7c1.9,1.8,2.9,4.7,2.9,8.7v24c0,1.4-1.2,2-3.7,2h-1.4c-2.5,0-3.7-0.7-3.7-2V53.7
		c0-1.6-0.5-2.9-1.4-3.8c-0.9-0.9-2.3-1.4-4-1.4c-1.6,0-3,0.5-4.2,1.5c-1.2,1-2.1,2-2.5,2.8v23.6c0,1.4-1.2,2-3.7,2h-1.4
		C550.3,78.5,549.1,77.8,549.1,76.4z"/>
</g>
<g class="st1">
	<path class="st2" d="M589.9,74c-3-3.2-4.4-7.8-4.4-13.8c0-6.5,1.5-11.3,4.4-14.4c2.9-3.1,7.1-4.7,12.4-4.7c5.1,0,8.8,1.6,11.3,4.9
		c2.5,3.3,3.7,7.7,3.7,13.3c0,0.5-0.4,1.3-1.3,2.2c-0.8,1-1.5,1.4-1.9,1.4h-19.4c0.2,3.1,1.1,5.3,2.6,6.7s3.6,2.1,6.4,2.1
		c2.5,0,5.1-0.7,7.7-2c0.7-0.3,1.2-0.5,1.4-0.5c0.6,0,1.3,0.6,2.1,1.9c0.8,1.2,1.2,2.2,1.2,2.8c0,0.9-0.7,1.7-2,2.5
		c-1.4,0.8-3,1.3-5,1.8c-2,0.4-3.9,0.6-5.6,0.6C597.3,78.8,592.8,77.2,589.9,74z M608.4,56.7c0-2.7-0.5-4.8-1.6-6.3
		c-1.1-1.5-2.6-2.2-4.7-2.2c-4.4,0-6.9,2.8-7.5,8.5H608.4z"/>
</g>
<g>
	<defs>
		<path id="SVGID_00000179628977706896988300000013437072023626128281_" d="M25.4,116.4V59.8c0-13.7,11.1-24.7,24.7-24.7h56.5
			c13.7,0,24.7,11.1,24.8,24.7v56.6c0,13.7-11.1,24.7-24.8,24.7H50.2C36.5,141.1,25.4,130,25.4,116.4 M50.2,28
			c-17.6,0-31.8,14.3-31.8,31.8v56.6c0,17.6,14.3,31.8,31.8,31.8h56.5c17.6,0,31.8-14.2,31.8-31.8V59.8c0-17.6-14.3-31.8-31.8-31.8
			H50.2z"/>
	</defs>
	<clipPath id="SVGID_00000054963753683183088460000015742941355684631680_">
		<use xlink:href="#SVGID_00000179628977706896988300000013437072023626128281_"  style="overflow:visible;"/>
	</clipPath>
	<g style="clip-path:url(#SVGID_00000054963753683183088460000015742941355684631680_);">
		<g>
			<defs>
				<rect id="SVGID_00000161626454199397171930000017383985668589231751_" x="15.9" y="25" width="125.3" height="125.3"/>
			</defs>
			<clipPath id="SVGID_00000074412445708584572390000001800418158672454330_">
				<use xlink:href="#SVGID_00000161626454199397171930000017383985668589231751_"  style="overflow:visible;"/>
			</clipPath>
			<g style="clip-path:url(#SVGID_00000074412445708584572390000001800418158672454330_);">
				
					<image style="overflow:visible;enable-background:new    ;" width="56" height="56" xlink:href="EE740CF2.png"  transform="matrix(2.24 0 0 2.24 15.91 25.02)">
				</image>
			</g>
		</g>
	</g>
</g>
<path class="st2" d="M113.7,162c-7.1-5.1-33-28.7-40.9-40.4c-3.7,7.1-7.7,13.7-11.1,19.6c-3.4,6.5-6,12.5-6.5,17.6
	c-2.6,21.9-28.1,12.8-34.7-8.5c-2.8-9.4,0.9-19.9,6.8-30.7s14.2-22.2,21.6-34.4C38.4,66.8,29.6,48.6,20.8,30.7
	c-11.4-23.3,24.4-21,35.5,2c3.4,7.4,8.2,16.5,11.9,23.6c15-20.2,30.7-37.2,41.5-46.9C124.2-4,137,34.1,128.4,46
	c-7.7,10.8-23,26.7-38.4,48.6c11.4,18.2,26.4,33.8,41.8,52C149.5,167.6,135.3,177.6,113.7,162"/>
<g>
	<defs>
		<path id="SVGID_00000183227472554538176790000017544752998696495255_" d="M576.9,125c-2.5,0-3.8,0.7-3.8,2.1v33.2
			c0,1.4,1.2,2.1,3.8,2.1h1.4c2.5,0,3.8-0.7,3.8-2.1V127c0-1.4-1.2-2.1-3.8-2.1L576.9,125z M242.3,131.8c1.9-0.1,3.6,0.8,4.7,2.3
			c1.2,1.9,1.7,4.1,1.6,6.3h-13.9C235.4,134.7,237.9,131.8,242.3,131.8 M229.9,129.4c-2.9,3.2-4.4,8-4.4,14.5
			c0,6.1,1.5,10.7,4.5,13.9c3,3.2,7.5,4.8,13.6,4.9c1.9,0,3.8-0.2,5.6-0.6c1.8-0.3,3.5-0.9,5.1-1.8c1.4-0.8,2.1-1.6,2.1-2.5
			c-0.1-1-0.5-2-1.2-2.9c-0.8-1.3-1.5-1.9-2.1-1.9c-0.5,0.1-1,0.3-1.4,0.5c-2.4,1.3-5.1,2-7.8,2c-2.8,0-5-0.7-6.5-2.1
			c-1.5-1.4-2.4-3.6-2.6-6.8h19.5c0.4,0,1.1-0.5,1.9-1.5c0.7-0.6,1.1-1.4,1.3-2.2c0-5.6-1.2-10.1-3.7-13.4c-2.5-3.3-6.3-5-11.4-5
			C237,124.6,232.8,126.2,229.9,129.4 M273.4,152.6c-1.3-2-1.9-5-1.9-9s0.6-7,1.9-8.9c1.3-2,3.5-3.1,5.9-2.9c2.3-0.2,4.6,1,5.8,2.9
			c1.3,2,1.9,4.9,1.9,8.9s-0.6,7-1.9,9c-1.3,2-3.5,3.1-5.8,2.9C276.9,155.6,274.7,154.5,273.4,152.6 M266.7,129.6
			c-2.9,3.3-4.3,8-4.3,14.2s1.4,10.9,4.3,14.1c2.9,3.3,7.1,4.9,12.6,4.9s9.7-1.6,12.5-4.9c2.9-3.2,4.3-7.9,4.3-14.1
			c0-6.2-1.4-10.9-4.3-14.2c-2.8-3.3-7-4.9-12.5-4.9S269.7,126.3,266.7,129.6 M311.9,153.5v-17c0.9-1.3,2-2.4,3.3-3.3
			c1.1-0.8,2.5-1.2,3.8-1.2c2.1,0,4.1,1.1,5,3c1.1,2,1.7,4.9,1.7,8.8c0,7.8-2.5,11.6-7.6,11.6C315.9,155.5,313.7,154.8,311.9,153.5
			 M315.7,126c-1.7,0.9-3.2,2.3-4.4,3.9c0-0.3-0.1-0.8-0.3-1.5c-0.2-0.7-0.4-1.4-0.8-2.1c-0.3-0.7-1-1.1-1.7-1
			c-1.4,0-2.8,0.2-4.1,0.5c-1.6,0.3-2.3,0.9-2.3,1.5c0.1,0.9,0.2,1.8,0.4,2.7c0.4,2.3,0.5,4.6,0.5,6.9v37.8c0,0.6,0.3,1.3,0.9,1.6
			c0.2,0.1,0.3,0.2,0.5,0.2h5.9c0.9-0.1,1.5-0.9,1.5-1.8V160c2.4,1.8,5.3,2.7,8.3,2.7c4.2,0.2,8.3-1.7,10.9-5.1
			c2.6-3.4,3.9-8,3.9-13.9c0.1-3.5-0.5-6.9-1.7-10.1c-0.9-2.6-2.5-4.9-4.7-6.6c-2-1.5-4.5-2.3-7.1-2.3
			C319.5,124.6,317.5,125.1,315.7,126 M376.7,131.8c1.9-0.1,3.6,0.8,4.7,2.3c1.2,1.9,1.7,4.1,1.6,6.3h-13.9
			C369.8,134.6,372.3,131.8,376.7,131.8 M364.2,129.4c-2.9,3.2-4.4,8-4.4,14.5c0,6.1,1.5,10.7,4.5,13.9s7.5,4.8,13.6,4.9
			c1.9,0,3.8-0.2,5.6-0.6c1.8-0.3,3.5-0.9,5.1-1.8c1.4-0.8,2.1-1.6,2.1-2.5c-0.1-1-0.5-2-1.2-2.9c-0.8-1.3-1.5-1.9-2.1-1.9
			c-0.5,0.1-1,0.3-1.4,0.5c-2.4,1.3-5.1,2-7.8,2c-2.8,0-5-0.7-6.5-2.1c-1.5-1.4-2.4-3.6-2.6-6.8h19.5c0.4,0,1.1-0.5,1.9-1.5
			c0.6-0.6,1.1-1.4,1.3-2.2c0-5.6-1.2-10.1-3.7-13.4c-2.5-3.3-6.3-5-11.4-5C371.4,124.6,367.2,126.2,364.2,129.4 M543.6,152.5
			c-1.3-2-1.9-5-1.9-9s0.6-7,1.9-8.9c1.3-2,3.5-3.1,5.9-2.9c2.3-0.2,4.6,1,5.8,2.9c1.3,2,1.9,4.9,1.9,8.9s-0.6,7-1.9,9
			c-1.3,2-3.5,3.1-5.8,2.9C547.2,155.6,544.9,154.5,543.6,152.5 M537,129.5c-2.9,3.3-4.3,8-4.3,14.2s1.4,10.9,4.3,14.1
			c2.9,3.3,7.1,4.9,12.6,4.9s9.7-1.6,12.5-4.9c2.8-3.2,4.3-7.9,4.3-14.1s-1.4-10.9-4.3-14.2c-2.9-3.3-7-4.9-12.5-4.9
			C544.1,124.6,539.9,126.3,537,129.5 M593.5,129.3c-3.1,3.1-4.6,7.9-4.6,14.4s1.5,11.3,4.4,14.3c2.9,3.1,7.4,4.6,13.3,4.6
			c1.7,0,3.3-0.2,5-0.5c1.7-0.3,3.4-0.8,4.9-1.5c1.4-0.7,2.1-1.5,2.1-2.4c-0.1-1.1-0.5-2.1-1.1-2.9c-0.8-1.2-1.5-1.8-2.1-1.8
			c-0.4,0.1-0.7,0.2-1.1,0.4c-1.1,0.5-2.3,0.9-3.4,1.2c-1.3,0.3-2.6,0.5-3.9,0.5c-3.1,0-5.4-1-6.7-2.9s-2.1-5-2.1-9.1s0.7-7,2.2-8.9
			s3.7-2.8,6.6-2.8c2.3,0,4.6,0.6,6.7,1.6c0.7,0.3,1,0.4,1.1,0.4c0.5,0,1.2-0.6,2-2c0.7-0.8,1.1-1.8,1.3-2.8c0-1.3-1.2-2.3-3.5-3.1
			c-2.5-0.8-5.1-1.2-7.8-1.2C601,124.7,596.6,126.2,593.5,129.3 M638.3,131.8c1.9-0.1,3.6,0.8,4.7,2.3c1.2,1.9,1.7,4.1,1.6,6.3
			h-13.9C631.3,134.7,633.9,131.8,638.3,131.8 M625.8,129.4c-3,3.2-4.4,8-4.4,14.5c0,6.1,1.5,10.7,4.5,13.9c3,3.2,7.5,4.8,13.6,4.9
			c1.9,0,3.8-0.2,5.6-0.6c1.8-0.3,3.5-0.9,5.1-1.8c1.4-0.8,2-1.6,2-2.5c-0.1-1-0.5-2-1.2-2.9c-0.8-1.3-1.5-1.9-2.1-1.9
			c-0.5,0.1-1,0.3-1.4,0.5c-2.4,1.3-5.1,2-7.8,2c-2.8,0-5-0.7-6.5-2.1c-1.5-1.4-2.3-3.6-2.6-6.8h19.5c0.4,0,1.1-0.5,1.9-1.5
			c0.3-0.3,0.6-0.7,0.8-1.1v-6.6c-0.4-2.9-1.6-5.6-3.3-7.9c-2.5-3.3-6.3-5-11.4-5C632.9,124.7,628.8,126.2,625.8,129.4 M410.2,127.6
			c-2.3,2.1-3.6,5.1-3.4,8.2c0,3,0.8,5.2,2.3,6.8c1.8,1.7,4,3.1,6.4,3.8c1.7,0.6,3.4,1.3,4.9,2.3c1,0.7,1.6,1.8,1.5,3
			c0,2.7-1.7,4-5.1,4c-1.1,0-2.2-0.2-3.3-0.5c-0.9-0.3-1.9-0.7-2.7-1.2c-0.5-0.3-1-0.5-1.6-0.7c-0.6,0-1.3,0.6-2.1,1.8
			c-0.7,0.9-1.1,1.9-1.2,3c0,0.8,0.6,1.6,1.7,2.3c1.4,0.8,2.8,1.4,4.4,1.7c1.8,0.4,3.7,0.6,5.5,0.6c4.1,0,7.3-1.1,9.7-3.2
			c2.4-2.1,3.8-5.2,3.6-8.5c0-2.8-0.6-5-1.9-6.5c-1.7-1.8-3.7-3.1-6-3.9c-2-0.8-3.4-1.4-4.1-1.8c-0.8-0.4-1.5-0.9-2.1-1.6
			c-0.6-0.7-1-1.6-0.9-2.5c0-0.9,0.5-1.8,1.3-2.3c1-0.6,2.2-0.9,3.4-0.8c1.5,0,2.9,0.2,4.2,0.8c0.6,0.3,1.3,0.6,1.9,0.8
			c0.6,0,1.2-0.6,1.8-1.9c0.6-0.9,0.9-2,1-3.1c0-1.1-1.1-2-3.3-2.7c-2.2-0.7-4.6-1-6.9-1C416,124.5,412.8,125.5,410.2,127.6
			 M197.7,120.5h7.6c1.8,0,3.7,0.5,5.2,1.6c1.5,1,2.2,2.9,2.2,5.4s-0.7,4.6-2.1,5.6c-1.4,1.1-3.1,1.6-4.9,1.6h-7.9V120.5z
			 M191,112.6c-0.7-0.1-1.5,0.2-2,0.6c-0.5,0.6-0.7,1.3-0.6,2v45c0,0.6,0.3,1.3,0.9,1.6c0.9,0.4,1.9,0.6,2.9,0.5h1.9
			c2.5,0,3.8-0.7,3.8-2.1v-17.5h8.7c2.2-0.1,4.3-0.4,6.4-1.2c2.5-0.9,4.8-2.5,6.4-4.6c1.9-2.3,2.9-5.4,2.9-9.5c0-5.8-1.7-9.8-5-11.8
			c-3.4-2.1-7.4-3.2-11.5-3.1L191,112.6z M452,137.3c0,8.7,1.9,15.1,5.6,19.2s9.6,6.2,17.5,6.2c2.4,0,4.7-0.2,7.1-0.7
			c2.1-0.4,4-1,5.9-2c1.6-0.9,2.4-1.9,2.4-3c-0.1-0.7-0.3-1.3-0.6-1.9c-0.4-0.8-0.8-1.6-1.4-2.4c-0.4-0.6-0.9-0.9-1.6-1
			c-0.6,0.1-1.1,0.3-1.6,0.6c-1.5,0.7-3,1.3-4.6,1.8c-1.8,0.5-3.8,0.7-5.7,0.7c-4.6,0-8-1.4-10.2-4.3c-2.2-2.9-3.4-7.2-3.4-13
			c0-5.9,1.1-10.3,3.4-13.1s5.7-4.2,10.4-4.2c1.7,0,3.5,0.2,5.2,0.6c1.3,0.3,2.5,0.7,3.7,1.3c0.5,0.3,1.1,0.5,1.7,0.7
			c0.5,0,1-0.4,1.6-1.1c0.6-0.7,1.1-1.6,1.6-2.4c0.4-0.7,0.6-1.4,0.7-2.2c0-0.8-0.6-1.5-1.8-2.1c-1.7-0.9-3.6-1.5-5.5-1.9
			c-2.3-0.5-4.6-0.7-7-0.8C459.8,112.1,452,120.5,452,137.3 M573.1,112.9v4.6c0,1.6,1.5,2.3,4.5,2.3c1.2,0.1,2.4-0.1,3.5-0.6
			c0.7-0.3,1.1-1,1.1-1.8v-4.6c0-1.6-1.5-2.3-4.5-2.3S573.1,111.3,573.1,112.9 M345.4,108.9c-2.5,0-3.8,0.7-3.8,2v41
			c0,3.8,0.9,6.5,2.7,8.2c2,1.8,4.6,2.7,7.2,2.6c4.2,0,6.2-1,6.2-3c-0.1-0.9-0.3-1.8-0.6-2.7c-0.4-1.2-0.9-1.8-1.4-1.8
			c-0.3,0-0.6,0.1-0.9,0.1c-0.4,0.1-0.9,0.2-1.3,0.1c-0.9,0.1-1.7-0.3-2.3-0.9c-0.6-0.9-0.9-1.9-0.8-2.9v-40.9c0-1.3-1.2-2-3.8-2
			L345.4,108.9z M499.8,108.9c-2.5,0-3.8,0.7-3.8,2v49.4c0,1.4,1.2,2.1,3.8,2.1h1.4c2.5,0,3.8-0.7,3.8-2.1v-23.8
			c0.7-1.1,1.5-2.1,2.5-2.9c1.2-1,2.7-1.5,4.2-1.5c1.5-0.1,3,0.4,4.1,1.4c1,1,1.5,2.4,1.4,3.9v22.9c0,1.4,1.2,2.1,3.8,2.1h1.4
			c2.5,0,3.8-0.7,3.8-2.1v-24.1c0-4-1-6.9-2.9-8.8c-2.2-1.9-5.1-2.9-8-2.7c-2,0-4,0.5-5.7,1.3c-1.7,0.8-3.3,2-4.5,3.5v-18.6
			c0-1.3-1.2-2-3.8-2L499.8,108.9z M401.6,108.7c-1-0.1-2,0.2-2.8,0.8c-0.6,0.5-1,1.3-0.9,2.1c0,2.3-0.2,4.6-0.7,6.9
			c-0.5,1.8-1.1,3.6-1.8,5.4c-0.3,0.6-0.4,1.3-0.5,1.9c0,0.5,0.4,0.9,0.9,1.1c0.6,0.2,1.3,0.4,1.9,0.4c1,0,2.2-0.8,3.6-2.3
			c1.6-1.7,2.8-3.8,3.7-5.9c1-2.4,1.6-4.9,1.6-7.5c0-0.8-0.3-1.5-1-1.9c-0.8-0.6-1.8-0.8-2.8-0.8L401.6,108.7z"/>
	</defs>
	<clipPath id="SVGID_00000119813460490654379730000003189941843177413545_">
		<use xlink:href="#SVGID_00000183227472554538176790000017544752998696495255_"  style="overflow:visible;"/>
	</clipPath>
	<g style="clip-path:url(#SVGID_00000119813460490654379730000003189941843177413545_);">
		<g>
			<defs>
				<rect id="SVGID_00000149360842362767517850000017925166339152830612_" x="180.6" y="97.1" width="474.3" height="82.1"/>
			</defs>
			<clipPath id="SVGID_00000160166343666448185170000002849126209512349079_">
				<use xlink:href="#SVGID_00000149360842362767517850000017925166339152830612_"  style="overflow:visible;"/>
			</clipPath>
			<g style="clip-path:url(#SVGID_00000160166343666448185170000002849126209512349079_);">
				
					<image style="overflow:visible;enable-background:new    ;" width="573" height="100" xlink:href="EE740CF5.png"  transform="matrix(0.8217 0 0 0.8217 182.6029 97.09)">
				</image>
			</g>
		</g>
	</g>
</g>
<g>
	<defs>
		<rect id="SVGID_00000076589850264416445380000008544272379534406576_" x="183" y="97.1" width="677.3" height="89.8"/>
	</defs>
	<clipPath id="SVGID_00000092416566214930623630000005852721578489845900_">
		<use xlink:href="#SVGID_00000076589850264416445380000008544272379534406576_"  style="overflow:visible;"/>
	</clipPath>
	<g style="clip-path:url(#SVGID_00000092416566214930623630000005852721578489845900_);">
		<g class="st1">
			<path class="st2" d="M671.8,160c0-0.1,0.1-0.5,0.3-1.1l15.2-43.5c0.3-0.9,1.4-1.3,3.4-1.3h3c2,0,3.1,0.4,3.4,1.3l15.2,43.5
				c0.1,0.4,0.2,0.8,0.2,1.1c0,0.9-1.1,1.3-3.2,1.3h-2.1c-2,0-3.1-0.4-3.4-1.3l-3.1-9.2h-17.2l-3.1,9.2c-0.3,0.9-1.3,1.3-3,1.3h-1.9
				C673,161.3,671.8,160.9,671.8,160z M698.1,143.3l-4.9-14.8c-0.4-1-0.7-2.4-0.9-4.2H692c0,0.3-0.2,0.9-0.3,1.7
				c-0.2,0.9-0.4,1.7-0.7,2.4l-5,14.8H698.1z"/>
		</g>
		<g class="st1">
			<path class="st2" d="M722,160l-8.6-31.4c-0.1-0.4-0.2-0.8-0.2-1.1c0-1,1.3-1.5,3.8-1.5c1.4,0,2.5,0.1,3.2,0.3s1.1,0.5,1.2,1
				l4.8,19.1c0.2,0.8,0.3,1.7,0.5,2.7l0.5,2.8h0.3c0.4-2.7,0.8-4.6,1.1-5.7l4.8-18.8c0.2-0.9,1.3-1.3,3.3-1.3h1.2
				c0.9,0,1.7,0.1,2.3,0.3c0.6,0.2,1,0.6,1.1,1l4.8,19.1l0.8,4.1c0-0.1,0.1,0.4,0.3,1.5h0.1l0.4-2.4c0.3-1.8,0.5-2.9,0.7-3.4
				l4.8-19.1c0.2-0.8,1.4-1.3,3.6-1.3c2.4,0,3.6,0.5,3.6,1.5c0,0.4,0,0.7-0.1,1l-8.3,31.6c-0.1,0.4-0.4,0.7-1.1,0.9
				c-0.6,0.2-1.4,0.3-2.3,0.3h-2.8c-2,0-3.1-0.4-3.4-1.3l-4.5-17.9c-0.1-0.3-0.2-1.1-0.4-2.5c0-0.3-0.1-0.7-0.1-1
				c0-0.4-0.1-0.8-0.2-1.2h-0.2c-0.1,0.4-0.2,0.8-0.2,1.2c0,0.4-0.1,0.8-0.1,1.1c-0.2,1.3-0.3,2.2-0.4,2.5l-4.4,17.8
				c-0.1,0.4-0.4,0.7-1,0.9s-1.4,0.3-2.2,0.3h-2.9C723.4,161.3,722.3,160.9,722,160z"/>
			<path class="st2" d="M766.9,159c-1.8-1.8-2.7-4.2-2.7-7.2c0-8.2,6.8-12.4,20.4-12.4v-2.6c0-3-2-4.4-6-4.4c-1.7,0-3.1,0.2-4.4,0.6
				c-1.3,0.4-2.4,0.8-3.3,1.2c-0.9,0.4-1.5,0.6-1.6,0.6c-0.6,0-1.2-0.6-2-1.9c-0.7-1.3-1.1-2.2-1.1-2.8c0-0.7,0.6-1.4,1.7-2.1
				c1.1-0.7,2.7-1.3,4.7-1.7c2-0.4,4.1-0.7,6.4-0.7c4.7,0,8.3,1,10.6,2.9c2.3,1.9,3.5,4.6,3.5,8V150c0,3,0.1,5.3,0.4,6.7
				s0.4,2.3,0.4,2.6c0,0.6-0.7,1.1-2.2,1.4s-2.8,0.5-4,0.5c-0.7,0-1.2-0.3-1.5-1c-0.3-0.6-0.5-1.4-0.7-2.1c-0.2-0.8-0.3-1.3-0.3-1.5
				c-0.9,1.2-2.3,2.4-4,3.4c-1.7,1.1-3.9,1.6-6.4,1.6C771.3,161.7,768.7,160.8,766.9,159z M781.2,153.6c1.3-0.8,2.4-1.9,3.3-3.2
				v-5.1c-3.7,0-6.5,0.4-8.6,1.2c-2.1,0.8-3.1,2.3-3.1,4.4c0,1.2,0.4,2.2,1.1,2.9c0.7,0.7,1.7,1,3.1,1
				C778.5,154.9,779.9,154.5,781.2,153.6z"/>
		</g>
		<g class="st1">
			<path class="st2" d="M801.6,159.4v-22c0-3-0.1-5.2-0.4-6.6c-0.3-1.4-0.4-2.2-0.4-2.6c0-0.6,0.7-1.1,2.2-1.4s2.8-0.5,4-0.5
				c0.7,0,1.2,0.3,1.5,0.9c0.3,0.6,0.5,1.3,0.7,2c0.2,0.7,0.3,1.2,0.3,1.4c2.1-3.4,4.5-5,7.5-5c1.4,0,2.4,0.3,3,1
				c0.6,0.6,0.9,1.4,0.9,2.3c0,0.9-0.2,1.9-0.5,3.2c-0.4,1.2-0.8,1.8-1.3,1.8c-0.2,0-0.7-0.1-1.3-0.3c-0.6-0.2-1.3-0.3-2-0.3
				c-1.3,0-2.5,0.4-3.5,1.3c-1,0.9-1.7,1.6-2.1,2.4v22.6c0,1.3-1.2,1.9-3.6,1.9h-1.3C802.8,161.3,801.6,160.7,801.6,159.4z"/>
		</g>
		<g class="st1">
			<path class="st2" d="M830.2,159.5c-1.9-1.5-3.4-3.5-4.5-6.2c-1.1-2.7-1.6-5.9-1.6-9.6c0-5.6,1.3-10,3.8-13.2
				c2.5-3.2,5.9-4.8,10.3-4.8c3,0,5.6,0.9,7.8,2.6v-15.7c0-1.3,1.2-1.9,3.6-1.9h1.3c2.4,0,3.6,0.6,3.6,1.9V150c0,3,0.1,5.3,0.4,6.7
				s0.4,2.3,0.4,2.6c0,0.6-0.7,1.1-2.2,1.4s-2.8,0.5-4,0.5c-0.7,0-1.2-0.3-1.5-1c-0.3-0.6-0.5-1.4-0.7-2.1c-0.2-0.8-0.3-1.3-0.3-1.5
				c-1.1,1.6-2.5,2.8-4.1,3.7c-1.7,0.9-3.5,1.3-5.5,1.3C834.4,161.7,832.1,160.9,830.2,159.5z M845.9,150.4v-16.1
				c-1.8-1.3-3.8-1.9-5.9-1.9c-4.8,0-7.3,3.7-7.3,11c0,3.7,0.5,6.5,1.6,8.4c1.1,1.9,2.7,2.9,4.8,2.9
				C841.7,154.7,843.9,153.3,845.9,150.4z"/>
		</g>
	</g>
</g>
</svg>
