<?xml version="1.0" standalone="no"?>
<!DOCTYPE svg PUBLIC "-//W3C//DTD SVG 1.1//EN" "http://www.w3.org/Graphics/SVG/1.1/DTD/svg11.dtd" >
<svg xmlns="http://www.w3.org/2000/svg" xmlns:xlink="http://www.w3.org/1999/xlink" version="1.1">
<metadata>
Created by FontForge 20170924 at Sat Jan 25 09:50:19 2020
 By www-data
Copyright \(c\) 2005 _ 2014 by Ermin Mededovic. All rights reserved.
</metadata>
<defs>
<font id="IngraSCVO-Regular" horiz-adv-x="551" >
  <font-face 
    font-family="Ingra SCVO"
    font-weight="400"
    font-stretch="normal"
    units-per-em="1000"
    panose-1="0 0 5 0 0 0 0 0 0 0"
    ascent="761"
    descent="-239"
    x-height="503"
    cap-height="677"
    bbox="-280 -239 1020 948"
    underline-thickness="66"
    underline-position="-186"
    stemh="70"
    stemv="88"
    unicode-range="U+000D-FB02"
  />
<missing-glyph horiz-adv-x="991" 
d="M745 677v-677h-500v677h500zM495 394l147 226h-293zM315 562v-447l145 224zM676 115v447l-145 -223zM349 57h293l-147 226z" />
    <glyph glyph-name="f_f" unicode="ff" horiz-adv-x="659" 
d="M606 668c-64 0 -93 -39 -93 -110v-55h130v-65h-130v-438h-88v438h-227v-438h-88v438h-88v65h88v68c0 110 57 168 165 168c28 0 57 -4 81 -11v-70c-25 7 -45 10 -65 10c-64 0 -93 -39 -93 -110v-55h227v68c0 110 57 168 165 168c28 0 57 -4 81 -11v-70
c-25 7 -45 10 -65 10z" />
    <glyph glyph-name="f_i" unicode="fi" horiz-adv-x="574" 
d="M425 0v438h-227v-438h-88v438h-88v65h88v64c0 121 88 171 217 171c58 0 107 -10 146 -20v-69c-41 11 -95 19 -140 19c-89 0 -135 -34 -135 -98v-67h315v-503h-88z" />
    <glyph glyph-name="f_l" unicode="fl" horiz-adv-x="609" 
d="M549 60c10 0 19 1 29 5v-64c-21 -7 -40 -11 -59 -11c-54 0 -94 33 -94 99v571c-30 5 -68 8 -98 8c-76 0 -129 -25 -129 -99v-66h130v-65h-130v-438h-88v438h-88v65h88v77c0 113 85 159 215 159c59 0 143 -10 188 -21v-625c0 -25 16 -33 36 -33z" />
    <glyph glyph-name=".notdef" horiz-adv-x="991" 
d="M745 677v-677h-500v677h500zM495 394l147 226h-293zM315 562v-447l145 224zM676 115v447l-145 -223zM349 57h293l-147 226z" />
    <glyph glyph-name="null" horiz-adv-x="0" 
 />
    <glyph glyph-name="CR" unicode="&#xd;" horiz-adv-x="0" 
 />
    <glyph glyph-name="space" unicode=" " horiz-adv-x="270" 
 />
    <glyph glyph-name="A" unicode="A" horiz-adv-x="629" 
d="M367 677l248 -677h-96l-65 179h-283l-66 -179h-91l248 677h105zM312 585h-1l-120 -328h242z" />
    <glyph glyph-name="B" unicode="B" horiz-adv-x="593" 
d="M548 196c0 -131 -91 -196 -247 -196h-212v677h182c163 0 234 -59 234 -167c0 -71 -43 -134 -122 -149v-1c95 -9 165 -73 165 -164zM414 497c0 65 -43 103 -141 103h-93v-210h110c78 0 124 42 124 107zM456 197c0 80 -67 118 -154 118h-122v-237h126c94 0 150 44 150 119z
" />
    <glyph glyph-name="C" unicode="C" horiz-adv-x="606" 
d="M558 581c-49 19 -102 32 -160 32c-153 0 -253 -104 -253 -274c0 -159 79 -275 259 -275c60 0 108 8 169 29v-78c-53 -17 -110 -28 -183 -28c-237 0 -340 148 -340 346c0 243 150 356 330 356c71 0 130 -10 178 -28v-80z" />
    <glyph glyph-name="D" unicode="D" horiz-adv-x="683" 
d="M632 346c0 -232 -112 -346 -342 -346h-201v677h206c214 0 337 -120 337 -331zM539 344c0 165 -89 255 -255 255h-104v-521h102c177 0 257 83 257 266z" />
    <glyph glyph-name="E" unicode="E" horiz-adv-x="538" 
d="M89 0v677h395v-79h-304v-209h266v-79h-266v-231h307v-79h-398z" />
    <glyph glyph-name="F" unicode="F" horiz-adv-x="498" 
d="M180 598v-227h257v-80h-257v-291h-91v677h376v-79h-285z" />
    <glyph glyph-name="G" unicode="G" horiz-adv-x="654" 
d="M572 575c-42 19 -96 38 -162 38c-186 0 -266 -116 -266 -275c0 -180 88 -275 237 -275c56 0 94 6 124 15v271h91v-321c-57 -25 -132 -41 -226 -41c-182 0 -319 100 -319 346c0 229 132 356 347 356c76 0 127 -15 174 -34v-80z" />
    <glyph glyph-name="H" unicode="H" horiz-adv-x="697" 
d="M517 0v309h-337v-309h-91v677h91v-289h337v289h91v-677h-91z" />
    <glyph glyph-name="I" unicode="I" horiz-adv-x="269" 
d="M89 677h91v-677h-91v677z" />
    <glyph glyph-name="J" unicode="J" horiz-adv-x="360" 
d="M276 176c0 -128 -52 -189 -174 -189c-31 0 -66 5 -86 11v79c21 -7 46 -12 73 -12c71 0 96 30 96 108v504h91v-501z" />
    <glyph glyph-name="K" unicode="K" horiz-adv-x="621" 
d="M268 316l-87 -90v-226h-92v677h92v-351l319 351h103l-274 -297l289 -380h-108z" />
    <glyph glyph-name="L" unicode="L" horiz-adv-x="499" 
d="M89 0v677h91v-598h307v-79h-398z" />
    <glyph glyph-name="M" unicode="M" horiz-adv-x="795" 
d="M706 677v-677h-90v288l6 248h-2l-196 -324h-54l-195 322h-2l6 -243v-291h-90v677h95l215 -354l214 354h93z" />
    <glyph glyph-name="N" unicode="N" horiz-adv-x="706" 
d="M534 0l-354 536h-1v-536h-90v677h95l342 -516h1v516h90v-677h-83z" />
    <glyph glyph-name="O" unicode="O" horiz-adv-x="733" 
d="M366 -13c-219 0 -315 143 -315 348c0 198 99 354 317 354c217 0 314 -151 314 -350s-101 -352 -316 -352zM367 64c158 0 222 124 222 274c0 151 -64 274 -222 274c-159 0 -223 -126 -223 -274c0 -153 65 -274 223 -274z" />
    <glyph glyph-name="P" unicode="P" 
d="M519 474c0 -138 -97 -214 -250 -214h-89v-260h-91v677h180c147 0 250 -51 250 -203zM424 471c0 96 -67 128 -158 128h-86v-262h89c95 0 155 48 155 134z" />
    <glyph glyph-name="Q" unicode="Q" horiz-adv-x="733" 
d="M706 -154h-110l-143 150c-27 -6 -56 -9 -87 -9c-219 0 -315 143 -315 348c0 198 99 354 317 354c217 0 314 -151 314 -350c0 -139 -49 -255 -152 -313zM144 338c0 -153 65 -274 223 -274s222 124 222 274c0 151 -64 274 -222 274c-159 0 -223 -126 -223 -274z" />
    <glyph glyph-name="R" unicode="R" horiz-adv-x="593" 
d="M576 0h-103l-180 290h-113v-290h-91v677h198c159 0 247 -55 247 -185c0 -85 -63 -154 -152 -179zM291 366c92 0 151 43 151 120c0 85 -66 113 -156 113h-106v-233h111z" />
    <glyph glyph-name="S" unicode="S" horiz-adv-x="499" 
d="M429 664v-81c-49 17 -102 29 -149 29c-71 0 -127 -27 -127 -103c0 -175 303 -85 303 -327c0 -140 -105 -195 -223 -195c-62 0 -127 14 -184 40v83c59 -27 126 -46 185 -46c72 0 128 30 128 112c0 173 -303 91 -303 329c0 134 103 184 220 184c50 0 102 -9 150 -25z" />
    <glyph glyph-name="T" unicode="T" horiz-adv-x="531" 
d="M312 598v-598h-92v598h-206v79h503v-79h-205z" />
    <glyph glyph-name="U" unicode="U" horiz-adv-x="681" 
d="M599 236c0 -167 -99 -249 -261 -249c-159 0 -256 78 -256 248v442h90v-449c0 -112 62 -164 169 -164c111 0 168 52 168 163v450h90v-441z" />
    <glyph glyph-name="V" unicode="V" horiz-adv-x="611" 
d="M256 0l-240 677h97l195 -561h3l195 561h89l-239 -677h-100z" />
    <glyph glyph-name="W" unicode="W" horiz-adv-x="875" 
d="M184 0l-159 677h97l123 -559h2l151 559h90l150 -559h1l123 559h88l-160 -677h-108l-144 527h-2l-142 -527h-110z" />
    <glyph glyph-name="X" unicode="X" horiz-adv-x="580" 
d="M555 677l-211 -328l224 -349h-107l-175 276h-1l-173 -276h-100l222 349l-209 328h106l162 -254h1l162 254h99z" />
    <glyph glyph-name="Y" unicode="Y" horiz-adv-x="583" 
d="M246 267l-230 410h102l176 -325h2l176 325h95l-230 -410v-267h-91v267z" />
    <glyph glyph-name="Z" unicode="Z" horiz-adv-x="548" 
d="M39 0v78l360 521h-350v78h454v-78l-362 -520h366v-79h-468z" />
    <glyph glyph-name="Aacute" unicode="&#xc1;" horiz-adv-x="629" 
d="M343 898h112l-116 -158h-67zM367 677l248 -677h-96l-65 179h-283l-66 -179h-91l248 677h105zM312 585h-1l-120 -328h242z" />
    <glyph glyph-name="Abreve" unicode="&#x102;" horiz-adv-x="629" 
d="M314 797c55 0 86 36 86 101h68c0 -107 -66 -160 -157 -160c-93 0 -149 55 -150 160h68c1 -66 34 -101 85 -101zM367 677l248 -677h-96l-65 179h-283l-66 -179h-91l248 677h105zM312 585h-1l-120 -328h242z" />
    <glyph glyph-name="uni01CD" unicode="&#x1cd;" horiz-adv-x="629" 
d="M360 740h-90l-100 158h65l80 -101l82 101h62zM367 677l248 -677h-96l-65 179h-283l-66 -179h-91l248 677h105zM312 585h-1l-120 -328h242z" />
    <glyph glyph-name="Acircumflex" unicode="&#xc2;" horiz-adv-x="629" 
d="M272 898h85l103 -158h-65l-81 99l-81 -99h-63zM367 677l248 -677h-96l-65 179h-283l-66 -179h-91l248 677h105zM312 585h-1l-120 -328h242z" />
    <glyph glyph-name="Adieresis" unicode="&#xc4;" horiz-adv-x="629" 
d="M211 853c32 0 59 -27 59 -60s-27 -59 -59 -59c-33 0 -60 26 -60 59s27 60 60 60zM419 853c33 0 59 -27 59 -60s-26 -59 -59 -59s-59 26 -59 59s26 60 59 60zM367 677l248 -677h-96l-65 179h-283l-66 -179h-91l248 677h105zM312 585h-1l-120 -328h242z" />
    <glyph glyph-name="Agrave" unicode="&#xc0;" horiz-adv-x="629" 
d="M349 740h-63l-103 158h105zM367 677l248 -677h-96l-65 179h-283l-66 -179h-91l248 677h105zM312 585h-1l-120 -328h242z" />
    <glyph glyph-name="Amacron" unicode="&#x100;" horiz-adv-x="629" 
d="M455 758h-279v64h279v-64zM367 677l248 -677h-96l-65 179h-283l-66 -179h-91l248 677h105zM312 585h-1l-120 -328h242z" />
    <glyph glyph-name="Aogonek" unicode="&#x104;" horiz-adv-x="629" 
d="M595 -114c18 0 40 4 58 9v-57c-24 -15 -55 -23 -86 -23c-59 0 -98 36 -98 90c0 36 15 70 50 95l-65 179h-283l-66 -179h-91l248 677h105l248 -677c-50 -19 -66 -53 -66 -74c0 -29 17 -40 46 -40zM191 257h242l-121 328h-1z" />
    <glyph glyph-name="Aring" unicode="&#xc5;" horiz-adv-x="629" 
d="M424 828c0 -61 -39 -97 -110 -97c-74 0 -111 36 -111 97c0 62 40 96 111 96c73 0 110 -35 110 -96zM368 828c0 35 -22 53 -54 53s-53 -18 -53 -53c0 -36 21 -54 53 -54s54 18 54 54zM367 677l248 -677h-96l-65 179h-283l-66 -179h-91l248 677h105zM312 585h-1l-120 -328
h242z" />
    <glyph glyph-name="Atilde" unicode="&#xc3;" horiz-adv-x="629" 
d="M244 843c73 0 85 -49 136 -49c33 0 42 16 42 47h64c-1 -70 -39 -108 -102 -108c-78 0 -92 52 -136 52c-28 0 -41 -15 -41 -49h-64c1 70 37 107 101 107zM367 677l248 -677h-96l-65 179h-283l-66 -179h-91l248 677h105zM312 585h-1l-120 -328h242z" />
    <glyph glyph-name="AE" unicode="&#xc6;" horiz-adv-x="897" 
d="M539 78h307v-78h-398v179h-248l-111 -179h-94l418 677h430v-78h-304v-211h266v-77h-266v-233zM248 257h200v320h-2z" />
    <glyph glyph-name="AEacute" unicode="&#x1fc;" horiz-adv-x="897" 
d="M753 898l-116 -158h-67l71 158h112zM539 78h307v-78h-398v179h-248l-111 -179h-94l418 677h430v-78h-304v-211h266v-77h-266v-233zM248 257h200v320h-2z" />
    <glyph glyph-name="uni01E2" unicode="&#x1e2;" horiz-adv-x="897" 
d="M753 822v-64h-279v64h279zM539 78h307v-78h-398v179h-248l-111 -179h-94l418 677h430v-78h-304v-211h266v-77h-266v-233zM248 257h200v320h-2z" />
    <glyph glyph-name="Cacute" unicode="&#x106;" horiz-adv-x="606" 
d="M405 898h112l-116 -158h-67zM558 581c-49 19 -102 32 -160 32c-153 0 -253 -104 -253 -274c0 -159 79 -275 259 -275c60 0 108 8 169 29v-78c-53 -17 -110 -28 -183 -28c-237 0 -340 148 -340 346c0 243 150 356 330 356c71 0 130 -10 178 -28v-80z" />
    <glyph glyph-name="Ccaron" unicode="&#x10c;" horiz-adv-x="606" 
d="M422 740h-90l-100 158h65l80 -101l82 101h62zM558 581c-49 19 -102 32 -160 32c-153 0 -253 -104 -253 -274c0 -159 79 -275 259 -275c60 0 108 8 169 29v-78c-53 -17 -110 -28 -183 -28c-237 0 -340 148 -340 346c0 243 150 356 330 356c71 0 130 -10 178 -28v-80z" />
    <glyph glyph-name="Ccedilla" unicode="&#xc7;" horiz-adv-x="606" 
d="M573 93v-78c-49 -16 -101 -26 -166 -28c40 -36 63 -74 63 -109c0 -65 -55 -85 -107 -85c-23 0 -45 3 -62 8v59c14 -5 29 -8 51 -8c21 0 35 9 35 35c0 22 -15 58 -51 103c-199 21 -286 161 -286 343c0 243 150 356 330 356c71 0 130 -10 178 -28v-80
c-49 19 -102 32 -160 32c-153 0 -253 -104 -253 -274c0 -159 79 -275 259 -275c60 0 108 8 169 29z" />
    <glyph glyph-name="Ccircumflex" unicode="&#x108;" horiz-adv-x="606" 
d="M334 898h85l103 -158h-65l-81 99l-81 -99h-63zM558 581c-49 19 -102 32 -160 32c-153 0 -253 -104 -253 -274c0 -159 79 -275 259 -275c60 0 108 8 169 29v-78c-53 -17 -110 -28 -183 -28c-237 0 -340 148 -340 346c0 243 150 356 330 356c71 0 130 -10 178 -28v-80z" />
    <glyph glyph-name="Cdotaccent" unicode="&#x10a;" horiz-adv-x="606" 
d="M378 872c35 0 62 -29 62 -63c0 -35 -27 -63 -62 -63s-64 28 -64 63c0 34 29 63 64 63zM558 581c-49 19 -102 32 -160 32c-153 0 -253 -104 -253 -274c0 -159 79 -275 259 -275c60 0 108 8 169 29v-78c-53 -17 -110 -28 -183 -28c-237 0 -340 148 -340 346
c0 243 150 356 330 356c71 0 130 -10 178 -28v-80z" />
    <glyph glyph-name="Eth" unicode="&#xd0;" horiz-adv-x="700" 
d="M107 377v300h205c220 0 338 -125 338 -331c0 -230 -111 -346 -344 -346h-199v301h-91v76h91zM557 344c0 166 -89 255 -254 255h-106v-222h185v-76h-185v-223h103c166 0 257 69 257 266z" />
    <glyph glyph-name="Dcaron" unicode="&#x10e;" horiz-adv-x="683" 
d="M362 740h-90l-100 158h65l80 -101l82 101h62zM632 346c0 -232 -112 -346 -342 -346h-201v677h206c214 0 337 -120 337 -331zM539 344c0 165 -89 255 -255 255h-104v-521h102c177 0 257 83 257 266z" />
    <glyph glyph-name="Dcroat" unicode="&#x110;" horiz-adv-x="700" 
d="M107 377v300h205c220 0 338 -125 338 -331c0 -230 -111 -346 -344 -346h-199v301h-91v76h91zM557 344c0 166 -89 255 -254 255h-106v-222h185v-76h-185v-223h103c166 0 257 69 257 266z" />
    <glyph glyph-name="Eacute" unicode="&#xc9;" horiz-adv-x="538" 
d="M315 898h112l-116 -158h-67zM89 0v677h395v-79h-304v-209h266v-79h-266v-231h307v-79h-398z" />
    <glyph glyph-name="Ebreve" unicode="&#x114;" horiz-adv-x="538" 
d="M286 797c55 0 86 36 86 101h68c0 -107 -66 -160 -157 -160c-93 0 -149 55 -150 160h68c1 -66 34 -101 85 -101zM89 0v677h395v-79h-304v-209h266v-79h-266v-231h307v-79h-398z" />
    <glyph glyph-name="Ecaron" unicode="&#x11a;" horiz-adv-x="538" 
d="M332 740h-90l-100 158h65l80 -101l82 101h62zM89 0v677h395v-79h-304v-209h266v-79h-266v-231h307v-79h-398z" />
    <glyph glyph-name="Ecircumflex" unicode="&#xca;" horiz-adv-x="538" 
d="M244 898h85l103 -158h-65l-81 99l-81 -99h-63zM89 0v677h395v-79h-304v-209h266v-79h-266v-231h307v-79h-398z" />
    <glyph glyph-name="Edieresis" unicode="&#xcb;" horiz-adv-x="538" 
d="M183 853c32 0 59 -27 59 -60s-27 -59 -59 -59c-33 0 -60 26 -60 59s27 60 60 60zM391 853c33 0 59 -27 59 -60s-26 -59 -59 -59s-59 26 -59 59s26 60 59 60zM89 0v677h395v-79h-304v-209h266v-79h-266v-231h307v-79h-398z" />
    <glyph glyph-name="Edotaccent" unicode="&#x116;" horiz-adv-x="538" 
d="M288 872c35 0 62 -29 62 -63c0 -35 -27 -63 -62 -63s-64 28 -64 63c0 34 29 63 64 63zM89 0v677h395v-79h-304v-209h266v-79h-266v-231h307v-79h-398z" />
    <glyph glyph-name="Egrave" unicode="&#xc8;" horiz-adv-x="538" 
d="M321 740h-63l-103 158h105zM89 0v677h395v-79h-304v-209h266v-79h-266v-231h307v-79h-398z" />
    <glyph glyph-name="Emacron" unicode="&#x112;" horiz-adv-x="538" 
d="M427 758h-279v64h279v-64zM89 0v677h395v-79h-304v-209h266v-79h-266v-231h307v-79h-398z" />
    <glyph glyph-name="Eogonek" unicode="&#x118;" horiz-adv-x="538" 
d="M487 0c-64 -17 -106 -50 -106 -82c0 -19 17 -32 45 -32c19 0 42 6 61 11v-59c-31 -16 -62 -24 -94 -24c-59 0 -91 27 -91 73c0 49 37 91 97 113h-310v677h395v-79h-304v-209h266v-79h-266v-231h307v-79z" />
    <glyph glyph-name="uni1EBC" unicode="&#x1ebc;" horiz-adv-x="538" 
d="M216 843c73 0 85 -49 136 -49c33 0 42 16 42 47h64c-1 -70 -39 -108 -102 -108c-78 0 -92 52 -136 52c-28 0 -41 -15 -41 -49h-64c1 70 37 107 101 107zM89 0v677h395v-79h-304v-209h266v-79h-266v-231h307v-79h-398z" />
    <glyph glyph-name="Gbreve" unicode="&#x11e;" horiz-adv-x="654" 
d="M376 797c55 0 86 36 86 101h68c0 -107 -66 -160 -157 -160c-93 0 -149 55 -150 160h68c1 -66 34 -101 85 -101zM572 575c-42 19 -96 38 -162 38c-186 0 -266 -116 -266 -275c0 -180 88 -275 237 -275c56 0 94 6 124 15v271h91v-321c-57 -25 -132 -41 -226 -41
c-182 0 -319 100 -319 346c0 229 132 356 347 356c76 0 127 -15 174 -34v-80z" />
    <glyph glyph-name="Gcircumflex" unicode="&#x11c;" horiz-adv-x="654" 
d="M334 898h85l103 -158h-65l-81 99l-81 -99h-63zM572 575c-42 19 -96 38 -162 38c-186 0 -266 -116 -266 -275c0 -180 88 -275 237 -275c56 0 94 6 124 15v271h91v-321c-57 -25 -132 -41 -226 -41c-182 0 -319 100 -319 346c0 229 132 356 347 356c76 0 127 -15 174 -34
v-80z" />
    <glyph glyph-name="uni0122" unicode="&#x122;" horiz-adv-x="654" 
d="M572 575c-42 19 -96 38 -162 38c-186 0 -266 -116 -266 -275c0 -180 88 -275 237 -275c56 0 94 6 124 15v271h91v-321c-57 -25 -132 -41 -226 -41c-182 0 -319 100 -319 346c0 229 132 356 347 356c76 0 127 -15 174 -34v-80zM220 -206v37c76 5 90 26 90 57
c0 40 24 59 56 59s52 -25 52 -54c0 -59 -78 -99 -198 -99z" />
    <glyph glyph-name="Gdotaccent" unicode="&#x120;" horiz-adv-x="654" 
d="M378 872c35 0 62 -29 62 -63c0 -35 -27 -63 -62 -63s-64 28 -64 63c0 34 29 63 64 63zM572 575c-42 19 -96 38 -162 38c-186 0 -266 -116 -266 -275c0 -180 88 -275 237 -275c56 0 94 6 124 15v271h91v-321c-57 -25 -132 -41 -226 -41c-182 0 -319 100 -319 346
c0 229 132 356 347 356c76 0 127 -15 174 -34v-80z" />
    <glyph glyph-name="Hbar" unicode="&#x126;" horiz-adv-x="730" 
d="M705 489h-80v-489h-92v298h-336v-298h-92v489h-81v78h81v110h92v-110h336v110h92v-110h80v-78zM533 489h-336v-112h336v112z" />
    <glyph glyph-name="Hcircumflex" unicode="&#x124;" horiz-adv-x="697" 
d="M306 898h85l103 -158h-65l-81 99l-81 -99h-63zM517 0v309h-337v-309h-91v677h91v-289h337v289h91v-677h-91z" />
    <glyph glyph-name="Iacute" unicode="&#xcd;" horiz-adv-x="269" 
d="M163 898h112l-116 -158h-67zM89 677h91v-677h-91v677z" />
    <glyph glyph-name="Ibreve" unicode="&#x12c;" horiz-adv-x="269" 
d="M134 797c55 0 86 36 86 101h68c0 -107 -66 -160 -157 -160c-93 0 -149 55 -150 160h68c1 -66 34 -101 85 -101zM89 677h91v-677h-91v677z" />
    <glyph glyph-name="uni01CF" unicode="&#x1cf;" horiz-adv-x="269" 
d="M179 740h-90l-100 158h65l80 -101l82 101h62zM89 677h91v-677h-91v677z" />
    <glyph glyph-name="Icircumflex" unicode="&#xce;" horiz-adv-x="269" 
d="M92 898h85l103 -158h-65l-81 99l-81 -99h-63zM89 677h91v-677h-91v677z" />
    <glyph glyph-name="Idieresis" unicode="&#xcf;" horiz-adv-x="269" 
d="M30 853c32 0 59 -27 59 -60s-27 -59 -59 -59c-33 0 -60 26 -60 59s27 60 60 60zM238 853c33 0 59 -27 59 -60s-26 -59 -59 -59s-59 26 -59 59s26 60 59 60zM89 677h91v-677h-91v677z" />
    <glyph glyph-name="Idotaccent" unicode="&#x130;" horiz-adv-x="269" 
d="M136 872c35 0 62 -29 62 -63c0 -35 -27 -63 -62 -63s-64 28 -64 63c0 34 29 63 64 63zM89 677h91v-677h-91v677z" />
    <glyph glyph-name="Igrave" unicode="&#xcc;" horiz-adv-x="269" 
d="M169 740h-63l-103 158h105zM89 677h91v-677h-91v677z" />
    <glyph glyph-name="Imacron" unicode="&#x12a;" horiz-adv-x="269" 
d="M275 758h-279v64h279v-64zM89 677h91v-677h-91v677z" />
    <glyph glyph-name="Iogonek" unicode="&#x12e;" horiz-adv-x="269" 
d="M148 -114c19 0 42 5 61 10v-57c-29 -15 -60 -24 -94 -24c-51 0 -91 26 -91 85c0 44 31 77 65 100v677h92v-677c-51 -21 -78 -54 -78 -82c0 -21 17 -32 45 -32z" />
    <glyph glyph-name="Itilde" unicode="&#x128;" horiz-adv-x="269" 
d="M64 843c73 0 85 -49 136 -49c33 0 42 16 42 47h64c-1 -70 -39 -108 -102 -108c-78 0 -92 52 -136 52c-28 0 -41 -15 -41 -49h-64c1 70 37 107 101 107zM89 677h91v-677h-91v677z" />
    <glyph glyph-name="Jcircumflex" unicode="&#x134;" horiz-adv-x="360" 
d="M185 898h85l103 -158h-65l-81 99l-81 -99h-63zM276 176c0 -128 -52 -189 -174 -189c-31 0 -66 5 -86 11v79c21 -7 46 -12 73 -12c71 0 96 30 96 108v504h91v-501z" />
    <glyph glyph-name="IJ" unicode="&#x132;" horiz-adv-x="629" 
d="M89 677h91v-677h-91v677zM545 176c0 -128 -52 -189 -174 -189c-31 0 -66 5 -86 11v79c21 -7 46 -12 73 -12c71 0 96 30 96 108v504h91v-501z" />
    <glyph glyph-name="Iacute_J.loclNLD" horiz-adv-x="633" 
d="M170 897h111l-116 -158h-66zM541 897h112l-116 -158h-67zM89 677h91v-677h-91v677zM545 176c0 -128 -52 -189 -174 -189c-31 0 -66 5 -86 11v79c21 -7 46 -12 73 -12c71 0 96 30 96 108v504h91v-501z" />
    <glyph glyph-name="uni0136" unicode="&#x136;" horiz-adv-x="621" 
d="M268 316l-87 -90v-226h-92v677h92v-351l319 351h103l-274 -297l289 -380h-108zM178 -206v37c76 5 90 26 90 57c0 40 24 59 56 59s52 -25 52 -54c0 -59 -78 -99 -198 -99z" />
    <glyph glyph-name="Lacute" unicode="&#x139;" horiz-adv-x="499" 
d="M165 898h112l-116 -158h-67zM89 0v677h91v-598h307v-79h-398z" />
    <glyph glyph-name="Lcaron" unicode="&#x13d;" horiz-adv-x="499" 
d="M337 457l-31 22c25 33 44 62 44 91c0 30 -35 28 -35 73c0 20 17 50 52 50c42 0 55 -33 55 -60c0 -50 -29 -118 -85 -176zM89 0v677h91v-598h307v-79h-398z" />
    <glyph glyph-name="uni013B" unicode="&#x13b;" horiz-adv-x="499" 
d="M89 0v677h91v-598h307v-79h-398zM166 -206v37c76 5 90 26 90 57c0 40 24 59 56 59s52 -25 52 -54c0 -59 -78 -99 -198 -99z" />
    <glyph glyph-name="Ldot" unicode="&#x13f;" horiz-adv-x="511" 
d="M89 0v677h91v-598h307v-79h-398zM341 414c35 0 62 -29 62 -65c0 -35 -27 -62 -62 -62s-65 27 -65 62c0 36 30 65 65 65z" />
    <glyph glyph-name="Lslash" unicode="&#x141;" horiz-adv-x="520" 
d="M201 79h307v-79h-398v259l-85 -44v81l85 43v338h91v-302l124 63v-80l-124 -63v-216z" />
    <glyph glyph-name="Nacute" unicode="&#x143;" horiz-adv-x="706" 
d="M383 898h112l-116 -158h-67zM534 0l-354 536h-1v-536h-90v677h95l342 -516h1v516h90v-677h-83z" />
    <glyph glyph-name="Ncaron" unicode="&#x147;" horiz-adv-x="706" 
d="M399 740h-90l-100 158h65l80 -101l82 101h62zM534 0l-354 536h-1v-536h-90v677h95l342 -516h1v516h90v-677h-83z" />
    <glyph glyph-name="uni0145" unicode="&#x145;" horiz-adv-x="706" 
d="M534 0l-354 536h-1v-536h-90v677h95l342 -516h1v516h90v-677h-83zM213 -206v37c76 5 90 26 90 57c0 40 24 59 56 59s52 -25 52 -54c0 -59 -78 -99 -198 -99z" />
    <glyph glyph-name="Eng" unicode="&#x14a;" horiz-adv-x="706" 
d="M450 -151c43 38 77 93 79 159l-349 523h-1v-531h-90v677h100l337 -501h1v501h90v-648c0 -83 -34 -143 -121 -220z" />
    <glyph glyph-name="Ntilde" unicode="&#xd1;" horiz-adv-x="706" 
d="M284 843c73 0 85 -49 136 -49c33 0 42 16 42 47h64c-1 -70 -39 -108 -102 -108c-78 0 -92 52 -136 52c-28 0 -41 -15 -41 -49h-64c1 70 37 107 101 107zM534 0l-354 536h-1v-536h-90v677h95l342 -516h1v516h90v-677h-83z" />
    <glyph glyph-name="Oacute" unicode="&#xd3;" horiz-adv-x="733" 
d="M396 898h112l-116 -158h-67zM366 -13c-219 0 -315 143 -315 348c0 198 99 354 317 354c217 0 314 -151 314 -350s-101 -352 -316 -352zM367 64c158 0 222 124 222 274c0 151 -64 274 -222 274c-159 0 -223 -126 -223 -274c0 -153 65 -274 223 -274z" />
    <glyph glyph-name="Obreve" unicode="&#x14e;" horiz-adv-x="733" 
d="M367 797c55 0 86 36 86 101h68c0 -107 -66 -160 -157 -160c-93 0 -149 55 -150 160h68c1 -66 34 -101 85 -101zM366 -13c-219 0 -315 143 -315 348c0 198 99 354 317 354c217 0 314 -151 314 -350s-101 -352 -316 -352zM367 64c158 0 222 124 222 274
c0 151 -64 274 -222 274c-159 0 -223 -126 -223 -274c0 -153 65 -274 223 -274z" />
    <glyph glyph-name="uni01D1" unicode="&#x1d1;" horiz-adv-x="733" 
d="M413 740h-90l-100 158h65l80 -101l82 101h62zM366 -13c-219 0 -315 143 -315 348c0 198 99 354 317 354c217 0 314 -151 314 -350s-101 -352 -316 -352zM367 64c158 0 222 124 222 274c0 151 -64 274 -222 274c-159 0 -223 -126 -223 -274c0 -153 65 -274 223 -274z" />
    <glyph glyph-name="Ocircumflex" unicode="&#xd4;" horiz-adv-x="733" 
d="M325 898h85l103 -158h-65l-81 99l-81 -99h-63zM366 -13c-219 0 -315 143 -315 348c0 198 99 354 317 354c217 0 314 -151 314 -350s-101 -352 -316 -352zM367 64c158 0 222 124 222 274c0 151 -64 274 -222 274c-159 0 -223 -126 -223 -274c0 -153 65 -274 223 -274z" />
    <glyph glyph-name="Odieresis" unicode="&#xd6;" horiz-adv-x="733" 
d="M264 853c32 0 59 -27 59 -60s-27 -59 -59 -59c-33 0 -60 26 -60 59s27 60 60 60zM472 853c33 0 59 -27 59 -60s-26 -59 -59 -59s-59 26 -59 59s26 60 59 60zM366 -13c-219 0 -315 143 -315 348c0 198 99 354 317 354c217 0 314 -151 314 -350s-101 -352 -316 -352z
M367 64c158 0 222 124 222 274c0 151 -64 274 -222 274c-159 0 -223 -126 -223 -274c0 -153 65 -274 223 -274z" />
    <glyph glyph-name="Ograve" unicode="&#xd2;" horiz-adv-x="733" 
d="M402 740h-63l-103 158h105zM366 -13c-219 0 -315 143 -315 348c0 198 99 354 317 354c217 0 314 -151 314 -350s-101 -352 -316 -352zM367 64c158 0 222 124 222 274c0 151 -64 274 -222 274c-159 0 -223 -126 -223 -274c0 -153 65 -274 223 -274z" />
    <glyph glyph-name="Ohungarumlaut" unicode="&#x150;" horiz-adv-x="733" 
d="M305 898h80l-58 -158h-61zM455 898h87l-79 -158h-60zM366 -13c-219 0 -315 143 -315 348c0 198 99 354 317 354c217 0 314 -151 314 -350s-101 -352 -316 -352zM367 64c158 0 222 124 222 274c0 151 -64 274 -222 274c-159 0 -223 -126 -223 -274
c0 -153 65 -274 223 -274z" />
    <glyph glyph-name="Omacron" unicode="&#x14c;" horiz-adv-x="733" 
d="M508 758h-279v64h279v-64zM366 -13c-219 0 -315 143 -315 348c0 198 99 354 317 354c217 0 314 -151 314 -350s-101 -352 -316 -352zM367 64c158 0 222 124 222 274c0 151 -64 274 -222 274c-159 0 -223 -126 -223 -274c0 -153 65 -274 223 -274z" />
    <glyph glyph-name="Oslash" unicode="&#xd8;" horiz-adv-x="733" 
d="M579 617c70 -63 103 -162 103 -278c0 -199 -101 -352 -316 -352c-62 0 -114 11 -157 32l-50 -80h-88l76 123c-65 61 -96 157 -96 273c0 198 99 354 317 354c58 0 108 -11 149 -31l50 81h88zM367 612c-159 0 -223 -126 -223 -274c0 -77 17 -146 53 -196l277 446
c-30 15 -65 24 -107 24zM367 64c158 0 222 124 222 274c0 80 -18 152 -58 202l-277 -448c30 -18 68 -28 113 -28z" />
    <glyph glyph-name="Oslashacute" unicode="&#x1fe;" horiz-adv-x="733" 
d="M508 898l-116 -158h-67l71 158h112zM579 617c70 -63 103 -162 103 -278c0 -199 -101 -352 -316 -352c-62 0 -114 11 -157 32l-50 -80h-88l76 123c-65 61 -96 157 -96 273c0 198 99 354 317 354c58 0 108 -11 149 -31l50 81h88zM367 612c-159 0 -223 -126 -223 -274
c0 -77 17 -146 53 -196l277 446c-30 15 -65 24 -107 24zM367 64c158 0 222 124 222 274c0 80 -18 152 -58 202l-277 -448c30 -18 68 -28 113 -28z" />
    <glyph glyph-name="Otilde" unicode="&#xd5;" horiz-adv-x="733" 
d="M297 843c73 0 85 -49 136 -49c33 0 42 16 42 47h64c-1 -70 -39 -108 -102 -108c-78 0 -92 52 -136 52c-28 0 -41 -15 -41 -49h-64c1 70 37 107 101 107zM366 -13c-219 0 -315 143 -315 348c0 198 99 354 317 354c217 0 314 -151 314 -350s-101 -352 -316 -352zM367 64
c158 0 222 124 222 274c0 151 -64 274 -222 274c-159 0 -223 -126 -223 -274c0 -153 65 -274 223 -274z" />
    <glyph glyph-name="OE" unicode="&#x152;" horiz-adv-x="944" 
d="M361 -13c-219 0 -309 144 -309 348c0 198 93 354 312 354c49 0 98 -5 138 -12h388v-78h-304v-210h266v-79h-266v-231h307v-79h-387c-43 -8 -93 -13 -145 -13zM362 64c49 0 100 5 133 13v520c-44 8 -82 15 -133 15c-159 0 -217 -128 -217 -274c0 -151 59 -274 217 -274z
" />
    <glyph glyph-name="Thorn" unicode="&#xde;" horiz-adv-x="563" 
d="M519 352c0 -139 -97 -214 -250 -214h-89v-138h-91v677h91v-122h89c147 0 250 -52 250 -203zM424 348c0 96 -66 127 -157 127h-87v-260h89c95 0 155 47 155 133z" />
    <glyph glyph-name="Racute" unicode="&#x154;" horiz-adv-x="593" 
d="M317 898h112l-116 -158h-67zM576 0h-103l-180 290h-113v-290h-91v677h198c159 0 247 -55 247 -185c0 -85 -63 -154 -152 -179zM291 366c92 0 151 43 151 120c0 85 -66 113 -156 113h-106v-233h111z" />
    <glyph glyph-name="Rcaron" unicode="&#x158;" horiz-adv-x="593" 
d="M333 740h-90l-100 158h65l80 -101l82 101h62zM576 0h-103l-180 290h-113v-290h-91v677h198c159 0 247 -55 247 -185c0 -85 -63 -154 -152 -179zM291 366c92 0 151 43 151 120c0 85 -66 113 -156 113h-106v-233h111z" />
    <glyph glyph-name="uni0156" unicode="&#x156;" horiz-adv-x="593" 
d="M576 0h-103l-180 290h-113v-290h-91v677h198c159 0 247 -55 247 -185c0 -85 -63 -154 -152 -179zM291 366c92 0 151 43 151 120c0 85 -66 113 -156 113h-106v-233h111zM158 -206v37c76 5 90 26 90 57c0 40 24 59 56 59s52 -25 52 -54c0 -59 -78 -99 -198 -99z" />
    <glyph glyph-name="Sacute" unicode="&#x15a;" horiz-adv-x="499" 
d="M290 898h112l-116 -158h-67zM429 664v-81c-49 17 -102 29 -149 29c-71 0 -127 -27 -127 -103c0 -175 303 -85 303 -327c0 -140 -105 -195 -223 -195c-62 0 -127 14 -184 40v83c59 -27 126 -46 185 -46c72 0 128 30 128 112c0 173 -303 91 -303 329c0 134 103 184 220 184
c50 0 102 -9 150 -25z" />
    <glyph glyph-name="Scaron" unicode="&#x160;" horiz-adv-x="499" 
d="M306 740h-90l-100 158h65l80 -101l82 101h62zM429 664v-81c-49 17 -102 29 -149 29c-71 0 -127 -27 -127 -103c0 -175 303 -85 303 -327c0 -140 -105 -195 -223 -195c-62 0 -127 14 -184 40v83c59 -27 126 -46 185 -46c72 0 128 30 128 112c0 173 -303 91 -303 329
c0 134 103 184 220 184c50 0 102 -9 150 -25z" />
    <glyph glyph-name="Scedilla" unicode="&#x15e;" horiz-adv-x="499" 
d="M456 182c0 -135 -97 -191 -210 -195c40 -36 63 -74 63 -109c0 -65 -55 -85 -107 -85c-23 0 -45 3 -62 8v59c14 -5 29 -8 51 -8c21 0 35 9 35 35c0 22 -15 59 -52 104c-43 6 -86 18 -125 36v83c59 -27 126 -46 185 -46c72 0 128 30 128 112c0 173 -303 91 -303 329
c0 134 103 184 220 184c50 0 102 -9 150 -25v-81c-49 17 -102 29 -149 29c-71 0 -127 -27 -127 -103c0 -175 303 -85 303 -327z" />
    <glyph glyph-name="Scircumflex" unicode="&#x15c;" horiz-adv-x="499" 
d="M219 898h85l103 -158h-65l-81 99l-81 -99h-63zM429 664v-81c-49 17 -102 29 -149 29c-71 0 -127 -27 -127 -103c0 -175 303 -85 303 -327c0 -140 -105 -195 -223 -195c-62 0 -127 14 -184 40v83c59 -27 126 -46 185 -46c72 0 128 30 128 112c0 173 -303 91 -303 329
c0 134 103 184 220 184c50 0 102 -9 150 -25z" />
    <glyph glyph-name="uni0218" unicode="&#x218;" horiz-adv-x="499" 
d="M429 664v-81c-49 17 -102 29 -149 29c-71 0 -127 -27 -127 -103c0 -175 303 -85 303 -327c0 -140 -105 -195 -223 -195c-62 0 -127 14 -184 40v83c59 -27 126 -46 185 -46c72 0 128 30 128 112c0 173 -303 91 -303 329c0 134 103 184 220 184c50 0 102 -9 150 -25z
M87 -206v37c76 5 90 26 90 57c0 40 24 59 56 59s52 -25 52 -54c0 -59 -78 -99 -198 -99z" />
    <glyph glyph-name="uni1E9E" unicode="&#x1e9e;" horiz-adv-x="617" 
d="M386 395c133 -15 189 -87 189 -194c0 -143 -90 -213 -220 -213c-34 0 -66 4 -91 12v79c23 -9 46 -13 77 -13c85 0 140 52 140 140c0 83 -39 132 -184 134v59l136 204c-22 4 -49 9 -88 9c-112 0 -173 -54 -173 -164v-448h-90v440c0 167 89 249 270 249
c62 0 124 -11 171 -22v-62z" />
    <glyph glyph-name="germandbls.calt" horiz-adv-x="617" 
d="M386 395c133 -15 189 -87 189 -194c0 -143 -90 -213 -220 -213c-34 0 -66 4 -91 12v79c23 -9 46 -13 77 -13c85 0 140 52 140 140c0 83 -39 132 -184 134v59l136 204c-22 4 -49 9 -88 9c-112 0 -173 -54 -173 -164v-448h-90v440c0 167 89 249 270 249
c62 0 124 -11 171 -22v-62z" />
    <glyph glyph-name="uni018F" unicode="&#x18f;" horiz-adv-x="630" 
d="M276 688c172 0 303 -104 303 -346c0 -200 -92 -355 -280 -355c-185 0 -251 134 -251 327v40h436c4 170 -74 256 -226 256c-60 0 -113 -8 -186 -38v78c58 24 125 38 204 38zM483 287h-342c1 -119 39 -223 159 -223c123 0 178 102 183 223z" />
    <glyph glyph-name="Tbar" unicode="&#x166;" horiz-adv-x="568" 
d="M536 598h-206v-213h169v-66h-169v-319h-91v319h-169v66h169v213h-207v79h504v-79z" />
    <glyph glyph-name="Tcaron" unicode="&#x164;" horiz-adv-x="531" 
d="M312 740h-90l-100 158h65l80 -101l82 101h62zM312 598v-598h-92v598h-206v79h503v-79h-205z" />
    <glyph glyph-name="uni0162" unicode="&#x162;" horiz-adv-x="531" 
d="M312 598v-598h-15c49 -41 78 -83 78 -122c0 -65 -55 -85 -108 -85c-22 0 -45 3 -61 8v58c14 -4 29 -7 51 -7c21 0 35 9 35 35c0 24 -19 66 -58 113h-14v598h-206v79h503v-79h-205z" />
    <glyph glyph-name="uni021A" unicode="&#x21a;" horiz-adv-x="531" 
d="M312 598v-598h-92v598h-206v79h503v-79h-205zM122 -206v37c76 5 90 26 90 57c0 40 24 59 56 59s52 -25 52 -54c0 -59 -78 -99 -198 -99z" />
    <glyph glyph-name="Uacute" unicode="&#xda;" horiz-adv-x="681" 
d="M369 898h112l-116 -158h-67zM599 236c0 -167 -99 -249 -261 -249c-159 0 -256 78 -256 248v442h90v-449c0 -112 62 -164 169 -164c111 0 168 52 168 163v450h90v-441z" />
    <glyph glyph-name="Ubreve" unicode="&#x16c;" horiz-adv-x="681" 
d="M340 797c55 0 86 36 86 101h68c0 -107 -66 -160 -157 -160c-93 0 -149 55 -150 160h68c1 -66 34 -101 85 -101zM599 236c0 -167 -99 -249 -261 -249c-159 0 -256 78 -256 248v442h90v-449c0 -112 62 -164 169 -164c111 0 168 52 168 163v450h90v-441z" />
    <glyph glyph-name="uni01D3" unicode="&#x1d3;" horiz-adv-x="681" 
d="M386 740h-90l-100 158h65l80 -101l82 101h62zM599 236c0 -167 -99 -249 -261 -249c-159 0 -256 78 -256 248v442h90v-449c0 -112 62 -164 169 -164c111 0 168 52 168 163v450h90v-441z" />
    <glyph glyph-name="Ucircumflex" unicode="&#xdb;" horiz-adv-x="681" 
d="M298 898h85l103 -158h-65l-81 99l-81 -99h-63zM599 236c0 -167 -99 -249 -261 -249c-159 0 -256 78 -256 248v442h90v-449c0 -112 62 -164 169 -164c111 0 168 52 168 163v450h90v-441z" />
    <glyph glyph-name="Udieresis" unicode="&#xdc;" horiz-adv-x="681" 
d="M237 853c32 0 59 -27 59 -60s-27 -59 -59 -59c-33 0 -60 26 -60 59s27 60 60 60zM445 853c33 0 59 -27 59 -60s-26 -59 -59 -59s-59 26 -59 59s26 60 59 60zM599 236c0 -167 -99 -249 -261 -249c-159 0 -256 78 -256 248v442h90v-449c0 -112 62 -164 169 -164
c111 0 168 52 168 163v450h90v-441z" />
    <glyph glyph-name="Ugrave" unicode="&#xd9;" horiz-adv-x="681" 
d="M375 740h-63l-103 158h105zM599 236c0 -167 -99 -249 -261 -249c-159 0 -256 78 -256 248v442h90v-449c0 -112 62 -164 169 -164c111 0 168 52 168 163v450h90v-441z" />
    <glyph glyph-name="Uhungarumlaut" unicode="&#x170;" horiz-adv-x="681" 
d="M277 898h80l-58 -158h-61zM427 898h87l-79 -158h-60zM599 236c0 -167 -99 -249 -261 -249c-159 0 -256 78 -256 248v442h90v-449c0 -112 62 -164 169 -164c111 0 168 52 168 163v450h90v-441z" />
    <glyph glyph-name="Umacron" unicode="&#x16a;" horiz-adv-x="681" 
d="M481 758h-279v64h279v-64zM599 236c0 -167 -99 -249 -261 -249c-159 0 -256 78 -256 248v442h90v-449c0 -112 62 -164 169 -164c111 0 168 52 168 163v450h90v-441z" />
    <glyph glyph-name="Uogonek" unicode="&#x172;" horiz-adv-x="681" 
d="M509 677h90v-441c0 -155 -85 -237 -226 -248c-34 -23 -46 -46 -46 -69c0 -22 17 -33 45 -33c19 0 42 5 60 10v-57c-28 -15 -60 -24 -93 -24c-59 0 -91 26 -91 72c0 44 26 76 65 101c-144 7 -231 86 -231 247v442h90v-449c0 -112 62 -164 169 -164c111 0 168 52 168 163
v450z" />
    <glyph glyph-name="Uring" unicode="&#x16e;" horiz-adv-x="681" 
d="M450 828c0 -61 -39 -97 -110 -97c-74 0 -111 36 -111 97c0 62 40 96 111 96c73 0 110 -35 110 -96zM394 828c0 35 -22 53 -54 53s-53 -18 -53 -53c0 -36 21 -54 53 -54s54 18 54 54zM599 236c0 -167 -99 -249 -261 -249c-159 0 -256 78 -256 248v442h90v-449
c0 -112 62 -164 169 -164c111 0 168 52 168 163v450h90v-441z" />
    <glyph glyph-name="Utilde" unicode="&#x168;" horiz-adv-x="681" 
d="M270 843c73 0 85 -49 136 -49c33 0 42 16 42 47h64c-1 -70 -39 -108 -102 -108c-78 0 -92 52 -136 52c-28 0 -41 -15 -41 -49h-64c1 70 37 107 101 107zM599 236c0 -167 -99 -249 -261 -249c-159 0 -256 78 -256 248v442h90v-449c0 -112 62 -164 169 -164
c111 0 168 52 168 163v450h90v-441z" />
    <glyph glyph-name="Wacute" unicode="&#x1e82;" horiz-adv-x="875" 
d="M469 898h112l-116 -158h-67zM184 0l-159 677h97l123 -559h2l151 559h90l150 -559h1l123 559h88l-160 -677h-108l-144 527h-2l-142 -527h-110z" />
    <glyph glyph-name="Wcircumflex" unicode="&#x174;" horiz-adv-x="875" 
d="M398 898h85l103 -158h-65l-81 99l-81 -99h-63zM184 0l-159 677h97l123 -559h2l151 559h90l150 -559h1l123 559h88l-160 -677h-108l-144 527h-2l-142 -527h-110z" />
    <glyph glyph-name="Wdieresis" unicode="&#x1e84;" horiz-adv-x="875" 
d="M337 853c32 0 59 -27 59 -60s-27 -59 -59 -59c-33 0 -60 26 -60 59s27 60 60 60zM545 853c33 0 59 -27 59 -60s-26 -59 -59 -59s-59 26 -59 59s26 60 59 60zM184 0l-159 677h97l123 -559h2l151 559h90l150 -559h1l123 559h88l-160 -677h-108l-144 527h-2l-142 -527h-110z
" />
    <glyph glyph-name="Wgrave" unicode="&#x1e80;" horiz-adv-x="875" 
d="M475 740h-63l-103 158h105zM184 0l-159 677h97l123 -559h2l151 559h90l150 -559h1l123 559h88l-160 -677h-108l-144 527h-2l-142 -527h-110z" />
    <glyph glyph-name="Yacute" unicode="&#xdd;" horiz-adv-x="583" 
d="M322 898h112l-116 -158h-67zM246 267l-230 410h102l176 -325h2l176 325h95l-230 -410v-267h-91v267z" />
    <glyph glyph-name="Ycircumflex" unicode="&#x176;" horiz-adv-x="583" 
d="M251 898h85l103 -158h-65l-81 99l-81 -99h-63zM246 267l-230 410h102l176 -325h2l176 325h95l-230 -410v-267h-91v267z" />
    <glyph glyph-name="Ydieresis" unicode="&#x178;" horiz-adv-x="583" 
d="M190 853c32 0 59 -27 59 -60s-27 -59 -59 -59c-33 0 -60 26 -60 59s27 60 60 60zM398 853c33 0 59 -27 59 -60s-26 -59 -59 -59s-59 26 -59 59s26 60 59 60zM246 267l-230 410h102l176 -325h2l176 325h95l-230 -410v-267h-91v267z" />
    <glyph glyph-name="Ygrave" unicode="&#x1ef2;" horiz-adv-x="583" 
d="M328 740h-63l-103 158h105zM246 267l-230 410h102l176 -325h2l176 325h95l-230 -410v-267h-91v267z" />
    <glyph glyph-name="uni0232" unicode="&#x232;" horiz-adv-x="583" 
d="M434 758h-279v64h279v-64zM246 267l-230 410h102l176 -325h2l176 325h95l-230 -410v-267h-91v267z" />
    <glyph glyph-name="Zacute" unicode="&#x179;" horiz-adv-x="548" 
d="M304 898h112l-116 -158h-67zM39 0v78l360 521h-350v78h454v-78l-362 -520h366v-79h-468z" />
    <glyph glyph-name="Zcaron" unicode="&#x17d;" horiz-adv-x="548" 
d="M320 740h-90l-100 158h65l80 -101l82 101h62zM39 0v78l360 521h-350v78h454v-78l-362 -520h366v-79h-468z" />
    <glyph glyph-name="Zdotaccent" unicode="&#x17b;" horiz-adv-x="548" 
d="M276 872c35 0 62 -29 62 -63c0 -35 -27 -63 -62 -63s-64 28 -64 63c0 34 29 63 64 63zM39 0v78l360 521h-350v78h454v-78l-362 -520h366v-79h-468z" />
    <glyph glyph-name="a.sc" horiz-adv-x="541" 
d="M322 550l201 -550h-92l-51 137h-224l-49 -137h-88l198 550h105zM267 464h-1l-92 -254h188z" />
    <glyph glyph-name="b.sc" horiz-adv-x="526" 
d="M482 158c0 -97 -61 -158 -200 -158h-200v550h182c124 0 181 -51 181 -137c0 -58 -30 -111 -104 -122v-1c67 -8 141 -46 141 -132zM357 398c0 45 -28 79 -102 79h-85v-159h100c59 0 87 35 87 80zM392 163c0 54 -44 86 -119 86h-103v-175h108c87 0 114 47 114 89z" />
    <glyph glyph-name="c.sc" horiz-adv-x="513" 
d="M468 463c-39 16 -83 25 -126 25c-120 0 -203 -70 -203 -214c0 -126 64 -211 204 -211c44 0 90 8 132 24v-75c-42 -14 -96 -23 -150 -23c-181 0 -277 112 -277 283c0 208 144 289 288 289c46 0 91 -8 132 -23v-75z" />
    <glyph glyph-name="d.sc" horiz-adv-x="598" 
d="M549 282c0 -187 -94 -282 -281 -282h-186v550h185c181 0 282 -95 282 -268zM460 279c0 129 -66 196 -191 196h-99v-400h99c129 0 191 67 191 204z" />
    <glyph glyph-name="e.sc" horiz-adv-x="475" 
d="M82 0v550h340v-75h-252v-158h221v-73h-221v-169h255v-75h-343z" />
    <glyph glyph-name="f.sc" horiz-adv-x="445" 
d="M170 475v-173h217v-73h-217v-229h-88v550h328v-75h-240z" />
    <glyph glyph-name="g.sc" horiz-adv-x="570" 
d="M487 462c-39 14 -92 26 -140 26c-130 0 -209 -90 -209 -213c0 -141 86 -216 204 -216c30 0 63 5 88 13v207h87v-254c-46 -19 -111 -36 -186 -36c-157 0 -283 85 -283 283c0 178 121 289 294 289c49 0 102 -10 145 -27v-72z" />
    <glyph glyph-name="h.sc" horiz-adv-x="612" 
d="M443 0v244h-273v-244h-88v550h88v-231h273v231h87v-550h-87z" />
    <glyph glyph-name="i.sc" horiz-adv-x="252" 
d="M82 550h88v-550h-88v550z" />
    <glyph glyph-name="j.sc" horiz-adv-x="325" 
d="M248 158c0 -109 -47 -169 -153 -169c-25 0 -58 4 -74 9v77c15 -5 41 -11 60 -11c61 0 80 34 80 91v395h87v-392z" />
    <glyph glyph-name="k.sc" horiz-adv-x="550" 
d="M240 248l-70 -68v-180h-88v550h88v-275l260 275h98l-228 -241l241 -309h-107z" />
    <glyph glyph-name="l.sc" horiz-adv-x="443" 
d="M82 0v550h88v-475h255v-75h-343z" />
    <glyph glyph-name="m.sc" horiz-adv-x="699" 
d="M617 550v-550h-87v231l1 184h-1l-156 -254h-51l-154 254h-1l1 -184v-231h-87v550h94l175 -288l175 288h91z" />
    <glyph glyph-name="n.sc" horiz-adv-x="620" 
d="M456 0l-286 421h-2v-421h-86v550h97l271 -397h2v397h85v-550h-81z" />
    <glyph glyph-name="o.sc" horiz-adv-x="638" 
d="M318 -11c-187 0 -269 119 -269 283c0 162 84 289 273 289c186 0 267 -124 267 -284c0 -162 -87 -288 -271 -288zM320 63c128 0 179 97 179 212c0 112 -47 213 -177 213c-136 0 -183 -100 -183 -213c0 -114 47 -212 181 -212z" />
    <glyph glyph-name="p.sc" horiz-adv-x="491" 
d="M457 383c0 -116 -79 -182 -204 -182h-83v-201h-88v550h173c119 0 202 -45 202 -167zM366 380c0 68 -44 96 -115 96h-81v-202h78c71 0 118 38 118 106z" />
    <glyph glyph-name="q.sc" horiz-adv-x="638" 
d="M589 277c0 -119 -47 -219 -146 -263l138 -168h-105l-111 146c-15 -2 -31 -3 -47 -3c-187 0 -269 119 -269 283c0 162 84 289 273 289c186 0 267 -124 267 -284zM139 275c0 -114 47 -212 181 -212c128 0 179 97 179 212c0 112 -47 213 -177 213
c-136 0 -183 -100 -183 -213z" />
    <glyph glyph-name="r.sc" horiz-adv-x="530" 
d="M507 0h-101l-143 226h-93v-226h-88v550h205c132 0 184 -60 184 -150c0 -65 -40 -125 -123 -153zM274 298c69 0 110 41 110 93c0 43 -26 84 -103 84h-111v-177h104z" />
    <glyph glyph-name="s.sc" horiz-adv-x="441" 
d="M203 -12c-53 0 -108 12 -153 34v80c53 -23 111 -39 157 -39c57 0 100 23 100 88c0 120 -252 79 -252 255c0 113 87 156 186 156c45 0 91 -9 133 -23v-78c-45 16 -92 26 -132 26c-54 0 -94 -20 -95 -76c-1 -114 250 -75 251 -255c1 -121 -92 -168 -195 -168z" />
    <glyph glyph-name="t.sc" horiz-adv-x="468" 
d="M278 475v-475h-88v475h-172v75h432v-75h-172z" />
    <glyph glyph-name="u.sc" horiz-adv-x="600" 
d="M524 200c0 -142 -89 -211 -225 -211c-137 0 -223 65 -223 208v353h88v-358c0 -92 55 -129 137 -129c85 0 136 37 136 126v361h87v-350z" />
    <glyph glyph-name="v.sc" horiz-adv-x="519" 
d="M20 550h93l147 -455h3l149 455h87l-190 -550h-99z" />
    <glyph glyph-name="w.sc" horiz-adv-x="759" 
d="M382 414l-107 -414h-111l-138 550h93l104 -451h2l117 451h85l116 -452h3l102 452h85l-139 -550h-101z" />
    <glyph glyph-name="x.sc" horiz-adv-x="523" 
d="M406 0l-146 223l-150 -223h-95l194 281l-181 269h102l134 -205l137 205h95l-181 -263l193 -287h-102z" />
    <glyph glyph-name="y.sc" horiz-adv-x="512" 
d="M300 215v-215h-88v215l-196 335h97l145 -263h2l147 263h89z" />
    <glyph glyph-name="z.sc" horiz-adv-x="486" 
d="M40 0v75l298 400h-287v75h386v-75l-300 -400h307v-75h-404z" />
    <glyph glyph-name="aacute.sc" horiz-adv-x="541" 
d="M293 797h102l-115 -176h-57zM322 550l201 -550h-92l-51 137h-224l-49 -137h-88l198 550h105zM267 464h-1l-92 -254h188z" />
    <glyph glyph-name="abreve.sc" horiz-adv-x="541" 
d="M265 675c59 0 91 36 92 119h62c0 -121 -67 -176 -156 -176c-94 0 -150 56 -150 176h63c1 -84 36 -119 89 -119zM322 550l201 -550h-92l-51 137h-224l-49 -137h-88l198 550h105zM267 464h-1l-92 -254h188z" />
    <glyph glyph-name="uni01CE.sc" horiz-adv-x="541" 
d="M312 621h-90l-101 176h59l88 -122l88 122h57zM322 550l201 -550h-92l-51 137h-224l-49 -137h-88l198 550h105zM267 464h-1l-92 -254h188z" />
    <glyph glyph-name="acircumflex.sc" horiz-adv-x="541" 
d="M224 797h87l103 -176h-58l-89 123l-88 -123h-58zM322 550l201 -550h-92l-51 137h-224l-49 -137h-88l198 550h105zM267 464h-1l-92 -254h188z" />
    <glyph glyph-name="adieresis.sc" horiz-adv-x="541" 
d="M163 758c33 0 59 -27 59 -60s-26 -59 -59 -59s-59 26 -59 59s26 60 59 60zM371 758c33 0 59 -27 59 -60s-26 -59 -59 -59s-59 26 -59 59s26 60 59 60zM322 550l201 -550h-92l-51 137h-224l-49 -137h-88l198 550h105zM267 464h-1l-92 -254h188z" />
    <glyph glyph-name="agrave.sc" horiz-adv-x="541" 
d="M310 621h-62l-118 176h100zM322 550l201 -550h-92l-51 137h-224l-49 -137h-88l198 550h105zM267 464h-1l-92 -254h188z" />
    <glyph glyph-name="amacron.sc" horiz-adv-x="541" 
d="M402 642h-279v64h279v-64zM322 550l201 -550h-92l-51 137h-224l-49 -137h-88l198 550h105zM267 464h-1l-92 -254h188z" />
    <glyph glyph-name="aogonek.sc" horiz-adv-x="541" 
d="M503 -114c18 0 40 4 59 9v-57c-25 -15 -56 -23 -87 -23c-59 0 -98 36 -98 90c0 36 19 68 54 95l-51 137h-224l-49 -137h-88l198 550h105l201 -550c-50 -19 -66 -53 -66 -74c0 -29 17 -40 46 -40zM174 210h188l-95 254h-1z" />
    <glyph glyph-name="aring.sc" horiz-adv-x="541" 
d="M378 707c0 -61 -39 -97 -110 -97c-73 0 -111 36 -111 97c0 62 40 97 111 97c73 0 110 -36 110 -97zM322 707c0 35 -21 53 -54 53c-32 0 -53 -18 -53 -53s21 -53 53 -53c33 0 54 18 54 53zM322 550l201 -550h-92l-51 137h-224l-49 -137h-88l198 550h105zM267 464h-1
l-92 -254h188z" />
    <glyph glyph-name="atilde.sc" horiz-adv-x="541" 
d="M193 747c73 0 85 -50 136 -50c33 0 42 17 42 48h64c-1 -70 -39 -108 -102 -108c-78 0 -92 51 -136 51c-28 0 -41 -15 -41 -48h-64c1 70 37 107 101 107zM322 550l201 -550h-92l-51 137h-224l-49 -137h-88l198 550h105zM267 464h-1l-92 -254h188z" />
    <glyph glyph-name="ae.sc" horiz-adv-x="783" 
d="M730 550v-75h-252v-157h221v-74h-221v-169h255v-75h-343v137h-211l-87 -137h-92l353 550h377zM390 473h-3l-169 -263h172v263z" />
    <glyph glyph-name="aeacute.sc" horiz-adv-x="783" 
d="M585 797h102l-115 -176h-57zM730 550v-75h-252v-157h221v-74h-221v-169h255v-75h-343v137h-211l-87 -137h-92l353 550h377zM390 473h-3l-169 -263h172v263z" />
    <glyph glyph-name="uni01E3.sc" horiz-adv-x="783" 
d="M694 642h-279v64h279v-64zM730 550v-75h-252v-157h221v-74h-221v-169h255v-75h-343v137h-211l-87 -137h-92l353 550h377zM390 473h-3l-169 -263h172v263z" />
    <glyph glyph-name="cacute.sc" horiz-adv-x="513" 
d="M342 797h102l-115 -176h-57zM468 463c-39 16 -83 25 -126 25c-120 0 -203 -70 -203 -214c0 -126 64 -211 204 -211c44 0 90 8 132 24v-75c-42 -14 -96 -23 -150 -23c-181 0 -277 112 -277 283c0 208 144 289 288 289c46 0 91 -8 132 -23v-75z" />
    <glyph glyph-name="ccaron.sc" horiz-adv-x="513" 
d="M361 621h-90l-101 176h59l88 -122l88 122h57zM468 463c-39 16 -83 25 -126 25c-120 0 -203 -70 -203 -214c0 -126 64 -211 204 -211c44 0 90 8 132 24v-75c-42 -14 -96 -23 -150 -23c-181 0 -277 112 -277 283c0 208 144 289 288 289c46 0 91 -8 132 -23v-75z" />
    <glyph glyph-name="ccedilla.sc" horiz-adv-x="513" 
d="M475 87v-75c-35 -12 -78 -20 -123 -22c42 -38 66 -76 66 -112c0 -65 -55 -85 -107 -85c-23 0 -45 3 -62 8v59c14 -5 29 -8 51 -8c21 0 35 9 35 35c0 22 -15 59 -52 104c-154 16 -235 124 -235 281c0 208 144 289 288 289c46 0 91 -8 132 -23v-75c-39 16 -83 25 -126 25
c-120 0 -203 -70 -203 -214c0 -126 64 -211 204 -211c44 0 90 8 132 24z" />
    <glyph glyph-name="ccircumflex.sc" horiz-adv-x="513" 
d="M273 797h87l103 -176h-58l-89 123l-88 -123h-58zM468 463c-39 16 -83 25 -126 25c-120 0 -203 -70 -203 -214c0 -126 64 -211 204 -211c44 0 90 8 132 24v-75c-42 -14 -96 -23 -150 -23c-181 0 -277 112 -277 283c0 208 144 289 288 289c46 0 91 -8 132 -23v-75z" />
    <glyph glyph-name="cdotaccent.sc" horiz-adv-x="513" 
d="M318 763c35 0 62 -28 62 -63s-27 -63 -62 -63s-64 28 -64 63s29 63 64 63zM468 463c-39 16 -83 25 -126 25c-120 0 -203 -70 -203 -214c0 -126 64 -211 204 -211c44 0 90 8 132 24v-75c-42 -14 -96 -23 -150 -23c-181 0 -277 112 -277 283c0 208 144 289 288 289
c46 0 91 -8 132 -23v-75z" />
    <glyph glyph-name="eth.sc" horiz-adv-x="612" 
d="M282 550c180 0 281 -95 281 -268c0 -187 -95 -282 -281 -282h-185v239h-76v73h76v238h185zM284 75c128 0 190 67 190 204c0 129 -66 196 -191 196h-99v-163h146v-73h-146v-164h100z" />
    <glyph glyph-name="dcaron.sc" horiz-adv-x="598" 
d="M311 621h-90l-101 176h59l88 -122l88 122h57zM549 282c0 -187 -94 -282 -281 -282h-186v550h185c181 0 282 -95 282 -268zM460 279c0 129 -66 196 -191 196h-99v-400h99c129 0 191 67 191 204z" />
    <glyph glyph-name="dcroat.sc" horiz-adv-x="612" 
d="M282 550c180 0 281 -95 281 -268c0 -187 -95 -282 -281 -282h-185v239h-76v73h76v238h185zM284 75c128 0 190 67 190 204c0 129 -66 196 -191 196h-99v-163h146v-73h-146v-164h100z" />
    <glyph glyph-name="eacute.sc" horiz-adv-x="475" 
d="M278 797h102l-115 -176h-57zM82 0v550h340v-75h-252v-158h221v-73h-221v-169h255v-75h-343z" />
    <glyph glyph-name="ebreve.sc" horiz-adv-x="475" 
d="M249 675c59 0 91 36 92 119h62c0 -121 -67 -176 -156 -176c-94 0 -150 56 -150 176h63c1 -84 36 -119 89 -119zM82 0v550h340v-75h-252v-158h221v-73h-221v-169h255v-75h-343z" />
    <glyph glyph-name="ecaron.sc" horiz-adv-x="475" 
d="M297 621h-90l-101 176h59l88 -122l88 122h57zM82 0v550h340v-75h-252v-158h221v-73h-221v-169h255v-75h-343z" />
    <glyph glyph-name="ecircumflex.sc" horiz-adv-x="475" 
d="M209 797h87l103 -176h-58l-89 123l-88 -123h-58zM82 0v550h340v-75h-252v-158h221v-73h-221v-169h255v-75h-343z" />
    <glyph glyph-name="edieresis.sc" horiz-adv-x="475" 
d="M148 758c33 0 59 -27 59 -60s-26 -59 -59 -59s-59 26 -59 59s26 60 59 60zM356 758c33 0 59 -27 59 -60s-26 -59 -59 -59s-59 26 -59 59s26 60 59 60zM82 0v550h340v-75h-252v-158h221v-73h-221v-169h255v-75h-343z" />
    <glyph glyph-name="edotaccent.sc" horiz-adv-x="475" 
d="M253 763c35 0 62 -28 62 -63s-27 -63 -62 -63s-64 28 -64 63s29 63 64 63zM82 0v550h340v-75h-252v-158h221v-73h-221v-169h255v-75h-343z" />
    <glyph glyph-name="egrave.sc" horiz-adv-x="475" 
d="M294 621h-62l-118 176h100zM82 0v550h340v-75h-252v-158h221v-73h-221v-169h255v-75h-343z" />
    <glyph glyph-name="emacron.sc" horiz-adv-x="475" 
d="M386 642h-279v64h279v-64zM82 0v550h340v-75h-252v-158h221v-73h-221v-169h255v-75h-343z" />
    <glyph glyph-name="eogonek.sc" horiz-adv-x="475" 
d="M425 0c-64 -17 -105 -50 -105 -82c0 -19 16 -32 44 -32c20 0 42 6 61 11v-59c-30 -16 -62 -24 -93 -24c-60 0 -91 27 -91 73c0 49 36 91 97 113h-256v550h340v-75h-252v-158h221v-73h-221v-169h255v-75z" />
    <glyph glyph-name="uni1EBD.sc" horiz-adv-x="475" 
d="M178 747c73 0 85 -50 136 -50c33 0 42 17 42 48h64c-1 -70 -39 -108 -102 -108c-78 0 -92 51 -136 51c-28 0 -41 -15 -41 -48h-64c1 70 37 107 101 107zM82 0v550h340v-75h-252v-158h221v-73h-221v-169h255v-75h-343z" />
    <glyph glyph-name="gbreve.sc" horiz-adv-x="570" 
d="M315 675c59 0 91 36 92 119h62c0 -121 -67 -176 -156 -176c-94 0 -150 56 -150 176h63c1 -84 36 -119 89 -119zM487 462c-39 14 -92 26 -140 26c-130 0 -209 -90 -209 -213c0 -141 86 -216 204 -216c30 0 63 5 88 13v207h87v-254c-46 -19 -111 -36 -186 -36
c-157 0 -283 85 -283 283c0 178 121 289 294 289c49 0 102 -10 145 -27v-72z" />
    <glyph glyph-name="gcircumflex.sc" horiz-adv-x="570" 
d="M274 797h87l103 -176h-58l-89 123l-88 -123h-58zM487 462c-39 14 -92 26 -140 26c-130 0 -209 -90 -209 -213c0 -141 86 -216 204 -216c30 0 63 5 88 13v207h87v-254c-46 -19 -111 -36 -186 -36c-157 0 -283 85 -283 283c0 178 121 289 294 289c49 0 102 -10 145 -27v-72
z" />
    <glyph glyph-name="uni0123.sc" horiz-adv-x="570" 
d="M487 462c-39 14 -92 26 -140 26c-130 0 -209 -90 -209 -213c0 -141 86 -216 204 -216c30 0 63 5 88 13v207h87v-254c-46 -19 -111 -36 -186 -36c-157 0 -283 85 -283 283c0 178 121 289 294 289c49 0 102 -10 145 -27v-72zM170 -206v37c76 5 90 26 90 57
c0 40 24 59 56 59s52 -25 52 -54c0 -59 -78 -99 -198 -99z" />
    <glyph glyph-name="gdotaccent.sc" horiz-adv-x="570" 
d="M319 763c35 0 62 -28 62 -63s-27 -63 -62 -63s-64 28 -64 63s29 63 64 63zM487 462c-39 14 -92 26 -140 26c-130 0 -209 -90 -209 -213c0 -141 86 -216 204 -216c30 0 63 5 88 13v207h87v-254c-46 -19 -111 -36 -186 -36c-157 0 -283 85 -283 283c0 178 121 289 294 289
c49 0 102 -10 145 -27v-72z" />
    <glyph glyph-name="hbar.sc" horiz-adv-x="644" 
d="M614 396h-68v-396h-88v238h-272v-238h-88v396h-70v73h70v81h88v-81h272v81h88v-81h68v-73zM458 396h-272v-83h272v83z" />
    <glyph glyph-name="hcircumflex.sc" horiz-adv-x="612" 
d="M262 797h87l103 -176h-58l-89 123l-88 -123h-58zM443 0v244h-273v-244h-88v550h88v-231h273v231h87v-550h-87z" />
    <glyph glyph-name="iacute.sc" horiz-adv-x="252" 
d="M150 797h102l-115 -176h-57zM82 550h88v-550h-88v550z" />
    <glyph glyph-name="ibreve.sc" horiz-adv-x="252" 
d="M122 675c59 0 91 36 92 119h62c0 -121 -67 -176 -156 -176c-94 0 -150 56 -150 176h63c1 -84 36 -119 89 -119zM82 550h88v-550h-88v550z" />
    <glyph glyph-name="uni01D0.sc" horiz-adv-x="252" 
d="M169 621h-90l-101 176h59l88 -122l88 122h57zM82 550h88v-550h-88v550z" />
    <glyph glyph-name="icircumflex.sc" horiz-adv-x="252" 
d="M81 797h87l103 -176h-58l-89 123l-88 -123h-58zM82 550h88v-550h-88v550z" />
    <glyph glyph-name="idieresis.sc" horiz-adv-x="252" 
d="M20 758c33 0 59 -27 59 -60s-26 -59 -59 -59s-59 26 -59 59s26 60 59 60zM228 758c33 0 59 -27 59 -60s-26 -59 -59 -59s-59 26 -59 59s26 60 59 60zM82 550h88v-550h-88v550z" />
    <glyph glyph-name="i.sc.loclTRK" horiz-adv-x="252" 
d="M126 763c35 0 62 -28 62 -63s-27 -63 -62 -63s-64 28 -64 63s29 63 64 63zM82 550h88v-550h-88v550z" />
    <glyph glyph-name="igrave.sc" horiz-adv-x="252" 
d="M167 621h-62l-118 176h100zM82 550h88v-550h-88v550z" />
    <glyph glyph-name="imacron.sc" horiz-adv-x="252" 
d="M259 642h-279v64h279v-64zM82 550h88v-550h-88v550z" />
    <glyph glyph-name="iogonek.sc" horiz-adv-x="252" 
d="M132 -113c19 0 42 5 60 10v-58c-28 -14 -60 -23 -93 -23c-59 0 -91 25 -91 72c0 50 38 81 89 112h-15v550h88v-550c-53 -9 -83 -53 -83 -81c0 -21 17 -32 45 -32z" />
    <glyph glyph-name="itilde.sc" horiz-adv-x="252" 
d="M50 747c73 0 85 -50 136 -50c33 0 42 17 42 48h64c-1 -70 -39 -108 -102 -108c-78 0 -92 51 -136 51c-28 0 -41 -15 -41 -48h-64c1 70 37 107 101 107zM82 550h88v-550h-88v550z" />
    <glyph glyph-name="ij.sc" horiz-adv-x="578" 
d="M82 550h88v-550h-88v550zM500 158c0 -109 -47 -169 -153 -169c-25 0 -58 4 -74 9v77c15 -5 41 -11 60 -11c61 0 80 34 80 91v395h87v-392z" />
    <glyph glyph-name="iacute_j.loclNLD.sc" horiz-adv-x="621" 
d="M173 789h102l-115 -176h-57zM509 789h102l-115 -176h-57zM82 550h88v-550h-88v550zM500 158c0 -109 -47 -169 -153 -169c-25 0 -58 4 -74 9v77c15 -5 41 -11 60 -11c61 0 80 34 80 91v395h87v-392z" />
    <glyph glyph-name="jcircumflex.sc" horiz-adv-x="325" 
d="M161 797h87l103 -176h-58l-89 123l-88 -123h-58zM248 158c0 -109 -47 -169 -153 -169c-25 0 -58 4 -74 9v77c15 -5 41 -11 60 -11c61 0 80 34 80 91v395h87v-392z" />
    <glyph glyph-name="uni0137.sc" horiz-adv-x="550" 
d="M240 248l-70 -68v-180h-88v550h88v-275l260 275h98l-228 -241l241 -309h-107zM144 -206v37c76 5 90 26 90 57c0 40 24 59 56 59s52 -25 52 -54c0 -59 -78 -99 -198 -99z" />
    <glyph glyph-name="lacute.sc" horiz-adv-x="443" 
d="M149 797h102l-115 -176h-57zM82 0v550h88v-475h255v-75h-343z" />
    <glyph glyph-name="lcaron.sc" horiz-adv-x="443" 
d="M289 342l-31 22c25 33 44 62 44 91c0 30 -35 28 -35 73c0 20 17 50 52 50c42 0 55 -33 55 -60c0 -50 -29 -118 -85 -176zM82 0v550h88v-475h255v-75h-343z" />
    <glyph glyph-name="uni013C.sc" horiz-adv-x="443" 
d="M82 0v550h88v-475h255v-75h-343zM121 -206v37c76 5 90 26 90 57c0 40 24 59 56 59s52 -25 52 -54c0 -59 -78 -99 -198 -99z" />
    <glyph glyph-name="ldot.sc" horiz-adv-x="451" 
d="M82 0v550h88v-475h255v-75h-343zM330 379c35 0 62 -29 62 -64s-27 -63 -62 -63s-65 28 -65 63s30 64 65 64z" />
    <glyph glyph-name="lslash.sc" horiz-adv-x="448" 
d="M174 75h255v-75h-343v201l-66 -35v74l66 35v275h88v-240l114 59v-73l-114 -60v-161z" />
    <glyph glyph-name="nacute.sc" horiz-adv-x="620" 
d="M333 797h102l-115 -176h-57zM456 0l-286 421h-2v-421h-86v550h97l271 -397h2v397h85v-550h-81z" />
    <glyph glyph-name="ncaron.sc" horiz-adv-x="620" 
d="M353 621h-90l-101 176h59l88 -122l88 122h57zM456 0l-286 421h-2v-421h-86v550h97l271 -397h2v397h85v-550h-81z" />
    <glyph glyph-name="uni0146.sc" horiz-adv-x="620" 
d="M456 0l-286 421h-2v-421h-86v550h97l271 -397h2v397h85v-550h-81zM156 -206v37c76 5 90 26 90 57c0 40 24 59 56 59s52 -25 52 -54c0 -59 -78 -99 -198 -99z" />
    <glyph glyph-name="eng.sc" horiz-adv-x="620" 
d="M537 550v-531c0 -71 -32 -139 -121 -209l-46 39c48 40 78 106 80 156l-278 412h-2v-417h-88v550h97l269 -393h3v393h86z" />
    <glyph glyph-name="ntilde.sc" horiz-adv-x="620" 
d="M233 747c73 0 85 -50 136 -50c33 0 42 17 42 48h64c-1 -70 -39 -108 -102 -108c-78 0 -92 51 -136 51c-28 0 -41 -15 -41 -48h-64c1 70 37 107 101 107zM456 0l-286 421h-2v-421h-86v550h97l271 -397h2v397h85v-550h-81z" />
    <glyph glyph-name="oacute.sc" horiz-adv-x="638" 
d="M343 797h102l-115 -176h-57zM318 -11c-187 0 -269 119 -269 283c0 162 84 289 273 289c186 0 267 -124 267 -284c0 -162 -87 -288 -271 -288zM320 63c128 0 179 97 179 212c0 112 -47 213 -177 213c-136 0 -183 -100 -183 -213c0 -114 47 -212 181 -212z" />
    <glyph glyph-name="obreve.sc" horiz-adv-x="638" 
d="M314 675c59 0 91 36 92 119h62c0 -121 -67 -176 -156 -176c-94 0 -150 56 -150 176h63c1 -84 36 -119 89 -119zM318 -11c-187 0 -269 119 -269 283c0 162 84 289 273 289c186 0 267 -124 267 -284c0 -162 -87 -288 -271 -288zM320 63c128 0 179 97 179 212
c0 112 -47 213 -177 213c-136 0 -183 -100 -183 -213c0 -114 47 -212 181 -212z" />
    <glyph glyph-name="ocircumflex.sc" horiz-adv-x="638" 
d="M274 797h87l103 -176h-58l-89 123l-88 -123h-58zM318 -11c-187 0 -269 119 -269 283c0 162 84 289 273 289c186 0 267 -124 267 -284c0 -162 -87 -288 -271 -288zM320 63c128 0 179 97 179 212c0 112 -47 213 -177 213c-136 0 -183 -100 -183 -213
c0 -114 47 -212 181 -212z" />
    <glyph glyph-name="odieresis.sc" horiz-adv-x="638" 
d="M213 758c33 0 59 -27 59 -60s-26 -59 -59 -59s-59 26 -59 59s26 60 59 60zM421 758c33 0 59 -27 59 -60s-26 -59 -59 -59s-59 26 -59 59s26 60 59 60zM318 -11c-187 0 -269 119 -269 283c0 162 84 289 273 289c186 0 267 -124 267 -284c0 -162 -87 -288 -271 -288z
M320 63c128 0 179 97 179 212c0 112 -47 213 -177 213c-136 0 -183 -100 -183 -213c0 -114 47 -212 181 -212z" />
    <glyph glyph-name="ograve.sc" horiz-adv-x="638" 
d="M360 621h-62l-118 176h100zM318 -11c-187 0 -269 119 -269 283c0 162 84 289 273 289c186 0 267 -124 267 -284c0 -162 -87 -288 -271 -288zM320 63c128 0 179 97 179 212c0 112 -47 213 -177 213c-136 0 -183 -100 -183 -213c0 -114 47 -212 181 -212z" />
    <glyph glyph-name="ohungarumlaut.sc" horiz-adv-x="638" 
d="M290 797h77l-72 -176h-57zM432 797h81l-95 -176h-56zM318 -11c-187 0 -269 119 -269 283c0 162 84 289 273 289c186 0 267 -124 267 -284c0 -162 -87 -288 -271 -288zM320 63c128 0 179 97 179 212c0 112 -47 213 -177 213c-136 0 -183 -100 -183 -213
c0 -114 47 -212 181 -212z" />
    <glyph glyph-name="omacron.sc" horiz-adv-x="638" 
d="M451 642h-279v64h279v-64zM318 -11c-187 0 -269 119 -269 283c0 162 84 289 273 289c186 0 267 -124 267 -284c0 -162 -87 -288 -271 -288zM320 63c128 0 179 97 179 212c0 112 -47 213 -177 213c-136 0 -183 -100 -183 -213c0 -114 47 -212 181 -212z" />
    <glyph glyph-name="oslash.sc" horiz-adv-x="638" 
d="M500 505c61 -51 89 -133 89 -228c0 -162 -87 -288 -271 -288c-44 0 -83 7 -116 19l-45 -77h-87l68 113c-61 51 -89 131 -89 228c0 162 85 289 273 289c44 0 82 -7 114 -19l47 78h87zM322 489c-136 0 -184 -101 -184 -214c0 -60 13 -116 45 -155l213 355
c-21 9 -45 14 -74 14zM320 62c128 0 180 98 180 213c0 59 -13 115 -45 155l-212 -354c22 -9 47 -14 77 -14z" />
    <glyph glyph-name="oslashacute.sc" horiz-adv-x="638" 
d="M431 790l-114 -176h-58l71 176h101zM500 505c61 -51 89 -133 89 -228c0 -162 -87 -288 -271 -288c-44 0 -83 7 -116 19l-45 -77h-87l68 113c-61 51 -89 131 -89 228c0 162 85 289 273 289c44 0 82 -7 114 -19l47 78h87zM322 489c-136 0 -184 -101 -184 -214
c0 -60 13 -116 45 -155l213 355c-21 9 -45 14 -74 14zM320 62c128 0 180 98 180 213c0 59 -13 115 -45 155l-212 -354c22 -9 47 -14 77 -14z" />
    <glyph glyph-name="otilde.sc" horiz-adv-x="638" 
d="M243 747c73 0 85 -50 136 -50c33 0 42 17 42 48h64c-1 -70 -39 -108 -102 -108c-78 0 -92 51 -136 51c-28 0 -41 -15 -41 -48h-64c1 70 37 107 101 107zM318 -11c-187 0 -269 119 -269 283c0 162 84 289 273 289c186 0 267 -124 267 -284c0 -162 -87 -288 -271 -288z
M320 63c128 0 179 97 179 212c0 112 -47 213 -177 213c-136 0 -183 -100 -183 -213c0 -114 47 -212 181 -212z" />
    <glyph glyph-name="oe.sc" horiz-adv-x="800" 
d="M751 0h-310c-36 -7 -77 -11 -123 -11c-188 0 -269 118 -269 283c0 162 85 290 272 290c47 0 88 -4 123 -12h303v-75h-252v-158h221v-73h-221v-169h256v-75zM139 275c0 -115 47 -213 180 -213c34 0 64 3 88 9v410c-23 4 -53 7 -86 7c-135 0 -182 -99 -182 -213z" />
    <glyph glyph-name="thorn.sc" horiz-adv-x="500" 
d="M457 288c0 -116 -79 -181 -204 -181h-83v-107h-88v550h88v-94h85c119 0 202 -46 202 -168zM366 285c0 67 -45 95 -115 95h-81v-200h78c71 0 118 37 118 105z" />
    <glyph glyph-name="racute.sc" horiz-adv-x="530" 
d="M287 797h102l-115 -176h-57zM507 0h-101l-143 226h-93v-226h-88v550h205c132 0 184 -60 184 -150c0 -65 -40 -125 -123 -153zM274 298c69 0 110 41 110 93c0 43 -26 84 -103 84h-111v-177h104z" />
    <glyph glyph-name="rcaron.sc" horiz-adv-x="530" 
d="M306 621h-90l-101 176h59l88 -122l88 122h57zM507 0h-101l-143 226h-93v-226h-88v550h205c132 0 184 -60 184 -150c0 -65 -40 -125 -123 -153zM274 298c69 0 110 41 110 93c0 43 -26 84 -103 84h-111v-177h104z" />
    <glyph glyph-name="uni0157.sc" horiz-adv-x="530" 
d="M507 0h-101l-143 226h-93v-226h-88v550h205c132 0 184 -60 184 -150c0 -65 -40 -125 -123 -153zM274 298c69 0 110 41 110 93c0 43 -26 84 -103 84h-111v-177h104zM138 -206v37c76 5 90 26 90 57c0 40 24 59 56 59s52 -25 52 -54c0 -59 -78 -99 -198 -99z" />
    <glyph glyph-name="sacute.sc" horiz-adv-x="441" 
d="M259 797h102l-115 -176h-57zM203 -12c-53 0 -108 12 -153 34v80c53 -23 111 -39 157 -39c57 0 100 23 100 88c0 120 -252 79 -252 255c0 113 87 156 186 156c45 0 91 -9 133 -23v-78c-45 16 -92 26 -132 26c-54 0 -94 -20 -95 -76c-1 -114 250 -75 251 -255
c1 -121 -92 -168 -195 -168z" />
    <glyph glyph-name="scaron.sc" horiz-adv-x="441" 
d="M278 621h-90l-101 176h59l88 -122l88 122h57zM203 -12c-53 0 -108 12 -153 34v80c53 -23 111 -39 157 -39c57 0 100 23 100 88c0 120 -252 79 -252 255c0 113 87 156 186 156c45 0 91 -9 133 -23v-78c-45 16 -92 26 -132 26c-54 0 -94 -20 -95 -76
c-1 -114 250 -75 251 -255c1 -121 -92 -168 -195 -168z" />
    <glyph glyph-name="scedilla.sc" horiz-adv-x="441" 
d="M398 156c1 -113 -81 -162 -176 -167c42 -37 65 -75 65 -111c0 -65 -55 -85 -107 -85c-23 0 -45 3 -62 8v59c14 -5 29 -8 51 -8c21 0 35 9 35 35c0 22 -15 60 -52 105c-36 5 -71 15 -102 30v80c53 -23 111 -39 157 -39c57 0 100 23 100 88c0 120 -252 79 -252 255
c0 113 87 156 186 156c45 0 91 -9 133 -23v-78c-45 16 -92 26 -132 26c-54 0 -94 -20 -95 -76c-1 -114 250 -75 251 -255z" />
    <glyph glyph-name="scircumflex.sc" horiz-adv-x="441" 
d="M189 797h87l103 -176h-58l-89 123l-88 -123h-58zM203 -12c-53 0 -108 12 -153 34v80c53 -23 111 -39 157 -39c57 0 100 23 100 88c0 120 -252 79 -252 255c0 113 87 156 186 156c45 0 91 -9 133 -23v-78c-45 16 -92 26 -132 26c-54 0 -94 -20 -95 -76
c-1 -114 250 -75 251 -255c1 -121 -92 -168 -195 -168z" />
    <glyph glyph-name="uni0219.sc" horiz-adv-x="441" 
d="M203 -12c-53 0 -108 12 -153 34v80c53 -23 111 -39 157 -39c57 0 100 23 100 88c0 120 -252 79 -252 255c0 113 87 156 186 156c45 0 91 -9 133 -23v-78c-45 16 -92 26 -132 26c-54 0 -94 -20 -95 -76c-1 -114 250 -75 251 -255c1 -121 -92 -168 -195 -168zM65 -206v37
c76 5 90 26 90 57c0 40 24 59 56 59s52 -25 52 -54c0 -59 -78 -99 -198 -99z" />
    <glyph glyph-name="germandbls.sc" horiz-adv-x="577" 
d="M366 331c117 -12 170 -83 170 -164c0 -115 -78 -178 -207 -178c-31 0 -61 2 -86 8v75c24 -7 49 -10 74 -10c77 0 129 37 129 108c0 75 -61 103 -166 103h-7v59l132 151c-23 4 -54 6 -92 6c-93 0 -150 -42 -150 -132v-357h-87v351c0 143 95 211 256 211
c64 0 125 -11 161 -19v-66z" />
    <glyph glyph-name="uni0259.sc" horiz-adv-x="559" 
d="M249 560c147 0 261 -85 261 -283c0 -162 -80 -288 -244 -288c-161 0 -215 109 -219 266l-1 41h374c1 121 -61 190 -185 190c-54 0 -100 -8 -166 -32v74c50 19 109 32 180 32zM268 63c101 0 147 75 151 167h-282c0 -93 34 -167 131 -167z" />
    <glyph glyph-name="tbar.sc" horiz-adv-x="501" 
d="M467 475h-172v-165h139v-63h-139v-247h-88v247h-140v63h140v165h-173v75h433v-75z" />
    <glyph glyph-name="tcaron.sc" horiz-adv-x="468" 
d="M281 621h-90l-101 176h59l88 -122l88 122h57zM278 475v-475h-88v475h-172v75h432v-75h-172z" />
    <glyph glyph-name="uni0163.sc" horiz-adv-x="468" 
d="M278 475v-475h-10c49 -40 78 -83 78 -122c0 -65 -55 -85 -107 -85c-23 0 -45 3 -62 8v59c14 -5 29 -8 51 -8c21 0 35 9 35 35c0 23 -17 64 -60 113h-13v475h-172v75h432v-75h-172z" />
    <glyph glyph-name="uni021B.sc" horiz-adv-x="468" 
d="M278 475v-475h-88v475h-172v75h432v-75h-172zM124 -206v37c76 5 90 26 90 57c0 40 24 59 56 59s52 -25 52 -54c0 -59 -78 -99 -198 -99z" />
    <glyph glyph-name="uacute.sc" horiz-adv-x="600" 
d="M325 797h102l-115 -176h-57zM524 200c0 -142 -89 -211 -225 -211c-137 0 -223 65 -223 208v353h88v-358c0 -92 55 -129 137 -129c85 0 136 37 136 126v361h87v-350z" />
    <glyph glyph-name="ubreve.sc" horiz-adv-x="600" 
d="M297 675c59 0 91 36 92 119h62c0 -121 -67 -176 -156 -176c-94 0 -150 56 -150 176h63c1 -84 36 -119 89 -119zM524 200c0 -142 -89 -211 -225 -211c-137 0 -223 65 -223 208v353h88v-358c0 -92 55 -129 137 -129c85 0 136 37 136 126v361h87v-350z" />
    <glyph glyph-name="uni01D4.sc" horiz-adv-x="600" 
d="M345 621h-90l-101 176h59l88 -122l88 122h57zM524 200c0 -142 -89 -211 -225 -211c-137 0 -223 65 -223 208v353h88v-358c0 -92 55 -129 137 -129c85 0 136 37 136 126v361h87v-350z" />
    <glyph glyph-name="ucircumflex.sc" horiz-adv-x="600" 
d="M256 797h87l103 -176h-58l-89 123l-88 -123h-58zM524 200c0 -142 -89 -211 -225 -211c-137 0 -223 65 -223 208v353h88v-358c0 -92 55 -129 137 -129c85 0 136 37 136 126v361h87v-350z" />
    <glyph glyph-name="udieresis.sc" horiz-adv-x="600" 
d="M195 758c33 0 59 -27 59 -60s-26 -59 -59 -59s-59 26 -59 59s26 60 59 60zM403 758c33 0 59 -27 59 -60s-26 -59 -59 -59s-59 26 -59 59s26 60 59 60zM524 200c0 -142 -89 -211 -225 -211c-137 0 -223 65 -223 208v353h88v-358c0 -92 55 -129 137 -129
c85 0 136 37 136 126v361h87v-350z" />
    <glyph glyph-name="ugrave.sc" horiz-adv-x="600" 
d="M342 621h-62l-118 176h100zM524 200c0 -142 -89 -211 -225 -211c-137 0 -223 65 -223 208v353h88v-358c0 -92 55 -129 137 -129c85 0 136 37 136 126v361h87v-350z" />
    <glyph glyph-name="uhungarumlaut.sc" horiz-adv-x="600" 
d="M273 797h77l-72 -176h-57zM415 797h81l-95 -176h-56zM524 200c0 -142 -89 -211 -225 -211c-137 0 -223 65 -223 208v353h88v-358c0 -92 55 -129 137 -129c85 0 136 37 136 126v361h87v-350z" />
    <glyph glyph-name="umacron.sc" horiz-adv-x="600" 
d="M434 642h-279v64h279v-64zM524 200c0 -142 -89 -211 -225 -211c-137 0 -223 65 -223 208v353h88v-358c0 -92 55 -129 137 -129c85 0 136 37 136 126v361h87v-350z" />
    <glyph glyph-name="uogonek.sc" horiz-adv-x="600" 
d="M437 550h87v-350c0 -124 -68 -192 -176 -208c-36 -26 -53 -47 -53 -72c0 -21 17 -32 45 -32c19 0 42 5 61 10v-58c-29 -14 -60 -23 -94 -23c-59 0 -91 25 -91 72c0 46 31 75 72 100c-131 4 -212 69 -212 208v353h88v-358c0 -92 55 -129 137 -129c85 0 136 37 136 126v361
z" />
    <glyph glyph-name="uring.sc" horiz-adv-x="600" 
d="M410 707c0 -61 -39 -97 -110 -97c-73 0 -111 36 -111 97c0 62 40 97 111 97c73 0 110 -36 110 -97zM354 707c0 35 -21 53 -54 53c-32 0 -53 -18 -53 -53s21 -53 53 -53c33 0 54 18 54 53zM524 200c0 -142 -89 -211 -225 -211c-137 0 -223 65 -223 208v353h88v-358
c0 -92 55 -129 137 -129c85 0 136 37 136 126v361h87v-350z" />
    <glyph glyph-name="utilde.sc" horiz-adv-x="600" 
d="M225 747c73 0 85 -50 136 -50c33 0 42 17 42 48h64c-1 -70 -39 -108 -102 -108c-78 0 -92 51 -136 51c-28 0 -41 -15 -41 -48h-64c1 70 37 107 101 107zM524 200c0 -142 -89 -211 -225 -211c-137 0 -223 65 -223 208v353h88v-358c0 -92 55 -129 137 -129
c85 0 136 37 136 126v361h87v-350z" />
    <glyph glyph-name="wacute.sc" horiz-adv-x="759" 
d="M409 797h102l-115 -176h-57zM382 414l-107 -414h-111l-138 550h93l104 -451h2l117 451h85l116 -452h3l102 452h85l-139 -550h-101z" />
    <glyph glyph-name="wcircumflex.sc" horiz-adv-x="759" 
d="M340 797h87l103 -176h-58l-89 123l-88 -123h-58zM382 414l-107 -414h-111l-138 550h93l104 -451h2l117 451h85l116 -452h3l102 452h85l-139 -550h-101z" />
    <glyph glyph-name="wdieresis.sc" horiz-adv-x="759" 
d="M279 758c33 0 59 -27 59 -60s-26 -59 -59 -59s-59 26 -59 59s26 60 59 60zM487 758c33 0 59 -27 59 -60s-26 -59 -59 -59s-59 26 -59 59s26 60 59 60zM382 414l-107 -414h-111l-138 550h93l104 -451h2l117 451h85l116 -452h3l102 452h85l-139 -550h-101z" />
    <glyph glyph-name="wgrave.sc" horiz-adv-x="759" 
d="M426 621h-62l-118 176h100zM382 414l-107 -414h-111l-138 550h93l104 -451h2l117 451h85l116 -452h3l102 452h85l-139 -550h-101z" />
    <glyph glyph-name="yacute.sc" horiz-adv-x="512" 
d="M285 797h102l-115 -176h-57zM300 215v-215h-88v215l-196 335h97l145 -263h2l147 263h89z" />
    <glyph glyph-name="ycircumflex.sc" horiz-adv-x="512" 
d="M216 797h87l103 -176h-58l-89 123l-88 -123h-58zM300 215v-215h-88v215l-196 335h97l145 -263h2l147 263h89z" />
    <glyph glyph-name="ydieresis.sc" horiz-adv-x="512" 
d="M155 758c33 0 59 -27 59 -60s-26 -59 -59 -59s-59 26 -59 59s26 60 59 60zM363 758c33 0 59 -27 59 -60s-26 -59 -59 -59s-59 26 -59 59s26 60 59 60zM300 215v-215h-88v215l-196 335h97l145 -263h2l147 263h89z" />
    <glyph glyph-name="ygrave.sc" horiz-adv-x="512" 
d="M302 621h-62l-118 176h100zM300 215v-215h-88v215l-196 335h97l145 -263h2l147 263h89z" />
    <glyph glyph-name="uni0233.sc" horiz-adv-x="512" 
d="M394 642h-279v64h279v-64zM300 215v-215h-88v215l-196 335h97l145 -263h2l147 263h89z" />
    <glyph glyph-name="zacute.sc" horiz-adv-x="486" 
d="M274 797h102l-115 -176h-57zM40 0v75l298 400h-287v75h386v-75l-300 -400h307v-75h-404z" />
    <glyph glyph-name="zcaron.sc" horiz-adv-x="486" 
d="M294 621h-90l-101 176h59l88 -122l88 122h57zM40 0v75l298 400h-287v75h386v-75l-300 -400h307v-75h-404z" />
    <glyph glyph-name="zdotaccent.sc" horiz-adv-x="486" 
d="M250 763c35 0 62 -28 62 -63s-27 -63 -62 -63s-64 28 -64 63s29 63 64 63zM40 0v75l298 400h-287v75h386v-75l-300 -400h307v-75h-404z" />
    <glyph glyph-name="a" unicode="a" horiz-adv-x="521" 
d="M436 84c0 -23 13 -33 35 -33c7 0 15 1 23 2v-54c-17 -6 -36 -11 -58 -11c-42 0 -70 18 -79 63c-37 -39 -90 -63 -160 -63c-103 0 -161 54 -161 147c0 110 70 164 201 164h111v33c0 77 -32 110 -115 110c-34 0 -80 -5 -143 -21v67c56 16 110 24 160 24
c130 0 186 -53 186 -179v-249zM124 143c0 -56 32 -86 101 -86c46 0 87 12 123 44v135h-93c-87 0 -131 -29 -131 -93z" />
    <glyph glyph-name="b" unicode="b" horiz-adv-x="581" 
d="M169 727v-281h1c43 43 97 66 155 66c126 0 207 -96 207 -249c0 -166 -86 -274 -217 -274c-55 0 -108 20 -154 59h-1v-48h-79v727h88zM441 262c0 110 -57 180 -145 180c-46 0 -88 -16 -127 -51v-286c42 -32 82 -46 128 -46c88 0 144 78 144 203z" />
    <glyph glyph-name="c" unicode="c" horiz-adv-x="477" 
d="M440 14c-51 -18 -100 -27 -146 -27c-144 0 -246 91 -246 260c0 175 108 265 255 265c41 0 83 -6 126 -19v-73c-41 15 -79 22 -116 22c-104 0 -174 -61 -174 -189c0 -132 69 -196 171 -196c40 0 84 10 130 29v-72z" />
    <glyph glyph-name="d" unicode="d" horiz-adv-x="581" 
d="M49 243c0 167 82 269 217 269c56 0 101 -18 145 -58h1v273h88v-727h-81v62h-2c-49 -49 -104 -73 -165 -73c-125 0 -203 97 -203 254zM140 243c0 -116 53 -184 143 -184c46 0 93 19 129 54v278c-42 36 -81 52 -127 52c-89 0 -145 -77 -145 -200z" />
    <glyph glyph-name="e" unicode="e" horiz-adv-x="518" 
d="M271 512c131 0 199 -94 199 -243v-42h-333c1 -123 63 -171 170 -171c54 0 105 15 148 34v-68c-38 -19 -100 -35 -163 -35c-143 0 -244 88 -244 263c0 154 83 262 223 262zM273 443c-84 0 -133 -63 -136 -153h253c0 98 -42 153 -117 153z" />
    <glyph glyph-name="f" unicode="f" horiz-adv-x="344" 
d="M110 503v68c0 110 57 168 165 168c28 0 57 -4 81 -11v-70c-25 7 -45 10 -65 10c-64 0 -93 -39 -93 -110v-55h130v-65h-130v-438h-88v438h-88v65h88z" />
    <glyph glyph-name="g" unicode="g" horiz-adv-x="575" 
d="M408 70h-2c-42 -45 -96 -70 -154 -70c-128 0 -203 94 -203 252c0 160 82 260 212 260c56 0 112 -24 151 -67h1v58h81v-511c0 -136 -73 -202 -222 -202c-63 0 -119 11 -174 36v72c59 -27 108 -40 160 -40c104 0 150 38 150 121v91zM140 253c0 -117 51 -183 139 -183
c43 0 86 19 127 57v263c-39 37 -78 53 -125 53c-87 0 -141 -72 -141 -190z" />
    <glyph glyph-name="h" unicode="h" horiz-adv-x="579" 
d="M416 0v325c0 74 -42 116 -115 116c-47 0 -94 -18 -132 -52v-389h-88v727h88v-280c50 40 112 65 166 65c111 0 169 -61 169 -183v-329h-88z" />
    <glyph glyph-name="i" unicode="i" horiz-adv-x="250" 
d="M126 716c35 0 62 -28 62 -63s-27 -63 -62 -63s-64 28 -64 63s29 63 64 63zM81 0v503h88v-503h-88z" />
    <glyph glyph-name="j" unicode="j" horiz-adv-x="258" 
d="M134 716c35 0 62 -28 62 -63s-27 -63 -62 -63s-64 28 -64 63s29 63 64 63zM177 -56c0 -113 -54 -154 -146 -154c-23 0 -48 2 -65 6v75c20 -6 37 -9 57 -9c46 0 66 21 66 73v568h88v-559z" />
    <glyph glyph-name="k" unicode="k" horiz-adv-x="502" 
d="M501 0h-102l-175 247l-55 -55v-192h-88v727h88v-443l204 220h98l-189 -201z" />
    <glyph glyph-name="l" unicode="l" horiz-adv-x="263" 
d="M78 727h88v-634c0 -25 16 -34 36 -34c9 0 19 2 29 6v-64c-20 -7 -40 -11 -58 -11c-54 0 -95 33 -95 99v638z" />
    <glyph glyph-name="m" unicode="m" horiz-adv-x="886" 
d="M644 512c110 0 166 -64 166 -183v-329h-88v306c0 86 -36 135 -112 135c-43 0 -89 -19 -124 -54c3 -11 4 -22 4 -34v-353h-88v306c0 91 -39 135 -112 135c-45 0 -87 -19 -121 -52v-389h-88v503h81v-63h2c49 46 106 72 160 72c77 0 126 -35 149 -82c53 53 113 82 171 82z
" />
    <glyph glyph-name="n" unicode="n" horiz-adv-x="579" 
d="M416 0v325c0 73 -42 116 -115 116c-47 0 -94 -18 -132 -52v-389h-88v503h81v-63h2c45 43 106 72 176 72c103 0 164 -62 164 -183v-329h-88z" />
    <glyph glyph-name="o" unicode="o" horiz-adv-x="585" 
d="M538 246c0 -152 -104 -259 -250 -259c-143 0 -241 107 -241 263s99 262 245 262c149 0 246 -105 246 -266zM447 247c0 118 -63 195 -154 195c-92 0 -155 -75 -155 -190c0 -119 62 -195 155 -195c91 0 154 77 154 190z" />
    <glyph glyph-name="p" unicode="p" horiz-adv-x="581" 
d="M162 503v-65h2c46 49 102 74 162 74c125 0 206 -96 206 -248c0 -165 -84 -275 -215 -275c-54 0 -101 17 -146 52h-2v-246h-88v708h81zM441 262c0 110 -57 181 -145 181c-47 0 -89 -17 -127 -52v-286c43 -32 86 -46 128 -46c90 0 144 75 144 203z" />
    <glyph glyph-name="q" unicode="q" horiz-adv-x="581" 
d="M412 56h-2c-44 -42 -100 -65 -156 -65c-123 0 -205 99 -205 249c0 169 83 272 219 272c57 0 109 -23 150 -67h2v58h80v-708h-88v261zM140 241c0 -113 55 -180 146 -180c43 0 89 19 127 55v274c-41 36 -81 53 -127 53c-89 0 -146 -79 -146 -202z" />
    <glyph glyph-name="r" unicode="r" horiz-adv-x="364" 
d="M344 428c-60 0 -122 -25 -175 -72v-356h-88v503h81v-90h2c62 71 115 100 180 100v-85z" />
    <glyph glyph-name="s" unicode="s" horiz-adv-x="410" 
d="M367 134c0 -106 -82 -147 -178 -147c-42 0 -95 8 -140 26v70c41 -18 85 -32 131 -32c53 0 99 17 99 85c0 106 -226 59 -226 235c0 97 71 141 171 141c50 0 94 -11 120 -22v-69c-33 16 -71 26 -109 26c-58 0 -96 -22 -96 -77c0 -112 228 -60 228 -236z" />
    <glyph glyph-name="t" unicode="t" horiz-adv-x="381" 
d="M198 132c0 -54 30 -75 78 -75c29 0 57 6 79 12v-69c-19 -6 -59 -13 -104 -13c-81 0 -141 37 -141 143v308h-90v65h90v137h88v-137h157v-65h-157v-306z" />
    <glyph glyph-name="u" unicode="u" horiz-adv-x="580" 
d="M163 503v-326c0 -72 46 -116 122 -116c45 0 93 19 125 51l1 391h88v-503h-81v62h-2c-44 -45 -107 -72 -166 -72c-114 0 -175 65 -175 184v329h88z" />
    <glyph glyph-name="v" unicode="v" horiz-adv-x="507" 
d="M204 0l-184 503h86l149 -413h2l149 413h81l-184 -503h-99z" />
    <glyph glyph-name="w" unicode="w" horiz-adv-x="741" 
d="M170 0l-147 503h89l107 -390h1l116 390h75l117 -390h1l104 390h85l-147 -503h-90l-110 367h-1l-111 -367h-89z" />
    <glyph glyph-name="x" unicode="x" horiz-adv-x="491" 
d="M462 503l-167 -239l179 -264h-97l-135 198l-137 -198h-89l180 255l-168 248h99l122 -182l126 182h87z" />
    <glyph glyph-name="y" unicode="y" horiz-adv-x="507" 
d="M295 -23c-49 -135 -103 -184 -205 -184c-31 0 -54 3 -81 9v76c28 -11 50 -15 78 -15c67 0 91 35 123 125l-189 515h86l149 -413h2l149 413h81z" />
    <glyph glyph-name="z" unicode="z" horiz-adv-x="465" 
d="M41 0v64l270 372h-262v67h367v-56l-275 -379h288v-68h-388z" />
    <glyph glyph-name="aacute" unicode="&#xe1;" horiz-adv-x="521" 
d="M282 750h102l-115 -176h-57zM436 84c0 -23 13 -33 35 -33c7 0 15 1 23 2v-54c-17 -6 -36 -11 -58 -11c-42 0 -70 18 -79 63c-37 -39 -90 -63 -160 -63c-103 0 -161 54 -161 147c0 110 70 164 201 164h111v33c0 77 -32 110 -115 110c-34 0 -80 -5 -143 -21v67
c56 16 110 24 160 24c130 0 186 -53 186 -179v-249zM124 143c0 -56 32 -86 101 -86c46 0 87 12 123 44v135h-93c-87 0 -131 -29 -131 -93z" />
    <glyph glyph-name="abreve" unicode="&#x103;" horiz-adv-x="521" 
d="M254 628c59 0 91 36 92 119h62c0 -121 -67 -176 -156 -176c-94 0 -150 56 -150 176h63c1 -84 36 -119 89 -119zM436 84c0 -23 13 -33 35 -33c7 0 15 1 23 2v-54c-17 -6 -36 -11 -58 -11c-42 0 -70 18 -79 63c-37 -39 -90 -63 -160 -63c-103 0 -161 54 -161 147
c0 110 70 164 201 164h111v33c0 77 -32 110 -115 110c-34 0 -80 -5 -143 -21v67c56 16 110 24 160 24c130 0 186 -53 186 -179v-249zM124 143c0 -56 32 -86 101 -86c46 0 87 12 123 44v135h-93c-87 0 -131 -29 -131 -93z" />
    <glyph glyph-name="uni01CE" unicode="&#x1ce;" horiz-adv-x="521" 
d="M301 574h-90l-101 176h59l88 -122l88 122h57zM436 84c0 -23 13 -33 35 -33c7 0 15 1 23 2v-54c-17 -6 -36 -11 -58 -11c-42 0 -70 18 -79 63c-37 -39 -90 -63 -160 -63c-103 0 -161 54 -161 147c0 110 70 164 201 164h111v33c0 77 -32 110 -115 110
c-34 0 -80 -5 -143 -21v67c56 16 110 24 160 24c130 0 186 -53 186 -179v-249zM124 143c0 -56 32 -86 101 -86c46 0 87 12 123 44v135h-93c-87 0 -131 -29 -131 -93z" />
    <glyph glyph-name="acircumflex" unicode="&#xe2;" horiz-adv-x="521" 
d="M213 750h87l103 -176h-58l-89 123l-88 -123h-58zM436 84c0 -23 13 -33 35 -33c7 0 15 1 23 2v-54c-17 -6 -36 -11 -58 -11c-42 0 -70 18 -79 63c-37 -39 -90 -63 -160 -63c-103 0 -161 54 -161 147c0 110 70 164 201 164h111v33c0 77 -32 110 -115 110
c-34 0 -80 -5 -143 -21v67c56 16 110 24 160 24c130 0 186 -53 186 -179v-249zM124 143c0 -56 32 -86 101 -86c46 0 87 12 123 44v135h-93c-87 0 -131 -29 -131 -93z" />
    <glyph glyph-name="adieresis" unicode="&#xe4;" horiz-adv-x="521" 
d="M152 711c33 0 59 -27 59 -60s-26 -59 -59 -59s-59 26 -59 59s26 60 59 60zM360 711c33 0 59 -27 59 -60s-26 -59 -59 -59s-59 26 -59 59s26 60 59 60zM436 84c0 -23 13 -33 35 -33c7 0 15 1 23 2v-54c-17 -6 -36 -11 -58 -11c-42 0 -70 18 -79 63
c-37 -39 -90 -63 -160 -63c-103 0 -161 54 -161 147c0 110 70 164 201 164h111v33c0 77 -32 110 -115 110c-34 0 -80 -5 -143 -21v67c56 16 110 24 160 24c130 0 186 -53 186 -179v-249zM124 143c0 -56 32 -86 101 -86c46 0 87 12 123 44v135h-93c-87 0 -131 -29 -131 -93z
" />
    <glyph glyph-name="agrave" unicode="&#xe0;" horiz-adv-x="521" 
d="M299 574h-62l-118 176h100zM436 84c0 -23 13 -33 35 -33c7 0 15 1 23 2v-54c-17 -6 -36 -11 -58 -11c-42 0 -70 18 -79 63c-37 -39 -90 -63 -160 -63c-103 0 -161 54 -161 147c0 110 70 164 201 164h111v33c0 77 -32 110 -115 110c-34 0 -80 -5 -143 -21v67
c56 16 110 24 160 24c130 0 186 -53 186 -179v-249zM124 143c0 -56 32 -86 101 -86c46 0 87 12 123 44v135h-93c-87 0 -131 -29 -131 -93z" />
    <glyph glyph-name="amacron" unicode="&#x101;" horiz-adv-x="521" 
d="M391 595h-279v64h279v-64zM436 84c0 -23 13 -33 35 -33c7 0 15 1 23 2v-54c-17 -6 -36 -11 -58 -11c-42 0 -70 18 -79 63c-37 -39 -90 -63 -160 -63c-103 0 -161 54 -161 147c0 110 70 164 201 164h111v33c0 77 -32 110 -115 110c-34 0 -80 -5 -143 -21v67
c56 16 110 24 160 24c130 0 186 -53 186 -179v-249zM124 143c0 -56 32 -86 101 -86c46 0 87 12 123 44v135h-93c-87 0 -131 -29 -131 -93z" />
    <glyph glyph-name="aogonek" unicode="&#x105;" horiz-adv-x="521" 
d="M476 -7c-61 -20 -87 -50 -87 -76c0 -21 16 -32 44 -32c20 0 42 5 61 10v-57c-28 -15 -60 -24 -93 -24c-59 0 -91 26 -91 72c0 49 37 87 84 110c-19 10 -31 27 -37 55c-37 -39 -90 -63 -160 -63c-103 0 -161 54 -161 147c0 110 70 164 201 164h111v33
c0 77 -32 110 -115 110c-34 0 -80 -5 -143 -21v67c56 16 110 24 160 24c130 0 186 -53 186 -179v-249c0 -23 13 -33 35 -33c7 0 15 1 23 2v-54zM348 101v135h-93c-87 0 -131 -29 -131 -93c0 -56 32 -86 101 -86c46 0 87 12 123 44z" />
    <glyph glyph-name="aring" unicode="&#xe5;" horiz-adv-x="521" 
d="M367 660c0 -61 -39 -97 -110 -97c-73 0 -111 36 -111 97c0 62 40 97 111 97c73 0 110 -36 110 -97zM311 660c0 35 -21 53 -54 53c-32 0 -53 -18 -53 -53s21 -53 53 -53c33 0 54 18 54 53zM436 84c0 -23 13 -33 35 -33c7 0 15 1 23 2v-54c-17 -6 -36 -11 -58 -11
c-42 0 -70 18 -79 63c-37 -39 -90 -63 -160 -63c-103 0 -161 54 -161 147c0 110 70 164 201 164h111v33c0 77 -32 110 -115 110c-34 0 -80 -5 -143 -21v67c56 16 110 24 160 24c130 0 186 -53 186 -179v-249zM124 143c0 -56 32 -86 101 -86c46 0 87 12 123 44v135h-93
c-87 0 -131 -29 -131 -93z" />
    <glyph glyph-name="atilde" unicode="&#xe3;" horiz-adv-x="521" 
d="M182 700c73 0 85 -50 136 -50c33 0 42 17 42 48h64c-1 -70 -39 -108 -102 -108c-78 0 -92 51 -136 51c-28 0 -41 -15 -41 -48h-64c1 70 37 107 101 107zM436 84c0 -23 13 -33 35 -33c7 0 15 1 23 2v-54c-17 -6 -36 -11 -58 -11c-42 0 -70 18 -79 63
c-37 -39 -90 -63 -160 -63c-103 0 -161 54 -161 147c0 110 70 164 201 164h111v33c0 77 -32 110 -115 110c-34 0 -80 -5 -143 -21v67c56 16 110 24 160 24c130 0 186 -53 186 -179v-249zM124 143c0 -56 32 -86 101 -86c46 0 87 12 123 44v135h-93c-87 0 -131 -29 -131 -93z
" />
    <glyph glyph-name="ae" unicode="&#xe6;" horiz-adv-x="816" 
d="M768 227h-334c1 -114 64 -171 171 -171c54 0 104 15 149 34v-68c-39 -19 -100 -35 -163 -35c-86 0 -148 31 -191 88c-52 -61 -115 -87 -195 -87c-112 0 -169 54 -169 147c0 110 69 164 200 164h112v33c0 77 -32 110 -115 110c-34 0 -80 -5 -143 -21v67
c56 16 110 24 160 24c99 0 139 -31 161 -84c18 39 64 84 159 84c127 0 198 -94 198 -243v-42zM687 290c0 99 -41 155 -117 155c-82 0 -133 -66 -136 -155h253zM226 57c62 0 106 18 147 64c-16 32 -25 77 -25 115h-93c-87 0 -131 -29 -131 -93c0 -56 33 -86 102 -86z" />
    <glyph glyph-name="aeacute" unicode="&#x1fd;" horiz-adv-x="816" 
d="M439 750h102l-115 -176h-57zM768 227h-334c1 -114 64 -171 171 -171c54 0 104 15 149 34v-68c-39 -19 -100 -35 -163 -35c-86 0 -148 31 -191 88c-52 -61 -115 -87 -195 -87c-112 0 -169 54 -169 147c0 110 69 164 200 164h112v33c0 77 -32 110 -115 110
c-34 0 -80 -5 -143 -21v67c56 16 110 24 160 24c99 0 139 -31 161 -84c18 39 64 84 159 84c127 0 198 -94 198 -243v-42zM687 290c0 99 -41 155 -117 155c-82 0 -133 -66 -136 -155h253zM226 57c62 0 106 18 147 64c-16 32 -25 77 -25 115h-93c-87 0 -131 -29 -131 -93
c0 -56 33 -86 102 -86z" />
    <glyph glyph-name="uni01E3" unicode="&#x1e3;" horiz-adv-x="816" 
d="M548 595h-279v64h279v-64zM768 227h-334c1 -114 64 -171 171 -171c54 0 104 15 149 34v-68c-39 -19 -100 -35 -163 -35c-86 0 -148 31 -191 88c-52 -61 -115 -87 -195 -87c-112 0 -169 54 -169 147c0 110 69 164 200 164h112v33c0 77 -32 110 -115 110
c-34 0 -80 -5 -143 -21v67c56 16 110 24 160 24c99 0 139 -31 161 -84c18 39 64 84 159 84c127 0 198 -94 198 -243v-42zM687 290c0 99 -41 155 -117 155c-82 0 -133 -66 -136 -155h253zM226 57c62 0 106 18 147 64c-16 32 -25 77 -25 115h-93c-87 0 -131 -29 -131 -93
c0 -56 33 -86 102 -86z" />
    <glyph glyph-name="cacute" unicode="&#x107;" horiz-adv-x="477" 
d="M313 750h102l-115 -176h-57zM440 14c-51 -18 -100 -27 -146 -27c-144 0 -246 91 -246 260c0 175 108 265 255 265c41 0 83 -6 126 -19v-73c-41 15 -79 22 -116 22c-104 0 -174 -61 -174 -189c0 -132 69 -196 171 -196c40 0 84 10 130 29v-72z" />
    <glyph glyph-name="ccaron" unicode="&#x10d;" horiz-adv-x="477" 
d="M333 574h-90l-101 176h59l88 -122l88 122h57zM440 14c-51 -18 -100 -27 -146 -27c-144 0 -246 91 -246 260c0 175 108 265 255 265c41 0 83 -6 126 -19v-73c-41 15 -79 22 -116 22c-104 0 -174 -61 -174 -189c0 -132 69 -196 171 -196c40 0 84 10 130 29v-72z" />
    <glyph glyph-name="ccedilla" unicode="&#xe7;" horiz-adv-x="477" 
d="M440 86v-72c-40 -14 -79 -23 -116 -26c41 -37 64 -74 64 -110c0 -65 -55 -85 -107 -85c-23 0 -45 3 -62 8v59c14 -5 29 -8 51 -8c21 0 35 9 35 35c0 22 -14 58 -51 102c-122 16 -206 105 -206 258c0 175 108 265 255 265c41 0 83 -6 126 -19v-73c-41 15 -79 22 -116 22
c-104 0 -174 -61 -174 -189c0 -132 69 -196 171 -196c40 0 84 10 130 29z" />
    <glyph glyph-name="ccircumflex" unicode="&#x109;" horiz-adv-x="477" 
d="M244 750h87l103 -176h-58l-89 123l-88 -123h-58zM440 14c-51 -18 -100 -27 -146 -27c-144 0 -246 91 -246 260c0 175 108 265 255 265c41 0 83 -6 126 -19v-73c-41 15 -79 22 -116 22c-104 0 -174 -61 -174 -189c0 -132 69 -196 171 -196c40 0 84 10 130 29v-72z" />
    <glyph glyph-name="cdotaccent" unicode="&#x10b;" horiz-adv-x="477" 
d="M289 716c35 0 62 -28 62 -63s-27 -63 -62 -63s-64 28 -64 63s29 63 64 63zM440 14c-51 -18 -100 -27 -146 -27c-144 0 -246 91 -246 260c0 175 108 265 255 265c41 0 83 -6 126 -19v-73c-41 15 -79 22 -116 22c-104 0 -174 -61 -174 -189c0 -132 69 -196 171 -196
c40 0 84 10 130 29v-72z" />
    <glyph glyph-name="eth" unicode="&#xf0;" horiz-adv-x="592" 
d="M414 603c85 -86 127 -199 127 -321c0 -143 -58 -295 -252 -295c-166 0 -242 111 -242 242c0 140 88 243 259 243c38 0 78 -7 111 -16c-18 42 -43 82 -78 118l-120 -48l-23 56l87 35c-34 23 -73 43 -121 61l19 61c70 -22 131 -54 181 -91l99 40l23 -57zM293 56
c131 0 156 126 156 210c0 44 -3 87 -12 127c-40 13 -78 21 -124 21c-114 0 -174 -72 -174 -184c0 -91 44 -174 154 -174z" />
    <glyph glyph-name="dcaron" unicode="&#x10f;" horiz-adv-x="581" 
d="M581 508l-31 22c25 33 44 62 44 91c0 30 -35 28 -35 73c0 20 17 50 52 50c42 0 55 -33 55 -60c0 -50 -29 -118 -85 -176zM49 243c0 167 82 269 217 269c56 0 101 -18 145 -58h1v273h88v-727h-81v62h-2c-49 -49 -104 -73 -165 -73c-125 0 -203 97 -203 254zM140 243
c0 -116 53 -184 143 -184c46 0 93 19 129 54v278c-42 36 -81 52 -127 52c-89 0 -145 -77 -145 -200z" />
    <glyph glyph-name="dcroat" unicode="&#x111;" horiz-adv-x="581" 
d="M578 578h-78v-578h-81v62h-2c-49 -49 -104 -73 -165 -73c-125 0 -203 97 -203 254c0 167 82 269 217 269c56 0 101 -18 145 -58h1v124h-129v64h129v85h88v-85h78v-64zM412 391c-42 36 -81 52 -127 52c-89 0 -145 -77 -145 -200c0 -116 53 -184 143 -184
c46 0 93 19 129 54v278z" />
    <glyph glyph-name="eacute" unicode="&#xe9;" horiz-adv-x="518" 
d="M297 750h102l-115 -176h-57zM271 512c131 0 199 -94 199 -243v-42h-333c1 -123 63 -171 170 -171c54 0 105 15 148 34v-68c-38 -19 -100 -35 -163 -35c-143 0 -244 88 -244 263c0 154 83 262 223 262zM273 443c-84 0 -133 -63 -136 -153h253c0 98 -42 153 -117 153z" />
    <glyph glyph-name="ebreve" unicode="&#x115;" horiz-adv-x="518" 
d="M268 628c59 0 91 36 92 119h62c0 -121 -67 -176 -156 -176c-94 0 -150 56 -150 176h63c1 -84 36 -119 89 -119zM271 512c131 0 199 -94 199 -243v-42h-333c1 -123 63 -171 170 -171c54 0 105 15 148 34v-68c-38 -19 -100 -35 -163 -35c-143 0 -244 88 -244 263
c0 154 83 262 223 262zM273 443c-84 0 -133 -63 -136 -153h253c0 98 -42 153 -117 153z" />
    <glyph glyph-name="ecaron" unicode="&#x11b;" horiz-adv-x="518" 
d="M316 574h-90l-101 176h59l88 -122l88 122h57zM271 512c131 0 199 -94 199 -243v-42h-333c1 -123 63 -171 170 -171c54 0 105 15 148 34v-68c-38 -19 -100 -35 -163 -35c-143 0 -244 88 -244 263c0 154 83 262 223 262zM273 443c-84 0 -133 -63 -136 -153h253
c0 98 -42 153 -117 153z" />
    <glyph glyph-name="ecircumflex" unicode="&#xea;" horiz-adv-x="518" 
d="M228 750h87l103 -176h-58l-89 123l-88 -123h-58zM271 512c131 0 199 -94 199 -243v-42h-333c1 -123 63 -171 170 -171c54 0 105 15 148 34v-68c-38 -19 -100 -35 -163 -35c-143 0 -244 88 -244 263c0 154 83 262 223 262zM273 443c-84 0 -133 -63 -136 -153h253
c0 98 -42 153 -117 153z" />
    <glyph glyph-name="edieresis" unicode="&#xeb;" horiz-adv-x="518" 
d="M167 711c33 0 59 -27 59 -60s-26 -59 -59 -59s-59 26 -59 59s26 60 59 60zM375 711c33 0 59 -27 59 -60s-26 -59 -59 -59s-59 26 -59 59s26 60 59 60zM271 512c131 0 199 -94 199 -243v-42h-333c1 -123 63 -171 170 -171c54 0 105 15 148 34v-68
c-38 -19 -100 -35 -163 -35c-143 0 -244 88 -244 263c0 154 83 262 223 262zM273 443c-84 0 -133 -63 -136 -153h253c0 98 -42 153 -117 153z" />
    <glyph glyph-name="edotaccent" unicode="&#x117;" horiz-adv-x="518" 
d="M272 716c35 0 62 -28 62 -63s-27 -63 -62 -63s-64 28 -64 63s29 63 64 63zM271 512c131 0 199 -94 199 -243v-42h-333c1 -123 63 -171 170 -171c54 0 105 15 148 34v-68c-38 -19 -100 -35 -163 -35c-143 0 -244 88 -244 263c0 154 83 262 223 262zM273 443
c-84 0 -133 -63 -136 -153h253c0 98 -42 153 -117 153z" />
    <glyph glyph-name="egrave" unicode="&#xe8;" horiz-adv-x="518" 
d="M314 574h-62l-118 176h100zM271 512c131 0 199 -94 199 -243v-42h-333c1 -123 63 -171 170 -171c54 0 105 15 148 34v-68c-38 -19 -100 -35 -163 -35c-143 0 -244 88 -244 263c0 154 83 262 223 262zM273 443c-84 0 -133 -63 -136 -153h253c0 98 -42 153 -117 153z" />
    <glyph glyph-name="emacron" unicode="&#x113;" horiz-adv-x="518" 
d="M405 595h-279v64h279v-64zM271 512c131 0 199 -94 199 -243v-42h-333c1 -123 63 -171 170 -171c54 0 105 15 148 34v-68c-38 -19 -100 -35 -163 -35c-143 0 -244 88 -244 263c0 154 83 262 223 262zM273 443c-84 0 -133 -63 -136 -153h253c0 98 -42 153 -117 153z" />
    <glyph glyph-name="eogonek" unicode="&#x119;" horiz-adv-x="518" 
d="M470 227h-333c1 -114 63 -171 170 -171c54 0 105 15 148 34v-68c-72 -36 -105 -74 -105 -98c0 -27 16 -38 44 -38c20 0 42 5 61 10v-58c-28 -14 -60 -23 -93 -23c-59 0 -91 25 -91 72c0 46 31 82 73 104c-16 -2 -35 -4 -52 -4c-143 0 -244 88 -244 263
c0 154 83 262 223 262c131 0 199 -94 199 -243v-42zM390 290c0 98 -42 153 -117 153c-84 0 -133 -63 -136 -153h253z" />
    <glyph glyph-name="uni1EBD" unicode="&#x1ebd;" horiz-adv-x="518" 
d="M197 700c73 0 85 -50 136 -50c33 0 42 17 42 48h64c-1 -70 -39 -108 -102 -108c-78 0 -92 51 -136 51c-28 0 -41 -15 -41 -48h-64c1 70 37 107 101 107zM271 512c131 0 199 -94 199 -243v-42h-333c1 -123 63 -171 170 -171c54 0 105 15 148 34v-68
c-38 -19 -100 -35 -163 -35c-143 0 -244 88 -244 263c0 154 83 262 223 262zM273 443c-84 0 -133 -63 -136 -153h253c0 98 -42 153 -117 153z" />
    <glyph glyph-name="gbreve" unicode="&#x11f;" horiz-adv-x="575" 
d="M290 628c59 0 91 36 92 119h62c0 -121 -67 -176 -156 -176c-94 0 -150 56 -150 176h63c1 -84 36 -119 89 -119zM408 70h-2c-42 -45 -96 -70 -154 -70c-128 0 -203 94 -203 252c0 160 82 260 212 260c56 0 112 -24 151 -67h1v58h81v-511c0 -136 -73 -202 -222 -202
c-63 0 -119 11 -174 36v72c59 -27 108 -40 160 -40c104 0 150 38 150 121v91zM140 253c0 -117 51 -183 139 -183c43 0 86 19 127 57v263c-39 37 -78 53 -125 53c-87 0 -141 -72 -141 -190z" />
    <glyph glyph-name="gcircumflex" unicode="&#x11d;" horiz-adv-x="575" 
d="M249 750h87l103 -176h-58l-89 123l-88 -123h-58zM408 70h-2c-42 -45 -96 -70 -154 -70c-128 0 -203 94 -203 252c0 160 82 260 212 260c56 0 112 -24 151 -67h1v58h81v-511c0 -136 -73 -202 -222 -202c-63 0 -119 11 -174 36v72c59 -27 108 -40 160 -40
c104 0 150 38 150 121v91zM140 253c0 -117 51 -183 139 -183c43 0 86 19 127 57v263c-39 37 -78 53 -125 53c-87 0 -141 -72 -141 -190z" />
    <glyph glyph-name="uni0123" unicode="&#x123;" horiz-adv-x="575" 
d="M434 709v-37c-76 -5 -90 -26 -90 -57c0 -40 -24 -59 -56 -59s-52 25 -52 54c0 59 78 99 198 99zM408 70h-2c-42 -45 -96 -70 -154 -70c-128 0 -203 94 -203 252c0 160 82 260 212 260c56 0 112 -24 151 -67h1v58h81v-511c0 -136 -73 -202 -222 -202
c-63 0 -119 11 -174 36v72c59 -27 108 -40 160 -40c104 0 150 38 150 121v91zM140 253c0 -117 51 -183 139 -183c43 0 86 19 127 57v263c-39 37 -78 53 -125 53c-87 0 -141 -72 -141 -190z" />
    <glyph glyph-name="gdotaccent" unicode="&#x121;" horiz-adv-x="575" 
d="M293 716c35 0 62 -28 62 -63s-27 -63 -62 -63s-64 28 -64 63s29 63 64 63zM408 70h-2c-42 -45 -96 -70 -154 -70c-128 0 -203 94 -203 252c0 160 82 260 212 260c56 0 112 -24 151 -67h1v58h81v-511c0 -136 -73 -202 -222 -202c-63 0 -119 11 -174 36v72
c59 -27 108 -40 160 -40c104 0 150 38 150 121v91zM140 253c0 -117 51 -183 139 -183c43 0 86 19 127 57v263c-39 37 -78 53 -125 53c-87 0 -141 -72 -141 -190z" />
    <glyph glyph-name="hbar" unicode="&#x127;" horiz-adv-x="579" 
d="M335 502c111 0 169 -64 169 -183v-319h-87v315c0 78 -48 116 -116 116c-46 0 -94 -18 -132 -52v-379h-88v575h-59v64h59v88h88v-88h152v-64h-152v-138c41 33 103 65 166 65z" />
    <glyph glyph-name="hcircumflex" unicode="&#x125;" horiz-adv-x="579" 
d="M250 948h85l103 -158h-65l-81 99l-81 -99h-63zM416 0v325c0 74 -42 116 -115 116c-47 0 -94 -18 -132 -52v-389h-88v727h88v-280c50 40 112 65 166 65c111 0 169 -61 169 -183v-329h-88z" />
    <glyph glyph-name="dotlessi" unicode="&#x131;" horiz-adv-x="250" 
d="M81 0v503h88v-503h-88z" />
    <glyph glyph-name="iacute" unicode="&#xed;" horiz-adv-x="250" 
d="M151 750h102l-115 -176h-57zM81 0v503h88v-503h-88z" />
    <glyph glyph-name="ibreve" unicode="&#x12d;" horiz-adv-x="250" 
d="M123 628c59 0 91 36 92 119h62c0 -121 -67 -176 -156 -176c-94 0 -150 56 -150 176h63c1 -84 36 -119 89 -119zM81 0v503h88v-503h-88z" />
    <glyph glyph-name="uni01D0" unicode="&#x1d0;" horiz-adv-x="250" 
d="M170 574h-90l-101 176h59l88 -122l88 122h57zM81 0v503h88v-503h-88z" />
    <glyph glyph-name="icircumflex" unicode="&#xee;" horiz-adv-x="250" 
d="M82 750h87l103 -176h-58l-89 123l-88 -123h-58zM81 0v503h88v-503h-88z" />
    <glyph glyph-name="idieresis" unicode="&#xef;" horiz-adv-x="250" 
d="M21 711c33 0 59 -27 59 -60s-26 -59 -59 -59s-59 26 -59 59s26 60 59 60zM229 711c33 0 59 -27 59 -60s-26 -59 -59 -59s-59 26 -59 59s26 60 59 60zM81 0v503h88v-503h-88z" />
    <glyph glyph-name="i.loclTRK" horiz-adv-x="250" 
d="M126 716c35 0 62 -28 62 -63s-27 -63 -62 -63s-64 28 -64 63s29 63 64 63zM81 0v503h88v-503h-88z" />
    <glyph glyph-name="igrave" unicode="&#xec;" horiz-adv-x="250" 
d="M168 574h-62l-118 176h100zM81 0v503h88v-503h-88z" />
    <glyph glyph-name="ij" unicode="&#x133;" horiz-adv-x="508" 
d="M126 716c35 0 62 -28 62 -63s-27 -63 -62 -63s-64 28 -64 63s29 63 64 63zM384 716c35 0 62 -28 62 -63s-27 -63 -62 -63s-64 28 -64 63s29 63 64 63zM81 0v503h88v-503h-88zM427 -56c0 -113 -54 -154 -146 -154c-23 0 -48 2 -65 6v75c20 -6 37 -9 57 -9
c46 0 66 21 66 73v568h88v-559z" />
    <glyph glyph-name="iacute_j.loclNLD" horiz-adv-x="510" 
d="M148 756h101l-114 -176h-58zM399 756h102l-115 -176h-57zM81 0v503h88v-503h-88zM427 -56c0 -113 -54 -154 -146 -154c-23 0 -48 2 -65 6v75c20 -6 37 -9 57 -9c46 0 66 21 66 73v568h88v-559z" />
    <glyph glyph-name="imacron" unicode="&#x12b;" horiz-adv-x="250" 
d="M260 595h-279v64h279v-64zM81 0v503h88v-503h-88z" />
    <glyph glyph-name="iogonek" unicode="&#x12f;" horiz-adv-x="250" 
d="M126 590c-34 0 -63 28 -63 63s29 63 63 63c35 0 62 -28 62 -63s-27 -63 -62 -63zM148 -113c19 0 41 5 60 10v-58c-28 -14 -60 -23 -93 -23c-59 0 -91 25 -91 72c0 51 40 83 90 112h-33v503h88v-503c-45 -30 -66 -53 -66 -81c0 -21 17 -32 45 -32z" />
    <glyph glyph-name="itilde" unicode="&#x129;" horiz-adv-x="250" 
d="M51 700c73 0 85 -50 136 -50c33 0 42 17 42 48h64c-1 -70 -39 -108 -102 -108c-78 0 -92 51 -136 51c-28 0 -41 -15 -41 -48h-64c1 70 37 107 101 107zM81 0v503h88v-503h-88z" />
    <glyph glyph-name="uni0237" unicode="&#x237;" horiz-adv-x="258" 
d="M177 -56c0 -113 -54 -154 -146 -154c-23 0 -48 2 -65 6v75c20 -6 37 -9 57 -9c46 0 66 21 66 73v568h88v-559z" />
    <glyph glyph-name="jcircumflex" unicode="&#x135;" horiz-adv-x="258" 
d="M90 750h87l103 -176h-58l-89 123l-88 -123h-58zM177 -56c0 -113 -54 -154 -146 -154c-23 0 -48 2 -65 6v75c20 -6 37 -9 57 -9c46 0 66 21 66 73v568h88v-559z" />
    <glyph glyph-name="uni0137" unicode="&#x137;" horiz-adv-x="502" 
d="M501 0h-102l-175 247l-55 -55v-192h-88v727h88v-443l204 220h98l-189 -201zM125 -206v37c76 5 90 26 90 57c0 40 24 59 56 59s52 -25 52 -54c0 -59 -78 -99 -198 -99z" />
    <glyph glyph-name="kgreenlandic" unicode="&#x138;" horiz-adv-x="502" 
d="M501 0h-102l-175 247l-55 -55v-192h-88v503h88v-219l204 220h98l-189 -201z" />
    <glyph glyph-name="lacute" unicode="&#x13a;" horiz-adv-x="263" 
d="M151 948h112l-116 -158h-67zM78 727h88v-634c0 -25 16 -34 36 -34c9 0 19 2 29 6v-64c-20 -7 -40 -11 -58 -11c-54 0 -95 33 -95 99v638z" />
    <glyph glyph-name="lcaron" unicode="&#x13e;" horiz-adv-x="263" 
d="M247 507l-31 22c25 33 44 62 44 91c0 30 -35 28 -35 73c0 20 17 50 52 50c42 0 55 -33 55 -60c0 -50 -29 -118 -85 -176zM78 727h88v-634c0 -25 16 -34 36 -34c9 0 19 2 29 6v-64c-20 -7 -40 -11 -58 -11c-54 0 -95 33 -95 99v638z" />
    <glyph glyph-name="uni013C" unicode="&#x13c;" horiz-adv-x="263" 
d="M78 727h88v-634c0 -25 16 -34 36 -34c9 0 19 2 29 6v-64c-20 -7 -40 -11 -58 -11c-54 0 -95 33 -95 99v638zM25 -206v37c76 5 90 26 90 57c0 40 24 59 56 59s52 -25 52 -54c0 -59 -78 -99 -198 -99z" />
    <glyph glyph-name="ldot" unicode="&#x140;" horiz-adv-x="401" 
d="M78 727h88v-634c0 -25 16 -34 36 -34c9 0 19 2 29 6v-64c-20 -7 -40 -11 -58 -11c-54 0 -95 33 -95 99v638zM303 379c35 0 63 -29 63 -64s-28 -63 -63 -63s-64 28 -64 63s29 64 64 64z" />
    <glyph glyph-name="lslash" unicode="&#x142;" horiz-adv-x="338" 
d="M297 380l-96 -50v-237c0 -25 17 -33 36 -33c9 0 19 1 30 5v-64c-21 -7 -40 -11 -59 -11c-54 0 -95 33 -95 99v206l-75 -39v84l75 39v348h88v-314l96 51v-84z" />
    <glyph glyph-name="nacute" unicode="&#x144;" horiz-adv-x="579" 
d="M322 750h102l-115 -176h-57zM416 0v325c0 73 -42 116 -115 116c-47 0 -94 -18 -132 -52v-389h-88v503h81v-63h2c45 43 106 72 176 72c103 0 164 -62 164 -183v-329h-88z" />
    <glyph glyph-name="ncaron" unicode="&#x148;" horiz-adv-x="579" 
d="M341 574h-90l-101 176h59l88 -122l88 122h57zM416 0v325c0 73 -42 116 -115 116c-47 0 -94 -18 -132 -52v-389h-88v503h81v-63h2c45 43 106 72 176 72c103 0 164 -62 164 -183v-329h-88z" />
    <glyph glyph-name="uni0146" unicode="&#x146;" horiz-adv-x="579" 
d="M416 0v325c0 73 -42 116 -115 116c-47 0 -94 -18 -132 -52v-389h-88v503h81v-63h2c45 43 106 72 176 72c103 0 164 -62 164 -183v-329h-88zM148 -206v37c76 5 90 26 90 57c0 40 24 59 56 59s52 -25 52 -54c0 -59 -78 -99 -198 -99z" />
    <glyph glyph-name="eng" unicode="&#x14b;" horiz-adv-x="579" 
d="M335 512c111 0 169 -64 169 -183v-310c0 -75 -36 -150 -121 -210l-46 40c48 40 79 105 79 157v319c0 77 -47 116 -115 116c-47 0 -95 -17 -132 -52v-389h-88v503h81v-63h2c44 42 109 72 171 72z" />
    <glyph glyph-name="ntilde" unicode="&#xf1;" horiz-adv-x="579" 
d="M222 700c73 0 85 -50 136 -50c33 0 42 17 42 48h64c-1 -70 -39 -108 -102 -108c-78 0 -92 51 -136 51c-28 0 -41 -15 -41 -48h-64c1 70 37 107 101 107zM416 0v325c0 73 -42 116 -115 116c-47 0 -94 -18 -132 -52v-389h-88v503h81v-63h2c45 43 106 72 176 72
c103 0 164 -62 164 -183v-329h-88z" />
    <glyph glyph-name="oacute" unicode="&#xf3;" horiz-adv-x="585" 
d="M317 750h102l-115 -176h-57zM538 246c0 -152 -104 -259 -250 -259c-143 0 -241 107 -241 263s99 262 245 262c149 0 246 -105 246 -266zM447 247c0 118 -63 195 -154 195c-92 0 -155 -75 -155 -190c0 -119 62 -195 155 -195c91 0 154 77 154 190z" />
    <glyph glyph-name="obreve" unicode="&#x14f;" horiz-adv-x="585" 
d="M288 628c59 0 91 36 92 119h62c0 -121 -67 -176 -156 -176c-94 0 -150 56 -150 176h63c1 -84 36 -119 89 -119zM538 246c0 -152 -104 -259 -250 -259c-143 0 -241 107 -241 263s99 262 245 262c149 0 246 -105 246 -266zM447 247c0 118 -63 195 -154 195
c-92 0 -155 -75 -155 -190c0 -119 62 -195 155 -195c91 0 154 77 154 190z" />
    <glyph glyph-name="uni01D2" unicode="&#x1d2;" horiz-adv-x="585" 
d="M336 574h-90l-101 176h59l88 -122l88 122h57zM538 246c0 -152 -104 -259 -250 -259c-143 0 -241 107 -241 263s99 262 245 262c149 0 246 -105 246 -266zM447 247c0 118 -63 195 -154 195c-92 0 -155 -75 -155 -190c0 -119 62 -195 155 -195c91 0 154 77 154 190z" />
    <glyph glyph-name="ocircumflex" unicode="&#xf4;" horiz-adv-x="585" 
d="M247 750h87l103 -176h-58l-89 123l-88 -123h-58zM538 246c0 -152 -104 -259 -250 -259c-143 0 -241 107 -241 263s99 262 245 262c149 0 246 -105 246 -266zM447 247c0 118 -63 195 -154 195c-92 0 -155 -75 -155 -190c0 -119 62 -195 155 -195c91 0 154 77 154 190z" />
    <glyph glyph-name="odieresis" unicode="&#xf6;" horiz-adv-x="585" 
d="M186 711c33 0 59 -27 59 -60s-26 -59 -59 -59s-59 26 -59 59s26 60 59 60zM394 711c33 0 59 -27 59 -60s-26 -59 -59 -59s-59 26 -59 59s26 60 59 60zM538 246c0 -152 -104 -259 -250 -259c-143 0 -241 107 -241 263s99 262 245 262c149 0 246 -105 246 -266zM447 247
c0 118 -63 195 -154 195c-92 0 -155 -75 -155 -190c0 -119 62 -195 155 -195c91 0 154 77 154 190z" />
    <glyph glyph-name="ograve" unicode="&#xf2;" horiz-adv-x="585" 
d="M333 574h-62l-118 176h100zM538 246c0 -152 -104 -259 -250 -259c-143 0 -241 107 -241 263s99 262 245 262c149 0 246 -105 246 -266zM447 247c0 118 -63 195 -154 195c-92 0 -155 -75 -155 -190c0 -119 62 -195 155 -195c91 0 154 77 154 190z" />
    <glyph glyph-name="ohungarumlaut" unicode="&#x151;" horiz-adv-x="585" 
d="M264 750h77l-72 -176h-57zM406 750h81l-95 -176h-56zM538 246c0 -152 -104 -259 -250 -259c-143 0 -241 107 -241 263s99 262 245 262c149 0 246 -105 246 -266zM447 247c0 118 -63 195 -154 195c-92 0 -155 -75 -155 -190c0 -119 62 -195 155 -195c91 0 154 77 154 190z
" />
    <glyph glyph-name="omacron" unicode="&#x14d;" horiz-adv-x="585" 
d="M425 595h-279v64h279v-64zM538 246c0 -152 -104 -259 -250 -259c-143 0 -241 107 -241 263s99 262 245 262c149 0 246 -105 246 -266zM447 247c0 118 -63 195 -154 195c-92 0 -155 -75 -155 -190c0 -119 62 -195 155 -195c91 0 154 77 154 190z" />
    <glyph glyph-name="oslash" unicode="&#xf8;" horiz-adv-x="585" 
d="M457 453c51 -46 81 -118 81 -207c0 -152 -104 -259 -250 -259c-38 0 -74 8 -105 22l-49 -81h-77l72 117c-52 46 -82 118 -82 205c0 156 99 262 245 262c41 0 78 -8 111 -23l48 79h76zM293 444c-93 0 -156 -76 -156 -192c0 -55 13 -102 37 -135l190 308
c-20 13 -45 19 -71 19zM293 55c92 0 155 78 155 192c0 54 -13 100 -36 134l-190 -308c20 -12 44 -18 71 -18z" />
    <glyph glyph-name="oslashacute" unicode="&#x1ff;" horiz-adv-x="585" 
d="M418 750l-115 -176h-57l70 176h102zM457 453c51 -46 81 -118 81 -207c0 -152 -104 -259 -250 -259c-38 0 -74 8 -105 22l-49 -81h-77l72 117c-52 46 -82 118 -82 205c0 156 99 262 245 262c41 0 78 -8 111 -23l48 79h76zM293 444c-93 0 -156 -76 -156 -192
c0 -55 13 -102 37 -135l190 308c-20 13 -45 19 -71 19zM293 55c92 0 155 78 155 192c0 54 -13 100 -36 134l-190 -308c20 -12 44 -18 71 -18z" />
    <glyph glyph-name="otilde" unicode="&#xf5;" horiz-adv-x="585" 
d="M216 700c73 0 85 -50 136 -50c33 0 42 17 42 48h64c-1 -70 -39 -108 -102 -108c-78 0 -92 51 -136 51c-28 0 -41 -15 -41 -48h-64c1 70 37 107 101 107zM538 246c0 -152 -104 -259 -250 -259c-143 0 -241 107 -241 263s99 262 245 262c149 0 246 -105 246 -266zM447 247
c0 118 -63 195 -154 195c-92 0 -155 -75 -155 -190c0 -119 62 -195 155 -195c91 0 154 77 154 190z" />
    <glyph glyph-name="oe" unicode="&#x153;" horiz-adv-x="917" 
d="M292 512c89 0 157 -38 197 -102c36 63 98 102 181 102c131 0 200 -94 200 -243v-42h-334c1 -114 64 -171 171 -171c53 0 104 15 147 34v-68c-38 -19 -99 -35 -162 -35c-91 0 -162 36 -203 106c-41 -66 -112 -106 -201 -106c-143 0 -241 107 -241 263s99 262 245 262z
M673 443c-85 0 -133 -63 -137 -153h253c0 98 -42 153 -116 153zM293 442c-92 0 -155 -75 -155 -190c0 -119 62 -195 155 -195c91 0 154 77 154 190c0 118 -63 195 -154 195z" />
    <glyph glyph-name="thorn" unicode="&#xfe;" horiz-adv-x="582" 
d="M169 727v-281h1c44 43 98 66 155 66c126 0 208 -96 208 -249c0 -166 -87 -274 -218 -274c-52 0 -99 17 -144 52h-2v-246h-88v932h88zM442 262c0 110 -58 180 -146 180c-46 0 -87 -16 -127 -51v-286c43 -31 83 -46 129 -46c88 0 144 78 144 203z" />
    <glyph glyph-name="racute" unicode="&#x155;" horiz-adv-x="364" 
d="M225 750h102l-115 -176h-57zM344 428c-60 0 -122 -25 -175 -72v-356h-88v503h81v-90h2c62 71 115 100 180 100v-85z" />
    <glyph glyph-name="rcaron" unicode="&#x159;" horiz-adv-x="364" 
d="M244 574h-90l-101 176h59l88 -122l88 122h57zM344 428c-60 0 -122 -25 -175 -72v-356h-88v503h81v-90h2c62 71 115 100 180 100v-85z" />
    <glyph glyph-name="uni0157" unicode="&#x157;" horiz-adv-x="364" 
d="M344 428c-60 0 -122 -25 -175 -72v-356h-88v503h81v-90h2c62 71 115 100 180 100v-85zM27 -206v37c76 5 90 26 90 57c0 40 24 59 56 59s52 -25 52 -54c0 -59 -78 -99 -198 -99z" />
    <glyph glyph-name="sacute" unicode="&#x15b;" horiz-adv-x="410" 
d="M228 750h102l-115 -176h-57zM367 134c0 -106 -82 -147 -178 -147c-42 0 -95 8 -140 26v70c41 -18 85 -32 131 -32c53 0 99 17 99 85c0 106 -226 59 -226 235c0 97 71 141 171 141c50 0 94 -11 120 -22v-69c-33 16 -71 26 -109 26c-58 0 -96 -22 -96 -77
c0 -112 228 -60 228 -236z" />
    <glyph glyph-name="scaron" unicode="&#x161;" horiz-adv-x="410" 
d="M247 574h-90l-101 176h59l88 -122l88 122h57zM367 134c0 -106 -82 -147 -178 -147c-42 0 -95 8 -140 26v70c41 -18 85 -32 131 -32c53 0 99 17 99 85c0 106 -226 59 -226 235c0 97 71 141 171 141c50 0 94 -11 120 -22v-69c-33 16 -71 26 -109 26c-58 0 -96 -22 -96 -77
c0 -112 228 -60 228 -236z" />
    <glyph glyph-name="scedilla" unicode="&#x15f;" horiz-adv-x="410" 
d="M367 134c0 -87 -56 -131 -129 -143c43 -38 67 -77 67 -113c0 -65 -54 -85 -107 -85c-22 0 -45 3 -61 8v58c13 -4 29 -7 50 -7c22 0 35 9 35 35c0 21 -14 57 -49 100c-39 2 -85 10 -124 26v70c41 -18 85 -32 131 -32c53 0 99 17 99 85c0 106 -226 59 -226 235
c0 97 71 141 171 141c50 0 94 -11 120 -22v-69c-33 16 -71 26 -109 26c-58 0 -96 -22 -96 -77c0 -112 228 -60 228 -236z" />
    <glyph glyph-name="scircumflex" unicode="&#x15d;" horiz-adv-x="410" 
d="M159 750h87l103 -176h-58l-89 123l-88 -123h-58zM367 134c0 -106 -82 -147 -178 -147c-42 0 -95 8 -140 26v70c41 -18 85 -32 131 -32c53 0 99 17 99 85c0 106 -226 59 -226 235c0 97 71 141 171 141c50 0 94 -11 120 -22v-69c-33 16 -71 26 -109 26
c-58 0 -96 -22 -96 -77c0 -112 228 -60 228 -236z" />
    <glyph glyph-name="uni0219" unicode="&#x219;" horiz-adv-x="410" 
d="M367 134c0 -106 -82 -147 -178 -147c-42 0 -95 8 -140 26v70c41 -18 85 -32 131 -32c53 0 99 17 99 85c0 106 -226 59 -226 235c0 97 71 141 171 141c50 0 94 -11 120 -22v-69c-33 16 -71 26 -109 26c-58 0 -96 -22 -96 -77c0 -112 228 -60 228 -236zM63 -206v37
c76 5 90 26 90 57c0 40 24 59 56 59s52 -25 52 -54c0 -59 -78 -99 -198 -99z" />
    <glyph glyph-name="germandbls" unicode="&#xdf;" horiz-adv-x="598" 
d="M308 737c112 0 210 -62 210 -169c0 -73 -41 -141 -180 -163v-2c149 -12 214 -87 214 -198c0 -126 -83 -219 -235 -219c-31 0 -65 5 -98 14l-1 65c30 -9 59 -12 87 -12c103 0 157 63 157 151c0 91 -62 164 -195 164h-26v67h38c108 0 154 51 154 122s-57 109 -124 109
c-75 0 -143 -45 -143 -140v-526h-85v511c0 157 109 226 227 226z" />
    <glyph glyph-name="longs" unicode="&#x17f;" horiz-adv-x="270" 
d="M81 571c0 110 57 168 165 168c28 0 58 -4 81 -11v-70c-25 7 -45 10 -64 10c-65 0 -94 -39 -94 -110v-558h-88v571z" />
    <glyph glyph-name="uni0259" unicode="&#x259;" horiz-adv-x="518" 
d="M247 -9c-131 0 -199 94 -199 243v42h333c-1 123 -63 171 -170 171c-54 0 -105 -15 -148 -34v68c38 19 100 35 163 35c143 0 244 -88 244 -263c0 -154 -83 -262 -223 -262zM245 60c84 0 133 63 136 153h-253c0 -98 42 -153 117 -153z" />
    <glyph glyph-name="tbar" unicode="&#x167;" horiz-adv-x="389" 
d="M360 438h-157v-137h143v-65h-143v-104c0 -54 29 -75 78 -75c28 0 57 6 79 12v-69c-19 -6 -59 -13 -104 -13c-81 0 -141 37 -141 143v106h-74v65h74v137h-90v65h90v137h88v-137h157v-65z" />
    <glyph glyph-name="tcaron" unicode="&#x165;" horiz-adv-x="381" 
d="M300 538l-31 22c24 33 44 61 44 90c0 30 -36 28 -36 73c0 20 18 49 53 49c41 0 54 -32 54 -59c0 -50 -29 -117 -84 -175zM198 132c0 -54 30 -75 78 -75c29 0 57 6 79 12v-69c-19 -6 -59 -13 -104 -13c-81 0 -141 37 -141 143v308h-90v65h90v137h88v-137h157v-65h-157
v-306z" />
    <glyph glyph-name="uni021B" unicode="&#x21b;" horiz-adv-x="381" 
d="M198 132c0 -54 30 -75 78 -75c29 0 57 6 79 12v-69c-19 -6 -59 -13 -104 -13c-81 0 -141 37 -141 143v308h-90v65h90v137h88v-137h157v-65h-157v-306zM98 -206v37c76 5 90 26 90 57c0 40 24 59 56 59s52 -25 52 -54c0 -59 -78 -99 -198 -99z" />
    <glyph glyph-name="uni0163" unicode="&#x163;" horiz-adv-x="381" 
d="M355 438h-157v-306c0 -54 30 -75 78 -75c29 0 57 6 79 12v-69c-18 -6 -55 -12 -97 -13c40 -36 63 -74 63 -109c0 -65 -55 -85 -107 -85c-23 0 -45 3 -62 8v59c14 -5 29 -8 51 -8c21 0 35 9 35 35c0 23 -17 65 -60 114c-42 19 -68 59 -68 129v308h-90v65h90v137h88v-137
h157v-65z" />
    <glyph glyph-name="uacute" unicode="&#xfa;" horiz-adv-x="580" 
d="M317 750h102l-115 -176h-57zM163 503v-326c0 -72 46 -116 122 -116c45 0 93 19 125 51l1 391h88v-503h-81v62h-2c-44 -45 -107 -72 -166 -72c-114 0 -175 65 -175 184v329h88z" />
    <glyph glyph-name="ubreve" unicode="&#x16d;" horiz-adv-x="580" 
d="M288 628c59 0 91 36 92 119h62c0 -121 -67 -176 -156 -176c-94 0 -150 56 -150 176h63c1 -84 36 -119 89 -119zM163 503v-326c0 -72 46 -116 122 -116c45 0 93 19 125 51l1 391h88v-503h-81v62h-2c-44 -45 -107 -72 -166 -72c-114 0 -175 65 -175 184v329h88z" />
    <glyph glyph-name="uni01D4" unicode="&#x1d4;" horiz-adv-x="580" 
d="M336 574h-90l-101 176h59l88 -122l88 122h57zM163 503v-326c0 -72 46 -116 122 -116c45 0 93 19 125 51l1 391h88v-503h-81v62h-2c-44 -45 -107 -72 -166 -72c-114 0 -175 65 -175 184v329h88z" />
    <glyph glyph-name="ucircumflex" unicode="&#xfb;" horiz-adv-x="580" 
d="M247 750h87l103 -176h-58l-89 123l-88 -123h-58zM163 503v-326c0 -72 46 -116 122 -116c45 0 93 19 125 51l1 391h88v-503h-81v62h-2c-44 -45 -107 -72 -166 -72c-114 0 -175 65 -175 184v329h88z" />
    <glyph glyph-name="udieresis" unicode="&#xfc;" horiz-adv-x="580" 
d="M187 711c33 0 59 -27 59 -60s-26 -59 -59 -59s-59 26 -59 59s26 60 59 60zM395 711c33 0 59 -27 59 -60s-26 -59 -59 -59s-59 26 -59 59s26 60 59 60zM163 503v-326c0 -72 46 -116 122 -116c45 0 93 19 125 51l1 391h88v-503h-81v62h-2c-44 -45 -107 -72 -166 -72
c-114 0 -175 65 -175 184v329h88z" />
    <glyph glyph-name="ugrave" unicode="&#xf9;" horiz-adv-x="580" 
d="M333 574h-62l-118 176h100zM163 503v-326c0 -72 46 -116 122 -116c45 0 93 19 125 51l1 391h88v-503h-81v62h-2c-44 -45 -107 -72 -166 -72c-114 0 -175 65 -175 184v329h88z" />
    <glyph glyph-name="uhungarumlaut" unicode="&#x171;" horiz-adv-x="580" 
d="M264 750h77l-72 -176h-57zM406 750h81l-95 -176h-56zM163 503v-326c0 -72 46 -116 122 -116c45 0 93 19 125 51l1 391h88v-503h-81v62h-2c-44 -45 -107 -72 -166 -72c-114 0 -175 65 -175 184v329h88z" />
    <glyph glyph-name="umacron" unicode="&#x16b;" horiz-adv-x="580" 
d="M425 595h-279v64h279v-64zM163 503v-326c0 -72 46 -116 122 -116c45 0 93 19 125 51l1 391h88v-503h-81v62h-2c-44 -45 -107 -72 -166 -72c-114 0 -175 65 -175 184v329h88z" />
    <glyph glyph-name="uogonek" unicode="&#x173;" horiz-adv-x="581" 
d="M466 -114c19 0 42 5 60 10v-57c-28 -15 -60 -24 -93 -24c-59 0 -91 26 -91 80c0 40 26 78 76 105v62h-2c-44 -45 -107 -72 -166 -72c-114 0 -175 65 -175 184v329h88v-326c0 -72 46 -116 122 -116c45 0 93 19 125 51l1 391h88v-503c-48 -14 -78 -53 -78 -81
c0 -22 17 -33 45 -33z" />
    <glyph glyph-name="uring" unicode="&#x16f;" horiz-adv-x="580" 
d="M401 660c0 -61 -39 -97 -110 -97c-73 0 -111 36 -111 97c0 62 40 97 111 97c73 0 110 -36 110 -97zM345 660c0 35 -21 53 -54 53c-32 0 -53 -18 -53 -53s21 -53 53 -53c33 0 54 18 54 53zM163 503v-326c0 -72 46 -116 122 -116c45 0 93 19 125 51l1 391h88v-503h-81v62
h-2c-44 -45 -107 -72 -166 -72c-114 0 -175 65 -175 184v329h88z" />
    <glyph glyph-name="utilde" unicode="&#x169;" horiz-adv-x="580" 
d="M217 700c73 0 85 -50 136 -50c33 0 42 17 42 48h64c-1 -70 -39 -108 -102 -108c-78 0 -92 51 -136 51c-28 0 -41 -15 -41 -48h-64c1 70 37 107 101 107zM163 503v-326c0 -72 46 -116 122 -116c45 0 93 19 125 51l1 391h88v-503h-81v62h-2c-44 -45 -107 -72 -166 -72
c-114 0 -175 65 -175 184v329h88z" />
    <glyph glyph-name="wacute" unicode="&#x1e83;" horiz-adv-x="741" 
d="M398 750h102l-115 -176h-57zM170 0l-147 503h89l107 -390h1l116 390h75l117 -390h1l104 390h85l-147 -503h-90l-110 367h-1l-111 -367h-89z" />
    <glyph glyph-name="wcircumflex" unicode="&#x175;" horiz-adv-x="741" 
d="M329 750h87l103 -176h-58l-89 123l-88 -123h-58zM170 0l-147 503h89l107 -390h1l116 390h75l117 -390h1l104 390h85l-147 -503h-90l-110 367h-1l-111 -367h-89z" />
    <glyph glyph-name="wdieresis" unicode="&#x1e85;" horiz-adv-x="741" 
d="M268 711c33 0 59 -27 59 -60s-26 -59 -59 -59s-59 26 -59 59s26 60 59 60zM476 711c33 0 59 -27 59 -60s-26 -59 -59 -59s-59 26 -59 59s26 60 59 60zM170 0l-147 503h89l107 -390h1l116 390h75l117 -390h1l104 390h85l-147 -503h-90l-110 367h-1l-111 -367h-89z" />
    <glyph glyph-name="wgrave" unicode="&#x1e81;" horiz-adv-x="741" 
d="M415 574h-62l-118 176h100zM170 0l-147 503h89l107 -390h1l116 390h75l117 -390h1l104 390h85l-147 -503h-90l-110 367h-1l-111 -367h-89z" />
    <glyph glyph-name="yacute" unicode="&#xfd;" horiz-adv-x="507" 
d="M282 750h102l-115 -176h-57zM295 -23c-49 -135 -103 -184 -205 -184c-31 0 -54 3 -81 9v76c28 -11 50 -15 78 -15c67 0 91 35 123 125l-189 515h86l149 -413h2l149 413h81z" />
    <glyph glyph-name="ycircumflex" unicode="&#x177;" horiz-adv-x="507" 
d="M213 750h87l103 -176h-58l-89 123l-88 -123h-58zM295 -23c-49 -135 -103 -184 -205 -184c-31 0 -54 3 -81 9v76c28 -11 50 -15 78 -15c67 0 91 35 123 125l-189 515h86l149 -413h2l149 413h81z" />
    <glyph glyph-name="ydieresis" unicode="&#xff;" horiz-adv-x="507" 
d="M152 711c33 0 59 -27 59 -60s-26 -59 -59 -59s-59 26 -59 59s26 60 59 60zM360 711c33 0 59 -27 59 -60s-26 -59 -59 -59s-59 26 -59 59s26 60 59 60zM295 -23c-49 -135 -103 -184 -205 -184c-31 0 -54 3 -81 9v76c28 -11 50 -15 78 -15c67 0 91 35 123 125l-189 515h86
l149 -413h2l149 413h81z" />
    <glyph glyph-name="ygrave" unicode="&#x1ef3;" horiz-adv-x="507" 
d="M299 574h-62l-118 176h100zM295 -23c-49 -135 -103 -184 -205 -184c-31 0 -54 3 -81 9v76c28 -11 50 -15 78 -15c67 0 91 35 123 125l-189 515h86l149 -413h2l149 413h81z" />
    <glyph glyph-name="uni0233" unicode="&#x233;" horiz-adv-x="507" 
d="M391 595h-279v64h279v-64zM295 -23c-49 -135 -103 -184 -205 -184c-31 0 -54 3 -81 9v76c28 -11 50 -15 78 -15c67 0 91 35 123 125l-189 515h86l149 -413h2l149 413h81z" />
    <glyph glyph-name="zacute" unicode="&#x17a;" horiz-adv-x="465" 
d="M257 750h102l-115 -176h-57zM41 0v64l270 372h-262v67h367v-56l-275 -379h288v-68h-388z" />
    <glyph glyph-name="zcaron" unicode="&#x17e;" horiz-adv-x="465" 
d="M276 574h-90l-101 176h59l88 -122l88 122h57zM41 0v64l270 372h-262v67h367v-56l-275 -379h288v-68h-388z" />
    <glyph glyph-name="zdotaccent" unicode="&#x17c;" horiz-adv-x="465" 
d="M233 716c35 0 62 -28 62 -63s-27 -63 -62 -63s-64 28 -64 63s29 63 64 63zM41 0v64l270 372h-262v67h367v-56l-275 -379h288v-68h-388z" />
    <glyph glyph-name="fi" unicode="&#xfb01;" horiz-adv-x="574" 
d="M425 0v438h-227v-438h-88v438h-88v65h88v64c0 121 88 171 217 171c58 0 107 -10 146 -20v-69c-41 11 -95 19 -140 19c-89 0 -135 -34 -135 -98v-67h315v-503h-88z" />
    <glyph glyph-name="fl" unicode="&#xfb02;" horiz-adv-x="609" 
d="M549 60c10 0 19 1 29 5v-64c-21 -7 -40 -11 -59 -11c-54 0 -94 33 -94 99v571c-30 5 -68 8 -98 8c-76 0 -129 -25 -129 -99v-66h130v-65h-130v-438h-88v438h-88v65h88v77c0 113 85 159 215 159c59 0 143 -10 188 -21v-625c0 -25 16 -33 36 -33z" />
    <glyph glyph-name="quotesinglbase.sc" horiz-adv-x="225" 
d="M79 -124l-34 23c27 36 48 68 48 86c0 34 -38 31 -38 80c0 28 20 54 57 54c44 0 59 -28 59 -65c0 -42 -32 -115 -92 -178z" />
    <glyph glyph-name="quotedblbase.sc" horiz-adv-x="411" 
d="M89 -124l-34 23c27 36 48 68 48 86c0 34 -38 31 -38 80c0 28 20 54 57 54c44 0 59 -28 59 -65c0 -42 -31 -115 -92 -178zM233 -124l-34 23c27 36 49 68 49 86c0 34 -38 31 -38 80c0 28 19 54 56 54c44 0 59 -28 59 -65c0 -42 -31 -115 -92 -178z" />
    <glyph glyph-name="zero" unicode="0" horiz-adv-x="611" 
d="M556 339c0 -202 -68 -352 -250 -352c-181 0 -251 145 -251 352c0 206 70 350 251 350c184 0 250 -149 250 -350zM464 335c0 163 -37 277 -158 277s-158 -111 -158 -272c0 -174 41 -276 157 -276c123 0 159 114 159 271z" />
    <glyph glyph-name="one" unicode="1" horiz-adv-x="352" 
d="M263 0h-92v589l-148 -37v64l157 61h83v-677z" />
    <glyph glyph-name="two" unicode="2" horiz-adv-x="527" 
d="M51 645c58 27 125 44 193 44c123 0 216 -56 216 -194c0 -102 -61 -193 -165 -289l-136 -126v-1l325 -1v-78h-440v72l173 162c105 98 151 180 151 255c0 92 -61 127 -136 127c-62 0 -129 -21 -181 -47v76z" />
    <glyph glyph-name="three" unicode="3" horiz-adv-x="508" 
d="M117 402h43c85 0 181 20 181 112c0 69 -50 104 -135 104c-51 0 -103 -11 -153 -32v71c56 23 110 31 171 31c137 0 210 -58 210 -158c0 -82 -51 -143 -151 -157v-4c102 -15 173 -71 173 -175c0 -124 -93 -206 -267 -206c-53 0 -104 8 -142 21v72c38 -12 84 -20 136 -20
c112 0 181 46 181 134c0 100 -86 134 -196 134h-51v73z" />
    <glyph glyph-name="four" unicode="4" horiz-adv-x="548" 
d="M117 240h210l16 167h71v-167h108v-76h-108v-164h-87v164h-296v82l208 431h87z" />
    <glyph glyph-name="five" unicode="5" horiz-adv-x="496" 
d="M75 677h343v-78h-256v-182c12 2 33 4 54 4c159 0 237 -87 237 -204c0 -135 -95 -229 -274 -229c-43 0 -89 5 -128 21v71c39 -12 80 -19 120 -19c136 0 188 70 188 152c0 85 -61 146 -189 146c-28 0 -61 -3 -95 -8v326z" />
    <glyph glyph-name="six" unicode="6" horiz-adv-x="544" 
d="M295 431c151 0 208 -88 208 -220c0 -138 -88 -223 -218 -223c-178 0 -229 144 -229 322c0 228 71 379 280 379c39 0 85 -7 111 -16v-73c-37 11 -78 19 -112 19c-133 0 -184 -93 -191 -232c43 26 94 44 151 44zM289 59c78 0 125 54 125 145c0 82 -23 158 -136 158
c-58 0 -100 -21 -134 -45v-34c0 -138 38 -224 145 -224z" />
    <glyph glyph-name="seven" unicode="7" horiz-adv-x="447" 
d="M421 598c-108 -168 -187 -404 -214 -598h-91c32 222 104 425 220 599h-313v78h398v-79z" />
    <glyph glyph-name="eight" unicode="8" horiz-adv-x="543" 
d="M472 529c0 -85 -48 -138 -121 -177c73 -35 140 -80 140 -176c0 -116 -90 -189 -227 -189c-124 0 -212 67 -212 175c0 96 57 151 132 187c-61 35 -112 80 -112 163c0 124 100 177 205 177c100 0 195 -51 195 -160zM160 521c0 -74 63 -106 134 -143c65 36 97 86 97 144
c0 66 -54 102 -117 102s-114 -34 -114 -103zM402 166c0 82 -87 117 -164 152c-63 -32 -103 -77 -103 -144c0 -79 59 -117 135 -117s132 38 132 109z" />
    <glyph glyph-name="nine" unicode="9" horiz-adv-x="543" 
d="M262 688c176 0 226 -144 226 -326c0 -218 -72 -374 -277 -374c-46 0 -89 8 -116 17v71c38 -11 78 -18 115 -18c131 0 183 96 190 231c-42 -25 -95 -43 -150 -43c-137 0 -209 90 -209 219c0 141 88 223 221 223zM255 617c-78 0 -125 -56 -125 -147c0 -81 36 -155 137 -155
c53 0 98 21 133 44v27c0 144 -32 231 -145 231z" />
    <glyph glyph-name="paragraph" unicode="&#xb6;" horiz-adv-x="561" 
d="M29 434c0 146 122 243 274 243h166v-831h-71v776h-52v-776h-71v348c-128 14 -246 96 -246 240z" />
    <glyph glyph-name="ampersand" unicode="&#x26;" horiz-adv-x="687" 
d="M634 59c10 0 25 2 36 6v-66c-18 -7 -37 -11 -56 -11c-48 0 -98 26 -145 66c-54 -45 -121 -66 -198 -66c-152 0 -224 80 -224 197c0 102 53 151 116 185c-40 59 -56 107 -56 157c0 94 65 163 182 163c104 0 169 -57 169 -149c0 -112 -95 -149 -184 -188
c42 -48 103 -107 189 -185c33 55 51 127 51 211h77c-3 -114 -28 -201 -68 -263c38 -33 73 -57 111 -57zM189 522c0 -34 11 -70 46 -119c73 30 140 57 140 131c0 58 -40 87 -90 87c-56 0 -96 -38 -96 -99zM127 198c0 -88 66 -138 154 -138c51 0 95 16 130 46
c-93 87 -160 155 -208 212c-44 -27 -76 -62 -76 -120z" />
    <glyph glyph-name="ampersand.sc" horiz-adv-x="592" 
d="M538 54c9 0 21 1 31 5v-59c-15 -6 -32 -10 -48 -10c-41 0 -82 22 -121 53c-46 -36 -103 -53 -167 -53c-130 0 -187 67 -187 161c0 81 43 121 95 149c-34 47 -47 86 -47 127c0 76 55 134 155 134c88 0 142 -46 142 -122c0 -92 -77 -124 -149 -154c35 -37 84 -83 153 -142
c26 43 40 99 40 165h70c-2 -91 -23 -160 -56 -211c31 -25 59 -43 89 -43zM167 421c0 -26 9 -54 38 -93c60 24 114 45 114 104c0 46 -34 67 -73 67c-46 0 -79 -29 -79 -78zM118 163c0 -67 50 -109 124 -109c41 0 76 12 105 34c-75 68 -130 121 -169 166
c-35 -21 -60 -47 -60 -91z" />
    <glyph glyph-name="at" unicode="@" horiz-adv-x="800" 
d="M414 435c81 0 128 -34 128 -128v-171c0 -22 15 -30 34 -30c59 0 105 77 105 178c0 174 -132 257 -275 257c-157 0 -289 -102 -289 -293c0 -199 145 -293 310 -293c64 0 129 14 185 40v-54c-57 -24 -116 -40 -190 -40c-198 0 -372 112 -372 344c0 211 145 349 360 349
c210 0 338 -131 338 -298c0 -124 -71 -240 -179 -240c-36 0 -65 13 -75 45c-30 -31 -71 -45 -111 -45c-70 0 -123 41 -123 111c0 88 78 116 168 116h50v25c0 65 -28 79 -77 79c-30 0 -65 -6 -102 -16v46c45 12 82 18 115 18zM325 171c0 -45 32 -68 77 -68c27 0 55 7 76 25
v112h-48c-59 0 -105 -18 -105 -69z" />
    <glyph glyph-name="at.sc" horiz-adv-x="647" 
d="M337 425c68 0 107 -29 107 -106v-131c0 -16 11 -22 26 -22c42 0 77 57 77 135c0 136 -102 200 -213 200c-120 0 -223 -77 -223 -226c0 -157 113 -229 241 -229c52 0 103 11 148 32v-52c-45 -17 -92 -30 -153 -30c-157 0 -298 87 -298 274c0 171 115 282 288 282
c171 0 273 -106 273 -240c0 -101 -58 -193 -146 -193c-32 0 -56 11 -65 37c-22 -25 -55 -37 -88 -37c-58 0 -99 36 -99 92c0 70 64 92 134 92h38v18c0 48 -20 58 -63 58c-22 0 -46 -3 -76 -12v43c35 10 64 15 92 15zM273 212c0 -32 23 -49 55 -49c20 0 42 5 56 17v83h-35
c-43 0 -76 -13 -76 -51z" />
    <glyph glyph-name="at.cap" horiz-adv-x="782" 
d="M413 525c81 0 128 -35 128 -129v-171c0 -22 15 -30 34 -30c59 0 105 78 105 178c0 174 -132 257 -275 257c-157 0 -289 -102 -289 -293c0 -199 145 -293 310 -293c64 0 129 14 185 40v-54c-57 -24 -116 -40 -190 -40c-197 0 -372 112 -372 344c0 211 145 350 360 350
c210 0 338 -132 338 -299c0 -124 -71 -240 -178 -240c-37 0 -66 13 -76 45c-30 -31 -71 -45 -111 -45c-70 0 -123 41 -123 111c0 88 79 116 168 116h50v26c0 64 -28 78 -77 78c-30 0 -65 -5 -102 -16v47c45 12 82 18 115 18zM324 261c0 -46 32 -69 77 -69c27 0 55 8 76 26
v111h-48c-59 0 -105 -18 -105 -68z" />
    <glyph glyph-name="at.ss13" horiz-adv-x="801" 
d="M542 138c0 -25 18 -32 36 -32c60 0 104 87 104 179c0 146 -113 256 -272 256c-161 0 -292 -103 -292 -293c0 -199 145 -294 313 -294c59 0 122 12 181 36v-49c-54 -26 -117 -40 -189 -40c-198 0 -373 113 -373 346c0 208 144 347 360 347c209 0 339 -130 339 -299
c0 -138 -79 -238 -177 -238c-39 0 -67 14 -80 45c-27 -32 -70 -48 -113 -48c-98 0 -149 78 -149 183c0 114 58 193 153 193c51 0 85 -23 105 -45h1l7 38h46v-285zM291 238c0 -85 41 -135 107 -135c27 0 63 10 86 36v203c-27 29 -60 39 -88 39c-64 0 -105 -60 -105 -143z" />
    <glyph glyph-name="copyright" unicode="&#xa9;" horiz-adv-x="787" 
d="M739 333c0 -189 -154 -346 -346 -346c-193 0 -344 161 -344 348c0 190 155 343 345 343c194 0 345 -158 345 -345zM702 332c0 168 -138 314 -309 314c-168 0 -307 -140 -307 -312c0 -169 134 -315 306 -315c170 0 310 144 310 313zM501 473c-27 10 -52 14 -76 14
c-92 0 -144 -60 -144 -154c0 -93 52 -153 147 -153c28 0 53 5 82 17v-59c-26 -9 -59 -16 -97 -16c-133 0 -207 85 -207 208c0 139 94 214 210 214c34 0 63 -6 85 -14v-57z" />
    <glyph glyph-name="copyright.sc" horiz-adv-x="668" 
d="M621 266c0 -152 -127 -277 -287 -277c-161 0 -287 129 -287 279c0 153 129 276 287 276c162 0 287 -127 287 -278zM588 266c0 133 -113 248 -255 248c-138 0 -252 -110 -252 -248c0 -133 110 -249 251 -249s256 114 256 249zM429 372c-23 6 -43 10 -65 10
c-68 0 -118 -38 -118 -117c0 -73 46 -113 120 -113c23 0 46 3 70 12v-55c-24 -8 -51 -13 -83 -13c-102 0 -176 59 -176 167c0 121 83 172 177 172c29 0 52 -4 75 -11v-52z" />
    <glyph glyph-name="trademark" unicode="&#x2122;" horiz-adv-x="799" 
d="M195 630v-279h-58v279h-106v47h270l-2 -47h-104zM508 350l-111 219h-3l-2 -89l-9 -129h-59l23 326h62l119 -243h1l117 243h64l23 -326h-62l-8 115l-1 103h-5l-109 -219h-40z" />
    <glyph glyph-name="trademark.sc" horiz-adv-x="688" 
d="M176 498v-220h-54v220h-87v44h228l-3 -44h-84zM435 278l-87 166h-2l-3 -77l-6 -89h-55l18 264h59l93 -187h1l93 187h60l19 -264h-58l-8 94v72h-3l-85 -166h-36z" />
    <glyph glyph-name="registered" unicode="&#xae;" horiz-adv-x="518" 
d="M261 689c118 0 212 -92 212 -211c0 -121 -96 -217 -218 -217c-120 0 -209 92 -209 211c0 123 95 217 215 217zM260 662c-101 0 -182 -85 -182 -189c0 -103 79 -183 178 -183c102 0 185 83 185 186c0 102 -82 186 -181 186zM272 596c52 0 76 -29 76 -68
c0 -32 -20 -56 -42 -67l51 -100h-51l-40 87h-33v-87h-45v235h84zM263 559h-30v-75h29c26 0 39 17 39 39c0 20 -9 36 -38 36z" />
    <glyph glyph-name="registered.sc" horiz-adv-x="668" 
d="M334 544c162 0 287 -127 287 -278c0 -152 -127 -277 -287 -277c-161 0 -287 129 -287 279c0 153 129 276 287 276zM333 514c-138 0 -252 -110 -252 -248c0 -133 110 -249 251 -249s256 114 256 249c0 133 -113 248 -255 248zM348 428c72 0 103 -37 103 -94
c0 -39 -20 -69 -53 -87l75 -145h-74l-62 127h-38v-127h-63v326h112zM341 374h-42v-92h38c33 0 51 18 51 48c0 22 -13 44 -47 44z" />
    <glyph glyph-name="registered.ss13" horiz-adv-x="787" 
d="M394 678c194 0 345 -158 345 -346s-154 -345 -346 -345c-193 0 -344 161 -344 348c0 190 155 343 345 343zM393 646c-168 0 -307 -140 -307 -313c0 -168 134 -314 306 -314c170 0 310 144 310 313c0 168 -138 314 -309 314zM412 535c85 0 121 -45 121 -113
c0 -59 -32 -94 -68 -112l92 -182h-77l-82 166h-49v-166h-69v407h132zM403 476h-54v-124h49c44 0 67 24 67 65c0 30 -17 59 -62 59z" />
    <glyph glyph-name="uni2117" unicode="&#x2117;" horiz-adv-x="787" 
d="M739 333c0 -189 -154 -346 -346 -346c-193 0 -344 161 -344 348c0 190 155 343 345 343c194 0 345 -158 345 -345zM702 332c0 168 -138 314 -309 314c-168 0 -307 -140 -307 -312c0 -169 134 -315 306 -315c170 0 310 144 310 313zM550 408c0 -86 -52 -131 -149 -131h-19
v-149h-68v407h90c83 0 146 -33 146 -127zM480 408c0 52 -26 68 -74 68h-24v-140h23c50 0 75 20 75 72z" />
    <glyph glyph-name="uni2117.sc" horiz-adv-x="668" 
d="M621 266c0 -152 -127 -277 -287 -277c-161 0 -287 129 -287 279c0 153 129 276 287 276c162 0 287 -127 287 -278zM588 266c0 133 -113 248 -255 248c-138 0 -252 -110 -252 -247c0 -134 110 -250 251 -250s256 114 256 249zM466 324c0 -71 -44 -109 -125 -109h-15v-113
h-64v326h84c67 0 120 -27 120 -104zM402 322c0 37 -19 52 -51 52h-24v-105h26c29 0 49 15 49 53z" />
    <glyph glyph-name="asterisk" unicode="*" horiz-adv-x="447" 
d="M271 490l88 -113l-55 -40l-81 118l-80 -117l-56 40l87 112l-137 42l22 64l134 -49l-4 145h68l-4 -145l135 49l21 -64z" />
    <glyph glyph-name="asterisk.sc" horiz-adv-x="368" 
d="M231 395l62 -79l-53 -39l-56 84l-56 -83l-53 39l63 78l-98 28l21 62l94 -36l-4 103h66l-4 -103l94 36l22 -62z" />
    <glyph glyph-name="bullet" unicode="&#x2022;" horiz-adv-x="389" 
d="M315 295c0 -66 -54 -121 -120 -121s-121 55 -121 121c0 65 55 119 121 119s120 -54 120 -119z" />
    <glyph glyph-name="bullet.sc" horiz-adv-x="353" 
d="M279 236c0 -55 -46 -101 -102 -101c-57 0 -104 46 -104 101c0 54 47 100 104 100c56 0 102 -46 102 -100z" />
    <glyph glyph-name="period" unicode="." horiz-adv-x="236" 
d="M119 119c35 0 62 -29 62 -65c0 -35 -27 -63 -62 -63s-65 28 -65 63c0 36 30 65 65 65z" />
    <glyph glyph-name="comma" unicode="," horiz-adv-x="241" 
d="M83 -163l-37 25c29 39 52 73 52 103c0 37 -42 41 -42 89c0 39 30 65 65 65c40 0 62 -30 62 -71c0 -63 -34 -143 -100 -211z" />
    <glyph glyph-name="colon" unicode=":" horiz-adv-x="282" 
d="M138 501c35 0 63 -29 63 -64s-28 -63 -63 -63s-64 28 -64 63s29 64 64 64zM138 119c35 0 63 -29 63 -65c0 -35 -28 -63 -63 -63s-64 28 -64 63c0 36 29 65 64 65z" />
    <glyph glyph-name="semicolon" unicode=";" horiz-adv-x="282" 
d="M138 501c35 0 63 -29 63 -64s-28 -63 -63 -63s-64 28 -64 63s29 64 64 64zM101 -163l-37 25c29 39 53 73 53 103c0 37 -42 41 -42 89c0 39 29 65 64 65c40 0 62 -30 62 -71c0 -63 -34 -143 -100 -211z" />
    <glyph glyph-name="ellipsis" unicode="&#x2026;" horiz-adv-x="726" 
d="M119 119c35 0 62 -29 62 -65c0 -35 -27 -63 -62 -63s-65 28 -65 63c0 36 30 65 65 65zM359 119c35 0 63 -29 63 -65c0 -35 -28 -63 -63 -63s-64 28 -64 63c0 36 29 65 64 65zM583 119c35 0 63 -29 63 -65c0 -35 -28 -63 -63 -63s-64 28 -64 63c0 36 29 65 64 65z" />
    <glyph glyph-name="periodcentered" unicode="&#xb7;" horiz-adv-x="262" 
d="M119 379c35 0 63 -29 63 -64s-28 -63 -63 -63s-64 28 -64 63s29 64 64 64z" />
    <glyph glyph-name="periodcentered.loclCAT" horiz-adv-x="247" 
d="M125 379c35 0 62 -29 62 -64s-27 -63 -62 -63s-65 28 -65 63s30 64 65 64z" />
    <glyph glyph-name="periodcentered.cap" horiz-adv-x="262" 
d="M119 414c35 0 63 -29 63 -64s-28 -63 -63 -63s-64 28 -64 63s29 64 64 64z" />
    <glyph glyph-name="periodcentered.loclCAT.cap" horiz-adv-x="234" 
d="M118 414c35 0 63 -29 63 -64s-28 -63 -63 -63s-64 28 -64 63s29 64 64 64z" />
    <glyph glyph-name="periodcentered.loclCAT.sc" horiz-adv-x="244" 
d="M123 376c35 0 62 -29 62 -64s-27 -63 -62 -63s-65 28 -65 63s30 64 65 64z" />
    <glyph glyph-name="exclam" unicode="!" horiz-adv-x="267" 
d="M185 677l-14 -484h-75l-14 484h103zM135 113c33 0 61 -26 61 -61s-28 -61 -61 -61c-34 0 -63 26 -63 61s29 61 63 61z" />
    <glyph glyph-name="exclamdown" unicode="&#xa1;" horiz-adv-x="343" 
d="M209 390c-34 0 -61 27 -61 61c0 36 27 61 61 61s62 -25 62 -61c0 -34 -28 -61 -62 -61zM159 -173l14 484h75l14 -484h-103z" />
    <glyph glyph-name="exclamdown.cap" horiz-adv-x="344" 
d="M209 565c-33 0 -61 26 -61 61c0 36 28 61 61 61c34 0 63 -25 63 -61c0 -35 -29 -61 -63 -61zM159 1l14 484h75l14 -484h-103z" />
    <glyph glyph-name="exclam.sc" horiz-adv-x="255" 
d="M176 550l-11 -387h-74l-12 387h97zM127 109c31 0 60 -25 60 -59s-29 -59 -60 -59c-33 0 -60 25 -60 59s27 59 60 59z" />
    <glyph glyph-name="exclamdown.sc" horiz-adv-x="324" 
d="M198 441c-32 0 -60 25 -60 59c0 35 28 59 60 59c33 0 60 -24 60 -59c0 -34 -27 -59 -60 -59zM148 0l12 388h74l12 -388h-98z" />
    <glyph glyph-name="question" unicode="?" horiz-adv-x="400" 
d="M368 526c0 -96 -65 -167 -158 -197l-5 -136h-75l-5 176c96 27 149 75 149 149c0 71 -46 98 -112 98c-44 0 -90 -11 -130 -26v69c49 19 105 30 154 30c115 0 182 -60 182 -163zM167 113c34 0 61 -26 61 -61s-27 -61 -61 -61s-62 26 -62 61s28 61 62 61z" />
    <glyph glyph-name="questiondown" unicode="&#xbf;" horiz-adv-x="461" 
d="M295 389c-34 0 -61 27 -61 61c0 36 27 61 61 61s62 -25 62 -61c0 -34 -28 -61 -62 -61zM94 -24c0 97 65 167 158 198l5 136h75l4 -177c-95 -26 -149 -74 -149 -149c0 -71 46 -97 113 -97c44 0 90 11 129 25v-69c-48 -19 -104 -30 -153 -30c-115 0 -182 60 -182 163z" />
    <glyph glyph-name="questiondown.cap" horiz-adv-x="463" 
d="M296 565c-34 0 -61 26 -61 61c0 36 27 61 61 61s62 -25 62 -61c0 -35 -28 -61 -62 -61zM95 152c0 96 65 167 158 197l4 136h75l5 -176c-95 -27 -149 -75 -149 -149c0 -71 46 -98 113 -98c43 0 90 11 129 26v-69c-48 -19 -104 -30 -153 -30c-115 0 -182 60 -182 163z" />
    <glyph glyph-name="question.sc" horiz-adv-x="357" 
d="M321 425c0 -80 -42 -137 -118 -156l-4 -106h-74l-4 138c72 12 112 54 112 112c0 53 -27 79 -95 79c-33 0 -71 -7 -105 -18v63c42 16 91 24 134 24c97 0 154 -54 154 -136zM161 109c32 0 60 -25 60 -59s-28 -59 -60 -59c-33 0 -60 25 -60 59s27 59 60 59z" />
    <glyph glyph-name="questiondown.sc" horiz-adv-x="387" 
d="M226 443c-31 0 -60 25 -60 59c0 35 29 59 60 59c33 0 60 -24 60 -59c0 -34 -27 -59 -60 -59zM66 127c0 80 43 137 118 156l4 106h74l5 -138c-73 -12 -113 -54 -113 -112c0 -53 27 -79 96 -79c32 0 70 7 104 18v-63c-41 -16 -91 -24 -134 -24c-97 0 -154 54 -154 136z" />
    <glyph glyph-name="numbersign" unicode="#" 
d="M133 266v129h-90v70h90v151h73v-151h139v151h72v-151h91v-70h-91v-129h91v-70h-91v-150h-72v150h-139v-150h-73v150h-90v70h90zM206 266h139v129h-139v-129z" />
    <glyph glyph-name="numbersign.sc" horiz-adv-x="516" 
d="M130 215v106h-76v69h76v110h71v-110h114v110h71v-110h76v-69h-76v-106h76v-68h-76v-111h-71v111h-114v-111h-71v111h-76v68h76zM201 215h114v106h-114v-106z" />
    <glyph glyph-name="percent" unicode="%" horiz-adv-x="727" 
d="M314 506c0 -102 -37 -181 -139 -181c-105 0 -141 79 -141 179s37 179 142 179c103 0 138 -77 138 -177zM217 0h-65l359 676h65zM238 503c0 73 -11 115 -63 115c-55 0 -66 -47 -66 -113c0 -73 12 -114 65 -114s64 43 64 112zM692 171c0 -102 -36 -181 -139 -181
c-104 0 -140 79 -140 179s38 179 140 179c104 0 139 -77 139 -177zM616 168c0 73 -13 115 -64 115s-64 -47 -64 -113c0 -73 14 -114 63 -114c53 0 65 43 65 112z" />
    <glyph glyph-name="perthousand" unicode="&#x2030;" horiz-adv-x="1052" 
d="M314 506c0 -102 -37 -181 -139 -181c-105 0 -141 79 -141 179s37 179 142 179c103 0 138 -77 138 -177zM217 0h-65l359 676h65zM238 503c0 73 -11 115 -63 115c-55 0 -66 -47 -66 -113c0 -73 12 -114 65 -114s64 43 64 112zM692 171c0 -102 -36 -181 -139 -181
c-104 0 -140 79 -140 179s38 179 140 179c104 0 139 -77 139 -177zM1020 171c0 -102 -35 -181 -139 -181s-140 79 -140 179s38 179 140 179c105 0 139 -77 139 -177zM616 168c0 73 -13 115 -64 115s-64 -47 -64 -113c0 -73 14 -114 63 -114c53 0 65 43 65 112zM944 168
c0 73 -12 115 -64 115c-51 0 -64 -47 -64 -113c0 -73 14 -114 63 -114c54 0 65 43 65 112z" />
    <glyph glyph-name="percent.sc" horiz-adv-x="635" 
d="M269 411c0 -84 -32 -146 -115 -146c-88 0 -119 62 -119 144s32 145 119 145c85 0 115 -61 115 -143zM204 0h-60l288 549h59zM203 408c0 59 -9 92 -51 92c-44 0 -53 -35 -53 -90c0 -58 11 -91 52 -91c43 0 52 34 52 89zM600 139c0 -84 -31 -146 -116 -146
c-87 0 -118 62 -118 144s32 145 118 145s116 -61 116 -143zM536 136c0 59 -11 93 -52 93c-42 0 -52 -36 -52 -91c0 -58 11 -90 51 -90c43 0 53 33 53 88z" />
    <glyph glyph-name="perthousand.sc" horiz-adv-x="906" 
d="M270 411c0 -84 -32 -146 -116 -146c-88 0 -119 62 -119 144s32 145 119 145c86 0 116 -61 116 -143zM204 0h-60l288 549h59zM204 408c0 59 -10 93 -51 93c-44 0 -53 -36 -53 -91c0 -58 10 -90 52 -90s52 33 52 88zM602 139c0 -84 -31 -146 -117 -146
c-87 0 -118 62 -118 144s31 145 118 145s117 -61 117 -143zM873 139c0 -84 -31 -146 -117 -146c-87 0 -118 62 -118 144s31 145 118 145s117 -61 117 -143zM537 136c0 59 -10 93 -52 93s-52 -36 -52 -91c0 -58 12 -91 51 -91c44 0 53 34 53 89zM808 136c0 59 -10 93 -52 93
s-52 -36 -52 -91c0 -58 11 -91 51 -91c43 0 53 34 53 89z" />
    <glyph glyph-name="slash" unicode="/" horiz-adv-x="486" 
d="M96 -145h-73l366 945h74z" />
    <glyph glyph-name="backslash" unicode="\" horiz-adv-x="487" 
d="M98 800l366 -945h-74l-367 945h75z" />
    <glyph glyph-name="slash.sc" horiz-adv-x="423" 
d="M93 -119h-70l302 769h71z" />
    <glyph glyph-name="backslash.sc" horiz-adv-x="422" 
d="M97 650l303 -769h-71l-302 769h70z" />
    <glyph glyph-name="underscore" unicode="_" 
d="M0 -239v66h551v-66h-551z" />
    <glyph glyph-name="braceleft" unicode="{" horiz-adv-x="343" 
d="M260 -175c-101 0 -150 31 -150 122v277c0 41 -18 66 -92 69v57c73 3 92 28 92 69v278c0 91 51 122 153 122h52v-61h-36c-63 0 -87 -18 -87 -74v-263c0 -70 -41 -94 -101 -98v-3c60 -2 101 -32 101 -95v-265c0 -55 26 -73 87 -73h36v-62h-55z" />
    <glyph glyph-name="braceright" unicode="}" horiz-adv-x="343" 
d="M232 -53c0 -91 -48 -122 -150 -122h-54v62h37c60 0 87 18 87 73v265c0 63 39 93 100 95v3c-60 4 -100 28 -100 98v263c0 56 -25 74 -87 74h-37v61h52c102 0 152 -31 152 -122v-278c0 -41 20 -66 92 -69v-57c-73 -3 -92 -28 -92 -69v-277z" />
    <glyph glyph-name="bracketleft" unicode="[" horiz-adv-x="320" 
d="M88 -175v994h204v-61h-124v-871h124v-62h-204z" />
    <glyph glyph-name="bracketright" unicode="]" horiz-adv-x="320" 
d="M232 -175h-204v62h123v871h-123v61h204v-994z" />
    <glyph glyph-name="parenleft" unicode="(" horiz-adv-x="298" 
d="M215 -174c-91 130 -167 303 -167 505c0 186 75 357 167 488h70c-97 -149 -155 -307 -155 -487c0 -194 58 -352 156 -506h-71z" />
    <glyph glyph-name="parenright" unicode=")" horiz-adv-x="298" 
d="M82 -174h-70c97 154 155 312 155 506c0 180 -58 338 -154 487h69c93 -131 168 -302 168 -488c0 -202 -76 -375 -168 -505z" />
    <glyph glyph-name="braceleft.cap" horiz-adv-x="345" 
d="M261 -135c-101 0 -150 31 -150 122v247c0 41 -18 66 -92 69v57c73 3 92 28 92 69v248c0 91 51 122 153 122h52v-61h-36c-63 0 -87 -18 -87 -74v-233c0 -70 -41 -94 -101 -98v-3c60 -2 101 -32 101 -95v-235c0 -55 26 -73 87 -73h36v-62h-55z" />
    <glyph glyph-name="braceright.cap" horiz-adv-x="345" 
d="M234 -13c0 -91 -49 -122 -151 -122h-54v62h37c60 0 87 18 87 73v235c0 63 39 93 100 95v3c-60 4 -100 28 -100 98v233c0 56 -25 74 -87 74h-37v61h52c102 0 153 -31 153 -122v-248c0 -41 19 -66 91 -69v-57c-73 -3 -91 -28 -91 -69v-247z" />
    <glyph glyph-name="bracketleft.cap" horiz-adv-x="322" 
d="M88 -135v934h204v-61h-124v-811h124v-62h-204z" />
    <glyph glyph-name="bracketright.cap" horiz-adv-x="322" 
d="M234 -135h-204v62h123v811h-123v61h204v-934z" />
    <glyph glyph-name="parenleft.cap" horiz-adv-x="299" 
d="M215 -134c-91 130 -167 273 -167 475c0 186 75 327 167 458h70c-96 -149 -155 -277 -155 -457c0 -194 58 -322 156 -476h-71z" />
    <glyph glyph-name="parenright.cap" horiz-adv-x="299" 
d="M84 -134h-70c97 154 155 282 155 476c0 180 -59 308 -154 457h69c93 -131 168 -272 168 -458c0 -202 -76 -345 -168 -475z" />
    <glyph glyph-name="braceleft.sc" horiz-adv-x="334" 
d="M113 192c0 35 -21 63 -77 63v48c56 0 77 28 77 62v171c0 75 38 119 135 119h46v-60h-31c-48 0 -70 -16 -70 -57v-169c0 -53 -19 -80 -70 -89v-2c49 -9 70 -33 70 -89v-170c0 -41 22 -56 70 -56h31v-59h-46c-97 0 -135 42 -135 118v170z" />
    <glyph glyph-name="braceright.sc" horiz-adv-x="334" 
d="M40 -96v59h31c49 0 71 15 71 56v170c0 56 20 80 70 89v2c-51 9 -70 36 -70 89v169c0 41 -22 57 -71 57h-31v60h46c97 0 135 -44 135 -119v-171c0 -34 22 -62 77 -62v-48c-55 0 -77 -28 -77 -63v-170c0 -76 -37 -118 -135 -118h-46z" />
    <glyph glyph-name="bracketleft.sc" horiz-adv-x="307" 
d="M86 -96v751h181v-60h-102v-632h102v-59h-181z" />
    <glyph glyph-name="bracketright.sc" horiz-adv-x="307" 
d="M221 -96h-181v59h102v632h-102v60h181v-751z" />
    <glyph glyph-name="parenleft.sc" horiz-adv-x="283" 
d="M191 -96c-59 65 -141 196 -141 376c0 168 80 308 140 375h69c-63 -83 -130 -214 -130 -374c0 -170 66 -291 131 -377h-69z" />
    <glyph glyph-name="parenright.sc" horiz-adv-x="283" 
d="M92 -96h-69c66 86 131 207 131 377c0 160 -67 291 -130 374h69c60 -67 141 -207 141 -375c0 -180 -83 -311 -142 -376z" />
    <glyph glyph-name="emdash" unicode="&#x2014;" horiz-adv-x="969" 
d="M67 235v75h835v-75h-835z" />
    <glyph glyph-name="endash" unicode="&#x2013;" horiz-adv-x="633" 
d="M67 235v75h500v-75h-500z" />
    <glyph glyph-name="figuredash" unicode="&#x2012;" horiz-adv-x="350" 
d="M0 323h350v-80h-350v80z" />
    <glyph glyph-name="hyphen" unicode="-" horiz-adv-x="360" 
d="M67 215v71h226v-71h-226z" />
    <glyph glyph-name="uni00AD" unicode="&#xad;" horiz-adv-x="360" 
d="M67 215v71h226v-71h-226z" />
    <glyph glyph-name="emdash.cap" horiz-adv-x="969" 
d="M67 315v75h835v-75h-835z" />
    <glyph glyph-name="endash.cap" horiz-adv-x="633" 
d="M67 315v75h500v-75h-500z" />
    <glyph glyph-name="hyphen.cap" horiz-adv-x="361" 
d="M68 295v71h226v-71h-226z" />
    <glyph glyph-name="emdash.sc" horiz-adv-x="967" 
d="M66 225v75h835v-75h-835z" />
    <glyph glyph-name="endash.sc" horiz-adv-x="632" 
d="M66 225v75h500v-75h-500z" />
    <glyph glyph-name="hyphen.sc" horiz-adv-x="362" 
d="M68 205v71h226v-71h-226z" />
    <glyph glyph-name="guillemotleft" unicode="&#xab;" horiz-adv-x="446" 
d="M160 61l-119 193l118 193h74l-105 -192l107 -194h-75zM321 61l-122 193l120 193h74l-108 -193l110 -193h-74z" />
    <glyph glyph-name="guillemotright" unicode="&#xbb;" horiz-adv-x="446" 
d="M125 61h-74l110 193l-107 193h73l121 -193zM287 61h-75l107 194l-105 192h74l118 -193z" />
    <glyph glyph-name="guilsinglleft" unicode="&#x2039;" horiz-adv-x="296" 
d="M168 61l-128 193l129 192h74l-116 -192l117 -193h-76z" />
    <glyph glyph-name="guilsinglright" unicode="&#x203a;" horiz-adv-x="296" 
d="M128 61h-76l117 193l-116 192h73l130 -192z" />
    <glyph glyph-name="guillemotleft.cap" horiz-adv-x="444" 
d="M160 141l-119 193l118 193h74l-105 -192l107 -194h-75zM321 141l-122 193l120 193h74l-108 -193l110 -193h-74z" />
    <glyph glyph-name="guillemotright.cap" horiz-adv-x="444" 
d="M123 141h-73l109 193l-107 193h74l120 -193zM285 141h-75l107 194l-105 192h74l118 -193z" />
    <glyph glyph-name="guilsinglleft.cap" horiz-adv-x="294" 
d="M168 141l-128 193l129 192h74l-116 -192l117 -193h-76z" />
    <glyph glyph-name="guilsinglright.cap" horiz-adv-x="294" 
d="M126 141h-76l117 193l-116 192h74l129 -192z" />
    <glyph glyph-name="guillemotleft.sc" horiz-adv-x="417" 
d="M146 48l-104 157l103 157h69l-90 -157l92 -157h-70zM286 48l-105 157l104 157h70l-91 -157l93 -157h-71z" />
    <glyph glyph-name="guillemotright.sc" horiz-adv-x="417" 
d="M131 48h-71l94 157l-92 157h70l104 -157zM272 48h-71l92 157l-90 157h70l103 -157z" />
    <glyph glyph-name="guilsinglleft.sc" horiz-adv-x="278" 
d="M146 48l-104 157l104 157h69l-91 -157l92 -157h-70z" />
    <glyph glyph-name="guilsinglright.sc" horiz-adv-x="278" 
d="M132 48h-71l93 157l-92 157h70l104 -157z" />
    <glyph glyph-name="quotedblleft" unicode="&#x201c;" horiz-adv-x="395" 
d="M184 739l34 -22c-27 -37 -48 -69 -48 -87c0 -34 38 -30 38 -80c0 -28 -20 -53 -57 -53c-44 0 -59 28 -59 65c0 41 31 114 92 177zM343 739l33 -22c-26 -37 -48 -69 -48 -87c0 -34 38 -30 38 -80c0 -28 -19 -53 -56 -53c-45 0 -60 28 -60 65c0 41 32 114 93 177z" />
    <glyph glyph-name="quotedblright" unicode="&#x201d;" horiz-adv-x="395" 
d="M52 497l-34 23c27 36 49 68 49 86c0 34 -38 31 -38 80c0 28 19 53 56 53c44 0 59 -27 59 -64c0 -42 -31 -115 -92 -178zM211 497l-34 23c26 36 48 68 48 86c0 34 -38 31 -38 80c0 28 20 53 57 53c44 0 59 -27 59 -64c0 -42 -32 -115 -92 -178z" />
    <glyph glyph-name="quoteleft" unicode="&#x2018;" horiz-adv-x="237" 
d="M159 739l33 -22c-26 -37 -48 -69 -48 -87c0 -34 38 -30 38 -80c0 -28 -20 -53 -56 -53c-45 0 -60 28 -60 65c0 41 32 114 93 177z" />
    <glyph glyph-name="quoteright" unicode="&#x2019;" horiz-adv-x="237" 
d="M79 497l-34 23c27 36 48 68 48 86c0 34 -38 31 -38 80c0 28 20 53 57 53c44 0 59 -27 59 -64c0 -42 -32 -115 -92 -178z" />
    <glyph glyph-name="quotedblleft.sc" horiz-adv-x="344" 
d="M119 625l34 -23c-27 -37 -49 -68 -49 -86c0 -34 38 -31 38 -81c0 -28 -19 -53 -56 -53c-45 0 -60 28 -60 65c0 41 32 114 93 178zM263 625l34 -23c-27 -37 -49 -68 -49 -86c0 -34 38 -31 38 -81c0 -28 -19 -53 -56 -53c-44 0 -60 28 -60 65c0 41 32 114 93 178z" />
    <glyph glyph-name="quotedblright.sc" horiz-adv-x="344" 
d="M81 382l-34 23c27 36 48 68 48 86c0 34 -38 31 -38 80c0 29 20 54 57 54c44 0 59 -28 59 -65c0 -41 -31 -115 -92 -178zM225 382l-34 23c27 36 49 68 49 86c0 34 -38 31 -38 80c0 29 19 54 56 54c44 0 59 -28 59 -65c0 -41 -31 -115 -92 -178z" />
    <glyph glyph-name="quoteleft.sc" horiz-adv-x="200" 
d="M119 625l34 -23c-27 -37 -49 -68 -49 -86c0 -34 38 -31 38 -81c0 -21 -18 -53 -56 -53c-45 0 -60 35 -60 65c0 41 32 114 93 178z" />
    <glyph glyph-name="quoteright.sc" horiz-adv-x="200" 
d="M81 382l-34 23c27 36 48 68 48 86c0 34 -38 31 -38 80c0 22 19 54 57 54c45 0 59 -35 59 -65c0 -41 -31 -115 -92 -178z" />
    <glyph glyph-name="quotesingle" unicode="'" horiz-adv-x="197" 
d="M127 464h-56l-9 199c-1 28 17 42 36 42c23 0 38 -14 37 -42z" />
    <glyph glyph-name="quotedbl" unicode="&#x22;" horiz-adv-x="382" 
d="M127 464h-56l-9 199c-1 28 17 42 36 42c23 0 38 -14 37 -42zM282 464h-55l-10 199c-1 28 18 42 37 42c22 0 37 -14 36 -42z" />
    <glyph glyph-name="quotesinglbase" unicode="&#x201a;" horiz-adv-x="225" 
d="M79 -124l-34 23c27 36 48 68 48 86c0 34 -38 31 -38 80c0 28 20 54 57 54c44 0 59 -28 59 -65c0 -42 -32 -115 -92 -178z" />
    <glyph glyph-name="quotedblbase" unicode="&#x201e;" horiz-adv-x="396" 
d="M53 -124l-34 23c27 36 48 68 48 86c0 34 -38 31 -38 80c0 28 20 54 57 54c44 0 59 -28 59 -65c0 -42 -31 -115 -92 -178zM211 -124l-33 23c26 36 48 68 48 86c0 34 -38 31 -38 80c0 28 20 54 57 54c44 0 59 -28 59 -65c0 -42 -32 -115 -93 -178z" />
    <glyph glyph-name="degree" unicode="&#xb0;" horiz-adv-x="354" 
d="M307 589c0 -76 -56 -132 -132 -132c-75 0 -128 55 -128 130c0 76 53 132 130 132c75 0 130 -54 130 -130zM251 587c0 53 -36 81 -75 81c-38 0 -74 -28 -74 -81s36 -80 74 -80s75 26 75 80z" />
    <glyph glyph-name="degree.sc" horiz-adv-x="318" 
d="M268 471c0 -62 -47 -107 -110 -107s-108 44 -108 105c0 62 45 107 109 107c62 0 109 -43 109 -105zM215 469c0 38 -25 60 -56 60s-56 -22 -56 -60c0 -37 26 -57 56 -57s56 20 56 57z" />
    <glyph glyph-name="acute" unicode="&#xb4;" horiz-adv-x="354" 
d="M202 750h102l-115 -176h-57z" />
    <glyph glyph-name="grave" unicode="`" horiz-adv-x="354" 
d="M245 574h-62l-118 176h100z" />
    <glyph glyph-name="hungarumlaut" unicode="&#x2dd;" horiz-adv-x="537" 
d="M192 750h77l-72 -176h-57zM334 750h81l-95 -176h-56z" />
    <glyph glyph-name="breve" unicode="&#x2d8;" horiz-adv-x="536" 
d="M263 628c59 0 91 36 92 119h62c0 -121 -67 -176 -156 -176c-94 0 -150 56 -150 176h63c1 -84 36 -119 89 -119z" />
    <glyph glyph-name="caron" unicode="&#x2c7;" horiz-adv-x="536" 
d="M312 574h-90l-101 176h59l88 -122l88 122h57z" />
    <glyph glyph-name="circumflex" unicode="&#x2c6;" horiz-adv-x="535" 
d="M224 750h87l103 -176h-58l-89 123l-88 -123h-58z" />
    <glyph glyph-name="dieresis" unicode="&#xa8;" horiz-adv-x="538" 
d="M165 711c33 0 59 -27 59 -60s-26 -59 -59 -59s-59 26 -59 59s26 60 59 60zM373 711c33 0 59 -27 59 -60s-26 -59 -59 -59s-59 26 -59 59s26 60 59 60z" />
    <glyph glyph-name="dotaccent" unicode="&#x2d9;" horiz-adv-x="354" 
d="M178 716c35 0 62 -28 62 -63s-27 -63 -62 -63s-64 28 -64 63s29 63 64 63z" />
    <glyph glyph-name="macron" unicode="&#xaf;" horiz-adv-x="537" 
d="M407 595h-279v64h279v-64z" />
    <glyph glyph-name="ring" unicode="&#x2da;" horiz-adv-x="290" 
d="M255 660c0 -61 -39 -97 -110 -97c-73 0 -111 36 -111 97c0 62 40 97 111 97c73 0 110 -36 110 -97zM199 660c0 35 -21 53 -54 53c-32 0 -53 -18 -53 -53s21 -53 53 -53c33 0 54 18 54 53z" />
    <glyph glyph-name="tilde" unicode="&#x2dc;" horiz-adv-x="536" 
d="M195 700c73 0 85 -50 136 -50c33 0 42 17 42 48h64c-1 -70 -39 -108 -102 -108c-78 0 -92 51 -136 51c-28 0 -41 -15 -41 -48h-64c1 70 37 107 101 107z" />
    <glyph glyph-name="cedilla" unicode="&#xb8;" horiz-adv-x="354" 
d="M201 5c53 -42 84 -86 84 -127c0 -65 -55 -85 -107 -85c-23 0 -45 3 -62 8v59c14 -5 29 -8 51 -8c21 0 35 9 35 35c0 24 -18 67 -64 118h63z" />
    <glyph glyph-name="ogonek" unicode="&#x2db;" horiz-adv-x="355" 
d="M270 -159c-29 -14 -60 -23 -94 -23c-59 0 -91 25 -91 72c0 53 42 84 92 112h53c-45 -30 -66 -53 -66 -81c0 -21 17 -32 45 -32c19 0 42 5 61 10v-58z" />
    <glyph glyph-name="acute.cap" horiz-adv-x="354" 
d="M199 897h112l-116 -158h-67z" />
    <glyph glyph-name="grave.cap" horiz-adv-x="354" 
d="M248 739h-63l-103 158h105z" />
    <glyph glyph-name="hungarumlaut.cap" horiz-adv-x="537" 
d="M205 897h80l-58 -158h-61zM355 897h87l-79 -158h-60z" />
    <glyph glyph-name="breve.cap" horiz-adv-x="537" 
d="M264 796c55 0 86 36 86 101h68c0 -107 -66 -160 -157 -160c-93 0 -149 55 -150 160h68c1 -66 34 -101 85 -101z" />
    <glyph glyph-name="caron.cap" horiz-adv-x="537" 
d="M298 739h-90l-100 158h65l80 -101l82 101h62z" />
    <glyph glyph-name="circumflex.cap" horiz-adv-x="537" 
d="M237 897h85l103 -158h-65l-81 99l-81 -99h-63z" />
    <glyph glyph-name="dieresis.cap" horiz-adv-x="537" 
d="M165 853c32 0 59 -27 59 -60s-27 -59 -59 -59c-33 0 -60 26 -60 59s27 60 60 60zM373 853c33 0 59 -27 59 -60s-26 -59 -59 -59s-59 26 -59 59s26 60 59 60z" />
    <glyph glyph-name="dotaccent.cap" horiz-adv-x="354" 
d="M178 872c35 0 62 -29 62 -63c0 -35 -27 -63 -62 -63s-64 28 -64 63c0 34 29 63 64 63z" />
    <glyph glyph-name="macron.cap" horiz-adv-x="537" 
d="M407 757h-279v64h279v-64z" />
    <glyph glyph-name="ring.cap" horiz-adv-x="354" 
d="M287 827c0 -61 -39 -97 -110 -97c-74 0 -111 36 -111 97c0 62 40 96 111 96c73 0 110 -35 110 -96zM231 827c0 35 -22 53 -54 53s-53 -18 -53 -53c0 -36 21 -54 53 -54s54 18 54 54z" />
    <glyph glyph-name="tilde.cap" horiz-adv-x="536" 
d="M195 842c73 0 85 -49 136 -49c33 0 42 16 42 47h64c-1 -70 -39 -108 -102 -108c-78 0 -92 52 -136 52c-28 0 -41 -15 -41 -49h-64c1 70 37 107 101 107z" />
    <glyph glyph-name="caron.alt" horiz-adv-x="354" 
d="M165 456l-31 22c25 33 44 62 44 91c0 30 -35 28 -35 73c0 20 17 50 52 50c42 0 55 -33 55 -60c0 -50 -29 -118 -85 -176z" />
    <glyph glyph-name="uni0326" unicode="&#x326;" horiz-adv-x="0" 
d="M-280 -206v37c76 5 90 26 90 57c0 40 24 59 56 59s52 -25 52 -54c0 -59 -78 -99 -198 -99z" />
    <glyph glyph-name="currency" unicode="&#xa4;" horiz-adv-x="627" 
d="M98 289c0 49 16 94 43 131l-91 91l47 48l93 -96c34 26 76 39 121 39c47 0 92 -15 125 -41l97 97l44 -47l-94 -95c27 -34 41 -79 41 -124c0 -49 -16 -89 -39 -122l98 -98l-46 -47l-98 96c-34 -28 -78 -44 -128 -44c-49 0 -91 16 -125 40l-94 -92l-46 46l92 93
c-25 34 -40 77 -40 125zM166 290c0 -81 63 -150 145 -150s145 68 145 149s-63 150 -145 150s-145 -67 -145 -149z" />
    <glyph glyph-name="dong" unicode="&#x20ab;" horiz-adv-x="500" 
d="M409 676v-58h42v-54h-42v-431h-74v45h-3c-37 -37 -79 -53 -125 -53c-98 0 -158 70 -158 187c0 123 64 198 169 198c42 0 76 -12 107 -40h2v94h-110v54h110v58h82zM236 450c-62 0 -103 -52 -103 -138c0 -82 39 -129 103 -129c33 0 67 14 91 38v193c-29 24 -59 36 -91 36z
M409 64v-64h-349v64h349z" />
    <glyph glyph-name="Euro" unicode="&#x20ac;" horiz-adv-x="578" 
d="M411 61c46 0 87 7 125 22v-72c-42 -16 -87 -24 -137 -24c-155 0 -257 91 -285 250h-75v62h69c-1 10 -1 20 -1 30c0 18 1 36 2 53h-70v62h79c32 154 131 245 278 245c45 0 88 -8 125 -24v-71c-35 15 -77 23 -117 23c-105 0 -174 -60 -200 -173h238v-62h-247
c-1 -16 -2 -32 -2 -49c0 -12 0 -23 1 -34h248v-62h-240c25 -119 100 -176 209 -176z" />
    <glyph glyph-name="cent" unicode="&#xa2;" horiz-adv-x="487" 
d="M318 196c38 1 82 8 130 28v-67c-41 -14 -84 -24 -130 -27v-125h-76v130c-131 22 -202 122 -202 259c0 138 74 231 202 252v126h76v-121c40 -2 78 -10 109 -18v-69c-31 10 -67 20 -109 22v-390zM129 392c0 -100 39 -164 113 -187v372c-72 -21 -113 -82 -113 -185z" />
    <glyph glyph-name="dollar" unicode="$" horiz-adv-x="503" 
d="M464 200c0 -103 -73 -155 -167 -170v-122h-79v117c-60 2 -122 15 -176 36v78c56 -23 120 -39 176 -42v219c-82 29 -166 66 -166 175c0 100 72 148 166 162v123h79v-119c46 -2 94 -10 138 -23v-76c-45 14 -94 25 -138 27v-209c82 -28 167 -63 167 -176zM145 493
c0 -46 31 -70 73 -89v173c-43 -11 -73 -38 -73 -84zM297 105c44 12 74 41 74 92c0 45 -31 70 -74 90v-182z" />
    <glyph glyph-name="yen" unicode="&#xa5;" horiz-adv-x="584" 
d="M334 123v-123h-87v123h-182v60h182v88h-182v60h172l-204 346h96l165 -285h2l163 285h90l-203 -346h174v-60h-186v-88h186v-60h-186z" />
    <glyph glyph-name="florin" unicode="&#x192;" horiz-adv-x="410" 
d="M264 164c0 -118 -57 -176 -159 -176c-29 0 -56 4 -82 12v65c25 -7 48 -10 65 -10c53 0 86 28 86 101v194h-88v60h88v102c0 114 54 177 163 177c33 0 58 -5 80 -12v-66c-25 7 -48 10 -65 10c-55 0 -88 -29 -88 -101v-110h123v-60h-123v-186z" />
    <glyph glyph-name="uni0E3F" unicode="&#xe3f;" horiz-adv-x="593" 
d="M548 209c0 -112 -81 -172 -221 -178v-123h-79v122h-159v617h159v129h79v-131c123 -12 178 -64 178 -151c0 -64 -43 -121 -122 -135v-1c95 -8 165 -66 165 -149zM180 577v-191h68v191h-68zM414 482c0 48 -27 79 -87 91v-184c55 11 87 45 87 93zM180 101h68v216h-68v-216z
M327 102c81 5 129 44 129 107c0 66 -54 101 -129 107v-214z" />
    <glyph glyph-name="franc" unicode="&#x20a3;" horiz-adv-x="635" 
d="M425 300c63 71 116 100 180 100v-85c-61 0 -122 -25 -174 -72v-243h-88v313h-162v-313h-91v677h376v-78h-285v-209h242v-90h2z" />
    <glyph glyph-name="colonmonetary" unicode="&#x20a1;" horiz-adv-x="677" 
d="M650 800l-206 -739c45 3 86 12 133 29v-74c-47 -15 -94 -26 -153 -28l-37 -133h-61l37 133c-35 2 -67 7 -95 15l-41 -148h-62l47 170c-110 57 -160 171 -160 309c0 243 152 356 344 355l31 111h62l-32 -116c35 -3 65 -11 93 -20l38 136h62zM377 616
c-143 -10 -236 -112 -236 -277c0 -98 30 -181 95 -229zM438 616l-149 -537c27 -10 59 -17 94 -19l148 536c-29 9 -60 17 -93 20z" />
    <glyph glyph-name="uni20A2" unicode="&#x20a2;" horiz-adv-x="646" 
d="M380 689c73 0 132 -11 180 -29v-75c-49 20 -103 33 -162 33c-156 0 -258 -106 -258 -279c0 -141 61 -250 200 -274v331h75v-89h2c63 70 116 99 180 99v-79c-61 0 -122 -25 -174 -73v-194c54 2 98 10 152 30v-74c-55 -18 -110 -29 -184 -29c-238 0 -340 149 -340 347
c0 240 148 355 329 355z" />
    <glyph glyph-name="uni20B2" unicode="&#x20b2;" horiz-adv-x="606" 
d="M303 354h247v-289c-43 -19 -98 -31 -167 -36v-120h-79v120c-156 12 -269 103 -269 310c0 185 100 296 269 318v120h80v-117c62 -2 104 -14 143 -32v-73c-39 18 -89 35 -152 35c-181 0 -256 -104 -256 -246c0 -161 84 -247 229 -247c54 0 92 6 121 14v168h-166v75z" />
    <glyph glyph-name="uni20AD" unicode="&#x20ad;" horiz-adv-x="658" 
d="M252 325h-39v-325h-91v325h-79v60h79v292h91v-292h42l252 292h101l-253 -292h201v-60h-191l264 -325h-111z" />
    <glyph glyph-name="lira" unicode="&#x20a4;" horiz-adv-x="604" 
d="M575 258c0 -134 -58 -258 -228 -258h-220v215l-73 -32v70l73 32v72l-73 -32v70l73 32v250h92v-217l177 75v-69l-177 -76v-72l177 75v-69l-177 -76v-169h137c80 0 132 49 132 179h87z" />
    <glyph glyph-name="uni20A5" unicode="&#x20a5;" horiz-adv-x="846" 
d="M626 512c110 0 166 -64 166 -183v-329h-88v306c0 86 -36 135 -112 135c-44 0 -89 -19 -124 -54c3 -11 4 -22 4 -34v-353h-85l-31 -145h-73l100 475c-6 75 -45 111 -111 111c-45 0 -87 -19 -121 -52v-389h-88v503h80v-63h2c50 46 107 72 161 72c46 0 82 -13 109 -33
l46 221h73l-52 -245c46 37 95 57 144 57z" />
    <glyph glyph-name="uni20A6" unicode="&#x20a6;" horiz-adv-x="747" 
d="M697 390h-60v-76h60v-50h-60v-264h-78l-180 264h-183v-264h-87v264h-59v50h59v76h-59v50h59v237h90l162 -237h189v237h87v-237h60v-50zM197 532h-1v-92h64zM196 314h149l-51 76h-98v-76zM550 390h-155l52 -76h103v76zM549 165h1v99h-69z" />
    <glyph glyph-name="peseta" unicode="&#x20a7;" horiz-adv-x="644" 
d="M616 443h-74c-13 -118 -108 -183 -249 -183h-89v-260h-91v443h-67v59h67v175h180c138 0 237 -45 250 -175h73v-59zM204 502h249c-14 73 -76 98 -158 98h-91v-98zM298 336c87 0 143 38 155 107h-249v-107h94z" />
    <glyph glyph-name="uni20B1" unicode="&#x20b1;" horiz-adv-x="632" 
d="M109 677h179c119 0 211 -35 240 -130h71v-50h-60c0 -16 0 -45 -2 -63h62v-51h-75c-34 -83 -118 -129 -236 -129h-88v-254h-91v383h-60v51h60v63h-60v50h60v130zM200 547h222c-26 38 -76 53 -137 53h-85v-53zM200 497v-63h240c5 20 5 43 1 63h-241zM288 330
c60 0 105 18 130 53h-218v-53h88z" />
    <glyph glyph-name="uni20BD" unicode="&#x20bd;" horiz-adv-x="592" 
d="M310 267h-88v-73h203v-59h-203v-135h-92v135h-89v59h89v73h-89v71h89v339h180c148 0 250 -51 250 -200c0 -136 -96 -210 -250 -210zM222 599v-261h88c96 0 156 47 156 133c0 96 -68 128 -159 128h-85z" />
    <glyph glyph-name="uni20A8" unicode="&#x20a8;" horiz-adv-x="530" 
d="M484 677v-73h-108c20 -21 35 -47 40 -79h68v-73h-69c-15 -96 -97 -155 -251 -155h-1l298 -297h-106l-288 290v73h125c66 0 119 32 135 89h-261v73h259c-18 56 -77 77 -152 77h-107v75h418z" />
    <glyph glyph-name="uni20AA" unicode="&#x20aa;" horiz-adv-x="736" 
d="M89 677h204c142 0 199 -41 199 -193v-206h-89v224c0 69 -32 95 -88 95h-134v-597h-92v677zM247 399h90v-319h151c47 0 71 25 71 68v529h93v-518c0 -106 -48 -159 -163 -159h-242v399z" />
    <glyph glyph-name="sterling" unicode="&#xa3;" horiz-adv-x="537" 
d="M500 72v-72h-457v60c99 55 136 109 136 174c0 25 -6 48 -13 71h-115v60h92c-16 40 -30 82 -30 133c0 115 73 191 215 191c55 0 108 -12 140 -24v-70c-39 15 -94 23 -130 23c-96 0 -140 -49 -140 -133c0 -45 13 -84 28 -120h192v-60h-170c8 -22 13 -46 13 -71
c0 -60 -36 -114 -117 -162h356z" />
    <glyph glyph-name="uni20AE" unicode="&#x20ae;" horiz-adv-x="578" 
d="M337 598v-167l169 39v-62l-169 -40v-92l169 39v-62l-169 -39v-214h-91v198l-169 -39v62l169 39v93l-169 -39v62l169 39v183h-206v79h504v-79h-207z" />
    <glyph glyph-name="uni20B8" unicode="&#x20b8;" horiz-adv-x="531" 
d="M506 677v-72h-482v72h482zM312 480v-480h-92v480h-196v72h482v-72h-194z" />
    <glyph glyph-name="uni20A9" unicode="&#x20a9;" horiz-adv-x="962" 
d="M917 392h-90l-18 -76h108v-50h-120l-63 -266h-105l-75 266h-145l-75 -266h-107l-63 266h-119v50h107l-18 76h-89v50h78l-56 235h92l53 -235h165l64 235h91l63 -235h165l53 235h82l-56 -235h78v-50zM482 524h-1l-23 -82h47zM223 392l17 -76h103l20 76h-140zM423 316h117
l-21 76h-75zM732 316l17 76h-140l20 -76h103zM286 112h1l42 154h-78zM686 112l35 154h-78l41 -154h2z" />
    <glyph glyph-name="cent.tf" 
d="M350 196c38 1 83 8 130 28v-67c-40 -14 -84 -24 -130 -27v-125h-76v130c-130 22 -201 122 -201 259c0 138 74 231 201 252v126h76v-121c41 -2 78 -10 109 -18v-69c-31 10 -67 20 -109 22v-390zM161 392c0 -100 40 -163 113 -186v371c-72 -21 -113 -82 -113 -185z" />
    <glyph glyph-name="dollar.tf" 
d="M491 200c0 -102 -73 -154 -167 -170v-122h-79v117c-59 2 -121 15 -176 36v78c56 -23 120 -39 176 -42v219c-82 29 -166 66 -166 175c0 100 72 148 166 162v123h79v-119c46 -2 94 -10 138 -23v-76c-45 14 -94 25 -138 27v-209c82 -28 167 -63 167 -176zM172 493
c0 -46 31 -70 73 -89v173c-43 -11 -73 -38 -73 -84zM324 105c44 12 74 41 74 92c0 45 -31 70 -74 90v-182z" />
    <glyph glyph-name="Euro.tf" 
d="M402 61c46 0 87 7 125 22v-72c-42 -16 -87 -24 -137 -24c-155 0 -257 91 -285 250h-63v62h57c-1 10 -1 20 -1 30c0 18 1 36 2 53h-58v62h67c32 154 131 245 278 245c45 0 88 -8 125 -24v-71c-35 15 -77 23 -117 23c-105 0 -173 -60 -199 -173h238v-62h-247
c-1 -16 -2 -32 -2 -49c0 -12 0 -23 1 -34h248v-62h-240c25 -119 99 -176 208 -176z" />
    <glyph glyph-name="sterling.tf" 
d="M510 72v-72h-457v60c99 55 136 109 136 174c0 25 -6 48 -13 71h-115v60h92c-16 40 -30 82 -30 133c0 115 73 191 215 191c55 0 108 -12 140 -24v-70c-39 15 -94 23 -130 23c-96 0 -140 -49 -140 -133c0 -45 13 -84 28 -120h192v-60h-170c8 -22 13 -46 13 -71
c0 -60 -36 -114 -117 -162h356z" />
    <glyph glyph-name="yen.tf" 
d="M317 123l1 -123h-88v123h-158v60h158v88h-158v60h149l-182 346h97l141 -285h2l141 285h90l-182 -346h151v-60h-162l1 -88h161v-60h-162z" />
    <glyph glyph-name="florin.tf" 
d="M325 350v-186c0 -120 -67 -176 -177 -176c-32 0 -62 4 -90 12v65c28 -7 53 -10 76 -10c59 0 100 27 100 102v193h-126v60h126v102c0 116 67 177 183 177c29 0 59 -4 87 -12v-66c-27 7 -52 10 -75 10c-61 0 -104 -26 -104 -103v-108h155v-60h-155z" />
    <glyph glyph-name="cent.sc" horiz-adv-x="504" 
d="M317 169c32 1 68 7 106 22v-63c-32 -12 -68 -20 -106 -22v-103h-73v108c-108 20 -168 101 -168 210c0 114 62 189 168 207v102h73v-97c33 -2 64 -8 91 -15v-64c-27 8 -57 15 -91 16v-301zM159 320c0 -75 30 -122 85 -141v282c-54 -18 -85 -63 -85 -141z" />
    <glyph glyph-name="dollar.sc" horiz-adv-x="504" 
d="M432 169c0 -85 -58 -130 -134 -145v-113h-78v107c-51 2 -103 12 -146 30v74c50 -19 101 -32 146 -34v167c-69 25 -141 55 -141 138c0 84 62 124 141 136v117h78v-115c37 -2 74 -9 109 -19v-72c-37 11 -74 19 -109 22v-154c66 -23 134 -54 134 -139zM170 396
c0 -29 20 -46 50 -60v121c-30 -9 -50 -28 -50 -61zM298 97c27 11 45 33 45 67c0 28 -18 46 -45 60v-127z" />
    <glyph glyph-name="Euro.sc" horiz-adv-x="504" 
d="M347 56c37 0 70 8 106 20v-68c-34 -11 -69 -19 -116 -19c-135 0 -210 76 -233 197h-63v56h57c-1 9 -1 19 -1 29c0 12 0 24 1 35h-57v56h65c26 131 113 199 232 199c39 0 74 -8 101 -19v-69c-30 13 -64 18 -96 18c-75 0 -133 -38 -154 -129h186v-56h-194
c-1 -10 -1 -20 -1 -31s0 -22 1 -33h194v-56h-186c20 -84 73 -130 158 -130z" />
    <glyph glyph-name="sterling.sc" horiz-adv-x="504" 
d="M459 68v-68h-388v57c81 45 111 86 111 136c0 18 -4 35 -10 52h-95l1 56h73c-12 31 -23 63 -23 102c0 94 64 158 186 158c45 0 89 -9 118 -20v-66c-32 13 -79 17 -109 17c-78 0 -114 -36 -114 -102c0 -33 10 -62 21 -89h162v-56h-140c5 -16 9 -34 9 -52
c0 -47 -29 -88 -93 -125h291z" />
    <glyph glyph-name="yen.sc" horiz-adv-x="504" 
d="M292 97v-97h-83v97h-129v55h129v67h-129v57h121l-151 274h92l112 -215h3l110 215h87l-153 -274h120v-57h-129v-67h129v-55h-129z" />
    <glyph glyph-name="florin.sc" horiz-adv-x="504" 
d="M132 274v58h75v105c0 82 54 124 137 124c24 0 45 -3 68 -10v-62c-16 4 -31 6 -48 6c-40 0 -69 -18 -69 -63v-100h104v-58h-104v-162c0 -80 -49 -124 -133 -124c-24 0 -46 4 -71 10v62c17 -5 31 -7 46 -7c44 0 70 20 70 64v157h-75z" />
    <glyph glyph-name="plus" unicode="+" 
d="M314 296v-197h-76v197h-185v72h185v196h76v-196h185v-72h-185z" />
    <glyph glyph-name="minus" unicode="&#x2212;" 
d="M53 294v76h447v-76h-447z" />
    <glyph glyph-name="plusminus" unicode="&#xb1;" 
d="M314 334v-187h-76v187h-185v70h185v188h76v-188h185v-70h-185zM56 0v71h440v-71h-440z" />
    <glyph glyph-name="multiply" unicode="&#xd7;" 
d="M144 493l132 -132l131 131l50 -50l-130 -131l131 -131l-51 -53l-132 132l-132 -131l-50 52l131 129l-132 132z" />
    <glyph glyph-name="divide" unicode="&#xf7;" 
d="M274 575c31 0 55 -26 55 -56c0 -31 -24 -56 -55 -56c-32 0 -56 25 -56 56c0 30 24 56 56 56zM492 370v-76h-434v76h434zM274 201c31 0 55 -26 55 -56c0 -31 -24 -56 -55 -56c-32 0 -56 25 -56 56c0 30 24 56 56 56z" />
    <glyph glyph-name="equal" unicode="=" 
d="M53 389v71h447v-71h-447zM53 207v70h447v-70h-447z" />
    <glyph glyph-name="notequal" unicode="&#x2260;" 
d="M500 389h-164l-45 -112h209v-70h-238l-53 -132h-75l53 132h-134v70h163l45 112h-208v71h236l53 130h75l-53 -130h136v-71z" />
    <glyph glyph-name="approxequal" unicode="&#x2248;" 
d="M372 369c-79 0 -127 57 -198 57c-41 0 -70 -19 -92 -42l-34 48c26 32 71 73 133 73c74 0 124 -57 196 -57c43 0 74 23 96 44l34 -51c-32 -40 -75 -72 -135 -72zM372 186c-79 0 -127 58 -198 58c-41 0 -70 -21 -92 -44l-34 48c26 34 71 73 133 73c74 0 124 -57 197 -57
c42 0 73 22 95 45l34 -50c-30 -39 -73 -73 -135 -73z" />
    <glyph glyph-name="asciitilde" unicode="~" 
d="M169 400c80 0 135 -67 220 -67c40 0 81 15 117 57v-74c-39 -33 -77 -51 -122 -51c-86 0 -143 66 -222 66c-37 0 -78 -14 -114 -55v73c40 34 79 51 121 51z" />
    <glyph glyph-name="greater" unicode="&#x3e;" 
d="M79 464l407 -164v-56l-407 -161v82l307 108l-307 109v82z" />
    <glyph glyph-name="less" unicode="&#x3c;" 
d="M472 464v-82l-307 -109l307 -108v-82l-406 161v56z" />
    <glyph glyph-name="greaterequal" unicode="&#x2265;" 
d="M76 474l406 -164v-56l-406 -161v82l306 108l-306 109v82zM75 0v72h406v-72h-406z" />
    <glyph glyph-name="lessequal" unicode="&#x2264;" 
d="M476 474v-82l-307 -109l307 -108v-82l-407 161v56zM477 0h-407v72h407v-72z" />
    <glyph glyph-name="logicalnot" unicode="&#xac;" 
d="M492 207h-75v182h-371v71h446v-253z" />
    <glyph glyph-name="plus.sc" horiz-adv-x="504" 
d="M287 237v-157h-71v157h-153v67h153v156h71v-156h153v-67h-153z" />
    <glyph glyph-name="minus.sc" horiz-adv-x="504" 
d="M63 233v73h377v-73h-377z" />
    <glyph glyph-name="plusminus.sc" horiz-adv-x="504" 
d="M287 273v-147h-72v147h-152v67h152v147h72v-147h153v-67h-153zM66 0v67h371v-67h-371z" />
    <glyph glyph-name="multiply.sc" horiz-adv-x="504" 
d="M142 406l110 -105l109 104l48 -49l-108 -103l109 -103l-49 -51l-111 106l-110 -105l-46 49l107 103l-107 104z" />
    <glyph glyph-name="divide.sc" horiz-adv-x="504" 
d="M252 476c29 0 51 -23 51 -51c0 -27 -22 -50 -51 -50c-28 0 -50 23 -50 50c0 28 22 51 50 51zM435 306v-73h-366v73h366zM252 166c29 0 51 -23 51 -51c0 -27 -22 -50 -51 -50c-28 0 -50 23 -50 50c0 28 22 51 50 51z" />
    <glyph glyph-name="equal.sc" horiz-adv-x="504" 
d="M63 315v67h377v-67h-377zM63 159v68h377v-68h-377z" />
    <glyph glyph-name="notequal.sc" horiz-adv-x="504" 
d="M440 315h-136l-35 -88h171v-68h-199l-43 -107h-69l43 107h-109v68h136l36 88h-172v67h198l43 106h70l-43 -106h109v-67z" />
    <glyph glyph-name="approxequal.sc" horiz-adv-x="504" 
d="M333 300c-67 0 -109 45 -169 45c-33 0 -58 -14 -76 -33l-33 46c23 27 63 61 115 61c61 0 107 -45 168 -45c34 0 59 16 78 33l32 -47c-27 -35 -66 -60 -115 -60zM333 146c-67 0 -109 46 -169 46c-33 0 -58 -15 -76 -34l-33 46c23 27 63 61 115 61c61 0 107 -45 168 -45
c34 0 59 16 78 33l32 -47c-25 -33 -64 -60 -115 -60z" />
    <glyph glyph-name="asciitilde.sc" horiz-adv-x="504" 
d="M162 328c69 0 113 -51 185 -51c36 0 69 12 99 46v-69c-32 -26 -63 -42 -104 -42c-72 0 -118 51 -186 51c-33 0 -67 -12 -98 -45v69c33 27 68 41 104 41z" />
    <glyph glyph-name="greater.sc" horiz-adv-x="504" 
d="M85 384l348 -139v-52l-348 -135v77l253 85l-253 86v78z" />
    <glyph glyph-name="less.sc" horiz-adv-x="504" 
d="M418 384v-78l-252 -86l252 -85v-77l-348 135v52z" />
    <glyph glyph-name="greaterequal.sc" horiz-adv-x="504" 
d="M81 450l348 -138v-52l-348 -136v77l253 86l-253 85v78zM81 0v67h348v-67h-348z" />
    <glyph glyph-name="lessequal.sc" horiz-adv-x="504" 
d="M422 450v-78l-252 -85l252 -86v-77l-348 136v52zM422 0h-348v67h348v-67z" />
    <glyph glyph-name="logicalnot.sc" horiz-adv-x="504" 
d="M438 158h-71v157h-306v67h377v-224z" />
    <glyph glyph-name="asciicircum" unicode="^" 
d="M319 656l198 -338h-88l-154 257l-153 -257h-89l198 338h88z" />
    <glyph glyph-name="lozenge" unicode="&#x25ca;" 
d="M322 677l169 -339l-167 -338h-97l-166 338l166 339h95zM278 90l117 242l-122 256l-118 -244z" />
    <glyph glyph-name="integral" unicode="&#x222b;" horiz-adv-x="315" 
d="M96 642c-6 108 42 158 133 158c19 0 42 -3 67 -8v-66c-20 3 -33 5 -45 5c-57 0 -70 -32 -67 -88l35 -646c5 -99 -38 -158 -131 -158c-22 0 -48 3 -69 8v66c27 -2 34 -3 45 -3c51 0 70 25 67 88z" />
    <glyph glyph-name="infinity" unicode="&#x221e;" horiz-adv-x="878" 
d="M235 462c83 0 142 -47 206 -109c61 63 122 109 208 109c101 0 179 -61 179 -166c0 -109 -86 -175 -185 -175c-83 0 -144 50 -206 110c-57 -59 -123 -110 -211 -110c-101 0 -175 63 -175 166c0 109 82 175 184 175zM232 195c60 0 106 42 155 96c-52 57 -95 98 -154 98
c-54 0 -94 -36 -94 -97c0 -56 32 -97 93 -97zM642 388c-61 0 -104 -41 -152 -95c52 -56 100 -98 155 -98s94 39 94 98c0 60 -40 95 -97 95z" />
    <glyph glyph-name="section" unicode="&#xa7;" horiz-adv-x="543" 
d="M220 -159c-56 0 -114 17 -137 26v62c43 -19 93 -31 137 -31c60 0 88 37 88 83c0 122 -272 204 -272 424c0 171 107 284 289 284c61 0 98 -11 125 -21v-66c-39 16 -76 26 -123 26c-63 0 -92 -40 -92 -85c0 -116 272 -194 272 -413c0 -164 -100 -289 -287 -289zM325 -96
c56 30 117 97 117 215c0 183 -265 272 -268 409c-1 27 10 60 30 85c-68 -47 -99 -121 -99 -196c0 -193 261 -268 261 -417c0 -26 -9 -67 -41 -96z" />
    <glyph glyph-name="partialdiff" unicode="&#x2202;" horiz-adv-x="548" 
d="M249 738c178 0 246 -116 246 -321c0 -163 -23 -429 -261 -429c-124 0 -202 72 -202 195c0 162 103 248 224 248c50 0 103 -14 152 -45c1 22 1 43 1 62c0 119 -29 220 -167 220c-37 0 -78 -7 -116 -18l5 72c28 9 72 16 118 16zM240 59c119 0 154 130 165 257
c-46 30 -91 46 -133 46c-84 0 -151 -62 -151 -178c0 -77 42 -125 119 -125z" />
    <glyph glyph-name="product" unicode="&#x220f;" horiz-adv-x="697" 
d="M517 -100v698h-337v-698h-91v777h519v-777h-91z" />
    <glyph glyph-name="radical" unicode="&#x221a;" horiz-adv-x="673" 
d="M308 0l-145 432h-144v71h214l129 -414h1l209 673h92l-248 -762h-108z" />
    <glyph glyph-name="summation" unicode="&#x2211;" horiz-adv-x="538" 
d="M506 -9v-91h-472v90l231 312l-213 286v89h429v-90h-323l196 -271v-31l-217 -294h369z" />
    <glyph glyph-name="bar" unicode="|" horiz-adv-x="260" 
d="M88 -154v956h84v-956h-84z" />
    <glyph glyph-name="brokenbar" unicode="&#xa6;" horiz-adv-x="260" 
d="M88 484v318h84v-318h-84zM88 -154v318h84v-318h-84z" />
    <glyph glyph-name="dagger" unicode="&#x2020;" horiz-adv-x="490" 
d="M275 464l14 -200l-18 -264h-51l-18 264l14 200h-163v54h163l-12 159h83l-12 -159h162v-54h-162z" />
    <glyph glyph-name="daggerdbl" unicode="&#x2021;" horiz-adv-x="490" 
d="M216 213l-14 125l14 126h-163v54h163l-12 159h83l-12 -159h162v-54h-162l14 -126l-14 -125h162v-54h-162l12 -159h-83l12 159h-163v54h163z" />
    <glyph glyph-name="uni0394" unicode="&#x394;" horiz-adv-x="607" 
d="M577 73v-73h-547v73l222 604h103zM119 79h363l-181 498h-1z" />
    <glyph glyph-name="uni2206" unicode="&#x2206;" horiz-adv-x="607" 
d="M577 73v-73h-547v73l222 604h103zM119 79h363l-181 498h-1z" />
    <glyph glyph-name="uni03A9" unicode="&#x3a9;" horiz-adv-x="712" 
d="M357 689c210 0 297 -130 297 -319c0 -126 -62 -235 -162 -291h154v-79h-241v80c106 55 154 159 154 278c0 151 -53 254 -203 254c-151 0 -205 -107 -205 -254c0 -121 49 -223 154 -278v-80h-241v79h150c-99 53 -157 157 -157 287c0 188 90 323 300 323z" />
    <glyph glyph-name="uni2126" unicode="&#x2126;" horiz-adv-x="712" 
d="M357 689c210 0 297 -130 297 -319c0 -126 -62 -235 -162 -291h154v-79h-241v80c106 55 154 159 154 278c0 151 -53 254 -203 254c-151 0 -205 -107 -205 -254c0 -121 49 -223 154 -278v-80h-241v79h150c-99 53 -157 157 -157 287c0 188 90 323 300 323z" />
    <glyph glyph-name="uni03BC" unicode="&#x3bc;" horiz-adv-x="605" 
d="M81 503h88v-318c0 -80 50 -127 112 -127c67 0 112 27 137 47v398h87v-416c0 -25 11 -36 36 -36c7 0 16 2 24 3v-54c-21 -8 -42 -11 -58 -11c-41 0 -73 15 -83 65c-36 -33 -87 -64 -159 -64c-48 0 -86 26 -97 67v-223h-87v669z" />
    <glyph glyph-name="uni00B5" unicode="&#xb5;" horiz-adv-x="605" 
d="M81 503h88v-318c0 -80 50 -127 112 -127c67 0 112 27 137 47v398h87v-416c0 -25 11 -36 36 -36c7 0 16 2 24 3v-54c-21 -8 -42 -11 -58 -11c-41 0 -73 15 -83 65c-36 -33 -87 -64 -159 -64c-48 0 -86 26 -97 67v-223h-87v669z" />
    <glyph glyph-name="pi" unicode="&#x3c0;" horiz-adv-x="647" 
d="M618 503v-64h-122v-334c0 -40 21 -49 45 -49c14 0 26 2 40 6v-61c-24 -8 -52 -12 -72 -12c-66 0 -100 28 -100 93v357h-197v-439h-88v439h-105v53l147 11h452z" />
    <glyph glyph-name="uni00A0" unicode="&#xa0;" horiz-adv-x="231" 
 />
    </font>
</defs>
</svg>
