<?xml version="1.0" standalone="no"?>
<!DOCTYPE svg PUBLIC "-//W3C//DTD SVG 1.1//EN" "http://www.w3.org/Graphics/SVG/1.1/DTD/svg11.dtd" >
<svg xmlns="http://www.w3.org/2000/svg" xmlns:xlink="http://www.w3.org/1999/xlink" version="1.1">
<metadata>
Created by FontForge 20170924 at Sat Jan 25 09:50:18 2020
 By www-data
Copyright \(c\) 2005 _ 2014 by Ermin Mededovic. All rights reserved.
</metadata>
<defs>
<font id="IngraSCVO-SemiBold" horiz-adv-x="559" >
  <font-face 
    font-family="Ingra SCVO Semi Bold"
    font-weight="600"
    font-stretch="normal"
    units-per-em="1000"
    panose-1="0 0 7 0 0 0 0 0 0 0"
    ascent="761"
    descent="-239"
    x-height="509"
    cap-height="677"
    bbox="-300 -251 1107 952"
    underline-thickness="94"
    underline-position="-186"
    stemh="107"
    stemv="138"
    unicode-range="U+000D-FB02"
  />
<missing-glyph horiz-adv-x="996" 
d="M748 677v-677h-500v677h500zM498 415l114 184h-228zM344 511v-345l108 173zM652 166v345l-108 -172zM384 78h228l-114 184z" />
    <glyph glyph-name="f_f" unicode="ff" horiz-adv-x="706" 
d="M653 634c-56 0 -78 -31 -78 -84v-41h118v-99h-118v-410h-138v410h-198v-410h-138v410h-80v99h80v61c0 112 67 172 190 172c34 0 65 -4 93 -11v-106c-31 7 -48 9 -67 9c-56 0 -78 -31 -78 -84v-41h198v61c0 112 66 172 190 172c34 0 65 -4 93 -11v-106c-31 7 -48 9 -67 9z
" />
    <glyph glyph-name="f_i" unicode="fi" horiz-adv-x="628" 
d="M437 0v410h-198v-410h-138v410h-80v99h80v51c0 127 97 180 248 180c75 0 137 -13 183 -25v-105c-52 14 -122 24 -177 24c-75 0 -116 -22 -116 -75v-50h336v-509h-138z" />
    <glyph glyph-name="f_l" unicode="fl" horiz-adv-x="663" 
d="M607 92c8 0 16 1 27 5v-94c-34 -11 -59 -15 -86 -15c-69 0 -111 39 -111 117v523c-29 4 -66 6 -94 6c-60 0 -104 -19 -104 -79v-46h118v-99h-118v-410h-138v410h-80v99h80v64c0 116 98 169 241 169c75 0 185 -14 233 -27v-594c0 -24 15 -29 32 -29z" />
    <glyph glyph-name=".notdef" horiz-adv-x="996" 
d="M748 677v-677h-500v677h500zM498 415l114 184h-228zM344 511v-345l108 173zM652 166v345l-108 -172zM384 78h228l-114 184z" />
    <glyph glyph-name="null" horiz-adv-x="0" 
 />
    <glyph glyph-name="CR" unicode="&#xd;" horiz-adv-x="0" 
 />
    <glyph glyph-name="space" unicode=" " horiz-adv-x="270" 
 />
    <glyph glyph-name="A" unicode="A" horiz-adv-x="643" 
d="M405 677l231 -677h-150l-46 144h-244l-46 -144h-143l231 677h167zM318 538h-3l-88 -272h181z" />
    <glyph glyph-name="B" unicode="B" horiz-adv-x="618" 
d="M584 204c0 -151 -108 -204 -268 -204h-241v677h217c173 0 250 -57 250 -169c0 -60 -36 -125 -112 -142v-2c84 -7 154 -70 154 -160zM397 486c0 49 -35 70 -100 70h-80v-144h89c60 0 91 29 91 74zM438 208c0 60 -46 86 -108 86h-113v-172h112c69 0 109 32 109 86z" />
    <glyph glyph-name="C" unicode="C" horiz-adv-x="619" 
d="M575 544c-47 16 -97 28 -154 28c-147 0 -232 -89 -232 -232c0 -140 77 -234 241 -234c51 0 98 7 158 26v-123c-48 -13 -108 -24 -187 -24c-245 0 -362 146 -362 351c0 251 173 356 358 356c68 0 127 -9 178 -24v-124z" />
    <glyph glyph-name="D" unicode="D" horiz-adv-x="689" 
d="M648 347c0 -233 -117 -347 -355 -347h-218v677h226c225 0 347 -116 347 -330zM502 344c0 143 -69 211 -215 211h-70v-432h68c155 0 217 63 217 221z" />
    <glyph glyph-name="E" unicode="E" horiz-adv-x="551" 
d="M75 0v677h427v-124h-284v-143h247v-124h-247v-162h288v-124h-431z" />
    <glyph glyph-name="F" unicode="F" horiz-adv-x="515" 
d="M217 553v-163h240v-124h-240v-266h-142v677h409v-124h-267z" />
    <glyph glyph-name="G" unicode="G" horiz-adv-x="669" 
d="M590 529c-47 25 -106 44 -170 44c-148 0 -233 -80 -233 -235c0 -147 73 -234 199 -234c41 0 68 4 93 8v253h142v-332c-70 -32 -156 -48 -251 -48c-185 0 -330 103 -330 346c0 238 146 361 362 361c79 0 139 -15 188 -38v-125z" />
    <glyph glyph-name="H" unicode="H" horiz-adv-x="707" 
d="M489 0v284h-271v-284h-143v677h143v-270h271v270h143v-677h-143z" />
    <glyph glyph-name="I" unicode="I" horiz-adv-x="292" 
d="M75 677h142v-677h-142v677z" />
    <glyph glyph-name="J" unicode="J" horiz-adv-x="382" 
d="M313 202c0 -143 -63 -217 -204 -217c-34 0 -71 4 -95 12v124c24 -10 46 -13 74 -13c57 0 82 23 82 88v481h143v-475z" />
    <glyph glyph-name="K" unicode="K" horiz-adv-x="650" 
d="M298 288l-80 -88v-200h-143v677h143v-305l256 305h162l-243 -284l264 -393h-166z" />
    <glyph glyph-name="L" unicode="L" horiz-adv-x="516" 
d="M75 0v677h143v-553h288v-124h-431z" />
    <glyph glyph-name="M" unicode="M" horiz-adv-x="810" 
d="M735 677v-677h-138v220l9 225h-3l-157 -264h-83l-157 260h-3l10 -217v-224h-138v677h147l186 -320l185 320h142z" />
    <glyph glyph-name="N" unicode="N" horiz-adv-x="715" 
d="M500 0l-283 440h-1v-440h-141v677h155l268 -415h1v415h142v-677h-141z" />
    <glyph glyph-name="O" unicode="O" horiz-adv-x="747" 
d="M372 -15c-227 0 -332 141 -332 348c0 199 101 359 336 359c225 0 331 -150 331 -352c0 -198 -104 -355 -335 -355zM374 105c134 0 184 108 184 234c0 128 -50 233 -184 233c-135 0 -186 -111 -186 -233c0 -130 52 -234 186 -234z" />
    <glyph glyph-name="P" unicode="P" horiz-adv-x="577" 
d="M554 460c0 -149 -101 -236 -273 -236h-64v-224h-142v677h207c156 0 272 -55 272 -217zM405 454c0 76 -57 100 -128 100h-60v-210h63c79 0 125 39 125 110z" />
    <glyph glyph-name="Q" unicode="Q" horiz-adv-x="747" 
d="M723 -154h-171l-116 143c-20 -3 -41 -4 -64 -4c-227 0 -332 141 -332 348c0 199 101 359 336 359c225 0 331 -150 331 -352c0 -133 -47 -247 -147 -308zM188 339c0 -130 52 -234 186 -234s184 108 184 234c0 128 -50 233 -184 233c-135 0 -186 -111 -186 -233z" />
    <glyph glyph-name="R" unicode="R" horiz-adv-x="625" 
d="M618 0h-162l-146 256h-93v-256h-142v677h234c176 0 258 -65 258 -196c0 -75 -50 -142 -124 -178zM309 375c72 0 114 32 114 94c0 65 -45 86 -115 86h-91v-180h92z" />
    <glyph glyph-name="S" unicode="S" horiz-adv-x="521" 
d="M454 663v-127c-51 20 -114 37 -165 37c-55 0 -97 -20 -97 -71c0 -134 293 -69 293 -306c0 -152 -119 -211 -249 -211c-65 0 -132 15 -189 40v131c57 -30 132 -51 190 -51c59 0 103 21 103 79c0 137 -292 73 -292 308c0 148 115 200 240 200c57 0 115 -11 166 -29z" />
    <glyph glyph-name="T" unicode="T" horiz-adv-x="557" 
d="M351 553v-553h-144v553h-195v124h534v-124h-195z" />
    <glyph glyph-name="U" unicode="U" horiz-adv-x="692" 
d="M625 256c0 -177 -107 -271 -283 -271c-171 0 -274 85 -274 272v420h141v-433c0 -96 54 -139 138 -139c88 0 136 43 136 137v435h142v-421z" />
    <glyph glyph-name="V" unicode="V" horiz-adv-x="627" 
d="M232 0l-223 677h152l157 -498h4l157 498h138l-222 -677h-163z" />
    <glyph glyph-name="W" unicode="W" horiz-adv-x="923" 
d="M173 0l-155 677h153l101 -496h3l124 496h145l122 -496h2l101 496h137l-158 -677h-173l-112 426h-2l-111 -426h-177z" />
    <glyph glyph-name="X" unicode="X" horiz-adv-x="617" 
d="M599 677l-201 -324l219 -353h-167l-146 237h-3l-143 -237h-157l218 354l-199 323h167l127 -203h2l126 203h157z" />
    <glyph glyph-name="Y" unicode="Y" horiz-adv-x="609" 
d="M233 263l-228 414h162l143 -283h3l141 283h150l-228 -414v-263h-143v263z" />
    <glyph glyph-name="Z" unicode="Z" horiz-adv-x="568" 
d="M36 0v122l324 432h-312v123h473v-125l-324 -428h335v-124h-496z" />
    <glyph glyph-name="Aacute" unicode="&#xc1;" horiz-adv-x="643" 
d="M347 902h148l-128 -163h-105zM405 677l231 -677h-150l-46 144h-244l-46 -144h-143l231 677h167zM318 538h-3l-88 -272h181z" />
    <glyph glyph-name="Abreve" unicode="&#x102;" horiz-adv-x="643" 
d="M321 824c42 0 64 23 65 78h99c-1 -119 -80 -163 -169 -163c-94 0 -157 46 -158 163h99c1 -57 25 -78 64 -78zM405 677l231 -677h-150l-46 144h-244l-46 -144h-143l231 677h167zM318 538h-3l-88 -272h181z" />
    <glyph glyph-name="uni01CD" unicode="&#x1cd;" horiz-adv-x="643" 
d="M392 739h-141l-105 163h99l77 -86l79 86h95zM405 677l231 -677h-150l-46 144h-244l-46 -144h-143l231 677h167zM318 538h-3l-88 -272h181z" />
    <glyph glyph-name="Acircumflex" unicode="&#xc2;" horiz-adv-x="643" 
d="M254 902h135l104 -163h-99l-74 85l-74 -85h-96zM405 677l231 -677h-150l-46 144h-244l-46 -144h-143l231 677h167zM318 538h-3l-88 -272h181z" />
    <glyph glyph-name="Adieresis" unicode="&#xc4;" horiz-adv-x="643" 
d="M205 880c46 0 81 -33 81 -80c0 -45 -35 -77 -81 -77c-45 0 -81 32 -81 77c0 47 36 80 81 80zM437 880c46 0 81 -33 81 -80c0 -45 -35 -77 -81 -77c-45 0 -81 32 -81 77c0 47 36 80 81 80zM405 677l231 -677h-150l-46 144h-244l-46 -144h-143l231 677h167zM318 538h-3
l-88 -272h181z" />
    <glyph glyph-name="Agrave" unicode="&#xc0;" horiz-adv-x="643" 
d="M375 739h-95l-123 163h142zM405 677l231 -677h-150l-46 144h-244l-46 -144h-143l231 677h167zM318 538h-3l-88 -272h181z" />
    <glyph glyph-name="Amacron" unicode="&#x100;" horiz-adv-x="643" 
d="M476 750h-309v85h309v-85zM405 677l231 -677h-150l-46 144h-244l-46 -144h-143l231 677h167zM318 538h-3l-88 -272h181z" />
    <glyph glyph-name="Aogonek" unicode="&#x104;" horiz-adv-x="643" 
d="M614 -88c15 0 32 3 50 7v-87c-29 -20 -65 -31 -101 -31c-66 0 -120 38 -120 107c0 35 13 70 43 92l-46 144h-244l-46 -144h-143l231 677h167l231 -677c-49 -13 -66 -37 -66 -56c0 -22 16 -32 44 -32zM227 266h181l-90 272h-3z" />
    <glyph glyph-name="Aring" unicode="&#xc5;" horiz-adv-x="643" 
d="M437 831c0 -67 -47 -102 -118 -102c-76 0 -120 35 -120 102c0 69 47 102 120 102c75 0 118 -34 118 -102zM365 831c0 30 -17 48 -46 48s-46 -18 -46 -48c0 -31 17 -49 46 -49s46 18 46 49zM405 677l231 -677h-150l-46 144h-244l-46 -144h-143l231 677h167zM318 538h-3
l-88 -272h181z" />
    <glyph glyph-name="Atilde" unicode="&#xc3;" horiz-adv-x="643" 
d="M253 867c79 0 90 -49 134 -49c29 0 38 18 38 46h92c-2 -88 -52 -134 -125 -134c-82 0 -95 51 -135 51c-25 0 -37 -16 -37 -48h-93c2 86 47 134 126 134zM405 677l231 -677h-150l-46 144h-244l-46 -144h-143l231 677h167zM318 538h-3l-88 -272h181z" />
    <glyph glyph-name="AE" unicode="&#xc6;" horiz-adv-x="938" 
d="M605 123h289v-123h-432v144h-238l-88 -144h-148l414 677h487v-123h-284v-146h248v-121h-248v-164zM298 266h164v263h-4z" />
    <glyph glyph-name="AEacute" unicode="&#x1fc;" horiz-adv-x="938" 
d="M812 902l-128 -163h-105l85 163h148zM605 123h289v-123h-432v144h-238l-88 -144h-148l414 677h487v-123h-284v-146h248v-121h-248v-164zM298 266h164v263h-4z" />
    <glyph glyph-name="uni01E2" unicode="&#x1e2;" horiz-adv-x="938" 
d="M793 835v-85h-309v85h309zM605 123h289v-123h-432v144h-238l-88 -144h-148l414 677h487v-123h-284v-146h248v-121h-248v-164zM298 266h164v263h-4z" />
    <glyph glyph-name="Cacute" unicode="&#x106;" horiz-adv-x="619" 
d="M409 902h148l-128 -163h-105zM575 544c-47 16 -97 28 -154 28c-147 0 -232 -89 -232 -232c0 -140 77 -234 241 -234c51 0 98 7 158 26v-123c-48 -13 -108 -24 -187 -24c-245 0 -362 146 -362 351c0 251 173 356 358 356c68 0 127 -9 178 -24v-124z" />
    <glyph glyph-name="Ccaron" unicode="&#x10c;" horiz-adv-x="619" 
d="M454 739h-141l-105 163h99l77 -86l79 86h95zM575 544c-47 16 -97 28 -154 28c-147 0 -232 -89 -232 -232c0 -140 77 -234 241 -234c51 0 98 7 158 26v-123c-48 -13 -108 -24 -187 -24c-245 0 -362 146 -362 351c0 251 173 356 358 356c68 0 127 -9 178 -24v-124z" />
    <glyph glyph-name="Ccedilla" unicode="&#xc7;" horiz-adv-x="619" 
d="M588 132v-123c-43 -12 -97 -22 -165 -24c39 -37 62 -73 62 -110c0 -68 -58 -89 -116 -89c-26 0 -51 4 -70 10v74c18 -6 35 -9 54 -9c17 0 28 7 28 29s-11 53 -45 99c-201 24 -297 161 -297 347c0 251 173 356 358 356c68 0 127 -9 178 -24v-124c-47 16 -97 28 -154 28
c-147 0 -232 -89 -232 -232c0 -140 77 -234 241 -234c51 0 98 7 158 26z" />
    <glyph glyph-name="Ccircumflex" unicode="&#x108;" horiz-adv-x="619" 
d="M316 902h135l104 -163h-99l-74 85l-74 -85h-96zM575 544c-47 16 -97 28 -154 28c-147 0 -232 -89 -232 -232c0 -140 77 -234 241 -234c51 0 98 7 158 26v-123c-48 -13 -108 -24 -187 -24c-245 0 -362 146 -362 351c0 251 173 356 358 356c68 0 127 -9 178 -24v-124z" />
    <glyph glyph-name="Cdotaccent" unicode="&#x10a;" horiz-adv-x="619" 
d="M385 895c47 0 82 -34 82 -82c0 -46 -35 -80 -82 -80s-84 34 -84 80c0 48 37 82 84 82zM575 544c-47 16 -97 28 -154 28c-147 0 -232 -89 -232 -232c0 -140 77 -234 241 -234c51 0 98 7 158 26v-123c-48 -13 -108 -24 -187 -24c-245 0 -362 146 -362 351
c0 251 173 356 358 356c68 0 127 -9 178 -24v-124z" />
    <glyph glyph-name="Eth" unicode="&#xd0;" horiz-adv-x="710" 
d="M96 399v278h227c234 0 346 -124 346 -330c0 -230 -113 -347 -356 -347h-217v280h-79v119h79zM524 344c0 148 -73 211 -214 211h-72v-156h150v-119h-150v-157h69c136 0 217 43 217 221z" />
    <glyph glyph-name="Dcaron" unicode="&#x10e;" horiz-adv-x="689" 
d="M394 739h-141l-105 163h99l77 -86l79 86h95zM648 347c0 -233 -117 -347 -355 -347h-218v677h226c225 0 347 -116 347 -330zM502 344c0 143 -69 211 -215 211h-70v-432h68c155 0 217 63 217 221z" />
    <glyph glyph-name="Dcroat" unicode="&#x110;" horiz-adv-x="710" 
d="M96 399v278h227c234 0 346 -124 346 -330c0 -230 -113 -347 -356 -347h-217v280h-79v119h79zM524 344c0 148 -73 211 -214 211h-72v-156h150v-119h-150v-157h69c136 0 217 43 217 221z" />
    <glyph glyph-name="Eacute" unicode="&#xc9;" horiz-adv-x="551" 
d="M319 902h148l-128 -163h-105zM75 0v677h427v-124h-284v-143h247v-124h-247v-162h288v-124h-431z" />
    <glyph glyph-name="Ebreve" unicode="&#x114;" horiz-adv-x="551" 
d="M293 824c42 0 64 23 65 78h99c-1 -119 -80 -163 -169 -163c-94 0 -157 46 -158 163h99c1 -57 25 -78 64 -78zM75 0v677h427v-124h-284v-143h247v-124h-247v-162h288v-124h-431z" />
    <glyph glyph-name="Ecaron" unicode="&#x11a;" horiz-adv-x="551" 
d="M364 739h-141l-105 163h99l77 -86l79 86h95zM75 0v677h427v-124h-284v-143h247v-124h-247v-162h288v-124h-431z" />
    <glyph glyph-name="Ecircumflex" unicode="&#xca;" horiz-adv-x="551" 
d="M226 902h135l104 -163h-99l-74 85l-74 -85h-96zM75 0v677h427v-124h-284v-143h247v-124h-247v-162h288v-124h-431z" />
    <glyph glyph-name="Edieresis" unicode="&#xcb;" horiz-adv-x="551" 
d="M177 880c46 0 81 -33 81 -80c0 -45 -35 -77 -81 -77c-45 0 -81 32 -81 77c0 47 36 80 81 80zM409 880c46 0 81 -33 81 -80c0 -45 -35 -77 -81 -77c-45 0 -81 32 -81 77c0 47 36 80 81 80zM75 0v677h427v-124h-284v-143h247v-124h-247v-162h288v-124h-431z" />
    <glyph glyph-name="Edotaccent" unicode="&#x116;" horiz-adv-x="551" 
d="M295 895c47 0 82 -34 82 -82c0 -46 -35 -80 -82 -80s-84 34 -84 80c0 48 37 82 84 82zM75 0v677h427v-124h-284v-143h247v-124h-247v-162h288v-124h-431z" />
    <glyph glyph-name="Egrave" unicode="&#xc8;" horiz-adv-x="551" 
d="M347 739h-95l-123 163h142zM75 0v677h427v-124h-284v-143h247v-124h-247v-162h288v-124h-431z" />
    <glyph glyph-name="Emacron" unicode="&#x112;" horiz-adv-x="551" 
d="M448 750h-309v85h309v-85zM75 0v677h427v-124h-284v-143h247v-124h-247v-162h288v-124h-431z" />
    <glyph glyph-name="Eogonek" unicode="&#x118;" horiz-adv-x="551" 
d="M506 0c-72 -13 -100 -37 -100 -59c0 -15 13 -23 34 -23s48 7 66 12v-93c-33 -23 -75 -36 -118 -36c-67 0 -105 31 -105 85c0 55 38 95 105 114h-313v677h427v-124h-284v-143h247v-124h-247v-162h288v-124z" />
    <glyph glyph-name="uni1EBC" unicode="&#x1ebc;" horiz-adv-x="551" 
d="M225 867c79 0 90 -49 134 -49c29 0 38 18 38 46h92c-2 -88 -52 -134 -125 -134c-82 0 -95 51 -135 51c-25 0 -37 -16 -37 -48h-93c2 86 47 134 126 134zM75 0v677h427v-124h-284v-143h247v-124h-247v-162h288v-124h-431z" />
    <glyph glyph-name="Gbreve" unicode="&#x11e;" horiz-adv-x="669" 
d="M383 824c42 0 64 23 65 78h99c-1 -119 -80 -163 -169 -163c-94 0 -157 46 -158 163h99c1 -57 25 -78 64 -78zM590 529c-47 25 -106 44 -170 44c-148 0 -233 -80 -233 -235c0 -147 73 -234 199 -234c41 0 68 4 93 8v253h142v-332c-70 -32 -156 -48 -251 -48
c-185 0 -330 103 -330 346c0 238 146 361 362 361c79 0 139 -15 188 -38v-125z" />
    <glyph glyph-name="Gcircumflex" unicode="&#x11c;" horiz-adv-x="669" 
d="M316 902h135l104 -163h-99l-74 85l-74 -85h-96zM590 529c-47 25 -106 44 -170 44c-148 0 -233 -80 -233 -235c0 -147 73 -234 199 -234c41 0 68 4 93 8v253h142v-332c-70 -32 -156 -48 -251 -48c-185 0 -330 103 -330 346c0 238 146 361 362 361c79 0 139 -15 188 -38
v-125z" />
    <glyph glyph-name="uni0122" unicode="&#x122;" horiz-adv-x="669" 
d="M590 529c-47 25 -106 44 -170 44c-148 0 -233 -80 -233 -235c0 -147 73 -234 199 -234c41 0 68 4 93 8v253h142v-332c-70 -32 -156 -48 -251 -48c-185 0 -330 103 -330 346c0 238 146 361 362 361c79 0 139 -15 188 -38v-125zM212 -251v58c77 7 94 21 94 70
c0 47 33 72 72 72c45 0 72 -31 72 -70c0 -72 -100 -130 -238 -130z" />
    <glyph glyph-name="Gdotaccent" unicode="&#x120;" horiz-adv-x="669" 
d="M385 895c47 0 82 -34 82 -82c0 -46 -35 -80 -82 -80s-84 34 -84 80c0 48 37 82 84 82zM590 529c-47 25 -106 44 -170 44c-148 0 -233 -80 -233 -235c0 -147 73 -234 199 -234c41 0 68 4 93 8v253h142v-332c-70 -32 -156 -48 -251 -48c-185 0 -330 103 -330 346
c0 238 146 361 362 361c79 0 139 -15 188 -38v-125z" />
    <glyph glyph-name="Hbar" unicode="&#x126;" horiz-adv-x="730" 
d="M706 484h-62v-484h-144v272h-270v-272h-144v484h-61v111h61v82h144v-82h270v82h144v-82h62v-111zM500 484h-270v-90h270v90z" />
    <glyph glyph-name="Hcircumflex" unicode="&#x124;" horiz-adv-x="707" 
d="M286 902h135l104 -163h-99l-74 85l-74 -85h-96zM489 0v284h-271v-284h-143v677h143v-270h271v270h143v-677h-143z" />
    <glyph glyph-name="Iacute" unicode="&#xcd;" horiz-adv-x="292" 
d="M172 902h148l-128 -163h-105zM75 677h142v-677h-142v677z" />
    <glyph glyph-name="Ibreve" unicode="&#x12c;" horiz-adv-x="292" 
d="M146 824c42 0 64 23 65 78h99c-1 -119 -80 -163 -169 -163c-94 0 -157 46 -158 163h99c1 -57 25 -78 64 -78zM75 677h142v-677h-142v677z" />
    <glyph glyph-name="uni01CF" unicode="&#x1cf;" horiz-adv-x="292" 
d="M217 739h-141l-105 163h99l77 -86l79 86h95zM75 677h142v-677h-142v677z" />
    <glyph glyph-name="Icircumflex" unicode="&#xce;" horiz-adv-x="292" 
d="M79 902h135l104 -163h-99l-74 85l-74 -85h-96zM75 677h142v-677h-142v677z" />
    <glyph glyph-name="Idieresis" unicode="&#xcf;" horiz-adv-x="292" 
d="M30 880c46 0 81 -33 81 -80c0 -45 -35 -77 -81 -77c-45 0 -81 32 -81 77c0 47 36 80 81 80zM262 880c46 0 81 -33 81 -80c0 -45 -35 -77 -81 -77c-45 0 -81 32 -81 77c0 47 36 80 81 80zM75 677h142v-677h-142v677z" />
    <glyph glyph-name="Idotaccent" unicode="&#x130;" horiz-adv-x="292" 
d="M148 895c47 0 82 -34 82 -82c0 -46 -35 -80 -82 -80s-84 34 -84 80c0 48 37 82 84 82zM75 677h142v-677h-142v677z" />
    <glyph glyph-name="Igrave" unicode="&#xcc;" horiz-adv-x="292" 
d="M199 739h-95l-123 163h142zM75 677h142v-677h-142v677z" />
    <glyph glyph-name="Imacron" unicode="&#x12a;" horiz-adv-x="292" 
d="M301 750h-309v85h309v-85zM75 677h142v-677h-142v677z" />
    <glyph glyph-name="Iogonek" unicode="&#x12e;" horiz-adv-x="292" 
d="M176 -80c21 0 48 6 66 10v-87c-33 -21 -75 -34 -118 -34c-64 0 -106 29 -106 91c0 40 26 77 59 100v677h143v-677c-50 -14 -78 -39 -78 -58c0 -15 13 -22 34 -22z" />
    <glyph glyph-name="Itilde" unicode="&#x128;" horiz-adv-x="292" 
d="M78 867c79 0 90 -49 134 -49c29 0 38 18 38 46h92c-2 -88 -52 -134 -125 -134c-82 0 -95 51 -135 51c-25 0 -37 -16 -37 -48h-93c2 86 47 134 126 134zM75 677h142v-677h-142v677z" />
    <glyph glyph-name="Jcircumflex" unicode="&#x134;" horiz-adv-x="382" 
d="M171 902h135l104 -163h-99l-74 85l-74 -85h-96zM313 202c0 -143 -63 -217 -204 -217c-34 0 -71 4 -95 12v124c24 -10 46 -13 74 -13c57 0 82 23 82 88v481h143v-475z" />
    <glyph glyph-name="IJ" unicode="&#x132;" horiz-adv-x="675" 
d="M75 677h142v-677h-142v677zM605 202c0 -143 -63 -217 -204 -217c-34 0 -71 4 -95 12v124c24 -10 46 -13 74 -13c57 0 82 23 82 88v481h143v-475z" />
    <glyph glyph-name="Iacute_J.loclNLD" horiz-adv-x="672" 
d="M166 902h148l-128 -163h-105zM552 902h147l-128 -163h-105zM75 677h142v-677h-142v677zM605 202c0 -143 -63 -217 -204 -217c-34 0 -71 4 -95 12v124c24 -10 46 -13 74 -13c57 0 82 23 82 88v481h143v-475z" />
    <glyph glyph-name="uni0136" unicode="&#x136;" horiz-adv-x="650" 
d="M298 288l-80 -88v-200h-143v677h143v-305l256 305h162l-243 -284l264 -393h-166zM188 -251v58c77 7 94 21 94 70c0 47 33 72 72 72c45 0 72 -31 72 -70c0 -72 -100 -130 -238 -130z" />
    <glyph glyph-name="Lacute" unicode="&#x139;" horiz-adv-x="516" 
d="M173 902h148l-128 -163h-105zM75 0v677h143v-553h288v-124h-431z" />
    <glyph glyph-name="Lcaron" unicode="&#x13d;" horiz-adv-x="516" 
d="M389 408l-53 35c27 35 44 61 44 87c0 37 -47 34 -47 93c0 34 27 70 73 70c53 0 75 -39 75 -83c0 -60 -34 -137 -92 -202zM75 0v677h143v-553h288v-124h-431z" />
    <glyph glyph-name="uni013B" unicode="&#x13b;" horiz-adv-x="516" 
d="M75 0v677h143v-553h288v-124h-431zM154 -251v58c77 7 94 21 94 70c0 47 33 72 72 72c45 0 72 -31 72 -70c0 -72 -100 -130 -238 -130z" />
    <glyph glyph-name="Ldot" unicode="&#x13f;" horiz-adv-x="534" 
d="M75 0v677h143v-553h288v-124h-431zM369 432c50 0 87 -36 87 -86s-37 -84 -87 -84s-89 34 -89 84s39 86 89 86z" />
    <glyph glyph-name="Lslash" unicode="&#x141;" horiz-adv-x="538" 
d="M240 124h287v-124h-431v229l-72 -40v126l72 40v322h144v-259l109 59v-126l-109 -59v-168z" />
    <glyph glyph-name="Nacute" unicode="&#x143;" horiz-adv-x="715" 
d="M384 902h148l-128 -163h-105zM500 0l-283 440h-1v-440h-141v677h155l268 -415h1v415h142v-677h-141z" />
    <glyph glyph-name="Ncaron" unicode="&#x147;" horiz-adv-x="715" 
d="M429 739h-141l-105 163h99l77 -86l79 86h95zM500 0l-283 440h-1v-440h-141v677h155l268 -415h1v415h142v-677h-141z" />
    <glyph glyph-name="uni0145" unicode="&#x145;" horiz-adv-x="715" 
d="M500 0l-283 440h-1v-440h-141v677h155l268 -415h1v415h142v-677h-141zM208 -251v58c77 7 94 21 94 70c0 47 33 72 72 72c45 0 72 -31 72 -70c0 -72 -100 -130 -238 -130z" />
    <glyph glyph-name="Eng" unicode="&#x14a;" horiz-adv-x="715" 
d="M430 -147c36 37 69 88 73 152l-286 433h-1v-438h-141v677h157l266 -398h1v398h142v-637c0 -98 -40 -168 -127 -242z" />
    <glyph glyph-name="Ntilde" unicode="&#xd1;" horiz-adv-x="715" 
d="M290 867c79 0 90 -49 134 -49c29 0 38 18 38 46h92c-2 -88 -52 -134 -125 -134c-82 0 -95 51 -135 51c-25 0 -37 -16 -37 -48h-93c2 86 47 134 126 134zM500 0l-283 440h-1v-440h-141v677h155l268 -415h1v415h142v-677h-141z" />
    <glyph glyph-name="Oacute" unicode="&#xd3;" horiz-adv-x="747" 
d="M400 902h148l-128 -163h-105zM372 -15c-227 0 -332 141 -332 348c0 199 101 359 336 359c225 0 331 -150 331 -352c0 -198 -104 -355 -335 -355zM374 105c134 0 184 108 184 234c0 128 -50 233 -184 233c-135 0 -186 -111 -186 -233c0 -130 52 -234 186 -234z" />
    <glyph glyph-name="Obreve" unicode="&#x14e;" horiz-adv-x="747" 
d="M374 824c42 0 64 23 65 78h99c-1 -119 -80 -163 -169 -163c-94 0 -157 46 -158 163h99c1 -57 25 -78 64 -78zM372 -15c-227 0 -332 141 -332 348c0 199 101 359 336 359c225 0 331 -150 331 -352c0 -198 -104 -355 -335 -355zM374 105c134 0 184 108 184 234
c0 128 -50 233 -184 233c-135 0 -186 -111 -186 -233c0 -130 52 -234 186 -234z" />
    <glyph glyph-name="uni01D1" unicode="&#x1d1;" horiz-adv-x="747" 
d="M445 739h-141l-105 163h99l77 -86l79 86h95zM372 -15c-227 0 -332 141 -332 348c0 199 101 359 336 359c225 0 331 -150 331 -352c0 -198 -104 -355 -335 -355zM374 105c134 0 184 108 184 234c0 128 -50 233 -184 233c-135 0 -186 -111 -186 -233
c0 -130 52 -234 186 -234z" />
    <glyph glyph-name="Ocircumflex" unicode="&#xd4;" horiz-adv-x="747" 
d="M307 902h135l104 -163h-99l-74 85l-74 -85h-96zM372 -15c-227 0 -332 141 -332 348c0 199 101 359 336 359c225 0 331 -150 331 -352c0 -198 -104 -355 -335 -355zM374 105c134 0 184 108 184 234c0 128 -50 233 -184 233c-135 0 -186 -111 -186 -233
c0 -130 52 -234 186 -234z" />
    <glyph glyph-name="Odieresis" unicode="&#xd6;" horiz-adv-x="747" 
d="M257 880c46 0 81 -33 81 -80c0 -45 -35 -77 -81 -77c-45 0 -81 32 -81 77c0 47 36 80 81 80zM489 880c46 0 81 -33 81 -80c0 -45 -35 -77 -81 -77c-45 0 -81 32 -81 77c0 47 36 80 81 80zM372 -15c-227 0 -332 141 -332 348c0 199 101 359 336 359
c225 0 331 -150 331 -352c0 -198 -104 -355 -335 -355zM374 105c134 0 184 108 184 234c0 128 -50 233 -184 233c-135 0 -186 -111 -186 -233c0 -130 52 -234 186 -234z" />
    <glyph glyph-name="Ograve" unicode="&#xd2;" horiz-adv-x="747" 
d="M427 739h-95l-123 163h142zM372 -15c-227 0 -332 141 -332 348c0 199 101 359 336 359c225 0 331 -150 331 -352c0 -198 -104 -355 -335 -355zM374 105c134 0 184 108 184 234c0 128 -50 233 -184 233c-135 0 -186 -111 -186 -233c0 -130 52 -234 186 -234z" />
    <glyph glyph-name="Ohungarumlaut" unicode="&#x150;" horiz-adv-x="747" 
d="M290 902h123l-76 -163h-89zM471 902h128l-104 -163h-88zM372 -15c-227 0 -332 141 -332 348c0 199 101 359 336 359c225 0 331 -150 331 -352c0 -198 -104 -355 -335 -355zM374 105c134 0 184 108 184 234c0 128 -50 233 -184 233c-135 0 -186 -111 -186 -233
c0 -130 52 -234 186 -234z" />
    <glyph glyph-name="Omacron" unicode="&#x14c;" horiz-adv-x="747" 
d="M529 750h-309v85h309v-85zM372 -15c-227 0 -332 141 -332 348c0 199 101 359 336 359c225 0 331 -150 331 -352c0 -198 -104 -355 -335 -355zM374 105c134 0 184 108 184 234c0 128 -50 233 -184 233c-135 0 -186 -111 -186 -233c0 -130 52 -234 186 -234z" />
    <glyph glyph-name="Oslash" unicode="&#xd8;" horiz-adv-x="747" 
d="M603 615c70 -63 104 -161 104 -275c0 -198 -104 -355 -335 -355c-58 0 -107 9 -150 26l-47 -75h-125l84 132c-64 62 -94 154 -94 265c0 199 101 359 336 359c52 0 97 -8 136 -22l46 72h125zM374 572c-135 0 -186 -111 -186 -233c0 -55 9 -105 30 -145l229 365
c-21 8 -45 13 -73 13zM374 105c134 0 184 108 184 234c0 60 -11 114 -36 155l-234 -371c24 -12 53 -18 86 -18z" />
    <glyph glyph-name="Oslashacute" unicode="&#x1fe;" horiz-adv-x="747" 
d="M548 902l-128 -163h-105l85 163h148zM603 615c70 -63 104 -161 104 -275c0 -198 -104 -355 -335 -355c-58 0 -107 9 -150 26l-47 -75h-125l84 132c-64 62 -94 154 -94 265c0 199 101 359 336 359c52 0 97 -8 136 -22l46 72h125zM374 572c-135 0 -186 -111 -186 -233
c0 -55 9 -105 30 -145l229 365c-21 8 -45 13 -73 13zM374 105c134 0 184 108 184 234c0 60 -11 114 -36 155l-234 -371c24 -12 53 -18 86 -18z" />
    <glyph glyph-name="Otilde" unicode="&#xd5;" horiz-adv-x="747" 
d="M306 867c79 0 90 -49 134 -49c29 0 38 18 38 46h92c-2 -88 -52 -134 -125 -134c-82 0 -95 51 -135 51c-25 0 -37 -16 -37 -48h-93c2 86 47 134 126 134zM372 -15c-227 0 -332 141 -332 348c0 199 101 359 336 359c225 0 331 -150 331 -352c0 -198 -104 -355 -335 -355z
M374 105c134 0 184 108 184 234c0 128 -50 233 -184 233c-135 0 -186 -111 -186 -233c0 -130 52 -234 186 -234z" />
    <glyph glyph-name="OE" unicode="&#x152;" horiz-adv-x="979" 
d="M364 -15c-221 0 -323 142 -323 348c0 199 98 359 327 359c52 0 105 -6 149 -15h413v-123h-284v-144h247v-124h-247v-162h288v-124h-413c-47 -10 -105 -15 -157 -15zM366 105c52 0 100 5 136 16v430c-43 11 -85 20 -136 20c-133 0 -177 -111 -177 -232
c0 -127 45 -234 177 -234z" />
    <glyph glyph-name="Thorn" unicode="&#xde;" horiz-adv-x="588" 
d="M554 356c0 -149 -101 -236 -273 -236h-64v-120h-142v677h142v-104h65c156 0 272 -54 272 -217zM405 350c0 76 -56 100 -127 100h-61v-209h63c79 0 125 38 125 109z" />
    <glyph glyph-name="Racute" unicode="&#x154;" horiz-adv-x="625" 
d="M324 902h148l-128 -163h-105zM618 0h-162l-146 256h-93v-256h-142v677h234c176 0 258 -65 258 -196c0 -75 -50 -142 -124 -178zM309 375c72 0 114 32 114 94c0 65 -45 86 -115 86h-91v-180h92z" />
    <glyph glyph-name="Rcaron" unicode="&#x158;" horiz-adv-x="625" 
d="M369 739h-141l-105 163h99l77 -86l79 86h95zM618 0h-162l-146 256h-93v-256h-142v677h234c176 0 258 -65 258 -196c0 -75 -50 -142 -124 -178zM309 375c72 0 114 32 114 94c0 65 -45 86 -115 86h-91v-180h92z" />
    <glyph glyph-name="uni0156" unicode="&#x156;" horiz-adv-x="625" 
d="M618 0h-162l-146 256h-93v-256h-142v677h234c176 0 258 -65 258 -196c0 -75 -50 -142 -124 -178zM309 375c72 0 114 32 114 94c0 65 -45 86 -115 86h-91v-180h92zM166 -251v58c77 7 94 21 94 70c0 47 33 72 72 72c45 0 72 -31 72 -70c0 -72 -100 -130 -238 -130z" />
    <glyph glyph-name="Sacute" unicode="&#x15a;" horiz-adv-x="521" 
d="M299 902h148l-128 -163h-105zM454 663v-127c-51 20 -114 37 -165 37c-55 0 -97 -20 -97 -71c0 -134 293 -69 293 -306c0 -152 -119 -211 -249 -211c-65 0 -132 15 -189 40v131c57 -30 132 -51 190 -51c59 0 103 21 103 79c0 137 -292 73 -292 308c0 148 115 200 240 200
c57 0 115 -11 166 -29z" />
    <glyph glyph-name="Scaron" unicode="&#x160;" horiz-adv-x="521" 
d="M344 739h-141l-105 163h99l77 -86l79 86h95zM454 663v-127c-51 20 -114 37 -165 37c-55 0 -97 -20 -97 -71c0 -134 293 -69 293 -306c0 -152 -119 -211 -249 -211c-65 0 -132 15 -189 40v131c57 -30 132 -51 190 -51c59 0 103 21 103 79c0 137 -292 73 -292 308
c0 148 115 200 240 200c57 0 115 -11 166 -29z" />
    <glyph glyph-name="Scedilla" unicode="&#x15e;" horiz-adv-x="521" 
d="M485 196c0 -141 -102 -202 -221 -210c40 -38 63 -74 63 -111c0 -68 -58 -89 -116 -89c-26 0 -51 4 -70 10v74c18 -6 35 -9 54 -9c17 0 28 7 28 29s-11 54 -45 99c-46 6 -91 18 -131 36v131c57 -30 132 -51 190 -51c59 0 103 21 103 79c0 137 -292 73 -292 308
c0 148 115 200 240 200c57 0 115 -11 166 -29v-127c-51 20 -114 37 -165 37c-55 0 -97 -20 -97 -71c0 -134 293 -69 293 -306z" />
    <glyph glyph-name="Scircumflex" unicode="&#x15c;" horiz-adv-x="521" 
d="M206 902h135l104 -163h-99l-74 85l-74 -85h-96zM454 663v-127c-51 20 -114 37 -165 37c-55 0 -97 -20 -97 -71c0 -134 293 -69 293 -306c0 -152 -119 -211 -249 -211c-65 0 -132 15 -189 40v131c57 -30 132 -51 190 -51c59 0 103 21 103 79c0 137 -292 73 -292 308
c0 148 115 200 240 200c57 0 115 -11 166 -29z" />
    <glyph glyph-name="uni0218" unicode="&#x218;" horiz-adv-x="521" 
d="M454 663v-127c-51 20 -114 37 -165 37c-55 0 -97 -20 -97 -71c0 -134 293 -69 293 -306c0 -152 -119 -211 -249 -211c-65 0 -132 15 -189 40v131c57 -30 132 -51 190 -51c59 0 103 21 103 79c0 137 -292 73 -292 308c0 148 115 200 240 200c57 0 115 -11 166 -29z
M84 -251v58c77 7 94 21 94 70c0 47 33 72 72 72c45 0 72 -31 72 -70c0 -72 -100 -130 -238 -130z" />
    <glyph glyph-name="uni1E9E" unicode="&#x1e9e;" horiz-adv-x="651" 
d="M443 398c125 -22 174 -95 174 -193c0 -146 -85 -219 -232 -219c-41 0 -78 4 -103 12v124c22 -10 44 -13 80 -13c70 0 108 35 108 104c0 70 -35 101 -157 102v94l108 155c-21 4 -44 7 -72 7c-92 0 -140 -46 -140 -139v-432h-141v419c0 185 94 273 293 273
c60 0 134 -10 203 -26v-95z" />
    <glyph glyph-name="germandbls.calt" horiz-adv-x="651" 
d="M443 398c125 -22 174 -95 174 -193c0 -146 -85 -219 -232 -219c-41 0 -78 4 -103 12v124c22 -10 44 -13 80 -13c70 0 108 35 108 104c0 70 -35 101 -157 102v94l108 155c-21 4 -44 7 -72 7c-92 0 -140 -46 -140 -139v-432h-141v419c0 185 94 273 293 273
c60 0 134 -10 203 -26v-95z" />
    <glyph glyph-name="uni018F" unicode="&#x18f;" horiz-adv-x="641" 
d="M286 690c176 0 314 -103 314 -350c0 -199 -101 -354 -296 -354c-196 0 -266 134 -266 327v65h412c0 121 -58 191 -195 191c-64 0 -113 -13 -186 -41v121c55 23 124 41 217 41zM448 274h-261c1 -103 37 -167 121 -167c91 0 136 70 140 167z" />
    <glyph glyph-name="Tbar" unicode="&#x166;" horiz-adv-x="590" 
d="M562 553h-195v-161h160v-102h-160v-290h-143v290h-160v102h160v161h-196v124h534v-124z" />
    <glyph glyph-name="Tcaron" unicode="&#x164;" horiz-adv-x="557" 
d="M352 739h-141l-105 163h99l77 -86l79 86h95zM351 553v-553h-144v553h-195v124h534v-124h-195z" />
    <glyph glyph-name="uni0162" unicode="&#x162;" horiz-adv-x="557" 
d="M351 553v-553h-36c49 -44 78 -84 78 -124c0 -69 -59 -90 -116 -90c-26 0 -51 4 -70 11v73c18 -6 35 -9 54 -9c16 0 28 7 28 29c0 23 -14 60 -53 110h-29v553h-195v124h534v-124h-195z" />
    <glyph glyph-name="uni021A" unicode="&#x21a;" horiz-adv-x="557" 
d="M351 553v-553h-144v553h-195v124h534v-124h-195zM126 -251v58c77 7 94 21 94 70c0 47 33 72 72 72c45 0 72 -31 72 -70c0 -72 -100 -130 -238 -130z" />
    <glyph glyph-name="Uacute" unicode="&#xda;" horiz-adv-x="692" 
d="M372 902h148l-128 -163h-105zM625 256c0 -177 -107 -271 -283 -271c-171 0 -274 85 -274 272v420h141v-433c0 -96 54 -139 138 -139c88 0 136 43 136 137v435h142v-421z" />
    <glyph glyph-name="Ubreve" unicode="&#x16c;" horiz-adv-x="692" 
d="M345 824c42 0 64 23 65 78h99c-1 -119 -80 -163 -169 -163c-94 0 -157 46 -158 163h99c1 -57 25 -78 64 -78zM625 256c0 -177 -107 -271 -283 -271c-171 0 -274 85 -274 272v420h141v-433c0 -96 54 -139 138 -139c88 0 136 43 136 137v435h142v-421z" />
    <glyph glyph-name="uni01D3" unicode="&#x1d3;" horiz-adv-x="692" 
d="M416 739h-141l-105 163h99l77 -86l79 86h95zM625 256c0 -177 -107 -271 -283 -271c-171 0 -274 85 -274 272v420h141v-433c0 -96 54 -139 138 -139c88 0 136 43 136 137v435h142v-421z" />
    <glyph glyph-name="Ucircumflex" unicode="&#xdb;" horiz-adv-x="692" 
d="M279 902h135l104 -163h-99l-74 85l-74 -85h-96zM625 256c0 -177 -107 -271 -283 -271c-171 0 -274 85 -274 272v420h141v-433c0 -96 54 -139 138 -139c88 0 136 43 136 137v435h142v-421z" />
    <glyph glyph-name="Udieresis" unicode="&#xdc;" horiz-adv-x="692" 
d="M229 880c46 0 81 -33 81 -80c0 -45 -35 -77 -81 -77c-45 0 -81 32 -81 77c0 47 36 80 81 80zM461 880c46 0 81 -33 81 -80c0 -45 -35 -77 -81 -77c-45 0 -81 32 -81 77c0 47 36 80 81 80zM625 256c0 -177 -107 -271 -283 -271c-171 0 -274 85 -274 272v420h141v-433
c0 -96 54 -139 138 -139c88 0 136 43 136 137v435h142v-421z" />
    <glyph glyph-name="Ugrave" unicode="&#xd9;" horiz-adv-x="692" 
d="M399 739h-95l-123 163h142zM625 256c0 -177 -107 -271 -283 -271c-171 0 -274 85 -274 272v420h141v-433c0 -96 54 -139 138 -139c88 0 136 43 136 137v435h142v-421z" />
    <glyph glyph-name="Uhungarumlaut" unicode="&#x170;" horiz-adv-x="692" 
d="M262 902h123l-76 -163h-89zM443 902h128l-104 -163h-88zM625 256c0 -177 -107 -271 -283 -271c-171 0 -274 85 -274 272v420h141v-433c0 -96 54 -139 138 -139c88 0 136 43 136 137v435h142v-421z" />
    <glyph glyph-name="Umacron" unicode="&#x16a;" horiz-adv-x="692" 
d="M501 750h-309v85h309v-85zM625 256c0 -177 -107 -271 -283 -271c-171 0 -274 85 -274 272v420h141v-433c0 -96 54 -139 138 -139c88 0 136 43 136 137v435h142v-421z" />
    <glyph glyph-name="Uogonek" unicode="&#x172;" horiz-adv-x="692" 
d="M483 677h142v-421c0 -161 -88 -253 -236 -269c-22 -16 -31 -31 -31 -48s13 -27 34 -27s48 7 66 11v-88c-33 -21 -75 -33 -118 -33c-67 0 -106 28 -106 81c0 50 28 82 67 104c-146 13 -233 99 -233 270v420h141v-433c0 -96 54 -139 138 -139c88 0 136 43 136 137v435z" />
    <glyph glyph-name="Uring" unicode="&#x16e;" horiz-adv-x="692" 
d="M462 831c0 -67 -47 -102 -118 -102c-76 0 -120 35 -120 102c0 69 47 102 120 102c75 0 118 -34 118 -102zM390 831c0 30 -17 48 -46 48s-46 -18 -46 -48c0 -31 17 -49 46 -49s46 18 46 49zM625 256c0 -177 -107 -271 -283 -271c-171 0 -274 85 -274 272v420h141v-433
c0 -96 54 -139 138 -139c88 0 136 43 136 137v435h142v-421z" />
    <glyph glyph-name="Utilde" unicode="&#x168;" horiz-adv-x="692" 
d="M278 867c79 0 90 -49 134 -49c29 0 38 18 38 46h92c-2 -88 -52 -134 -125 -134c-82 0 -95 51 -135 51c-25 0 -37 -16 -37 -48h-93c2 86 47 134 126 134zM625 256c0 -177 -107 -271 -283 -271c-171 0 -274 85 -274 272v420h141v-433c0 -96 54 -139 138 -139
c88 0 136 43 136 137v435h142v-421z" />
    <glyph glyph-name="Wacute" unicode="&#x1e82;" horiz-adv-x="923" 
d="M494 902h148l-128 -163h-105zM173 0l-155 677h153l101 -496h3l124 496h145l122 -496h2l101 496h137l-158 -677h-173l-112 426h-2l-111 -426h-177z" />
    <glyph glyph-name="Wcircumflex" unicode="&#x174;" horiz-adv-x="923" 
d="M400 902h135l104 -163h-99l-74 85l-74 -85h-96zM173 0l-155 677h153l101 -496h3l124 496h145l122 -496h2l101 496h137l-158 -677h-173l-112 426h-2l-111 -426h-177z" />
    <glyph glyph-name="Wdieresis" unicode="&#x1e84;" horiz-adv-x="923" 
d="M351 880c46 0 81 -33 81 -80c0 -45 -35 -77 -81 -77c-45 0 -81 32 -81 77c0 47 36 80 81 80zM583 880c46 0 81 -33 81 -80c0 -45 -35 -77 -81 -77c-45 0 -81 32 -81 77c0 47 36 80 81 80zM173 0l-155 677h153l101 -496h3l124 496h145l122 -496h2l101 496h137l-158 -677
h-173l-112 426h-2l-111 -426h-177z" />
    <glyph glyph-name="Wgrave" unicode="&#x1e80;" horiz-adv-x="923" 
d="M521 739h-95l-123 163h142zM173 0l-155 677h153l101 -496h3l124 496h145l122 -496h2l101 496h137l-158 -677h-173l-112 426h-2l-111 -426h-177z" />
    <glyph glyph-name="Yacute" unicode="&#xdd;" horiz-adv-x="609" 
d="M335 902h148l-128 -163h-105zM233 263l-228 414h162l143 -283h3l141 283h150l-228 -414v-263h-143v263z" />
    <glyph glyph-name="Ycircumflex" unicode="&#x176;" horiz-adv-x="609" 
d="M241 902h135l104 -163h-99l-74 85l-74 -85h-96zM233 263l-228 414h162l143 -283h3l141 283h150l-228 -414v-263h-143v263z" />
    <glyph glyph-name="Ydieresis" unicode="&#x178;" horiz-adv-x="609" 
d="M192 880c46 0 81 -33 81 -80c0 -45 -35 -77 -81 -77c-45 0 -81 32 -81 77c0 47 36 80 81 80zM424 880c46 0 81 -33 81 -80c0 -45 -35 -77 -81 -77c-45 0 -81 32 -81 77c0 47 36 80 81 80zM233 263l-228 414h162l143 -283h3l141 283h150l-228 -414v-263h-143v263z" />
    <glyph glyph-name="Ygrave" unicode="&#x1ef2;" horiz-adv-x="609" 
d="M362 739h-95l-123 163h142zM233 263l-228 414h162l143 -283h3l141 283h150l-228 -414v-263h-143v263z" />
    <glyph glyph-name="uni0232" unicode="&#x232;" horiz-adv-x="609" 
d="M464 750h-309v85h309v-85zM233 263l-228 414h162l143 -283h3l141 283h150l-228 -414v-263h-143v263z" />
    <glyph glyph-name="Zacute" unicode="&#x179;" horiz-adv-x="568" 
d="M304 902h148l-128 -163h-105zM36 0v122l324 432h-312v123h473v-125l-324 -428h335v-124h-496z" />
    <glyph glyph-name="Zcaron" unicode="&#x17d;" horiz-adv-x="568" 
d="M348 739h-141l-105 163h99l77 -86l79 86h95zM36 0v122l324 432h-312v123h473v-125l-324 -428h335v-124h-496z" />
    <glyph glyph-name="Zdotaccent" unicode="&#x17b;" horiz-adv-x="568" 
d="M279 895c47 0 82 -34 82 -82c0 -46 -35 -80 -82 -80s-84 34 -84 80c0 48 37 82 84 82zM36 0v122l324 432h-312v123h473v-125l-324 -428h335v-124h-496z" />
    <glyph glyph-name="a.sc" horiz-adv-x="562" 
d="M362 552l190 -552h-144l-34 103h-192l-33 -103h-138l188 552h163zM278 419h-2l-67 -202h137z" />
    <glyph glyph-name="b.sc" horiz-adv-x="553" 
d="M519 164c0 -112 -72 -164 -209 -164h-241v552h224c132 0 189 -51 189 -139c0 -53 -28 -106 -94 -118v-1c74 -11 131 -56 131 -130zM345 386c0 33 -19 51 -65 51h-74v-102h82c38 0 57 19 57 51zM378 176c0 36 -28 57 -77 57h-95v-116h94c54 0 78 25 78 59z" />
    <glyph glyph-name="c.sc" horiz-adv-x="516" 
d="M475 430c-39 13 -80 20 -119 20c-103 0 -174 -54 -174 -173c0 -111 62 -174 179 -174c40 0 80 7 120 20v-117c-44 -12 -94 -19 -149 -19c-168 0 -295 92 -295 285c0 212 151 293 302 293c52 0 95 -7 136 -18v-117z" />
    <glyph glyph-name="d.sc" horiz-adv-x="606" 
d="M567 283c0 -190 -94 -283 -288 -283h-210v552h215c185 0 283 -93 283 -269zM428 280c0 107 -45 155 -143 155h-78v-317h80c96 0 141 52 141 162z" />
    <glyph glyph-name="e.sc" horiz-adv-x="491" 
d="M69 0v552h374v-118h-236v-98h205v-114h-205v-103h239v-119h-377z" />
    <glyph glyph-name="f.sc" horiz-adv-x="463" 
d="M207 434v-116h201v-115h-201v-203h-138v552h361v-118h-223z" />
    <glyph glyph-name="g.sc" horiz-adv-x="587" 
d="M511 421c-40 15 -97 30 -158 30c-100 0 -174 -59 -174 -175c0 -113 63 -179 165 -179c23 0 43 3 62 7v185h137v-260c-55 -24 -134 -42 -215 -42c-161 0 -291 80 -291 284c0 195 136 294 309 294c56 0 115 -11 165 -32v-112z" />
    <glyph glyph-name="h.sc" horiz-adv-x="625" 
d="M419 0v222h-212v-222h-138v552h138v-212h212v212h137v-552h-137z" />
    <glyph glyph-name="i.sc" horiz-adv-x="276" 
d="M69 552h138v-552h-138v552z" />
    <glyph glyph-name="j.sc" horiz-adv-x="349" 
d="M284 176c0 -122 -56 -189 -180 -189c-30 0 -64 3 -86 9v120c19 -5 43 -11 62 -11c51 0 67 22 67 68v379h137v-376z" />
    <glyph glyph-name="k.sc" horiz-adv-x="597" 
d="M279 223l-71 -71v-152h-139v552h139v-233l206 233h164l-201 -228l221 -324h-168z" />
    <glyph glyph-name="l.sc" horiz-adv-x="462" 
d="M69 0v552h138v-433h239v-119h-377z" />
    <glyph glyph-name="m.sc" horiz-adv-x="726" 
d="M657 552l-1 -552h-133v180l2 156h-2l-125 -204h-72l-123 202h-2l2 -154v-180h-134v552h147l150 -254l150 254h141z" />
    <glyph glyph-name="n.sc" horiz-adv-x="638" 
d="M436 0l-229 341h-3v-341h-135v552h155l207 -308h3v308h135v-552h-133z" />
    <glyph glyph-name="o.sc" horiz-adv-x="652" 
d="M324 -13c-192 0 -286 117 -286 287c0 163 91 292 291 292c196 0 285 -125 285 -290c0 -162 -94 -289 -290 -289zM326 102c106 0 145 82 145 174c0 94 -37 175 -143 175c-111 0 -148 -85 -148 -175c0 -94 38 -174 146 -174z" />
    <glyph glyph-name="p.sc" horiz-adv-x="519" 
d="M493 369c0 -127 -83 -200 -223 -200h-63v-169h-138v552h202c127 0 222 -47 222 -183zM350 364c0 48 -33 71 -83 71h-60v-151h55c46 0 88 21 88 80z" />
    <glyph glyph-name="q.sc" horiz-adv-x="652" 
d="M614 276c0 -112 -45 -208 -138 -256l126 -174h-165l-86 142c-9 -1 -18 -1 -27 -1c-192 0 -286 117 -286 287c0 163 91 292 291 292c196 0 285 -125 285 -290zM180 276c0 -94 38 -174 146 -174c106 0 145 82 145 174c0 94 -37 175 -143 175c-111 0 -148 -85 -148 -175z
" />
    <glyph glyph-name="r.sc" horiz-adv-x="562" 
d="M550 0h-158l-111 194h-74v-194h-138v552h237c143 0 198 -64 198 -159c0 -62 -32 -114 -97 -152zM291 309c49 0 76 28 76 66c0 31 -18 60 -72 60h-88v-126h84z" />
    <glyph glyph-name="s.sc" horiz-adv-x="463" 
d="M220 -13c-57 0 -119 12 -174 31v128c67 -28 128 -44 171 -44s71 16 71 55c0 89 -242 62 -242 245c0 117 93 164 204 164c50 0 101 -9 150 -25v-122c-55 21 -108 33 -147 33s-66 -13 -66 -47c0 -92 241 -60 241 -242c0 -129 -94 -176 -208 -176z" />
    <glyph glyph-name="t.sc" horiz-adv-x="497" 
d="M317 434v-434h-138v434h-163v118h465v-118h-164z" />
    <glyph glyph-name="u.sc" horiz-adv-x="613" 
d="M550 224c0 -157 -94 -237 -247 -237c-149 0 -240 72 -240 231v334h137v-342c0 -80 44 -108 107 -108c68 0 107 26 107 105v345h136v-328z" />
    <glyph glyph-name="v.sc" horiz-adv-x="545" 
d="M11 552h146l119 -389h4l120 389h133l-181 -552h-158z" />
    <glyph glyph-name="w.sc" horiz-adv-x="808" 
d="M408 315l-83 -315h-173l-135 552h148l80 -387h3l98 387h134l95 -387h4l80 387h132l-136 -552h-161z" />
    <glyph glyph-name="x.sc" horiz-adv-x="560" 
d="M395 0l-118 188l-120 -188h-153l188 279l-170 273h162l98 -167l105 167h151l-170 -259l188 -293h-161z" />
    <glyph glyph-name="y.sc" horiz-adv-x="537" 
d="M337 211v-211h-138v211l-194 341h154l113 -227h2l115 227h142z" />
    <glyph glyph-name="z.sc" horiz-adv-x="508" 
d="M38 0v118l267 316h-257v118h412v-119l-267 -314h277v-119h-432z" />
    <glyph glyph-name="aacute.sc" horiz-adv-x="562" 
d="M289 793h143l-127 -173h-88zM362 552l190 -552h-144l-34 103h-192l-33 -103h-138l188 552h163zM278 419h-2l-67 -202h137z" />
    <glyph glyph-name="abreve.sc" horiz-adv-x="562" 
d="M278 703c44 0 66 26 67 89h96c0 -125 -80 -177 -166 -177c-98 0 -160 54 -160 177h97c1 -67 27 -89 66 -89zM362 552l190 -552h-144l-34 103h-192l-33 -103h-138l188 552h163zM278 419h-2l-67 -202h137z" />
    <glyph glyph-name="uni01CE.sc" horiz-adv-x="562" 
d="M346 620h-142l-91 173h90l73 -97l75 97h86zM362 552l190 -552h-144l-34 103h-192l-33 -103h-138l188 552h163zM278 419h-2l-67 -202h137z" />
    <glyph glyph-name="acircumflex.sc" horiz-adv-x="562" 
d="M212 793h135l95 -173h-89l-75 97l-74 -97h-87zM362 552l190 -552h-144l-34 103h-192l-33 -103h-138l188 552h163zM278 419h-2l-67 -202h137z" />
    <glyph glyph-name="adieresis.sc" horiz-adv-x="562" 
d="M163 781c45 0 81 -33 81 -80c0 -45 -36 -77 -81 -77c-46 0 -82 32 -82 77c0 47 36 80 82 80zM395 781c45 0 80 -33 80 -80c0 -45 -35 -77 -80 -77c-46 0 -82 32 -82 77c0 47 36 80 82 80zM362 552l190 -552h-144l-34 103h-192l-33 -103h-138l188 552h163zM278 419h-2
l-67 -202h137z" />
    <glyph glyph-name="agrave.sc" horiz-adv-x="562" 
d="M344 620h-95l-128 173h140zM362 552l190 -552h-144l-34 103h-192l-33 -103h-138l188 552h163zM278 419h-2l-67 -202h137z" />
    <glyph glyph-name="amacron.sc" horiz-adv-x="562" 
d="M428 636h-309v85h309v-85zM362 552l190 -552h-144l-34 103h-192l-33 -103h-138l188 552h163zM278 419h-2l-67 -202h137z" />
    <glyph glyph-name="aogonek.sc" horiz-adv-x="562" 
d="M530 -88c15 0 32 3 50 7v-87c-29 -20 -66 -31 -101 -31c-67 0 -120 38 -120 107c0 35 19 69 49 92l-34 103h-192l-33 -103h-138l188 552h163l190 -552c-50 -13 -66 -37 -66 -56c0 -22 16 -32 44 -32zM209 217h137l-68 202h-2z" />
    <glyph glyph-name="aring.sc" horiz-adv-x="562" 
d="M398 718c0 -67 -47 -101 -119 -101c-75 0 -120 34 -120 101c0 69 48 102 120 102c75 0 119 -34 119 -102zM326 718c0 31 -18 49 -47 49s-46 -18 -46 -49s17 -49 46 -49s47 18 47 49zM362 552l190 -552h-144l-34 103h-192l-33 -103h-138l188 552h163zM278 419h-2l-67 -202
h137z" />
    <glyph glyph-name="atilde.sc" horiz-adv-x="562" 
d="M203 766c79 0 90 -49 134 -49c29 0 38 18 38 46h92c-2 -88 -52 -134 -125 -134c-82 0 -95 51 -135 51c-25 0 -37 -15 -37 -48h-93c2 87 47 134 126 134zM362 552l190 -552h-144l-34 103h-192l-33 -103h-138l188 552h163zM278 419h-2l-67 -202h137z" />
    <glyph glyph-name="ae.sc" horiz-adv-x="825" 
d="M776 552v-118h-235v-97h205v-115h-205v-103h239v-119h-377v103h-205l-62 -103h-144l352 552h432zM403 434h-5l-138 -217h143v217z" />
    <glyph glyph-name="aeacute.sc" horiz-adv-x="825" 
d="M588 793h143l-127 -173h-88zM776 552v-118h-235v-97h205v-115h-205v-103h239v-119h-377v103h-205l-62 -103h-144l352 552h432zM403 434h-5l-138 -217h143v217z" />
    <glyph glyph-name="uni01E3.sc" horiz-adv-x="825" 
d="M727 636h-309v85h309v-85zM776 552v-118h-235v-97h205v-115h-205v-103h239v-119h-377v103h-205l-62 -103h-144l352 552h432zM403 434h-5l-138 -217h143v217z" />
    <glyph glyph-name="cacute.sc" horiz-adv-x="516" 
d="M331 793h143l-127 -173h-88zM475 430c-39 13 -80 20 -119 20c-103 0 -174 -54 -174 -173c0 -111 62 -174 179 -174c40 0 80 7 120 20v-117c-44 -12 -94 -19 -149 -19c-168 0 -295 92 -295 285c0 212 151 293 302 293c52 0 95 -7 136 -18v-117z" />
    <glyph glyph-name="ccaron.sc" horiz-adv-x="516" 
d="M387 620h-142l-91 173h90l73 -97l75 97h86zM475 430c-39 13 -80 20 -119 20c-103 0 -174 -54 -174 -173c0 -111 62 -174 179 -174c40 0 80 7 120 20v-117c-44 -12 -94 -19 -149 -19c-168 0 -295 92 -295 285c0 212 151 293 302 293c52 0 95 -7 136 -18v-117z" />
    <glyph glyph-name="ccedilla.sc" horiz-adv-x="516" 
d="M481 123v-117c-36 -10 -76 -16 -120 -18c42 -39 65 -76 65 -113c0 -68 -58 -89 -116 -89c-26 0 -51 4 -70 10v74c18 -6 35 -9 54 -9c17 0 28 7 28 29s-12 54 -47 101c-139 19 -238 110 -238 281c0 212 151 293 302 293c52 0 95 -7 136 -18v-117c-39 13 -80 20 -119 20
c-103 0 -174 -54 -174 -173c0 -111 62 -174 179 -174c40 0 80 7 120 20z" />
    <glyph glyph-name="ccircumflex.sc" horiz-adv-x="516" 
d="M253 793h135l95 -173h-89l-75 97l-74 -97h-87zM475 430c-39 13 -80 20 -119 20c-103 0 -174 -54 -174 -173c0 -111 62 -174 179 -174c40 0 80 7 120 20v-117c-44 -12 -94 -19 -149 -19c-168 0 -295 92 -295 285c0 212 151 293 302 293c52 0 95 -7 136 -18v-117z" />
    <glyph glyph-name="cdotaccent.sc" horiz-adv-x="516" 
d="M321 784c47 0 83 -34 83 -82c0 -47 -36 -80 -83 -80s-84 33 -84 80c0 48 37 82 84 82zM475 430c-39 13 -80 20 -119 20c-103 0 -174 -54 -174 -173c0 -111 62 -174 179 -174c40 0 80 7 120 20v-117c-44 -12 -94 -19 -149 -19c-168 0 -295 92 -295 285
c0 212 151 293 302 293c52 0 95 -7 136 -18v-117z" />
    <glyph glyph-name="eth.sc" horiz-adv-x="623" 
d="M301 552c185 0 283 -93 283 -269c0 -190 -96 -283 -289 -283h-209v220h-63v115h63v217h215zM303 117c97 0 141 52 141 163c0 107 -45 155 -143 155h-81v-100h119v-115h-119v-103h83z" />
    <glyph glyph-name="dcaron.sc" horiz-adv-x="606" 
d="M337 620h-142l-91 173h90l73 -97l75 97h86zM567 283c0 -190 -94 -283 -288 -283h-210v552h215c185 0 283 -93 283 -269zM428 280c0 107 -45 155 -143 155h-78v-317h80c96 0 141 52 141 162z" />
    <glyph glyph-name="dcroat.sc" horiz-adv-x="623" 
d="M301 552c185 0 283 -93 283 -269c0 -190 -96 -283 -289 -283h-209v220h-63v115h63v217h215zM303 117c97 0 141 52 141 163c0 107 -45 155 -143 155h-81v-100h119v-115h-119v-103h83z" />
    <glyph glyph-name="eacute.sc" horiz-adv-x="491" 
d="M264 793h143l-127 -173h-88zM69 0v552h374v-118h-236v-98h205v-114h-205v-103h239v-119h-377z" />
    <glyph glyph-name="ebreve.sc" horiz-adv-x="491" 
d="M253 703c44 0 66 26 67 89h96c0 -125 -80 -177 -166 -177c-98 0 -160 54 -160 177h97c1 -67 27 -89 66 -89zM69 0v552h374v-118h-236v-98h205v-114h-205v-103h239v-119h-377z" />
    <glyph glyph-name="ecaron.sc" horiz-adv-x="491" 
d="M320 620h-142l-91 173h90l73 -97l75 97h86zM69 0v552h374v-118h-236v-98h205v-114h-205v-103h239v-119h-377z" />
    <glyph glyph-name="ecircumflex.sc" horiz-adv-x="491" 
d="M186 793h135l95 -173h-89l-75 97l-74 -97h-87zM69 0v552h374v-118h-236v-98h205v-114h-205v-103h239v-119h-377z" />
    <glyph glyph-name="edieresis.sc" horiz-adv-x="491" 
d="M138 781c45 0 81 -33 81 -80c0 -45 -36 -77 -81 -77c-46 0 -82 32 -82 77c0 47 36 80 82 80zM370 781c45 0 80 -33 80 -80c0 -45 -35 -77 -80 -77c-46 0 -82 32 -82 77c0 47 36 80 82 80zM69 0v552h374v-118h-236v-98h205v-114h-205v-103h239v-119h-377z" />
    <glyph glyph-name="edotaccent.sc" horiz-adv-x="491" 
d="M254 784c47 0 83 -34 83 -82c0 -47 -36 -80 -83 -80s-84 33 -84 80c0 48 37 82 84 82zM69 0v552h374v-118h-236v-98h205v-114h-205v-103h239v-119h-377z" />
    <glyph glyph-name="egrave.sc" horiz-adv-x="491" 
d="M319 620h-95l-128 173h140zM69 0v552h374v-118h-236v-98h205v-114h-205v-103h239v-119h-377z" />
    <glyph glyph-name="emacron.sc" horiz-adv-x="491" 
d="M402 636h-309v85h309v-85zM69 0v552h374v-118h-236v-98h205v-114h-205v-103h239v-119h-377z" />
    <glyph glyph-name="eogonek.sc" horiz-adv-x="491" 
d="M446 0c-71 -13 -100 -37 -100 -59c0 -15 13 -23 35 -23c21 0 47 7 65 12v-93c-33 -23 -75 -36 -118 -36c-67 0 -105 31 -105 85c0 55 38 95 105 114h-259v552h374v-118h-236v-98h205v-114h-205v-103h239v-119z" />
    <glyph glyph-name="uni1EBD.sc" horiz-adv-x="491" 
d="M178 766c79 0 90 -49 134 -49c29 0 38 18 38 46h92c-2 -88 -52 -134 -125 -134c-82 0 -95 51 -135 51c-25 0 -37 -15 -37 -48h-93c2 87 47 134 126 134zM69 0v552h374v-118h-236v-98h205v-114h-205v-103h239v-119h-377z" />
    <glyph glyph-name="gbreve.sc" horiz-adv-x="587" 
d="M321 703c44 0 66 26 67 89h96c0 -125 -80 -177 -166 -177c-98 0 -160 54 -160 177h97c1 -67 27 -89 66 -89zM511 421c-40 15 -97 30 -158 30c-100 0 -174 -59 -174 -175c0 -113 63 -179 165 -179c23 0 43 3 62 7v185h137v-260c-55 -24 -134 -42 -215 -42
c-161 0 -291 80 -291 284c0 195 136 294 309 294c56 0 115 -11 165 -32v-112z" />
    <glyph glyph-name="gcircumflex.sc" horiz-adv-x="587" 
d="M254 793h135l95 -173h-89l-75 97l-74 -97h-87zM511 421c-40 15 -97 30 -158 30c-100 0 -174 -59 -174 -175c0 -113 63 -179 165 -179c23 0 43 3 62 7v185h137v-260c-55 -24 -134 -42 -215 -42c-161 0 -291 80 -291 284c0 195 136 294 309 294c56 0 115 -11 165 -32v-112z
" />
    <glyph glyph-name="uni0123.sc" horiz-adv-x="587" 
d="M511 421c-40 15 -97 30 -158 30c-100 0 -174 -59 -174 -175c0 -113 63 -179 165 -179c23 0 43 3 62 7v185h137v-260c-55 -24 -134 -42 -215 -42c-161 0 -291 80 -291 284c0 195 136 294 309 294c56 0 115 -11 165 -32v-112zM168 -251v58c77 7 94 21 94 70
c0 47 33 72 72 72c45 0 72 -31 72 -70c0 -72 -100 -130 -238 -130z" />
    <glyph glyph-name="gdotaccent.sc" horiz-adv-x="587" 
d="M322 784c47 0 83 -34 83 -82c0 -47 -36 -80 -83 -80s-84 33 -84 80c0 48 37 82 84 82zM511 421c-40 15 -97 30 -158 30c-100 0 -174 -59 -174 -175c0 -113 63 -179 165 -179c23 0 43 3 62 7v185h137v-260c-55 -24 -134 -42 -215 -42c-161 0 -291 80 -291 284
c0 195 136 294 309 294c56 0 115 -11 165 -32v-112z" />
    <glyph glyph-name="hbar.sc" horiz-adv-x="645" 
d="M617 393h-52v-393h-137v211h-211v-211h-138v393h-51v104h51v55h138v-55h211v55h137v-55h52v-104zM428 393h-211v-66h211v66z" />
    <glyph glyph-name="hcircumflex.sc" horiz-adv-x="625" 
d="M243 793h135l95 -173h-89l-75 97l-74 -97h-87zM419 0v222h-212v-222h-138v552h138v-212h212v212h137v-552h-137z" />
    <glyph glyph-name="iacute.sc" horiz-adv-x="276" 
d="M146 793h143l-127 -173h-88zM69 552h138v-552h-138v552z" />
    <glyph glyph-name="ibreve.sc" horiz-adv-x="276" 
d="M135 703c44 0 66 26 67 89h96c0 -125 -80 -177 -166 -177c-98 0 -160 54 -160 177h97c1 -67 27 -89 66 -89zM69 552h138v-552h-138v552z" />
    <glyph glyph-name="uni01D0.sc" horiz-adv-x="276" 
d="M203 620h-142l-91 173h90l73 -97l75 97h86zM69 552h138v-552h-138v552z" />
    <glyph glyph-name="icircumflex.sc" horiz-adv-x="276" 
d="M69 793h135l95 -173h-89l-75 97l-74 -97h-87zM69 552h138v-552h-138v552z" />
    <glyph glyph-name="idieresis.sc" horiz-adv-x="276" 
d="M20 781c45 0 81 -33 81 -80c0 -45 -36 -77 -81 -77c-46 0 -82 32 -82 77c0 47 36 80 82 80zM252 781c45 0 80 -33 80 -80c0 -45 -35 -77 -80 -77c-46 0 -82 32 -82 77c0 47 36 80 82 80zM69 552h138v-552h-138v552z" />
    <glyph glyph-name="i.sc.loclTRK" horiz-adv-x="276" 
d="M137 784c47 0 83 -34 83 -82c0 -47 -36 -80 -83 -80s-84 33 -84 80c0 48 37 82 84 82zM69 552h138v-552h-138v552z" />
    <glyph glyph-name="igrave.sc" horiz-adv-x="276" 
d="M201 620h-95l-128 173h140zM69 552h138v-552h-138v552z" />
    <glyph glyph-name="imacron.sc" horiz-adv-x="276" 
d="M285 636h-309v85h309v-85zM69 552h138v-552h-138v552z" />
    <glyph glyph-name="iogonek.sc" horiz-adv-x="276" 
d="M165 -80c21 0 48 6 66 10v-87c-33 -22 -75 -34 -118 -34c-67 0 -106 29 -106 81c0 55 43 83 96 110h-34v552h138v-552c-51 -8 -76 -38 -76 -59c0 -14 13 -21 34 -21z" />
    <glyph glyph-name="itilde.sc" horiz-adv-x="276" 
d="M60 766c79 0 90 -49 134 -49c29 0 38 18 38 46h92c-2 -88 -52 -134 -125 -134c-82 0 -95 51 -135 51c-25 0 -37 -15 -37 -48h-93c2 87 47 134 126 134zM69 552h138v-552h-138v552z" />
    <glyph glyph-name="ij.sc" horiz-adv-x="625" 
d="M69 552h138v-552h-138v552zM560 176c0 -122 -56 -189 -180 -189c-30 0 -64 3 -86 9v120c19 -5 43 -11 62 -11c51 0 67 22 67 68v379h137v-376z" />
    <glyph glyph-name="iacute_j.loclNLD.sc" horiz-adv-x="660" 
d="M167 789h144l-127 -173h-88zM532 789h143l-127 -173h-88zM69 552h138v-552h-138v552zM560 176c0 -122 -56 -189 -180 -189c-30 0 -64 3 -86 9v120c19 -5 43 -11 62 -11c51 0 67 22 67 68v379h137v-376z" />
    <glyph glyph-name="jcircumflex.sc" horiz-adv-x="349" 
d="M147 793h135l95 -173h-89l-75 97l-74 -97h-87zM284 176c0 -122 -56 -189 -180 -189c-30 0 -64 3 -86 9v120c19 -5 43 -11 62 -11c51 0 67 22 67 68v379h137v-376z" />
    <glyph glyph-name="uni0137.sc" horiz-adv-x="597" 
d="M279 223l-71 -71v-152h-139v552h139v-233l206 233h164l-201 -228l221 -324h-168zM154 -251v58c77 7 94 21 94 70c0 47 33 72 72 72c45 0 72 -31 72 -70c0 -72 -100 -130 -238 -130z" />
    <glyph glyph-name="lacute.sc" horiz-adv-x="462" 
d="M147 793h143l-127 -173h-88zM69 0v552h138v-433h239v-119h-377z" />
    <glyph glyph-name="lcaron.sc" horiz-adv-x="462" 
d="M333 298l-53 35c27 35 44 61 44 87c0 37 -47 34 -47 93c0 34 27 70 73 70c53 0 75 -39 75 -83c0 -60 -34 -137 -92 -202zM69 0v552h138v-433h239v-119h-377z" />
    <glyph glyph-name="uni013C.sc" horiz-adv-x="462" 
d="M69 0v552h138v-433h239v-119h-377zM106 -251v58c77 7 94 21 94 70c0 47 33 72 72 72c45 0 72 -31 72 -70c0 -72 -100 -130 -238 -130z" />
    <glyph glyph-name="ldot.sc" horiz-adv-x="493" 
d="M69 0v552h138v-433h239v-119h-377zM365 408c50 0 88 -36 88 -86c0 -49 -38 -84 -88 -84c-49 0 -89 35 -89 84c0 50 40 86 89 86z" />
    <glyph glyph-name="lslash.sc" horiz-adv-x="480" 
d="M225 119h239v-119h-377v174l-61 -33v119l61 34v258h138v-198l107 58v-119l-107 -58v-116z" />
    <glyph glyph-name="nacute.sc" horiz-adv-x="638" 
d="M324 793h143l-127 -173h-88zM436 0l-229 341h-3v-341h-135v552h155l207 -308h3v308h135v-552h-133z" />
    <glyph glyph-name="ncaron.sc" horiz-adv-x="638" 
d="M381 620h-142l-91 173h90l73 -97l75 97h86zM436 0l-229 341h-3v-341h-135v552h155l207 -308h3v308h135v-552h-133z" />
    <glyph glyph-name="uni0146.sc" horiz-adv-x="638" 
d="M436 0l-229 341h-3v-341h-135v552h155l207 -308h3v308h135v-552h-133zM161 -251v58c77 7 94 21 94 70c0 47 33 72 72 72c45 0 72 -31 72 -70c0 -72 -100 -130 -238 -130z" />
    <glyph glyph-name="eng.sc" horiz-adv-x="638" 
d="M569 552v-522c0 -84 -37 -161 -121 -231l-90 54c41 38 71 102 74 152l-224 334h-3v-339h-136v552h155l206 -306h3v306h136z" />
    <glyph glyph-name="ntilde.sc" horiz-adv-x="638" 
d="M238 766c79 0 90 -49 134 -49c29 0 38 18 38 46h92c-2 -88 -52 -134 -125 -134c-82 0 -95 51 -135 51c-25 0 -37 -15 -37 -48h-93c2 87 47 134 126 134zM436 0l-229 341h-3v-341h-135v552h155l207 -308h3v308h135v-552h-133z" />
    <glyph glyph-name="oacute.sc" horiz-adv-x="652" 
d="M337 793h143l-127 -173h-88zM324 -13c-192 0 -286 117 -286 287c0 163 91 292 291 292c196 0 285 -125 285 -290c0 -162 -94 -289 -290 -289zM326 102c106 0 145 82 145 174c0 94 -37 175 -143 175c-111 0 -148 -85 -148 -175c0 -94 38 -174 146 -174z" />
    <glyph glyph-name="obreve.sc" horiz-adv-x="652" 
d="M326 703c44 0 66 26 67 89h96c0 -125 -80 -177 -166 -177c-98 0 -160 54 -160 177h97c1 -67 27 -89 66 -89zM324 -13c-192 0 -286 117 -286 287c0 163 91 292 291 292c196 0 285 -125 285 -290c0 -162 -94 -289 -290 -289zM326 102c106 0 145 82 145 174
c0 94 -37 175 -143 175c-111 0 -148 -85 -148 -175c0 -94 38 -174 146 -174z" />
    <glyph glyph-name="ocircumflex.sc" horiz-adv-x="652" 
d="M259 793h135l95 -173h-89l-75 97l-74 -97h-87zM324 -13c-192 0 -286 117 -286 287c0 163 91 292 291 292c196 0 285 -125 285 -290c0 -162 -94 -289 -290 -289zM326 102c106 0 145 82 145 174c0 94 -37 175 -143 175c-111 0 -148 -85 -148 -175c0 -94 38 -174 146 -174z
" />
    <glyph glyph-name="odieresis.sc" horiz-adv-x="652" 
d="M211 781c45 0 81 -33 81 -80c0 -45 -36 -77 -81 -77c-46 0 -82 32 -82 77c0 47 36 80 82 80zM443 781c45 0 80 -33 80 -80c0 -45 -35 -77 -80 -77c-46 0 -82 32 -82 77c0 47 36 80 82 80zM324 -13c-192 0 -286 117 -286 287c0 163 91 292 291 292
c196 0 285 -125 285 -290c0 -162 -94 -289 -290 -289zM326 102c106 0 145 82 145 174c0 94 -37 175 -143 175c-111 0 -148 -85 -148 -175c0 -94 38 -174 146 -174z" />
    <glyph glyph-name="ograve.sc" horiz-adv-x="652" 
d="M392 620h-95l-128 173h140zM324 -13c-192 0 -286 117 -286 287c0 163 91 292 291 292c196 0 285 -125 285 -290c0 -162 -94 -289 -290 -289zM326 102c106 0 145 82 145 174c0 94 -37 175 -143 175c-111 0 -148 -85 -148 -175c0 -94 38 -174 146 -174z" />
    <glyph glyph-name="ohungarumlaut.sc" horiz-adv-x="652" 
d="M266 793h122l-87 -173h-87zM444 793h126l-116 -173h-86zM324 -13c-192 0 -286 117 -286 287c0 163 91 292 291 292c196 0 285 -125 285 -290c0 -162 -94 -289 -290 -289zM326 102c106 0 145 82 145 174c0 94 -37 175 -143 175c-111 0 -148 -85 -148 -175
c0 -94 38 -174 146 -174z" />
    <glyph glyph-name="omacron.sc" horiz-adv-x="652" 
d="M476 636h-309v85h309v-85zM324 -13c-192 0 -286 117 -286 287c0 163 91 292 291 292c196 0 285 -125 285 -290c0 -162 -94 -289 -290 -289zM326 102c106 0 145 82 145 174c0 94 -37 175 -143 175c-111 0 -148 -85 -148 -175c0 -94 38 -174 146 -174z" />
    <glyph glyph-name="oslash.sc" horiz-adv-x="652" 
d="M518 509c66 -51 96 -134 96 -231c0 -161 -96 -291 -290 -291c-38 0 -71 4 -101 12l-45 -79h-114l70 121c-66 49 -96 130 -96 230c0 164 92 295 291 295c38 0 71 -4 101 -13l45 78h113zM328 458c-113 0 -151 -88 -151 -182c0 -46 8 -88 28 -120l171 295c-14 5 -30 7 -48 7
zM326 95c108 0 149 85 149 181c0 45 -8 87 -27 119l-171 -294c15 -4 31 -6 49 -6z" />
    <glyph glyph-name="oslashacute.sc" horiz-adv-x="652" 
d="M478 791l-127 -173h-88l71 173h144zM518 509c66 -51 96 -134 96 -231c0 -161 -96 -291 -290 -291c-38 0 -71 4 -101 12l-45 -79h-114l70 121c-66 49 -96 130 -96 230c0 164 92 295 291 295c38 0 71 -4 101 -13l45 78h113zM328 458c-113 0 -151 -88 -151 -182
c0 -46 8 -88 28 -120l171 295c-14 5 -30 7 -48 7zM326 95c108 0 149 85 149 181c0 45 -8 87 -27 119l-171 -294c15 -4 31 -6 49 -6z" />
    <glyph glyph-name="otilde.sc" horiz-adv-x="652" 
d="M251 766c79 0 90 -49 134 -49c29 0 38 18 38 46h92c-2 -88 -52 -134 -125 -134c-82 0 -95 51 -135 51c-25 0 -37 -15 -37 -48h-93c2 87 47 134 126 134zM324 -13c-192 0 -286 117 -286 287c0 163 91 292 291 292c196 0 285 -125 285 -290c0 -162 -94 -289 -290 -289z
M326 102c106 0 145 82 145 174c0 94 -37 175 -143 175c-111 0 -148 -85 -148 -175c0 -94 38 -174 146 -174z" />
    <glyph glyph-name="oe.sc" horiz-adv-x="824" 
d="M779 0h-326c-37 -8 -80 -13 -129 -13c-200 0 -286 115 -286 284c0 164 92 295 290 295c51 0 95 -5 133 -14h314v-118h-236v-98h206v-114h-206v-103h240v-119zM180 276c0 -95 38 -174 146 -174c29 0 55 3 76 8v334c-21 4 -46 7 -75 7c-110 0 -147 -84 -147 -175z" />
    <glyph glyph-name="thorn.sc" horiz-adv-x="527" 
d="M493 290c0 -126 -83 -199 -223 -199h-63v-91h-138v552h138v-78h64c127 0 222 -48 222 -184zM350 285c0 48 -33 70 -83 70h-60v-150h55c46 0 88 22 88 80z" />
    <glyph glyph-name="racute.sc" horiz-adv-x="562" 
d="M290 793h143l-127 -173h-88zM550 0h-158l-111 194h-74v-194h-138v552h237c143 0 198 -64 198 -159c0 -62 -32 -114 -97 -152zM291 309c49 0 76 28 76 66c0 31 -18 60 -72 60h-88v-126h84z" />
    <glyph glyph-name="rcaron.sc" horiz-adv-x="562" 
d="M347 620h-142l-91 173h90l73 -97l75 97h86zM550 0h-158l-111 194h-74v-194h-138v552h237c143 0 198 -64 198 -159c0 -62 -32 -114 -97 -152zM291 309c49 0 76 28 76 66c0 31 -18 60 -72 60h-88v-126h84z" />
    <glyph glyph-name="uni0157.sc" horiz-adv-x="562" 
d="M550 0h-158l-111 194h-74v-194h-138v552h237c143 0 198 -64 198 -159c0 -62 -32 -114 -97 -152zM291 309c49 0 76 28 76 66c0 31 -18 60 -72 60h-88v-126h84zM137 -251v58c77 7 94 21 94 70c0 47 33 72 72 72c45 0 72 -31 72 -70c0 -72 -100 -130 -238 -130z" />
    <glyph glyph-name="sacute.sc" horiz-adv-x="463" 
d="M243 793h143l-127 -173h-88zM220 -13c-57 0 -119 12 -174 31v128c67 -28 128 -44 171 -44s71 16 71 55c0 89 -242 62 -242 245c0 117 93 164 204 164c50 0 101 -9 150 -25v-122c-55 21 -108 33 -147 33s-66 -13 -66 -47c0 -92 241 -60 241 -242
c0 -129 -94 -176 -208 -176z" />
    <glyph glyph-name="scaron.sc" horiz-adv-x="463" 
d="M300 620h-142l-91 173h90l73 -97l75 97h86zM220 -13c-57 0 -119 12 -174 31v128c67 -28 128 -44 171 -44s71 16 71 55c0 89 -242 62 -242 245c0 117 93 164 204 164c50 0 101 -9 150 -25v-122c-55 21 -108 33 -147 33s-66 -13 -66 -47c0 -92 241 -60 241 -242
c0 -129 -94 -176 -208 -176z" />
    <glyph glyph-name="scedilla.sc" horiz-adv-x="463" 
d="M428 163c0 -119 -80 -168 -182 -175c41 -39 65 -75 65 -113c0 -68 -58 -89 -116 -89c-26 0 -51 4 -70 10v74c18 -6 35 -9 54 -9c17 0 28 7 28 29s-12 55 -47 101c-39 5 -78 15 -114 27v128c67 -28 128 -44 171 -44s71 16 71 55c0 89 -242 62 -242 245
c0 117 93 164 204 164c50 0 101 -9 150 -25v-122c-55 21 -108 33 -147 33s-66 -13 -66 -47c0 -92 241 -60 241 -242z" />
    <glyph glyph-name="scircumflex.sc" horiz-adv-x="463" 
d="M166 793h135l95 -173h-89l-75 97l-74 -97h-87zM220 -13c-57 0 -119 12 -174 31v128c67 -28 128 -44 171 -44s71 16 71 55c0 89 -242 62 -242 245c0 117 93 164 204 164c50 0 101 -9 150 -25v-122c-55 21 -108 33 -147 33s-66 -13 -66 -47c0 -92 241 -60 241 -242
c0 -129 -94 -176 -208 -176z" />
    <glyph glyph-name="uni0219.sc" horiz-adv-x="463" 
d="M220 -13c-57 0 -119 12 -174 31v128c67 -28 128 -44 171 -44s71 16 71 55c0 89 -242 62 -242 245c0 117 93 164 204 164c50 0 101 -9 150 -25v-122c-55 21 -108 33 -147 33s-66 -13 -66 -47c0 -92 241 -60 241 -242c0 -129 -94 -176 -208 -176zM68 -251v58
c77 7 94 21 94 70c0 47 33 72 72 72c45 0 72 -31 72 -70c0 -72 -100 -130 -238 -130z" />
    <glyph glyph-name="germandbls.sc" horiz-adv-x="616" 
d="M438 333c95 -18 145 -87 145 -163c0 -114 -77 -183 -222 -183c-35 0 -71 2 -98 9v119c26 -8 54 -13 80 -13c62 0 99 24 99 74c0 51 -48 71 -138 71h-11v93l101 104c-23 4 -49 6 -79 6c-70 0 -116 -27 -116 -109v-341h-136v334c0 157 99 232 283 232c75 0 145 -13 189 -24
v-101z" />
    <glyph glyph-name="uni0259.sc" horiz-adv-x="572" 
d="M260 564c152 0 273 -83 273 -289c0 -159 -89 -287 -259 -287c-173 0 -234 109 -234 268v63h349c-2 80 -47 130 -150 130c-61 0 -105 -12 -171 -36v116c48 19 107 35 192 35zM277 104c71 0 106 45 110 114h-206c1 -77 33 -114 96 -114z" />
    <glyph glyph-name="tbar.sc" horiz-adv-x="522" 
d="M493 434h-163v-118h128v-97h-128v-219h-138v219h-128v97h128v118h-163v118h464v-118z" />
    <glyph glyph-name="tcaron.sc" horiz-adv-x="497" 
d="M318 620h-142l-91 173h90l73 -97l75 97h86zM317 434v-434h-138v434h-163v118h465v-118h-164z" />
    <glyph glyph-name="uni0163.sc" horiz-adv-x="497" 
d="M317 434v-434h-25c49 -43 78 -84 78 -125c0 -68 -58 -89 -116 -89c-26 0 -51 4 -70 10v74c18 -6 35 -9 54 -9c17 0 28 7 28 29c0 23 -13 59 -54 110h-33v434h-163v118h465v-118h-164z" />
    <glyph glyph-name="uni021B.sc" horiz-adv-x="497" 
d="M317 434v-434h-138v434h-163v118h465v-118h-164zM127 -251v58c77 7 94 21 94 70c0 47 33 72 72 72c45 0 72 -31 72 -70c0 -72 -100 -130 -238 -130z" />
    <glyph glyph-name="uacute.sc" horiz-adv-x="613" 
d="M316 793h143l-127 -173h-88zM550 224c0 -157 -94 -237 -247 -237c-149 0 -240 72 -240 231v334h137v-342c0 -80 44 -108 107 -108c68 0 107 26 107 105v345h136v-328z" />
    <glyph glyph-name="ubreve.sc" horiz-adv-x="613" 
d="M305 703c44 0 66 26 67 89h96c0 -125 -80 -177 -166 -177c-98 0 -160 54 -160 177h97c1 -67 27 -89 66 -89zM550 224c0 -157 -94 -237 -247 -237c-149 0 -240 72 -240 231v334h137v-342c0 -80 44 -108 107 -108c68 0 107 26 107 105v345h136v-328z" />
    <glyph glyph-name="uni01D4.sc" horiz-adv-x="613" 
d="M373 620h-142l-91 173h90l73 -97l75 97h86zM550 224c0 -157 -94 -237 -247 -237c-149 0 -240 72 -240 231v334h137v-342c0 -80 44 -108 107 -108c68 0 107 26 107 105v345h136v-328z" />
    <glyph glyph-name="ucircumflex.sc" horiz-adv-x="613" 
d="M239 793h135l95 -173h-89l-75 97l-74 -97h-87zM550 224c0 -157 -94 -237 -247 -237c-149 0 -240 72 -240 231v334h137v-342c0 -80 44 -108 107 -108c68 0 107 26 107 105v345h136v-328z" />
    <glyph glyph-name="udieresis.sc" horiz-adv-x="613" 
d="M190 781c45 0 81 -33 81 -80c0 -45 -36 -77 -81 -77c-46 0 -82 32 -82 77c0 47 36 80 82 80zM422 781c45 0 80 -33 80 -80c0 -45 -35 -77 -80 -77c-46 0 -82 32 -82 77c0 47 36 80 82 80zM550 224c0 -157 -94 -237 -247 -237c-149 0 -240 72 -240 231v334h137v-342
c0 -80 44 -108 107 -108c68 0 107 26 107 105v345h136v-328z" />
    <glyph glyph-name="ugrave.sc" horiz-adv-x="613" 
d="M371 620h-95l-128 173h140zM550 224c0 -157 -94 -237 -247 -237c-149 0 -240 72 -240 231v334h137v-342c0 -80 44 -108 107 -108c68 0 107 26 107 105v345h136v-328z" />
    <glyph glyph-name="uhungarumlaut.sc" horiz-adv-x="613" 
d="M245 793h122l-87 -173h-87zM423 793h126l-116 -173h-86zM550 224c0 -157 -94 -237 -247 -237c-149 0 -240 72 -240 231v334h137v-342c0 -80 44 -108 107 -108c68 0 107 26 107 105v345h136v-328z" />
    <glyph glyph-name="umacron.sc" horiz-adv-x="613" 
d="M455 636h-309v85h309v-85zM550 224c0 -157 -94 -237 -247 -237c-149 0 -240 72 -240 231v334h137v-342c0 -80 44 -108 107 -108c68 0 107 26 107 105v345h136v-328z" />
    <glyph glyph-name="uogonek.sc" horiz-adv-x="613" 
d="M414 552h136v-328c0 -131 -65 -208 -176 -230c-37 -20 -53 -35 -53 -53c0 -14 14 -21 35 -21s47 6 65 10v-87c-32 -22 -74 -34 -118 -34c-67 0 -105 29 -105 81c0 51 37 78 80 98c-134 7 -215 80 -215 230v334h137v-342c0 -80 44 -108 107 -108c68 0 107 26 107 105v345z
" />
    <glyph glyph-name="uring.sc" horiz-adv-x="613" 
d="M425 718c0 -67 -47 -101 -119 -101c-75 0 -120 34 -120 101c0 69 48 102 120 102c75 0 119 -34 119 -102zM353 718c0 31 -18 49 -47 49s-46 -18 -46 -49s17 -49 46 -49s47 18 47 49zM550 224c0 -157 -94 -237 -247 -237c-149 0 -240 72 -240 231v334h137v-342
c0 -80 44 -108 107 -108c68 0 107 26 107 105v345h136v-328z" />
    <glyph glyph-name="utilde.sc" horiz-adv-x="613" 
d="M230 766c79 0 90 -49 134 -49c29 0 38 18 38 46h92c-2 -88 -52 -134 -125 -134c-82 0 -95 51 -135 51c-25 0 -37 -15 -37 -48h-93c2 87 47 134 126 134zM550 224c0 -157 -94 -237 -247 -237c-149 0 -240 72 -240 231v334h137v-342c0 -80 44 -108 107 -108
c68 0 107 26 107 105v345h136v-328z" />
    <glyph glyph-name="wacute.sc" horiz-adv-x="808" 
d="M421 793h143l-127 -173h-88zM408 315l-83 -315h-173l-135 552h148l80 -387h3l98 387h134l95 -387h4l80 387h132l-136 -552h-161z" />
    <glyph glyph-name="wcircumflex.sc" horiz-adv-x="808" 
d="M344 793h135l95 -173h-89l-75 97l-74 -97h-87zM408 315l-83 -315h-173l-135 552h148l80 -387h3l98 387h134l95 -387h4l80 387h132l-136 -552h-161z" />
    <glyph glyph-name="wdieresis.sc" horiz-adv-x="808" 
d="M295 781c45 0 81 -33 81 -80c0 -45 -36 -77 -81 -77c-46 0 -82 32 -82 77c0 47 36 80 82 80zM527 781c45 0 80 -33 80 -80c0 -45 -35 -77 -80 -77c-46 0 -82 32 -82 77c0 47 36 80 82 80zM408 315l-83 -315h-173l-135 552h148l80 -387h3l98 387h134l95 -387h4l80 387h132
l-136 -552h-161z" />
    <glyph glyph-name="wgrave.sc" horiz-adv-x="808" 
d="M476 620h-95l-128 173h140zM408 315l-83 -315h-173l-135 552h148l80 -387h3l98 387h134l95 -387h4l80 387h132l-136 -552h-161z" />
    <glyph glyph-name="yacute.sc" horiz-adv-x="537" 
d="M284 793h143l-127 -173h-88zM337 211v-211h-138v211l-194 341h154l113 -227h2l115 227h142z" />
    <glyph glyph-name="ycircumflex.sc" horiz-adv-x="537" 
d="M206 793h135l95 -173h-89l-75 97l-74 -97h-87zM337 211v-211h-138v211l-194 341h154l113 -227h2l115 227h142z" />
    <glyph glyph-name="ydieresis.sc" horiz-adv-x="537" 
d="M158 781c45 0 81 -33 81 -80c0 -45 -36 -77 -81 -77c-46 0 -82 32 -82 77c0 47 36 80 82 80zM390 781c45 0 80 -33 80 -80c0 -45 -35 -77 -80 -77c-46 0 -82 32 -82 77c0 47 36 80 82 80zM337 211v-211h-138v211l-194 341h154l113 -227h2l115 227h142z" />
    <glyph glyph-name="ygrave.sc" horiz-adv-x="537" 
d="M338 620h-95l-128 173h140zM337 211v-211h-138v211l-194 341h154l113 -227h2l115 227h142z" />
    <glyph glyph-name="uni0233.sc" horiz-adv-x="537" 
d="M422 636h-309v85h309v-85zM337 211v-211h-138v211l-194 341h154l113 -227h2l115 227h142z" />
    <glyph glyph-name="zacute.sc" horiz-adv-x="508" 
d="M272 793h143l-127 -173h-88zM38 0v118l267 316h-257v118h412v-119l-267 -314h277v-119h-432z" />
    <glyph glyph-name="zcaron.sc" horiz-adv-x="508" 
d="M329 620h-142l-91 173h90l73 -97l75 97h86zM38 0v118l267 316h-257v118h412v-119l-267 -314h277v-119h-432z" />
    <glyph glyph-name="zdotaccent.sc" horiz-adv-x="508" 
d="M263 784c47 0 83 -34 83 -82c0 -47 -36 -80 -83 -80s-84 33 -84 80c0 48 37 82 84 82zM38 0v118l267 316h-257v118h412v-119l-267 -314h277v-119h-432z" />
    <glyph glyph-name="a" unicode="a" horiz-adv-x="542" 
d="M468 106c0 -16 11 -22 28 -22c7 0 13 1 20 2v-82c-23 -9 -49 -17 -78 -17c-45 0 -79 17 -94 64h-1c-29 -37 -80 -64 -149 -64c-104 0 -164 59 -164 157c0 112 72 172 204 172h96v15c0 58 -28 82 -102 82c-30 0 -74 -4 -145 -18v102c59 16 118 23 171 23
c150 0 214 -57 214 -191v-223zM168 156c0 -40 20 -65 72 -65c33 0 65 10 90 32v108h-66c-65 0 -96 -25 -96 -75z" />
    <glyph glyph-name="b" unicode="b" horiz-adv-x="602" 
d="M205 727v-269h1c40 41 91 62 147 62c130 0 210 -97 210 -257c0 -165 -92 -278 -227 -278c-51 0 -103 22 -143 59h-1v-44h-125v727h138zM420 261c0 96 -44 153 -116 153c-36 0 -69 -11 -99 -34v-251c31 -24 65 -37 101 -37c68 0 114 67 114 169z" />
    <glyph glyph-name="c" unicode="c" horiz-adv-x="479" 
d="M446 11c-51 -17 -100 -26 -149 -26c-145 0 -260 83 -260 264c0 191 126 271 277 271c40 0 81 -5 121 -16v-110c-36 12 -74 19 -111 19c-87 0 -144 -43 -144 -158c0 -117 57 -162 143 -162c38 0 80 9 123 26v-108z" />
    <glyph glyph-name="d" unicode="d" horiz-adv-x="602" 
d="M39 250c0 168 85 270 225 270c53 0 95 -16 131 -51h2v258h138v-727h-127v59h-2c-47 -48 -102 -73 -158 -73c-130 0 -209 99 -209 264zM183 251c0 -102 41 -158 114 -158c35 0 73 14 100 39v243c-33 27 -66 40 -100 40c-70 0 -114 -64 -114 -164z" />
    <glyph glyph-name="e" unicode="e" horiz-adv-x="526" 
d="M272 520c144 0 215 -99 215 -248v-55h-310c2 -93 55 -127 141 -127c58 0 107 17 152 36v-104c-39 -18 -104 -37 -175 -37c-144 0 -258 83 -258 269c0 152 85 266 235 266zM276 415c-65 0 -97 -46 -99 -113h184c0 68 -28 113 -85 113z" />
    <glyph glyph-name="f" unicode="f" horiz-adv-x="370" 
d="M101 509v61c0 112 67 172 190 172c34 0 65 -4 93 -11v-106c-31 7 -48 9 -67 9c-56 0 -78 -31 -78 -84v-41h118v-99h-118v-410h-138v410h-80v99h80z" />
    <glyph glyph-name="g" unicode="g" horiz-adv-x="594" 
d="M392 66h-2c-36 -42 -88 -67 -144 -67c-130 0 -208 98 -208 262c0 156 89 259 221 259c52 0 107 -25 141 -64h2v53h125v-484c0 -162 -78 -235 -249 -235c-65 0 -129 10 -188 32v110c68 -27 117 -38 166 -38c96 0 136 31 136 105v67zM181 262c0 -101 39 -155 109 -155
c32 0 66 14 99 42v226c-29 27 -60 40 -97 40c-68 0 -111 -58 -111 -153z" />
    <glyph glyph-name="h" unicode="h" horiz-adv-x="596" 
d="M396 0v324c0 58 -29 88 -89 88c-39 0 -75 -13 -102 -37v-375h-138v727h138v-269c48 38 109 62 158 62c119 0 171 -58 171 -194v-326h-138z" />
    <glyph glyph-name="i" unicode="i" horiz-adv-x="272" 
d="M137 741c47 0 83 -34 83 -82c0 -47 -36 -80 -83 -80s-84 33 -84 80c0 48 37 82 84 82zM67 0v509h138v-509h-138z" />
    <glyph glyph-name="j" unicode="j" horiz-adv-x="280" 
d="M145 741c47 0 83 -34 83 -82c0 -47 -36 -80 -83 -80s-84 33 -84 80c0 48 37 82 84 82zM213 -36c0 -130 -71 -174 -178 -174c-25 0 -51 2 -73 7v113c20 -6 40 -9 57 -9c40 0 56 13 56 50v558h138v-545z" />
    <glyph glyph-name="k" unicode="k" horiz-adv-x="540" 
d="M543 0h-150l-137 218l-51 -53v-165h-138v727h138v-405l162 188h153l-176 -200z" />
    <glyph glyph-name="l" unicode="l" horiz-adv-x="290" 
d="M64 727h138v-606c0 -24 15 -29 32 -29c6 0 16 1 28 5v-94c-35 -11 -60 -15 -86 -15c-70 0 -112 39 -112 117v622z" />
    <glyph glyph-name="m" unicode="m" horiz-adv-x="897" 
d="M675 520c109 0 160 -64 160 -194v-326h-137v316c0 59 -25 96 -85 96c-35 0 -71 -14 -95 -38c2 -5 2 -10 2 -16v-358h-137v316c0 64 -27 96 -84 96c-37 0 -71 -15 -94 -37v-375h-138v509h127v-62h2c46 45 103 73 164 73c73 0 121 -33 144 -79c53 53 107 79 171 79z" />
    <glyph glyph-name="n" unicode="n" horiz-adv-x="596" 
d="M396 0v324c0 58 -29 88 -89 88c-39 0 -75 -13 -102 -37v-375h-138v509h127v-62h2c44 44 102 73 176 73c110 0 162 -65 162 -194v-326h-138z" />
    <glyph glyph-name="o" unicode="o" horiz-adv-x="598" 
d="M561 249c0 -154 -113 -264 -269 -264c-153 0 -256 108 -256 269c0 159 107 266 263 266c160 0 262 -106 262 -271zM418 250c0 101 -46 163 -119 163c-72 0 -119 -60 -119 -158c0 -101 46 -162 119 -162c72 0 119 62 119 157z" />
    <glyph glyph-name="p" unicode="p" horiz-adv-x="602" 
d="M194 509v-62h2c46 49 98 73 158 73c129 0 209 -95 209 -255c0 -163 -90 -280 -225 -280c-47 0 -93 18 -130 49h-3v-239h-138v714h127zM420 261c0 96 -43 153 -115 153c-37 0 -70 -11 -100 -34v-251c32 -24 68 -37 101 -37c72 0 114 61 114 169z" />
    <glyph glyph-name="q" unicode="q" horiz-adv-x="601" 
d="M396 50h-3c-38 -38 -94 -61 -145 -61c-124 0 -210 105 -210 257c0 170 87 274 229 274c54 0 106 -24 140 -64h2v53h125v-714h-138v255zM182 248c0 -96 42 -151 115 -151c34 0 71 14 100 39v239c-32 26 -65 40 -100 40c-69 0 -115 -66 -115 -167z" />
    <glyph glyph-name="r" unicode="r" horiz-adv-x="397" 
d="M381 388c-64 0 -132 -21 -176 -56v-332h-138v509h127v-93h3c68 79 113 104 184 104v-132z" />
    <glyph glyph-name="s" unicode="s" horiz-adv-x="428" 
d="M393 147c0 -115 -90 -162 -203 -162c-41 0 -98 7 -145 27v105c42 -19 82 -34 130 -34c49 0 81 15 81 56c0 88 -211 47 -211 225c0 111 81 156 190 156c55 0 102 -12 131 -24v-103c-38 19 -77 29 -113 29c-44 0 -75 -15 -75 -51c0 -88 215 -52 215 -224z" />
    <glyph glyph-name="t" unicode="t" horiz-adv-x="402" 
d="M237 148c0 -39 23 -55 64 -55c29 0 56 7 75 13v-105c-21 -6 -69 -16 -114 -16c-104 0 -163 52 -163 162v263h-82v99h82v142h138v-142h137v-99h-137v-262z" />
    <glyph glyph-name="u" unicode="u" horiz-adv-x="597" 
d="M200 509v-324c0 -57 33 -88 93 -88c38 0 74 14 99 36v376h138v-509h-127v61h-3c-41 -43 -107 -72 -164 -72c-119 0 -174 62 -174 194v326h138z" />
    <glyph glyph-name="v" unicode="v" horiz-adv-x="536" 
d="M191 0l-180 509h136l124 -366h3l122 366h129l-180 -509h-154z" />
    <glyph glyph-name="w" unicode="w" horiz-adv-x="759" 
d="M156 0l-141 509h138l80 -333h1l92 333h116l93 -333h1l77 333h131l-141 -509h-140l-81 296h-3l-84 -296h-139z" />
    <glyph glyph-name="x" unicode="x" horiz-adv-x="516" 
d="M495 509l-153 -236l166 -273h-153l-102 169l-109 -169h-137l168 255l-154 254h154l90 -151l97 151h133z" />
    <glyph glyph-name="y" unicode="y" horiz-adv-x="536" 
d="M341 -14c-50 -142 -119 -194 -238 -194c-38 0 -61 3 -90 9v116c36 -15 55 -18 87 -18c58 0 82 27 99 80l-187 530h136l124 -366h3l122 366h129z" />
    <glyph glyph-name="z" unicode="z" horiz-adv-x="490" 
d="M38 0v99l245 310h-238v100h402v-87l-254 -320h264v-102h-419z" />
    <glyph glyph-name="aacute" unicode="&#xe1;" horiz-adv-x="542" 
d="M278 750h143l-127 -173h-88zM468 106c0 -16 11 -22 28 -22c7 0 13 1 20 2v-82c-23 -9 -49 -17 -78 -17c-45 0 -79 17 -94 64h-1c-29 -37 -80 -64 -149 -64c-104 0 -164 59 -164 157c0 112 72 172 204 172h96v15c0 58 -28 82 -102 82c-30 0 -74 -4 -145 -18v102
c59 16 118 23 171 23c150 0 214 -57 214 -191v-223zM168 156c0 -40 20 -65 72 -65c33 0 65 10 90 32v108h-66c-65 0 -96 -25 -96 -75z" />
    <glyph glyph-name="abreve" unicode="&#x103;" horiz-adv-x="542" 
d="M267 660c44 0 66 26 67 89h96c0 -125 -80 -177 -166 -177c-98 0 -160 54 -160 177h97c1 -67 27 -89 66 -89zM468 106c0 -16 11 -22 28 -22c7 0 13 1 20 2v-82c-23 -9 -49 -17 -78 -17c-45 0 -79 17 -94 64h-1c-29 -37 -80 -64 -149 -64c-104 0 -164 59 -164 157
c0 112 72 172 204 172h96v15c0 58 -28 82 -102 82c-30 0 -74 -4 -145 -18v102c59 16 118 23 171 23c150 0 214 -57 214 -191v-223zM168 156c0 -40 20 -65 72 -65c33 0 65 10 90 32v108h-66c-65 0 -96 -25 -96 -75z" />
    <glyph glyph-name="uni01CE" unicode="&#x1ce;" horiz-adv-x="542" 
d="M335 577h-142l-91 173h90l73 -97l75 97h86zM468 106c0 -16 11 -22 28 -22c7 0 13 1 20 2v-82c-23 -9 -49 -17 -78 -17c-45 0 -79 17 -94 64h-1c-29 -37 -80 -64 -149 -64c-104 0 -164 59 -164 157c0 112 72 172 204 172h96v15c0 58 -28 82 -102 82c-30 0 -74 -4 -145 -18
v102c59 16 118 23 171 23c150 0 214 -57 214 -191v-223zM168 156c0 -40 20 -65 72 -65c33 0 65 10 90 32v108h-66c-65 0 -96 -25 -96 -75z" />
    <glyph glyph-name="acircumflex" unicode="&#xe2;" horiz-adv-x="542" 
d="M201 750h135l95 -173h-89l-75 97l-74 -97h-87zM468 106c0 -16 11 -22 28 -22c7 0 13 1 20 2v-82c-23 -9 -49 -17 -78 -17c-45 0 -79 17 -94 64h-1c-29 -37 -80 -64 -149 -64c-104 0 -164 59 -164 157c0 112 72 172 204 172h96v15c0 58 -28 82 -102 82
c-30 0 -74 -4 -145 -18v102c59 16 118 23 171 23c150 0 214 -57 214 -191v-223zM168 156c0 -40 20 -65 72 -65c33 0 65 10 90 32v108h-66c-65 0 -96 -25 -96 -75z" />
    <glyph glyph-name="adieresis" unicode="&#xe4;" horiz-adv-x="542" 
d="M152 738c45 0 81 -33 81 -80c0 -45 -36 -77 -81 -77c-46 0 -82 32 -82 77c0 47 36 80 82 80zM384 738c45 0 80 -33 80 -80c0 -45 -35 -77 -80 -77c-46 0 -82 32 -82 77c0 47 36 80 82 80zM468 106c0 -16 11 -22 28 -22c7 0 13 1 20 2v-82c-23 -9 -49 -17 -78 -17
c-45 0 -79 17 -94 64h-1c-29 -37 -80 -64 -149 -64c-104 0 -164 59 -164 157c0 112 72 172 204 172h96v15c0 58 -28 82 -102 82c-30 0 -74 -4 -145 -18v102c59 16 118 23 171 23c150 0 214 -57 214 -191v-223zM168 156c0 -40 20 -65 72 -65c33 0 65 10 90 32v108h-66
c-65 0 -96 -25 -96 -75z" />
    <glyph glyph-name="agrave" unicode="&#xe0;" horiz-adv-x="542" 
d="M333 577h-95l-128 173h140zM468 106c0 -16 11 -22 28 -22c7 0 13 1 20 2v-82c-23 -9 -49 -17 -78 -17c-45 0 -79 17 -94 64h-1c-29 -37 -80 -64 -149 -64c-104 0 -164 59 -164 157c0 112 72 172 204 172h96v15c0 58 -28 82 -102 82c-30 0 -74 -4 -145 -18v102
c59 16 118 23 171 23c150 0 214 -57 214 -191v-223zM168 156c0 -40 20 -65 72 -65c33 0 65 10 90 32v108h-66c-65 0 -96 -25 -96 -75z" />
    <glyph glyph-name="amacron" unicode="&#x101;" horiz-adv-x="542" 
d="M417 593h-309v85h309v-85zM468 106c0 -16 11 -22 28 -22c7 0 13 1 20 2v-82c-23 -9 -49 -17 -78 -17c-45 0 -79 17 -94 64h-1c-29 -37 -80 -64 -149 -64c-104 0 -164 59 -164 157c0 112 72 172 204 172h96v15c0 58 -28 82 -102 82c-30 0 -74 -4 -145 -18v102
c59 16 118 23 171 23c150 0 214 -57 214 -191v-223zM168 156c0 -40 20 -65 72 -65c33 0 65 10 90 32v108h-66c-65 0 -96 -25 -96 -75z" />
    <glyph glyph-name="aogonek" unicode="&#x105;" horiz-adv-x="542" 
d="M496 -3c-45 -17 -79 -39 -79 -56c0 -15 13 -22 34 -22s48 6 65 10v-87c-32 -21 -74 -34 -117 -34c-68 0 -106 29 -106 81c0 58 46 88 98 107c-22 9 -38 26 -47 55h-1c-29 -37 -80 -64 -149 -64c-104 0 -164 59 -164 157c0 112 72 172 204 172h96v15c0 58 -28 82 -102 82
c-30 0 -74 -4 -145 -18v102c59 16 118 23 171 23c150 0 214 -57 214 -191v-223c0 -16 11 -22 28 -22c7 0 13 1 20 2v-82c-7 -3 -8 -2 -20 -7zM330 123v108h-66c-65 0 -96 -25 -96 -75c0 -40 20 -65 72 -65c33 0 65 10 90 32z" />
    <glyph glyph-name="aring" unicode="&#xe5;" horiz-adv-x="542" 
d="M387 675c0 -67 -47 -101 -119 -101c-75 0 -120 34 -120 101c0 69 48 102 120 102c75 0 119 -34 119 -102zM315 675c0 31 -18 49 -47 49s-46 -18 -46 -49s17 -49 46 -49s47 18 47 49zM468 106c0 -16 11 -22 28 -22c7 0 13 1 20 2v-82c-23 -9 -49 -17 -78 -17
c-45 0 -79 17 -94 64h-1c-29 -37 -80 -64 -149 -64c-104 0 -164 59 -164 157c0 112 72 172 204 172h96v15c0 58 -28 82 -102 82c-30 0 -74 -4 -145 -18v102c59 16 118 23 171 23c150 0 214 -57 214 -191v-223zM168 156c0 -40 20 -65 72 -65c33 0 65 10 90 32v108h-66
c-65 0 -96 -25 -96 -75z" />
    <glyph glyph-name="atilde" unicode="&#xe3;" horiz-adv-x="542" 
d="M192 723c79 0 90 -49 134 -49c29 0 38 18 38 46h92c-2 -88 -52 -134 -125 -134c-82 0 -95 51 -135 51c-25 0 -37 -15 -37 -48h-93c2 87 47 134 126 134zM468 106c0 -16 11 -22 28 -22c7 0 13 1 20 2v-82c-23 -9 -49 -17 -78 -17c-45 0 -79 17 -94 64h-1
c-29 -37 -80 -64 -149 -64c-104 0 -164 59 -164 157c0 112 72 172 204 172h96v15c0 58 -28 82 -102 82c-30 0 -74 -4 -145 -18v102c59 16 118 23 171 23c150 0 214 -57 214 -191v-223zM168 156c0 -40 20 -65 72 -65c33 0 65 10 90 32v108h-66c-65 0 -96 -25 -96 -75z" />
    <glyph glyph-name="ae" unicode="&#xe6;" horiz-adv-x="813" 
d="M774 217h-310c2 -89 55 -127 140 -127c59 0 108 17 153 36v-104c-39 -18 -104 -37 -173 -37c-81 0 -145 27 -191 77c-47 -52 -111 -75 -187 -75c-119 0 -176 58 -176 157c0 112 71 172 204 172h96v15c0 58 -28 82 -102 82c-30 0 -74 -4 -145 -18v102c59 16 118 23 173 23
c88 0 134 -21 159 -63c25 31 67 63 150 63c136 0 209 -99 209 -251v-52zM648 302c0 69 -27 114 -87 114c-62 0 -94 -48 -97 -114h184zM246 91c44 0 77 13 105 41c-12 25 -21 69 -21 99h-66c-65 0 -96 -25 -96 -74c0 -42 26 -66 78 -66z" />
    <glyph glyph-name="aeacute" unicode="&#x1fd;" horiz-adv-x="813" 
d="M422 750h143l-127 -173h-88zM774 217h-310c2 -89 55 -127 140 -127c59 0 108 17 153 36v-104c-39 -18 -104 -37 -173 -37c-81 0 -145 27 -191 77c-47 -52 -111 -75 -187 -75c-119 0 -176 58 -176 157c0 112 71 172 204 172h96v15c0 58 -28 82 -102 82
c-30 0 -74 -4 -145 -18v102c59 16 118 23 173 23c88 0 134 -21 159 -63c25 31 67 63 150 63c136 0 209 -99 209 -251v-52zM648 302c0 69 -27 114 -87 114c-62 0 -94 -48 -97 -114h184zM246 91c44 0 77 13 105 41c-12 25 -21 69 -21 99h-66c-65 0 -96 -25 -96 -74
c0 -42 26 -66 78 -66z" />
    <glyph glyph-name="uni01E3" unicode="&#x1e3;" horiz-adv-x="813" 
d="M561 593h-309v85h309v-85zM774 217h-310c2 -89 55 -127 140 -127c59 0 108 17 153 36v-104c-39 -18 -104 -37 -173 -37c-81 0 -145 27 -191 77c-47 -52 -111 -75 -187 -75c-119 0 -176 58 -176 157c0 112 71 172 204 172h96v15c0 58 -28 82 -102 82
c-30 0 -74 -4 -145 -18v102c59 16 118 23 173 23c88 0 134 -21 159 -63c25 31 67 63 150 63c136 0 209 -99 209 -251v-52zM648 302c0 69 -27 114 -87 114c-62 0 -94 -48 -97 -114h184zM246 91c44 0 77 13 105 41c-12 25 -21 69 -21 99h-66c-65 0 -96 -25 -96 -74
c0 -42 26 -66 78 -66z" />
    <glyph glyph-name="cacute" unicode="&#x107;" horiz-adv-x="479" 
d="M304 750h143l-127 -173h-88zM446 11c-51 -17 -100 -26 -149 -26c-145 0 -260 83 -260 264c0 191 126 271 277 271c40 0 81 -5 121 -16v-110c-36 12 -74 19 -111 19c-87 0 -144 -43 -144 -158c0 -117 57 -162 143 -162c38 0 80 9 123 26v-108z" />
    <glyph glyph-name="ccaron" unicode="&#x10d;" horiz-adv-x="479" 
d="M361 577h-142l-91 173h90l73 -97l75 97h86zM446 11c-51 -17 -100 -26 -149 -26c-145 0 -260 83 -260 264c0 191 126 271 277 271c40 0 81 -5 121 -16v-110c-36 12 -74 19 -111 19c-87 0 -144 -43 -144 -158c0 -117 57 -162 143 -162c38 0 80 9 123 26v-108z" />
    <glyph glyph-name="ccedilla" unicode="&#xe7;" horiz-adv-x="479" 
d="M446 119v-108c-38 -13 -75 -21 -112 -24c41 -38 64 -75 64 -112c0 -68 -58 -89 -116 -89c-26 0 -51 4 -70 10v74c18 -6 35 -9 54 -9c17 0 28 7 28 29c0 21 -11 53 -45 98c-122 17 -212 100 -212 261c0 191 126 271 277 271c40 0 81 -5 121 -16v-110
c-36 12 -74 19 -111 19c-87 0 -144 -43 -144 -158c0 -117 57 -162 143 -162c38 0 80 9 123 26z" />
    <glyph glyph-name="ccircumflex" unicode="&#x109;" horiz-adv-x="479" 
d="M227 750h135l95 -173h-89l-75 97l-74 -97h-87zM446 11c-51 -17 -100 -26 -149 -26c-145 0 -260 83 -260 264c0 191 126 271 277 271c40 0 81 -5 121 -16v-110c-36 12 -74 19 -111 19c-87 0 -144 -43 -144 -158c0 -117 57 -162 143 -162c38 0 80 9 123 26v-108z" />
    <glyph glyph-name="cdotaccent" unicode="&#x10b;" horiz-adv-x="479" 
d="M295 741c47 0 83 -34 83 -82c0 -47 -36 -80 -83 -80s-84 33 -84 80c0 48 37 82 84 82zM446 11c-51 -17 -100 -26 -149 -26c-145 0 -260 83 -260 264c0 191 126 271 277 271c40 0 81 -5 121 -16v-110c-36 12 -74 19 -111 19c-87 0 -144 -43 -144 -158
c0 -117 57 -162 143 -162c38 0 80 9 123 26v-108z" />
    <glyph glyph-name="eth" unicode="&#xf0;" horiz-adv-x="601" 
d="M442 595c76 -80 118 -188 118 -315c0 -152 -68 -295 -267 -295c-176 0 -257 116 -257 249c0 140 89 237 268 237c25 0 53 -3 76 -8c-14 31 -33 60 -58 86l-134 -52l-31 81l78 30c-25 14 -54 27 -88 38l29 96c71 -18 135 -46 190 -83l111 43l32 -81zM298 93
c98 0 119 98 119 162c0 41 -3 80 -9 117c-29 9 -60 14 -94 14c-91 0 -135 -58 -135 -152c0 -78 36 -141 119 -141z" />
    <glyph glyph-name="dcaron" unicode="&#x10f;" horiz-adv-x="602" 
d="M642 459l-53 35c27 35 44 61 44 87c0 37 -47 34 -47 93c0 34 27 70 73 70c53 0 75 -39 75 -83c0 -60 -34 -137 -92 -202zM39 250c0 168 85 270 225 270c53 0 95 -16 131 -51h2v258h138v-727h-127v59h-2c-47 -48 -102 -73 -158 -73c-130 0 -209 99 -209 264zM183 251
c0 -102 41 -158 114 -158c35 0 73 14 100 39v243c-33 27 -66 40 -100 40c-70 0 -114 -64 -114 -164z" />
    <glyph glyph-name="dcroat" unicode="&#x111;" horiz-adv-x="602" 
d="M602 567h-67v-567h-127v59h-2c-47 -48 -102 -74 -158 -74c-130 0 -209 100 -209 265c0 168 85 270 225 270c53 0 95 -16 131 -51h2v98h-120v86h120v74h138v-74h67v-86zM397 375c-33 27 -66 40 -100 40c-70 0 -114 -64 -114 -164c0 -102 41 -158 114 -158
c35 0 73 14 100 39v243z" />
    <glyph glyph-name="eacute" unicode="&#xe9;" horiz-adv-x="526" 
d="M284 750h143l-127 -173h-88zM272 520c144 0 215 -99 215 -248v-55h-310c2 -93 55 -127 141 -127c58 0 107 17 152 36v-104c-39 -18 -104 -37 -175 -37c-144 0 -258 83 -258 269c0 152 85 266 235 266zM276 415c-65 0 -97 -46 -99 -113h184c0 68 -28 113 -85 113z" />
    <glyph glyph-name="ebreve" unicode="&#x115;" horiz-adv-x="526" 
d="M273 660c44 0 66 26 67 89h96c0 -125 -80 -177 -166 -177c-98 0 -160 54 -160 177h97c1 -67 27 -89 66 -89zM272 520c144 0 215 -99 215 -248v-55h-310c2 -93 55 -127 141 -127c58 0 107 17 152 36v-104c-39 -18 -104 -37 -175 -37c-144 0 -258 83 -258 269
c0 152 85 266 235 266zM276 415c-65 0 -97 -46 -99 -113h184c0 68 -28 113 -85 113z" />
    <glyph glyph-name="ecaron" unicode="&#x11b;" horiz-adv-x="526" 
d="M341 577h-142l-91 173h90l73 -97l75 97h86zM272 520c144 0 215 -99 215 -248v-55h-310c2 -93 55 -127 141 -127c58 0 107 17 152 36v-104c-39 -18 -104 -37 -175 -37c-144 0 -258 83 -258 269c0 152 85 266 235 266zM276 415c-65 0 -97 -46 -99 -113h184
c0 68 -28 113 -85 113z" />
    <glyph glyph-name="ecircumflex" unicode="&#xea;" horiz-adv-x="526" 
d="M206 750h135l95 -173h-89l-75 97l-74 -97h-87zM272 520c144 0 215 -99 215 -248v-55h-310c2 -93 55 -127 141 -127c58 0 107 17 152 36v-104c-39 -18 -104 -37 -175 -37c-144 0 -258 83 -258 269c0 152 85 266 235 266zM276 415c-65 0 -97 -46 -99 -113h184
c0 68 -28 113 -85 113z" />
    <glyph glyph-name="edieresis" unicode="&#xeb;" horiz-adv-x="526" 
d="M158 738c45 0 81 -33 81 -80c0 -45 -36 -77 -81 -77c-46 0 -82 32 -82 77c0 47 36 80 82 80zM390 738c45 0 80 -33 80 -80c0 -45 -35 -77 -80 -77c-46 0 -82 32 -82 77c0 47 36 80 82 80zM272 520c144 0 215 -99 215 -248v-55h-310c2 -93 55 -127 141 -127
c58 0 107 17 152 36v-104c-39 -18 -104 -37 -175 -37c-144 0 -258 83 -258 269c0 152 85 266 235 266zM276 415c-65 0 -97 -46 -99 -113h184c0 68 -28 113 -85 113z" />
    <glyph glyph-name="edotaccent" unicode="&#x117;" horiz-adv-x="526" 
d="M274 741c47 0 83 -34 83 -82c0 -47 -36 -80 -83 -80s-84 33 -84 80c0 48 37 82 84 82zM272 520c144 0 215 -99 215 -248v-55h-310c2 -93 55 -127 141 -127c58 0 107 17 152 36v-104c-39 -18 -104 -37 -175 -37c-144 0 -258 83 -258 269c0 152 85 266 235 266zM276 415
c-65 0 -97 -46 -99 -113h184c0 68 -28 113 -85 113z" />
    <glyph glyph-name="egrave" unicode="&#xe8;" horiz-adv-x="526" 
d="M339 577h-95l-128 173h140zM272 520c144 0 215 -99 215 -248v-55h-310c2 -93 55 -127 141 -127c58 0 107 17 152 36v-104c-39 -18 -104 -37 -175 -37c-144 0 -258 83 -258 269c0 152 85 266 235 266zM276 415c-65 0 -97 -46 -99 -113h184c0 68 -28 113 -85 113z" />
    <glyph glyph-name="emacron" unicode="&#x113;" horiz-adv-x="526" 
d="M423 593h-309v85h309v-85zM272 520c144 0 215 -99 215 -248v-55h-310c2 -93 55 -127 141 -127c58 0 107 17 152 36v-104c-39 -18 -104 -37 -175 -37c-144 0 -258 83 -258 269c0 152 85 266 235 266zM276 415c-65 0 -97 -46 -99 -113h184c0 68 -28 113 -85 113z" />
    <glyph glyph-name="eogonek" unicode="&#x119;" horiz-adv-x="526" 
d="M487 217h-310c2 -89 55 -127 141 -127c58 0 107 17 152 36v-104c-59 -25 -100 -56 -100 -82c0 -22 13 -29 35 -29c20 0 47 6 65 11v-88c-32 -21 -74 -33 -118 -33c-67 0 -105 28 -105 80c0 50 37 84 80 106c-10 -1 -21 -2 -32 -2c-144 0 -258 83 -258 269
c0 152 85 266 235 266c144 0 215 -99 215 -248v-55zM361 302c0 68 -28 113 -85 113c-65 0 -97 -46 -99 -113h184z" />
    <glyph glyph-name="uni1EBD" unicode="&#x1ebd;" horiz-adv-x="526" 
d="M198 723c79 0 90 -49 134 -49c29 0 38 18 38 46h92c-2 -88 -52 -134 -125 -134c-82 0 -95 51 -135 51c-25 0 -37 -15 -37 -48h-93c2 87 47 134 126 134zM272 520c144 0 215 -99 215 -248v-55h-310c2 -93 55 -127 141 -127c58 0 107 17 152 36v-104
c-39 -18 -104 -37 -175 -37c-144 0 -258 83 -258 269c0 152 85 266 235 266zM276 415c-65 0 -97 -46 -99 -113h184c0 68 -28 113 -85 113z" />
    <glyph glyph-name="gbreve" unicode="&#x11f;" horiz-adv-x="594" 
d="M303 660c44 0 66 26 67 89h96c0 -125 -80 -177 -166 -177c-98 0 -160 54 -160 177h97c1 -67 27 -89 66 -89zM392 66h-2c-36 -42 -88 -67 -144 -67c-130 0 -208 98 -208 262c0 156 89 259 221 259c52 0 107 -25 141 -64h2v53h125v-484c0 -162 -78 -235 -249 -235
c-65 0 -129 10 -188 32v110c68 -27 117 -38 166 -38c96 0 136 31 136 105v67zM181 262c0 -101 39 -155 109 -155c32 0 66 14 99 42v226c-29 27 -60 40 -97 40c-68 0 -111 -58 -111 -153z" />
    <glyph glyph-name="gcircumflex" unicode="&#x11d;" horiz-adv-x="594" 
d="M236 750h135l95 -173h-89l-75 97l-74 -97h-87zM392 66h-2c-36 -42 -88 -67 -144 -67c-130 0 -208 98 -208 262c0 156 89 259 221 259c52 0 107 -25 141 -64h2v53h125v-484c0 -162 -78 -235 -249 -235c-65 0 -129 10 -188 32v110c68 -27 117 -38 166 -38
c96 0 136 31 136 105v67zM181 262c0 -101 39 -155 109 -155c32 0 66 14 99 42v226c-29 27 -60 40 -97 40c-68 0 -111 -58 -111 -153z" />
    <glyph glyph-name="uni0123" unicode="&#x123;" horiz-adv-x="594" 
d="M454 760v-58c-77 -7 -94 -21 -94 -70c0 -47 -33 -72 -72 -72c-45 0 -72 31 -72 70c0 72 100 130 238 130zM392 66h-2c-36 -42 -88 -67 -144 -67c-130 0 -208 98 -208 262c0 156 89 259 221 259c52 0 107 -25 141 -64h2v53h125v-484c0 -162 -78 -235 -249 -235
c-65 0 -129 10 -188 32v110c68 -27 117 -38 166 -38c96 0 136 31 136 105v67zM181 262c0 -101 39 -155 109 -155c32 0 66 14 99 42v226c-29 27 -60 40 -97 40c-68 0 -111 -58 -111 -153z" />
    <glyph glyph-name="gdotaccent" unicode="&#x121;" horiz-adv-x="594" 
d="M304 741c47 0 83 -34 83 -82c0 -47 -36 -80 -83 -80s-84 33 -84 80c0 48 37 82 84 82zM392 66h-2c-36 -42 -88 -67 -144 -67c-130 0 -208 98 -208 262c0 156 89 259 221 259c52 0 107 -25 141 -64h2v53h125v-484c0 -162 -78 -235 -249 -235c-65 0 -129 10 -188 32v110
c68 -27 117 -38 166 -38c96 0 136 31 136 105v67zM181 262c0 -101 39 -155 109 -155c32 0 66 14 99 42v226c-29 27 -60 40 -97 40c-68 0 -111 -58 -111 -153z" />
    <glyph glyph-name="hbar" unicode="&#x127;" horiz-adv-x="596" 
d="M363 510c126 0 171 -68 171 -194v-316h-136v314c0 60 -33 88 -91 88c-39 0 -76 -14 -102 -37v-365h-138v566h-56v86h56v75h138v-75h127v-86h-127v-118c31 26 92 62 158 62z" />
    <glyph glyph-name="hcircumflex" unicode="&#x125;" horiz-adv-x="596" 
d="M234 952h135l104 -163h-99l-74 85l-74 -85h-96zM396 0v324c0 58 -29 88 -89 88c-39 0 -75 -13 -102 -37v-375h-138v727h138v-269c48 38 109 62 158 62c119 0 171 -58 171 -194v-326h-138z" />
    <glyph glyph-name="dotlessi" unicode="&#x131;" horiz-adv-x="272" 
d="M67 0v509h138v-509h-138z" />
    <glyph glyph-name="iacute" unicode="&#xed;" horiz-adv-x="272" 
d="M146 750h143l-127 -173h-88zM67 0v509h138v-509h-138z" />
    <glyph glyph-name="ibreve" unicode="&#x12d;" horiz-adv-x="272" 
d="M136 660c44 0 66 26 67 89h96c0 -125 -80 -177 -166 -177c-98 0 -160 54 -160 177h97c1 -67 27 -89 66 -89zM67 0v509h138v-509h-138z" />
    <glyph glyph-name="uni01D0" unicode="&#x1d0;" horiz-adv-x="272" 
d="M203 577h-142l-91 173h90l73 -97l75 97h86zM67 0v509h138v-509h-138z" />
    <glyph glyph-name="icircumflex" unicode="&#xee;" horiz-adv-x="272" 
d="M69 750h135l95 -173h-89l-75 97l-74 -97h-87zM67 0v509h138v-509h-138z" />
    <glyph glyph-name="idieresis" unicode="&#xef;" horiz-adv-x="272" 
d="M20 738c45 0 81 -33 81 -80c0 -45 -36 -77 -81 -77c-46 0 -82 32 -82 77c0 47 36 80 82 80zM252 738c45 0 80 -33 80 -80c0 -45 -35 -77 -80 -77c-46 0 -82 32 -82 77c0 47 36 80 82 80zM67 0v509h138v-509h-138z" />
    <glyph glyph-name="i.loclTRK" horiz-adv-x="272" 
d="M137 741c47 0 83 -34 83 -82c0 -47 -36 -80 -83 -80s-84 33 -84 80c0 48 37 82 84 82zM67 0v509h138v-509h-138z" />
    <glyph glyph-name="igrave" unicode="&#xec;" horiz-adv-x="272" 
d="M201 577h-95l-128 173h140zM67 0v509h138v-509h-138z" />
    <glyph glyph-name="ij" unicode="&#x133;" horiz-adv-x="552" 
d="M137 741c47 0 83 -34 83 -82c0 -47 -36 -80 -83 -80s-84 33 -84 80c0 48 37 82 84 82zM417 741c47 0 83 -34 83 -82c0 -47 -36 -80 -83 -80s-84 33 -84 80c0 48 37 82 84 82zM67 0v509h138v-509h-138zM485 -36c0 -130 -71 -174 -178 -174c-25 0 -51 2 -73 7v113
c20 -6 40 -9 57 -9c40 0 56 13 56 50v558h138v-545z" />
    <glyph glyph-name="iacute_j.loclNLD" horiz-adv-x="552" 
d="M138 756h143l-127 -173h-88zM415 756h143l-126 -173h-89zM67 0v509h138v-509h-138zM485 -36c0 -130 -71 -174 -178 -174c-25 0 -51 2 -73 7v113c20 -6 40 -9 57 -9c40 0 56 13 56 50v558h138v-545z" />
    <glyph glyph-name="imacron" unicode="&#x12b;" horiz-adv-x="272" 
d="M285 593h-309v85h309v-85zM67 0v509h138v-509h-138z" />
    <glyph glyph-name="iogonek" unicode="&#x12f;" horiz-adv-x="272" 
d="M137 579c-47 0 -84 33 -84 80c0 48 37 82 84 82s83 -34 83 -82c0 -47 -36 -80 -83 -80zM174 -80c21 0 47 6 65 10v-87c-32 -22 -74 -34 -118 -34c-67 0 -105 29 -105 81c0 60 51 88 105 110h-54v509h138v-509c-47 -23 -66 -39 -66 -59c0 -14 14 -21 35 -21z" />
    <glyph glyph-name="itilde" unicode="&#x129;" horiz-adv-x="272" 
d="M60 723c79 0 90 -49 134 -49c29 0 38 18 38 46h92c-2 -88 -52 -134 -125 -134c-82 0 -95 51 -135 51c-25 0 -37 -15 -37 -48h-93c2 87 47 134 126 134zM67 0v509h138v-509h-138z" />
    <glyph glyph-name="uni0237" unicode="&#x237;" horiz-adv-x="280" 
d="M213 -36c0 -130 -71 -174 -178 -174c-25 0 -51 2 -73 7v113c20 -6 40 -9 57 -9c40 0 56 13 56 50v558h138v-545z" />
    <glyph glyph-name="jcircumflex" unicode="&#x135;" horiz-adv-x="280" 
d="M77 750h135l95 -173h-89l-75 97l-74 -97h-87zM213 -36c0 -130 -71 -174 -178 -174c-25 0 -51 2 -73 7v113c20 -6 40 -9 57 -9c40 0 56 13 56 50v558h138v-545z" />
    <glyph glyph-name="uni0137" unicode="&#x137;" horiz-adv-x="540" 
d="M543 0h-150l-137 218l-51 -53v-165h-138v727h138v-405l162 188h153l-176 -200zM134 -251v58c77 7 94 21 94 70c0 47 33 72 72 72c45 0 72 -31 72 -70c0 -72 -100 -130 -238 -130z" />
    <glyph glyph-name="kgreenlandic" unicode="&#x138;" horiz-adv-x="540" 
d="M543 0h-150l-137 218l-51 -53v-165h-138v509h138v-187l162 188h153l-176 -200z" />
    <glyph glyph-name="lacute" unicode="&#x13a;" horiz-adv-x="290" 
d="M159 952h148l-128 -163h-105zM64 727h138v-606c0 -24 15 -29 32 -29c6 0 16 1 28 5v-94c-35 -11 -60 -15 -86 -15c-70 0 -112 39 -112 117v622z" />
    <glyph glyph-name="lcaron" unicode="&#x13e;" horiz-adv-x="290" 
d="M313 458l-53 35c27 35 44 61 44 87c0 37 -47 34 -47 93c0 34 27 70 73 70c53 0 75 -39 75 -83c0 -60 -34 -137 -92 -202zM64 727h138v-606c0 -24 15 -29 32 -29c6 0 16 1 28 5v-94c-35 -11 -60 -15 -86 -15c-70 0 -112 39 -112 117v622z" />
    <glyph glyph-name="uni013C" unicode="&#x13c;" horiz-adv-x="290" 
d="M64 727h138v-606c0 -24 15 -29 32 -29c6 0 16 1 28 5v-94c-35 -11 -60 -15 -86 -15c-70 0 -112 39 -112 117v622zM24 -251v58c77 7 94 21 94 70c0 47 33 72 72 72c45 0 72 -31 72 -70c0 -72 -100 -130 -238 -130z" />
    <glyph glyph-name="ldot" unicode="&#x140;" horiz-adv-x="461" 
d="M64 727h138v-606c0 -24 15 -29 32 -29c6 0 16 1 28 5v-94c-35 -11 -60 -15 -86 -15c-70 0 -112 39 -112 117v622zM348 408c50 0 87 -36 87 -86c0 -49 -37 -84 -87 -84c-49 0 -89 35 -89 84c0 50 40 86 89 86z" />
    <glyph glyph-name="lslash" unicode="&#x142;" horiz-adv-x="359" 
d="M320 358l-80 -44v-193c0 -24 15 -29 31 -29c7 0 17 1 28 5v-94c-34 -11 -59 -15 -86 -15c-70 0 -111 39 -111 117v146l-67 -38v132l67 37v345h138v-283l80 45v-131z" />
    <glyph glyph-name="nacute" unicode="&#x144;" horiz-adv-x="596" 
d="M317 750h143l-127 -173h-88zM396 0v324c0 58 -29 88 -89 88c-39 0 -75 -13 -102 -37v-375h-138v509h127v-62h2c44 44 102 73 176 73c110 0 162 -65 162 -194v-326h-138z" />
    <glyph glyph-name="ncaron" unicode="&#x148;" horiz-adv-x="596" 
d="M374 577h-142l-91 173h90l73 -97l75 97h86zM396 0v324c0 58 -29 88 -89 88c-39 0 -75 -13 -102 -37v-375h-138v509h127v-62h2c44 44 102 73 176 73c110 0 162 -65 162 -194v-326h-138z" />
    <glyph glyph-name="uni0146" unicode="&#x146;" horiz-adv-x="596" 
d="M396 0v324c0 58 -29 88 -89 88c-39 0 -75 -13 -102 -37v-375h-138v509h127v-62h2c44 44 102 73 176 73c110 0 162 -65 162 -194v-326h-138zM148 -251v58c77 7 94 21 94 70c0 47 33 72 72 72c45 0 72 -31 72 -70c0 -72 -100 -130 -238 -130z" />
    <glyph glyph-name="eng" unicode="&#x14b;" horiz-adv-x="596" 
d="M363 520c126 0 171 -68 171 -194v-296c0 -89 -38 -168 -120 -232l-91 55c38 37 74 98 74 157v314c0 60 -32 88 -90 88c-40 0 -76 -13 -102 -37v-375h-138v509h127v-62h2c38 38 103 73 167 73z" />
    <glyph glyph-name="ntilde" unicode="&#xf1;" horiz-adv-x="596" 
d="M231 723c79 0 90 -49 134 -49c29 0 38 18 38 46h92c-2 -88 -52 -134 -125 -134c-82 0 -95 51 -135 51c-25 0 -37 -15 -37 -48h-93c2 87 47 134 126 134zM396 0v324c0 58 -29 88 -89 88c-39 0 -75 -13 -102 -37v-375h-138v509h127v-62h2c44 44 102 73 176 73
c110 0 162 -65 162 -194v-326h-138z" />
    <glyph glyph-name="oacute" unicode="&#xf3;" horiz-adv-x="598" 
d="M308 750h143l-127 -173h-88zM561 249c0 -154 -113 -264 -269 -264c-153 0 -256 108 -256 269c0 159 107 266 263 266c160 0 262 -106 262 -271zM418 250c0 101 -46 163 -119 163c-72 0 -119 -60 -119 -158c0 -101 46 -162 119 -162c72 0 119 62 119 157z" />
    <glyph glyph-name="obreve" unicode="&#x14f;" horiz-adv-x="598" 
d="M297 660c44 0 66 26 67 89h96c0 -125 -80 -177 -166 -177c-98 0 -160 54 -160 177h97c1 -67 27 -89 66 -89zM561 249c0 -154 -113 -264 -269 -264c-153 0 -256 108 -256 269c0 159 107 266 263 266c160 0 262 -106 262 -271zM418 250c0 101 -46 163 -119 163
c-72 0 -119 -60 -119 -158c0 -101 46 -162 119 -162c72 0 119 62 119 157z" />
    <glyph glyph-name="uni01D2" unicode="&#x1d2;" horiz-adv-x="598" 
d="M364 577h-142l-91 173h90l73 -97l75 97h86zM561 249c0 -154 -113 -264 -269 -264c-153 0 -256 108 -256 269c0 159 107 266 263 266c160 0 262 -106 262 -271zM418 250c0 101 -46 163 -119 163c-72 0 -119 -60 -119 -158c0 -101 46 -162 119 -162c72 0 119 62 119 157z
" />
    <glyph glyph-name="ocircumflex" unicode="&#xf4;" horiz-adv-x="598" 
d="M230 750h135l95 -173h-89l-75 97l-74 -97h-87zM561 249c0 -154 -113 -264 -269 -264c-153 0 -256 108 -256 269c0 159 107 266 263 266c160 0 262 -106 262 -271zM418 250c0 101 -46 163 -119 163c-72 0 -119 -60 -119 -158c0 -101 46 -162 119 -162c72 0 119 62 119 157
z" />
    <glyph glyph-name="odieresis" unicode="&#xf6;" horiz-adv-x="598" 
d="M182 738c45 0 81 -33 81 -80c0 -45 -36 -77 -81 -77c-46 0 -82 32 -82 77c0 47 36 80 82 80zM414 738c45 0 80 -33 80 -80c0 -45 -35 -77 -80 -77c-46 0 -82 32 -82 77c0 47 36 80 82 80zM561 249c0 -154 -113 -264 -269 -264c-153 0 -256 108 -256 269
c0 159 107 266 263 266c160 0 262 -106 262 -271zM418 250c0 101 -46 163 -119 163c-72 0 -119 -60 -119 -158c0 -101 46 -162 119 -162c72 0 119 62 119 157z" />
    <glyph glyph-name="ograve" unicode="&#xf2;" horiz-adv-x="598" 
d="M363 577h-95l-128 173h140zM561 249c0 -154 -113 -264 -269 -264c-153 0 -256 108 -256 269c0 159 107 266 263 266c160 0 262 -106 262 -271zM418 250c0 101 -46 163 -119 163c-72 0 -119 -60 -119 -158c0 -101 46 -162 119 -162c72 0 119 62 119 157z" />
    <glyph glyph-name="ohungarumlaut" unicode="&#x151;" horiz-adv-x="598" 
d="M237 750h122l-87 -173h-87zM415 750h126l-116 -173h-86zM561 249c0 -154 -113 -264 -269 -264c-153 0 -256 108 -256 269c0 159 107 266 263 266c160 0 262 -106 262 -271zM418 250c0 101 -46 163 -119 163c-72 0 -119 -60 -119 -158c0 -101 46 -162 119 -162
c72 0 119 62 119 157z" />
    <glyph glyph-name="omacron" unicode="&#x14d;" horiz-adv-x="598" 
d="M446 593h-309v85h309v-85zM561 249c0 -154 -113 -264 -269 -264c-153 0 -256 108 -256 269c0 159 107 266 263 266c160 0 262 -106 262 -271zM418 250c0 101 -46 163 -119 163c-72 0 -119 -60 -119 -158c0 -101 46 -162 119 -162c72 0 119 62 119 157z" />
    <glyph glyph-name="oslash" unicode="&#xf8;" horiz-adv-x="598" 
d="M474 461c55 -47 87 -120 87 -212c0 -154 -113 -264 -269 -264c-34 0 -65 5 -93 15l-46 -78h-100l71 120c-55 48 -88 121 -88 212c0 159 107 266 263 266c37 0 70 -6 100 -16l46 77h100zM299 419c-77 0 -127 -62 -127 -164c0 -42 8 -77 22 -104l154 258
c-15 7 -31 10 -49 10zM299 87c77 0 127 64 127 163c0 41 -8 76 -21 103l-154 -257c14 -6 30 -9 48 -9z" />
    <glyph glyph-name="oslashacute" unicode="&#x1ff;" horiz-adv-x="598" 
d="M448 750l-127 -173h-88l72 173h143zM474 461c55 -47 87 -120 87 -212c0 -154 -113 -264 -269 -264c-34 0 -65 5 -93 15l-46 -78h-100l71 120c-55 48 -88 121 -88 212c0 159 107 266 263 266c37 0 70 -6 100 -16l46 77h100zM299 419c-77 0 -127 -62 -127 -164
c0 -42 8 -77 22 -104l154 258c-15 7 -31 10 -49 10zM299 87c77 0 127 64 127 163c0 41 -8 76 -21 103l-154 -257c14 -6 30 -9 48 -9z" />
    <glyph glyph-name="otilde" unicode="&#xf5;" horiz-adv-x="598" 
d="M222 723c79 0 90 -49 134 -49c29 0 38 18 38 46h92c-2 -88 -52 -134 -125 -134c-82 0 -95 51 -135 51c-25 0 -37 -15 -37 -48h-93c2 87 47 134 126 134zM561 249c0 -154 -113 -264 -269 -264c-153 0 -256 108 -256 269c0 159 107 266 263 266c160 0 262 -106 262 -271z
M418 250c0 101 -46 163 -119 163c-72 0 -119 -60 -119 -158c0 -101 46 -162 119 -162c72 0 119 62 119 157z" />
    <glyph glyph-name="oe" unicode="&#x153;" horiz-adv-x="906" 
d="M299 520c81 0 144 -28 186 -78c37 49 93 78 167 78c144 0 215 -99 215 -248v-55h-310c2 -89 56 -127 141 -127c58 0 107 17 152 36v-104c-38 -18 -104 -37 -175 -37c-80 0 -147 27 -190 83c-44 -52 -112 -83 -193 -83c-153 0 -256 108 -256 269c0 159 107 266 263 266z
M656 415c-64 0 -96 -46 -99 -113h184c0 68 -28 113 -85 113zM299 413c-72 0 -119 -60 -119 -158c0 -101 46 -162 119 -162c72 0 119 62 119 157c0 101 -46 163 -119 163z" />
    <glyph glyph-name="thorn" unicode="&#xfe;" horiz-adv-x="602" 
d="M205 727v-269h1c41 41 91 62 147 62c130 0 211 -97 211 -257c0 -165 -93 -277 -228 -277c-47 0 -91 18 -128 48h-3v-239h-138v932h138zM420 261c0 96 -44 153 -116 153c-36 0 -69 -11 -99 -34v-251c31 -24 65 -37 102 -37c68 0 113 67 113 169z" />
    <glyph glyph-name="racute" unicode="&#x155;" horiz-adv-x="397" 
d="M223 750h143l-127 -173h-88zM381 388c-64 0 -132 -21 -176 -56v-332h-138v509h127v-93h3c68 79 113 104 184 104v-132z" />
    <glyph glyph-name="rcaron" unicode="&#x159;" horiz-adv-x="397" 
d="M280 577h-142l-91 173h90l73 -97l75 97h86zM381 388c-64 0 -132 -21 -176 -56v-332h-138v509h127v-93h3c68 79 113 104 184 104v-132z" />
    <glyph glyph-name="uni0157" unicode="&#x157;" horiz-adv-x="397" 
d="M381 388c-64 0 -132 -21 -176 -56v-332h-138v509h127v-93h3c68 79 113 104 184 104v-132zM34 -251v58c77 7 94 21 94 70c0 47 33 72 72 72c45 0 72 -31 72 -70c0 -72 -100 -130 -238 -130z" />
    <glyph glyph-name="sacute" unicode="&#x15b;" horiz-adv-x="428" 
d="M230 750h143l-127 -173h-88zM393 147c0 -115 -90 -162 -203 -162c-41 0 -98 7 -145 27v105c42 -19 82 -34 130 -34c49 0 81 15 81 56c0 88 -211 47 -211 225c0 111 81 156 190 156c55 0 102 -12 131 -24v-103c-38 19 -77 29 -113 29c-44 0 -75 -15 -75 -51
c0 -88 215 -52 215 -224z" />
    <glyph glyph-name="scaron" unicode="&#x161;" horiz-adv-x="428" 
d="M287 577h-142l-91 173h90l73 -97l75 97h86zM393 147c0 -115 -90 -162 -203 -162c-41 0 -98 7 -145 27v105c42 -19 82 -34 130 -34c49 0 81 15 81 56c0 88 -211 47 -211 225c0 111 81 156 190 156c55 0 102 -12 131 -24v-103c-38 19 -77 29 -113 29c-44 0 -75 -15 -75 -51
c0 -88 215 -52 215 -224z" />
    <glyph glyph-name="scedilla" unicode="&#x15f;" horiz-adv-x="428" 
d="M393 147c0 -94 -61 -143 -145 -157c43 -40 67 -77 67 -114c0 -69 -59 -90 -116 -90c-26 0 -52 4 -71 11v73c19 -6 36 -9 55 -9c16 0 28 7 28 29c0 21 -11 52 -44 96c-37 2 -83 9 -122 26v105c42 -19 82 -34 130 -34c49 0 81 15 81 56c0 88 -211 47 -211 225
c0 111 81 156 190 156c55 0 102 -12 131 -24v-103c-38 19 -77 29 -113 29c-44 0 -75 -15 -75 -51c0 -88 215 -52 215 -224z" />
    <glyph glyph-name="scircumflex" unicode="&#x15d;" horiz-adv-x="428" 
d="M153 750h135l95 -173h-89l-75 97l-74 -97h-87zM393 147c0 -115 -90 -162 -203 -162c-41 0 -98 7 -145 27v105c42 -19 82 -34 130 -34c49 0 81 15 81 56c0 88 -211 47 -211 225c0 111 81 156 190 156c55 0 102 -12 131 -24v-103c-38 19 -77 29 -113 29
c-44 0 -75 -15 -75 -51c0 -88 215 -52 215 -224z" />
    <glyph glyph-name="uni0219" unicode="&#x219;" horiz-adv-x="428" 
d="M393 147c0 -115 -90 -162 -203 -162c-41 0 -98 7 -145 27v105c42 -19 82 -34 130 -34c49 0 81 15 81 56c0 88 -211 47 -211 225c0 111 81 156 190 156c55 0 102 -12 131 -24v-103c-38 19 -77 29 -113 29c-44 0 -75 -15 -75 -51c0 -88 215 -52 215 -224zM62 -251v58
c77 7 94 21 94 70c0 47 33 72 72 72c45 0 72 -31 72 -70c0 -72 -100 -130 -238 -130z" />
    <glyph glyph-name="germandbls" unicode="&#xdf;" horiz-adv-x="611" 
d="M311 741c128 0 232 -64 232 -173c0 -68 -44 -143 -167 -159v-4c132 -13 199 -85 199 -196c0 -137 -86 -224 -239 -224c-29 0 -63 4 -89 12l-1 99c20 -8 47 -10 72 -10c78 0 115 52 115 129s-53 133 -151 133h-20v101h30c64 0 117 33 117 100c0 54 -44 85 -99 85
c-56 0 -110 -35 -110 -112v-522h-133v501c0 166 112 240 244 240z" />
    <glyph glyph-name="longs" unicode="&#x17f;" horiz-adv-x="292" 
d="M67 570c0 112 67 172 190 172c34 0 65 -4 93 -11v-106c-31 7 -48 9 -66 9c-57 0 -79 -31 -79 -84v-550h-138v570z" />
    <glyph glyph-name="uni0259" unicode="&#x259;" horiz-adv-x="526" 
d="M254 -11c-144 0 -215 99 -215 248v55h310c-2 93 -55 127 -141 127c-58 0 -107 -17 -152 -36v104c39 18 104 37 175 37c144 0 258 -83 258 -269c0 -152 -85 -266 -235 -266zM250 94c65 0 97 46 99 113h-184c0 -68 28 -113 85 -113z" />
    <glyph glyph-name="tbar" unicode="&#x167;" horiz-adv-x="408" 
d="M306 93c28 0 55 7 75 13v-105c-22 -6 -69 -16 -115 -16c-104 0 -162 52 -162 162v70h-69v92h69v101h-83v99h83v142h138v-142h136v-99h-136v-101h125v-92h-125v-69c0 -39 22 -55 64 -55z" />
    <glyph glyph-name="tcaron" unicode="&#x165;" horiz-adv-x="402" 
d="M341 543l-49 33c25 33 40 57 40 82c0 35 -44 32 -44 87c0 32 26 66 69 66c50 0 71 -37 71 -79c0 -56 -32 -128 -87 -189zM237 148c0 -39 23 -55 64 -55c29 0 56 7 75 13v-105c-21 -6 -69 -16 -114 -16c-104 0 -163 52 -163 162v263h-82v99h82v142h138v-142h137v-99h-137
v-262z" />
    <glyph glyph-name="uni021B" unicode="&#x21b;" horiz-adv-x="402" 
d="M237 148c0 -39 23 -55 64 -55c29 0 56 7 75 13v-105c-21 -6 -69 -16 -114 -16c-104 0 -163 52 -163 162v263h-82v99h82v142h138v-142h137v-99h-137v-262zM97 -251v58c77 7 94 21 94 70c0 47 33 72 72 72c45 0 72 -31 72 -70c0 -72 -100 -130 -238 -130z" />
    <glyph glyph-name="uni0163" unicode="&#x163;" horiz-adv-x="402" 
d="M376 106v-105c-19 -5 -58 -14 -98 -16c39 -37 62 -73 62 -110c0 -68 -58 -89 -116 -89c-26 0 -51 4 -70 10v74c18 -6 35 -9 54 -9c17 0 28 7 28 29c0 23 -13 58 -53 108c-54 22 -84 71 -84 149v263h-82v99h82v142h138v-142h137v-99h-137v-262c0 -39 23 -55 64 -55
c29 0 56 7 75 13z" />
    <glyph glyph-name="uacute" unicode="&#xfa;" horiz-adv-x="597" 
d="M309 750h143l-127 -173h-88zM200 509v-324c0 -57 33 -88 93 -88c38 0 74 14 99 36v376h138v-509h-127v61h-3c-41 -43 -107 -72 -164 -72c-119 0 -174 62 -174 194v326h138z" />
    <glyph glyph-name="ubreve" unicode="&#x16d;" horiz-adv-x="597" 
d="M299 660c44 0 66 26 67 89h96c0 -125 -80 -177 -166 -177c-98 0 -160 54 -160 177h97c1 -67 27 -89 66 -89zM200 509v-324c0 -57 33 -88 93 -88c38 0 74 14 99 36v376h138v-509h-127v61h-3c-41 -43 -107 -72 -164 -72c-119 0 -174 62 -174 194v326h138z" />
    <glyph glyph-name="uni01D4" unicode="&#x1d4;" horiz-adv-x="597" 
d="M366 577h-142l-91 173h90l73 -97l75 97h86zM200 509v-324c0 -57 33 -88 93 -88c38 0 74 14 99 36v376h138v-509h-127v61h-3c-41 -43 -107 -72 -164 -72c-119 0 -174 62 -174 194v326h138z" />
    <glyph glyph-name="ucircumflex" unicode="&#xfb;" horiz-adv-x="597" 
d="M232 750h135l95 -173h-89l-75 97l-74 -97h-87zM200 509v-324c0 -57 33 -88 93 -88c38 0 74 14 99 36v376h138v-509h-127v61h-3c-41 -43 -107 -72 -164 -72c-119 0 -174 62 -174 194v326h138z" />
    <glyph glyph-name="udieresis" unicode="&#xfc;" horiz-adv-x="597" 
d="M183 738c45 0 81 -33 81 -80c0 -45 -36 -77 -81 -77c-46 0 -82 32 -82 77c0 47 36 80 82 80zM415 738c45 0 80 -33 80 -80c0 -45 -35 -77 -80 -77c-46 0 -82 32 -82 77c0 47 36 80 82 80zM200 509v-324c0 -57 33 -88 93 -88c38 0 74 14 99 36v376h138v-509h-127v61h-3
c-41 -43 -107 -72 -164 -72c-119 0 -174 62 -174 194v326h138z" />
    <glyph glyph-name="ugrave" unicode="&#xf9;" horiz-adv-x="597" 
d="M364 577h-95l-128 173h140zM200 509v-324c0 -57 33 -88 93 -88c38 0 74 14 99 36v376h138v-509h-127v61h-3c-41 -43 -107 -72 -164 -72c-119 0 -174 62 -174 194v326h138z" />
    <glyph glyph-name="uhungarumlaut" unicode="&#x171;" horiz-adv-x="597" 
d="M239 750h122l-87 -173h-87zM417 750h126l-116 -173h-86zM200 509v-324c0 -57 33 -88 93 -88c38 0 74 14 99 36v376h138v-509h-127v61h-3c-41 -43 -107 -72 -164 -72c-119 0 -174 62 -174 194v326h138z" />
    <glyph glyph-name="umacron" unicode="&#x16b;" horiz-adv-x="597" 
d="M448 593h-309v85h309v-85zM200 509v-324c0 -57 33 -88 93 -88c38 0 74 14 99 36v376h138v-509h-127v61h-3c-41 -43 -107 -72 -164 -72c-119 0 -174 62 -174 194v326h138z" />
    <glyph glyph-name="uogonek" unicode="&#x173;" horiz-adv-x="597" 
d="M486 -88c21 0 48 7 63 11v-88c-32 -21 -74 -33 -118 -33c-67 0 -105 28 -105 89c0 43 26 83 77 109v61h-3c-41 -43 -107 -72 -164 -72c-119 0 -174 62 -174 194v326h138v-324c0 -57 33 -88 93 -88c38 0 74 14 99 36v376h138v-509c-60 -8 -81 -40 -81 -61
c0 -17 14 -27 37 -27z" />
    <glyph glyph-name="uring" unicode="&#x16f;" horiz-adv-x="597" 
d="M419 675c0 -67 -47 -101 -119 -101c-75 0 -120 34 -120 101c0 69 48 102 120 102c75 0 119 -34 119 -102zM347 675c0 31 -18 49 -47 49s-46 -18 -46 -49s17 -49 46 -49s47 18 47 49zM200 509v-324c0 -57 33 -88 93 -88c38 0 74 14 99 36v376h138v-509h-127v61h-3
c-41 -43 -107 -72 -164 -72c-119 0 -174 62 -174 194v326h138z" />
    <glyph glyph-name="utilde" unicode="&#x169;" horiz-adv-x="597" 
d="M223 723c79 0 90 -49 134 -49c29 0 38 18 38 46h92c-2 -88 -52 -134 -125 -134c-82 0 -95 51 -135 51c-25 0 -37 -15 -37 -48h-93c2 87 47 134 126 134zM200 509v-324c0 -57 33 -88 93 -88c38 0 74 14 99 36v376h138v-509h-127v61h-3c-41 -43 -107 -72 -164 -72
c-119 0 -174 62 -174 194v326h138z" />
    <glyph glyph-name="wacute" unicode="&#x1e83;" horiz-adv-x="759" 
d="M392 750h143l-127 -173h-88zM156 0l-141 509h138l80 -333h1l92 333h116l93 -333h1l77 333h131l-141 -509h-140l-81 296h-3l-84 -296h-139z" />
    <glyph glyph-name="wcircumflex" unicode="&#x175;" horiz-adv-x="759" 
d="M315 750h135l95 -173h-89l-75 97l-74 -97h-87zM156 0l-141 509h138l80 -333h1l92 333h116l93 -333h1l77 333h131l-141 -509h-140l-81 296h-3l-84 -296h-139z" />
    <glyph glyph-name="wdieresis" unicode="&#x1e85;" horiz-adv-x="759" 
d="M266 738c45 0 81 -33 81 -80c0 -45 -36 -77 -81 -77c-46 0 -82 32 -82 77c0 47 36 80 82 80zM498 738c45 0 80 -33 80 -80c0 -45 -35 -77 -80 -77c-46 0 -82 32 -82 77c0 47 36 80 82 80zM156 0l-141 509h138l80 -333h1l92 333h116l93 -333h1l77 333h131l-141 -509h-140
l-81 296h-3l-84 -296h-139z" />
    <glyph glyph-name="wgrave" unicode="&#x1e81;" horiz-adv-x="759" 
d="M447 577h-95l-128 173h140zM156 0l-141 509h138l80 -333h1l92 333h116l93 -333h1l77 333h131l-141 -509h-140l-81 296h-3l-84 -296h-139z" />
    <glyph glyph-name="yacute" unicode="&#xfd;" horiz-adv-x="536" 
d="M279 750h143l-127 -173h-88zM341 -14c-50 -142 -119 -194 -238 -194c-38 0 -61 3 -90 9v116c36 -15 55 -18 87 -18c58 0 82 27 99 80l-187 530h136l124 -366h3l122 366h129z" />
    <glyph glyph-name="ycircumflex" unicode="&#x177;" horiz-adv-x="536" 
d="M201 750h135l95 -173h-89l-75 97l-74 -97h-87zM341 -14c-50 -142 -119 -194 -238 -194c-38 0 -61 3 -90 9v116c36 -15 55 -18 87 -18c58 0 82 27 99 80l-187 530h136l124 -366h3l122 366h129z" />
    <glyph glyph-name="ydieresis" unicode="&#xff;" horiz-adv-x="536" 
d="M153 738c45 0 81 -33 81 -80c0 -45 -36 -77 -81 -77c-46 0 -82 32 -82 77c0 47 36 80 82 80zM385 738c45 0 80 -33 80 -80c0 -45 -35 -77 -80 -77c-46 0 -82 32 -82 77c0 47 36 80 82 80zM341 -14c-50 -142 -119 -194 -238 -194c-38 0 -61 3 -90 9v116
c36 -15 55 -18 87 -18c58 0 82 27 99 80l-187 530h136l124 -366h3l122 366h129z" />
    <glyph glyph-name="ygrave" unicode="&#x1ef3;" horiz-adv-x="536" 
d="M334 577h-95l-128 173h140zM341 -14c-50 -142 -119 -194 -238 -194c-38 0 -61 3 -90 9v116c36 -15 55 -18 87 -18c58 0 82 27 99 80l-187 530h136l124 -366h3l122 366h129z" />
    <glyph glyph-name="uni0233" unicode="&#x233;" horiz-adv-x="536" 
d="M418 593h-309v85h309v-85zM341 -14c-50 -142 -119 -194 -238 -194c-38 0 -61 3 -90 9v116c36 -15 55 -18 87 -18c58 0 82 27 99 80l-187 530h136l124 -366h3l122 366h129z" />
    <glyph glyph-name="zacute" unicode="&#x17a;" horiz-adv-x="490" 
d="M260 750h143l-127 -173h-88zM38 0v99l245 310h-238v100h402v-87l-254 -320h264v-102h-419z" />
    <glyph glyph-name="zcaron" unicode="&#x17e;" horiz-adv-x="490" 
d="M317 577h-142l-91 173h90l73 -97l75 97h86zM38 0v99l245 310h-238v100h402v-87l-254 -320h264v-102h-419z" />
    <glyph glyph-name="zdotaccent" unicode="&#x17c;" horiz-adv-x="490" 
d="M251 741c47 0 83 -34 83 -82c0 -47 -36 -80 -83 -80s-84 33 -84 80c0 48 37 82 84 82zM38 0v99l245 310h-238v100h402v-87l-254 -320h264v-102h-419z" />
    <glyph glyph-name="fi" unicode="&#xfb01;" horiz-adv-x="628" 
d="M437 0v410h-198v-410h-138v410h-80v99h80v51c0 127 97 180 248 180c75 0 137 -13 183 -25v-105c-52 14 -122 24 -177 24c-75 0 -116 -22 -116 -75v-50h336v-509h-138z" />
    <glyph glyph-name="fl" unicode="&#xfb02;" horiz-adv-x="663" 
d="M607 92c8 0 16 1 27 5v-94c-34 -11 -59 -15 -86 -15c-69 0 -111 39 -111 117v523c-29 4 -66 6 -94 6c-60 0 -104 -19 -104 -79v-46h118v-99h-118v-410h-138v410h-80v99h80v64c0 116 98 169 241 169c75 0 185 -14 233 -27v-594c0 -24 15 -29 32 -29z" />
    <glyph glyph-name="quotesinglbase.sc" horiz-adv-x="250" 
d="M105 -153l-59 36c30 39 49 70 49 88c0 47 -52 44 -52 110c0 44 31 77 82 77c60 0 83 -34 83 -93c0 -56 -37 -145 -103 -218z" />
    <glyph glyph-name="quotedblbase.sc" horiz-adv-x="464" 
d="M110 -153l-60 36c30 39 50 70 50 88c0 47 -53 44 -53 110c0 44 31 77 82 77c61 0 84 -34 84 -93c0 -56 -37 -145 -103 -218zM304 -153l-59 36c30 39 49 70 49 88c0 47 -52 44 -52 110c0 44 31 77 81 77c61 0 84 -34 84 -93c0 -56 -37 -145 -103 -218z" />
    <glyph glyph-name="zero" unicode="0" horiz-adv-x="622" 
d="M578 340c0 -202 -74 -355 -265 -355c-194 0 -269 150 -269 355c0 202 75 352 268 352c195 0 266 -150 266 -352zM432 334c0 165 -36 238 -120 238c-88 0 -121 -77 -121 -229c0 -176 38 -238 120 -238c87 0 121 74 121 229z" />
    <glyph glyph-name="one" unicode="1" horiz-adv-x="372" 
d="M297 0h-144v542l-134 -16v99l150 52h128v-677z" />
    <glyph glyph-name="two" unicode="2" horiz-adv-x="545" 
d="M47 647c64 29 127 45 201 45c137 0 236 -61 236 -201c0 -116 -78 -209 -178 -293l-87 -73v-2h291v-123h-470v111l152 140c108 100 147 169 147 232c0 69 -50 94 -110 94c-65 0 -131 -23 -182 -48v118z" />
    <glyph glyph-name="three" unicode="3" horiz-adv-x="520" 
d="M113 415h40c85 0 156 21 156 84c0 57 -46 80 -114 80c-51 0 -101 -10 -146 -25v110c49 18 108 27 178 27c131 0 227 -48 227 -165c0 -74 -42 -140 -133 -157v-4c97 -19 159 -73 159 -167c0 -139 -118 -212 -290 -212c-57 0 -109 8 -149 21v113c46 -14 90 -20 139 -20
c104 0 153 39 153 101c0 71 -58 99 -169 99h-51v115z" />
    <glyph glyph-name="four" unicode="4" horiz-adv-x="563" 
d="M164 266h150l32 165h105v-165h89v-119h-89v-147h-137v147h-287v130l185 400h137z" />
    <glyph glyph-name="five" unicode="5" horiz-adv-x="517" 
d="M69 677h380v-123h-243v-127c7 1 21 1 32 1c162 0 245 -77 245 -204c0 -148 -113 -238 -294 -238c-51 0 -103 6 -145 26v113c42 -16 86 -25 132 -25c116 0 159 52 159 116c0 76 -54 118 -171 118c-28 0 -61 -3 -95 -8v351z" />
    <glyph glyph-name="six" unicode="6" horiz-adv-x="561" 
d="M314 438c140 0 216 -70 216 -216c0 -136 -90 -236 -240 -236c-201 0 -245 170 -245 327c0 241 88 379 309 379c44 0 88 -7 117 -16v-112c-42 11 -84 18 -119 18c-111 0 -160 -58 -169 -173c40 18 85 29 131 29zM295 97c60 0 95 42 95 117c0 63 -19 117 -106 117
c-40 0 -73 -12 -101 -28v-43c0 -108 36 -163 112 -163z" />
    <glyph glyph-name="seven" unicode="7" horiz-adv-x="478" 
d="M454 555c-109 -151 -186 -404 -201 -555h-144c21 198 95 403 210 554h-299v123h434v-122z" />
    <glyph glyph-name="eight" unicode="8" horiz-adv-x="564" 
d="M502 526c0 -76 -45 -128 -112 -164c69 -34 133 -79 133 -173c0 -118 -97 -204 -250 -204c-143 0 -231 78 -231 183c0 86 54 139 121 173c-57 34 -103 82 -103 162c0 136 116 189 227 189c109 0 215 -52 215 -166zM197 516c0 -52 46 -82 108 -115c47 30 70 74 70 112
c0 49 -40 78 -90 78s-88 -26 -88 -75zM383 171c0 61 -72 95 -139 123c-46 -29 -72 -66 -72 -109c0 -63 46 -91 107 -91c64 0 104 30 104 77z" />
    <glyph glyph-name="nine" unicode="9" horiz-adv-x="560" 
d="M273 691c199 0 243 -171 243 -329c0 -236 -89 -376 -308 -376c-47 0 -90 6 -119 15v112c42 -11 83 -18 120 -18c110 0 159 60 168 173c-40 -17 -85 -29 -129 -29c-127 0 -218 72 -218 216c0 138 92 236 243 236zM266 580c-60 0 -96 -43 -96 -118c0 -66 30 -115 107 -115
c36 0 70 11 101 27v30c0 118 -27 176 -112 176z" />
    <glyph glyph-name="paragraph" unicode="&#xb6;" horiz-adv-x="636" 
d="M27 428c0 150 123 249 269 249h259v-831h-110v747h-58v-747h-110v337c-136 6 -250 98 -250 245z" />
    <glyph glyph-name="ampersand" unicode="&#x26;" horiz-adv-x="691" 
d="M637 93c11 0 26 2 37 6v-98c-21 -9 -43 -14 -65 -14c-51 0 -100 24 -143 57c-56 -39 -124 -57 -198 -57c-163 0 -231 85 -231 201c0 100 50 149 110 181c-38 58 -51 103 -51 152c0 92 65 171 196 171c115 0 180 -62 180 -158c0 -101 -83 -141 -163 -178
c35 -37 83 -83 150 -144c23 44 37 100 37 168h115c-4 -105 -27 -186 -63 -247c31 -24 59 -40 89 -40zM219 511c0 -26 6 -52 37 -93c52 23 93 50 93 105c0 45 -27 65 -62 65c-41 0 -68 -30 -68 -77zM158 209c0 -66 46 -115 124 -115c33 0 66 9 96 28
c-76 70 -133 127 -175 175c-27 -22 -45 -50 -45 -88z" />
    <glyph glyph-name="ampersand.sc" horiz-adv-x="593" 
d="M541 89c8 0 21 2 31 5v-92c-19 -8 -39 -13 -57 -13c-44 0 -84 19 -119 44c-47 -30 -104 -44 -165 -44c-139 0 -194 72 -194 166c0 80 40 120 88 147c-31 47 -41 83 -41 122c0 74 55 142 168 142c99 0 153 -52 153 -132c0 -78 -63 -113 -127 -143c27 -26 64 -60 113 -103
c16 33 25 74 26 123h107c-3 -82 -21 -146 -49 -194c22 -17 44 -28 66 -28zM198 414c0 -19 4 -37 28 -67c39 17 68 38 68 77c0 33 -21 46 -45 46c-32 0 -51 -22 -51 -56zM148 176c0 -46 33 -87 96 -87c23 0 46 5 68 17c-57 52 -101 94 -134 131c-18 -16 -30 -36 -30 -61z" />
    <glyph glyph-name="at" unicode="@" horiz-adv-x="794" 
d="M407 439c90 0 145 -39 145 -139v-151c0 -14 9 -20 23 -20c42 0 77 57 77 146c0 166 -116 241 -247 241c-138 0 -260 -85 -260 -267c0 -187 131 -268 284 -268c65 0 130 14 185 39v-83c-55 -21 -112 -38 -193 -38c-200 0 -380 105 -380 344c0 214 145 355 369 355
c220 0 345 -136 345 -303c0 -132 -77 -243 -189 -243c-42 0 -74 16 -88 48c-27 -31 -65 -48 -109 -48c-80 0 -124 53 -124 117c0 88 82 118 170 118h38v17c0 52 -24 62 -66 62c-25 0 -57 -4 -101 -16v69c47 13 84 20 121 20zM346 173c0 -35 22 -51 52 -51c20 0 40 6 55 17
v88h-34c-44 0 -73 -19 -73 -54z" />
    <glyph glyph-name="at.sc" horiz-adv-x="657" 
d="M336 424c76 0 122 -31 122 -113v-117c0 -9 8 -13 18 -13c32 0 58 41 58 110c0 131 -92 189 -197 189c-109 0 -208 -64 -208 -207c0 -148 105 -210 228 -210c53 0 107 11 151 32v-73c-44 -16 -91 -30 -157 -30c-165 0 -312 82 -312 275c0 172 118 285 302 285
c181 0 283 -109 283 -244c0 -106 -64 -193 -156 -193c-36 0 -63 12 -75 38c-20 -25 -52 -38 -88 -38c-67 0 -102 44 -102 94c0 70 68 95 139 95h29v11c0 39 -18 46 -57 46c-20 0 -42 -2 -76 -12v60c38 10 68 15 98 15zM291 210c0 -23 16 -35 39 -35c14 0 30 4 41 11v65h-25
c-33 0 -55 -13 -55 -41z" />
    <glyph glyph-name="at.cap" horiz-adv-x="785" 
d="M407 523c89 0 145 -39 145 -140v-151c0 -13 9 -19 23 -19c42 0 76 57 76 146c0 166 -116 240 -246 240c-138 0 -261 -84 -261 -266c0 -187 131 -268 285 -268c65 0 130 14 184 39v-83c-54 -21 -111 -38 -192 -38c-201 0 -380 105 -380 344c0 214 145 355 369 355
c220 0 344 -136 344 -303c0 -132 -77 -243 -189 -243c-42 0 -73 16 -87 48c-28 -31 -65 -48 -110 -48c-79 0 -123 53 -123 117c0 88 82 118 169 118h38v16c0 53 -23 63 -65 63c-26 0 -58 -4 -101 -16v69c46 13 83 20 121 20zM345 257c0 -35 22 -51 53 -51c19 0 39 6 54 17
v88h-34c-43 0 -73 -19 -73 -54z" />
    <glyph glyph-name="at.ss13" horiz-adv-x="795" 
d="M553 151c0 -17 14 -22 27 -22c42 0 76 71 76 149c0 120 -87 238 -243 238c-144 0 -265 -87 -265 -267c0 -187 131 -270 288 -270c57 0 120 13 179 34v-76c-49 -23 -113 -38 -190 -38c-204 0 -382 108 -382 347c0 209 143 352 369 352c218 0 345 -133 345 -306
c0 -153 -90 -239 -187 -239c-42 0 -76 16 -92 48c-24 -29 -63 -50 -109 -50c-98 0 -142 88 -142 187c0 107 49 196 148 196c47 0 76 -20 96 -45h1l10 37h71v-275zM320 240c0 -69 29 -114 79 -114c22 0 49 10 66 27v178c-21 22 -46 30 -67 30c-50 0 -78 -55 -78 -121z" />
    <glyph glyph-name="copyright" unicode="&#xa9;" horiz-adv-x="776" 
d="M738 333c0 -191 -156 -350 -349 -350c-196 0 -351 163 -351 353c0 194 162 346 352 346c195 0 348 -160 348 -349zM684 332c0 163 -131 304 -295 304c-161 0 -297 -133 -297 -302c0 -165 130 -304 295 -304c164 0 297 138 297 302zM502 449c-25 7 -50 11 -73 11
c-72 0 -124 -40 -124 -125c0 -83 53 -123 129 -123c26 0 51 4 78 12v-89c-30 -9 -63 -15 -97 -15c-128 0 -223 73 -223 211c0 150 104 217 221 217c33 0 63 -6 89 -14v-85z" />
    <glyph glyph-name="copyright.sc" horiz-adv-x="657" 
d="M620 267c0 -155 -130 -282 -290 -282c-164 0 -293 131 -293 284c0 157 135 279 293 279c163 0 290 -129 290 -281zM571 266c0 128 -107 239 -242 239c-130 0 -242 -103 -242 -238c0 -130 106 -239 241 -239c134 0 243 108 243 238zM426 348c-20 5 -40 8 -60 8
c-53 0 -97 -23 -97 -89c0 -62 45 -86 102 -86c21 0 43 2 63 8v-84c-26 -6 -53 -10 -81 -10c-101 0 -190 52 -190 169c0 126 91 174 187 174c27 0 52 -3 76 -10v-80z" />
    <glyph glyph-name="trademark" unicode="&#x2122;" horiz-adv-x="820" 
d="M214 607v-267h-84v267h-100v70h285l-4 -70h-97zM517 340l-86 175h-4l2 -87l-6 -88h-88l20 337h96l95 -210h2l93 210h99l21 -337h-94l-5 78l3 97h-6l-81 -175h-61z" />
    <glyph glyph-name="trademark.sc" horiz-adv-x="702" 
d="M191 476v-208h-80v208h-80v66h243l-5 -66h-78zM439 269l-63 129h-4l2 -80l-3 -50h-83l16 274h91l71 -155h2l69 155h94l17 -274h-88l-4 53l4 77h-5l-59 -129h-57z" />
    <glyph glyph-name="registered" unicode="&#xae;" horiz-adv-x="515" 
d="M260 692c120 0 214 -96 214 -215c0 -121 -98 -219 -220 -219c-119 0 -213 94 -213 214c0 122 98 220 219 220zM258 653c-95 0 -172 -82 -172 -179c0 -95 76 -177 171 -177c94 0 172 79 172 176c0 96 -77 180 -171 180zM271 594c57 0 80 -29 80 -71c0 -28 -14 -49 -33 -62
l46 -102h-76l-26 77h-20v-77h-67v235h96zM261 541h-19v-53h18c17 0 27 9 27 28c0 16 -8 25 -26 25z" />
    <glyph glyph-name="registered.sc" horiz-adv-x="657" 
d="M330 548c163 0 290 -129 290 -281c0 -155 -130 -282 -290 -282c-164 0 -293 131 -293 284c0 157 135 279 293 279zM329 505c-130 0 -242 -103 -242 -238c0 -130 106 -239 241 -239c134 0 243 108 243 238c0 128 -107 239 -242 239zM334 428c82 0 121 -40 121 -100
c0 -34 -11 -61 -38 -85l60 -141h-103l-40 108h-26v-108h-97v326h123zM330 352h-22v-74h23c24 0 35 15 35 39c0 17 -9 35 -36 35z" />
    <glyph glyph-name="registered.ss13" horiz-adv-x="776" 
d="M390 682c195 0 348 -160 348 -349c0 -191 -157 -350 -349 -350c-196 0 -351 163 -351 353c0 194 162 346 352 346zM389 636c-161 0 -297 -133 -297 -302c0 -165 130 -304 295 -304c164 0 297 138 297 302c0 163 -131 304 -295 304zM403 535c99 0 133 -56 133 -125
c0 -44 -17 -78 -46 -105l78 -177h-120l-54 140h-34v-140h-106v407h149zM391 447h-31v-93h29c30 0 43 19 43 49c0 23 -10 44 -41 44z" />
    <glyph glyph-name="uni2117" unicode="&#x2117;" horiz-adv-x="776" 
d="M738 333c0 -191 -156 -350 -349 -350c-196 0 -351 163 -351 353c0 194 162 346 352 346c195 0 348 -160 348 -349zM684 332c0 163 -131 304 -295 304c-161 0 -297 -133 -297 -302c0 -165 130 -304 295 -304c164 0 297 138 297 302zM558 396c0 -92 -55 -145 -158 -145h-9
v-123h-105v407h115c88 0 157 -35 157 -139zM455 392c0 35 -14 52 -49 52h-15v-105h13c35 0 51 16 51 53z" />
    <glyph glyph-name="uni2117.sc" horiz-adv-x="657" 
d="M620 267c0 -155 -130 -282 -290 -282c-164 0 -293 131 -293 284c0 157 135 279 293 279c163 0 290 -129 290 -281zM571 266c0 128 -107 239 -242 239c-130 0 -242 -103 -242 -238c0 -130 106 -239 241 -239c134 0 243 108 243 238zM474 313c0 -78 -44 -123 -131 -123h-13
v-88h-94v326h106c73 0 132 -30 132 -115zM385 309c0 26 -13 40 -34 40h-20v-82h21c21 0 33 11 33 42z" />
    <glyph glyph-name="asterisk" unicode="*" horiz-adv-x="451" 
d="M287 482l88 -101l-80 -58l-70 114l-69 -113l-80 58l87 100l-130 33l29 93l125 -54l-11 138h98l-10 -138l125 54l29 -93z" />
    <glyph glyph-name="asterisk.sc" horiz-adv-x="372" 
d="M242 384l68 -70l-77 -56l-47 85l-47 -84l-77 56l67 69l-97 21l30 90l89 -45l-13 102h95l-13 -102l90 45l30 -90z" />
    <glyph glyph-name="bullet" unicode="&#x2022;" horiz-adv-x="395" 
d="M333 295c0 -75 -61 -136 -135 -136c-75 0 -136 61 -136 136c0 74 61 135 136 135c74 0 135 -61 135 -135z" />
    <glyph glyph-name="bullet.sc" horiz-adv-x="358" 
d="M296 236c0 -63 -52 -115 -117 -115s-117 52 -117 115s52 115 117 115s117 -52 117 -115z" />
    <glyph glyph-name="period" unicode="." horiz-adv-x="262" 
d="M132 158c50 0 87 -35 87 -86c0 -49 -37 -84 -87 -84s-89 35 -89 84c0 51 39 86 89 86z" />
    <glyph glyph-name="comma" unicode="," horiz-adv-x="270" 
d="M111 -193l-64 39c32 42 53 75 53 105c0 52 -55 57 -55 121c0 52 39 86 89 86c55 0 88 -36 88 -101c0 -75 -39 -172 -111 -250z" />
    <glyph glyph-name="colon" unicode=":" horiz-adv-x="294" 
d="M146 507c50 0 88 -36 88 -87c0 -49 -38 -84 -88 -84c-49 0 -89 35 -89 84c0 51 40 87 89 87zM146 158c50 0 88 -35 88 -86c0 -49 -38 -84 -88 -84c-49 0 -89 35 -89 84c0 51 40 86 89 86z" />
    <glyph glyph-name="semicolon" unicode=";" horiz-adv-x="297" 
d="M146 507c50 0 88 -36 88 -87c0 -49 -38 -84 -88 -84c-49 0 -89 35 -89 84c0 51 40 87 89 87zM125 -193l-64 39c33 42 54 75 54 105c0 52 -56 57 -56 121c0 52 39 86 89 86c55 0 89 -36 89 -101c0 -75 -40 -172 -112 -250z" />
    <glyph glyph-name="ellipsis" unicode="&#x2026;" horiz-adv-x="798" 
d="M132 158c50 0 87 -35 87 -86c0 -49 -37 -84 -87 -84s-89 35 -89 84c0 51 39 86 89 86zM398 158c50 0 87 -35 87 -86c0 -49 -37 -84 -87 -84s-89 35 -89 84c0 51 39 86 89 86zM657 158c50 0 88 -35 88 -86c0 -49 -38 -84 -88 -84c-49 0 -89 35 -89 84c0 51 40 86 89 86z
" />
    <glyph glyph-name="periodcentered" unicode="&#xb7;" horiz-adv-x="277" 
d="M133 408c50 0 88 -36 88 -86c0 -49 -38 -84 -88 -84c-49 0 -89 35 -89 84c0 50 40 86 89 86z" />
    <glyph glyph-name="periodcentered.loclCAT" horiz-adv-x="271" 
d="M136 408c50 0 87 -36 87 -86c0 -49 -37 -84 -87 -84s-89 35 -89 84c0 50 39 86 89 86z" />
    <glyph glyph-name="periodcentered.cap" horiz-adv-x="277" 
d="M133 433c50 0 88 -36 88 -87c0 -49 -38 -84 -88 -84c-49 0 -89 35 -89 84c0 51 40 87 89 87z" />
    <glyph glyph-name="periodcentered.loclCAT.cap" horiz-adv-x="265" 
d="M133 433c50 0 87 -36 87 -87c0 -49 -37 -84 -87 -84c-49 0 -89 35 -89 84c0 51 40 87 89 87z" />
    <glyph glyph-name="periodcentered.loclCAT.sc" horiz-adv-x="269" 
d="M135 407c50 0 87 -36 87 -86s-37 -85 -87 -85c-49 0 -89 35 -89 85s40 86 89 86z" />
    <glyph glyph-name="exclam" unicode="!" horiz-adv-x="289" 
d="M225 677l-21 -457h-118l-22 457h161zM146 149c47 0 83 -33 83 -81s-36 -80 -83 -80s-85 32 -85 80s38 81 85 81z" />
    <glyph glyph-name="exclamdown" unicode="&#xa1;" horiz-adv-x="317" 
d="M174 358c-47 0 -83 33 -83 82c0 47 36 79 83 79s84 -32 84 -79c0 -49 -37 -82 -84 -82zM95 -170l21 457h118l22 -457h-161z" />
    <glyph glyph-name="exclamdown.cap" horiz-adv-x="323" 
d="M177 529c-47 0 -83 34 -83 82c0 47 36 80 83 80s84 -33 84 -80c0 -48 -37 -82 -84 -82zM98 2l21 457h118l22 -457h-161z" />
    <glyph glyph-name="exclam.sc" horiz-adv-x="277" 
d="M215 552l-18 -363h-116l-19 363h153zM138 144c45 0 81 -32 81 -79c0 -46 -36 -77 -81 -77s-82 31 -82 77c0 47 37 79 82 79z" />
    <glyph glyph-name="exclamdown.sc" horiz-adv-x="305" 
d="M168 408c-45 0 -81 33 -81 79s36 78 81 78s82 -32 82 -78s-37 -79 -82 -79zM91 0l18 363h116l19 -363h-153z" />
    <glyph glyph-name="question" unicode="?" horiz-adv-x="406" 
d="M382 523c0 -94 -55 -158 -136 -189l-8 -114h-117l-8 169c91 23 122 64 122 115c0 52 -32 76 -90 76c-40 0 -82 -11 -117 -22v104c49 19 105 30 158 30c127 0 196 -60 196 -169zM179 149c47 0 83 -33 83 -81s-36 -80 -83 -80s-85 32 -85 80s38 81 85 81z" />
    <glyph glyph-name="questiondown" unicode="&#xbf;" horiz-adv-x="428" 
d="M252 357c-47 0 -84 34 -84 82c0 47 37 79 84 79c46 0 84 -32 84 -79c0 -48 -38 -82 -84 -82zM48 -16c0 93 56 157 137 188l8 114h117l8 -169c-91 -23 -122 -63 -122 -115s32 -76 90 -76c40 0 82 11 117 22v-104c-50 -19 -106 -30 -158 -30c-127 0 -197 61 -197 170z" />
    <glyph glyph-name="questiondown.cap" horiz-adv-x="441" 
d="M259 529c-47 0 -83 34 -83 82c0 47 36 80 83 80s85 -33 85 -80c0 -48 -38 -82 -85 -82zM56 156c0 94 56 158 137 188l7 115h118l7 -169c-91 -24 -122 -64 -122 -116s32 -76 91 -76c39 0 81 11 116 23v-104c-49 -19 -105 -30 -158 -30c-127 0 -196 60 -196 169z" />
    <glyph glyph-name="question.sc" horiz-adv-x="370" 
d="M338 422c0 -79 -39 -135 -106 -161l-5 -72h-116l-6 115c63 17 95 50 95 92c0 39 -23 62 -78 62c-28 0 -62 -7 -92 -16v99c44 16 94 24 139 24c106 0 169 -54 169 -143zM168 144c46 0 82 -32 82 -79c0 -46 -36 -77 -82 -77c-44 0 -81 31 -81 77c0 47 37 79 81 79z" />
    <glyph glyph-name="questiondown.sc" horiz-adv-x="383" 
d="M215 409c-45 0 -82 32 -82 79c0 45 37 77 82 77s82 -32 82 -77c0 -47 -37 -79 -82 -79zM45 131c0 79 39 134 107 161l4 71h117l5 -114c-63 -18 -95 -50 -95 -92c0 -39 23 -62 78 -62c28 0 62 6 92 15v-98c-44 -17 -94 -25 -139 -25c-106 0 -169 55 -169 144z" />
    <glyph glyph-name="numbersign" unicode="#" 
d="M108 271v121h-72v107h72v121h112v-121h119v121h111v-121h72v-107h-72v-121h72v-108h-72v-121h-111v121h-119v-121h-112v121h-72v108h72zM220 271h119v121h-119v-121z" />
    <glyph glyph-name="numbersign.sc" horiz-adv-x="524" 
d="M108 223v94h-58v107h58v83h110v-83h88v83h109v-83h60v-107h-60v-94h60v-107h-60v-83h-109v83h-88v-83h-110v83h-58v107h58zM218 223h88v94h-88v-94z" />
    <glyph glyph-name="percent" unicode="%" horiz-adv-x="780" 
d="M339 505c0 -102 -43 -181 -153 -181c-115 0 -156 79 -156 179c0 102 42 180 157 180c111 0 152 -76 152 -178zM243 0h-84l380 677h83zM241 502c0 71 -10 104 -56 104c-50 0 -59 -39 -59 -100c0 -71 11 -103 58 -103c48 0 57 35 57 99zM749 170c0 -102 -39 -181 -153 -181
s-154 79 -154 179c0 102 42 180 154 180c115 0 153 -76 153 -178zM652 167c0 71 -10 104 -57 104c-46 0 -58 -39 -58 -100c0 -71 12 -103 57 -103c49 0 58 35 58 99z" />
    <glyph glyph-name="perthousand" unicode="&#x2030;" horiz-adv-x="1136" 
d="M339 505c0 -102 -43 -181 -153 -181c-115 0 -156 79 -156 179c0 102 42 180 157 180c111 0 152 -76 152 -178zM243 0h-84l380 677h83zM242 502c0 71 -11 104 -57 104c-50 0 -59 -39 -59 -100c0 -71 11 -103 58 -103c48 0 58 35 58 99zM749 170c0 -102 -39 -181 -153 -181
s-154 79 -154 179c0 102 42 180 154 180c115 0 153 -76 153 -178zM1107 170c0 -102 -39 -181 -153 -181s-154 79 -154 179c0 102 42 180 154 180c115 0 153 -76 153 -178zM652 167c0 71 -10 104 -57 104c-46 0 -58 -39 -58 -100c0 -71 12 -103 57 -103c49 0 58 35 58 99z
M1010 167c0 71 -10 104 -57 104c-46 0 -58 -39 -58 -100c0 -71 12 -103 57 -103c49 0 58 35 58 99z" />
    <glyph glyph-name="percent.sc" horiz-adv-x="684" 
d="M290 412c0 -90 -42 -147 -129 -147c-90 0 -132 56 -132 145c0 90 42 147 131 147c90 0 130 -55 130 -145zM230 0h-80l306 552h79zM203 409c0 58 -10 80 -43 80c-35 0 -45 -22 -45 -77c0 -58 12 -78 43 -78c35 0 45 21 45 75zM655 139c0 -92 -39 -147 -127 -147
c-91 0 -134 56 -134 145s43 146 133 146s128 -53 128 -144zM569 136c0 58 -12 80 -44 80c-34 0 -45 -23 -45 -77c0 -55 12 -78 45 -78c34 0 44 22 44 75z" />
    <glyph glyph-name="perthousand.sc" horiz-adv-x="983" 
d="M291 412c0 -90 -42 -147 -130 -147c-90 0 -132 56 -132 145c0 90 42 147 131 147c91 0 131 -55 131 -145zM230 0h-80l306 552h79zM203 409c0 58 -10 81 -43 81c-34 0 -44 -23 -44 -78c0 -58 11 -78 42 -78c35 0 45 21 45 75zM656 139c0 -92 -39 -147 -128 -147
c-91 0 -133 56 -133 145s42 146 132 146c91 0 129 -53 129 -144zM955 139c0 -92 -39 -147 -128 -147c-90 0 -133 56 -133 145s42 146 132 146c91 0 129 -53 129 -144zM570 136c0 58 -12 80 -44 80c-34 0 -45 -23 -45 -77c0 -55 12 -78 44 -78c35 0 45 22 45 75zM869 136
c0 58 -12 80 -44 80c-34 0 -45 -23 -45 -77c0 -55 12 -78 44 -78c35 0 45 22 45 75z" />
    <glyph glyph-name="slash" unicode="/" horiz-adv-x="480" 
d="M136 -145h-114l321 945h114z" />
    <glyph glyph-name="backslash" unicode="\" horiz-adv-x="480" 
d="M137 800l321 -945h-115l-320 945h114z" />
    <glyph glyph-name="slash.sc" horiz-adv-x="417" 
d="M132 -120h-110l259 774h111z" />
    <glyph glyph-name="backslash.sc" horiz-adv-x="416" 
d="M134 653l260 -773h-111l-258 773h109z" />
    <glyph glyph-name="underscore" unicode="_" 
d="M0 -239v94h559v-94h-559z" />
    <glyph glyph-name="braceleft" unicode="{" horiz-adv-x="369" 
d="M269 -176c-118 0 -165 38 -165 139v255c0 34 -17 59 -90 60v89c71 2 90 26 90 60v257c0 99 49 138 168 138h72v-95h-39c-56 0 -74 -11 -74 -65v-237c0 -68 -46 -97 -106 -100v-4c60 -2 106 -37 106 -99v-238c0 -54 22 -65 74 -65h39v-95h-75z" />
    <glyph glyph-name="braceright" unicode="}" horiz-adv-x="369" 
d="M264 -37c0 -101 -46 -139 -164 -139h-75v95h39c52 0 74 11 74 65v238c0 62 45 97 106 99v4c-60 3 -106 32 -106 100v237c0 54 -18 65 -74 65h-39v95h72c119 0 167 -39 167 -138v-257c0 -34 20 -58 91 -60v-89c-73 -1 -91 -26 -91 -60v-255z" />
    <glyph glyph-name="bracketleft" unicode="[" horiz-adv-x="339" 
d="M74 -176v998h239v-95h-113v-808h113v-95h-239z" />
    <glyph glyph-name="bracketright" unicode="]" horiz-adv-x="339" 
d="M265 -176h-239v95h112v808h-112v95h239v-998z" />
    <glyph glyph-name="parenleft" unicode="(" horiz-adv-x="330" 
d="M216 -174c-95 127 -179 308 -179 505c0 186 83 362 179 491h110c-101 -151 -160 -317 -160 -489c0 -177 54 -344 161 -507h-111z" />
    <glyph glyph-name="parenright" unicode=")" horiz-adv-x="330" 
d="M114 -174h-111c107 163 161 330 161 507c0 172 -59 338 -160 489h110c96 -129 179 -305 179 -491c0 -197 -84 -378 -179 -505z" />
    <glyph glyph-name="braceleft.cap" horiz-adv-x="372" 
d="M270 -136c-117 0 -164 38 -164 139v225c0 34 -17 59 -90 60v89c71 2 90 26 90 60v227c0 99 49 138 168 138h71v-95h-39c-56 0 -74 -11 -74 -65v-207c0 -68 -46 -97 -106 -100v-4c61 -2 106 -37 106 -99v-208c0 -54 23 -65 74 -65h39v-95h-75z" />
    <glyph glyph-name="braceright.cap" horiz-adv-x="372" 
d="M266 3c0 -101 -46 -139 -165 -139h-74v95h39c51 0 74 11 74 65v208c0 62 45 97 106 99v4c-60 3 -106 32 -106 100v207c0 54 -18 65 -74 65h-39v95h71c119 0 168 -39 168 -138v-227c0 -34 19 -58 90 -60v-89c-72 -1 -90 -26 -90 -60v-225z" />
    <glyph glyph-name="bracketleft.cap" horiz-adv-x="340" 
d="M74 -136v938h239v-95h-113v-748h113v-95h-239z" />
    <glyph glyph-name="bracketright.cap" horiz-adv-x="340" 
d="M266 -136h-239v95h113v748h-113v95h239v-938z" />
    <glyph glyph-name="parenleft.cap" horiz-adv-x="331" 
d="M217 -134c-95 127 -180 278 -180 475c0 186 84 332 180 461h109c-100 -151 -159 -287 -159 -459c0 -177 53 -314 160 -477h-110z" />
    <glyph glyph-name="parenright.cap" horiz-adv-x="331" 
d="M115 -134h-111c107 163 161 300 161 477c0 172 -59 308 -160 459h110c96 -129 179 -275 179 -461c0 -197 -84 -348 -179 -475z" />
    <glyph glyph-name="braceleft.sc" horiz-adv-x="356" 
d="M105 188c0 35 -22 56 -76 56v74c54 0 76 21 76 56v169c0 85 37 138 154 138h64v-92h-38c-41 0 -55 -11 -55 -41v-172c0 -57 -20 -84 -71 -93v-4c48 -9 71 -32 71 -93v-171c0 -31 14 -41 55 -41h38v-92h-64c-117 0 -154 51 -154 138v168z" />
    <glyph glyph-name="braceright.sc" horiz-adv-x="356" 
d="M34 -118v92h37c42 0 56 10 56 41v171c0 61 21 84 70 93v4c-50 9 -70 36 -70 93v171c0 31 -14 41 -56 41h-37v93h62c118 0 155 -53 155 -138v-169c0 -35 23 -56 77 -56v-74c-54 0 -77 -21 -77 -56v-168c0 -87 -36 -138 -155 -138h-62z" />
    <glyph glyph-name="bracketleft.sc" horiz-adv-x="323" 
d="M73 -118v799h216v-92h-93v-615h93v-92h-216z" />
    <glyph glyph-name="bracketright.sc" horiz-adv-x="323" 
d="M250 -118h-216v92h93v615h-93v92h216v-799z" />
    <glyph glyph-name="parenleft.sc" horiz-adv-x="312" 
d="M194 -117c-63 60 -155 218 -155 400c0 176 91 334 154 398h107c-68 -86 -137 -236 -137 -397c0 -160 64 -307 138 -401h-107z" />
    <glyph glyph-name="parenright.sc" horiz-adv-x="312" 
d="M118 -117h-106c73 94 138 241 138 401c0 161 -70 311 -137 397h106c63 -64 154 -222 154 -398c0 -182 -91 -340 -155 -400z" />
    <glyph glyph-name="emdash" unicode="&#x2014;" horiz-adv-x="975" 
d="M57 221v117h861v-117h-861z" />
    <glyph glyph-name="endash" unicode="&#x2013;" horiz-adv-x="614" 
d="M57 221v117h500v-117h-500z" />
    <glyph glyph-name="figuredash" unicode="&#x2012;" horiz-adv-x="350" 
d="M0 346h350v-126h-350v126z" />
    <glyph glyph-name="hyphen" unicode="-" horiz-adv-x="371" 
d="M57 197v112h257v-112h-257z" />
    <glyph glyph-name="uni00AD" unicode="&#xad;" horiz-adv-x="371" 
d="M57 197v112h257v-112h-257z" />
    <glyph glyph-name="emdash.cap" horiz-adv-x="974" 
d="M56 301v117h862v-117h-862z" />
    <glyph glyph-name="endash.cap" horiz-adv-x="613" 
d="M56 301v117h500v-117h-500z" />
    <glyph glyph-name="hyphen.cap" horiz-adv-x="372" 
d="M57 277v112h257v-112h-257z" />
    <glyph glyph-name="emdash.sc" horiz-adv-x="976" 
d="M57 211v117h861v-117h-861z" />
    <glyph glyph-name="endash.sc" horiz-adv-x="615" 
d="M57 211v117h500v-117h-500z" />
    <glyph glyph-name="hyphen.sc" horiz-adv-x="373" 
d="M58 187v112h257v-112h-257z" />
    <glyph glyph-name="guillemotleft" unicode="&#xab;" horiz-adv-x="513" 
d="M158 57l-126 201l125 204h117l-107 -203l109 -202h-118zM357 57l-132 201l129 204h116l-110 -204l113 -201h-116z" />
    <glyph glyph-name="guillemotright" unicode="&#xbb;" horiz-adv-x="513" 
d="M157 57h-117l114 201l-111 204h116l130 -204zM355 57h-118l110 202l-108 203h117l126 -204z" />
    <glyph glyph-name="guilsinglleft" unicode="&#x2039;" horiz-adv-x="322" 
d="M162 57l-131 201l133 203h116l-114 -203l115 -201h-119z" />
    <glyph glyph-name="guilsinglright" unicode="&#x203a;" horiz-adv-x="322" 
d="M161 57h-120l115 201l-114 203h116l133 -203z" />
    <glyph glyph-name="guillemotleft.cap" horiz-adv-x="512" 
d="M158 137l-126 201l125 204h117l-107 -203l109 -202h-118zM357 137l-132 201l129 204h116l-110 -204l113 -201h-116z" />
    <glyph glyph-name="guillemotright.cap" horiz-adv-x="512" 
d="M155 137h-116l113 201l-110 204h116l129 -204zM354 137h-118l109 202l-107 203h117l125 -204z" />
    <glyph glyph-name="guilsinglleft.cap" horiz-adv-x="321" 
d="M162 137l-131 201l133 203h116l-114 -203l115 -201h-119z" />
    <glyph glyph-name="guilsinglright.cap" horiz-adv-x="321" 
d="M159 137h-119l114 201l-114 203h117l133 -203z" />
    <glyph glyph-name="guillemotleft.sc" horiz-adv-x="477" 
d="M142 39l-110 170l109 171h110l-91 -171l93 -170h-111zM318 39l-114 170l112 171h110l-94 -171l96 -170h-110z" />
    <glyph glyph-name="guillemotright.sc" horiz-adv-x="477" 
d="M159 39h-110l96 170l-94 171h110l112 -171zM335 39h-112l94 170l-92 171h111l109 -171z" />
    <glyph glyph-name="guilsinglleft.sc" horiz-adv-x="304" 
d="M142 39l-110 170l112 171h110l-94 -171l94 -170h-112z" />
    <glyph glyph-name="guilsinglright.sc" horiz-adv-x="304" 
d="M162 39h-112l95 170l-94 171h109l112 -171z" />
    <glyph glyph-name="quotedblleft" unicode="&#x201c;" horiz-adv-x="469" 
d="M171 742l60 -36c-31 -39 -50 -70 -50 -87c0 -48 52 -44 52 -110c0 -45 -31 -78 -81 -78c-61 0 -84 34 -84 93c0 57 37 146 103 218zM377 742l60 -36c-31 -39 -50 -70 -50 -87c0 -48 52 -44 52 -110c0 -45 -31 -78 -81 -78c-61 0 -84 34 -84 93c0 57 37 146 103 218z" />
    <glyph glyph-name="quotedblright" unicode="&#x201d;" horiz-adv-x="467" 
d="M88 431l-60 37c30 39 50 69 50 87c0 48 -53 44 -53 110c0 45 31 77 82 77c61 0 84 -34 84 -92c0 -57 -37 -146 -103 -219zM294 431l-60 37c30 39 50 69 50 87c0 48 -53 44 -53 110c0 45 31 77 82 77c61 0 84 -34 84 -92c0 -57 -37 -146 -103 -219z" />
    <glyph glyph-name="quoteleft" unicode="&#x2018;" horiz-adv-x="268" 
d="M163 742l60 -36c-31 -39 -50 -70 -50 -87c0 -48 52 -44 52 -110c0 -45 -31 -78 -81 -78c-61 0 -84 34 -84 93c0 57 37 146 103 218z" />
    <glyph glyph-name="quoteright" unicode="&#x2019;" horiz-adv-x="268" 
d="M105 431l-59 37c30 39 49 69 49 87c0 48 -52 44 -52 110c0 45 31 77 82 77c60 0 83 -34 83 -92c0 -57 -37 -146 -103 -219z" />
    <glyph glyph-name="quotedblleft.sc" horiz-adv-x="435" 
d="M132 651l60 -36c-30 -39 -50 -70 -50 -88c0 -47 52 -44 52 -110c0 -44 -30 -77 -81 -77c-61 0 -84 34 -84 93c0 56 37 145 103 218zM327 651l59 -36c-30 -39 -49 -70 -49 -88c0 -47 52 -44 52 -110c0 -44 -31 -77 -81 -77c-61 0 -84 34 -84 93c0 56 37 145 103 218z" />
    <glyph glyph-name="quotedblright.sc" horiz-adv-x="435" 
d="M109 340l-60 36c30 39 50 70 50 87c0 48 -53 45 -53 110c0 45 31 78 82 78c61 0 84 -34 84 -93c0 -56 -37 -146 -103 -218zM303 340l-60 36c31 39 50 70 50 87c0 48 -52 45 -52 110c0 45 31 78 81 78c61 0 84 -34 84 -93c0 -56 -37 -146 -103 -218z" />
    <glyph glyph-name="quoteleft.sc" horiz-adv-x="241" 
d="M132 651l60 -36c-30 -39 -50 -70 -50 -88c0 -47 52 -44 52 -110c0 -37 -30 -78 -81 -78c-61 0 -84 44 -84 94c0 56 37 145 103 218z" />
    <glyph glyph-name="quoteright.sc" horiz-adv-x="241" 
d="M109 339l-60 37c30 39 50 69 50 87c0 48 -53 44 -53 110c0 38 31 78 82 78c61 0 84 -43 84 -93c0 -57 -37 -146 -103 -219z" />
    <glyph glyph-name="quotesingle" unicode="'" horiz-adv-x="217" 
d="M152 416h-85l-16 224c-3 42 26 66 58 66c33 0 60 -24 57 -66z" />
    <glyph glyph-name="quotedbl" unicode="&#x22;" horiz-adv-x="408" 
d="M152 416h-85l-16 224c-3 42 26 66 58 66c33 0 60 -24 57 -66zM330 416h-85l-15 224c-3 42 25 66 57 66c33 0 60 -24 57 -66z" />
    <glyph glyph-name="quotesinglbase" unicode="&#x201a;" horiz-adv-x="251" 
d="M105 -153l-59 36c30 39 49 70 49 88c0 47 -52 44 -52 110c0 44 31 77 82 77c60 0 83 -34 83 -93c0 -56 -37 -145 -103 -218z" />
    <glyph glyph-name="quotedblbase" unicode="&#x201e;" horiz-adv-x="474" 
d="M94 -153l-59 36c30 39 49 70 49 88c0 47 -52 44 -52 110c0 44 31 77 82 77c60 0 83 -34 83 -93c0 -56 -37 -145 -103 -218zM300 -153l-59 36c30 39 49 70 49 88c0 47 -52 44 -52 110c0 44 31 77 82 77c60 0 83 -34 83 -93c0 -56 -37 -145 -103 -218z" />
    <glyph glyph-name="degree" unicode="&#xb0;" horiz-adv-x="345" 
d="M309 590c0 -81 -61 -139 -138 -139c-76 0 -135 56 -135 135c0 80 60 138 137 138c75 0 136 -54 136 -134zM230 586c0 40 -23 67 -58 67c-34 0 -57 -27 -57 -67s24 -64 57 -64s58 23 58 64z" />
    <glyph glyph-name="degree.sc" horiz-adv-x="307" 
d="M269 472c0 -67 -52 -114 -117 -114c-63 0 -113 46 -113 110c0 66 50 113 116 113c62 0 114 -43 114 -109zM194 468c0 25 -13 47 -40 47s-40 -21 -40 -47c0 -25 14 -42 40 -42c24 0 40 17 40 42z" />
    <glyph glyph-name="acute" unicode="&#xb4;" horiz-adv-x="355" 
d="M175 750h143l-127 -173h-88z" />
    <glyph glyph-name="grave" unicode="`" horiz-adv-x="354" 
d="M259 577h-95l-128 173h140z" />
    <glyph glyph-name="hungarumlaut" unicode="&#x2dd;" horiz-adv-x="537" 
d="M153 750h122l-87 -173h-87zM331 750h126l-116 -173h-86z" />
    <glyph glyph-name="breve" unicode="&#x2d8;" horiz-adv-x="533" 
d="M265 660c44 0 66 26 67 89h96c0 -125 -80 -177 -166 -177c-98 0 -160 54 -160 177h97c1 -67 27 -89 66 -89z" />
    <glyph glyph-name="caron" unicode="&#x2c7;" horiz-adv-x="532" 
d="M336 577h-142l-91 173h90l73 -97l75 97h86z" />
    <glyph glyph-name="circumflex" unicode="&#x2c6;" horiz-adv-x="531" 
d="M198 750h135l95 -173h-89l-75 97l-74 -97h-87z" />
    <glyph glyph-name="dieresis" unicode="&#xa8;" horiz-adv-x="543" 
d="M157 738c45 0 81 -33 81 -80c0 -45 -36 -77 -81 -77c-46 0 -82 32 -82 77c0 47 36 80 82 80zM389 738c45 0 80 -33 80 -80c0 -45 -35 -77 -80 -77c-46 0 -82 32 -82 77c0 47 36 80 82 80z" />
    <glyph glyph-name="dotaccent" unicode="&#x2d9;" horiz-adv-x="355" 
d="M178 741c47 0 83 -34 83 -82c0 -47 -36 -80 -83 -80s-84 33 -84 80c0 48 37 82 84 82z" />
    <glyph glyph-name="macron" unicode="&#xaf;" horiz-adv-x="535" 
d="M421 593h-309v85h309v-85z" />
    <glyph glyph-name="ring" unicode="&#x2da;" horiz-adv-x="291" 
d="M264 675c0 -67 -47 -101 -119 -101c-75 0 -120 34 -120 101c0 69 48 102 120 102c75 0 119 -34 119 -102zM192 675c0 31 -18 49 -47 49s-46 -18 -46 -49s17 -49 46 -49s47 18 47 49z" />
    <glyph glyph-name="tilde" unicode="&#x2dc;" horiz-adv-x="535" 
d="M197 723c79 0 90 -49 134 -49c29 0 38 18 38 46h92c-2 -88 -52 -134 -125 -134c-82 0 -95 51 -135 51c-25 0 -37 -15 -37 -48h-93c2 87 47 134 126 134z" />
    <glyph glyph-name="cedilla" unicode="&#xb8;" horiz-adv-x="354" 
d="M215 6c53 -45 84 -87 84 -130c0 -68 -58 -89 -116 -89c-26 0 -51 4 -70 10v74c18 -6 35 -9 54 -9c17 0 28 7 28 29c0 24 -14 61 -58 115h78z" />
    <glyph glyph-name="ogonek" unicode="&#x2db;" horiz-adv-x="356" 
d="M288 -155c-32 -22 -74 -34 -118 -34c-67 0 -105 29 -105 81c0 62 55 89 110 110h79c-47 -23 -66 -39 -66 -59c0 -14 14 -21 35 -21s47 6 65 10v-87z" />
    <glyph glyph-name="acute.cap" horiz-adv-x="356" 
d="M181 902h148l-128 -163h-105z" />
    <glyph glyph-name="grave.cap" horiz-adv-x="356" 
d="M274 739h-95l-123 163h142z" />
    <glyph glyph-name="hungarumlaut.cap" horiz-adv-x="537" 
d="M187 902h123l-76 -163h-89zM368 902h128l-104 -163h-88z" />
    <glyph glyph-name="breve.cap" horiz-adv-x="534" 
d="M265 824c42 0 64 23 65 78h99c-1 -119 -80 -163 -169 -163c-94 0 -157 46 -158 163h99c1 -57 25 -78 64 -78z" />
    <glyph glyph-name="caron.cap" horiz-adv-x="536" 
d="M332 739h-141l-105 163h99l77 -86l79 86h95z" />
    <glyph glyph-name="circumflex.cap" horiz-adv-x="535" 
d="M205 902h135l104 -163h-99l-74 85l-74 -85h-96z" />
    <glyph glyph-name="dieresis.cap" horiz-adv-x="541" 
d="M154 880c46 0 81 -33 81 -80c0 -45 -35 -77 -81 -77c-45 0 -81 32 -81 77c0 47 36 80 81 80zM386 880c46 0 81 -33 81 -80c0 -45 -35 -77 -81 -77c-45 0 -81 32 -81 77c0 47 36 80 81 80z" />
    <glyph glyph-name="dotaccent.cap" horiz-adv-x="355" 
d="M179 895c47 0 82 -34 82 -82c0 -46 -35 -80 -82 -80s-84 34 -84 80c0 48 37 82 84 82z" />
    <glyph glyph-name="macron.cap" horiz-adv-x="535" 
d="M421 750h-309v85h309v-85z" />
    <glyph glyph-name="ring.cap" horiz-adv-x="350" 
d="M293 831c0 -67 -47 -102 -118 -102c-76 0 -120 35 -120 102c0 69 47 102 120 102c75 0 118 -34 118 -102zM221 831c0 30 -17 48 -46 48s-46 -18 -46 -48c0 -31 17 -49 46 -49s46 18 46 49z" />
    <glyph glyph-name="tilde.cap" horiz-adv-x="535" 
d="M197 867c79 0 90 -49 134 -49c29 0 38 18 38 46h92c-2 -88 -52 -134 -125 -134c-82 0 -95 51 -135 51c-25 0 -37 -16 -37 -48h-93c2 86 47 134 126 134z" />
    <glyph glyph-name="caron.alt" horiz-adv-x="355" 
d="M181 408l-53 35c27 35 44 61 44 87c0 37 -47 34 -47 93c0 34 27 70 73 70c53 0 75 -39 75 -83c0 -60 -34 -137 -92 -202z" />
    <glyph glyph-name="uni0326" unicode="&#x326;" horiz-adv-x="0" 
d="M-300 -251v58c77 7 94 21 94 70c0 47 33 72 72 72c45 0 72 -31 72 -70c0 -72 -100 -130 -238 -130z" />
    <glyph glyph-name="currency" unicode="&#xa4;" horiz-adv-x="659" 
d="M89 291c0 49 14 95 41 135l-85 84l73 75l88 -92c35 21 76 31 118 31c46 0 91 -12 126 -35l94 95l71 -74l-92 -92c25 -35 35 -80 35 -123c0 -49 -13 -87 -32 -121l98 -98l-71 -73l-98 95c-36 -26 -80 -41 -131 -41c-49 0 -90 14 -125 34l-90 -88l-73 72l88 89
c-22 36 -35 79 -35 127zM195 292c0 -74 54 -139 129 -139s129 64 129 137s-54 138 -129 138s-129 -62 -129 -136z" />
    <glyph glyph-name="dong" unicode="&#x20ab;" horiz-adv-x="513" 
d="M436 677v-46h34v-69h-34v-411h-111v41h-2c-35 -35 -76 -51 -119 -51c-99 0 -160 69 -160 188s65 190 173 190c39 0 71 -10 96 -33h1v76h-100v69h100v46h122zM247 434c-46 0 -77 -40 -77 -104c0 -68 28 -104 77 -104c25 0 51 10 67 24v161c-19 15 -42 23 -67 23zM436 86
v-85h-382v85h382z" />
    <glyph glyph-name="Euro" unicode="&#x20ac;" horiz-adv-x="563" 
d="M401 100c47 0 86 7 124 20v-112c-42 -14 -86 -23 -140 -23c-151 0 -250 76 -283 227h-67v96h55v27c0 13 0 25 1 37h-56v96h70c35 144 132 224 280 224c49 0 92 -9 125 -23v-111c-35 14 -76 21 -114 21c-77 0 -129 -34 -154 -111h207v-96h-223c-1 -11 -1 -22 -1 -34
c0 -10 0 -20 1 -30h223v-96h-209c26 -82 81 -112 161 -112z" />
    <glyph glyph-name="cent" unicode="&#xa2;" horiz-adv-x="495" 
d="M343 773v-122c34 -2 70 -8 101 -15v-105c-35 11 -76 20 -119 20c-96 0 -157 -46 -157 -165c0 -117 59 -166 161 -166c42 0 88 8 134 26v-103c-36 -12 -77 -21 -120 -24v-130h-120v139c-121 30 -193 126 -193 261c0 137 74 224 193 252v132h120z" />
    <glyph glyph-name="dollar" unicode="$" horiz-adv-x="525" 
d="M492 209c0 -102 -70 -158 -161 -179v-125h-124v116c-57 3 -116 16 -166 35v123c60 -26 136 -45 196 -45c62 0 108 19 108 70c0 112 -302 65 -302 272c0 103 72 155 164 173v129h124v-124c45 -3 89 -12 129 -24v-121c-53 18 -117 32 -169 32c-57 0 -102 -17 -102 -62
c0 -104 303 -56 303 -270z" />
    <glyph glyph-name="yen" unicode="&#xa5;" horiz-adv-x="607" 
d="M370 107v-107h-135v107h-170v89h170v73h-170v88h155l-190 320h151l127 -222h4l125 222h140l-192 -320h156v-88h-171v-73h171v-89h-171z" />
    <glyph glyph-name="florin" unicode="&#x192;" horiz-adv-x="426" 
d="M296 172c0 -126 -68 -185 -180 -185c-31 0 -62 4 -91 12v103c25 -5 45 -8 62 -8c45 0 67 19 67 67v165h-86v89h86v91c0 118 63 187 186 187c39 0 68 -7 88 -14v-104c-25 6 -46 9 -62 9c-48 0 -70 -21 -70 -67v-102h113v-89h-113v-154z" />
    <glyph glyph-name="uni0E3F" unicode="&#xe3f;" horiz-adv-x="618" 
d="M584 217c0 -123 -88 -174 -223 -183v-129h-124v128h-162v611h162v134h124v-137c125 -13 181 -63 181 -150c0 -53 -36 -112 -112 -128v-1c84 -7 154 -63 154 -145zM217 535v-130h89c60 0 91 26 91 67c0 44 -35 63 -100 63h-80zM329 143c69 0 109 29 109 78
c0 54 -46 78 -108 78h-113v-156h112z" />
    <glyph glyph-name="franc" unicode="&#x20a3;" horiz-adv-x="676" 
d="M462 311c69 78 113 103 184 103v-132c-65 0 -132 -20 -176 -55v-227h-138v283h-112v-283h-143v677h410v-123h-267v-150h239v-93h3z" />
    <glyph glyph-name="colonmonetary" unicode="&#x20a1;" horiz-adv-x="690" 
d="M663 800l-187 -698c37 3 72 10 114 24v-116c-44 -12 -88 -21 -145 -24l-35 -131h-91l35 132c-25 2 -49 6 -70 12l-39 -144h-91l46 175c-109 58 -162 168 -162 302c0 238 151 354 339 359l29 109h92l-30 -113c26 -2 48 -7 69 -12l34 125h92zM439 579l-124 -462
c20 -7 44 -13 69 -15l125 465c-22 5 -45 10 -70 12zM345 567c-104 -23 -166 -106 -166 -227c0 -70 19 -128 59 -168z" />
    <glyph glyph-name="uni20A2" unicode="&#x20a2;" horiz-adv-x="670" 
d="M390 691c77 0 138 -10 187 -25v-117c-48 17 -98 30 -158 30c-147 0 -237 -92 -237 -239c0 -109 47 -192 144 -223v308h118v-93h3c69 79 113 104 184 104v-124c-64 0 -132 -21 -175 -56v-156c46 2 87 9 137 26v-116c-55 -15 -110 -25 -188 -25c-243 0 -364 147 -364 347
c0 243 158 359 349 359z" />
    <glyph glyph-name="uni20B2" unicode="&#x20b2;" horiz-adv-x="623" 
d="M314 365h262v-301c-44 -21 -98 -34 -159 -39v-120h-124v118c-151 17 -262 112 -262 311c0 186 102 296 262 322v122h125v-118c54 -4 95 -16 130 -33v-114c-43 23 -98 40 -160 40c-147 0 -227 -72 -227 -212c0 -133 71 -212 196 -212c42 0 70 3 94 7v113h-137v116z" />
    <glyph glyph-name="uni20AD" unicode="&#x20ad;" horiz-adv-x="722" 
d="M306 308h-43v-308h-143v308h-79v89h79v280h143v-280h41l207 280h152l-209 -280h171v-89h-153l223 -308h-166z" />
    <glyph glyph-name="lira" unicode="&#x20a4;" horiz-adv-x="632" 
d="M604 274c0 -163 -81 -274 -248 -274h-236v214l-69 -29v98l69 28v67l-69 -29v98l69 28v202h143v-154l159 64v-93l-159 -66v-69l159 64v-93l-159 -66v-140h99c63 0 101 40 101 150h141z" />
    <glyph glyph-name="uni20A5" unicode="&#x20a5;" horiz-adv-x="865" 
d="M660 520c110 0 161 -64 161 -194v-326h-138v316c0 59 -24 96 -84 96c-35 0 -71 -14 -95 -38c1 -5 2 -10 2 -16v-358h-69l-24 -145h-114l69 426v35c0 64 -27 96 -83 96c-37 0 -71 -15 -94 -37v-375h-138v509h127v-62h2c46 45 103 73 163 73c23 0 43 -3 60 -9l31 189h114
l-39 -238c46 39 94 58 149 58z" />
    <glyph glyph-name="uni20A6" unicode="&#x20a6;" horiz-adv-x="773" 
d="M729 391h-59v-77h59v-73h-59v-241h-132l-163 241h-138v-241h-134v241h-59v73h59v77h-59v73h59v213h147l143 -213h143v213h134v-213h59v-73zM237 314h89l-87 129h-2v-129zM536 252v139h-94l93 -139h1z" />
    <glyph glyph-name="peseta" unicode="&#x20a7;" horiz-adv-x="670" 
d="M644 413h-69c-19 -120 -117 -189 -269 -189h-64v-224h-143v413h-57v80h57v184h207c146 0 256 -47 271 -184h67v-80zM242 493h200c-16 53 -69 70 -133 70h-67v-70zM312 335c70 0 116 28 130 78h-200v-78h70z" />
    <glyph glyph-name="uni20B1" unicode="&#x20b1;" horiz-adv-x="663" 
d="M98 677h207c127 0 227 -51 261 -156h66v-73h-54c0 -13 0 -32 -2 -46h56v-73h-74c-37 -93 -126 -154 -253 -154h-64v-175h-143v329h-53v73h53v46h-53v73h53v156zM241 521h163c-22 31 -59 42 -103 42h-60v-42zM241 448v-46h185c3 13 3 29 1 46h-186zM304 287
c43 0 76 14 96 42h-159v-42h63z" />
    <glyph glyph-name="uni20BD" unicode="&#x20bd;" horiz-adv-x="629" 
d="M333 250h-63v-67h173v-80h-173v-103h-143v103h-75v80h75v67h-75v101h75v326h207c157 0 272 -52 272 -204c0 -142 -101 -223 -273 -223zM270 554v-203h62c79 0 125 37 125 106c0 74 -57 97 -128 97h-59z" />
    <glyph glyph-name="uni20A8" unicode="&#x20a8;" horiz-adv-x="543" 
d="M505 677v-94h-95c16 -21 28 -43 33 -69h62v-94h-66c-21 -93 -100 -145 -234 -148l264 -272h-163l-242 256v106h146c46 0 83 20 100 58h-247v94h249c-17 40 -61 54 -111 54h-138v109h442z" />
    <glyph glyph-name="uni20AA" unicode="&#x20aa;" horiz-adv-x="804" 
d="M75 677h254c143 0 220 -54 220 -215v-184h-119v196c0 54 -22 80 -73 80h-140v-554h-142v677zM264 399h121v-276h149c38 0 57 18 57 58v496h143v-479c0 -129 -59 -198 -216 -198h-254v399z" />
    <glyph glyph-name="sterling" unicode="&#xa3;" horiz-adv-x="546" 
d="M513 111v-111h-472v91c90 55 116 100 116 154c0 17 -3 33 -7 49h-101v89h72c-12 33 -22 68 -22 110c0 119 84 199 238 199c50 0 100 -9 138 -24v-107c-37 14 -90 20 -122 20c-82 0 -121 -35 -121 -110c0 -33 8 -61 18 -88h189v-89h-160c4 -15 7 -32 7 -49
c0 -52 -30 -92 -89 -134h316z" />
    <glyph glyph-name="uni20AE" unicode="&#x20ae;" horiz-adv-x="602" 
d="M374 553v-121l158 33v-96l-158 -33v-76l158 33v-95l-158 -33v-165h-143v145l-158 -33v95l158 33v76l-158 -33v96l158 33v141h-195v124h534v-124h-196z" />
    <glyph glyph-name="uni20B8" unicode="&#x20b8;" horiz-adv-x="557" 
d="M530 677v-100h-502v100h502zM351 417v-417h-144v417h-179v101h502v-101h-179z" />
    <glyph glyph-name="uni20A9" unicode="&#x20a9;" horiz-adv-x="1003" 
d="M964 403h-81l-17 -74h98v-74h-116l-61 -255h-170l-114 441h-2l-113 -441h-174l-60 255h-115v74h98l-18 75l-80 -1v73l63 1l-47 200h145l41 -198l149 1l50 197h140l50 -201h148l42 201h129l-48 -201h63v-73zM256 405l16 -76h78v-9l21 86zM747 329l16 74h-115l19 -74h80z
M307 160h2l24 95h-46zM712 160l20 95h-47l24 -95h3z" />
    <glyph glyph-name="cent.tf" 
d="M371 773v-122c34 -2 70 -8 101 -15v-105c-34 11 -76 20 -119 20c-96 0 -157 -46 -157 -165c0 -117 59 -166 161 -166c42 0 88 8 135 26v-103c-37 -12 -78 -21 -121 -24v-130h-120v139c-121 30 -192 126 -192 261c0 137 74 224 192 252v132h120z" />
    <glyph glyph-name="dollar.tf" 
d="M510 209c0 -103 -70 -158 -161 -179v-125h-124v116c-58 3 -116 16 -165 35v123c59 -26 136 -45 196 -45c61 0 108 19 108 70c0 112 -303 65 -303 272c0 103 72 155 164 173v129h124v-124c45 -3 89 -12 129 -24v-121c-52 18 -117 32 -169 32c-56 0 -101 -17 -101 -62
c0 -104 302 -56 302 -270z" />
    <glyph glyph-name="Euro.tf" 
d="M407 100c47 0 86 7 124 20v-112c-42 -14 -86 -23 -140 -23c-151 0 -250 76 -283 227h-62v96h50v27c0 13 0 25 1 37h-51v96h65c35 144 132 224 280 224c49 0 92 -9 125 -23v-111c-35 14 -76 21 -114 21c-77 0 -129 -34 -154 -111h207v-96h-223c-1 -11 -1 -22 -1 -34
c0 -10 0 -20 1 -30h223v-96h-209c26 -82 81 -112 161 -112z" />
    <glyph glyph-name="sterling.tf" 
d="M523 111v-111h-472v91c90 55 116 100 116 154c0 17 -3 33 -7 49h-101v89h72c-12 33 -22 68 -22 110c0 119 84 199 238 199c50 0 100 -9 138 -24v-107c-37 14 -90 20 -122 20c-82 0 -121 -35 -121 -110c0 -33 8 -61 18 -88h189v-89h-160c4 -15 7 -32 7 -49
c0 -52 -30 -92 -89 -134h316z" />
    <glyph glyph-name="yen.tf" 
d="M347 107v-107h-136v107h-142v89h142v73h-142v88h128l-170 320h153l104 -222h4l102 222h142l-172 -320h129v-88h-142v-73h142v-89h-142z" />
    <glyph glyph-name="florin.tf" 
d="M350 326v-154c0 -130 -78 -185 -195 -185c-35 0 -68 4 -98 12v103c28 -5 50 -8 74 -8c46 0 77 17 77 69v163h-111v89h111v91c0 123 77 186 202 186c30 0 64 -4 94 -13v-104c-25 6 -48 9 -72 9c-48 0 -82 -17 -82 -71v-98h136v-89h-136z" />
    <glyph glyph-name="cent.sc" horiz-adv-x="507" 
d="M335 632v-98c28 -2 57 -5 84 -12v-100c-31 9 -66 15 -102 15c-77 0 -126 -30 -126 -122s49 -124 132 -124c35 0 73 6 111 21v-98c-29 -10 -63 -17 -99 -19v-108h-114v117c-101 26 -161 104 -161 213c0 112 62 182 161 207v108h114z" />
    <glyph glyph-name="dollar.sc" horiz-adv-x="507" 
d="M457 177c0 -85 -55 -133 -131 -151v-118h-122v111c-48 3 -95 13 -139 26v119c68 -24 131 -38 175 -38s75 14 75 49c0 74 -251 45 -251 212c0 83 59 126 140 141v121h122v-118c34 -3 69 -10 101 -20v-114c-55 18 -110 29 -150 29s-69 -12 -69 -41c0 -74 249 -41 249 -208z
" />
    <glyph glyph-name="Euro.sc" horiz-adv-x="507" 
d="M351 92c42 0 77 8 107 18v-105c-34 -9 -69 -18 -121 -18c-128 0 -208 62 -235 181h-67v85h57v16c0 9 0 18 1 26h-58v85h69c31 131 122 186 239 186c40 0 77 -9 102 -18v-106c-28 10 -63 15 -95 15c-60 0 -99 -19 -117 -77h161v-85h-173v-18c0 -8 0 -16 1 -24h172v-85
h-158c21 -56 61 -76 115 -76z" />
    <glyph glyph-name="sterling.sc" horiz-adv-x="507" 
d="M455 107v-107h-403v87c72 44 91 77 91 117c0 11 -1 21 -4 31h-81l1 84h53c-8 24 -15 51 -15 81c0 97 70 166 208 166c41 0 80 -6 117 -19v-103c-31 12 -78 14 -103 14c-64 0 -95 -21 -95 -80c0 -22 6 -41 12 -59h159v-84h-132c3 -10 5 -20 5 -31c0 -39 -23 -72 -66 -97
h253z" />
    <glyph glyph-name="yen.sc" horiz-adv-x="507" 
d="M318 82v-82h-131v82h-114v84h114v51h-114v85h103l-142 250h146l78 -154h3l75 154h136l-143 -250h103v-85h-114v-51h114v-84h-114z" />
    <glyph glyph-name="florin.sc" horiz-adv-x="507" 
d="M116 253v86h72v85c0 98 68 141 162 141c29 0 55 -3 80 -11v-97c-16 2 -32 4 -48 4c-32 0 -56 -11 -56 -45v-77h93v-86h-93v-124c0 -96 -59 -142 -155 -142c-29 0 -56 4 -83 10v98c17 -3 30 -5 43 -5c39 0 57 15 57 47v116h-72z" />
    <glyph glyph-name="plus" unicode="+" 
d="M338 277v-181h-118v181h-164v110h164v181h118v-181h165v-110h-165z" />
    <glyph glyph-name="minus" unicode="&#x2212;" 
d="M57 273v119h446v-119h-446z" />
    <glyph glyph-name="plusminus" unicode="&#xb1;" 
d="M338 339v-166h-118v166h-164v110h164v166h118v-166h165v-110h-165zM60 0v110h438v-110h-438z" />
    <glyph glyph-name="multiply" unicode="&#xd7;" 
d="M158 514l124 -122l121 121l78 -80l-120 -120l122 -120l-81 -84l-124 122l-121 -120l-78 80l120 119l-122 122z" />
    <glyph glyph-name="divide" unicode="&#xf7;" 
d="M279 624c42 0 74 -31 74 -73s-32 -71 -74 -71s-74 29 -74 71s32 73 74 73zM500 392v-119h-441v119h441zM279 186c42 0 74 -30 74 -73c0 -42 -32 -71 -74 -71s-74 29 -74 71c0 43 32 73 74 73z" />
    <glyph glyph-name="equal" unicode="=" 
d="M57 381v111h446v-111h-446zM57 176v111h446v-111h-446z" />
    <glyph glyph-name="notequal" unicode="&#x2260;" 
d="M503 381h-150l-33 -94h183v-111h-221l-48 -137h-114l48 137h-111v111h149l33 94h-182v111h220l47 135h115l-47 -135h111v-111z" />
    <glyph glyph-name="approxequal" unicode="&#x2248;" 
d="M378 366c-79 0 -131 56 -203 56c-36 0 -65 -15 -87 -39l-51 77c28 35 80 84 148 84c74 0 129 -56 203 -56c35 0 62 15 86 36l50 -79c-35 -48 -86 -79 -146 -79zM378 162c-79 0 -131 57 -202 57c-37 0 -66 -15 -88 -38l-51 75c28 37 80 84 148 84c74 0 129 -55 204 -55
c34 0 61 14 85 35l50 -78c-33 -46 -83 -80 -146 -80z" />
    <glyph glyph-name="asciitilde" unicode="~" 
d="M176 417c82 0 131 -62 219 -62c45 0 88 17 120 60v-111c-37 -32 -77 -55 -129 -55c-87 0 -138 61 -220 61c-43 0 -86 -16 -119 -59v111c40 34 81 55 129 55z" />
    <glyph glyph-name="greater" unicode="&#x3e;" 
d="M68 492l436 -185v-84l-436 -180v126l279 98l-279 97v128z" />
    <glyph glyph-name="less" unicode="&#x3c;" 
d="M491 492v-128l-279 -97l279 -98v-126l-436 180v84z" />
    <glyph glyph-name="greaterequal" unicode="&#x2265;" 
d="M65 574l436 -185v-84l-436 -180v127l280 97l-280 97v128zM64 0v111h436v-111h-436z" />
    <glyph glyph-name="lessequal" unicode="&#x2264;" 
d="M494 574v-128l-279 -97l279 -97v-127l-436 180v84zM495 0h-436v111h436v-111z" />
    <glyph glyph-name="logicalnot" unicode="&#xac;" 
d="M496 176h-118v205h-329v111h447v-316z" />
    <glyph glyph-name="plus.sc" horiz-adv-x="507" 
d="M309 219v-143h-111v143h-133v105h133v142h111v-142h134v-105h-134z" />
    <glyph glyph-name="minus.sc" horiz-adv-x="507" 
d="M64 214v114h378v-114h-378z" />
    <glyph glyph-name="plusminus.sc" horiz-adv-x="507" 
d="M308 278v-127h-111v127h-133v105h133v127h111v-127h134v-105h-134zM68 0v104h370v-104h-370z" />
    <glyph glyph-name="multiply.sc" horiz-adv-x="507" 
d="M153 428l102 -98l100 96l74 -76l-97 -93l99 -95l-77 -79l-102 97l-101 -96l-74 76l98 94l-99 95z" />
    <glyph glyph-name="divide.sc" horiz-adv-x="507" 
d="M254 524c39 0 69 -28 69 -68c0 -39 -30 -67 -69 -67s-69 28 -69 67c0 40 30 68 69 68zM441 328v-114h-375v114h375zM254 155c39 0 69 -28 69 -67s-30 -67 -69 -67s-69 28 -69 67s30 67 69 67z" />
    <glyph glyph-name="equal.sc" horiz-adv-x="507" 
d="M64 308v105h378v-105h-378zM64 133v105h378v-105h-378z" />
    <glyph glyph-name="notequal.sc" horiz-adv-x="507" 
d="M442 308h-124l-24 -70h148v-105h-183l-39 -114h-108l39 114h-87v105h123l24 70h-147v105h183l38 112h107l-38 -112h88v-105z" />
    <glyph glyph-name="approxequal.sc" horiz-adv-x="507" 
d="M337 297c-67 0 -112 45 -173 45c-29 0 -54 -10 -73 -30l-47 73c23 31 70 73 129 73c62 0 110 -45 174 -45c27 0 49 9 70 26l47 -76c-31 -42 -77 -66 -127 -66zM337 124c-67 0 -112 46 -172 46c-30 0 -55 -11 -74 -30l-47 73c23 30 70 71 129 71c62 0 110 -44 174 -44
c27 0 49 9 70 26l47 -74c-28 -40 -74 -68 -127 -68z" />
    <glyph glyph-name="asciitilde.sc" horiz-adv-x="507" 
d="M166 345c70 0 110 -46 185 -46c39 0 76 13 102 49v-105c-30 -26 -64 -45 -112 -45c-72 0 -114 46 -185 46c-37 0 -75 -13 -102 -48v104c34 27 69 45 112 45z" />
    <glyph glyph-name="greater.sc" horiz-adv-x="507" 
d="M72 411l377 -159v-78l-377 -153v119l227 75l-227 76v120z" />
    <glyph glyph-name="less.sc" horiz-adv-x="507" 
d="M435 411v-120l-226 -76l226 -75v-119l-377 153v78z" />
    <glyph glyph-name="greaterequal.sc" horiz-adv-x="507" 
d="M68 524l377 -158v-78l-377 -154v119l227 75l-227 76v120zM68 0v104h377v-104h-377z" />
    <glyph glyph-name="lessequal.sc" horiz-adv-x="507" 
d="M439 524v-120l-226 -76l226 -75v-119l-377 154v78zM439 0h-377v104h377v-104z" />
    <glyph glyph-name="logicalnot.sc" horiz-adv-x="507" 
d="M439 133h-111v175h-267v105h378v-280z" />
    <glyph glyph-name="asciicircum" unicode="^" 
d="M347 662l187 -350h-137l-118 226l-117 -226h-137l187 350h135z" />
    <glyph glyph-name="lozenge" unicode="&#x25ca;" 
d="M354 677l162 -339l-158 -338h-155l-159 338l158 339h152zM284 135l82 193l-89 214l-86 -194z" />
    <glyph glyph-name="integral" unicode="&#x222b;" horiz-adv-x="347" 
d="M89 621c-6 120 49 181 158 181c23 0 46 -3 78 -10v-102c-18 4 -30 5 -42 5c-42 0 -60 -21 -57 -77l32 -596c6 -115 -50 -182 -156 -182c-24 0 -51 3 -79 11v101c20 -2 30 -3 41 -3c48 0 59 27 56 77z" />
    <glyph glyph-name="infinity" unicode="&#x221e;" horiz-adv-x="944" 
d="M260 483c90 0 156 -44 213 -100c61 58 129 100 218 100c120 0 212 -71 212 -192c0 -126 -100 -203 -221 -203c-91 0 -155 46 -214 102c-55 -55 -126 -102 -220 -102c-118 0 -207 72 -207 192c0 126 96 203 219 203zM257 202c49 0 91 34 133 82c-42 49 -80 86 -133 86
c-50 0 -79 -35 -79 -83s26 -85 79 -85zM680 369c-52 0 -89 -35 -129 -81c45 -50 87 -86 133 -86c47 0 79 36 79 85s-33 82 -83 82z" />
    <glyph glyph-name="section" unicode="&#xa7;" horiz-adv-x="547" 
d="M220 -159c-57 0 -112 15 -136 23v101c46 -19 93 -32 133 -32c46 0 68 20 68 50c0 109 -252 197 -252 413c0 199 124 295 295 295c52 0 90 -8 121 -18v-100c-33 13 -76 23 -118 23c-43 0 -69 -21 -69 -52c0 -93 254 -186 254 -411c0 -154 -91 -292 -296 -292zM355 -32
c35 35 63 80 63 147c0 150 -222 263 -242 375c-3 18 1 37 10 53c-32 -31 -48 -79 -48 -125c0 -175 236 -260 236 -394c0 -16 -4 -38 -19 -56z" />
    <glyph glyph-name="partialdiff" unicode="&#x2202;" horiz-adv-x="565" 
d="M247 741c193 0 275 -108 275 -329c0 -147 -21 -426 -277 -426c-141 0 -222 86 -222 209c0 161 104 243 232 243c44 0 89 -10 134 -30v31c0 121 -30 192 -150 192c-37 0 -79 -6 -122 -17l10 111c30 10 73 16 120 16zM255 97c84 0 117 81 129 203c-36 20 -72 30 -104 30
c-66 0 -118 -42 -118 -135c0 -62 32 -98 93 -98z" />
    <glyph glyph-name="product" unicode="&#x220f;" horiz-adv-x="708" 
d="M489 -100v653h-271v-653h-143v777h558v-777h-144z" />
    <glyph glyph-name="radical" unicode="&#x221a;" horiz-adv-x="691" 
d="M265 0l-129 399h-120v110h237l106 -369h1l173 622h153l-233 -762h-188z" />
    <glyph glyph-name="summation" unicode="&#x2211;" horiz-adv-x="556" 
d="M524 42v-142h-489v141l205 261l-187 232v143h446v-141h-285l164 -210v-50l-182 -234h328z" />
    <glyph glyph-name="bar" unicode="|" horiz-adv-x="278" 
d="M74 -154v956h131v-956h-131z" />
    <glyph glyph-name="brokenbar" unicode="&#xa6;" horiz-adv-x="278" 
d="M74 484v318h131v-318h-131zM74 -154v318h131v-318h-131z" />
    <glyph glyph-name="dagger" unicode="&#x2020;" horiz-adv-x="499" 
d="M297 450l18 -186l-26 -264h-79l-26 264l18 186h-156v83h156l-17 144h130l-18 -144h156v-83h-156z" />
    <glyph glyph-name="daggerdbl" unicode="&#x2021;" horiz-adv-x="499" 
d="M202 227l-18 112l18 111h-156v83h156l-17 144h130l-18 -144h156v-83h-156l18 -111l-18 -112h156v-83h-156l18 -144h-130l17 144h-156v83h156z" />
    <glyph glyph-name="uni0394" unicode="&#x394;" horiz-adv-x="613" 
d="M586 120v-120h-558v120l196 557h166zM166 124h273l-136 405h-2z" />
    <glyph glyph-name="uni2206" unicode="&#x2206;" horiz-adv-x="613" 
d="M586 120v-120h-558v120l196 557h166zM166 124h273l-136 405h-2z" />
    <glyph glyph-name="uni03A9" unicode="&#x3a9;" horiz-adv-x="716" 
d="M359 692c218 0 302 -122 302 -308c0 -111 -56 -205 -139 -260h137v-124h-260v126c75 57 113 137 113 238c0 129 -34 207 -155 207c-122 0 -157 -84 -157 -207c0 -104 39 -181 115 -238v-126h-261v124h126c-79 51 -128 140 -128 253c0 183 90 315 307 315z" />
    <glyph glyph-name="uni2126" unicode="&#x2126;" horiz-adv-x="716" 
d="M359 692c218 0 302 -122 302 -308c0 -111 -56 -205 -139 -260h137v-124h-260v126c75 57 113 137 113 238c0 129 -34 207 -155 207c-122 0 -157 -84 -157 -207c0 -104 39 -181 115 -238v-126h-261v124h126c-79 51 -128 140 -128 253c0 183 90 315 307 315z" />
    <glyph glyph-name="uni03BC" unicode="&#x3bc;" horiz-adv-x="623" 
d="M67 509h138v-313c0 -65 35 -99 82 -99c50 0 91 18 113 34v378h136v-397c0 -20 9 -28 27 -28c7 0 16 2 24 4v-82c-29 -13 -56 -17 -78 -17c-49 0 -84 19 -100 68c-32 -34 -85 -67 -149 -67c-30 0 -50 15 -56 34v-191h-137v676z" />
    <glyph glyph-name="uni00B5" unicode="&#xb5;" horiz-adv-x="623" 
d="M67 509h138v-313c0 -65 35 -99 82 -99c50 0 91 18 113 34v378h136v-397c0 -20 9 -28 27 -28c7 0 16 2 24 4v-82c-29 -13 -56 -17 -78 -17c-49 0 -84 19 -100 68c-32 -34 -85 -67 -149 -67c-30 0 -50 15 -56 34v-191h-137v676z" />
    <glyph glyph-name="pi" unicode="&#x3c0;" horiz-adv-x="659" 
d="M625 509v-99h-98v-284c0 -24 15 -36 38 -36c15 0 27 1 44 6v-93c-34 -11 -69 -16 -97 -16c-86 0 -121 39 -121 103v320h-148v-410h-138v410h-85v81l145 18h460z" />
    <glyph glyph-name="uni00A0" unicode="&#xa0;" horiz-adv-x="245" 
 />
    </font>
</defs>
</svg>
