<?xml version="1.0" encoding="utf-8"?>
<!-- Generator: Adobe Illustrator 24.3.0, SVG Export Plug-In . SVG Version: 6.00 Build 0)  -->
<svg version="1.1" id="Layer_1" xmlns="http://www.w3.org/2000/svg" xmlns:xlink="http://www.w3.org/1999/xlink" x="0px" y="0px"
	 viewBox="0 0 400 245.6" style="enable-background:new 0 0 400 245.6;" xml:space="preserve">
<style type="text/css">
	.st0{fill:#524E45;}
</style>
<g>
	<path class="st0" d="M62.9,125.2c5.7,3.9,6.9,7.9,6.9,13.3c0,10.7-6.5,15.6-19.2,16c-5.8,0.2-11.3-0.7-15.6-2c0-2.9,0-9.4,0-9.4
		c3.5,0.5,7.7,1.1,11.8,1.3c4.9,0.3,6.9,0.1,8.7-1c1.3-0.8,2.1-2.7,1.7-4.5c-0.3-1.8-1.1-2.7-3.9-4.6c-3.3-2.2-6.5-4-9.1-5.5
		c-7.9-4.6-10-7.6-10-14.4c0-10.5,5.7-14.9,18.9-15c4.6,0,10.1,0.8,13.6,1.7c0,1.8,0,9.8,0,9.8c-3.8-0.8-9.1-1.4-13.2-1.5
		c-3.3-0.1-5.4,0.1-6.5,1.4c-0.8,0.8-0.9,1.8-0.9,2.9c0.1,2.2,1.6,3,4.6,4.7C53.4,119.8,59.8,123.2,62.9,125.2 M90.3,154.5
		c2.4,0,6.3-0.3,8.6-0.9l0-7.9c-2.2,0.2-5.6,0.2-6.9,0.1c-1.1-0.1-1.3-0.3-1.6-0.9c-0.4-0.6-0.3-1.7-0.3-3.2v-21.2c0,0,7.5,0,8.3,0
		v-8c-0.9,0-8.3,0-8.3,0v-10.1l-11.6,2v8.1h-5.9v8l5.9,0v23C78.5,151.7,82.2,154.5,90.3,154.5 M121.9,112c-4.1,0-10.1,0.7-14.2,1.8
		l0,8.3c2.7-0.3,7.3-0.8,10.9-0.9c2.5-0.1,4.9,0.1,6.2,1c1.2,0.8,1.7,2.1,1.7,4.2v2.5l-3.6,0c-12.1,0-17.9,2.8-18.1,12
		c0,0.2,0,1.3,0,1.5c0,6.7,4,12.2,12.1,12.2c4,0,7.1-0.8,9.8-3v2.4h11.3v-27.6C138.1,116.1,131.5,112.1,121.9,112 M121.2,145.7
		c-3.1,0.1-5.1-1.4-5.2-4.3c0-0.1,0-0.4,0-0.5c0-2.7,0.8-3.8,2.2-4.5c1.4-0.8,4.4-1,8.3-0.8l0,8.8
		C125.1,145,123.7,145.6,121.2,145.7 M249.4,112c-4.1,0-10.1,0.7-14.2,1.8l0,8.3c2.7-0.3,7.3-0.8,10.9-0.9c2.6-0.1,4.9,0.1,6.2,1
		c1.2,0.8,1.7,2.1,1.7,4.2v2.5l-3.6,0c-12.1,0-17.9,2.8-18.1,12c0,0.2,0,1.3,0,1.5c0,6.7,4,12.2,12.1,12.2c4,0,7.1-0.8,9.8-3v2.4
		h11.3v-27.6C265.6,116.1,258.9,112.1,249.4,112 M248.7,145.7c-3.1,0.1-5.1-1.4-5.2-4.3c0-0.1,0-0.4,0-0.5c0-2.7,0.8-3.8,2.2-4.5
		c1.4-0.8,4.4-1,8.3-0.8l0,8.8C252.6,145,251.1,145.6,248.7,145.7 M170.7,153.9h11.6v-28.3c0-7.1-3.5-13.6-12.8-13.6
		c-4.8,0-8.4,1.5-11.9,3.9v-3.3l-10.8,0v41.4h11.7v-30.3c1.6-0.9,4.2-1.9,6.3-2.1c2.4-0.2,3.6,0.1,4.9,1.5c0.9,1,1,2.8,1,5.4V153.9z
		 M213.8,98.7v13.2c-1.5-0.3-4.4-0.6-6.6-0.6c-5.1,0-9.3,1.4-12,3.9c-3.4,3.2-5.4,7.3-5.6,15.7c0,0.3,0,6.3,0,6.7
		c0,11.7,5.5,17,14.9,17c4.2,0,6.9-1,9.6-3c0,2.1,0,2.4,0,2.4h11.4V98.7H213.8z M213.8,144.3c-1.5,0.9-3.4,1.4-5.6,1.4
		c-2.2,0-3.8-0.5-5-1.7c-1.6-1.7-2.1-3.5-2.1-9c0-0.2,0-3.3,0-3.6c0-7.1,1.2-10.2,5.8-11.2c2.1-0.5,5.4-0.1,6.9,0.3L213.8,144.3z
		 M325.4,98.7v13.2c-1.5-0.3-4.4-0.6-6.6-0.6c-5.1,0-9.3,1.4-12,3.9c-3.4,3.2-5.4,7.3-5.6,15.7c0,0.3,0,6.3,0,6.7
		c0,11.7,5.5,17,14.9,17c4.2,0,6.9-1,9.6-3c0,2.1,0,2.4,0,2.4h11.4V98.7H325.4z M325.4,144.3c-1.5,0.9-3.4,1.4-5.5,1.4
		c-2.2,0-3.8-0.5-5-1.7c-1.6-1.7-2.1-3.5-2.1-9c0-0.2,0-3.3,0-3.6c0-7.1,1.2-10.2,5.8-11.2c2.1-0.5,5.4-0.1,6.9,0.3L325.4,144.3z
		 M297.7,112.1c-4.9-0.6-10.2,1.6-12.1,3.5v-3h-11.4v41.4h11.6v-29.9c2.5-1.6,7-2.8,11.9-2.5C297.6,121.5,297.7,113.1,297.7,112.1
		 M380.1,70.5l-25.7,50.2l-11.2-21.9L380.1,70.5z M36.4,65.1c-5.3,0-11.3,1.2-15.7,4.9c4-6.7,10.8-12.5,19.3-12.5
		c6.9,0,11.9,3.9,21.3,3.9c6.8,0,14.4-2,20.7-6.1C77,62.6,68.5,69,58.7,69C50,69,46.1,65.1,36.4,65.1 M103.2,39.8
		c-4.2,0-7.2,0.8-9.2,1.6V22.4h-7.5v57.7c3.7,2,8.3,2.7,12.4,2.7c13.4,0,23.5-6.3,23.5-22.7C122.4,47.8,115.2,39.8,103.2,39.8
		 M99.1,76.2c-1.5,0-3.5-0.1-5.1-0.8V48.3c2-0.8,4.7-1.7,8.5-1.7c8.1,0,12.4,4.5,12.4,13.4C114.8,70,109.5,76,99.1,76.2 M311.7,61
		c0-10.3-5.1-21.1-18.2-21.2c-12.4,0-19.4,9.1-19.4,21.3c0,13,9,21.6,22.2,21.6c3.9,0,8.8-0.8,13.5-3.8l-2.9-6.1
		c-3.6,1.9-6.7,2.8-10,2.8c-7.1,0-14.2-3.4-15-12.3h29.8V61z M282.1,56.5c0.9-6.1,5.4-10,10.9-10c6.1,0,10,4,10.9,10H282.1z
		 M163.5,61c0-10.3-5.1-21.1-18.2-21.2c-12.4,0-19.4,9.1-19.4,21.3c0,13,9,21.6,22.2,21.6c3.9,0,8.8-0.8,13.5-3.8l-2.9-6.1
		c-3.6,1.9-6.7,2.8-10,2.8c-7.1,0-14.2-3.4-15-12.3h29.8V61z M133.8,56.5c0.9-6.1,5.4-10,10.9-10c6.1,0,9.9,4,10.9,10H133.8z
		 M350.7,60.3v21.5h-7.5V61c0-9.2-3.7-14.7-13-14.7c-2.2,0-4.9,0.2-6.8,0.8v34.7H316v-39c4.5-2.2,10-3,14.6-3
		C343.8,39.8,350.7,47.7,350.7,60.3 M270.7,61c0-10.3-5.1-21.1-18.2-21.2c-12.4,0-19.4,9.1-19.4,21.3c0,13,9,21.6,22.2,21.6
		c3.9,0,8.8-0.8,13.5-3.8l-2.9-6.1c-3.6,1.9-6.7,2.8-10,2.8c-7.1,0-14.2-3.4-15-12.3h29.8V61z M241.1,56.5c0.9-6.1,5.4-10,10.9-10
		c6.1,0,10,4,10.9,10H241.1z M194.9,43.8l-3.9,5.5c-3.1-2-6.3-2.9-10.1-2.9c-2,0-4.6,0.5-5.6,1v34.4h-7.5V42.8
		c3.6-1.7,7.6-2.9,12.5-2.9C185.8,39.8,191,40.9,194.9,43.8 M221.5,22.4v18.1c-1.5-0.3-4.1-0.6-6.3-0.6c-13.1,0-22.5,8.6-22.5,21.6
		c0,13,10.1,21.3,23.3,21.3c4.5,0,8.9-0.9,12.9-2.7V22.4H221.5z M221.5,75.6c-1.2,0.4-3.2,0.6-5.1,0.6c-9.1-0.2-16.2-5.1-16.2-14.8
		c0-9,5.3-14.7,15.5-14.7c1.8,0,3.7,0.2,5.8,0.7V75.6z M38.9,67.9l-6.8,13.9h-9.5l6.7-13.2c2.7-0.7,5.2-0.9,7-0.9
		C37.3,67.8,38.1,67.9,38.9,67.9 M75.4,66.1l8,15.7h-9.5L68.1,70C70.7,69.1,73.1,67.8,75.4,66.1 M45.1,55.3
		c-1.6-0.4-3.3-0.6-5.1-0.6c-1.2,0-2.5,0.1-3.7,0.4L53,22.5l17.7,34.7c-2.7,0.8-5.5,1.2-8.3,1.3L53,39.1L45.1,55.3z M120.2,173
		c-5.5,0.1-8.8,1.6-11.5,4.2c-3,2.9-4.5,7.3-4.5,13v6.9c0,5.6,1.4,10.3,4.4,13.2c2.7,2.6,6,4,11.5,4c4,0.1,7.5-0.4,10.3-1.2v-7.3
		c-2.4,0.3-6.5,0.7-9.8,0.6c-2.7-0.1-4.5-0.8-5.8-2.3c-1.3-1.4-1.8-3.6-1.8-6.9v-7.1c0-3.3,0.6-5.4,1.8-6.9c1.3-1.6,3.1-2.2,5.8-2.3
		c3.2-0.1,7.4,0.2,9.8,0.6V174C127.8,173.4,124.1,172.9,120.2,173 M147.3,183.4c-3-0.1-7.4,0.4-10.3,1.3v6c2-0.2,5.3-0.6,7.9-0.6
		c1.9-0.1,3.6,0,4.5,0.7c0.8,0.6,1.2,1.5,1.2,3.1v1.8l-2.6-0.1c-8.7,0-12.9,2.1-13.1,8.7v1.1c0,4.9,2.9,8.9,8.8,8.9
		c2.9,0,5.1-0.6,7.1-2.2v1.8h8.2v-20C159.1,186.3,154.3,183.4,147.3,183.4 M150.7,206.8c-1,0.4-2.1,0.9-3.9,0.9
		c-2.2,0.1-3.7-1-3.7-3.1v-0.4c0-2,0.6-2.7,1.6-3.2c1.1-0.6,3.2-0.8,6-0.6V206.8z M188.3,186.2c-1.7-1.9-4.3-3-7.5-2.8
		c-3.1,0.1-5.1,1.2-7.3,2.7v-2.2h-8.1v40h8.4v-11.1c1.6,0.9,3.9,1.4,5.8,1.5c3.3,0.1,6-0.6,8-2.3c2.6-2.3,3.6-5.1,3.7-11.5V197
		C191.4,192.6,190.6,188.7,188.3,186.2 M179.2,207.8c-1.6,0.2-4-0.3-5.4-1.1v-14.9c0.7-0.4,2.6-1.2,3.8-1.4c1.9-0.3,3.1,0.1,4,0.9
		c1.2,1.1,1.4,3,1.4,6.5c0.1,0.2,0.1,2.4,0.1,2.6C183,205.4,182.1,207.4,179.2,207.8 M205.4,213.8H197v-30h8.4V213.8z M205.4,180.7
		H197v-6.9h8.4V180.7z M214.1,177.9v5.9h-4.3v5.8h4.3v16.7c0,5.9,2.7,7.9,8.5,7.9c1.8,0.1,4.6-0.2,6.2-0.6v-5.7
		c-1.6,0.2-4,0.2-5,0.1c-0.8-0.1-0.9-0.3-1.2-0.7c-0.3-0.4-0.2-1.2-0.2-2.3v-15.4h6.1v-5.8h-6.1v-7.3L214.1,177.9z M245,183.4
		c-3-0.1-7.4,0.4-10.3,1.3v6c2-0.2,5.3-0.6,7.9-0.6c1.9-0.1,3.6,0,4.5,0.7c0.8,0.6,1.2,1.5,1.2,3.1v1.8l-2.6-0.1
		c-8.7,0-12.9,2.1-13.1,8.7v1.1c0,4.9,2.9,8.9,8.8,8.9c2.9,0,5.1-0.6,7.1-2.2v1.8h8.2v-20C256.8,186.3,251.9,183.4,245,183.4
		 M248.4,206.8c-1,0.4-2.1,0.9-3.9,0.9c-2.2,0.1-3.7-1-3.7-3.1v-0.4c0-2,0.6-2.7,1.6-3.2c1.1-0.6,3.2-0.8,6-0.6V206.8z M271.6,173.8
		h-8.4v40h8.4V173.8z"/>
</g>
</svg>
