<?xml version="1.0" encoding="utf-8"?>
<!-- Generator: Adobe Illustrator 21.0.0, SVG Export Plug-In . SVG Version: 6.00 Build 0)  -->
<!DOCTYPE svg PUBLIC "-//W3C//DTD SVG 1.1//EN" "http://www.w3.org/Graphics/SVG/1.1/DTD/svg11.dtd">
<svg version="1.1" id="AW" xmlns="http://www.w3.org/2000/svg" xmlns:xlink="http://www.w3.org/1999/xlink" x="0px" y="0px"
	 viewBox="0 0 434.7 141.9" style="enable-background:new 0 0 434.7 141.9;" xml:space="preserve">
<style type="text/css">
	.st0{fill:#244B5A;}
</style>
<title>CAT_logo_cent_navy</title>
<path class="st0" d="M32.3,35.7L18.9,22.6l2.6-2.7L35,33l-0.4,0.4l11.1,11l-0.4,0.4l10,9.9l-0.4,0.4l-10-9.9l-0.6,0.6l-11.1-11
	L32.3,35.7z M28.8,40l12.5,9.5l0.5-0.6l11.1,8.5l0.4-0.4l-11.1-8.6l0.4-0.4L30,38.5l0.4-0.5l-15-11.3l-2.3,3l15,11.3L28.8,40z
	 M43.7,26.3l8,13.5l0.7-0.4l7.1,12.1l0.5-0.3l-7.1-12.1l0.5-0.3l-8-13.5l0.5-0.3L36.2,8.9L33,10.9L42.7,27L43.7,26.3z M38.2,30.3
	l9.6,12.4l0.7-0.5L57,53.2l0.5-0.4l-8.6-11.1l0.4-0.3L39.7,29l0.5-0.4L28.5,13.9l-3,2.3L37.2,31L38.2,30.3z M18.8,71.8h15.7v-0.7h14
	v-0.6h-14v-0.7H18.8V69H0v3.8h18.8L18.8,71.8z M19.1,65l15.5,2l0.1-0.7l13.9,1.8l0.1-0.6l-13.9-1.8l0.1-0.7l-15.6-2l0.1-0.9
	L0.8,59.8l-0.5,3.7L19,66L19.1,65z M22.3,51.9l14.5,6l0.3-0.7l13,5.4l0.2-0.5l-13-5.4l0.2-0.6l-14.5-6l0.3-0.7L6,42.3l-1.4,3.5
	l17.4,7.1L22.3,51.9z M20.3,58.4l15.2,4l0.2-0.7l13.6,3.7l0.1-0.6l-13.6-3.6l0.2-0.6l-15.2-4l0.2-0.8L2.9,50.9l-1,3.6L20,59.4
	L20.3,58.4z M19.4,78.6l15.6-2l-0.1-0.7l13.9-1.8l-0.1-0.6l-13.9,1.8l-0.1-0.7l-15.5,2L19,75.7L0.4,78.1l0.5,3.7l18.6-2.4L19.4,78.6
	z M89.4,22l-5.8,14.5l1,0.4l-5.3,13l0.5,0.2l5.3-13l0.3,0.1l5.8-14.6l0.2,0.1l6.7-17.5l-3.5-1.3l-6.8,17.5L89.4,22z M101.2,28.4
	l-9.3,12.5l0.9,0.6l-8.5,11.2l0.5,0.4l8.5-11.2l0.2,0.2l9.4-12.6h0.1l11-15.2l-3-2.2l-11,15.2L101.2,28.4z M95.5,24.8l-7.6,13.6
	l0.9,0.5l-7,12.2l0.5,0.3l7-12.2l0.3,0.1l7.6-13.6l0.1,0.1l8.9-16.5L103,7.5L94,24L95.5,24.8z M49.7,23.2l6.1,14.4l0.8-0.4l5.4,13
	l0.5-0.2l-5.4-13l0.5-0.2l-6.1-14.4l0.5-0.2L44.4,5L41,6.5l7.5,17.2L49.7,23.2z M106.5,32.7L95.6,43.9l0.8,0.8l-9.9,10l0.4,0.4
	l33.9-34.7l-2.8-2.6l-12.8,13.7L106.5,32.7z M79,35.2l1,0.2l-3.6,13.6l0.5,0.1l3.6-13.6l0.4,0.1l3.9-15.2l0.2,0.1l4.4-18.3l-3.7-0.9
	l-4.4,18.3l1.5,0.4L79,35.2z M62.6,19.4l2.2,15.5l1-0.1l1.9,13.9l0.6-0.1l-1.9-13.9l0.4-0.1l-2.2-15.6l0.4-0.1L62.2,0.4L58.4,1
	l2.8,18.5L62.6,19.4z M56,20.9L60.2,36l0.9-0.2l3.7,13.6l0.5-0.1l-3.7-13.6l0.4-0.1l-4.2-15.1l0.4-0.1L53.1,2.2l-3.6,1l5.2,18
	L56,20.9z M74,48.6l1.8-13.9h0.4l1.9-15.6h0.3l2-18.7L76.6,0l-2,18.7l1.5,0.2l-1.8,15.5l1,0.1l-1.8,13.9L74,48.6z M25.2,45.8
	l13.6,7.8l0.4-0.7l12.2,7l0.3-0.5l-12.2-7l0.3-0.5l-13.6-7.8l0.4-0.6l-16.3-9.3l-1.9,3.3l16.3,9.3L25.2,45.8z M78.2,122.5L76.2,107
	l-0.4,0l-1.8-14l-0.6,0.1l1.8,13.9l-1,0.1l1.8,15.5l-1.5,0.2l2,18.7l3.8-0.4l-2-18.7L78.2,122.5z M20.8,85.2l15.2-4l-0.2-0.6
	l13.6-3.6l-0.1-0.6L35.7,80l-0.2-0.7l-15.2,4l-0.2-1L1.9,87.1l1,3.6l18.2-4.8L20.8,85.2z M71.6,107.4h-0.4l0-14h-0.6l0,14h-1
	L69.4,123h-1.5l-0.4,18.8l3.8,0.1l0.4-18.8h-0.3L71.6,107.4z M84.8,121.2L81,106l-0.4,0.1L77,92.5l-0.5,0.1l3.6,13.6l-1,0.2
	l3.8,15.1l-1.5,0.4l4.4,18.3l3.7-0.9L85,121.1L84.8,121.2z M66.4,107l1.8-13.9L67.7,93l-1.9,13.9l-1-0.1l-2.2,15.5l-1.4-0.2
	l-2.8,18.6l3.7,0.6l2.8-18.6l-0.4-0.1l2.2-15.6L66.4,107z M102.9,112.1l-9.4-12.5l-0.2,0.2l-8.5-11.2l-0.5,0.4l8.5,11.2l-0.9,0.6
	l9.2,12.5l-1.4,1l11,15.2l3-2.2L102.9,112.1L102.9,112.1z M86.6,87l9.9,10l-0.8,0.8l10.9,11.2l-1.3,1.2l12.8,13.7l2.8-2.6L87,86.6
	L86.6,87z M91.2,119l-5.9-14.6l-0.3,0.1l-5.3-13l-0.5,0.2l5.3,13l-1,0.4l5.8,14.5l-1.5,0.6l6.7,17.5l3.5-1.3l-6.7-17.5L91.2,119z
	 M97.3,116l-7.6-13.7l-0.3,0.2l-7-12.2l-0.5,0.3l7,12.2l-0.9,0.5l7.6,13.7l-1.5,0.8l8.9,16.5l3.3-1.8l-8.9-16.5L97.3,116z M67.6,0
	L68,18.8h1.5l0.2,15.6h1l0,14h0.6l0-14h0.4l-0.2-15.7h0.3L71.4,0L67.6,0z M62.2,106.3l-0.4-0.1l3.7-13.6l-0.5-0.1L61.2,106l-0.9-0.2
	l-4.2,15.1l-1.3-0.4l-5.2,18l3.6,1l5.2-18l-0.4-0.1L62.2,106.3z M34.6,108.3l11.1-11l-0.4-0.4l10-9.9l-0.4-0.4l-10,9.8l-0.6-0.6
	l-11.1,11l-0.8-0.9l-13.4,13.1l2.6,2.7L35,108.7L34.6,108.3z M30.1,103.3l12.5-9.5l-0.4-0.5l11.1-8.5L53,84.4l-11.1,8.5l-0.5-0.6
	l-12.5,9.5l-0.7-0.9l-15,11.3l2.3,3l15-11.3L30.1,103.3z M23.1,91.7l14.5-6l-0.2-0.6l13-5.4l-0.2-0.5l-13,5.4l-0.3-0.7l-14.5,5.9
	l-0.4-1L4.6,96L6,99.5l17.4-7.1L23.1,91.7z M26.2,97.7l13.6-7.8l-0.3-0.5l12.2-7l-0.3-0.5l-12.2,7l-0.4-0.7l-13.6,7.7l-0.5-1
	l-16.3,9.3l1.9,3.3l16.3-9.3L26.2,97.7z M51.5,119.4l6.1-14.4l-0.5-0.2l5.4-13l-0.5-0.2l-5.4,13l-0.8-0.4l-6.1,14.4l-1.2-0.5
	l-7.5,17.2l3.5,1.5l7.4-17.4L51.5,119.4z M45.4,116.4l8-13.5l-0.5-0.3l7-12.2l-0.5-0.3l-7.1,12.1l-0.7-0.4l-8,13.5l-1.1-0.7
	L33,130.8l3.3,1.9l9.6-16.1L45.4,116.4z M39.8,112.7l9.6-12.4L49,100l8.6-11.1l-0.5-0.4l-8.6,11.1l-0.7-0.5l-9.7,12.3l-1-0.8
	l-11.6,14.8l3,2.3L40.2,113L39.8,112.7z M171.4,102.8c9.7,0,17.3-3.4,23-9.8l-5.5-5.4c-4.5,4.9-10.8,7.7-17.5,7.5
	c-11.9,0-22-10.1-22-23.5c0-14.2,10.4-23.8,22.2-23.8c7,0,12.1,2.4,17,7.7l5.8-5.4c-6.2-6.6-13.4-9.8-22.9-9.8
	c-17.2,0.3-31,14.5-30.7,31.7C141.1,88.9,154.6,102.5,171.4,102.8L171.4,102.8z M304.4,101.7h8.1V61.4h-8.2l0.1,4.8
	c-2.9-3.3-7.5-5.6-13.8-5.6c-10.3,0-19.8,8.6-19.8,21c0,12.2,9.2,21.1,19.8,21.1c6.3,0,10.9-2.3,13.8-5.6L304.4,101.7z M292.1,95.3
	c-7.5,0-13.1-5.9-13.1-13.7c0-7.3,5.3-13.6,13.1-13.6c7.4,0,12.8,6,12.8,13.6C304.8,89.2,299.4,95.2,292.1,95.3L292.1,95.3z
	 M322,101.7h8.1V41.6h-8.2L322,101.7z M389.6,102.7c9.9,0,15.4-4.4,15.4-12.6c0-15.4-21-10-21-17.9c0-2.6,1.9-4.5,6.5-4.5
	c3.5,0,6.9,1.1,9.8,3.1l3.9-5.9c-3.4-2.8-8.6-4.4-14-4.4c-8.4,0-14,4.7-14,11.9c0,15.6,20.9,9.5,20.9,18.4c0,3.4-2.7,4.7-7.2,4.7
	c-4.3-0.1-8.5-1.5-12-4.2l-3.6,6.5C378.7,101,384.1,102.7,389.6,102.7L389.6,102.7z M426.1,61.4V47.8h-8.1v13.6h-8.7v7.3h8.7v33h8.1
	v-33h8.7v-7.3L426.1,61.4z M365.9,61.4l-10.7,29.8l-11.7-29.8h-8.9l16.1,40.6l-6.7,19.3h7.9l22.4-59.9H365.9z M231.1,101.7h8.1V61.4
	h-8.1l0.1,4.8c-2.9-3.3-7.5-5.6-13.8-5.6c-10.4,0-19.8,8.6-19.8,21c0,12.2,9.2,21.1,19.8,21.1c6.3,0,10.9-2.3,13.8-5.6L231.1,101.7z
	 M218.8,95.2c-7.5,0-13.1-5.9-13.1-13.7c0-7.3,5.4-13.6,13.1-13.6c7.4,0,12.8,6,12.8,13.6C231.5,89.2,226.1,95.2,218.8,95.2
	L218.8,95.2z M260.9,61.4V47.8h-8.1v13.6h-8.6v7.3h8.6v33h8.1v-33h8.7v-7.3L260.9,61.4z"/>
</svg>
