<svg xmlns="http://www.w3.org/2000/svg" viewBox="0 0 333.29 80.35"><g id="Layer_2" data-name="Layer 2"><g id="Final_art" data-name="Final art"><path d="M40.17 80.35A16.27 16.27 0 0 0 56.36 64c0-8.63-16.19-20.86-16.19-20.86S24 55.37 24 64a16.27 16.27 0 0 0 16.17 16.35" fill="#e9c4c5"/><path d="M40.17 0A16.19 16.19 0 0 0 24 16.19c0 8.54 16.19 20.65 16.19 20.65s16.17-12.11 16.17-20.65A16.19 16.19 0 0 0 40.17 0" fill="#e74984"/><path d="M0 39.47a16.27 16.27 0 0 0 16.07 16.47c8.62.15 21.14-15.82 21.14-15.82s-12-16.4-20.58-16.55A16.28 16.28 0 0 0 0 39.47" fill="#873375"/><path d="M80.34 40.88a16.19 16.19 0 0 0-15.9-16.47C55.9 24.26 43.5 40.23 43.5 40.23s11.83 16.4 20.37 16.55a16.2 16.2 0 0 0 16.47-15.9" fill="#aa3771"/><path fill="#899199" d="M108.98 16.06H97.94v19.13h11.04v-1.91h-8.94v-7.33h7.13l.2-1.91h-7.33v-6.07h8.94v-1.91M116.37 33.82c-2.76 0-3.36-2.18-3.36-5.68 0-4.62 1.45-5.69 3.88-5.69a6.91 6.91 0 0 1 3.45.85V31c-.9 1.8-1.92 2.84-4 2.84m6-18.26l-2 .28v2.9c0 1 0 1.91.08 2.84a7.83 7.83 0 0 0-3.72-.82c-2.84 0-5.74 1.23-5.74 7.38 0 4.89 1.53 7.38 5.09 7.38 2.24 0 3.69-.79 4.53-2.27a13.9 13.9 0 0 0 .58 2.1l1.69-.38a20.34 20.34 0 0 1-.49-4.89V15.56M127.77 21.09l-2 .27v9a16.35 16.35 0 0 0 .52 4.87h1.94a19.63 19.63 0 0 1-.43-4.76v-9.38m-1-4.92c-.82 0-1.31.35-1.31 1.17s.49 1.18 1.31 1.18 1.32-.36 1.32-1.18-.5-1.17-1.32-1.17M137.51 20.76c-2.32 0-3.74.79-4.59 2.27a14 14 0 0 0-.57-2.11l-1.7.38a19.92 19.92 0 0 1 .5 4.9v9h2v-9.9c.9-1.8 1.91-2.84 4-2.84 3 0 3.12 1.94 3.12 5v7.71h2V27.1c0-3.31-.68-6.34-4.76-6.34M151 33.8a9.56 9.56 0 0 1-3.58-.5v-8c.9-1.8 1.91-2.84 4-2.84 2.76 0 3.36 2.19 3.36 5.69 0 4.54-1.42 5.66-3.74 5.66m-3.58-18.24l-2 .28v18.8a15.35 15.35 0 0 0 5.53.88c3.22 0 5.87-1.42 5.87-7.38 0-4.89-1.53-7.38-5.08-7.38-2.13 0-3.5.68-4.29 2v-7.21M170.58 21.09l-2 .27V31c-.91 1.8-1.92 2.84-4 2.84-3 0-3.11-1.94-3.11-5v-7.7l-2 .27v7.82c0 3.3.69 6.34 4.76 6.34 2.32 0 3.75-.79 4.59-2.27a13.9 13.9 0 0 0 .58 2.1l1.69-.38a20.34 20.34 0 0 1-.49-4.89v-9M180 20.76a4.61 4.61 0 0 0-4.24 2.59 16 16 0 0 0-.65-2.43l-1.7.38a20.42 20.42 0 0 1 .49 4.9v9h2V26a4.24 4.24 0 0 1 4.34-3l-.24-2.24M187.1 33.41c-2.76 0-3.36-2.1-3.36-5.46 0-4.38 1.42-5.47 3.75-5.47a9.59 9.59 0 0 1 3.58.49v7.71c-.91 1.72-1.92 2.73-4 2.73m.47-12.65c-3.23 0-5.88 1.39-5.88 7.19 0 4.78 1.53 7.18 5.09 7.18 2.13 0 3.49-.6 4.29-2v.93c0 3-1.26 3.93-3.37 3.93a7.8 7.8 0 0 1-3.41-.71l-.52 1.72a9.57 9.57 0 0 0 3.94.74c3.33 0 5.41-1.67 5.41-5.52V21.63a15.55 15.55 0 0 0-5.52-.87M198.38 15.56l-2 .28v19.35h2v-9.9c.9-1.8 1.92-2.84 4-2.84 3 0 3.11 1.94 3.11 5v7.71h2V27.1c0-3.31-.68-6.34-4.75-6.34-2.19 0-3.56.68-4.35 2v-7.2M224.59 33.33c-4.21 0-6.2-.24-6.2-3.52 0-2.9 2.24-3.37 4.67-3.37h4v6.89h-2.49m-3.74-17.22a4.86 4.86 0 0 0-3.83 5.11c0 2.46 1.36 3.86 3.25 4.16a4.38 4.38 0 0 0-4.08 4.62c0 3.72 2.19 5.17 6.35 5.17h6.66v-8.73h3v-1.66l-3-.28v-4.56l-2.1.27v4.37h-3.77c-1.83 0-4.27-.21-4.27-3.17a3.32 3.32 0 0 1 2.46-3.52l-.65-1.78M242.52 16.06h-2.1v19.13h11.34v-1.91h-9.24V16.06M259.56 33.8c-3.5 0-4.1-2.14-4.1-5.66s.6-5.66 4.1-5.66 4.1 2.13 4.1 5.66-.6 5.66-4.1 5.66m0-13c-4.4 0-6.15 2.35-6.15 7.38s1.75 7.38 6.15 7.38 6.15-2.35 6.15-7.38-1.75-7.38-6.15-7.38M271.49 16.52l-2 .27v4.3h-2.4v1.72h2.4v5.63c0 3.09.17 5.36 2.44 7.16l1.36-1.15c-1.75-1.67-1.77-3-1.77-5.44v-6.2h2.95l.19-1.72h-3.14v-4.57M278.67 15.56l-2 .28v19.35h2v-9.9c.9-1.8 1.91-2.84 4-2.84 3 0 3.12 1.94 3.12 5v7.71h2V27.1c0-3.31-.68-6.34-4.75-6.34-2.19 0-3.56.68-4.35 2v-7.2M292.91 21.09l-2 .27v9a16.35 16.35 0 0 0 .52 4.87h1.94a19.63 19.63 0 0 1-.44-4.76v-9.38m-1-4.92c-.82 0-1.31.35-1.31 1.17s.49 1.18 1.31 1.18 1.31-.36 1.31-1.18-.49-1.17-1.31-1.17M300.63 33.85c-2.6 0-3.17-.79-3.17-2.49s2.4-2.51 7.13-2.73V31c-.9 1.8-1.91 2.87-4 2.87m.41-13.11a9.76 9.76 0 0 0-4.6 1.06l.66 1.64a9 9 0 0 1 3.94-.9c2 0 3.55 1 3.55 4.07V27c-7 .3-9.13 1.64-9.13 4.4 0 3.06 1.56 4.16 4.78 4.16 2.33 0 3.75-.79 4.6-2.27a12.79 12.79 0 0 0 .57 2.1l1.73-.39a20.34 20.34 0 0 1-.49-4.89v-3.69c0-4.16-2.57-5.66-5.57-5.66M316.18 20.76c-2.33 0-3.75.79-4.59 2.27a14 14 0 0 0-.58-2.11l-1.69.38a20.42 20.42 0 0 1 .49 4.9v9h2v-9.9c.9-1.8 1.91-2.84 4-2.84 3 0 3.12 1.94 3.12 5v7.71h2V27.1c0-3.31-.68-6.34-4.75-6.34M328.24 20.76c-2.55 0-4.62 1.17-4.62 3.82 0 3.15 2.21 3.89 4.59 4.54 2.16.63 3.11.9 3.11 2.46s-1.12 2.19-3 2.19a9.13 9.13 0 0 1-4.49-1.09l-.65 1.61a9.74 9.74 0 0 0 5.24 1.23c3 0 4.84-1.15 4.84-4.16s-2.38-3.58-4.54-4.18c-1.77-.49-3.17-1-3.17-2.49 0-1.86 1.21-2.18 2.82-2.18a7.24 7.24 0 0 1 3.44.76l.69-1.58a8.71 8.71 0 0 0-4.29-.93M111.08 45.24h-2.1v8.06h-8.94v-8.06h-2.1v19.13h2.1v-9.15h8.94v9.15h2.1V45.24M116 57.08v-.3c0-3.8 1.48-5.12 3.86-5.12 2.21 0 3.55 1.15 3.61 4.71l-7.47.71m3.86-7.14c-3.06 0-5.88 1.26-5.88 7.38 0 5.85 2.43 7.38 6.15 7.38a8.41 8.41 0 0 0 4.73-1.26l-.74-1.55a7.48 7.48 0 0 1-4 1.09c-2.51 0-4-1-4.07-4.32l9.4-.76v-.25c0-6-2-7.71-5.6-7.71M132.47 63c-2.6 0-3.17-.79-3.17-2.48s2.4-2.52 7.13-2.74v2.35c-.9 1.81-1.91 2.87-4 2.87m.41-13.09a9.59 9.59 0 0 0-4.55 1.09l.65 1.64a9 9 0 0 1 3.94-.9c2 0 3.55 1 3.55 4.07v.33c-7 .3-9.13 1.64-9.13 4.4 0 3.06 1.56 4.15 4.79 4.15 2.32 0 3.74-.79 4.59-2.27a14.31 14.31 0 0 0 .57 2.11l1.7-.38a19.93 19.93 0 0 1-.49-4.9V55.6c0-4.15-2.57-5.66-5.58-5.66M143.7 44.75l-2 .27v14.49a16.24 16.24 0 0 0 .52 4.86h1.94a19.11 19.11 0 0 1-.44-4.75V44.75M150.28 45.71l-2 .27v4.29h-2.4V52h2.4v5.63c0 3.09.16 5.36 2.43 7.16l1.37-1.14c-1.75-1.67-1.78-3-1.78-5.44V52h3l.19-1.72h-3.15v-4.57M157.47 44.75l-2 .27v19.35h2v-9.89c.9-1.8 1.91-2.84 4-2.84 2.95 0 3.12 1.94 3.12 5v7.7h2v-8.06c0-3.3-.68-6.34-4.76-6.34-2.18 0-3.55.69-4.34 2.05v-7.24M186.66 45.24h-11.04v19.13h2.1v-8.61h7.13l.19-1.91h-7.32v-6.7h8.94v-1.91M193.82 63c-3.5 0-4.1-2.13-4.1-5.66s.6-5.66 4.1-5.66 4.1 2.14 4.1 5.66-.6 5.66-4.1 5.66m0-13c-4.4 0-6.15 2.35-6.15 7.38s1.75 7.38 6.15 7.38 6.18-2.41 6.18-7.44-1.75-7.38-6.15-7.38M213.7 50.27l-2 .27v9.62c-.9 1.81-1.91 2.85-4 2.85-3 0-3.12-1.94-3.12-5v-7.74l-2 .27v7.82c0 3.31.68 6.34 4.76 6.34 2.32 0 3.74-.79 4.59-2.27a15.67 15.67 0 0 0 .57 2.11l1.7-.38a20.42 20.42 0 0 1-.49-4.9v-9M223.43 49.94c-2.33 0-3.75.79-4.59 2.27a13.9 13.9 0 0 0-.58-2.1l-1.69.38a20.34 20.34 0 0 1 .49 4.89v9h2v-9.9c.9-1.8 1.92-2.84 4-2.84 2.95 0 3.11 1.94 3.11 5v7.7h2v-8.06c0-3.3-.68-6.34-4.75-6.34M236.19 63c-2.76 0-3.36-2.19-3.36-5.69 0-4.62 1.45-5.68 3.88-5.68a7 7 0 0 1 3.45.84v7.68c-.9 1.81-1.92 2.85-4 2.85m6-18.26l-2 .27v2.9c0 1 0 1.91.08 2.84a7.83 7.83 0 0 0-3.72-.82c-2.84 0-5.74 1.23-5.74 7.38 0 4.89 1.53 7.38 5.09 7.38 2.24 0 3.69-.79 4.53-2.27a14.35 14.35 0 0 0 .58 2.11l1.69-.38a20.42 20.42 0 0 1-.49-4.9v-14.5M249.88 63c-2.6 0-3.17-.79-3.17-2.48s2.4-2.52 7.13-2.74v2.35c-.9 1.81-1.91 2.87-4 2.87m.41-13.09a9.65 9.65 0 0 0-4.6 1.07l.66 1.64a9 9 0 0 1 3.94-.9c2 0 3.55 1 3.55 4.07v.33c-7 .3-9.13 1.64-9.13 4.4 0 3.06 1.56 4.15 4.78 4.15 2.33 0 3.75-.79 4.6-2.27a13.18 13.18 0 0 0 .57 2.11l1.69-.38a20.42 20.42 0 0 1-.49-4.9V55.6c0-4.15-2.57-5.66-5.57-5.66M262 45.71l-2 .29v4.29h-2.4V52h2.4v5.63c0 3.09.17 5.36 2.44 7.16l1.36-1.14C262 62 262 60.6 262 58.2V52h3l.19-1.72H262v-4.57M269.28 50.27l-2 .27v9a16.58 16.58 0 0 0 .52 4.86h2a19.11 19.11 0 0 1-.44-4.75v-9.38m-1-4.92c-.82 0-1.32.36-1.32 1.18s.5 1.17 1.32 1.17 1.31-.35 1.31-1.17-.49-1.18-1.31-1.18M278.2 63c-3.5 0-4.1-2.13-4.1-5.66s.6-5.66 4.1-5.66 4.1 2.14 4.1 5.66-.6 5.66-4.1 5.66m0-13c-4.4 0-6.15 2.35-6.15 7.38s1.75 7.38 6.15 7.38 6.15-2.35 6.15-7.38S282.6 50 278.2 50M293.47 49.94c-2.33 0-3.75.79-4.6 2.27a12.79 12.79 0 0 0-.57-2.1l-1.69.38a20.34 20.34 0 0 1 .49 4.89v9h2v-9.9c.9-1.8 1.91-2.84 4-2.84 3 0 3.12 1.94 3.12 5v7.7h2v-8.06c0-3.3-.68-6.34-4.75-6.34"/></g></g></svg>
