<?xml version="1.0" encoding="UTF-8" standalone="no"?>
<svg
   xmlns:dc="http://purl.org/dc/elements/1.1/"
   xmlns:cc="http://creativecommons.org/ns#"
   xmlns:rdf="http://www.w3.org/1999/02/22-rdf-syntax-ns#"
   xmlns:svg="http://www.w3.org/2000/svg"
   xmlns="http://www.w3.org/2000/svg"
   viewBox="0 0 468.66666 582.05334"
   height="582.05334"
   width="468.66666"
   xml:space="preserve"
   id="svg2"
   version="1.1"><metadata
     id="metadata8"><rdf:RDF><cc:Work
         rdf:about=""><dc:format>image/svg+xml</dc:format><dc:type
           rdf:resource="http://purl.org/dc/dcmitype/StillImage" /></cc:Work></rdf:RDF></metadata><defs
     id="defs6"><clipPath
       id="clipPath52"
       clipPathUnits="userSpaceOnUse"><path
         id="path50"
         d="m 1896.27,3982.83 c -38.16,-0.04 -76.39,-0.79 -114.73,-2.63 -110.78,-5.26 -221.71,-16.21 -331.58,-37.38 -109.81,-20.96 -219.09,-50.03 -324.4,-94.77 -52.59,-22.4 -104.35,-48.49 -153.126,-81.55 -24.368,-16.53 -48.063,-34.6 -70.329,-55.09 -22.242,-20.44 -43.222,-43.18 -61.093,-69.16 -17.891,-25.84 -32.711,-55 -41.797,-86.51 -9.192,-31.44 -12.059,-65.09 -8.352,-97.2 3.547,-32.19 13.047,-62.65 25.907,-90.41 1.414,-2.99 2.988,-5.85 4.464,-8.79 2.418,-3.06 6.153,-5.1 10.442,-5.1 7.301,0 13.207,5.7 13.207,12.72 0,1.76 -0.367,3.43 -1.039,4.96 l 0.094,-0.1 c -1.239,2.95 -2.575,5.85 -3.727,8.82 -10.148,26.32 -17.043,53.94 -18.457,81.76 -1.465,27.76 2.312,55.43 11.141,81.35 8.839,25.92 22.46,50.01 39.113,71.68 33.406,43.48 77.097,78.22 123.539,106.95 46.703,28.6 96.363,52.09 147.253,71.89 50.91,19.87 103.18,35.77 155.88,49.7 52.72,13.88 106.08,25.1 159.71,34.26 107.36,17.87 215.71,29.27 324.25,33.24 108.43,3.64 217.59,3.03 325.97,-1.79 54.26,-2.33 108.36,-6.63 162.31,-12.04 53.94,-5.38 107.67,-12.72 161.01,-22.29 106.61,-19.03 212.11,-47.38 311.14,-93.29 49.29,-23.26 96.89,-50.9 140.74,-84.52 21.82,-16.93 42.69,-35.31 62.23,-55.27 19.45,-20.06 37.51,-41.68 53.84,-64.77 32.56,-46.3 57.91,-98.79 73.66,-154.91 16.01,-55.87 22.59,-115.37 22.34,-174.32 -1.29,-118.53 -31.58,-235.71 -78.93,-342.21 -23.82,-53.28 -51.56,-104.4 -82.67,-152.74 -31.27,-48.24 -65.69,-93.8 -102.56,-136.5 -36.86,-42.72 -76.29,-82.46 -117.77,-118.91 -20.67,-18.32 -41.8,-35.89 -63.48,-52.46 -21.54,-16.77 -43.56,-32.69 -66.08,-47.58 -89.68,-59.98 -185.66,-106.34 -285.05,-134.21 l -18.38,-4.98 c -5.32,-1.43 -13.87,-3.48 -18.93,-4.65 -12.26,-2.82 -24.61,-5.3 -36.97,-7.33 -24.75,-4.33 -49.69,-7.18 -74.73,-8.42 -25.06,-1.07 -50.21,-1.32 -75.39,0.2 -25.17,1.56 -50.35,4.49 -75.53,8.42 -100.64,16.38 -199.96,52.95 -295.79,101.64 -95.01,48.65 -186.87,108.3 -275.79,177.24 l -0.94,0.94 -0.14,-0.12 c -0.46,0.36 -0.92,0.69 -1.35,1.04 0.06,-0.12 0.14,-0.21 0.2,-0.31 -1.73,1.38 -3.87,2.32 -6.31,2.32 -5.54,0 -10.01,-4.31 -10.01,-9.63 0,-2.3 0.94,-4.31 2.34,-5.97 l -0.32,-0.26 c 72.7,-94.29 173.66,-188.28 296.31,-271.97 l -0.61,0.62 c 81.65,-54.94 171.98,-97.7 268.92,-121.02 28.53,-7.07 57.63,-12.11 87.05,-15.27 29.39,-3.2 59.12,-4.88 88.91,-3.94 29.8,0.78 59.66,3.39 89.33,8.04 14.81,2.46 29.55,5.41 44.24,8.83 8.42,1.99 13.32,3.14 21.39,5.27 l 21.73,5.92 c 114.16,33.15 221.43,90.79 316.47,164.85 95.29,73.97 178.14,164.77 247.99,264.82 34.9,50.1 66.4,102.78 94.24,157.43 27.87,54.61 52.4,111.11 72.2,169.39 37.15,108.33 60.53,222.71 60.8,337.34 v 4.29 c -0.02,6.91 -0.11,13.81 -0.31,20.7 -1.42,61.44 -10.21,122.28 -27.36,180.6 -17.39,58.08 -43.58,112.72 -77.29,160.97 -33.55,48.38 -74,90.55 -118.26,126.7 -44.12,36.44 -92.05,67.11 -141.85,93.12 -99.57,52.49 -206,87.99 -313.81,114.11 -53.99,12.94 -108.52,23.16 -163.25,31.59 -54.74,8.35 -109.8,14.04 -164.92,18.56 -55.11,4.6 -110.39,6.75 -165.64,7.76 -14.87,0.19 -29.75,0.31 -44.61,0.33 z" /></clipPath><linearGradient
       id="linearGradient74"
       spreadMethod="pad"
       gradientTransform="matrix(2031.42,739.378,739.378,-2031.42,1043.96,2740.47)"
       gradientUnits="userSpaceOnUse"
       y2="0"
       x2="1"
       y1="0"
       x1="0"><stop
         id="stop54"
         offset="0"
         style="stop-opacity:1;stop-color:#611b79" /><stop
         id="stop56"
         offset="0.105728"
         style="stop-opacity:1;stop-color:#611b79" /><stop
         id="stop58"
         offset="0.10619056"
         style="stop-opacity:1;stop-color:#611b79" /><stop
         id="stop60"
         offset="0.431939"
         style="stop-opacity:1;stop-color:#25407b" /><stop
         id="stop62"
         offset="0.43327909"
         style="stop-opacity:1;stop-color:#25407b" /><stop
         id="stop64"
         offset="0.720237"
         style="stop-opacity:1;stop-color:#94d222" /><stop
         id="stop66"
         offset="0.72209386"
         style="stop-opacity:1;stop-color:#94d222" /><stop
         id="stop68"
         offset="0.96482"
         style="stop-opacity:1;stop-color:#611b79" /><stop
         id="stop70"
         offset="0.96488146"
         style="stop-opacity:1;stop-color:#611b79" /><stop
         id="stop72"
         offset="1"
         style="stop-opacity:1;stop-color:#611b79" /></linearGradient></defs><g
     transform="matrix(1.3333333,0,0,-1.3333333,0,582.05333)"
     id="g10"><g
       transform="scale(0.1)"
       id="g12"><path
         id="path14"
         style="fill:#ffffff;fill-opacity:1;fill-rule:nonzero;stroke:none"
         d="M 3514.96,0 H 0 V 765.352 H 3514.96 V 0" /><path
         id="path16"
         style="fill:#ffffff;fill-opacity:1;fill-rule:nonzero;stroke:none"
         d="M 3514.96,1723.79 H 0 V 4365.35 H 3514.96 V 1723.79" /><path
         id="path18"
         style="fill:#ffffff;fill-opacity:1;fill-rule:nonzero;stroke:none"
         d="M 3514.96,765.352 H 0 V 1530.7 H 3514.96 V 765.352" /><path
         id="path20"
         style="fill:#601b79;fill-opacity:1;fill-rule:nonzero;stroke:none"
         d="m 864.488,1321.19 c -10.371,0 -20.742,-0.51 -30.597,-1.54 v -143.17 c 9.855,-0.51 20.226,-1.03 30.078,-1.03 47.719,0 75.215,24.9 75.215,73.14 0,49.28 -25.938,72.6 -74.696,72.6 z m -1.035,-185.18 c -9.848,0 -19.707,0.53 -29.562,0.53 v -134.33 h -47.719 v 351.68 c 21.266,4.14 45.641,6.73 68.469,6.73 49.789,0 96.992,-7.77 121.371,-57.05 8.301,-16.07 11.926,-33.2 11.926,-50.84 0,-76.76 -51.344,-116.72 -124.485,-116.72" /><path
         id="path22"
         style="fill:#601b79;fill-opacity:1;fill-rule:nonzero;stroke:none"
         d="m 1157.42,1213.83 c -5.71,1.56 -15.05,2.09 -23.34,2.09 -22.82,0 -42.54,-14.01 -54.98,-32.68 v -181.03 h -43.57 v 246.38 h 34.75 l 4.67,-25.41 c 14,19.69 38.38,32.15 62.76,32.15 7.78,0 15.04,-1.03 23.34,-3.63 l -3.63,-37.87" /><path
         id="path24"
         style="fill:#601b79;fill-opacity:1;fill-rule:nonzero;stroke:none"
         d="m 1293.32,1222.15 c -51.87,0 -73.66,-49.81 -73.66,-95.45 0,-45.65 20.23,-96.99 72.1,-96.99 51.87,0 72.61,51.34 72.61,96.99 0,45.11 -19.18,95.45 -71.05,95.45 z m -1.56,-226.681 c -78.32,0 -119.3,57.051 -119.3,131.231 0,72.09 45.13,129.67 120.86,129.67 76.25,0 118.77,-58.09 118.77,-129.67 0,-72.62 -43.56,-131.231 -120.33,-131.231" /><path
         id="path26"
         style="fill:#601b79;fill-opacity:1;fill-rule:nonzero;stroke:none"
         d="m 1538.81,995.469 c -31.64,0 -51.86,12.441 -62.76,36.831 -5.19,11.92 -7.27,31.12 -7.27,62.23 v 123.98 H 1433 v 29.55 h 35.78 v 46.68 l 44.11,17.13 v -63.81 h 68.98 v -29.04 h -68.98 v -127.09 c 0,-18.67 1.54,-32.67 4.65,-40.97 4.68,-12.43 14.53,-19.71 30.61,-19.71 12.97,0 27.49,5.72 44.6,18.16 l 6.75,-31.64 c -19.71,-15.04 -39.43,-22.301 -60.69,-22.301" /><path
         id="path28"
         style="fill:#601b79;fill-opacity:1;fill-rule:nonzero;stroke:none"
         d="m 1725.03,1221.09 c -40.45,0 -60.17,-33.71 -63.8,-70.54 h 117.73 c 0,1.56 0.53,3.12 0.53,4.66 0,33.73 -18.15,65.88 -54.46,65.88 z m 98.54,-104.76 c -21.77,-0.53 -42.52,0 -62.74,0 h -100.11 c 1.55,-45.14 26.96,-85.59 75.72,-85.59 28.53,0 54.46,9.84 78.83,29.04 l 5.2,-35.78 c -26.97,-20.23 -57.57,-28.531 -90.25,-28.531 -78.33,0 -117.74,58.611 -117.74,131.741 0,70.03 40.45,129.16 115.66,129.16 19.72,0 37.86,-5.71 53.42,-15.57 31.64,-20.74 44.08,-55.49 44.08,-93.36 0,-9.86 -0.5,-20.23 -2.07,-31.11" /><path
         id="path30"
         style="fill:#601b79;fill-opacity:1;fill-rule:nonzero;stroke:none"
         d="m 1979.71,995.469 c -72.6,0 -121.9,55.491 -121.9,126.561 0,77.28 50.33,134.34 128.13,134.34 26.97,0 52.4,-6.74 75.21,-23.34 l -8.81,-33.72 c -20.76,14.01 -42.01,21.78 -64.84,21.78 -51.87,0 -82.46,-44.08 -82.46,-93.36 0,-49.8 26.44,-97.52 80.9,-97.52 24.39,0 47.71,7.27 70.04,21.78 l 8.28,-32.66 c -26.45,-15.56 -54.96,-23.861 -84.55,-23.861" /><path
         id="path32"
         style="fill:#601b79;fill-opacity:1;fill-rule:nonzero;stroke:none"
         d="m 2187.73,995.469 c -31.64,0 -51.87,12.441 -62.77,36.831 -5.17,11.92 -7.25,31.12 -7.25,62.23 v 123.98 h -35.8 v 29.55 h 35.8 v 46.68 l 44.09,17.13 v -63.81 h 68.98 v -29.04 h -68.98 v -127.09 c 0,-18.67 1.54,-32.67 4.66,-40.97 4.67,-12.43 14.52,-19.71 30.61,-19.71 12.97,0 27.48,5.72 44.61,18.16 l 6.74,-31.64 c -19.71,-15.04 -39.42,-22.301 -60.69,-22.301" /><path
         id="path34"
         style="fill:#601b79;fill-opacity:1;fill-rule:nonzero;stroke:none"
         d="m 2373.44,1221.09 c -40.47,0 -60.18,-33.71 -63.81,-70.54 h 117.75 c 0,1.56 0.51,3.12 0.51,4.66 0,33.73 -18.14,65.88 -54.45,65.88 z m 98.53,-104.76 c -21.77,-0.53 -42.52,0 -62.75,0 h -100.1 c 1.54,-45.14 26.95,-85.59 75.72,-85.59 28.52,0 54.46,9.84 78.83,29.04 l 5.2,-35.78 c -26.98,-20.23 -57.58,-28.531 -90.26,-28.531 -78.32,0 -117.73,58.611 -117.73,131.741 0,70.03 40.47,129.16 115.66,129.16 19.71,0 37.85,-5.71 53.42,-15.57 31.64,-20.74 44.1,-55.49 44.1,-93.36 0,-9.86 -0.52,-20.23 -2.09,-31.11" /><path
         id="path36"
         style="fill:#601b79;fill-opacity:1;fill-rule:nonzero;stroke:none"
         d="m 2678.95,1200.88 c -11.41,8.81 -32.68,17.63 -54.99,17.63 -33.18,0 -71.58,-28.53 -71.58,-92.85 0,-60.17 27,-93.88 66.92,-93.88 23.86,0 47.2,11.93 59.65,25.93 z m 9.86,-198.67 -5.2,21.79 c -19.18,-18.67 -47.71,-28.531 -71.05,-28.531 -66.39,0 -107.36,54.451 -107.36,128.121 0,77.8 54.98,131.74 114.1,131.74 21.27,0 45.13,-7.77 59.65,-18.16 v 131.75 h 43.57 v -366.71 h -33.71" /><path
         id="path38"
         style="fill:#601b79;fill-opacity:1;fill-rule:nonzero;stroke:none"
         d="m 390.996,2432.31 c 26.649,-12.48 60.981,-18.79 102.117,-18.79 204.825,0 366.813,130.68 481.492,388.36 l 131.085,318 h 207.44 l 45.9,89.57 h -221.24 l 8.38,20.05 c 75.04,180.25 171.77,271.62 287.52,271.62 24.7,0 56.28,-7.86 93.88,-23.42 l 68.5,104.09 c -28.15,12.59 -74.45,24.86 -118.83,24.86 -204.88,0 -366.93,-130.73 -481.654,-388.6 l -3.844,-8.6 -378.504,0.05 -46.066,-89.79 387.723,0.17 -50.497,-118.98 H 455.852 l -46.039,-88.98 h 462.41 l -50.18,-121.27 c -75.078,-180.31 -171.102,-271.72 -285.348,-271.72 -24.55,0 -54.824,7.5 -92.347,22.87 l -53.352,-109.49" /><path
         id="path40"
         style="fill:#601b79;fill-opacity:1;fill-rule:nonzero;stroke:none"
         d="m 2707.03,3084.58 c -33.03,31.94 -69.47,47.84 -109.41,47.84 -26.62,0 -49.89,-6.79 -69.94,-20.46 -20.08,-13.62 -30.79,-31.56 -32,-53.88 -0.95,-16.28 3.75,-30.29 14.07,-41.86 10.35,-11.76 28.59,-24.76 54.63,-39.32 l 72.3,-40.31 c 22.28,-12.37 38.57,-28.38 48.87,-47.84 10.27,-19.43 14.72,-40.66 13.38,-63.71 -3.38,-60.86 -28.25,-109 -74.34,-144.39 -46.04,-35.47 -103.26,-53.19 -171.29,-53.19 -59.88,0 -112.77,14.97 -158.63,44.71 l 58.08,95.72 c 13.03,-13.75 32.15,-26.48 57.37,-37.98 25.31,-11.57 47.11,-17.39 65.62,-17.39 31.6,0 58.22,8.62 79.65,25.59 21.5,16.97 33.15,39.94 34.84,68.98 0.84,14.89 -3.78,28.15 -14,39.77 -10.18,11.66 -28.1,25.14 -53.77,40.29 l -72.69,41.45 c -22.33,13.1 -38.72,29.68 -49.07,49.67 -10.35,19.94 -15,41.26 -13.65,63.97 2.99,52.79 25.84,95.16 68.81,127.11 42.81,32.1 94.26,48.22 154.04,48.22 41.39,0 90.59,-13.18 147.62,-39.41 l -50.49,-93.58" /><path
         id="path42"
         style="fill:#601b79;fill-opacity:1;fill-rule:nonzero;stroke:none"
         d="m 2261.45,3102.85 c -24.54,19.72 -58.17,29.54 -101.25,29.54 -65.36,0 -119.59,-25.79 -162.78,-77.27 -43.28,-51.6 -66.99,-114.86 -71.21,-189.98 -2.67,-46.05 8.26,-82.83 32.85,-110.27 24.59,-27.46 53.56,-41.1 86.94,-41.1 51.5,0 101.75,15.86 150.74,47.62 l -17.23,-103.22 c -47.54,-20.47 -98.94,-30.71 -154.18,-30.71 -70.17,0 -122.97,20.1 -158.26,60.28 -35.29,40.19 -51.07,93.61 -47.28,160.13 6.13,108.38 40.8,197.05 104.27,266.12 63.48,69.01 141.21,103.55 233.38,103.55 54.51,0 96.88,-9.59 126.97,-28.4 l -22.96,-86.29" /><path
         id="path44"
         style="fill:#601b79;fill-opacity:1;fill-rule:nonzero;stroke:none"
         d="m 1719.5,3084.58 c -32.86,31.94 -69.39,47.84 -109.43,47.84 -26.6,0 -49.9,-6.79 -69.96,-20.46 -20.06,-13.62 -30.68,-31.56 -32.03,-53.88 -0.92,-16.28 3.78,-30.29 14.16,-41.86 10.26,-11.76 28.56,-24.76 54.69,-39.32 l 72.19,-40.31 c 22.32,-12.37 38.65,-28.38 48.88,-47.84 10.3,-19.43 14.77,-40.66 13.4,-63.71 -3.38,-60.86 -28.18,-109 -74.34,-144.39 -46.15,-35.47 -103.24,-53.19 -171.3,-53.19 -59.93,0 -112.76,14.97 -158.6,44.71 l 58.05,95.72 c 13,-13.75 32.17,-26.48 57.38,-37.98 25.33,-11.57 47.23,-17.39 65.71,-17.39 31.5,0 58.12,8.62 79.66,25.59 21.57,16.97 33.11,39.94 34.78,68.98 0.79,14.89 -3.91,28.15 -13.99,39.77 -10.14,11.66 -28.07,25.14 -53.79,40.29 l -72.66,41.45 c -22.38,13.1 -38.73,29.68 -49.1,49.67 -10.37,19.94 -15.02,41.26 -13.72,63.97 2.96,52.79 25.89,95.16 68.84,127.11 42.89,32.1 94.31,48.22 154.08,48.22 41.42,0 90.54,-13.18 147.58,-39.41 l -50.48,-93.58" /><g
         id="g46"><g
           clip-path="url(#clipPath52)"
           id="g48"><path
             id="path76"
             style="fill:url(#linearGradient74);fill-opacity:1;fill-rule:nonzero;stroke:none"
             d="m 1896.27,3982.83 c -38.16,-0.04 -76.39,-0.79 -114.73,-2.63 -110.78,-5.26 -221.71,-16.21 -331.58,-37.38 -109.81,-20.96 -219.09,-50.03 -324.4,-94.77 -52.59,-22.4 -104.35,-48.49 -153.126,-81.55 -24.368,-16.53 -48.063,-34.6 -70.329,-55.09 -22.242,-20.44 -43.222,-43.18 -61.093,-69.16 -17.891,-25.84 -32.711,-55 -41.797,-86.51 -9.192,-31.44 -12.059,-65.09 -8.352,-97.2 3.547,-32.19 13.047,-62.65 25.907,-90.41 1.414,-2.99 2.988,-5.85 4.464,-8.79 2.418,-3.06 6.153,-5.1 10.442,-5.1 7.301,0 13.207,5.7 13.207,12.72 0,1.76 -0.367,3.43 -1.039,4.96 l 0.094,-0.1 c -1.239,2.95 -2.575,5.85 -3.727,8.82 -10.148,26.32 -17.043,53.94 -18.457,81.76 -1.465,27.76 2.312,55.43 11.141,81.35 8.839,25.92 22.46,50.01 39.113,71.68 33.406,43.48 77.097,78.22 123.539,106.95 46.703,28.6 96.363,52.09 147.253,71.89 50.91,19.87 103.18,35.77 155.88,49.7 52.72,13.88 106.08,25.1 159.71,34.26 107.36,17.87 215.71,29.27 324.25,33.24 108.43,3.64 217.59,3.03 325.97,-1.79 54.26,-2.33 108.36,-6.63 162.31,-12.04 53.94,-5.38 107.67,-12.72 161.01,-22.29 106.61,-19.03 212.11,-47.38 311.14,-93.29 49.29,-23.26 96.89,-50.9 140.74,-84.52 21.82,-16.93 42.69,-35.31 62.23,-55.27 19.45,-20.06 37.51,-41.68 53.84,-64.77 32.56,-46.3 57.91,-98.79 73.66,-154.91 16.01,-55.87 22.59,-115.37 22.34,-174.32 -1.29,-118.53 -31.58,-235.71 -78.93,-342.21 -23.82,-53.28 -51.56,-104.4 -82.67,-152.74 -31.27,-48.24 -65.69,-93.8 -102.56,-136.5 -36.86,-42.72 -76.29,-82.46 -117.77,-118.91 -20.67,-18.32 -41.8,-35.89 -63.48,-52.46 -21.54,-16.77 -43.56,-32.69 -66.08,-47.58 -89.68,-59.98 -185.66,-106.34 -285.05,-134.21 l -18.38,-4.98 c -5.32,-1.43 -13.87,-3.48 -18.93,-4.65 -12.26,-2.82 -24.61,-5.3 -36.97,-7.33 -24.75,-4.33 -49.69,-7.18 -74.73,-8.42 -25.06,-1.07 -50.21,-1.32 -75.39,0.2 -25.17,1.56 -50.35,4.49 -75.53,8.42 -100.64,16.38 -199.96,52.95 -295.79,101.64 -95.01,48.65 -186.87,108.3 -275.79,177.24 l -0.94,0.94 -0.14,-0.12 c -0.46,0.36 -0.92,0.69 -1.35,1.04 0.06,-0.12 0.14,-0.21 0.2,-0.31 -1.73,1.38 -3.87,2.32 -6.31,2.32 -5.54,0 -10.01,-4.31 -10.01,-9.63 0,-2.3 0.94,-4.31 2.34,-5.97 l -0.32,-0.26 c 72.7,-94.29 173.66,-188.28 296.31,-271.97 l -0.61,0.62 c 81.65,-54.94 171.98,-97.7 268.92,-121.02 28.53,-7.07 57.63,-12.11 87.05,-15.27 29.39,-3.2 59.12,-4.88 88.91,-3.94 29.8,0.78 59.66,3.39 89.33,8.04 14.81,2.46 29.55,5.41 44.24,8.83 8.42,1.99 13.32,3.14 21.39,5.27 l 21.73,5.92 c 114.16,33.15 221.43,90.79 316.47,164.85 95.29,73.97 178.14,164.77 247.99,264.82 34.9,50.1 66.4,102.78 94.24,157.43 27.87,54.61 52.4,111.11 72.2,169.39 37.15,108.33 60.53,222.71 60.8,337.34 v 4.29 c -0.02,6.91 -0.11,13.81 -0.31,20.7 -1.42,61.44 -10.21,122.28 -27.36,180.6 -17.39,58.08 -43.58,112.72 -77.29,160.97 -33.55,48.38 -74,90.55 -118.26,126.7 -44.12,36.44 -92.05,67.11 -141.85,93.12 -99.57,52.49 -206,87.99 -313.81,114.11 -53.99,12.94 -108.52,23.16 -163.25,31.59 -54.74,8.35 -109.8,14.04 -164.92,18.56 -55.11,4.6 -110.39,6.75 -165.64,7.76 -14.87,0.19 -29.75,0.31 -44.61,0.33 h -6.7" /></g></g></g></g></svg>