<svg version="1.1" xmlns="http://www.w3.org/2000/svg" xmlns:xlink="http://www.w3.org/1999/xlink" viewBox="0 0 141.7 141.7" xml:space="preserve">
	<path fill="{{default color '#FF595A'}}" d="M22.4,44.2c2.8-3,5.7-6,8.7-8.7L22.4,44.2z M5.6,66.6l47.8-47.8C45.5,23.6,38,29.1,31.1,35.4l-8.7,8.7
	C16.1,51,10.5,58.4,5.6,66.6z M1.5,80.5c0,0.1,0,0.1,0,0.2L73.6,8.6c-3.5,1.4-6.9,3-10.3,4.6L1.9,74.7C1.5,76.6,1.3,78.6,1.5,80.5z
	 M4,88.4l85-85c-2.7,0.8-5.5,1.6-8.2,2.5L2.4,84.4C2.8,85.8,3.4,87.2,4,88.4z M6.4,91.9c0.6,0.7,1.3,1.5,1.9,2.2l93.7-93.7
	c0,0,0,0-0.1,0c-2.4,0.4-4.7,0.9-7,1.5L5.7,91.1C6,91.4,6.2,91.7,6.4,91.9z M13.2,99.3l98.1-98.1c-1.5-0.5-3.2-0.7-4.7-0.9
	L10.5,96.5C11.4,97.4,12.3,98.4,13.2,99.3z M18.4,104.3l99.2-99.2c-1-0.9-2.1-1.7-3.2-2.4l-98.9,98.9
	C16.5,102.5,17.4,103.4,18.4,104.3z M23.8,109l98.3-98.3c-0.3-0.6-0.6-1.1-1-1.7c-0.2-0.4-0.7-1-1.3-1.7l-99.1,99.1
	C21.8,107.3,22.8,108.1,23.8,109z M29.5,113.4l96.1-96.1c-0.6-1.2-1.3-2.5-1.9-3.7L26.3,111C27.3,111.8,28.4,112.6,29.5,113.4z
	 M35.4,117.6l93.4-93.4c-0.6-1.3-1.1-2.6-1.7-3.9l-95,95C33.2,116.1,34.3,116.8,35.4,117.6z M41.6,121.5l90-90
	c-0.5-1.4-1-2.7-1.6-4.1l-92,92C39.3,120.1,40.5,120.8,41.6,121.5z M48.1,125.1L134.2,39c-0.4-1.4-0.9-2.8-1.4-4.3l-88.3,88.3
	C45.7,123.8,46.9,124.4,48.1,125.1z M54.1,128.1c0.3,0.1,0.5,0.2,0.8,0.4L136.3,47c-0.4-1.5-0.7-3-1.2-4.5l-84.1,84.1
	C52.1,127.1,53.1,127.6,54.1,128.1z M62,131.4l76.1-76.1c-0.3-1.6-0.6-3.1-0.9-4.7L58,129.8C59.3,130.4,60.6,130.9,62,131.4z
	 M69.4,134.1l70-70c-0.2-1.7-0.4-3.3-0.7-5l-73.5,73.5C66.6,133.2,68,133.7,69.4,134.1z M77.1,136.5l63-63c-0.1-1.8-0.2-3.5-0.4-5.3
	l-67,67C74.2,135.7,75.7,136.1,77.1,136.5z M85.3,138.4l55-55c0-1.9,0-3.8,0-5.6l-59.6,59.6C82.2,137.8,83.8,138.1,85.3,138.4z
	 M93.9,139.9l45.7-45.7c0.2-2,0.4-4.1,0.5-6.1l-51,51C90.7,139.4,92.3,139.7,93.9,139.9z M103,140.9l35-35c0.4-2.2,0.8-4.5,1.1-6.7
	l-41.2,41.2C99.6,140.7,101.3,140.8,103,140.9z M112.7,141.4l22.2-22.2c0.7-2.5,1.4-5,2-7.6l-29.6,29.6
	C109,141.3,110.8,141.4,112.7,141.4z M124.4,137.9c3.2-2.3,6-5.6,7.1-8.5c0.5-1.2,0.9-2.5,1.3-3.7l-15,15
	C120.1,140.2,122.4,139.2,124.4,137.9z" />
</svg>