<svg id="Layer_1" data-name="Layer 1" xmlns="http://www.w3.org/2000/svg" xmlns:xlink="http://www.w3.org/1999/xlink" viewBox="0 0 500 500"><defs><style>.cls-1{fill:none;}.cls-2{clip-path:url(#clip-path);}.cls-3{fill:#244b5a;}.cls-4{fill:#fff;}.cls-5{fill:#ff595a;}</style><clipPath id="clip-path"><rect class="cls-1" x="1" y="1" width="498" height="498"/></clipPath></defs><g class="cls-2"><path class="cls-3" d="M448.08,343.37a11.35,11.35,0,0,1-11.33,11.34h-157l-1.13.84-12.45,9.34-58.6,43.95V354.71H63.25a11.35,11.35,0,0,1-11.33-11.34V63.25A11.34,11.34,0,0,1,63.25,51.92h373.5a11.34,11.34,0,0,1,11.33,11.33ZM436.75,5.23H63.25a58.09,58.09,0,0,0-58,58V343.37a58.09,58.09,0,0,0,58,58h97.6v85.93a7.37,7.37,0,0,0,7.45,7.44,6.93,6.93,0,0,0,4.32-1.45l121.53-91.08,1.13-.84H436.75a58.09,58.09,0,0,0,58-58V63.25a58.09,58.09,0,0,0-58-58"/><path class="cls-4" d="M168.3,499a11.55,11.55,0,0,1-11.67-11.67V405.62H63.25A62.31,62.31,0,0,1,1,343.37V63.25A62.32,62.32,0,0,1,63.25,1h373.5A62.33,62.33,0,0,1,499,63.25V343.37a62.32,62.32,0,0,1-62.25,62.25H296.69L175.15,496.7A11.11,11.11,0,0,1,168.3,499ZM63.25,9.46A53.85,53.85,0,0,0,9.46,63.25V343.37a53.85,53.85,0,0,0,53.79,53.8H165.08v90.16a3.16,3.16,0,0,0,3.22,3.21A2.72,2.72,0,0,0,170,490l123.84-92.81H436.75a53.85,53.85,0,0,0,53.79-53.8V63.25A53.85,53.85,0,0,0,436.75,9.46ZM203.31,417.3V358.94H63.25a15.58,15.58,0,0,1-15.56-15.57V63.25A15.58,15.58,0,0,1,63.25,47.69h373.5a15.58,15.58,0,0,1,15.56,15.56V343.37a15.58,15.58,0,0,1-15.56,15.57H281.13ZM63.25,56.15a7.1,7.1,0,0,0-7.1,7.1V343.37a7.11,7.11,0,0,0,7.1,7.11H211.77v49.9l66.54-49.9H436.75a7.11,7.11,0,0,0,7.1-7.11V63.25a7.1,7.1,0,0,0-7.1-7.1Z"/><path class="cls-5" d="M324.6,127.84a9.64,9.64,0,0,0-13.61-.1l-84.92,84.33-36.86-37.16a9.67,9.67,0,0,0-13.62-.1l-22.76,22.57a9.67,9.67,0,0,0-.1,13.62L219,277.72a9.67,9.67,0,0,0,13.62.1L347.17,164.21a9.66,9.66,0,0,0,.09-13.62Z"/></g></svg>