<?xml version="1.0" standalone="no"?>
<!DOCTYPE svg PUBLIC "-//W3C//DTD SVG 20010904//EN"
 "http://www.w3.org/TR/2001/REC-SVG-20010904/DTD/svg10.dtd">
<svg version="1.0" xmlns="http://www.w3.org/2000/svg"
 width="894.000000pt" height="894.000000pt" viewBox="0 0 894.000000 894.000000"
 preserveAspectRatio="xMidYMid meet">
<metadata>
Created by potrace 1.11, written by Peter Selinger 2001-2013
</metadata>
<g transform="translate(0.000000,894.000000) scale(0.100000,-0.100000)"
fill="#000000" stroke="none">
<path d="M6408 8925 c-2 -2 -19 -7 -38 -10 -19 -3 -80 -15 -135 -26 -55 -11
-111 -22 -125 -24 -50 -9 -498 -123 -600 -153 -355 -103 -787 -265 -1175 -439
-77 -35 -451 -223 -553 -278 -254 -137 -600 -353 -864 -540 -50 -35 -348 -259
-383 -287 -151 -123 -305 -253 -371 -313 -725 -656 -1271 -1322 -1758 -2143
-122 -204 -167 -310 -211 -485 -30 -122 -39 -280 -21 -377 4 -19 11 -61 17
-93 17 -96 67 -246 116 -347 43 -90 117 -211 145 -241 7 -8 56 -63 108 -124
147 -171 169 -195 420 -445 231 -232 271 -269 420 -401 168 -148 400 -339 515
-424 22 -16 42 -32 45 -35 5 -6 74 -56 219 -159 129 -91 380 -255 521 -340 74
-45 142 -86 150 -91 8 -6 24 -14 35 -20 11 -5 43 -23 70 -39 95 -56 468 -248
570 -293 33 -15 86 -38 118 -53 80 -36 416 -171 501 -201 248 -89 521 -176
681 -219 28 -7 86 -23 130 -35 44 -12 91 -24 105 -26 14 -3 52 -12 85 -21 69
-17 54 -14 210 -48 66 -14 134 -28 150 -31 17 -2 66 -11 110 -19 44 -8 96 -17
115 -20 19 -3 46 -7 60 -10 14 -3 41 -7 60 -10 19 -2 80 -11 135 -19 55 -8
129 -17 165 -21 36 -3 76 -8 90 -10 57 -9 209 -21 365 -30 61 -4 135 -8 165
-10 88 -6 419 -6 428 -1 5 3 26 7 48 10 141 19 340 91 478 172 171 103 390
340 473 514 47 98 236 681 268 826 2 10 18 73 35 139 27 105 63 264 76 329 2
11 7 35 11 51 9 38 8 32 18 90 5 28 9 52 10 55 1 3 5 25 9 50 5 25 10 54 12
65 7 31 42 254 50 315 9 66 9 70 18 140 3 30 9 78 13 105 3 28 7 61 8 75 1 14
5 63 9 110 4 47 9 101 11 120 27 227 27 1116 0 1405 -2 22 -6 69 -10 105 -15
161 -24 250 -30 290 -8 54 -15 107 -20 150 -4 25 -8 56 -10 70 -2 14 -7 45
-10 70 -3 25 -8 52 -10 60 -3 8 -7 31 -9 50 -5 31 -14 85 -31 175 -3 17 -7 41
-10 55 -10 58 -56 278 -65 310 -6 19 -25 98 -44 175 -67 272 -116 439 -221
745 -72 211 -89 257 -113 315 -11 28 -39 97 -62 155 -171 425 -464 1011 -574
1145 -109 133 -313 306 -431 364 -80 40 -218 78 -340 95 -93 12 -337 20 -347
11z m-222 -810 c125 -24 226 -74 372 -184 94 -72 170 -148 218 -221 107 -161
235 -369 331 -538 117 -208 302 -601 401 -852 243 -617 411 -1312 467 -1935 4
-38 8 -86 10 -105 27 -253 27 -957 0 -1205 -2 -22 -7 -67 -10 -100 -12 -123
-46 -374 -65 -480 -5 -27 -12 -67 -15 -89 -4 -21 -8 -46 -10 -55 -2 -9 -15
-74 -30 -146 -40 -194 -102 -428 -130 -492 -62 -139 -227 -338 -346 -416 -120
-78 -294 -148 -399 -161 -121 -15 -310 -21 -625 -21 -382 0 -449 4 -790 40
-43 5 -240 34 -345 51 -218 35 -597 125 -855 203 -220 66 -602 209 -784 293
-146 67 -393 190 -515 257 -72 39 -134 71 -138 71 -4 0 -8 5 -8 10 0 6 -5 10
-10 10 -15 0 -280 165 -430 268 -108 74 -396 285 -410 301 -3 3 -41 35 -85 71
-167 135 -497 441 -560 520 -99 124 -199 354 -221 510 -25 177 9 378 98 570
202 435 470 886 742 1250 126 168 283 363 351 436 5 6 44 49 85 95 105 117
388 400 495 495 49 43 97 85 105 93 127 120 475 385 716 544 266 175 683 417
720 417 7 0 15 4 19 9 6 10 35 24 245 121 308 141 815 323 1025 368 64 14 303
12 381 -3z"/>
</g>
</svg>
