<svg id="Layer_1" data-name="Layer 1" xmlns="http://www.w3.org/2000/svg" viewBox="0 0 500 500"><defs><style>.cls-1{fill:#aed4a7;}.cls-2{fill:#42cde4;}.cls-3{fill:#ccbfdf;}.cls-4{fill:#ffdb00;}</style></defs><path class="cls-1" d="M87.4,476.4V23.6a15.21,15.21,0,0,0-30.41,0v0h0V476.4a15.21,15.21,0,0,0,30.41,0Z"/><path class="cls-2" d="M321.66,165.5a23,23,0,0,0,22.83-23V81.41a23,23,0,0,0-22.83-23H113.41V165.5Z"/><path class="cls-3" d="M225.36,303.71a23,23,0,0,0,22.83-23V219.63a23,23,0,0,0-22.83-23h-112V303.72Z"/><path class="cls-4" d="M425.14,443.2a22.9,22.9,0,0,0,22.84-23h0V359.18a23,23,0,0,0-22.84-23H113.47V443.27Z"/></svg>