<svg id="Layer_1" data-name="Layer 1" xmlns="http://www.w3.org/2000/svg" viewBox="0 0 500 500"><defs><style>.cls-1{fill:#ff595a;}</style></defs><path class="cls-1" d="M148.68,468.26a41.2,41.2,0,0,1-13.43.53A56.21,56.21,0,0,0,138,452.12c.53-8.44,6.42-101.12,11.2-159.24,12,59.27,24.61,136,24.61,136a32.92,32.92,0,0,1-24.95,39.3h0Z"/><path class="cls-1" d="M242.82,272.69c7.57,1.91,15.13,3.48,22.28,5.16l-3.48,90H385.43l-3.13-85c0-20.92-7-31.38-23-33.72a43.2,43.2,0,0,0-.91-22.59c30.06,2.79,46.48,22.49,46.48,55.79L410.82,439a27.26,27.26,0,1,1-22.6,1.18L386.34,390H260.81l-3.1,81.91a11.08,11.08,0,0,1-11.39,10.77H246a11.26,11.26,0,0,1-10.87-11.58Z"/><path class="cls-1" d="M303.25,261.84c-20.5-3.21-77.51-14.29-101.12-26.57-8.65-4.53-10.11-6.66-13.95-16.35-2.93-7.39-5.05-19.32-9.52-32.15,0,0-48.53,68.2-49.65,79.54-5.19,54.22-13.42,185-13.42,185a33.16,33.16,0,0,1-32.12,33.72h-.28c-20,0-30.82-10.84-32.67-30.51L44.84,281.72c-.56-37.21-2-57.88,15.48-96C88.63,124.08,136.86,70.07,182,69.72c29.15-.25,46.83,23.18,53.21,54.29,4.22,20.64,11.61,61.85,11.61,61.85l70.65,28.21c11.71,4.64,23.32,15.62,19.84,30.44-3.94,16.88-19.36,19.6-34,17.44Z"/><path class="cls-1" d="M239.13,62.74A55,55,0,1,0,294.92,8.38h-.63a54.68,54.68,0,0,0-55,54.36h-.17Z"/></svg>