<svg id="Layer_1" data-name="Layer 1" xmlns="http://www.w3.org/2000/svg" viewBox="0 0 500 500"><defs><style>.cls-1{fill:#aed4a7;}</style></defs><path class="cls-1" d="M399.57,180.11c40.8-47.65-9-114.09-56.25-110.71C329.44,22,286.44,7.63,250,8.41c-36.45-.78-79.39,13.57-93.28,61-47.28-3.32-97,63.06-56.33,110.71,0,0-66.42,16.4-51.64,91.27,14,70.89,74.13,62.26,74.13,62.26,8.18,43.87,35.77,58.21,77.48,62.61V310c0-2.28-1.12-58.55-38.42-58.55V230.75c46.18,0,58.84,51.75,59.07,79.12V453.16c-42.81,5.11-117.22,16.94-127.58,38.46H409.13c-10.44-21.54-84.85-33.35-127.68-38.46V397.11c49.48-3.31,86.84-16.25,95.64-63.47,0,0,60.14,8.63,74.12-62.26,14.78-74.87-51.64-91.27-51.64-91.27Zm-95,69.2c-9.53,0-23.73,6.3-33.14,18.84a139.91,139.91,0,0,0-7.85-21.95c12.51-11.49,28.17-17.53,40.92-17.53v20.64Z"/></svg>