<svg id="Layer_1" data-name="Layer 1" xmlns="http://www.w3.org/2000/svg" viewBox="0 0 500 500"><defs><style>.cls-1{fill:#f8ac23;}</style></defs><path class="cls-1" d="M327.12,69.12a45.66,45.66,0,1,1-45.57,45.75h0a45.66,45.66,0,0,1,45.57-45.75Z"/><path class="cls-1" d="M133.87,8.38a45.67,45.67,0,1,1-45.6,45.73h0A45.68,45.68,0,0,1,133.87,8.38Z"/><path class="cls-1" d="M314.82,348.48l27-128.15a28.38,28.38,0,0,0-21.35-33,62.3,62.3,0,0,0-8.61-1.17l-55-2.8-32.39-59a19.4,19.4,0,0,0-11.54-9.46,20,20,0,0,0-5.27-.72l.29.25a19,19,0,0,0-9.47,2.46A19.81,19.81,0,0,0,191,143.48l34.47,62.75a30.7,30.7,0,0,0,25.45,16.05l31.53,1.61-20.12,94.19H187.36A41,41,0,0,0,148,347.22L118.58,455.51a27.63,27.63,0,0,0,2.36,21.19,28.39,28.39,0,0,0,17.35,13.72,29.1,29.1,0,0,0,35.44-19.27l24.54-91a7.79,7.79,0,0,1,7.47-5.58h76.57A33.24,33.24,0,0,0,314.82,348.48Z"/><path class="cls-1" d="M363,303.07l27.61-121a13.1,13.1,0,0,0-25.54-5.83l-9.87,43.22c-.12,1.09-.26,2.17-.48,3.26l-27,128.22a46.41,46.41,0,0,1-45.41,36.55H209.81l-4,14.78c6.29,50.28,49.88,89.35,102.57,89.35,57,0,103.34-45.7,103.34-101.86A101.73,101.73,0,0,0,363,303.07Z"/></svg>