<svg id="Layer_1" data-name="Layer 1" xmlns="http://www.w3.org/2000/svg" viewBox="0 0 500 500"><defs><style>.cls-1{fill:#f8ac23;}</style></defs><path class="cls-1" d="M221.43,71.12A228.08,228.08,0,0,0,170.28,32a83.35,83.35,0,0,0-6.55,8.31c-6.69,9.33-60.92,105.52-60.92,105.52l81.59,47.19L239.6,96a244.89,244.89,0,0,0-18.17-25Z"/><path class="cls-1" d="M387.14,121.34,336.82,34.53c-9-15.53-21.69-14-27.85-14H197.73a45.5,45.5,0,0,0-7.37.59,227.87,227.87,0,0,1,45.87,36.73c21,23.5,67.86,106.26,69.66,110h0v.39l-28.57,16.51,99,6.5,39.08-86.37Z"/><path class="cls-1" d="M99.78,381.88a228.37,228.37,0,0,0-8.15,63.75,73.49,73.49,0,0,0,10.45,1.51c11.48,1.13,122.13,0,122.13,0V352.91l-111.68.73A238.13,238.13,0,0,0,100,381.88Z"/><path class="cls-1" d="M60.51,213.38l-50,87c-9,15.53-1.27,25.75,1.81,31.07L67.83,427.7a54.22,54.22,0,0,0,4.2,6.11,227.57,227.57,0,0,1,8.9-58.14c9.77-29.95,58.18-111.77,60.23-115.24h0v-.34l28.63,16.46-44-89.06-94.38,9.23,28.63,16.52Z"/><path class="cls-1" d="M434.43,328a227.28,227.28,0,0,0,59.3-24.82,79.86,79.86,0,0,0-3.9-9.77c-4.89-10.5-61-105.57-61-105.57L347.22,235l56.48,96.33a231.34,231.34,0,0,0,30.73-3.22Z"/><path class="cls-1" d="M308.14,446.31H408.49c18,0,23-11.77,26-17.1L490.07,333a44.07,44.07,0,0,0,3.18-6.69,227.47,227.47,0,0,1-54.77,21.4c-30.82,6.4-125.84,5.47-129.9,5.42h-.39v-33L253,402.35l55.2,77.13V446.31Z"/></svg>