<svg id="Layer_1" data-name="Layer 1" xmlns="http://www.w3.org/2000/svg" viewBox="0 0 500 500"><defs><style>.cls-1{fill:#aed4a7;}.cls-2{fill:#ff595a;}</style></defs><path class="cls-1" d="M287.14,278.15,251.25,311l-3.46,3.16a54.53,54.53,0,1,1-60.66-63.74l1.53-1.69,14.24-16h.33L222.32,212a96.36,96.36,0,1,0,64.82,66Z"/><path class="cls-1" d="M357.8,213.53c-10.81,9.81-21.56,19.68-32.2,29.4A145.35,145.35,0,1,1,257.41,174c9.72-10.59,19.56-21.31,29.34-32.06-89.83-51-204-19.49-254.95,70.33s-19.49,204,70.33,255,204,19.49,255-70.34a187,187,0,0,0,.72-183.35Z"/><path class="cls-2" d="M491.08,96.79a14.91,14.91,0,0,0-3.46-5.54c-3.94-3.94-9.15-4.49-14.16-4.49h-21.7c-11.25,0-22.89-.17-34.36,0h-1.66l-.61-1.47-1.47-.61a7,7,0,0,1,0-1.58V27c0-5-.55-10.2-4.52-14.13a15.06,15.06,0,0,0-5.54-3.47c-9.34-3.52-15.54,2.77-18.54,5.79L369.74,30.65c-11.69,11.75-23.77,23.88-35.38,36A26.46,26.46,0,0,0,327.73,83c-.27,8.9-.19,17.88-.14,26.58,0,7.92.14,16.1,0,24.1a13.65,13.65,0,0,1-3.07,7.87c-19.9,22-40.32,44.2-60.08,65.68l-16.26,17.67c-8.76,9.54-29.37,32-36.33,39.55h0l-2.38,2.77c-1.55,1.72-3.24,3.6-5.05,5.54-5.54,6.1-11.83,13-17.67,20.45-4.24,5.4-2,13.41,2.77,18l.52.47c4.41,4,11.67,6.26,17.27,1.91,7.64-6,14.68-12.38,20.86-18l5.24-4.74L293.34,236c21.51-19.73,43.76-40.12,65.82-60a13.66,13.66,0,0,1,7.86-3.08c8-.19,16.22,0,24.14,0,8.73,0,17.73.14,26.63,0a26.51,26.51,0,0,0,16.32-6.6c12.25-11.61,24.41-23.66,36.19-35.33l15.46-15.29c3-3,9.34-9.2,5.79-18.51Z"/></svg>