<svg id="Layer_1" data-name="Layer 1" xmlns="http://www.w3.org/2000/svg" viewBox="0 0 500 500"><defs><style>.cls-1{fill:#bfb4d9;}</style></defs><path class="cls-1" d="M366,401.52a71.37,71.37,0,0,1-8.51.9H320.6l20.86,30.18H158.54l20.86-30.18H141.21a70.06,70.06,0,0,1-7.52-.43l-61.9,89.47h46.08L136.16,465H363.87l18.29,26.46h46l-62.21-90Z"/><path class="cls-1" d="M140.78,388.52H355.54a50.05,50.05,0,0,0,50-50.14h0V107.86a80.63,80.63,0,0,0-5.58-29.4,79.46,79.46,0,0,0-6.68-13.25c-.87-1.42-1.8-2.78-2.76-4.11a72.44,72.44,0,0,0-6.19-7.68,75.93,75.93,0,0,0-11.23-10c-.68-.5-1.36-1-2.07-1.46s-1.4-1-2.11-1.39c-2.38-1.52-4.89-3.1-7.52-4.52L358.7,34.6Q350,29.88,340.9,26a252.43,252.43,0,0,0-185.3,0c-2.17.9-4.24,1.83-6.19,2.78-4,1.89-7.89,3.84-11.51,5.82s-7,4-10.19,6A79.49,79.49,0,0,0,91,107.86V344.79a9.79,9.79,0,0,0,.89,3.09A50,50,0,0,0,141,388.58Zm36.3-64.22a12.81,12.81,0,0,1-.37,2.38,22.43,22.43,0,0,1-1,3.41c-.28.74-.56,1.45-.9,2.16a19.83,19.83,0,0,1-1.11,2A23.2,23.2,0,0,1,171,338l-.77.84-1,.89a24.32,24.32,0,0,1-3.56,2.67c-.65.37-1.33.74-2,1.08a23.67,23.67,0,0,1-20.71,0c-.71-.34-1.39-.71-2-1.08a29.52,29.52,0,0,1-2.82-2c-.59-.49-1.14-1-1.7-1.54l-.77-.84a25,25,0,0,1-2.76-3.71c-.4-.65-.77-1.33-1.11-2a21.39,21.39,0,0,1-.9-2.16,25,25,0,0,1-1-3.41c-.15-.8-.28-1.58-.37-2.38a17.11,17.11,0,0,1,0-2.48,24.13,24.13,0,0,1,1.08-7.11,25.81,25.81,0,0,1,1.8-4.31c.37-.68.77-1.33,1.2-2a26.65,26.65,0,0,1,2.14-2.72,22.59,22.59,0,0,1,1.61-1.64,26.65,26.65,0,0,1,2.72-2.14,28.35,28.35,0,0,1,4.06-2.19,17.46,17.46,0,0,1,2.19-.81,23.92,23.92,0,0,1,7.12-1.08,23,23,0,0,1,3.62.28,21.77,21.77,0,0,1,3.75.89l1.61.59a23.74,23.74,0,0,1,5,2.82l1.3,1,1.15,1a14.16,14.16,0,0,1,1.21,1.24,26.56,26.56,0,0,1,2.13,2.72c.44.65.84,1.3,1.21,2s.46.9.68,1.37.43,1,.62,1.51.34.93.49,1.43a23.82,23.82,0,0,1,1.09,7.11v2.48ZM353.5,343.46a23.67,23.67,0,0,1-20.74,0l-2-1.08a24.58,24.58,0,0,1-3.59-2.67h0l-1.58-1.58a22.53,22.53,0,0,1-2.72-3.71c-.41-.65-.78-1.33-1.12-2a18.64,18.64,0,0,1-.89-2.17,25.39,25.39,0,0,1-1-3.4,19.12,19.12,0,0,1-.35-2.39,17,17,0,0,1,0-2.47,25.26,25.26,0,0,1,1.06-7.12,4.89,4.89,0,0,1,.49-1.42l.65-1.52c.22-.46.44-.93.68-1.36s.78-1.33,1.21-2a23,23,0,0,1,2.1-2.73l.81-.83h0c.49-.5,1-1,1.55-1.43a10.6,10.6,0,0,1,1.3-1,23.48,23.48,0,0,1,5-2.81l1.61-.59a21.79,21.79,0,0,1,3.75-.9,24.14,24.14,0,0,1,7.3,0,21.68,21.68,0,0,1,3.74.9l1.61.59a24.47,24.47,0,0,1,5.05,2.81l1.27,1,1.17,1.06,1.21,1.23a25.72,25.72,0,0,1,2.14,2.73c.4.62.8,1.3,1.17,2s.47.9.68,1.36.44,1,.65,1.52.34.93.5,1.42A24.25,24.25,0,0,1,367.3,322v2.48a12.81,12.81,0,0,1-.37,2.38,25.27,25.27,0,0,1-1,3.4c-.28.75-.59,1.46-.93,2.17a19.43,19.43,0,0,1-1.08,2,24.38,24.38,0,0,1-2.76,3.72l-.8.83-.93.9a24.43,24.43,0,0,1-3.56,2.66l-2,1.08Zm-162-284.37a9.29,9.29,0,0,1,9.29-9.29h98.85a9.29,9.29,0,0,1,9.29,9.29v7a9.29,9.29,0,0,1-9.29,9.29H200.76a9.29,9.29,0,0,1-9.29-9.29h0ZM115.8,114.8a23.44,23.44,0,0,1,23.37-23.5H360.22a23.44,23.44,0,0,1,23.39,23.47h0V247.64a23.42,23.42,0,0,1-23.36,23.49h-221a23.43,23.43,0,0,1-23.4-23.46h0V114.8Z"/></svg>