<svg version="1.1" xmlns="http://www.w3.org/2000/svg" xmlns:xlink="http://www.w3.org/1999/xlink" viewBox="0 0 141.7 141.7" xml:space="preserve">
	<path fill="{{default color '#FF595A'}}" {{#if opacity}} fill-opacity="{{opacity}}"{{/if}} d="M12.4,56.2c0.5-0.7,1-1.3,1.5-2c0.2,0.3,0.2,0.8,0,1.1C13.7,56,13,56.3,12.4,56.2z M10.6,60
	c0.7,0.3,1.5-0.1,1.8-0.8c0.3-0.7-0.1-1.5-0.8-1.8c0,0,0,0-0.1,0c-0.5,0.7-1,1.4-1.5,2.2C10.2,59.7,10.4,59.9,10.6,60z M9,63.8
	c0.7,0.3,1.5-0.1,1.8-0.8c0.3-0.7-0.1-1.5-0.8-1.8c-0.4-0.2-0.9-0.1-1.2,0.1c-0.2,0.3-0.4,0.7-0.7,1C8.1,62.9,8.4,63.5,9,63.8z
	 M8.5,65c-0.7-0.3-1.5,0.1-1.8,0.8c-0.3,0.7,0.1,1.5,0.8,1.8s1.5-0.1,1.8-0.8C9.6,66.1,9.2,65.3,8.5,65z M5.2,69.6
	c-0.3,0.7,0.1,1.5,0.8,1.8c0.7,0.3,1.5-0.1,1.8-0.8C8,70,7.7,69.2,7,68.9C6.3,68.6,5.4,68.9,5.2,69.6z M3.6,73.5
	c-0.3,0.7,0.1,1.5,0.8,1.8c0.7,0.3,1.5-0.1,1.8-0.8c0.3-0.7-0.1-1.5-0.8-1.8C4.7,72.4,3.9,72.8,3.6,73.5z M2.1,77.3
	c-0.3,0.7,0.1,1.5,0.8,1.8s1.5-0.1,1.8-0.8c0.3-0.7-0.1-1.5-0.8-1.8S2.3,76.6,2.1,77.3z M1.9,83c0.5,0,1-0.4,1.2-0.9
	c0.3-0.7-0.1-1.5-0.8-1.8c-0.3-0.1-0.6-0.1-0.9,0c0,0.1,0,0.1,0,0.2C1.5,81.4,1.7,82.2,1.9,83z M22.5,45.5c0.2-0.5,0.1-1-0.2-1.4
	c-0.6,0.7-1.2,1.3-1.8,2c0.1,0,0.1,0.1,0.2,0.1C21.4,46.5,22.3,46.2,22.5,45.5z M19.2,50.1c0.7,0.3,1.5-0.1,1.8-0.8
	c0.3-0.7-0.1-1.5-0.8-1.8c-0.3-0.1-0.6-0.1-0.8-0.1c-0.4,0.4-0.7,0.8-1,1.2C18.3,49.2,18.6,49.8,19.2,50.1z M18.7,51.3
	c-0.7-0.3-1.5,0.1-1.8,0.8c-0.3,0.7,0.1,1.5,0.8,1.8c0.7,0.3,1.5-0.1,1.8-0.8C19.7,52.4,19.4,51.6,18.7,51.3z M15.3,55.9
	c-0.3,0.7,0.1,1.5,0.8,1.8c0.7,0.3,1.5-0.1,1.8-0.8c0.3-0.7-0.1-1.5-0.8-1.8C16.4,54.9,15.6,55.2,15.3,55.9z M14.5,61.5
	c0.7,0.3,1.5-0.1,1.8-0.8c0.3-0.7-0.1-1.5-0.8-1.8c-0.7-0.3-1.5,0.1-1.8,0.8C13.5,60.5,13.8,61.3,14.5,61.5z M13,65.4
	c0.7,0.3,1.5-0.1,1.8-0.8c0.3-0.7-0.1-1.5-0.8-1.8c-0.7-0.3-1.5,0.1-1.8,0.8C11.9,64.3,12.3,65.1,13,65.4z M10.7,67.4
	c-0.3,0.7,0.1,1.5,0.8,1.8c0.7,0.3,1.5-0.1,1.8-0.8c0.3-0.7-0.1-1.5-0.8-1.8S10.9,66.7,10.7,67.4z M9.1,71.2
	c-0.3,0.7,0.1,1.5,0.8,1.8c0.7,0.3,1.5-0.1,1.8-0.8c0.3-0.7-0.1-1.5-0.8-1.8C10.2,70.2,9.4,70.5,9.1,71.2z M9.4,74.3
	c-0.7-0.3-1.5,0.1-1.8,0.8c-0.3,0.7,0.1,1.5,0.8,1.8s1.5-0.1,1.8-0.8C10.4,75.4,10.1,74.6,9.4,74.3z M6,78.9
	c-0.3,0.7,0.1,1.5,0.8,1.8s1.5-0.1,1.8-0.8s-0.1-1.5-0.8-1.8C7.1,77.9,6.3,78.2,6,78.9z M4.4,82.7c-0.3,0.7,0.1,1.5,0.8,1.8
	c0.7,0.3,1.5-0.1,1.8-0.8C7.3,83.1,7,82.3,6.2,82C5.5,81.7,4.7,82,4.4,82.7z M4,88.4c0.6,0.1,1.2-0.2,1.5-0.8
	c0.3-0.7-0.1-1.5-0.8-1.8c-0.6-0.3-1.4,0-1.7,0.6C3.3,87.1,3.6,87.8,4,88.4z M31.1,35.6c0-0.1,0.1-0.2,0.1-0.3
	c-0.4,0.4-0.9,0.8-1.3,1.2C30.5,36.4,30.9,36.1,31.1,35.6z M27.8,40.2c0.7,0.3,1.5-0.1,1.8-0.8c0.3-0.7-0.1-1.5-0.8-1.8
	c0,0-0.1,0-0.1,0c-0.6,0.6-1.2,1.1-1.7,1.7C27.1,39.7,27.4,40,27.8,40.2z M26.2,44c0.7,0.3,1.5-0.1,1.8-0.8c0.3-0.7-0.1-1.5-0.8-1.8
	s-1.5,0.1-1.8,0.8C25.2,42.9,25.5,43.7,26.2,44z M23.9,46c-0.3,0.7,0.1,1.5,0.8,1.8c0.7,0.3,1.5-0.1,1.8-0.8
	c0.3-0.7-0.1-1.5-0.8-1.8S24.2,45.3,23.9,46z M23.1,51.7c0.7,0.3,1.5-0.1,1.8-0.8c0.3-0.7-0.1-1.5-0.8-1.8c-0.7-0.3-1.5,0.1-1.8,0.8
	C22.1,50.6,22.4,51.4,23.1,51.7z M20.8,53.7c-0.3,0.7,0.1,1.5,0.8,1.8c0.7,0.3,1.5-0.1,1.8-0.8c0.3-0.7-0.1-1.5-0.8-1.8
	C21.9,52.6,21.1,53,20.8,53.7z M19.3,57.5C19,58.2,19.3,59,20,59.3c0.7,0.3,1.5-0.1,1.8-0.8c0.3-0.7-0.1-1.5-0.8-1.8
	C20.4,56.5,19.5,56.8,19.3,57.5z M19.5,60.6c-0.7-0.3-1.5,0.1-1.8,0.8c-0.3,0.7,0.1,1.5,0.8,1.8c0.7,0.3,1.5-0.1,1.8-0.8
	C20.6,61.7,20.2,60.9,19.5,60.6z M16.9,67c0.7,0.3,1.5-0.1,1.8-0.8c0.3-0.7-0.1-1.5-0.8-1.8c-0.7-0.3-1.5,0.1-1.8,0.8
	C15.9,65.9,16.2,66.7,16.9,67z M15.4,70.8c0.7,0.3,1.5-0.1,1.8-0.8c0.3-0.7-0.1-1.5-0.8-1.8c-0.7-0.3-1.5,0.1-1.8,0.8
	C14.3,69.7,14.7,70.5,15.4,70.8z M13,72.8c-0.3,0.7,0.1,1.5,0.8,1.8c0.7,0.3,1.5-0.1,1.8-0.8c0.3-0.7-0.1-1.5-0.8-1.8
	C14.1,71.8,13.3,72.1,13,72.8z M11.5,76.7c-0.3,0.7,0.1,1.5,0.8,1.8c0.7,0.3,1.5-0.1,1.8-0.8c0.3-0.7-0.1-1.5-0.8-1.8
	S11.8,76,11.5,76.7z M9.9,80.5c-0.3,0.7,0.1,1.5,0.8,1.8c0.7,0.3,1.5-0.1,1.8-0.8c0.3-0.7-0.1-1.5-0.8-1.8
	C11,79.4,10.2,79.8,9.9,80.5z M10.2,83.6c-0.7-0.3-1.5,0.1-1.8,0.8c-0.3,0.7,0.1,1.5,0.8,1.8c0.7,0.3,1.5-0.1,1.8-0.8
	C11.2,84.7,10.9,83.9,10.2,83.6z M6.8,88.2c-0.3,0.7,0.1,1.5,0.8,1.8s1.5-0.1,1.8-0.8c0.3-0.7-0.1-1.5-0.8-1.8
	C7.9,87.1,7.1,87.5,6.8,88.2z M7.6,93.4c0.1-0.1,0.2-0.2,0.2-0.4c0.3-0.7-0.1-1.5-0.8-1.8c-0.4-0.2-0.9-0.1-1.3,0.1
	c0.2,0.2,0.3,0.4,0.5,0.6C6.7,92.4,7.2,92.9,7.6,93.4z M38.2,29.5c0-0.1,0.1-0.2,0.1-0.3c-0.5,0.4-0.9,0.7-1.4,1.1
	C37.4,30.4,38,30.1,38.2,29.5z M34.8,34.1c0.7,0.3,1.5-0.1,1.8-0.8c0.3-0.7-0.1-1.5-0.8-1.8c-0.1,0-0.2-0.1-0.3-0.1
	c-0.5,0.4-1.1,0.9-1.6,1.3C34,33.3,34.3,33.9,34.8,34.1z M34.3,35.4c-0.7-0.3-1.5,0.1-1.8,0.8c-0.3,0.7,0.1,1.5,0.8,1.8
	c0.7,0.3,1.5-0.1,1.8-0.8C35.4,36.5,35,35.6,34.3,35.4z M31.7,41.8c0.7,0.3,1.5-0.1,1.8-0.8c0.3-0.7-0.1-1.5-0.8-1.8
	c-0.7-0.3-1.5,0.1-1.8,0.8C30.7,40.7,31,41.5,31.7,41.8z M30.2,45.6c0.7,0.3,1.5-0.1,1.8-0.8c0.3-0.7-0.1-1.5-0.8-1.8
	c-0.7-0.3-1.5,0.1-1.8,0.8C29.1,44.5,29.5,45.3,30.2,45.6z M27.9,47.6c-0.3,0.7,0.1,1.5,0.8,1.8c0.7,0.3,1.5-0.1,1.8-0.8
	c0.3-0.7-0.1-1.5-0.8-1.8C29,46.6,28.2,46.9,27.9,47.6z M26.3,51.4c-0.3,0.7,0.1,1.5,0.8,1.8c0.7,0.3,1.5-0.1,1.8-0.8
	c0.3-0.7-0.1-1.5-0.8-1.8C27.4,50.4,26.6,50.7,26.3,51.4z M25.5,57.1c0.7,0.3,1.5-0.1,1.8-0.8c0.3-0.7-0.1-1.5-0.8-1.8
	c-0.7-0.3-1.5,0.1-1.8,0.8C24.5,56,24.8,56.8,25.5,57.1z M23.2,59.1c-0.3,0.7,0.1,1.5,0.8,1.8c0.7,0.3,1.5-0.1,1.8-0.8
	c0.3-0.7-0.1-1.5-0.8-1.8C24.3,58.1,23.5,58.4,23.2,59.1z M21.7,62.9c-0.3,0.7,0.1,1.5,0.8,1.8c0.7,0.3,1.5-0.1,1.8-0.8
	c0.3-0.7-0.1-1.5-0.8-1.8C22.7,61.9,21.9,62.2,21.7,62.9z M20.1,66.8c-0.3,0.7,0.1,1.5,0.8,1.8c0.7,0.3,1.5-0.1,1.8-0.8
	c0.3-0.7-0.1-1.5-0.8-1.8C21.2,65.7,20.4,66.1,20.1,66.8z M19.3,72.4c0.7,0.3,1.5-0.1,1.8-0.8c0.3-0.7-0.1-1.5-0.8-1.8
	c-0.7-0.3-1.5,0.1-1.8,0.8C18.3,71.3,18.6,72.1,19.3,72.4z M17.8,76.2c0.7,0.3,1.5-0.1,1.8-0.8c0.3-0.7-0.1-1.5-0.8-1.8
	c-0.7-0.3-1.5,0.1-1.8,0.8C16.7,75.1,17,76,17.8,76.2z M15.4,78.3c-0.3,0.7,0.1,1.5,0.8,1.8c0.7,0.3,1.5-0.1,1.8-0.8
	c0.3-0.7-0.1-1.5-0.8-1.8S15.7,77.6,15.4,78.3z M13.9,82.1c-0.3,0.7,0.1,1.5,0.8,1.8c0.7,0.3,1.5-0.1,1.8-0.8
	c0.3-0.7-0.1-1.5-0.8-1.8C15,81,14.2,81.4,13.9,82.1z M12.3,85.9c-0.3,0.7,0.1,1.5,0.8,1.8c0.7,0.3,1.5-0.1,1.8-0.8
	c0.3-0.7-0.1-1.5-0.8-1.8S12.6,85.2,12.3,85.9z M10.8,89.8c-0.3,0.7,0.1,1.5,0.8,1.8c0.7,0.3,1.5-0.1,1.8-0.8
	c0.3-0.7-0.1-1.5-0.8-1.8C11.9,88.7,11.1,89.1,10.8,89.8z M11,92.8c-0.7-0.3-1.5,0.1-1.8,0.8c-0.3,0.7,0.1,1.5,0.8,1.8
	c0.7,0.3,1.5-0.1,1.8-0.8C12.1,93.9,11.7,93.1,11,92.8z M41.9,28c0.7,0.3,1.5-0.1,1.8-0.8c0.3-0.7,0-1.4-0.6-1.7
	c-0.7,0.5-1.3,1-2,1.5C41.2,27.5,41.5,27.9,41.9,28z M41.4,29.3c-0.7-0.3-1.5,0.1-1.8,0.8c-0.3,0.7,0.1,1.5,0.8,1.8
	c0.7,0.3,1.5-0.1,1.8-0.8C42.4,30.4,42.1,29.6,41.4,29.3z M38.8,35.7c0.7,0.3,1.5-0.1,1.8-0.8c0.3-0.7-0.1-1.5-0.8-1.8
	c-0.7-0.3-1.5,0.1-1.8,0.8C37.7,34.6,38.1,35.4,38.8,35.7z M37.2,39.5c0.7,0.3,1.5-0.1,1.8-0.8c0.3-0.7-0.1-1.5-0.8-1.8
	c-0.7-0.3-1.5,0.1-1.8,0.8C36.2,38.4,36.5,39.2,37.2,39.5z M34.9,41.6c-0.3,0.7,0.1,1.5,0.8,1.8c0.7,0.3,1.5-0.1,1.8-0.8
	c0.3-0.7-0.1-1.5-0.8-1.8C36,40.5,35.2,40.8,34.9,41.6z M34.1,47.2c0.7,0.3,1.5-0.1,1.8-0.8c0.3-0.7-0.1-1.5-0.8-1.8
	c-0.7-0.3-1.5,0.1-1.8,0.8C33.1,46.1,33.4,46.9,34.1,47.2z M32.6,51c0.7,0.3,1.5-0.1,1.8-0.8c0.3-0.7-0.1-1.5-0.8-1.8
	c-0.7-0.3-1.5,0.1-1.8,0.8S31.9,50.7,32.6,51z M30.3,53c-0.3,0.7,0.1,1.5,0.8,1.8c0.7,0.3,1.5-0.1,1.8-0.8c0.3-0.7-0.1-1.5-0.8-1.8
	C31.3,52,30.5,52.3,30.3,53z M28.7,56.9c-0.3,0.7,0.1,1.5,0.8,1.8c0.7,0.3,1.5-0.1,1.8-0.8c0.3-0.7-0.1-1.5-0.8-1.8
	C29.8,55.8,29,56.2,28.7,56.9z M27.9,62.5c0.7,0.3,1.5-0.1,1.8-0.8c0.3-0.7-0.1-1.5-0.8-1.8c-0.7-0.3-1.5,0.1-1.8,0.8
	C26.9,61.4,27.2,62.2,27.9,62.5z M25.6,64.5c-0.3,0.7,0.1,1.5,0.8,1.8c0.7,0.3,1.5-0.1,1.8-0.8c0.3-0.7-0.1-1.5-0.8-1.8
	C26.7,63.5,25.9,63.8,25.6,64.5z M24,68.4c-0.3,0.7,0.1,1.5,0.8,1.8c0.7,0.3,1.5-0.1,1.8-0.8c0.3-0.7-0.1-1.5-0.8-1.8
	S24.3,67.7,24,68.4z M22.5,72.2c-0.3,0.7,0.1,1.5,0.8,1.8c0.7,0.3,1.5-0.1,1.8-0.8c0.3-0.7-0.1-1.5-0.8-1.8
	C23.6,71.2,22.8,71.5,22.5,72.2z M20.9,76c-0.3,0.7,0.1,1.5,0.8,1.8c0.7,0.3,1.5-0.1,1.8-0.8c0.3-0.7-0.1-1.5-0.8-1.8
	C22,75,21.2,75.3,20.9,76z M20.1,81.7c0.7,0.3,1.5-0.1,1.8-0.8c0.3-0.7-0.1-1.5-0.8-1.8c-0.7-0.3-1.5,0.1-1.8,0.8
	C19.1,80.6,19.4,81.4,20.1,81.7z M17.8,83.7c-0.3,0.7,0.1,1.5,0.8,1.8c0.7,0.3,1.5-0.1,1.8-0.8c0.3-0.7-0.1-1.5-0.8-1.8
	C18.9,82.6,18.1,83,17.8,83.7z M16.3,87.5C16,88.2,16.3,89,17,89.3s1.5-0.1,1.8-0.8c0.3-0.7-0.1-1.5-0.8-1.8
	C17.4,86.5,16.6,86.8,16.3,87.5z M14.7,91.4c-0.3,0.7,0.1,1.5,0.8,1.8c0.7,0.3,1.5-0.1,1.8-0.8c0.3-0.7-0.1-1.5-0.8-1.8
	C15.8,90.3,15,90.7,14.7,91.4z M13.2,95.2c-0.3,0.7,0.1,1.5,0.8,1.8c0.7,0.3,1.5-0.1,1.8-0.8c0.3-0.7-0.1-1.5-0.8-1.8
	C14.3,94.1,13.5,94.5,13.2,95.2z M14.1,100.3c0-0.1,0.1-0.1,0.1-0.2c0.3-0.7-0.1-1.5-0.8-1.8c-0.4-0.2-0.9-0.1-1.2,0.1
	C12.8,99,13.4,99.6,14.1,100.3z M50.7,21.2c0.1-0.3,0.1-0.6,0-0.9c-0.7,0.5-1.5,0.9-2.2,1.4c0.1,0.1,0.2,0.2,0.4,0.2
	C49.6,22.3,50.5,21.9,50.7,21.2z M48.4,23.2c-0.7-0.3-1.5,0.1-1.8,0.8c-0.3,0.7,0.1,1.5,0.8,1.8s1.5-0.1,1.8-0.8
	C49.5,24.3,49.1,23.5,48.4,23.2z M45.1,27.8c-0.3,0.7,0.1,1.5,0.8,1.8c0.7,0.3,1.5-0.1,1.8-0.8c0.3-0.7-0.1-1.5-0.8-1.8
	C46.2,26.8,45.4,27.1,45.1,27.8z M44.3,33.5c0.7,0.3,1.5-0.1,1.8-0.8c0.3-0.7-0.1-1.5-0.8-1.8s-1.5,0.1-1.8,0.8
	C43.2,32.4,43.6,33.2,44.3,33.5z M42,35.5c-0.3,0.7,0.1,1.5,0.8,1.8c0.7,0.3,1.5-0.1,1.8-0.8c0.3-0.7-0.1-1.5-0.8-1.8
	C43.1,34.4,42.3,34.8,42,35.5z M41.2,41.1c0.7,0.3,1.5-0.1,1.8-0.8c0.3-0.7-0.1-1.5-0.8-1.8c-0.7-0.3-1.5,0.1-1.8,0.8
	C40.1,40,40.5,40.8,41.2,41.1z M39.6,45c0.7,0.3,1.5-0.1,1.8-0.8c0.3-0.7-0.1-1.5-0.8-1.8c-0.7-0.3-1.5,0.1-1.8,0.8
	C38.6,43.9,38.9,44.7,39.6,45z M37.3,47c-0.3,0.7,0.1,1.5,0.8,1.8c0.7,0.3,1.5-0.1,1.8-0.8c0.3-0.7-0.1-1.5-0.8-1.8
	C38.4,45.9,37.6,46.3,37.3,47z M35.8,50.8c-0.3,0.7,0.1,1.5,0.8,1.8c0.7,0.3,1.5-0.1,1.8-0.8c0.3-0.7-0.1-1.5-0.8-1.8
	C36.8,49.8,36,50.1,35.8,50.8z M35,56.5c0.7,0.3,1.5-0.1,1.8-0.8c0.3-0.7-0.1-1.5-0.8-1.8s-1.5,0.1-1.8,0.8
	C33.9,55.4,34.3,56.2,35,56.5z M32.6,58.5c-0.3,0.7,0.1,1.5,0.8,1.8c0.7,0.3,1.5-0.1,1.8-0.8s-0.1-1.5-0.8-1.8
	C33.7,57.4,32.9,57.8,32.6,58.5z M31.1,62.3c-0.3,0.7,0.1,1.5,0.8,1.8c0.7,0.3,1.5-0.1,1.8-0.8c0.3-0.7-0.1-1.5-0.8-1.8
	C32.2,61.3,31.4,61.6,31.1,62.3z M30.3,67.9c0.7,0.3,1.5-0.1,1.8-0.8c0.3-0.7-0.1-1.5-0.8-1.8c-0.7-0.3-1.5,0.1-1.8,0.8
	C29.3,66.8,29.6,67.7,30.3,67.9z M28,70c-0.3,0.7,0.1,1.5,0.8,1.8c0.7,0.3,1.5-0.1,1.8-0.8c0.3-0.7-0.1-1.5-0.8-1.8
	C29.1,68.9,28.3,69.3,28,70z M26.4,73.8c-0.3,0.7,0.1,1.5,0.8,1.8c0.7,0.3,1.5-0.1,1.8-0.8c0.3-0.7-0.1-1.5-0.8-1.8
	C27.5,72.8,26.7,73.1,26.4,73.8z M27.4,78.7c0.3-0.7-0.1-1.5-0.8-1.8c-0.7-0.3-1.5,0.1-1.8,0.8c-0.3,0.7,0.1,1.5,0.8,1.8
	S27.2,79.4,27.4,78.7z M25.1,80.7c-0.7-0.3-1.5,0.1-1.8,0.8c-0.3,0.7,0.1,1.5,0.8,1.8c0.7,0.3,1.5-0.1,1.8-0.8
	C26.2,81.8,25.8,81,25.1,80.7z M22.5,87.1c0.7,0.3,1.5-0.1,1.8-0.8c0.3-0.7-0.1-1.5-0.8-1.8c-0.7-0.3-1.5,0.1-1.8,0.8
	C21.5,86,21.8,86.8,22.5,87.1z M22.8,90.2c0.3-0.7-0.1-1.5-0.8-1.8c-0.7-0.3-1.5,0.1-1.8,0.8c-0.3,0.7,0.1,1.5,0.8,1.8
	C21.7,91.2,22.5,90.9,22.8,90.2z M21.2,94c0.3-0.7-0.1-1.5-0.8-1.8c-0.7-0.3-1.5,0.1-1.8,0.8c-0.3,0.7,0.1,1.5,0.8,1.8
	C20.1,95,20.9,94.7,21.2,94z M19.7,97.8c0.3-0.7-0.1-1.5-0.8-1.8s-1.5,0.1-1.8,0.8c-0.3,0.7,0.1,1.5,0.8,1.8
	C18.6,98.9,19.4,98.5,19.7,97.8z M18.1,101.7c0.3-0.7-0.1-1.5-0.8-1.8s-1.5,0.1-1.8,0.8c-0.2,0.4-0.1,0.8,0.1,1.1
	c0.2,0.2,0.4,0.4,0.6,0.6c0,0,0,0,0.1,0C17,102.7,17.8,102.4,18.1,101.7z M54.4,19.7c0.7,0.3,1.5-0.1,1.8-0.8c0.3-0.6,0-1.3-0.5-1.7
	c-0.7,0.4-1.4,0.8-2.1,1.3C53.6,19.1,53.9,19.5,54.4,19.7z M53.9,21c-0.7-0.3-1.5,0.1-1.8,0.8c-0.3,0.7,0.1,1.5,0.8,1.8
	c0.7,0.3,1.5-0.1,1.8-0.8C55,22.1,54.6,21.3,53.9,21z M52.4,24.8c-0.7-0.3-1.5,0.1-1.8,0.8s0.1,1.5,0.8,1.8c0.7,0.3,1.5-0.1,1.8-0.8
	C53.4,25.9,53.1,25.1,52.4,24.8z M49,29.4c-0.3,0.7,0.1,1.5,0.8,1.8c0.7,0.3,1.5-0.1,1.8-0.8c0.3-0.7-0.1-1.5-0.8-1.8
	C50.1,28.4,49.3,28.7,49,29.4z M50,34.3c0.3-0.7-0.1-1.5-0.8-1.8c-0.7-0.3-1.5,0.1-1.8,0.8c-0.3,0.7,0.1,1.5,0.8,1.8
	C48.9,35.3,49.7,35,50,34.3z M46.7,38.9c0.7,0.3,1.5-0.1,1.8-0.8c0.3-0.7-0.1-1.5-0.8-1.8c-0.7-0.3-1.5,0.1-1.8,0.8
	C45.6,37.8,46,38.6,46.7,38.9z M44.4,40.9c-0.3,0.7,0.1,1.5,0.8,1.8s1.5-0.1,1.8-0.8c0.3-0.7-0.1-1.5-0.8-1.8
	C45.4,39.9,44.6,40.2,44.4,40.9z M42.8,44.8c-0.3,0.7,0.1,1.5,0.8,1.8c0.7,0.3,1.5-0.1,1.8-0.8c0.3-0.7-0.1-1.5-0.8-1.8
	C43.9,43.7,43.1,44,42.8,44.8z M42,50.4c0.7,0.3,1.5-0.1,1.8-0.8c0.3-0.7-0.1-1.5-0.8-1.8c-0.7-0.3-1.5,0.1-1.8,0.8
	C41,49.3,41.3,50.1,42,50.4z M39.7,52.4c-0.3,0.7,0.1,1.5,0.8,1.8c0.7,0.3,1.5-0.1,1.8-0.8c0.3-0.7-0.1-1.5-0.8-1.8
	C40.8,51.4,40,51.7,39.7,52.4z M38.1,56.2c-0.3,0.7,0.1,1.5,0.8,1.8s1.5-0.1,1.8-0.8c0.3-0.7-0.1-1.5-0.8-1.8
	C39.2,55.2,38.4,55.5,38.1,56.2z M37.4,61.9c0.7,0.3,1.5-0.1,1.8-0.8c0.3-0.7-0.1-1.5-0.8-1.8c-0.7-0.3-1.5,0.1-1.8,0.8
	C36.3,60.8,36.6,61.6,37.4,61.9z M37.6,64.9c0.3-0.7-0.1-1.5-0.8-1.8c-0.7-0.3-1.5,0.1-1.8,0.8c-0.3,0.7,0.1,1.5,0.8,1.8
	S37.3,65.7,37.6,64.9z M35.3,67c-0.7-0.3-1.5,0.1-1.8,0.8c-0.3,0.7,0.1,1.5,0.8,1.8c0.7,0.3,1.5-0.1,1.8-0.8
	C36.3,68.1,36,67.3,35.3,67z M34.5,72.6c0.3-0.7-0.1-1.5-0.8-1.8c-0.7-0.3-1.5,0.1-1.8,0.8c-0.3,0.7,0.1,1.5,0.8,1.8
	C33.4,73.7,34.2,73.3,34.5,72.6z M32.2,74.6c-0.7-0.3-1.5,0.1-1.8,0.8c-0.3,0.7,0.1,1.5,0.8,1.8c0.7,0.3,1.5-0.1,1.8-0.8
	C33.2,75.7,32.9,74.9,32.2,74.6z M31.4,80.3c0.3-0.7-0.1-1.5-0.8-1.8c-0.7-0.3-1.5,0.1-1.8,0.8c-0.3,0.7,0.1,1.5,0.8,1.8
	C30.3,81.3,31.1,81,31.4,80.3z M28,84.9c0.7,0.3,1.5-0.1,1.8-0.8c0.3-0.7-0.1-1.5-0.8-1.8c-0.7-0.3-1.5,0.1-1.8,0.8
	C27,83.8,27.3,84.6,28,84.9z M28.3,87.9c0.3-0.7-0.1-1.5-0.8-1.8s-1.5,0.1-1.8,0.8c-0.3,0.7,0.1,1.5,0.8,1.8
	C27.2,89,28,88.6,28.3,87.9z M24.9,92.5c0.7,0.3,1.5-0.1,1.8-0.8c0.3-0.7-0.1-1.5-0.8-1.8c-0.7-0.3-1.5,0.1-1.8,0.8
	C23.9,91.4,24.2,92.2,24.9,92.5z M23.4,96.4c0.7,0.3,1.5-0.1,1.8-0.8c0.3-0.7-0.1-1.5-0.8-1.8c-0.7-0.3-1.5,0.1-1.8,0.8
	C22.3,95.3,22.7,96.1,23.4,96.4z M23.6,99.4c0.3-0.7-0.1-1.5-0.8-1.8c-0.7-0.3-1.5,0.1-1.8,0.8c-0.3,0.7,0.1,1.5,0.8,1.8
	C22.5,100.5,23.3,100.1,23.6,99.4z M21.3,101.5c-0.7-0.3-1.5,0.1-1.8,0.8c-0.3,0.7,0.1,1.5,0.8,1.8c0.7,0.3,1.5-0.1,1.8-0.8
	C22.4,102.6,22,101.7,21.3,101.5z M19.8,105.3c-0.2-0.1-0.3-0.1-0.5-0.1c0.4,0.4,0.9,0.8,1.3,1.1C20.5,105.9,20.2,105.5,19.8,105.3z
	 M62.9,13.4c-0.2,0.1-0.4,0.2-0.7,0.3C62.5,13.7,62.7,13.6,62.9,13.4z M59.2,15.7c-0.3,0.7,0.1,1.5,0.8,1.8c0.7,0.3,1.5-0.1,1.8-0.8
	c0.3-0.7-0.1-1.5-0.8-1.8c-0.3-0.1-0.6-0.1-0.9,0c-0.2,0.1-0.4,0.2-0.5,0.3C59.4,15.3,59.3,15.5,59.2,15.7z M59.4,18.8
	c-0.7-0.3-1.5,0.1-1.8,0.8c-0.3,0.7,0.1,1.5,0.8,1.8c0.7,0.3,1.5-0.1,1.8-0.8C60.5,19.9,60.1,19.1,59.4,18.8z M57.9,22.6
	c-0.7-0.3-1.5,0.1-1.8,0.8c-0.3,0.7,0.1,1.5,0.8,1.8c0.7,0.3,1.5-0.1,1.8-0.8S58.6,22.9,57.9,22.6z M54.5,27.2
	c-0.3,0.7,0.1,1.5,0.8,1.8c0.7,0.3,1.5-0.1,1.8-0.8c0.3-0.7-0.1-1.5-0.8-1.8C55.6,26.1,54.8,26.5,54.5,27.2z M54.8,30.3
	C54.1,30,53.2,30.3,53,31c-0.3,0.7,0.1,1.5,0.8,1.8s1.5-0.1,1.8-0.8C55.8,31.4,55.5,30.6,54.8,30.3z M52.2,36.7
	c0.7,0.3,1.5-0.1,1.8-0.8c0.3-0.7-0.1-1.5-0.8-1.8s-1.5,0.1-1.8,0.8C51.1,35.6,51.5,36.4,52.2,36.7z M52.4,39.7
	c0.3-0.7-0.1-1.5-0.8-1.8c-0.7-0.3-1.5,0.1-1.8,0.8c-0.3,0.7,0.1,1.5,0.8,1.8C51.3,40.8,52.1,40.4,52.4,39.7z M50.9,43.6
	c0.3-0.7-0.1-1.5-0.8-1.8c-0.7-0.3-1.5,0.1-1.8,0.8c-0.3,0.7,0.1,1.5,0.8,1.8C49.8,44.6,50.6,44.3,50.9,43.6z M49.3,47.4
	c0.3-0.7-0.1-1.5-0.8-1.8c-0.7-0.3-1.5,0.1-1.8,0.8c-0.3,0.7,0.1,1.5,0.8,1.8C48.2,48.4,49,48.1,49.3,47.4z M47,49.4
	c-0.7-0.3-1.5,0.1-1.8,0.8c-0.3,0.7,0.1,1.5,0.8,1.8c0.7,0.3,1.5-0.1,1.8-0.8C48,50.5,47.7,49.7,47,49.4z M46.2,55.1
	c0.3-0.7-0.1-1.5-0.8-1.8c-0.7-0.3-1.5,0.1-1.8,0.8c-0.3,0.7,0.1,1.5,0.8,1.8S45.9,55.8,46.2,55.1z M43.9,57.1
	c-0.7-0.3-1.5,0.1-1.8,0.8c-0.3,0.7,0.1,1.5,0.8,1.8c0.7,0.3,1.5-0.1,1.8-0.8C44.9,58.2,44.6,57.4,43.9,57.1z M43.1,62.7
	c0.3-0.7-0.1-1.5-0.8-1.8c-0.7-0.3-1.5,0.1-1.8,0.8c-0.3,0.7,0.1,1.5,0.8,1.8C42,63.8,42.8,63.4,43.1,62.7z M39.7,67.3
	c0.7,0.3,1.5-0.1,1.8-0.8c0.3-0.7-0.1-1.5-0.8-1.8c-0.7-0.3-1.5,0.1-1.8,0.8C38.7,66.2,39,67,39.7,67.3z M38.2,71.1
	c0.7,0.3,1.5-0.1,1.8-0.8c0.3-0.7-0.1-1.5-0.8-1.8c-0.7-0.3-1.5,0.1-1.8,0.8C37.1,70,37.5,70.9,38.2,71.1z M38.4,74.2
	c0.3-0.7-0.1-1.5-0.8-1.8c-0.7-0.3-1.5,0.1-1.8,0.8c-0.3,0.7,0.1,1.5,0.8,1.8C37.3,75.3,38.2,74.9,38.4,74.2z M35.1,78.8
	c0.7,0.3,1.5-0.1,1.8-0.8c0.3-0.7-0.1-1.5-0.8-1.8s-1.5,0.1-1.8,0.8C34,77.7,34.4,78.5,35.1,78.8z M35.3,81.9
	c0.3-0.7-0.1-1.5-0.8-1.8c-0.7-0.3-1.5,0.1-1.8,0.8c-0.3,0.7,0.1,1.5,0.8,1.8C34.2,82.9,35,82.6,35.3,81.9z M32,86.5
	c0.7,0.3,1.5-0.1,1.8-0.8c0.3-0.7-0.1-1.5-0.8-1.8c-0.7-0.3-1.5,0.1-1.8,0.8C30.9,85.4,31.3,86.2,32,86.5z M32.2,89.5
	c0.3-0.7-0.1-1.5-0.8-1.8c-0.7-0.3-1.5,0.1-1.8,0.8c-0.3,0.7,0.1,1.5,0.8,1.8S31.9,90.2,32.2,89.5z M28.9,94.1
	c0.7,0.3,1.5-0.1,1.8-0.8c0.3-0.7-0.1-1.5-0.8-1.8c-0.7-0.3-1.5,0.1-1.8,0.8C27.8,93,28.2,93.8,28.9,94.1z M29.1,97.2
	c0.3-0.7-0.1-1.5-0.8-1.8c-0.7-0.3-1.5,0.1-1.8,0.8c-0.3,0.7,0.1,1.5,0.8,1.8S28.8,97.9,29.1,97.2z M25.8,101.8
	c0.7,0.3,1.5-0.1,1.8-0.8c0.3-0.7-0.1-1.5-0.8-1.8c-0.7-0.3-1.5,0.1-1.8,0.8C24.7,100.7,25.1,101.5,25.8,101.8z M24.2,105.6
	c0.7,0.3,1.5-0.1,1.8-0.8c0.3-0.7-0.1-1.5-0.8-1.8c-0.7-0.3-1.5,0.1-1.8,0.8C23.2,104.5,23.5,105.3,24.2,105.6z M24.5,108.7
	c0.3-0.7-0.1-1.5-0.8-1.8c-0.7-0.3-1.4,0-1.7,0.6c0.7,0.6,1.4,1.2,2.1,1.7C24.2,109.1,24.4,108.9,24.5,108.7z M68.8,10.7
	C68.8,10.7,68.8,10.6,68.8,10.7c-0.6,0.2-1.2,0.5-1.8,0.8C67.7,11.7,68.5,11.4,68.8,10.7z M66.5,12.7c-0.7-0.3-1.5,0.1-1.8,0.8
	c-0.3,0.7,0.1,1.5,0.8,1.8c0.7,0.3,1.5-0.1,1.8-0.8C67.5,13.8,67.2,13,66.5,12.7z M64.9,16.5c-0.7-0.3-1.5,0.1-1.8,0.8
	c-0.3,0.7,0.1,1.5,0.8,1.8c0.7,0.3,1.5-0.1,1.8-0.8C66,17.6,65.6,16.8,64.9,16.5z M61.6,21.1c-0.3,0.7,0.1,1.5,0.8,1.8
	s1.5-0.1,1.8-0.8c0.3-0.7-0.1-1.5-0.8-1.8C62.7,20.1,61.8,20.4,61.6,21.1z M61.8,24.2c-0.7-0.3-1.5,0.1-1.8,0.8
	c-0.3,0.7,0.1,1.5,0.8,1.8c0.7,0.3,1.5-0.1,1.8-0.8C62.9,25.3,62.5,24.5,61.8,24.2z M60.3,28c-0.7-0.3-1.5,0.1-1.8,0.8
	c-0.3,0.7,0.1,1.5,0.8,1.8c0.7,0.3,1.5-0.1,1.8-0.8C61.3,29.1,61,28.3,60.3,28z M58.7,31.9c-0.7-0.3-1.5,0.1-1.8,0.8
	c-0.3,0.7,0.1,1.5,0.8,1.8c0.7,0.3,1.5-0.1,1.8-0.8C59.8,33,59.4,32.2,58.7,31.9z M55.3,36.5c-0.3,0.7,0.1,1.5,0.8,1.8
	c0.7,0.3,1.5-0.1,1.8-0.8c0.3-0.7-0.1-1.5-0.8-1.8C56.4,35.4,55.6,35.7,55.3,36.5z M56.4,41.3c0.3-0.7-0.1-1.5-0.8-1.8
	c-0.7-0.3-1.5,0.1-1.8,0.8c-0.3,0.7,0.1,1.5,0.8,1.8C55.3,42.4,56.1,42,56.4,41.3z M53,45.9c0.7,0.3,1.5-0.1,1.8-0.8
	c0.3-0.7-0.1-1.5-0.8-1.8s-1.5,0.1-1.8,0.8C52,44.8,52.3,45.6,53,45.9z M53.3,49c0.3-0.7-0.1-1.5-0.8-1.8c-0.7-0.3-1.5,0.1-1.8,0.8
	c-0.3,0.7,0.1,1.5,0.8,1.8C52.2,50,53,49.7,53.3,49z M51.7,52.8c0.3-0.7-0.1-1.5-0.8-1.8c-0.7-0.3-1.5,0.1-1.8,0.8
	c-0.3,0.7,0.1,1.5,0.8,1.8C50.6,53.9,51.4,53.5,51.7,52.8z M50.2,56.7c0.3-0.7-0.1-1.5-0.8-1.8c-0.7-0.3-1.5,0.1-1.8,0.8
	s0.1,1.5,0.8,1.8C49.1,57.7,49.9,57.4,50.2,56.7z M46.8,61.2c0.7,0.3,1.5-0.1,1.8-0.8c0.3-0.7-0.1-1.5-0.8-1.8
	c-0.7-0.3-1.5,0.1-1.8,0.8C45.7,60.2,46.1,61,46.8,61.2z M47,64.3c0.3-0.7-0.1-1.5-0.8-1.8c-0.7-0.3-1.5,0.1-1.8,0.8
	c-0.3,0.7,0.1,1.5,0.8,1.8S46.8,65,47,64.3z M43.7,68.9c0.7,0.3,1.5-0.1,1.8-0.8c0.3-0.7-0.1-1.5-0.8-1.8s-1.5,0.1-1.8,0.8
	S43,68.6,43.7,68.9z M43.9,72c0.3-0.7-0.1-1.5-0.8-1.8c-0.7-0.3-1.5,0.1-1.8,0.8c-0.3,0.7,0.1,1.5,0.8,1.8
	C42.8,73,43.7,72.7,43.9,72z M40.6,76.6c0.7,0.3,1.5-0.1,1.8-0.8s-0.1-1.5-0.8-1.8c-0.7-0.3-1.5,0.1-1.8,0.8
	C39.5,75.5,39.9,76.3,40.6,76.6z M39,80.4c0.7,0.3,1.5-0.1,1.8-0.8c0.3-0.7-0.1-1.5-0.8-1.8c-0.7-0.3-1.5,0.1-1.8,0.8
	C38,79.3,38.3,80.1,39,80.4z M39.3,83.5c0.3-0.7-0.1-1.5-0.8-1.8c-0.7-0.3-1.5,0.1-1.8,0.8c-0.3,0.7,0.1,1.5,0.8,1.8
	C38.2,84.5,39,84.2,39.3,83.5z M35.9,88.1c0.7,0.3,1.5-0.1,1.8-0.8c0.3-0.7-0.1-1.5-0.8-1.8c-0.7-0.3-1.5,0.1-1.8,0.8
	C34.9,87,35.2,87.8,35.9,88.1z M36.2,91.1c0.3-0.7-0.1-1.5-0.8-1.8c-0.7-0.3-1.5,0.1-1.8,0.8c-0.3,0.7,0.1,1.5,0.8,1.8
	C35.1,92.2,35.9,91.8,36.2,91.1z M32.8,95.7c0.7,0.3,1.5-0.1,1.8-0.8c0.3-0.7-0.1-1.5-0.8-1.8c-0.7-0.3-1.5,0.1-1.8,0.8
	C31.8,94.6,32.1,95.4,32.8,95.7z M33.1,98.8c0.3-0.7-0.1-1.5-0.8-1.8c-0.7-0.3-1.5,0.1-1.8,0.8c-0.3,0.7,0.1,1.5,0.8,1.8
	C32,99.8,32.8,99.5,33.1,98.8z M29.7,103.4c0.7,0.3,1.5-0.1,1.8-0.8c0.3-0.7-0.1-1.5-0.8-1.8c-0.7-0.3-1.5,0.1-1.8,0.8
	C28.7,102.3,29,103.1,29.7,103.4z M30,106.5c0.3-0.7-0.1-1.5-0.8-1.8c-0.7-0.3-1.5,0.1-1.8,0.8c-0.3,0.7,0.1,1.5,0.8,1.8
	C28.9,107.5,29.7,107.2,30,106.5z M26.6,111.1c0.7,0.3,1.5-0.1,1.8-0.8c0.3-0.7-0.1-1.5-0.8-1.8c-0.7-0.3-1.5,0.1-1.8,0.8
	C25.6,110,25.9,110.8,26.6,111.1z M72.5,9.2c0.7,0.3,1.5-0.1,1.8-0.8c0-0.1,0-0.1,0-0.2c-0.7,0.3-1.4,0.5-2,0.8
	C72.4,9.1,72.4,9.2,72.5,9.2z M72,10.5c-0.7-0.3-1.5,0.1-1.8,0.8s0.1,1.5,0.8,1.8c0.7,0.3,1.5-0.1,1.8-0.8S72.7,10.8,72,10.5z
	 M70.4,14.3c-0.7-0.3-1.5,0.1-1.8,0.8c-0.3,0.7,0.1,1.5,0.8,1.8c0.7,0.3,1.5-0.1,1.8-0.8C71.5,15.4,71.1,14.6,70.4,14.3z M67.1,18.9
	c-0.3,0.7,0.1,1.5,0.8,1.8c0.7,0.3,1.5-0.1,1.8-0.8c0.3-0.7-0.1-1.5-0.8-1.8C68.2,17.9,67.3,18.2,67.1,18.9z M67.3,22
	c-0.7-0.3-1.5,0.1-1.8,0.8s0.1,1.5,0.8,1.8c0.7,0.3,1.5-0.1,1.8-0.8C68.4,23.1,68,22.3,67.3,22z M65.8,25.8
	c-0.7-0.3-1.5,0.1-1.8,0.8c-0.3,0.7,0.1,1.5,0.8,1.8c0.7,0.3,1.5-0.1,1.8-0.8S66.5,26.1,65.8,25.8z M62.4,30.4
	c-0.3,0.7,0.1,1.5,0.8,1.8c0.7,0.3,1.5-0.1,1.8-0.8c0.3-0.7-0.1-1.5-0.8-1.8C63.5,29.3,62.7,29.7,62.4,30.4z M62.6,33.5
	c-0.7-0.3-1.5,0.1-1.8,0.8s0.1,1.5,0.8,1.8c0.7,0.3,1.5-0.1,1.8-0.8C63.7,34.6,63.4,33.7,62.6,33.5z M61.1,37.3
	c-0.7-0.3-1.5,0.1-1.8,0.8s0.1,1.5,0.8,1.8c0.7,0.3,1.5-0.1,1.8-0.8C62.1,38.4,61.8,37.6,61.1,37.3z M59.5,41.1
	c-0.7-0.3-1.5,0.1-1.8,0.8c-0.3,0.7,0.1,1.5,0.8,1.8c0.7,0.3,1.5-0.1,1.8-0.8C60.6,42.2,60.3,41.4,59.5,41.1z M57,47.5
	c0.7,0.3,1.5-0.1,1.8-0.8C59,46,58.7,45.2,58,45c-0.7-0.3-1.5,0.1-1.8,0.8C55.9,46.4,56.2,47.2,57,47.5z M57.2,50.6
	c0.3-0.7-0.1-1.5-0.8-1.8c-0.7-0.3-1.5,0.1-1.8,0.8c-0.3,0.7,0.1,1.5,0.8,1.8C56.1,51.6,56.9,51.3,57.2,50.6z M53.8,55.2
	c0.7,0.3,1.5-0.1,1.8-0.8c0.3-0.7-0.1-1.5-0.8-1.8c-0.7-0.3-1.5,0.1-1.8,0.8C52.8,54.1,53.1,54.9,53.8,55.2z M54.1,58.3
	c0.3-0.7-0.1-1.5-0.8-1.8c-0.7-0.3-1.5,0.1-1.8,0.8c-0.3,0.7,0.1,1.5,0.8,1.8C53,59.3,53.8,59,54.1,58.3z M52.5,62.1
	c0.3-0.7-0.1-1.5-0.8-1.8C51.1,60,50.3,60.3,50,61c-0.3,0.7,0.1,1.5,0.8,1.8C51.4,63.1,52.3,62.8,52.5,62.1z M51,65.9
	c0.3-0.7-0.1-1.5-0.8-1.8c-0.7-0.3-1.5,0.1-1.8,0.8c-0.3,0.7,0.1,1.5,0.8,1.8C49.9,67,50.7,66.6,51,65.9z M47.6,70.5
	c0.7,0.3,1.5-0.1,1.8-0.8c0.3-0.7-0.1-1.5-0.8-1.8c-0.7-0.3-1.5,0.1-1.8,0.8C46.6,69.4,46.9,70.2,47.6,70.5z M47.9,73.6
	c0.3-0.7-0.1-1.5-0.8-1.8c-0.7-0.3-1.5,0.1-1.8,0.8c-0.3,0.7,0.1,1.5,0.8,1.8C46.8,74.6,47.6,74.3,47.9,73.6z M44.5,78.2
	c0.7,0.3,1.5-0.1,1.8-0.8c0.3-0.7-0.1-1.5-0.8-1.8s-1.5,0.1-1.8,0.8C43.5,77.1,43.8,77.9,44.5,78.2z M44.8,81.2
	c0.3-0.7-0.1-1.5-0.8-1.8c-0.7-0.3-1.5,0.1-1.8,0.8c-0.3,0.7,0.1,1.5,0.8,1.8C43.7,82.3,44.5,81.9,44.8,81.2z M41.4,85.8
	c0.7,0.3,1.5-0.1,1.8-0.8c0.3-0.7-0.1-1.5-0.8-1.8c-0.7-0.3-1.5,0.1-1.8,0.8C40.4,84.7,40.7,85.5,41.4,85.8z M39.9,89.7
	c0.7,0.3,1.5-0.1,1.8-0.8c0.3-0.7-0.1-1.5-0.8-1.8c-0.7-0.3-1.5,0.1-1.8,0.8C38.8,88.6,39.2,89.4,39.9,89.7z M40.1,92.7
	c0.3-0.7-0.1-1.5-0.8-1.8c-0.7-0.3-1.5,0.1-1.8,0.8c-0.3,0.7,0.1,1.5,0.8,1.8C39,93.8,39.8,93.4,40.1,92.7z M36.8,97.3
	c0.7,0.3,1.5-0.1,1.8-0.8c0.3-0.7-0.1-1.5-0.8-1.8c-0.7-0.3-1.5,0.1-1.8,0.8C35.7,96.2,36.1,97,36.8,97.3z M37,100.4
	c0.3-0.7-0.1-1.5-0.8-1.8s-1.5,0.1-1.8,0.8c-0.3,0.7,0.1,1.5,0.8,1.8C35.9,101.4,36.7,101.1,37,100.4z M33.7,105
	c0.7,0.3,1.5-0.1,1.8-0.8c0.3-0.7-0.1-1.5-0.8-1.8c-0.7-0.3-1.5,0.1-1.8,0.8C32.6,103.9,32.9,104.7,33.7,105z M33.9,108.1
	c0.3-0.7-0.1-1.5-0.8-1.8s-1.5,0.1-1.8,0.8c-0.3,0.7,0.1,1.5,0.8,1.8C32.8,109.1,33.6,108.8,33.9,108.1z M30.6,112.7
	c0.7,0.3,1.5-0.1,1.8-0.8c0.3-0.7-0.1-1.5-0.8-1.8c-0.7-0.3-1.5,0.1-1.8,0.8C29.5,111.6,29.8,112.4,30.6,112.7z M30.2,114
	c0.1,0.1,0.2,0.2,0.3,0.2C30.4,114.1,30.3,114.1,30.2,114z M78,7c0.7,0.3,1.5,0,1.8-0.7c-0.6,0.2-1.3,0.5-1.9,0.7
	C77.9,6.9,77.9,7,78,7z M77.5,8.2C76.8,8,75.9,8.3,75.7,9c-0.3,0.7,0.1,1.5,0.8,1.8c0.7,0.3,1.5-0.1,1.8-0.8
	C78.5,9.3,78.2,8.5,77.5,8.2z M75.9,12.1c-0.7-0.3-1.5,0.1-1.8,0.8c-0.3,0.7,0.1,1.5,0.8,1.8s1.5-0.1,1.8-0.8
	C77,13.2,76.6,12.4,75.9,12.1z M72.6,16.7c-0.3,0.7,0.1,1.5,0.8,1.8c0.7,0.3,1.5-0.1,1.8-0.8c0.3-0.7-0.1-1.5-0.8-1.8
	C73.6,15.6,72.8,16,72.6,16.7z M72.8,19.7c-0.7-0.3-1.5,0.1-1.8,0.8c-0.3,0.7,0.1,1.5,0.8,1.8c0.7,0.3,1.5-0.1,1.8-0.8
	S73.5,20,72.8,19.7z M71.3,23.6c-0.7-0.3-1.5,0.1-1.8,0.8c-0.3,0.7,0.1,1.5,0.8,1.8c0.7,0.3,1.5-0.1,1.8-0.8
	C72.3,24.7,72,23.9,71.3,23.6z M67.9,28.2c-0.3,0.7,0.1,1.5,0.8,1.8c0.7,0.3,1.5-0.1,1.8-0.8c0.3-0.7-0.1-1.5-0.8-1.8
	C69,27.1,68.2,27.5,67.9,28.2z M68.1,31.2c-0.7-0.3-1.5,0.1-1.8,0.8s0.1,1.5,0.8,1.8c0.7,0.3,1.5-0.1,1.8-0.8S68.9,31.5,68.1,31.2z
	 M66.6,35.1c-0.7-0.3-1.5,0.1-1.8,0.8c-0.3,0.7,0.1,1.5,0.8,1.8c0.7,0.3,1.5-0.1,1.8-0.8C67.6,36.2,67.3,35.3,66.6,35.1z M63.2,39.7
	c-0.3,0.7,0.1,1.5,0.8,1.8c0.7,0.3,1.5-0.1,1.8-0.8s-0.1-1.5-0.8-1.8C64.3,38.6,63.5,38.9,63.2,39.7z M63.5,42.7
	c-0.7-0.3-1.5,0.1-1.8,0.8c-0.3,0.7,0.1,1.5,0.8,1.8c0.7,0.3,1.5-0.1,1.8-0.8C64.5,43.8,64.2,43,63.5,42.7z M60.9,49.1
	c0.7,0.3,1.5-0.1,1.8-0.8c0.3-0.7-0.1-1.5-0.8-1.8c-0.7-0.3-1.5,0.1-1.8,0.8C59.8,48,60.2,48.8,60.9,49.1z M59.3,53
	c0.7,0.3,1.5-0.1,1.8-0.8c0.3-0.7-0.1-1.5-0.8-1.8c-0.7-0.3-1.5,0.1-1.8,0.8C58.3,51.9,58.6,52.7,59.3,53z M57.8,56.8
	c0.7,0.3,1.5-0.1,1.8-0.8c0.3-0.7-0.1-1.5-0.8-1.8c-0.7-0.3-1.5,0.1-1.8,0.8C56.7,55.7,57.1,56.5,57.8,56.8z M58,59.9
	c0.3-0.7-0.1-1.5-0.8-1.8c-0.7-0.3-1.5,0.1-1.8,0.8c-0.3,0.7,0.1,1.5,0.8,1.8C56.9,60.9,57.8,60.6,58,59.9z M54.7,64.4
	c0.7,0.3,1.5-0.1,1.8-0.8c0.3-0.7-0.1-1.5-0.8-1.8c-0.7-0.3-1.5,0.1-1.8,0.8C53.6,63.3,54,64.2,54.7,64.4z M54.9,67.5
	c0.3-0.7-0.1-1.5-0.8-1.8c-0.7-0.3-1.5,0.1-1.8,0.8c-0.3,0.7,0.1,1.5,0.8,1.8C53.8,68.6,54.6,68.2,54.9,67.5z M53.4,71.3
	c0.3-0.7-0.1-1.5-0.8-1.8c-0.7-0.3-1.5,0.1-1.8,0.8c-0.3,0.7,0.1,1.5,0.8,1.8C52.3,72.4,53.1,72.1,53.4,71.3z M51.8,75.2
	c0.3-0.7-0.1-1.5-0.8-1.8s-1.5,0.1-1.8,0.8c-0.3,0.7,0.1,1.5,0.8,1.8C50.7,76.2,51.5,75.9,51.8,75.2z M48.5,79.8
	c0.7,0.3,1.5-0.1,1.8-0.8c0.3-0.7-0.1-1.5-0.8-1.8c-0.7-0.3-1.5,0.1-1.8,0.8S47.8,79.5,48.5,79.8z M48.7,82.8
	c0.3-0.7-0.1-1.5-0.8-1.8c-0.7-0.3-1.5,0.1-1.8,0.8c-0.3,0.7,0.1,1.5,0.8,1.8C47.6,83.9,48.4,83.5,48.7,82.8z M45.4,87.4
	c0.7,0.3,1.5-0.1,1.8-0.8c0.3-0.7-0.1-1.5-0.8-1.8c-0.7-0.3-1.5,0.1-1.8,0.8C44.3,86.3,44.7,87.1,45.4,87.4z M45.6,90.5
	c0.3-0.7-0.1-1.5-0.8-1.8s-1.5,0.1-1.8,0.8c-0.3,0.7,0.1,1.5,0.8,1.8C44.5,91.5,45.3,91.2,45.6,90.5z M42.3,95.1
	c0.7,0.3,1.5-0.1,1.8-0.8s-0.1-1.5-0.8-1.8c-0.7-0.3-1.5,0.1-1.8,0.8C41.2,94,41.6,94.8,42.3,95.1z M40.7,98.9
	c0.7,0.3,1.5-0.1,1.8-0.8c0.3-0.7-0.1-1.5-0.8-1.8c-0.7-0.3-1.5,0.1-1.8,0.8C39.7,97.8,40,98.6,40.7,98.9z M41,102
	c0.3-0.7-0.1-1.5-0.8-1.8c-0.7-0.3-1.5,0.1-1.8,0.8c-0.3,0.7,0.1,1.5,0.8,1.8C39.9,103,40.7,102.7,41,102z M37.6,106.6
	c0.7,0.3,1.5-0.1,1.8-0.8c0.3-0.7-0.1-1.5-0.8-1.8c-0.7-0.3-1.5,0.1-1.8,0.8S36.9,106.3,37.6,106.6z M37.9,109.7
	c0.3-0.7-0.1-1.5-0.8-1.8s-1.5,0.1-1.8,0.8c-0.3,0.7,0.1,1.5,0.8,1.8S37.6,110.4,37.9,109.7z M34.5,114.2c0.7,0.3,1.5-0.1,1.8-0.8
	c0.3-0.7-0.1-1.5-0.8-1.8c-0.7-0.3-1.5,0.1-1.8,0.8S33.8,114,34.5,114.2z M34,115.5c-0.5-0.2-1-0.1-1.4,0.2c0.7,0.5,1.4,1,2.2,1.5
	C35,116.5,34.7,115.8,34,115.5z M84.8,4.6c-0.3,0.1-0.6,0.2-0.9,0.3C84.3,4.9,84.6,4.8,84.8,4.6z M83,6c-0.7-0.3-1.5,0.1-1.8,0.8
	c-0.3,0.7,0.1,1.5,0.8,1.8c0.7,0.3,1.5-0.1,1.8-0.8C84,7.1,83.7,6.3,83,6z M79.6,10.6c-0.3,0.7,0.1,1.5,0.8,1.8
	c0.7,0.3,1.5-0.1,1.8-0.8c0.3-0.7-0.1-1.5-0.8-1.8C80.7,9.6,79.9,9.9,79.6,10.6z M78.1,14.4c-0.3,0.7,0.1,1.5,0.8,1.8
	c0.7,0.3,1.5-0.1,1.8-0.8c0.3-0.7-0.1-1.5-0.8-1.8C79.1,13.4,78.3,13.7,78.1,14.4z M78.3,17.5c-0.7-0.3-1.5,0.1-1.8,0.8
	c-0.3,0.7,0.1,1.5,0.8,1.8c0.7,0.3,1.5-0.1,1.8-0.8C79.4,18.6,79,17.8,78.3,17.5z M76.7,21.3c-0.7-0.3-1.5,0.1-1.8,0.8
	c-0.3,0.7,0.1,1.5,0.8,1.8c0.7,0.3,1.5-0.1,1.8-0.8C77.8,22.4,77.5,21.6,76.7,21.3z M73.4,25.9c-0.3,0.7,0.1,1.5,0.8,1.8
	c0.7,0.3,1.5-0.1,1.8-0.8c0.3-0.7-0.1-1.5-0.8-1.8C74.5,24.9,73.7,25.2,73.4,25.9z M73.6,29c-0.7-0.3-1.5,0.1-1.8,0.8
	c-0.3,0.7,0.1,1.5,0.8,1.8c0.7,0.3,1.5-0.1,1.8-0.8C74.7,30.1,74.4,29.3,73.6,29z M72.1,32.8c-0.7-0.3-1.5,0.1-1.8,0.8
	c-0.3,0.7,0.1,1.5,0.8,1.8c0.7,0.3,1.5-0.1,1.8-0.8C73.1,33.9,72.8,33.1,72.1,32.8z M68.7,37.4c-0.3,0.7,0.1,1.5,0.8,1.8
	c0.7,0.3,1.5-0.1,1.8-0.8c0.3-0.7-0.1-1.5-0.8-1.8C69.8,36.4,69,36.7,68.7,37.4z M69,40.5c-0.7-0.3-1.5,0.1-1.8,0.8
	c-0.3,0.7,0.1,1.5,0.8,1.8c0.7,0.3,1.5-0.1,1.8-0.8C70,41.6,69.7,40.8,69,40.5z M67.4,44.3c-0.7-0.3-1.5,0.1-1.8,0.8
	c-0.3,0.7,0.1,1.5,0.8,1.8c0.7,0.3,1.5-0.1,1.8-0.8C68.5,45.4,68.1,44.6,67.4,44.3z M64.1,48.9c-0.3,0.7,0.1,1.5,0.8,1.8
	c0.7,0.3,1.5-0.1,1.8-0.8s-0.1-1.5-0.8-1.8C65.2,47.9,64.4,48.2,64.1,48.9z M65.1,53.8c0.3-0.7-0.1-1.5-0.8-1.8
	c-0.7-0.3-1.5,0.1-1.8,0.8s0.1,1.5,0.8,1.8C64,54.8,64.8,54.5,65.1,53.8z M61.7,58.4c0.7,0.3,1.5-0.1,1.8-0.8
	c0.3-0.7-0.1-1.5-0.8-1.8c-0.7-0.3-1.5,0.1-1.8,0.8C60.7,57.3,61,58.1,61.7,58.4z M60.2,62.2c0.7,0.3,1.5-0.1,1.8-0.8
	c0.3-0.7-0.1-1.5-0.8-1.8c-0.7-0.3-1.5,0.1-1.8,0.8C59.1,61.1,59.5,61.9,60.2,62.2z M58.6,66c0.7,0.3,1.5-0.1,1.8-0.8
	c0.3-0.7-0.1-1.5-0.8-1.8s-1.5,0.1-1.8,0.8C57.6,64.9,57.9,65.8,58.6,66z M58.9,69.1c0.3-0.7-0.1-1.5-0.8-1.8
	c-0.7-0.3-1.5,0.1-1.8,0.8c-0.3,0.7,0.1,1.5,0.8,1.8C57.8,70.2,58.6,69.8,58.9,69.1z M55.5,73.7c0.7,0.3,1.5-0.1,1.8-0.8
	c0.3-0.7-0.1-1.5-0.8-1.8c-0.7-0.3-1.5,0.1-1.8,0.8C54.5,72.6,54.8,73.4,55.5,73.7z M55.8,76.8c0.3-0.7-0.1-1.5-0.8-1.8
	c-0.7-0.3-1.5,0.1-1.8,0.8c-0.3,0.7,0.1,1.5,0.8,1.8S55.5,77.5,55.8,76.8z M54.2,80.6c0.3-0.7-0.1-1.5-0.8-1.8
	c-0.7-0.3-1.5,0.1-1.8,0.8c-0.3,0.7,0.1,1.5,0.8,1.8C53.1,81.7,53.9,81.3,54.2,80.6z M52.7,84.4c0.3-0.7-0.1-1.5-0.8-1.8
	c-0.7-0.3-1.5,0.1-1.8,0.8c-0.3,0.7,0.1,1.5,0.8,1.8C51.6,85.5,52.4,85.1,52.7,84.4z M49.3,89c0.7,0.3,1.5-0.1,1.8-0.8
	c0.3-0.7-0.1-1.5-0.8-1.8c-0.7-0.3-1.5,0.1-1.8,0.8S48.6,88.7,49.3,89z M49.6,92.1c0.3-0.7-0.1-1.5-0.8-1.8
	c-0.7-0.3-1.5,0.1-1.8,0.8c-0.3,0.7,0.1,1.5,0.8,1.8C48.5,93.1,49.3,92.8,49.6,92.1z M46.2,96.7c0.7,0.3,1.5-0.1,1.8-0.8
	c0.3-0.7-0.1-1.5-0.8-1.8c-0.7-0.3-1.5,0.1-1.8,0.8S45.5,96.4,46.2,96.7z M46.5,99.8c0.3-0.7-0.1-1.5-0.8-1.8s-1.5,0.1-1.8,0.8
	c-0.3,0.7,0.1,1.5,0.8,1.8C45.4,100.8,46.2,100.5,46.5,99.8z M43.1,104.4c0.7,0.3,1.5-0.1,1.8-0.8c0.3-0.7-0.1-1.5-0.8-1.8
	c-0.7-0.3-1.5,0.1-1.8,0.8C42,103.3,42.4,104.1,43.1,104.4z M41.5,108.2c0.7,0.3,1.5-0.1,1.8-0.8c0.3-0.7-0.1-1.5-0.8-1.8
	c-0.7-0.3-1.5,0.1-1.8,0.8C40.5,107.1,40.8,107.9,41.5,108.2z M41.8,111.3c0.3-0.7-0.1-1.5-0.8-1.8c-0.7-0.3-1.5,0.1-1.8,0.8
	c-0.3,0.7,0.1,1.5,0.8,1.8C40.7,112.3,41.5,112,41.8,111.3z M38.4,115.8c0.7,0.3,1.5-0.1,1.8-0.8c0.3-0.7-0.1-1.5-0.8-1.8
	c-0.7-0.3-1.5,0.1-1.8,0.8C37.4,114.8,37.7,115.6,38.4,115.8z M38.7,118.9c0.3-0.7-0.1-1.5-0.8-1.8c-0.7-0.3-1.5,0.1-1.8,0.8
	c0,0.1,0,0.1-0.1,0.2c0.7,0.5,1.5,0.9,2.2,1.4C38.4,119.3,38.6,119.1,38.7,118.9z M86.7,4.5c-0.3,0.7,0.1,1.5,0.8,1.8
	c0.7,0.3,1.5-0.1,1.8-0.8c0.3-0.7-0.1-1.5-0.8-1.8c-0.3-0.1-0.5-0.1-0.8-0.1c-0.1,0-0.1,0-0.2,0C87.1,3.9,86.8,4.1,86.7,4.5z
	 M86.9,7.6c-0.7-0.3-1.5,0.1-1.8,0.8s0.1,1.5,0.8,1.8s1.5-0.1,1.8-0.8S87.6,7.9,86.9,7.6z M83.5,12.2c-0.3,0.7,0.1,1.5,0.8,1.8
	c0.7,0.3,1.5-0.1,1.8-0.8c0.3-0.7-0.1-1.5-0.8-1.8C84.6,11.2,83.8,11.5,83.5,12.2z M83.8,15.3C83.1,15,82.3,15.3,82,16
	c-0.3,0.7,0.1,1.5,0.8,1.8c0.7,0.3,1.5-0.1,1.8-0.8C84.8,16.4,84.5,15.6,83.8,15.3z M82.2,19.1c-0.7-0.3-1.5,0.1-1.8,0.8
	c-0.3,0.7,0.1,1.5,0.8,1.8c0.7,0.3,1.5-0.1,1.8-0.8C83.3,20.2,83,19.4,82.2,19.1z M78.9,23.7c-0.3,0.7,0.1,1.5,0.8,1.8
	s1.5-0.1,1.8-0.8c0.3-0.7-0.1-1.5-0.8-1.8C80,22.6,79.2,23,78.9,23.7z M79.1,26.8c-0.7-0.3-1.5,0.1-1.8,0.8
	c-0.3,0.7,0.1,1.5,0.8,1.8c0.7,0.3,1.5-0.1,1.8-0.8C80.2,27.9,79.8,27.1,79.1,26.8z M77.6,30.6c-0.7-0.3-1.5,0.1-1.8,0.8
	c-0.3,0.7,0.1,1.5,0.8,1.8c0.7,0.3,1.5-0.1,1.8-0.8C78.6,31.7,78.3,30.9,77.6,30.6z M74.2,35.2c-0.3,0.7,0.1,1.5,0.8,1.8
	s1.5-0.1,1.8-0.8c0.3-0.7-0.1-1.5-0.8-1.8C75.3,34.1,74.5,34.5,74.2,35.2z M74.5,38.3C73.8,38,73,38.3,72.7,39
	c-0.3,0.7,0.1,1.5,0.8,1.8c0.7,0.3,1.5-0.1,1.8-0.8C75.5,39.4,75.2,38.5,74.5,38.3z M72.9,42.1c-0.7-0.3-1.5,0.1-1.8,0.8
	c-0.3,0.7,0.1,1.5,0.8,1.8c0.7,0.3,1.5-0.1,1.8-0.8C74,43.2,73.6,42.4,72.9,42.1z M69.6,46.7c-0.3,0.7,0.1,1.5,0.8,1.8
	c0.7,0.3,1.5-0.1,1.8-0.8c0.3-0.7-0.1-1.5-0.8-1.8S69.9,46,69.6,46.7z M69.8,49.8c-0.7-0.3-1.5,0.1-1.8,0.8
	c-0.3,0.7,0.1,1.5,0.8,1.8c0.7,0.3,1.5-0.1,1.8-0.8C70.9,50.8,70.5,50,69.8,49.8z M69,55.4c0.3-0.7-0.1-1.5-0.8-1.8
	c-0.7-0.3-1.5,0.1-1.8,0.8c-0.3,0.7,0.1,1.5,0.8,1.8C67.9,56.4,68.7,56.1,69,55.4z M65.7,60c0.7,0.3,1.5-0.1,1.8-0.8
	s-0.1-1.5-0.8-1.8c-0.7-0.3-1.5,0.1-1.8,0.8C64.6,58.9,65,59.7,65.7,60z M65.9,63c0.3-0.7-0.1-1.5-0.8-1.8c-0.7-0.3-1.5,0.1-1.8,0.8
	c-0.3,0.7,0.1,1.5,0.8,1.8C64.8,64.1,65.6,63.8,65.9,63z M62.6,67.6c0.7,0.3,1.5-0.1,1.8-0.8c0.3-0.7-0.1-1.5-0.8-1.8
	c-0.7-0.3-1.5,0.1-1.8,0.8C61.5,66.5,61.9,67.4,62.6,67.6z M61,71.5c0.7,0.3,1.5-0.1,1.8-0.8c0.3-0.7-0.1-1.5-0.8-1.8
	c-0.7-0.3-1.5,0.1-1.8,0.8S60.3,71.2,61,71.5z M59.5,75.3c0.7,0.3,1.5-0.1,1.8-0.8c0.3-0.7-0.1-1.5-0.8-1.8
	c-0.7-0.3-1.5,0.1-1.8,0.8C58.4,74.2,58.8,75,59.5,75.3z M59.7,78.4c0.3-0.7-0.1-1.5-0.8-1.8c-0.7-0.3-1.5,0.1-1.8,0.8
	c-0.3,0.7,0.1,1.5,0.8,1.8C58.6,79.4,59.4,79.1,59.7,78.4z M56.4,83c0.7,0.3,1.5-0.1,1.8-0.8c0.3-0.7-0.1-1.5-0.8-1.8
	c-0.7-0.3-1.5,0.1-1.8,0.8C55.3,81.9,55.7,82.7,56.4,83z M56.6,86c0.3-0.7-0.1-1.5-0.8-1.8c-0.7-0.3-1.5,0.1-1.8,0.8
	c-0.3,0.7,0.1,1.5,0.8,1.8C55.5,87.1,56.3,86.7,56.6,86z M55.1,89.9c0.3-0.7-0.1-1.5-0.8-1.8s-1.5,0.1-1.8,0.8
	c-0.3,0.7,0.1,1.5,0.8,1.8C54,90.9,54.8,90.6,55.1,89.9z M53.5,93.7c0.3-0.7-0.1-1.5-0.8-1.8c-0.7-0.3-1.5,0.1-1.8,0.8
	c-0.3,0.7,0.1,1.5,0.8,1.8C52.4,94.7,53.2,94.4,53.5,93.7z M50.1,98.3c0.7,0.3,1.5-0.1,1.8-0.8c0.3-0.7-0.1-1.5-0.8-1.8
	s-1.5,0.1-1.8,0.8C49.1,97.2,49.4,98,50.1,98.3z M50.4,101.4c0.3-0.7-0.1-1.5-0.8-1.8c-0.7-0.3-1.5,0.1-1.8,0.8
	c-0.3,0.7,0.1,1.5,0.8,1.8S50.1,102.1,50.4,101.4z M47,106c0.7,0.3,1.5-0.1,1.8-0.8c0.3-0.7-0.1-1.5-0.8-1.8
	c-0.7-0.3-1.5,0.1-1.8,0.8S46.3,105.7,47,106z M47.3,109c0.3-0.7-0.1-1.5-0.8-1.8c-0.7-0.3-1.5,0.1-1.8,0.8
	c-0.3,0.7,0.1,1.5,0.8,1.8S47,109.7,47.3,109z M43.9,113.6c0.7,0.3,1.5-0.1,1.8-0.8c0.3-0.7-0.1-1.5-0.8-1.8
	c-0.7-0.3-1.5,0.1-1.8,0.8C42.9,112.5,43.2,113.3,43.9,113.6z M42.4,117.4c0.7,0.3,1.5-0.1,1.8-0.8c0.3-0.7-0.1-1.5-0.8-1.8
	c-0.7-0.3-1.5,0.1-1.8,0.8C41.3,116.4,41.7,117.2,42.4,117.4z M42.6,120.5c0.3-0.7-0.1-1.5-0.8-1.8c-0.7-0.3-1.5,0.1-1.8,0.8
	c-0.2,0.4-0.1,0.8,0.1,1.2c0.4,0.3,0.8,0.5,1.3,0.7C41.9,121.4,42.4,121,42.6,120.5z M92.9,4.1c0.7,0.3,1.5-0.1,1.8-0.8
	c0.2-0.5,0.1-1-0.2-1.4c-0.8,0.2-1.6,0.4-2.4,0.6C91.9,3.2,92.3,3.9,92.9,4.1z M92.4,5.4c-0.7-0.3-1.5,0.1-1.8,0.8s0.1,1.5,0.8,1.8
	c0.7,0.3,1.5-0.1,1.8-0.8S93.1,5.7,92.4,5.4z M90.8,9.2C90.1,8.9,89.3,9.3,89,10c-0.3,0.7,0.1,1.5,0.8,1.8c0.7,0.3,1.5-0.1,1.8-0.8
	C91.9,10.3,91.6,9.5,90.8,9.2z M87.5,13.8c-0.3,0.7,0.1,1.5,0.8,1.8c0.7,0.3,1.5-0.1,1.8-0.8c0.3-0.7-0.1-1.5-0.8-1.8
	C88.6,12.8,87.8,13.1,87.5,13.8z M87.7,16.9c-0.7-0.3-1.5,0.1-1.8,0.8c-0.3,0.7,0.1,1.5,0.8,1.8c0.7,0.3,1.5-0.1,1.8-0.8
	C88.8,18,88.5,17.2,87.7,16.9z M84.4,21.5c-0.3,0.7,0.1,1.5,0.8,1.8c0.7,0.3,1.5-0.1,1.8-0.8c0.3-0.7-0.1-1.5-0.8-1.8
	C85.5,20.4,84.7,20.8,84.4,21.5z M84.6,24.5c-0.7-0.3-1.5,0.1-1.8,0.8s0.1,1.5,0.8,1.8c0.7,0.3,1.5-0.1,1.8-0.8
	C85.7,25.6,85.3,24.8,84.6,24.5z M83.1,28.4c-0.7-0.3-1.5,0.1-1.8,0.8c-0.3,0.7,0.1,1.5,0.8,1.8c0.7,0.3,1.5-0.1,1.8-0.8
	C84.1,29.5,83.8,28.7,83.1,28.4z M79.7,33c-0.3,0.7,0.1,1.5,0.8,1.8c0.7,0.3,1.5-0.1,1.8-0.8c0.3-0.7-0.1-1.5-0.8-1.8
	C80.8,31.9,80,32.2,79.7,33z M80,36c-0.7-0.3-1.5,0.1-1.8,0.8s0.1,1.5,0.8,1.8c0.7,0.3,1.5-0.1,1.8-0.8S80.7,36.3,80,36z M78.4,39.9
	c-0.7-0.3-1.5,0.1-1.8,0.8s0.1,1.5,0.8,1.8c0.7,0.3,1.5-0.1,1.8-0.8C79.5,41,79.1,40.1,78.4,39.9z M75.1,44.5
	c-0.3,0.7,0.1,1.5,0.8,1.8c0.7,0.3,1.5-0.1,1.8-0.8c0.3-0.7-0.1-1.5-0.8-1.8C76.2,43.4,75.4,43.7,75.1,44.5z M75.3,47.5
	c-0.7-0.3-1.5,0.1-1.8,0.8c-0.3,0.7,0.1,1.5,0.8,1.8c0.7,0.3,1.5-0.1,1.8-0.8C76.4,48.6,76,47.8,75.3,47.5z M73.8,51.4
	c-0.7-0.3-1.5,0.1-1.8,0.8c-0.3,0.7,0.1,1.5,0.8,1.8c0.7,0.3,1.5-0.1,1.8-0.8C74.8,52.4,74.5,51.6,73.8,51.4z M70.4,55.9
	c-0.3,0.7,0.1,1.5,0.8,1.8c0.7,0.3,1.5-0.1,1.8-0.8c0.3-0.7-0.1-1.5-0.8-1.8S70.7,55.2,70.4,55.9z M69.6,61.6
	c0.7,0.3,1.5-0.1,1.8-0.8c0.3-0.7-0.1-1.5-0.8-1.8c-0.7-0.3-1.5,0.1-1.8,0.8C68.6,60.5,68.9,61.3,69.6,61.6z M69.9,64.6
	c0.3-0.7-0.1-1.5-0.8-1.8c-0.7-0.3-1.5,0.1-1.8,0.8c-0.3,0.7,0.1,1.5,0.8,1.8S69.6,65.4,69.9,64.6z M66.5,69.2
	c0.7,0.3,1.5-0.1,1.8-0.8c0.3-0.7-0.1-1.5-0.8-1.8c-0.7-0.3-1.5,0.1-1.8,0.8C65.5,68.1,65.8,69,66.5,69.2z M66.8,72.3
	c0.3-0.7-0.1-1.5-0.8-1.8c-0.7-0.3-1.5,0.1-1.8,0.8c-0.3,0.7,0.1,1.5,0.8,1.8C65.7,73.4,66.5,73,66.8,72.3z M63.4,76.9
	c0.7,0.3,1.5-0.1,1.8-0.8c0.3-0.7-0.1-1.5-0.8-1.8c-0.7-0.3-1.5,0.1-1.8,0.8C62.4,75.8,62.7,76.6,63.4,76.9z M61.9,80.7
	c0.7,0.3,1.5-0.1,1.8-0.8c0.3-0.7-0.1-1.5-0.8-1.8s-1.5,0.1-1.8,0.8C60.8,79.6,61.1,80.4,61.9,80.7z M60.3,84.6
	c0.7,0.3,1.5-0.1,1.8-0.8c0.3-0.7-0.1-1.5-0.8-1.8c-0.7-0.3-1.5,0.1-1.8,0.8C59.3,83.5,59.6,84.3,60.3,84.6z M60.6,87.6
	c0.3-0.7-0.1-1.5-0.8-1.8c-0.7-0.3-1.5,0.1-1.8,0.8c-0.3,0.7,0.1,1.5,0.8,1.8C59.5,88.7,60.3,88.3,60.6,87.6z M57.2,92.2
	c0.7,0.3,1.5-0.1,1.8-0.8c0.3-0.7-0.1-1.5-0.8-1.8c-0.7-0.3-1.5,0.1-1.8,0.8C56.1,91.1,56.5,91.9,57.2,92.2z M57.4,95.3
	c0.3-0.7-0.1-1.5-0.8-1.8c-0.7-0.3-1.5,0.1-1.8,0.8c-0.3,0.7,0.1,1.5,0.8,1.8C56.4,96.3,57.2,96,57.4,95.3z M55.9,99.1
	c0.3-0.7-0.1-1.5-0.8-1.8c-0.7-0.3-1.5,0.1-1.8,0.8c-0.3,0.7,0.1,1.5,0.8,1.8S55.6,99.8,55.9,99.1z M54.3,103
	c0.3-0.7-0.1-1.5-0.8-1.8c-0.7-0.3-1.5,0.1-1.8,0.8c-0.3,0.7,0.1,1.5,0.8,1.8C53.2,104,54.1,103.7,54.3,103z M51,107.6
	c0.7,0.3,1.5-0.1,1.8-0.8c0.3-0.7-0.1-1.5-0.8-1.8c-0.7-0.3-1.5,0.1-1.8,0.8C49.9,106.5,50.3,107.3,51,107.6z M51.2,110.6
	c0.3-0.7-0.1-1.5-0.8-1.8c-0.7-0.3-1.5,0.1-1.8,0.8c-0.3,0.7,0.1,1.5,0.8,1.8C50.1,111.7,50.9,111.3,51.2,110.6z M47.9,115.2
	c0.7,0.3,1.5-0.1,1.8-0.8c0.3-0.7-0.1-1.5-0.8-1.8c-0.7-0.3-1.5,0.1-1.8,0.8C46.8,114.1,47.2,114.9,47.9,115.2z M48.1,118.3
	c0.3-0.7-0.1-1.5-0.8-1.8c-0.7-0.3-1.5,0.1-1.8,0.8c-0.3,0.7,0.1,1.5,0.8,1.8C47,119.3,47.8,119,48.1,118.3z M44.8,122.9
	c0.7,0.3,1.5-0.1,1.8-0.8c0.3-0.7-0.1-1.5-0.8-1.8c-0.7-0.3-1.5,0.1-1.8,0.8C43.7,121.8,44.1,122.6,44.8,122.9z M98.4,1.9
	c0.7,0.3,1.5-0.1,1.8-0.8c0.1-0.1,0.1-0.3,0.1-0.4c-0.9,0.2-1.7,0.3-2.6,0.5C97.8,1.5,98.1,1.7,98.4,1.9z M97.9,3.1
	c-0.7-0.3-1.5,0.1-1.8,0.8c-0.3,0.7,0.1,1.5,0.8,1.8c0.7,0.3,1.5-0.1,1.8-0.8C98.9,4.2,98.6,3.4,97.9,3.1z M96.3,7
	c-0.7-0.3-1.5,0.1-1.8,0.8s0.1,1.5,0.8,1.8c0.7,0.3,1.5-0.1,1.8-0.8C97.4,8.1,97.1,7.3,96.3,7z M93,11.6c-0.3,0.7,0.1,1.5,0.8,1.8
	c0.7,0.3,1.5-0.1,1.8-0.8s-0.1-1.5-0.8-1.8S93.3,10.9,93,11.6z M93.2,14.6c-0.7-0.3-1.5,0.1-1.8,0.8c-0.3,0.7,0.1,1.5,0.8,1.8
	c0.7,0.3,1.5-0.1,1.8-0.8C94.3,15.7,93.9,14.9,93.2,14.6z M91.7,18.5c-0.7-0.3-1.5,0.1-1.8,0.8c-0.3,0.7,0.1,1.5,0.8,1.8
	c0.7,0.3,1.5-0.1,1.8-0.8C92.7,19.6,92.4,18.8,91.7,18.5z M88.3,23.1c-0.3,0.7,0.1,1.5,0.8,1.8c0.7,0.3,1.5-0.1,1.8-0.8
	c0.3-0.7-0.1-1.5-0.8-1.8C89.4,22,88.6,22.4,88.3,23.1z M88.6,26.1c-0.7-0.3-1.5,0.1-1.8,0.8c-0.3,0.7,0.1,1.5,0.8,1.8
	c0.7,0.3,1.5-0.1,1.8-0.8C89.6,27.2,89.3,26.4,88.6,26.1z M85.2,30.7c-0.3,0.7,0.1,1.5,0.8,1.8s1.5-0.1,1.8-0.8
	c0.3-0.7-0.1-1.5-0.8-1.8C86.3,29.7,85.5,30,85.2,30.7z M85.5,33.8c-0.7-0.3-1.5,0.1-1.8,0.8c-0.3,0.7,0.1,1.5,0.8,1.8
	c0.7,0.3,1.5-0.1,1.8-0.8C86.5,34.9,86.2,34.1,85.5,33.8z M83.9,37.6c-0.7-0.3-1.5,0.1-1.8,0.8c-0.3,0.7,0.1,1.5,0.8,1.8
	c0.7,0.3,1.5-0.1,1.8-0.8C85,38.7,84.6,37.9,83.9,37.6z M80.6,42.2c-0.3,0.7,0.1,1.5,0.8,1.8c0.7,0.3,1.5-0.1,1.8-0.8
	c0.3-0.7-0.1-1.5-0.8-1.8C81.7,41.2,80.9,41.5,80.6,42.2z M80.8,45.3C80.1,45,79.3,45.3,79,46s0.1,1.5,0.8,1.8
	c0.7,0.3,1.5-0.1,1.8-0.8S81.5,45.6,80.8,45.3z M79.3,49.1c-0.7-0.3-1.5,0.1-1.8,0.8c-0.3,0.7,0.1,1.5,0.8,1.8
	c0.7,0.3,1.5-0.1,1.8-0.8C80.3,50.2,80,49.4,79.3,49.1z M75.9,53.7c-0.3,0.7,0.1,1.5,0.8,1.8c0.7,0.3,1.5-0.1,1.8-0.8
	c0.3-0.7-0.1-1.5-0.8-1.8C77,52.7,76.2,53,75.9,53.7z M76.9,58.6c0.3-0.7-0.1-1.5-0.8-1.8c-0.7-0.3-1.5,0.1-1.8,0.8
	c-0.3,0.7,0.1,1.5,0.8,1.8C75.8,59.6,76.6,59.3,76.9,58.6z M74.6,60.6c-0.7-0.3-1.5,0.1-1.8,0.8c-0.3,0.7,0.1,1.5,0.8,1.8
	c0.7,0.3,1.5-0.1,1.8-0.8C75.7,61.7,75.3,60.9,74.6,60.6z M73.8,66.2c0.3-0.7-0.1-1.5-0.8-1.8c-0.7-0.3-1.5,0.1-1.8,0.8
	C71,65.9,71.3,66.7,72,67C72.7,67.3,73.5,67,73.8,66.2z M70.5,70.8c0.7,0.3,1.5-0.1,1.8-0.8s-0.1-1.5-0.8-1.8
	C70.8,68,70,68.3,69.7,69C69.4,69.7,69.8,70.6,70.5,70.8z M70.7,73.9c0.3-0.7-0.1-1.5-0.8-1.8c-0.7-0.3-1.5,0.1-1.8,0.8
	c-0.3,0.7,0.1,1.5,0.8,1.8C69.6,75,70.4,74.6,70.7,73.9z M67.4,78.5c0.7,0.3,1.5-0.1,1.8-0.8c0.3-0.7-0.1-1.5-0.8-1.8
	c-0.7-0.3-1.5,0.1-1.8,0.8C66.3,77.4,66.6,78.2,67.4,78.5z M67.6,81.6c0.3-0.7-0.1-1.5-0.8-1.8c-0.7-0.3-1.5,0.1-1.8,0.8
	s0.1,1.5,0.8,1.8C66.5,82.6,67.3,82.3,67.6,81.6z M64.2,86.2c0.7,0.3,1.5-0.1,1.8-0.8c0.3-0.7-0.1-1.5-0.8-1.8
	c-0.7-0.3-1.5,0.1-1.8,0.8C63.2,85.1,63.5,85.9,64.2,86.2z M62.7,90c0.7,0.3,1.5-0.1,1.8-0.8c0.3-0.7-0.1-1.5-0.8-1.8
	c-0.7-0.3-1.5,0.1-1.8,0.8C61.6,88.9,62,89.7,62.7,90z M61.1,93.8c0.7,0.3,1.5-0.1,1.8-0.8c0.3-0.7-0.1-1.5-0.8-1.8
	c-0.7-0.3-1.5,0.1-1.8,0.8C60.1,92.7,60.4,93.5,61.1,93.8z M61.4,96.9c0.3-0.7-0.1-1.5-0.8-1.8c-0.7-0.3-1.5,0.1-1.8,0.8
	c-0.3,0.7,0.1,1.5,0.8,1.8C60.3,97.9,61.1,97.6,61.4,96.9z M58,101.5c0.7,0.3,1.5-0.1,1.8-0.8c0.3-0.7-0.1-1.5-0.8-1.8
	c-0.7-0.3-1.5,0.1-1.8,0.8C57,100.4,57.3,101.2,58,101.5z M58.3,104.6c0.3-0.7-0.1-1.5-0.8-1.8c-0.7-0.3-1.5,0.1-1.8,0.8
	c-0.3,0.7,0.1,1.5,0.8,1.8C57.2,105.6,58,105.3,58.3,104.6z M56.7,108.4c0.3-0.7-0.1-1.5-0.8-1.8c-0.7-0.3-1.5,0.1-1.8,0.8
	s0.1,1.5,0.8,1.8C55.6,109.4,56.4,109.1,56.7,108.4z M55.2,112.2c0.3-0.7-0.1-1.5-0.8-1.8s-1.5,0.1-1.8,0.8
	c-0.3,0.7,0.1,1.5,0.8,1.8C54.1,113.3,54.9,112.9,55.2,112.2z M51.8,116.8c0.7,0.3,1.5-0.1,1.8-0.8c0.3-0.7-0.1-1.5-0.8-1.8
	c-0.7-0.3-1.5,0.1-1.8,0.8S51.1,116.5,51.8,116.8z M52.1,119.9c0.3-0.7-0.1-1.5-0.8-1.8s-1.5,0.1-1.8,0.8c-0.3,0.7,0.1,1.5,0.8,1.8
	C51,120.9,51.8,120.6,52.1,119.9z M48.7,124.5c0.7,0.3,1.5-0.1,1.8-0.8c0.3-0.7-0.1-1.5-0.8-1.8c-0.7-0.3-1.5,0.1-1.8,0.8
	C47.7,123.4,48,124.2,48.7,124.5z M103.4,0.9c-0.7-0.3-1.5,0.1-1.8,0.8c-0.3,0.7,0.1,1.5,0.8,1.8c0.7,0.3,1.5-0.1,1.8-0.8
	C104.4,2,104.1,1.2,103.4,0.9z M100,5.5c-0.3,0.7,0.1,1.5,0.8,1.8c0.7,0.3,1.5-0.1,1.8-0.8s-0.1-1.5-0.8-1.8
	C101.1,4.5,100.3,4.8,100,5.5z M98.5,9.3c-0.3,0.7,0.1,1.5,0.8,1.8c0.7,0.3,1.5-0.1,1.8-0.8c0.3-0.7-0.1-1.5-0.8-1.8
	S98.8,8.6,98.5,9.3z M98.7,12.4c-0.7-0.3-1.5,0.1-1.8,0.8c-0.3,0.7,0.1,1.5,0.8,1.8s1.5-0.1,1.8-0.8C99.8,13.5,99.4,12.7,98.7,12.4z
	 M97.2,16.2c-0.7-0.3-1.5,0.1-1.8,0.8c-0.3,0.7,0.1,1.5,0.8,1.8c0.7,0.3,1.5-0.1,1.8-0.8S97.9,16.5,97.2,16.2z M93.8,20.8
	c-0.3,0.7,0.1,1.5,0.8,1.8c0.7,0.3,1.5-0.1,1.8-0.8c0.3-0.7-0.1-1.5-0.8-1.8C94.9,19.8,94.1,20.1,93.8,20.8z M94.1,23.9
	c-0.7-0.3-1.5,0.1-1.8,0.8c-0.3,0.7,0.1,1.5,0.8,1.8c0.7,0.3,1.5-0.1,1.8-0.8C95.1,25,94.8,24.2,94.1,23.9z M92.5,27.7
	c-0.7-0.3-1.5,0.1-1.8,0.8s0.1,1.5,0.8,1.8c0.7,0.3,1.5-0.1,1.8-0.8C93.6,28.8,93.2,28,92.5,27.7z M89.2,32.3
	c-0.3,0.7,0.1,1.5,0.8,1.8c0.7,0.3,1.5-0.1,1.8-0.8c0.3-0.7-0.1-1.5-0.8-1.8C90.3,31.3,89.5,31.6,89.2,32.3z M89.4,35.4
	c-0.7-0.3-1.5,0.1-1.8,0.8c-0.3,0.7,0.1,1.5,0.8,1.8c0.7,0.3,1.5-0.1,1.8-0.8C90.5,36.5,90.1,35.7,89.4,35.4z M86.1,40
	c-0.3,0.7,0.1,1.5,0.8,1.8c0.7,0.3,1.5-0.1,1.8-0.8c0.3-0.7-0.1-1.5-0.8-1.8C87.2,38.9,86.4,39.3,86.1,40z M86.3,43.1
	c-0.7-0.3-1.5,0.1-1.8,0.8c-0.3,0.7,0.1,1.5,0.8,1.8s1.5-0.1,1.8-0.8C87.4,44.1,87,43.3,86.3,43.1z M84.8,46.9
	c-0.7-0.3-1.5,0.1-1.8,0.8c-0.3,0.7,0.1,1.5,0.8,1.8c0.7,0.3,1.5-0.1,1.8-0.8C85.8,48,85.5,47.2,84.8,46.9z M81.4,51.5
	c-0.3,0.7,0.1,1.5,0.8,1.8c0.7,0.3,1.5-0.1,1.8-0.8s-0.1-1.5-0.8-1.8C82.5,50.4,81.7,50.8,81.4,51.5z M81.7,54.5
	c-0.7-0.3-1.5,0.1-1.8,0.8s0.1,1.5,0.8,1.8c0.7,0.3,1.5-0.1,1.8-0.8C82.7,55.6,82.4,54.8,81.7,54.5z M79.1,60.9
	c0.7,0.3,1.5-0.1,1.8-0.8c0.3-0.7-0.1-1.5-0.8-1.8c-0.7-0.3-1.5,0.1-1.8,0.8C78,59.9,78.4,60.7,79.1,60.9z M79.3,64
	c0.3-0.7-0.1-1.5-0.8-1.8c-0.7-0.3-1.5,0.1-1.8,0.8s0.1,1.5,0.8,1.8C78.2,65.1,79,64.7,79.3,64z M77.8,67.8c0.3-0.7-0.1-1.5-0.8-1.8
	s-1.5,0.1-1.8,0.8c-0.3,0.7,0.1,1.5,0.8,1.8C76.7,68.9,77.5,68.6,77.8,67.8z M74.4,72.4c0.7,0.3,1.5-0.1,1.8-0.8
	c0.3-0.7-0.1-1.5-0.8-1.8c-0.7-0.3-1.5,0.1-1.8,0.8C73.4,71.3,73.7,72.2,74.4,72.4z M74.7,75.5c0.3-0.7-0.1-1.5-0.8-1.8
	c-0.7-0.3-1.5,0.1-1.8,0.8c-0.3,0.7,0.1,1.5,0.8,1.8C73.6,76.6,74.4,76.2,74.7,75.5z M71.3,80.1c0.7,0.3,1.5-0.1,1.8-0.8
	s-0.1-1.5-0.8-1.8c-0.7-0.3-1.5,0.1-1.8,0.8C70.2,79,70.6,79.8,71.3,80.1z M71.5,83.2c0.3-0.7-0.1-1.5-0.8-1.8
	c-0.7-0.3-1.5,0.1-1.8,0.8c-0.3,0.7,0.1,1.5,0.8,1.8C70.5,84.2,71.3,83.9,71.5,83.2z M68.2,87.8c0.7,0.3,1.5-0.1,1.8-0.8
	s-0.1-1.5-0.8-1.8c-0.7-0.3-1.5,0.1-1.8,0.8C67.1,86.7,67.5,87.5,68.2,87.8z M68.4,90.8c0.3-0.7-0.1-1.5-0.8-1.8
	c-0.7-0.3-1.5,0.1-1.8,0.8s0.1,1.5,0.8,1.8C67.3,91.9,68.2,91.5,68.4,90.8z M65.1,95.4c0.7,0.3,1.5-0.1,1.8-0.8
	c0.3-0.7-0.1-1.5-0.8-1.8c-0.7-0.3-1.5,0.1-1.8,0.8C64,94.3,64.4,95.1,65.1,95.4z M63.5,99.3c0.7,0.3,1.5-0.1,1.8-0.8
	c0.3-0.7-0.1-1.5-0.8-1.8c-0.7-0.3-1.5,0.1-1.8,0.8C62.5,98.2,62.8,99,63.5,99.3z M62,103.1c0.7,0.3,1.5-0.1,1.8-0.8
	c0.3-0.7-0.1-1.5-0.8-1.8c-0.7-0.3-1.5,0.1-1.8,0.8C60.9,102,61.3,102.8,62,103.1z M62.2,106.2c0.3-0.7-0.1-1.5-0.8-1.8
	c-0.7-0.3-1.5,0.1-1.8,0.8c-0.3,0.7,0.1,1.5,0.8,1.8C61.1,107.2,61.9,106.9,62.2,106.2z M58.9,110.7c0.7,0.3,1.5-0.1,1.8-0.8
	c0.3-0.7-0.1-1.5-0.8-1.8s-1.5,0.1-1.8,0.8C57.8,109.7,58.2,110.5,58.9,110.7z M59.1,113.8c0.3-0.7-0.1-1.5-0.8-1.8
	c-0.7-0.3-1.5,0.1-1.8,0.8c-0.3,0.7,0.1,1.5,0.8,1.8C58,114.9,58.8,114.5,59.1,113.8z M57.6,117.6c0.3-0.7-0.1-1.5-0.8-1.8
	c-0.7-0.3-1.5,0.1-1.8,0.8c-0.3,0.7,0.1,1.5,0.8,1.8C56.5,118.7,57.3,118.4,57.6,117.6z M56,121.5c0.3-0.7-0.1-1.5-0.8-1.8
	c-0.7-0.3-1.5,0.1-1.8,0.8c-0.3,0.7,0.1,1.5,0.8,1.8S55.7,122.2,56,121.5z M52.7,126.1c0.7,0.3,1.5-0.1,1.8-0.8
	c0.3-0.7-0.1-1.5-0.8-1.8c-0.7-0.3-1.5,0.1-1.8,0.8C51.6,125,52,125.8,52.7,126.1z M107.9,1.2c0.6,0.3,1.3,0,1.7-0.5
	c-0.8-0.2-1.7-0.3-2.5-0.4C107.2,0.7,107.4,1.1,107.9,1.2z M107.3,2.5c-0.7-0.3-1.5,0.1-1.8,0.8s0.1,1.5,0.8,1.8
	c0.7,0.3,1.5-0.1,1.8-0.8C108.4,3.6,108,2.8,107.3,2.5z M104,7.1c-0.3,0.7,0.1,1.5,0.8,1.8c0.7,0.3,1.5-0.1,1.8-0.8
	c0.3-0.7-0.1-1.5-0.8-1.8C105.1,6.1,104.3,6.4,104,7.1z M104.2,10.2c-0.7-0.3-1.5,0.1-1.8,0.8c-0.3,0.7,0.1,1.5,0.8,1.8
	c0.7,0.3,1.5-0.1,1.8-0.8S104.9,10.5,104.2,10.2z M100.9,14.8c-0.3,0.7,0.1,1.5,0.8,1.8c0.7,0.3,1.5-0.1,1.8-0.8
	c0.3-0.7-0.1-1.5-0.8-1.8C102,13.7,101.2,14.1,100.9,14.8z M99.3,18.6c-0.3,0.7,0.1,1.5,0.8,1.8c0.7,0.3,1.5-0.1,1.8-0.8
	c0.3-0.7-0.1-1.5-0.8-1.8C100.4,17.5,99.6,17.9,99.3,18.6z M99.6,21.7c-0.7-0.3-1.5,0.1-1.8,0.8s0.1,1.5,0.8,1.8
	c0.7,0.3,1.5-0.1,1.8-0.8C100.6,22.8,100.3,22,99.6,21.7z M98,25.5c-0.7-0.3-1.5,0.1-1.8,0.8c-0.3,0.7,0.1,1.5,0.8,1.8
	c0.7,0.3,1.5-0.1,1.8-0.8S98.7,25.8,98,25.5z M94.7,30.1c-0.3,0.7,0.1,1.5,0.8,1.8c0.7,0.3,1.5-0.1,1.8-0.8c0.3-0.7-0.1-1.5-0.8-1.8
	C95.8,29,95,29.4,94.7,30.1z M94.9,33.2c-0.7-0.3-1.5,0.1-1.8,0.8c-0.3,0.7,0.1,1.5,0.8,1.8c0.7,0.3,1.5-0.1,1.8-0.8
	C96,34.3,95.6,33.4,94.9,33.2z M93.4,37c-0.7-0.3-1.5,0.1-1.8,0.8s0.1,1.5,0.8,1.8c0.7,0.3,1.5-0.1,1.8-0.8
	C94.4,38.1,94.1,37.3,93.4,37z M90,41.6c-0.3,0.7,0.1,1.5,0.8,1.8c0.7,0.3,1.5-0.1,1.8-0.8c0.3-0.7-0.1-1.5-0.8-1.8
	C91.1,40.5,90.3,40.9,90,41.6z M90.3,44.7c-0.7-0.3-1.5,0.1-1.8,0.8c-0.3,0.7,0.1,1.5,0.8,1.8c0.7,0.3,1.5-0.1,1.8-0.8
	C91.3,45.7,91,44.9,90.3,44.7z M86.9,49.2c-0.3,0.7,0.1,1.5,0.8,1.8c0.7,0.3,1.5-0.1,1.8-0.8c0.3-0.7-0.1-1.5-0.8-1.8
	C88,48.2,87.2,48.5,86.9,49.2z M87.2,52.3c-0.7-0.3-1.5,0.1-1.8,0.8c-0.3,0.7,0.1,1.5,0.8,1.8s1.5-0.1,1.8-0.8
	C88.2,53.4,87.9,52.6,87.2,52.3z M85.6,56.1c-0.7-0.3-1.5,0.1-1.8,0.8c-0.3,0.7,0.1,1.5,0.8,1.8c0.7,0.3,1.5-0.1,1.8-0.8
	S86.3,56.4,85.6,56.1z M82.2,60.7c-0.3,0.7,0.1,1.5,0.8,1.8c0.7,0.3,1.5-0.1,1.8-0.8c0.3-0.7-0.1-1.5-0.8-1.8
	C83.3,59.7,82.5,60,82.2,60.7z M83.3,65.6c0.3-0.7-0.1-1.5-0.8-1.8c-0.7-0.3-1.5,0.1-1.8,0.8c-0.3,0.7,0.1,1.5,0.8,1.8
	C82.2,66.7,83,66.3,83.3,65.6z M79.9,70.2c0.7,0.3,1.5-0.1,1.8-0.8s-0.1-1.5-0.8-1.8c-0.7-0.3-1.5,0.1-1.8,0.8
	C78.9,69.1,79.2,69.9,79.9,70.2z M80.2,73.3c0.3-0.7-0.1-1.5-0.8-1.8c-0.7-0.3-1.5,0.1-1.8,0.8s0.1,1.5,0.8,1.8
	C79.1,74.3,79.9,74,80.2,73.3z M78.6,77.1c0.3-0.7-0.1-1.5-0.8-1.8s-1.5,0.1-1.8,0.8c-0.3,0.7,0.1,1.5,0.8,1.8
	C77.5,78.2,78.3,77.8,78.6,77.1z M75.2,81.7c0.7,0.3,1.5-0.1,1.8-0.8c0.3-0.7-0.1-1.5-0.8-1.8c-0.7-0.3-1.5,0.1-1.8,0.8
	C74.2,80.6,74.5,81.4,75.2,81.7z M75.5,84.8c0.3-0.7-0.1-1.5-0.8-1.8c-0.7-0.3-1.5,0.1-1.8,0.8c-0.3,0.7,0.1,1.5,0.8,1.8
	C74.4,85.8,75.2,85.5,75.5,84.8z M72.1,89.4c0.7,0.3,1.5-0.1,1.8-0.8c0.3-0.7-0.1-1.5-0.8-1.8c-0.7-0.3-1.5,0.1-1.8,0.8
	C71.1,88.3,71.4,89.1,72.1,89.4z M72.4,92.4c0.3-0.7-0.1-1.5-0.8-1.8c-0.7-0.3-1.5,0.1-1.8,0.8c-0.3,0.7,0.1,1.5,0.8,1.8
	C71.3,93.5,72.1,93.1,72.4,92.4z M69,97c0.7,0.3,1.5-0.1,1.8-0.8c0.3-0.7-0.1-1.5-0.8-1.8c-0.7-0.3-1.5,0.1-1.8,0.8
	C68,95.9,68.3,96.7,69,97z M69.3,100.1c0.3-0.7-0.1-1.5-0.8-1.8c-0.7-0.3-1.5,0.1-1.8,0.8c-0.3,0.7,0.1,1.5,0.8,1.8
	C68.2,101.1,69,100.8,69.3,100.1z M65.9,104.7c0.7,0.3,1.5-0.1,1.8-0.8c0.3-0.7-0.1-1.5-0.8-1.8c-0.7-0.3-1.5,0.1-1.8,0.8
	C64.9,103.6,65.2,104.4,65.9,104.7z M64.4,108.5c0.7,0.3,1.5-0.1,1.8-0.8c0.3-0.7-0.1-1.5-0.8-1.8s-1.5,0.1-1.8,0.8
	S63.7,108.2,64.4,108.5z M62.8,112.3c0.7,0.3,1.5-0.1,1.8-0.8c0.3-0.7-0.1-1.5-0.8-1.8c-0.7-0.3-1.5,0.1-1.8,0.8
	C61.8,111.3,62.1,112.1,62.8,112.3z M63.1,115.4c0.3-0.7-0.1-1.5-0.8-1.8c-0.7-0.3-1.5,0.1-1.8,0.8c-0.3,0.7,0.1,1.5,0.8,1.8
	C62,116.5,62.8,116.1,63.1,115.4z M59.7,120c0.7,0.3,1.5-0.1,1.8-0.8c0.3-0.7-0.1-1.5-0.8-1.8s-1.5,0.1-1.8,0.8
	C58.7,118.9,59,119.7,59.7,120z M60,123.1c0.3-0.7-0.1-1.5-0.8-1.8c-0.7-0.3-1.5,0.1-1.8,0.8c-0.3,0.7,0.1,1.5,0.8,1.8
	C58.9,124.1,59.7,123.8,60,123.1z M56.6,127.7c0.7,0.3,1.5-0.1,1.8-0.8c0.3-0.7-0.1-1.5-0.8-1.8c-0.7-0.3-1.5,0.1-1.8,0.8
	C55.6,126.6,55.9,127.4,56.6,127.7z M56.1,128.9c-0.1,0-0.2-0.1-0.3-0.1c0.2,0.1,0.5,0.2,0.7,0.3C56.4,129.1,56.2,129,56.1,128.9z
	 M111.8,2.8c0.7,0.3,1.5,0,1.8-0.7c-0.4-0.2-0.8-0.4-1.2-0.5c-0.4-0.2-0.9-0.3-1.4-0.5C110.8,1.8,111.1,2.6,111.8,2.8z M111.3,4.1
	c-0.7-0.3-1.5,0.1-1.8,0.8s0.1,1.5,0.8,1.8c0.7,0.3,1.5-0.1,1.8-0.8C112.3,5.2,112,4.4,111.3,4.1z M107.9,8.7
	c-0.3,0.7,0.1,1.5,0.8,1.8s1.5-0.1,1.8-0.8c0.3-0.7-0.1-1.5-0.8-1.8C109,7.7,108.2,8,107.9,8.7z M108.2,11.8
	c-0.7-0.3-1.5,0.1-1.8,0.8c-0.3,0.7,0.1,1.5,0.8,1.8c0.7,0.3,1.5-0.1,1.8-0.8C109.2,12.9,108.9,12.1,108.2,11.8z M104.8,16.4
	c-0.3,0.7,0.1,1.5,0.8,1.8c0.7,0.3,1.5-0.1,1.8-0.8c0.3-0.7-0.1-1.5-0.8-1.8C105.9,15.3,105.1,15.7,104.8,16.4z M105.1,19.4
	c-0.7-0.3-1.5,0.1-1.8,0.8c-0.3,0.7,0.1,1.5,0.8,1.8c0.7,0.3,1.5-0.1,1.8-0.8C106.1,20.5,105.8,19.7,105.1,19.4z M101.7,24
	c-0.3,0.7,0.1,1.5,0.8,1.8c0.7,0.3,1.5-0.1,1.8-0.8c0.3-0.7-0.1-1.5-0.8-1.8C102.8,23,102,23.3,101.7,24z M100.2,27.9
	c-0.3,0.7,0.1,1.5,0.8,1.8c0.7,0.3,1.5-0.1,1.8-0.8c0.3-0.7-0.1-1.5-0.8-1.8C101.3,26.8,100.5,27.2,100.2,27.9z M100.4,30.9
	c-0.7-0.3-1.5,0.1-1.8,0.8c-0.3,0.7,0.1,1.5,0.8,1.8c0.7,0.3,1.5-0.1,1.8-0.8C101.5,32,101.1,31.2,100.4,30.9z M98.9,34.8
	c-0.7-0.3-1.5,0.1-1.8,0.8c-0.3,0.7,0.1,1.5,0.8,1.8c0.7,0.3,1.5-0.1,1.8-0.8C99.9,35.9,99.6,35,98.9,34.8z M95.5,39.4
	c-0.3,0.7,0.1,1.5,0.8,1.8c0.7,0.3,1.5-0.1,1.8-0.8s-0.1-1.5-0.8-1.8C96.6,38.3,95.8,38.6,95.5,39.4z M95.8,42.4
	c-0.7-0.3-1.5,0.1-1.8,0.8s0.1,1.5,0.8,1.8c0.7,0.3,1.5-0.1,1.8-0.8S96.5,42.7,95.8,42.4z M94.2,46.3c-0.7-0.3-1.5,0.1-1.8,0.8
	c-0.3,0.7,0.1,1.5,0.8,1.8c0.7,0.3,1.5-0.1,1.8-0.8C95.3,47.3,94.9,46.5,94.2,46.3z M90.8,50.8c-0.3,0.7,0.1,1.5,0.8,1.8
	c0.7,0.3,1.5-0.1,1.8-0.8c0.3-0.7-0.1-1.5-0.8-1.8C91.9,49.8,91.1,50.1,90.8,50.8z M91.1,53.9c-0.7-0.3-1.5,0.1-1.8,0.8
	c-0.3,0.7,0.1,1.5,0.8,1.8c0.7,0.3,1.5-0.1,1.8-0.8C92.1,55,91.8,54.2,91.1,53.9z M87.7,58.5c-0.3,0.7,0.1,1.5,0.8,1.8
	c0.7,0.3,1.5-0.1,1.8-0.8c0.3-0.7-0.1-1.5-0.8-1.8C88.8,57.5,88,57.8,87.7,58.5z M88,61.6c-0.7-0.3-1.5,0.1-1.8,0.8
	c-0.3,0.7,0.1,1.5,0.8,1.8c0.7,0.3,1.5-0.1,1.8-0.8C89,62.7,88.7,61.9,88,61.6z M87.2,67.2c0.3-0.7-0.1-1.5-0.8-1.8
	c-0.7-0.3-1.5,0.1-1.8,0.8c-0.3,0.7,0.1,1.5,0.8,1.8C86.1,68.3,86.9,67.9,87.2,67.2z M83.8,71.8c0.7,0.3,1.5-0.1,1.8-0.8
	c0.3-0.7-0.1-1.5-0.8-1.8c-0.7-0.3-1.5,0.1-1.8,0.8C82.8,70.7,83.1,71.5,83.8,71.8z M84.1,74.9c0.3-0.7-0.1-1.5-0.8-1.8
	s-1.5,0.1-1.8,0.8c-0.3,0.7,0.1,1.5,0.8,1.8C83,75.9,83.8,75.6,84.1,74.9z M80.7,79.5c0.7,0.3,1.5-0.1,1.8-0.8
	c0.3-0.7-0.1-1.5-0.8-1.8c-0.7-0.3-1.5,0.1-1.8,0.8C79.7,78.4,80,79.2,80.7,79.5z M81,82.5c0.3-0.7-0.1-1.5-0.8-1.8
	c-0.7-0.3-1.5,0.1-1.8,0.8s0.1,1.5,0.8,1.8C79.9,83.6,80.7,83.2,81,82.5z M79.4,86.4c0.3-0.7-0.1-1.5-0.8-1.8
	c-0.7-0.3-1.5,0.1-1.8,0.8c-0.3,0.7,0.1,1.5,0.8,1.8C78.3,87.4,79.2,87.1,79.4,86.4z M76.1,91c0.7,0.3,1.5-0.1,1.8-0.8
	c0.3-0.7-0.1-1.5-0.8-1.8c-0.7-0.3-1.5,0.1-1.8,0.8C75,89.9,75.4,90.7,76.1,91z M76.3,94c0.3-0.7-0.1-1.5-0.8-1.8
	c-0.7-0.3-1.5,0.1-1.8,0.8c-0.3,0.7,0.1,1.5,0.8,1.8C75.2,95.1,76,94.7,76.3,94z M73,98.6c0.7,0.3,1.5-0.1,1.8-0.8
	c0.3-0.7-0.1-1.5-0.8-1.8c-0.7-0.3-1.5,0.1-1.8,0.8C71.9,97.5,72.3,98.3,73,98.6z M73.2,101.7c0.3-0.7-0.1-1.5-0.8-1.8
	s-1.5,0.1-1.8,0.8s0.1,1.5,0.8,1.8C72.1,102.7,72.9,102.4,73.2,101.7z M69.9,106.3c0.7,0.3,1.5-0.1,1.8-0.8c0.3-0.7-0.1-1.5-0.8-1.8
	c-0.7-0.3-1.5,0.1-1.8,0.8C68.8,105.2,69.2,106,69.9,106.3z M70.1,109.4c0.3-0.7-0.1-1.5-0.8-1.8c-0.7-0.3-1.5,0.1-1.8,0.8
	c-0.3,0.7,0.1,1.5,0.8,1.8S69.8,110.1,70.1,109.4z M66.8,113.9c0.7,0.3,1.5-0.1,1.8-0.8c0.3-0.7-0.1-1.5-0.8-1.8
	c-0.7-0.3-1.5,0.1-1.8,0.8C65.7,112.9,66.1,113.7,66.8,113.9z M65.2,117.8c0.7,0.3,1.5-0.1,1.8-0.8c0.3-0.7-0.1-1.5-0.8-1.8
	c-0.7-0.3-1.5,0.1-1.8,0.8S64.5,117.5,65.2,117.8z M63.7,121.6c0.7,0.3,1.5-0.1,1.8-0.8c0.3-0.7-0.1-1.5-0.8-1.8
	c-0.7-0.3-1.5,0.1-1.8,0.8C62.6,120.5,62.9,121.3,63.7,121.6z M63.9,124.7c0.3-0.7-0.1-1.5-0.8-1.8c-0.7-0.3-1.5,0.1-1.8,0.8
	c-0.3,0.7,0.1,1.5,0.8,1.8C62.8,125.7,63.6,125.4,63.9,124.7z M60.6,129.3c0.7,0.3,1.5-0.1,1.8-0.8c0.3-0.7-0.1-1.5-0.8-1.8
	c-0.7-0.3-1.5,0.1-1.8,0.8C59.5,128.2,59.8,129,60.6,129.3z M60,130.5c-0.2-0.1-0.4-0.1-0.6-0.1c0.4,0.2,0.8,0.3,1.1,0.5
	C60.4,130.8,60.3,130.6,60,130.5z M115.7,4.4c0.4,0.2,0.8,0.1,1.1-0.1c-0.6-0.5-1.3-1-2-1.5C114.8,3.5,115.1,4.2,115.7,4.4z
	 M115.2,5.7c-0.7-0.3-1.5,0.1-1.8,0.8c-0.3,0.7,0.1,1.5,0.8,1.8c0.7,0.3,1.5-0.1,1.8-0.8C116.3,6.8,115.9,6,115.2,5.7z M111.9,10.3
	c-0.3,0.7,0.1,1.5,0.8,1.8c0.7,0.3,1.5-0.1,1.8-0.8c0.3-0.7-0.1-1.5-0.8-1.8C113,9.3,112.2,9.6,111.9,10.3z M112.1,13.4
	c-0.7-0.3-1.5,0.1-1.8,0.8c-0.3,0.7,0.1,1.5,0.8,1.8c0.7,0.3,1.5-0.1,1.8-0.8S112.8,13.7,112.1,13.4z M108.8,18
	c-0.3,0.7,0.1,1.5,0.8,1.8c0.7,0.3,1.5-0.1,1.8-0.8c0.3-0.7-0.1-1.5-0.8-1.8C109.9,16.9,109.1,17.3,108.8,18z M109,21
	c-0.7-0.3-1.5,0.1-1.8,0.8c-0.3,0.7,0.1,1.5,0.8,1.8c0.7,0.3,1.5-0.1,1.8-0.8C110.1,22.1,109.7,21.3,109,21z M105.7,25.6
	c-0.3,0.7,0.1,1.5,0.8,1.8c0.7,0.3,1.5-0.1,1.8-0.8c0.3-0.7-0.1-1.5-0.8-1.8C106.8,24.6,105.9,24.9,105.7,25.6z M105.9,28.7
	c-0.7-0.3-1.5,0.1-1.8,0.8c-0.3,0.7,0.1,1.5,0.8,1.8c0.7,0.3,1.5-0.1,1.8-0.8C107,29.8,106.6,29,105.9,28.7z M102.6,33.3
	c-0.3,0.7,0.1,1.5,0.8,1.8s1.5-0.1,1.8-0.8c0.3-0.7-0.1-1.5-0.8-1.8C103.7,32.2,102.8,32.6,102.6,33.3z M101,37.1
	c-0.3,0.7,0.1,1.5,0.8,1.8c0.7,0.3,1.5-0.1,1.8-0.8c0.3-0.7-0.1-1.5-0.8-1.8C102.1,36.1,101.3,36.4,101,37.1z M101.3,40.2
	c-0.7-0.3-1.5,0.1-1.8,0.8c-0.3,0.7,0.1,1.5,0.8,1.8c0.7,0.3,1.5-0.1,1.8-0.8C102.3,41.3,102,40.5,101.3,40.2z M99.7,44
	c-0.7-0.3-1.5,0.1-1.8,0.8c-0.3,0.7,0.1,1.5,0.8,1.8c0.7,0.3,1.5-0.1,1.8-0.8C100.8,45.1,100.4,44.3,99.7,44z M96.3,48.6
	c-0.3,0.7,0.1,1.5,0.8,1.8c0.7,0.3,1.5-0.1,1.8-0.8s-0.1-1.5-0.8-1.8C97.4,47.6,96.6,47.9,96.3,48.6z M96.6,51.7
	c-0.7-0.3-1.5,0.1-1.8,0.8s0.1,1.5,0.8,1.8c0.7,0.3,1.5-0.1,1.8-0.8C97.6,52.8,97.3,52,96.6,51.7z M95,55.5
	c-0.7-0.3-1.5,0.1-1.8,0.8C93,57,93.3,57.8,94,58.1c0.7,0.3,1.5-0.1,1.8-0.8C96.1,56.6,95.8,55.8,95,55.5z M91.7,60.1
	c-0.3,0.7,0.1,1.5,0.8,1.8c0.7,0.3,1.5-0.1,1.8-0.8c0.3-0.7-0.1-1.5-0.8-1.8C92.8,59.1,92,59.4,91.7,60.1z M91.9,63.2
	c-0.7-0.3-1.5,0.1-1.8,0.8s0.1,1.5,0.8,1.8c0.7,0.3,1.5-0.1,1.8-0.8C93,64.3,92.6,63.5,91.9,63.2z M88.6,67.8
	c-0.3,0.7,0.1,1.5,0.8,1.8c0.7,0.3,1.5-0.1,1.8-0.8c0.3-0.7-0.1-1.5-0.8-1.8S88.9,67.1,88.6,67.8z M87.8,73.4
	c0.7,0.3,1.5-0.1,1.8-0.8c0.3-0.7-0.1-1.5-0.8-1.8c-0.7-0.3-1.5,0.1-1.8,0.8C86.7,72.3,87.1,73.1,87.8,73.4z M88,76.5
	c0.3-0.7-0.1-1.5-0.8-1.8c-0.7-0.3-1.5,0.1-1.8,0.8c-0.3,0.7,0.1,1.5,0.8,1.8S87.8,77.2,88,76.5z M84.7,81.1
	c0.7,0.3,1.5-0.1,1.8-0.8c0.3-0.7-0.1-1.5-0.8-1.8c-0.7-0.3-1.5,0.1-1.8,0.8C83.6,80,84,80.8,84.7,81.1z M84.9,84.1
	c0.3-0.7-0.1-1.5-0.8-1.8c-0.7-0.3-1.5,0.1-1.8,0.8s0.1,1.5,0.8,1.8C83.8,85.2,84.6,84.8,84.9,84.1z M81.6,88.7
	c0.7,0.3,1.5-0.1,1.8-0.8c0.3-0.7-0.1-1.5-0.8-1.8c-0.7-0.3-1.5,0.1-1.8,0.8C80.5,87.6,80.9,88.4,81.6,88.7z M81.8,91.8
	c0.3-0.7-0.1-1.5-0.8-1.8c-0.7-0.3-1.5,0.1-1.8,0.8c-0.3,0.7,0.1,1.5,0.8,1.8C80.7,92.8,81.5,92.5,81.8,91.8z M80.3,95.6
	c0.3-0.7-0.1-1.5-0.8-1.8c-0.7-0.3-1.5,0.1-1.8,0.8c-0.3,0.7,0.1,1.5,0.8,1.8C79.2,96.7,80,96.3,80.3,95.6z M76.9,100.2
	c0.7,0.3,1.5-0.1,1.8-0.8c0.3-0.7-0.1-1.5-0.8-1.8c-0.7-0.3-1.5,0.1-1.8,0.8C75.9,99.1,76.2,99.9,76.9,100.2z M77.2,103.3
	c0.3-0.7-0.1-1.5-0.8-1.8c-0.7-0.3-1.5,0.1-1.8,0.8c-0.3,0.7,0.1,1.5,0.8,1.8C76.1,104.3,76.9,104,77.2,103.3z M73.8,107.9
	c0.7,0.3,1.5-0.1,1.8-0.8s-0.1-1.5-0.8-1.8c-0.7-0.3-1.5,0.1-1.8,0.8C72.8,106.8,73.1,107.6,73.8,107.9z M74.1,111
	c0.3-0.7-0.1-1.5-0.8-1.8c-0.7-0.3-1.5,0.1-1.8,0.8s0.1,1.5,0.8,1.8C73,112,73.8,111.7,74.1,111z M70.7,115.5
	c0.7,0.3,1.5-0.1,1.8-0.8c0.3-0.7-0.1-1.5-0.8-1.8c-0.7-0.3-1.5,0.1-1.8,0.8C69.7,114.5,70,115.3,70.7,115.5z M71,118.6
	c0.3-0.7-0.1-1.5-0.8-1.8c-0.7-0.3-1.5,0.1-1.8,0.8c-0.3,0.7,0.1,1.5,0.8,1.8S70.7,119.3,71,118.6z M67.6,123.2
	c0.7,0.3,1.5-0.1,1.8-0.8c0.3-0.7-0.1-1.5-0.8-1.8c-0.7-0.3-1.5,0.1-1.8,0.8C66.6,122.1,66.9,122.9,67.6,123.2z M66,127
	c0.7,0.3,1.5-0.1,1.8-0.8c0.3-0.7-0.1-1.5-0.8-1.8c-0.7-0.3-1.5,0.1-1.8,0.8C65,125.9,65.3,126.8,66,127z M64.5,130.9
	c0.7,0.3,1.5-0.1,1.8-0.8c0.3-0.7-0.1-1.5-0.8-1.8c-0.7-0.3-1.5,0.1-1.8,0.8C63.4,129.8,63.8,130.6,64.5,130.9z M64,132.1
	c-0.2-0.1-0.4-0.1-0.6-0.1c0.3,0.1,0.7,0.3,1,0.4C64.3,132.3,64.2,132.2,64,132.1z M117.4,8.1c-0.3,0.7,0.1,1.5,0.8,1.8
	c0.7,0.3,1.5-0.1,1.8-0.8s-0.1-1.5-0.8-1.8C118.5,7,117.7,7.4,117.4,8.1z M115.8,11.9c-0.3,0.7,0.1,1.5,0.8,1.8
	c0.7,0.3,1.5-0.1,1.8-0.8c0.3-0.7-0.1-1.5-0.8-1.8C116.9,10.9,116.1,11.2,115.8,11.9z M116.1,15c-0.7-0.3-1.5,0.1-1.8,0.8
	c-0.3,0.7,0.1,1.5,0.8,1.8c0.7,0.3,1.5-0.1,1.8-0.8C117.1,16.1,116.8,15.3,116.1,15z M112.7,19.6c-0.3,0.7,0.1,1.5,0.8,1.8
	c0.7,0.3,1.5-0.1,1.8-0.8c0.3-0.7-0.1-1.5-0.8-1.8C113.8,18.5,113,18.9,112.7,19.6z M113,22.6c-0.7-0.3-1.5,0.1-1.8,0.8
	c-0.3,0.7,0.1,1.5,0.8,1.8c0.7,0.3,1.5-0.1,1.8-0.8C114,23.7,113.7,22.9,113,22.6z M109.6,27.2c-0.3,0.7,0.1,1.5,0.8,1.8
	c0.7,0.3,1.5-0.1,1.8-0.8c0.3-0.7-0.1-1.5-0.8-1.8C110.7,26.2,109.9,26.5,109.6,27.2z M109.9,30.3c-0.7-0.3-1.5,0.1-1.8,0.8
	c-0.3,0.7,0.1,1.5,0.8,1.8c0.7,0.3,1.5-0.1,1.8-0.8C110.9,31.4,110.6,30.6,109.9,30.3z M106.5,34.9c-0.3,0.7,0.1,1.5,0.8,1.8
	c0.7,0.3,1.5-0.1,1.8-0.8c0.3-0.7-0.1-1.5-0.8-1.8C107.6,33.8,106.8,34.2,106.5,34.9z M106.8,38c-0.7-0.3-1.5,0.1-1.8,0.8
	c-0.3,0.7,0.1,1.5,0.8,1.8c0.7,0.3,1.5-0.1,1.8-0.8C107.8,39.1,107.5,38.2,106.8,38z M103.4,42.6c-0.3,0.7,0.1,1.5,0.8,1.8
	s1.5-0.1,1.8-0.8c0.3-0.7-0.1-1.5-0.8-1.8C104.5,41.5,103.7,41.8,103.4,42.6z M101.8,46.4c-0.3,0.7,0.1,1.5,0.8,1.8
	c0.7,0.3,1.5-0.1,1.8-0.8c0.3-0.7-0.1-1.5-0.8-1.8C102.9,45.3,102.1,45.7,101.8,46.4z M102.1,49.4c-0.7-0.3-1.5,0.1-1.8,0.8
	c-0.3,0.7,0.1,1.5,0.8,1.8c0.7,0.3,1.5-0.1,1.8-0.8C103.1,50.5,102.8,49.7,102.1,49.4z M100.5,53.3C99.8,53,99,53.3,98.7,54
	c-0.3,0.7,0.1,1.5,0.8,1.8c0.7,0.3,1.5-0.1,1.8-0.8S101.2,53.6,100.5,53.3z M97.2,57.9c-0.3,0.7,0.1,1.5,0.8,1.8
	c0.7,0.3,1.5-0.1,1.8-0.8s-0.1-1.5-0.8-1.8C98.3,56.8,97.5,57.2,97.2,57.9z M97.4,60.9c-0.7-0.3-1.5,0.1-1.8,0.8
	c-0.3,0.7,0.1,1.5,0.8,1.8c0.7,0.3,1.5-0.1,1.8-0.8C98.5,62,98.1,61.2,97.4,60.9z M95.9,64.8c-0.7-0.3-1.5,0.1-1.8,0.8
	s0.1,1.5,0.8,1.8c0.7,0.3,1.5-0.1,1.8-0.8C96.9,65.9,96.6,65.1,95.9,64.8z M92.5,69.4c-0.3,0.7,0.1,1.5,0.8,1.8
	c0.7,0.3,1.5-0.1,1.8-0.8c0.3-0.7-0.1-1.5-0.8-1.8C93.6,68.3,92.8,68.7,92.5,69.4z M92.8,72.4c-0.7-0.3-1.5,0.1-1.8,0.8
	c-0.3,0.7,0.1,1.5,0.8,1.8c0.7,0.3,1.5-0.1,1.8-0.8C93.8,73.5,93.5,72.7,92.8,72.4z M92,78.1c0.3-0.7-0.1-1.5-0.8-1.8
	c-0.7-0.3-1.5,0.1-1.8,0.8c-0.3,0.7,0.1,1.5,0.8,1.8C90.9,79.1,91.7,78.8,92,78.1z M88.6,82.7c0.7,0.3,1.5-0.1,1.8-0.8
	s-0.1-1.5-0.8-1.8c-0.7-0.3-1.5,0.1-1.8,0.8C87.6,81.6,87.9,82.4,88.6,82.7z M88.9,85.7c0.3-0.7-0.1-1.5-0.8-1.8
	c-0.7-0.3-1.5,0.1-1.8,0.8c-0.3,0.7,0.1,1.5,0.8,1.8C87.8,86.8,88.6,86.4,88.9,85.7z M85.5,90.3c0.7,0.3,1.5-0.1,1.8-0.8
	s-0.1-1.5-0.8-1.8c-0.7-0.3-1.5,0.1-1.8,0.8C84.5,89.2,84.8,90,85.5,90.3z M85.8,93.4c0.3-0.7-0.1-1.5-0.8-1.8
	c-0.7-0.3-1.5,0.1-1.8,0.8s0.1,1.5,0.8,1.8C84.7,94.4,85.5,94.1,85.8,93.4z M82.4,98c0.7,0.3,1.5-0.1,1.8-0.8
	c0.3-0.7-0.1-1.5-0.8-1.8s-1.5,0.1-1.8,0.8C81.4,96.9,81.7,97.7,82.4,98z M82.7,101.1c0.3-0.7-0.1-1.5-0.8-1.8
	c-0.7-0.3-1.5,0.1-1.8,0.8c-0.3,0.7,0.1,1.5,0.8,1.8C81.6,102.1,82.4,101.8,82.7,101.1z M81.1,104.9c0.3-0.7-0.1-1.5-0.8-1.8
	c-0.7-0.3-1.5,0.1-1.8,0.8c-0.3,0.7,0.1,1.5,0.8,1.8C80,105.9,80.8,105.6,81.1,104.9z M77.8,109.5c0.7,0.3,1.5-0.1,1.8-0.8
	c0.3-0.7-0.1-1.5-0.8-1.8c-0.7-0.3-1.5,0.1-1.8,0.8C76.7,108.4,77,109.2,77.8,109.5z M78,112.6c0.3-0.7-0.1-1.5-0.8-1.8
	s-1.5,0.1-1.8,0.8c-0.3,0.7,0.1,1.5,0.8,1.8C76.9,113.6,77.7,113.3,78,112.6z M74.7,117.1c0.7,0.3,1.5-0.1,1.8-0.8
	c0.3-0.7-0.1-1.5-0.8-1.8c-0.7-0.3-1.5,0.1-1.8,0.8C73.6,116,73.9,116.9,74.7,117.1z M74.9,120.2c0.3-0.7-0.1-1.5-0.8-1.8
	c-0.7-0.3-1.5,0.1-1.8,0.8c-0.3,0.7,0.1,1.5,0.8,1.8C73.8,121.3,74.6,120.9,74.9,120.2z M71.5,124.8c0.7,0.3,1.5-0.1,1.8-0.8
	c0.3-0.7-0.1-1.5-0.8-1.8c-0.7-0.3-1.5,0.1-1.8,0.8C70.5,123.7,70.8,124.5,71.5,124.8z M71.8,127.9c0.3-0.7-0.1-1.5-0.8-1.8
	c-0.7-0.3-1.5,0.1-1.8,0.8c-0.3,0.7,0.1,1.5,0.8,1.8C70.7,128.9,71.5,128.6,71.8,127.9z M68.4,132.5c0.7,0.3,1.5-0.1,1.8-0.8
	c0.3-0.7-0.1-1.5-0.8-1.8c-0.7-0.3-1.5,0.1-1.8,0.8S67.7,132.2,68.4,132.5z M122.1,11.5c0.2,0.1,0.4,0.1,0.6,0.1
	c-0.4-0.7-0.8-1.4-1.2-2.1c0,0.1-0.1,0.1-0.1,0.2C121,10.4,121.4,11.2,122.1,11.5z M121.6,12.7c-0.7-0.3-1.5,0.1-1.8,0.8
	c-0.3,0.7,0.1,1.5,0.8,1.8c0.7,0.3,1.5-0.1,1.8-0.8C122.6,13.8,122.3,13,121.6,12.7z M120,16.6c-0.7-0.3-1.5,0.1-1.8,0.8
	c-0.3,0.7,0.1,1.5,0.8,1.8c0.7,0.3,1.5-0.1,1.8-0.8S120.7,16.9,120,16.6z M116.7,21.2c-0.3,0.7,0.1,1.5,0.8,1.8
	c0.7,0.3,1.5-0.1,1.8-0.8c0.3-0.7-0.1-1.5-0.8-1.8C117.8,20.1,116.9,20.5,116.7,21.2z M116.9,24.2c-0.7-0.3-1.5,0.1-1.8,0.8
	s0.1,1.5,0.8,1.8c0.7,0.3,1.5-0.1,1.8-0.8C118,25.3,117.6,24.5,116.9,24.2z M113.6,28.8c-0.3,0.7,0.1,1.5,0.8,1.8
	c0.7,0.3,1.5-0.1,1.8-0.8c0.3-0.7-0.1-1.5-0.8-1.8C114.6,27.8,113.8,28.1,113.6,28.8z M113.8,31.9c-0.7-0.3-1.5,0.1-1.8,0.8
	c-0.3,0.7,0.1,1.5,0.8,1.8c0.7,0.3,1.5-0.1,1.8-0.8C114.9,33,114.5,32.2,113.8,31.9z M110.4,36.5c-0.3,0.7,0.1,1.5,0.8,1.8
	c0.7,0.3,1.5-0.1,1.8-0.8s-0.1-1.5-0.8-1.8C111.5,35.4,110.7,35.8,110.4,36.5z M110.7,39.6c-0.7-0.3-1.5,0.1-1.8,0.8
	s0.1,1.5,0.8,1.8c0.7,0.3,1.5-0.1,1.8-0.8C111.7,40.6,111.4,39.8,110.7,39.6z M107.3,44.1c-0.3,0.7,0.1,1.5,0.8,1.8
	c0.7,0.3,1.5-0.1,1.8-0.8c0.3-0.7-0.1-1.5-0.8-1.8C108.4,43.1,107.6,43.4,107.3,44.1z M107.6,47.2c-0.7-0.3-1.5,0.1-1.8,0.8
	c-0.3,0.7,0.1,1.5,0.8,1.8c0.7,0.3,1.5-0.1,1.8-0.8C108.6,48.3,108.3,47.5,107.6,47.2z M104.2,51.8c-0.3,0.7,0.1,1.5,0.8,1.8
	c0.7,0.3,1.5-0.1,1.8-0.8c0.3-0.7-0.1-1.5-0.8-1.8C105.3,50.8,104.5,51.1,104.2,51.8z M102.7,55.6c-0.3,0.7,0.1,1.5,0.8,1.8
	c0.7,0.3,1.5-0.1,1.8-0.8c0.3-0.7-0.1-1.5-0.8-1.8C103.8,54.6,103,54.9,102.7,55.6z M102.9,58.7c-0.7-0.3-1.5,0.1-1.8,0.8
	c-0.3,0.7,0.1,1.5,0.8,1.8c0.7,0.3,1.5-0.1,1.8-0.8S103.6,59,102.9,58.7z M101.4,62.5c-0.7-0.3-1.5,0.1-1.8,0.8s0.1,1.5,0.8,1.8
	c0.7,0.3,1.5-0.1,1.8-0.8C102.4,63.6,102.1,62.8,101.4,62.5z M98,67.1c-0.3,0.7,0.1,1.5,0.8,1.8s1.5-0.1,1.8-0.8
	c0.3-0.7-0.1-1.5-0.8-1.8C99.1,66.1,98.3,66.4,98,67.1z M98.3,70.2c-0.7-0.3-1.5,0.1-1.8,0.8c-0.3,0.7,0.1,1.5,0.8,1.8
	c0.7,0.3,1.5-0.1,1.8-0.8C99.3,71.3,99,70.5,98.3,70.2z M97.5,75.8c0.3-0.7-0.1-1.5-0.8-1.8c-0.7-0.3-1.5,0.1-1.8,0.8
	s0.1,1.5,0.8,1.8C96.4,76.9,97.2,76.5,97.5,75.8z M95.9,79.7c0.3-0.7-0.1-1.5-0.8-1.8s-1.5,0.1-1.8,0.8c-0.3,0.7,0.1,1.5,0.8,1.8
	C94.8,80.7,95.6,80.4,95.9,79.7z M92.6,84.3c0.7,0.3,1.5-0.1,1.8-0.8c0.3-0.7-0.1-1.5-0.8-1.8c-0.7-0.3-1.5,0.1-1.8,0.8
	C91.5,83.2,91.9,84,92.6,84.3z M92.8,87.3c0.3-0.7-0.1-1.5-0.8-1.8c-0.7-0.3-1.5,0.1-1.8,0.8C90,87,90.3,87.8,91,88.1
	C91.7,88.4,92.5,88,92.8,87.3z M89.5,91.9c0.7,0.3,1.5-0.1,1.8-0.8c0.3-0.7-0.1-1.5-0.8-1.8c-0.7-0.3-1.5,0.1-1.8,0.8
	C88.4,90.8,88.8,91.6,89.5,91.9z M89.7,95c0.3-0.7-0.1-1.5-0.8-1.8c-0.7-0.3-1.5,0.1-1.8,0.8c-0.3,0.7,0.1,1.5,0.8,1.8
	C88.6,96,89.4,95.7,89.7,95z M86.4,99.6c0.7,0.3,1.5-0.1,1.8-0.8s-0.1-1.5-0.8-1.8c-0.7-0.3-1.5,0.1-1.8,0.8
	C85.3,98.5,85.7,99.3,86.4,99.6z M86.6,102.7c0.3-0.7-0.1-1.5-0.8-1.8c-0.7-0.3-1.5,0.1-1.8,0.8s0.1,1.5,0.8,1.8
	C85.5,103.7,86.3,103.4,86.6,102.7z M83.3,107.2c0.7,0.3,1.5-0.1,1.8-0.8c0.3-0.7-0.1-1.5-0.8-1.8c-0.7-0.3-1.5,0.1-1.8,0.8
	C82.2,106.2,82.5,107,83.3,107.2z M83.5,110.3c0.3-0.7-0.1-1.5-0.8-1.8c-0.7-0.3-1.5,0.1-1.8,0.8c-0.3,0.7,0.1,1.5,0.8,1.8
	C82.4,111.4,83.2,111,83.5,110.3z M82,114.1c0.3-0.7-0.1-1.5-0.8-1.8c-0.7-0.3-1.5,0.1-1.8,0.8c-0.3,0.7,0.1,1.5,0.8,1.8
	C80.9,115.2,81.7,114.9,82,114.1z M78.6,118.7c0.7,0.3,1.5-0.1,1.8-0.8c0.3-0.7-0.1-1.5-0.8-1.8c-0.7-0.3-1.5,0.1-1.8,0.8
	C77.5,117.6,77.9,118.5,78.6,118.7z M78.8,121.8c0.3-0.7-0.1-1.5-0.8-1.8s-1.5,0.1-1.8,0.8c-0.3,0.7,0.1,1.5,0.8,1.8
	C77.8,122.9,78.6,122.5,78.8,121.8z M75.5,126.4c0.7,0.3,1.5-0.1,1.8-0.8c0.3-0.7-0.1-1.5-0.8-1.8c-0.7-0.3-1.5,0.1-1.8,0.8
	C74.4,125.3,74.8,126.1,75.5,126.4z M75.7,129.5c0.3-0.7-0.1-1.5-0.8-1.8c-0.7-0.3-1.5,0.1-1.8,0.8c-0.3,0.7,0.1,1.5,0.8,1.8
	C74.6,130.5,75.5,130.2,75.7,129.5z M72.4,134.1c0.7,0.3,1.5-0.1,1.8-0.8c0.3-0.7-0.1-1.5-0.8-1.8c-0.7-0.3-1.5,0.1-1.8,0.8
	S71.7,133.8,72.4,134.1z M123.7,15.1c-0.3,0.7,0.1,1.5,0.8,1.8c0.3,0.1,0.7,0.1,1,0c-0.4-0.8-0.8-1.6-1.2-2.4
	C124,14.6,123.8,14.8,123.7,15.1z M122.2,18.9c-0.3,0.7,0.1,1.5,0.8,1.8c0.7,0.3,1.5-0.1,1.8-0.8c0.3-0.7-0.1-1.5-0.8-1.8
	C123.2,17.9,122.4,18.2,122.2,18.9z M122.4,22c-0.7-0.3-1.5,0.1-1.8,0.8c-0.3,0.7,0.1,1.5,0.8,1.8c0.7,0.3,1.5-0.1,1.8-0.8
	C123.5,23.1,123.1,22.3,122.4,22z M120.9,25.8c-0.7-0.3-1.5,0.1-1.8,0.8c-0.3,0.7,0.1,1.5,0.8,1.8c0.7,0.3,1.5-0.1,1.8-0.8
	C121.9,26.9,121.6,26.1,120.9,25.8z M117.5,30.4c-0.3,0.7,0.1,1.5,0.8,1.8c0.7,0.3,1.5-0.1,1.8-0.8s-0.1-1.5-0.8-1.8
	C118.6,29.4,117.8,29.7,117.5,30.4z M117.7,33.5c-0.7-0.3-1.5,0.1-1.8,0.8c-0.3,0.7,0.1,1.5,0.8,1.8c0.7,0.3,1.5-0.1,1.8-0.8
	C118.8,34.6,118.5,33.8,117.7,33.5z M114.4,38.1c-0.3,0.7,0.1,1.5,0.8,1.8c0.7,0.3,1.5-0.1,1.8-0.8c0.3-0.7-0.1-1.5-0.8-1.8
	C115.5,37,114.7,37.4,114.4,38.1z M114.6,41.2c-0.7-0.3-1.5,0.1-1.8,0.8c-0.3,0.7,0.1,1.5,0.8,1.8c0.7,0.3,1.5-0.1,1.8-0.8
	C115.7,42.2,115.3,41.4,114.6,41.2z M111.3,45.7c-0.3,0.7,0.1,1.5,0.8,1.8c0.7,0.3,1.5-0.1,1.8-0.8s-0.1-1.5-0.8-1.8
	C112.4,44.7,111.6,45,111.3,45.7z M111.5,48.8c-0.7-0.3-1.5,0.1-1.8,0.8c-0.3,0.7,0.1,1.5,0.8,1.8c0.7,0.3,1.5-0.1,1.8-0.8
	C112.6,49.9,112.2,49.1,111.5,48.8z M108.2,53.4c-0.3,0.7,0.1,1.5,0.8,1.8c0.7,0.3,1.5-0.1,1.8-0.8c0.3-0.7-0.1-1.5-0.8-1.8
	C109.3,52.4,108.5,52.7,108.2,53.4z M108.4,56.5c-0.7-0.3-1.5,0.1-1.8,0.8s0.1,1.5,0.8,1.8c0.7,0.3,1.5-0.1,1.8-0.8
	C109.5,57.6,109.1,56.8,108.4,56.5z M105.1,61.1c-0.3,0.7,0.1,1.5,0.8,1.8c0.7,0.3,1.5-0.1,1.8-0.8c0.3-0.7-0.1-1.5-0.8-1.8
	C106.2,60,105.4,60.4,105.1,61.1z M103.5,64.9c-0.3,0.7,0.1,1.5,0.8,1.8c0.7,0.3,1.5-0.1,1.8-0.8c0.3-0.7-0.1-1.5-0.8-1.8
	C104.6,63.9,103.8,64.2,103.5,64.9z M103.8,68c-0.7-0.3-1.5,0.1-1.8,0.8c-0.3,0.7,0.1,1.5,0.8,1.8c0.7,0.3,1.5-0.1,1.8-0.8
	C104.8,69.1,104.5,68.3,103.8,68z M101.2,74.4c0.7,0.3,1.5-0.1,1.8-0.8c0.3-0.7-0.1-1.5-0.8-1.8c-0.7-0.3-1.5,0.1-1.8,0.8
	C100.1,73.3,100.5,74.1,101.2,74.4z M98.9,76.4c-0.3,0.7,0.1,1.5,0.8,1.8c0.7,0.3,1.5-0.1,1.8-0.8c0.3-0.7-0.1-1.5-0.8-1.8
	C100,75.3,99.1,75.7,98.9,76.4z M98.1,82c0.7,0.3,1.5-0.1,1.8-0.8s-0.1-1.5-0.8-1.8c-0.7-0.3-1.5,0.1-1.8,0.8
	C97,80.9,97.4,81.7,98.1,82z M98.3,85.1c0.3-0.7-0.1-1.5-0.8-1.8c-0.7-0.3-1.5,0.1-1.8,0.8s0.1,1.5,0.8,1.8
	C97.2,86.1,98,85.8,98.3,85.1z M96.8,88.9c0.3-0.7-0.1-1.5-0.8-1.8s-1.5,0.1-1.8,0.8c-0.3,0.7,0.1,1.5,0.8,1.8
	C95.7,90,96.5,89.6,96.8,88.9z M93.4,93.5c0.7,0.3,1.5-0.1,1.8-0.8c0.3-0.7-0.1-1.5-0.8-1.8c-0.7-0.3-1.5,0.1-1.8,0.8
	C92.4,92.4,92.7,93.2,93.4,93.5z M93.7,96.6c0.3-0.7-0.1-1.5-0.8-1.8c-0.7-0.3-1.5,0.1-1.8,0.8c-0.3,0.7,0.1,1.5,0.8,1.8
	S93.4,97.3,93.7,96.6z M90.3,101.2c0.7,0.3,1.5-0.1,1.8-0.8c0.3-0.7-0.1-1.5-0.8-1.8c-0.7-0.3-1.5,0.1-1.8,0.8
	C89.3,100.1,89.6,100.9,90.3,101.2z M90.6,104.3c0.3-0.7-0.1-1.5-0.8-1.8c-0.7-0.3-1.5,0.1-1.8,0.8c-0.3,0.7,0.1,1.5,0.8,1.8
	C89.5,105.3,90.3,105,90.6,104.3z M87.2,108.8c0.7,0.3,1.5-0.1,1.8-0.8c0.3-0.7-0.1-1.5-0.8-1.8c-0.7-0.3-1.5,0.1-1.8,0.8
	C86.1,107.8,86.5,108.6,87.2,108.8z M87.4,111.9c0.3-0.7-0.1-1.5-0.8-1.8c-0.7-0.3-1.5,0.1-1.8,0.8c-0.3,0.7,0.1,1.5,0.8,1.8
	C86.4,113,87.2,112.6,87.4,111.9z M84.1,116.5c0.7,0.3,1.5-0.1,1.8-0.8s-0.1-1.5-0.8-1.8c-0.7-0.3-1.5,0.1-1.8,0.8
	C83,115.4,83.4,116.2,84.1,116.5z M84.3,119.6c0.3-0.7-0.1-1.5-0.8-1.8s-1.5,0.1-1.8,0.8c-0.3,0.7,0.1,1.5,0.8,1.8
	C83.2,120.6,84.1,120.3,84.3,119.6z M82.8,123.4c0.3-0.7-0.1-1.5-0.8-1.8c-0.7-0.3-1.5,0.1-1.8,0.8c-0.3,0.7,0.1,1.5,0.8,1.8
	C81.7,124.5,82.5,124.1,82.8,123.4z M79.4,128c0.7,0.3,1.5-0.1,1.8-0.8c0.3-0.7-0.1-1.5-0.8-1.8c-0.7-0.3-1.5,0.1-1.8,0.8
	C78.4,126.9,78.7,127.7,79.4,128z M79.7,131.1c0.3-0.7-0.1-1.5-0.8-1.8s-1.5,0.1-1.8,0.8c-0.3,0.7,0.1,1.5,0.8,1.8
	C78.6,132.1,79.4,131.8,79.7,131.1z M76.3,135.7c0.7,0.3,1.5-0.1,1.8-0.8c0.3-0.7-0.1-1.5-0.8-1.8c-0.7-0.3-1.5,0.1-1.8,0.8
	C75.3,134.6,75.6,135.4,76.3,135.7z M126.1,20.5c-0.3,0.7,0.1,1.5,0.8,1.8c0.4,0.2,0.8,0.1,1.1,0c-0.4-0.8-0.8-1.7-1.2-2.5
	C126.5,19.9,126.2,20.2,126.1,20.5z M124.5,24.4c-0.3,0.7,0.1,1.5,0.8,1.8c0.7,0.3,1.5-0.1,1.8-0.8c0.3-0.7-0.1-1.5-0.8-1.8
	C125.6,23.3,124.8,23.7,124.5,24.4z M123,28.2c-0.3,0.7,0.1,1.5,0.8,1.8c0.7,0.3,1.5-0.1,1.8-0.8c0.3-0.7-0.1-1.5-0.8-1.8
	C124.1,27.1,123.3,27.5,123,28.2z M123.2,31.3c-0.7-0.3-1.5,0.1-1.8,0.8c-0.3,0.7,0.1,1.5,0.8,1.8s1.5-0.1,1.8-0.8
	C124.3,32.4,124,31.5,123.2,31.3z M121.7,35.1c-0.7-0.3-1.5,0.1-1.8,0.8c-0.3,0.7,0.1,1.5,0.8,1.8c0.7,0.3,1.5-0.1,1.8-0.8
	C122.7,36.2,122.4,35.4,121.7,35.1z M118.3,39.7c-0.3,0.7,0.1,1.5,0.8,1.8c0.7,0.3,1.5-0.1,1.8-0.8c0.3-0.7-0.1-1.5-0.8-1.8
	C119.4,38.6,118.6,39,118.3,39.7z M118.6,42.8c-0.7-0.3-1.5,0.1-1.8,0.8c-0.3,0.7,0.1,1.5,0.8,1.8c0.7,0.3,1.5-0.1,1.8-0.8
	C119.6,43.8,119.3,43,118.6,42.8z M115.2,47.3c-0.3,0.7,0.1,1.5,0.8,1.8c0.7,0.3,1.5-0.1,1.8-0.8c0.3-0.7-0.1-1.5-0.8-1.8
	C116.3,46.3,115.5,46.6,115.2,47.3z M115.5,50.4c-0.7-0.3-1.5,0.1-1.8,0.8c-0.3,0.7,0.1,1.5,0.8,1.8c0.7,0.3,1.5-0.1,1.8-0.8
	S116.2,50.7,115.5,50.4z M112.1,55c-0.3,0.7,0.1,1.5,0.8,1.8c0.7,0.3,1.5-0.1,1.8-0.8c0.3-0.7-0.1-1.5-0.8-1.8
	C113.2,54,112.4,54.3,112.1,55z M112.4,58.1c-0.7-0.3-1.5,0.1-1.8,0.8c-0.3,0.7,0.1,1.5,0.8,1.8c0.7,0.3,1.5-0.1,1.8-0.8
	C113.4,59.2,113.1,58.4,112.4,58.1z M109,62.7c-0.3,0.7,0.1,1.5,0.8,1.8s1.5-0.1,1.8-0.8c0.3-0.7-0.1-1.5-0.8-1.8
	C110.1,61.6,109.3,62,109,62.7z M108.2,68.3c0.7,0.3,1.5-0.1,1.8-0.8c0.3-0.7-0.1-1.5-0.8-1.8c-0.7-0.3-1.5,0.1-1.8,0.8
	S107.5,68,108.2,68.3z M105.9,70.3c-0.3,0.7,0.1,1.5,0.8,1.8c0.7,0.3,1.5-0.1,1.8-0.8c0.3-0.7-0.1-1.5-0.8-1.8
	C107,69.3,106.2,69.6,105.9,70.3z M104.4,74.2c-0.3,0.7,0.1,1.5,0.8,1.8c0.7,0.3,1.5-0.1,1.8-0.8c0.3-0.7-0.1-1.5-0.8-1.8
	C105.5,73.1,104.6,73.5,104.4,74.2z M105.4,79c0.3-0.7-0.1-1.5-0.8-1.8c-0.7-0.3-1.5,0.1-1.8,0.8c-0.3,0.7,0.1,1.5,0.8,1.8
	S105.1,79.7,105.4,79z M103.8,82.9c0.3-0.7-0.1-1.5-0.8-1.8c-0.7-0.3-1.5,0.1-1.8,0.8c-0.3,0.7,0.1,1.5,0.8,1.8
	C102.7,83.9,103.5,83.6,103.8,82.9z M100.5,87.5c0.7,0.3,1.5-0.1,1.8-0.8c0.3-0.7-0.1-1.5-0.8-1.8s-1.5,0.1-1.8,0.8
	S99.8,87.2,100.5,87.5z M98.9,91.3c0.7,0.3,1.5-0.1,1.8-0.8c0.3-0.7-0.1-1.5-0.8-1.8c-0.7-0.3-1.5,0.1-1.8,0.8
	C97.9,90.2,98.2,91,98.9,91.3z M99.2,94.4c0.3-0.7-0.1-1.5-0.8-1.8c-0.7-0.3-1.5,0.1-1.8,0.8c-0.3,0.7,0.1,1.5,0.8,1.8
	C98.1,95.4,98.9,95.1,99.2,94.4z M97.6,98.2c0.3-0.7-0.1-1.5-0.8-1.8c-0.7-0.3-1.5,0.1-1.8,0.8c-0.3,0.7,0.1,1.5,0.8,1.8
	C96.5,99.2,97.3,98.9,97.6,98.2z M94.2,102.8c0.7,0.3,1.5-0.1,1.8-0.8c0.3-0.7-0.1-1.5-0.8-1.8c-0.7-0.3-1.5,0.1-1.8,0.8
	C93.2,101.7,93.5,102.5,94.2,102.8z M94.5,105.9c0.3-0.7-0.1-1.5-0.8-1.8c-0.7-0.3-1.5,0.1-1.8,0.8c-0.3,0.7,0.1,1.5,0.8,1.8
	C93.4,106.9,94.2,106.6,94.5,105.9z M91.1,110.4c0.7,0.3,1.5-0.1,1.8-0.8s-0.1-1.5-0.8-1.8c-0.7-0.3-1.5,0.1-1.8,0.8
	C90.1,109.4,90.4,110.2,91.1,110.4z M91.4,113.5c0.3-0.7-0.1-1.5-0.8-1.8c-0.7-0.3-1.5,0.1-1.8,0.8c-0.3,0.7,0.1,1.5,0.8,1.8
	C90.3,114.6,91.1,114.2,91.4,113.5z M88,118.1c0.7,0.3,1.5-0.1,1.8-0.8c0.3-0.7-0.1-1.5-0.8-1.8c-0.7-0.3-1.5,0.1-1.8,0.8
	C87,117,87.3,117.8,88,118.1z M88.3,121.2c0.3-0.7-0.1-1.5-0.8-1.8c-0.7-0.3-1.5,0.1-1.8,0.8c-0.3,0.7,0.1,1.5,0.8,1.8
	S88,121.9,88.3,121.2z M84.9,125.8c0.7,0.3,1.5-0.1,1.8-0.8s-0.1-1.5-0.8-1.8c-0.7-0.3-1.5,0.1-1.8,0.8
	C83.9,124.7,84.2,125.5,84.9,125.8z M85.2,128.8c0.3-0.7-0.1-1.5-0.8-1.8c-0.7-0.3-1.5,0.1-1.8,0.8c-0.3,0.7,0.1,1.5,0.8,1.8
	C84.1,129.9,84.9,129.5,85.2,128.8z M83.6,132.7c0.3-0.7-0.1-1.5-0.8-1.8c-0.7-0.3-1.5,0.1-1.8,0.8c-0.3,0.7,0.1,1.5,0.8,1.8
	C82.5,133.7,83.3,133.4,83.6,132.7z M80.3,137.3c0.7,0.3,1.5-0.1,1.8-0.8s-0.1-1.5-0.8-1.8c-0.7-0.3-1.5,0.1-1.8,0.8
	C79.2,136.2,79.6,137,80.3,137.3z M128.5,26c-0.3,0.7,0.1,1.5,0.8,1.8c0.3,0.1,0.7,0.1,1,0c-0.3-0.9-0.7-1.7-1-2.6
	C128.9,25.4,128.6,25.6,128.5,26z M126.9,29.8c-0.3,0.7,0.1,1.5,0.8,1.8s1.5-0.1,1.8-0.8c0.3-0.7-0.1-1.5-0.8-1.8
	C128,28.7,127.2,29.1,126.9,29.8z M125.4,33.6c-0.3,0.7,0.1,1.5,0.8,1.8c0.7,0.3,1.5-0.1,1.8-0.8s-0.1-1.5-0.8-1.8
	C126.5,32.6,125.7,32.9,125.4,33.6z M123.8,37.5c-0.3,0.7,0.1,1.5,0.8,1.8c0.7,0.3,1.5-0.1,1.8-0.8c0.3-0.7-0.1-1.5-0.8-1.8
	C124.9,36.4,124.1,36.7,123.8,37.5z M124.1,40.5c-0.7-0.3-1.5,0.1-1.8,0.8c-0.3,0.7,0.1,1.5,0.8,1.8c0.7,0.3,1.5-0.1,1.8-0.8
	C125.1,41.6,124.8,40.8,124.1,40.5z M122.5,44.4c-0.7-0.3-1.5,0.1-1.8,0.8c-0.3,0.7,0.1,1.5,0.8,1.8s1.5-0.1,1.8-0.8
	C123.6,45.4,123.2,44.6,122.5,44.4z M119.2,48.9c-0.3,0.7,0.1,1.5,0.8,1.8c0.7,0.3,1.5-0.1,1.8-0.8c0.3-0.7-0.1-1.5-0.8-1.8
	C120.3,47.9,119.5,48.2,119.2,48.9z M119.4,52c-0.7-0.3-1.5,0.1-1.8,0.8c-0.3,0.7,0.1,1.5,0.8,1.8c0.7,0.3,1.5-0.1,1.8-0.8
	C120.5,53.1,120.1,52.3,119.4,52z M116.1,56.6c-0.3,0.7,0.1,1.5,0.8,1.8c0.7,0.3,1.5-0.1,1.8-0.8c0.3-0.7-0.1-1.5-0.8-1.8
	C117.2,55.6,116.4,55.9,116.1,56.6z M115.3,62.2c0.7,0.3,1.5-0.1,1.8-0.8c0.3-0.7-0.1-1.5-0.8-1.8c-0.7-0.3-1.5,0.1-1.8,0.8
	C114.2,61.1,114.6,62,115.3,62.2z M113,64.3c-0.3,0.7,0.1,1.5,0.8,1.8c0.7,0.3,1.5-0.1,1.8-0.8c0.3-0.7-0.1-1.5-0.8-1.8
	C114.1,63.2,113.2,63.6,113,64.3z M114,69.1c0.3-0.7-0.1-1.5-0.8-1.8s-1.5,0.1-1.8,0.8c-0.3,0.7,0.1,1.5,0.8,1.8
	C112.9,70.2,113.7,69.8,114,69.1z M112.4,73c0.3-0.7-0.1-1.5-0.8-1.8c-0.7-0.3-1.5,0.1-1.8,0.8c-0.3,0.7,0.1,1.5,0.8,1.8
	C111.3,74,112.1,73.7,112.4,73z M110.9,76.8c0.3-0.7-0.1-1.5-0.8-1.8c-0.7-0.3-1.5,0.1-1.8,0.8c-0.3,0.7,0.1,1.5,0.8,1.8
	C109.8,77.9,110.6,77.5,110.9,76.8z M109.3,80.6c0.3-0.7-0.1-1.5-0.8-1.8c-0.7-0.3-1.5,0.1-1.8,0.8c-0.3,0.7,0.1,1.5,0.8,1.8
	C108.2,81.7,109,81.3,109.3,80.6z M107.8,84.5c0.3-0.7-0.1-1.5-0.8-1.8c-0.7-0.3-1.5,0.1-1.8,0.8c-0.3,0.7,0.1,1.5,0.8,1.8
	C106.7,85.5,107.5,85.2,107.8,84.5z M106.2,88.3c0.3-0.7-0.1-1.5-0.8-1.8c-0.7-0.3-1.5,0.1-1.8,0.8c-0.3,0.7,0.1,1.5,0.8,1.8
	S105.9,89,106.2,88.3z M104.7,92.1c0.3-0.7-0.1-1.5-0.8-1.8c-0.7-0.3-1.5,0.1-1.8,0.8c-0.3,0.7,0.1,1.5,0.8,1.8
	C103.6,93.2,104.4,92.8,104.7,92.1z M101.3,96.7c0.7,0.3,1.5-0.1,1.8-0.8c0.3-0.7-0.1-1.5-0.8-1.8c-0.7-0.3-1.5,0.1-1.8,0.8
	S100.6,96.4,101.3,96.7z M99.7,100.6c0.7,0.3,1.5-0.1,1.8-0.8c0.3-0.7-0.1-1.5-0.8-1.8S99.3,98,99,98.7
	C98.7,99.5,99,100.3,99.7,100.6z M100,103.6c0.3-0.7-0.1-1.5-0.8-1.8c-0.7-0.3-1.5,0.1-1.8,0.8c-0.3,0.7,0.1,1.5,0.8,1.8
	C98.9,104.7,99.7,104.3,100,103.6z M98.4,107.5c0.3-0.7-0.1-1.5-0.8-1.8c-0.7-0.3-1.5,0.1-1.8,0.8c-0.3,0.7,0.1,1.5,0.8,1.8
	C97.3,108.5,98.2,108.2,98.4,107.5z M95.1,112c0.7,0.3,1.5-0.1,1.8-0.8c0.3-0.7-0.1-1.5-0.8-1.8s-1.5,0.1-1.8,0.8
	C94,111,94.4,111.8,95.1,112z M95.3,115.1c0.3-0.7-0.1-1.5-0.8-1.8c-0.7-0.3-1.5,0.1-1.8,0.8c-0.3,0.7,0.1,1.5,0.8,1.8
	C94.2,116.2,95.1,115.8,95.3,115.1z M92,119.7c0.7,0.3,1.5-0.1,1.8-0.8s-0.1-1.5-0.8-1.8c-0.7-0.3-1.5,0.1-1.8,0.8
	C90.9,118.6,91.3,119.4,92,119.7z M92.2,122.8c0.3-0.7-0.1-1.5-0.8-1.8c-0.7-0.3-1.5,0.1-1.8,0.8c-0.3,0.7,0.1,1.5,0.8,1.8
	C91.1,123.8,91.9,123.5,92.2,122.8z M88.9,127.4c0.7,0.3,1.5-0.1,1.8-0.8c0.3-0.7-0.1-1.5-0.8-1.8c-0.7-0.3-1.5,0.1-1.8,0.8
	C87.8,126.3,88.2,127.1,88.9,127.4z M89.1,130.4c0.3-0.7-0.1-1.5-0.8-1.8c-0.7-0.3-1.5,0.1-1.8,0.8s0.1,1.5,0.8,1.8
	C88,131.5,88.8,131.1,89.1,130.4z M85.8,135c0.7,0.3,1.5-0.1,1.8-0.8c0.3-0.7-0.1-1.5-0.8-1.8c-0.7-0.3-1.5,0.1-1.8,0.8
	S85.1,134.7,85.8,135z M85.3,136.3c-0.7-0.3-1.5,0.1-1.8,0.8c-0.1,0.3-0.1,0.7,0,1c0.8,0.2,1.5,0.3,2.3,0.5c0.1-0.1,0.2-0.3,0.3-0.5
	C86.3,137.4,86,136.6,85.3,136.3z M130.9,31.4c-0.3,0.7,0.1,1.5,0.8,1.8c0.2,0.1,0.5,0.1,0.7,0.1c-0.3-0.8-0.6-1.7-0.9-2.5
	C131.2,30.9,131,31.1,130.9,31.4z M129.3,35.2c-0.3,0.7,0.1,1.5,0.8,1.8c0.7,0.3,1.5-0.1,1.8-0.8c0.3-0.7-0.1-1.5-0.8-1.8
	S129.6,34.5,129.3,35.2z M127.8,39.1c-0.3,0.7,0.1,1.5,0.8,1.8c0.7,0.3,1.5-0.1,1.8-0.8c0.3-0.7-0.1-1.5-0.8-1.8
	C128.9,38,128.1,38.3,127.8,39.1z M126.2,42.9c-0.3,0.7,0.1,1.5,0.8,1.8c0.7,0.3,1.5-0.1,1.8-0.8c0.3-0.7-0.1-1.5-0.8-1.8
	C127.3,41.8,126.5,42.2,126.2,42.9z M124.7,46.7c-0.3,0.7,0.1,1.5,0.8,1.8c0.7,0.3,1.5-0.1,1.8-0.8c0.3-0.7-0.1-1.5-0.8-1.8
	C125.8,45.7,125,46,124.7,46.7z M124.9,49.8c-0.7-0.3-1.5,0.1-1.8,0.8c-0.3,0.7,0.1,1.5,0.8,1.8c0.7,0.3,1.5-0.1,1.8-0.8
	C126,50.9,125.6,50.1,124.9,49.8z M122.3,56.2c0.7,0.3,1.5-0.1,1.8-0.8c0.3-0.7-0.1-1.5-0.8-1.8c-0.7-0.3-1.5,0.1-1.8,0.8
	C121.3,55.1,121.6,55.9,122.3,56.2z M120,58.2c-0.3,0.7,0.1,1.5,0.8,1.8c0.7,0.3,1.5-0.1,1.8-0.8c0.3-0.7-0.1-1.5-0.8-1.8
	C121.1,57.2,120.3,57.5,120,58.2z M121,63.1c0.3-0.7-0.1-1.5-0.8-1.8c-0.7-0.3-1.5,0.1-1.8,0.8c-0.3,0.7,0.1,1.5,0.8,1.8
	C119.9,64.1,120.7,63.8,121,63.1z M119.5,66.9c0.3-0.7-0.1-1.5-0.8-1.8c-0.7-0.3-1.5,0.1-1.8,0.8c-0.3,0.7,0.1,1.5,0.8,1.8
	C118.4,68,119.2,67.6,119.5,66.9z M117.9,70.7c0.3-0.7-0.1-1.5-0.8-1.8c-0.7-0.3-1.5,0.1-1.8,0.8c-0.3,0.7,0.1,1.5,0.8,1.8
	C116.8,71.8,117.6,71.4,117.9,70.7z M116.4,74.6c0.3-0.7-0.1-1.5-0.8-1.8c-0.7-0.3-1.5,0.1-1.8,0.8c-0.3,0.7,0.1,1.5,0.8,1.8
	C115.3,75.6,116.1,75.3,116.4,74.6z M114.8,78.4c0.3-0.7-0.1-1.5-0.8-1.8s-1.5,0.1-1.8,0.8s0.1,1.5,0.8,1.8
	C113.7,79.5,114.5,79.1,114.8,78.4z M113.3,82.2c0.3-0.7-0.1-1.5-0.8-1.8c-0.7-0.3-1.5,0.1-1.8,0.8c-0.3,0.7,0.1,1.5,0.8,1.8
	C112.2,83.3,113,82.9,113.3,82.2z M111.7,86.1c0.3-0.7-0.1-1.5-0.8-1.8c-0.7-0.3-1.5,0.1-1.8,0.8c-0.3,0.7,0.1,1.5,0.8,1.8
	C110.6,87.1,111.4,86.8,111.7,86.1z M110.2,89.9c0.3-0.7-0.1-1.5-0.8-1.8c-0.7-0.3-1.5,0.1-1.8,0.8c-0.3,0.7,0.1,1.5,0.8,1.8
	C109.1,90.9,109.9,90.6,110.2,89.9z M108.6,93.7c0.3-0.7-0.1-1.5-0.8-1.8c-0.7-0.3-1.5,0.1-1.8,0.8c-0.3,0.7,0.1,1.5,0.8,1.8
	C107.5,94.8,108.3,94.4,108.6,93.7z M107,97.6c0.3-0.7-0.1-1.5-0.8-1.8c-0.7-0.3-1.5,0.1-1.8,0.8c-0.3,0.7,0.1,1.5,0.8,1.8
	S106.8,98.3,107,97.6z M105.5,101.4c0.3-0.7-0.1-1.5-0.8-1.8c-0.7-0.3-1.5,0.1-1.8,0.8c-0.3,0.7,0.1,1.5,0.8,1.8
	C104.4,102.4,105.2,102.1,105.5,101.4z M102.1,106c0.7,0.3,1.5-0.1,1.8-0.8c0.3-0.7-0.1-1.5-0.8-1.8c-0.7-0.3-1.5,0.1-1.8,0.8
	S101.4,105.7,102.1,106z M100.6,109.8c0.7,0.3,1.5-0.1,1.8-0.8c0.3-0.7-0.1-1.5-0.8-1.8s-1.5,0.1-1.8,0.8
	C99.5,108.7,99.9,109.5,100.6,109.8z M100.8,112.9c0.3-0.7-0.1-1.5-0.8-1.8c-0.7-0.3-1.5,0.1-1.8,0.8s0.1,1.5,0.8,1.8
	C99.7,113.9,100.5,113.6,100.8,112.9z M99.3,116.7c0.3-0.7-0.1-1.5-0.8-1.8c-0.7-0.3-1.5,0.1-1.8,0.8c-0.3,0.7,0.1,1.5,0.8,1.8
	C98.2,117.8,99,117.4,99.3,116.7z M95.9,121.3c0.7,0.3,1.5-0.1,1.8-0.8c0.3-0.7-0.1-1.5-0.8-1.8c-0.7-0.3-1.5,0.1-1.8,0.8
	C94.9,120.2,95.2,121,95.9,121.3z M96.2,124.4c0.3-0.7-0.1-1.5-0.8-1.8c-0.7-0.3-1.5,0.1-1.8,0.8c-0.3,0.7,0.1,1.5,0.8,1.8
	C95.1,125.4,95.9,125.1,96.2,124.4z M92.8,129c0.7,0.3,1.5-0.1,1.8-0.8c0.3-0.7-0.1-1.5-0.8-1.8c-0.7-0.3-1.5,0.1-1.8,0.8
	C91.8,127.9,92.1,128.7,92.8,129z M93.1,132c0.3-0.7-0.1-1.5-0.8-1.8c-0.7-0.3-1.5,0.1-1.8,0.8c-0.3,0.7,0.1,1.5,0.8,1.8
	C92,133.1,92.8,132.7,93.1,132z M89.7,136.6c0.7,0.3,1.5-0.1,1.8-0.8c0.3-0.7-0.1-1.5-0.8-1.8c-0.7-0.3-1.5,0.1-1.8,0.8
	C88.7,135.5,89,136.3,89.7,136.6z M89.2,137.9c-0.7-0.3-1.5,0.1-1.8,0.8c0,0.1,0,0.1-0.1,0.2c0.9,0.2,1.8,0.3,2.7,0.5
	C90.1,138.8,89.8,138.1,89.2,137.9z M134,38.6C134,38.6,134.1,38.6,134,38.6c-0.2-0.7-0.4-1.4-0.6-2.1c-0.1,0.1-0.1,0.2-0.1,0.3
	C133,37.5,133.3,38.3,134,38.6z M131.7,40.6c-0.3,0.7,0.1,1.5,0.8,1.8s1.5-0.1,1.8-0.8c0.3-0.7-0.1-1.5-0.8-1.8
	C132.8,39.6,132,39.9,131.7,40.6z M130.2,44.5c-0.3,0.7,0.1,1.5,0.8,1.8c0.7,0.3,1.5-0.1,1.8-0.8c0.3-0.7-0.1-1.5-0.8-1.8
	S130.5,43.8,130.2,44.5z M128.6,48.3c-0.3,0.7,0.1,1.5,0.8,1.8c0.7,0.3,1.5-0.1,1.8-0.8c0.3-0.7-0.1-1.5-0.8-1.8
	C129.7,47.3,128.9,47.6,128.6,48.3z M127.1,52.1c-0.3,0.7,0.1,1.5,0.8,1.8c0.7,0.3,1.5-0.1,1.8-0.8c0.3-0.7-0.1-1.5-0.8-1.8
	C128.2,51.1,127.3,51.4,127.1,52.1z M125.5,56c-0.3,0.7,0.1,1.5,0.8,1.8c0.7,0.3,1.5-0.1,1.8-0.8c0.3-0.7-0.1-1.5-0.8-1.8
	C126.6,54.9,125.8,55.3,125.5,56z M126.5,60.8c0.3-0.7-0.1-1.5-0.8-1.8c-0.7-0.3-1.5,0.1-1.8,0.8s0.1,1.5,0.8,1.8
	C125.4,61.9,126.2,61.6,126.5,60.8z M125,64.7c0.3-0.7-0.1-1.5-0.8-1.8s-1.5,0.1-1.8,0.8c-0.3,0.7,0.1,1.5,0.8,1.8
	C123.9,65.7,124.7,65.4,125,64.7z M123.4,68.5c0.3-0.7-0.1-1.5-0.8-1.8c-0.7-0.3-1.5,0.1-1.8,0.8c-0.3,0.7,0.1,1.5,0.8,1.8
	C122.3,69.6,123.1,69.2,123.4,68.5z M121.9,72.3c0.3-0.7-0.1-1.5-0.8-1.8c-0.7-0.3-1.5,0.1-1.8,0.8c-0.3,0.7,0.1,1.5,0.8,1.8
	C120.8,73.4,121.6,73,121.9,72.3z M120.3,76.2c0.3-0.7-0.1-1.5-0.8-1.8c-0.7-0.3-1.5,0.1-1.8,0.8c-0.3,0.7,0.1,1.5,0.8,1.8
	C119.2,77.2,120,76.9,120.3,76.2z M118.8,80c0.3-0.7-0.1-1.5-0.8-1.8c-0.7-0.3-1.5,0.1-1.8,0.8c-0.3,0.7,0.1,1.5,0.8,1.8
	C117.7,81.1,118.5,80.7,118.8,80z M117.2,83.8c0.3-0.7-0.1-1.5-0.8-1.8c-0.7-0.3-1.5,0.1-1.8,0.8c-0.3,0.7,0.1,1.5,0.8,1.8
	C116.1,84.9,116.9,84.5,117.2,83.8z M115.7,87.7c0.3-0.7-0.1-1.5-0.8-1.8c-0.7-0.3-1.5,0.1-1.8,0.8s0.1,1.5,0.8,1.8
	C114.6,88.7,115.4,88.4,115.7,87.7z M114.1,91.5c0.3-0.7-0.1-1.5-0.8-1.8c-0.7-0.3-1.5,0.1-1.8,0.8c-0.3,0.7,0.1,1.5,0.8,1.8
	C113,92.5,113.8,92.2,114.1,91.5z M112.5,95.3c0.3-0.7-0.1-1.5-0.8-1.8c-0.7-0.3-1.5,0.1-1.8,0.8s0.1,1.5,0.8,1.8
	C111.4,96.4,112.3,96,112.5,95.3z M111,99.2c0.3-0.7-0.1-1.5-0.8-1.8c-0.7-0.3-1.5,0.1-1.8,0.8c-0.3,0.7,0.1,1.5,0.8,1.8
	C109.9,100.2,110.7,99.9,111,99.2z M109.4,103c0.3-0.7-0.1-1.5-0.8-1.8c-0.7-0.3-1.5,0.1-1.8,0.8c-0.3,0.7,0.1,1.5,0.8,1.8
	C108.3,104,109.2,103.7,109.4,103z M107.9,106.8c0.3-0.7-0.1-1.5-0.8-1.8c-0.7-0.3-1.5,0.1-1.8,0.8c-0.3,0.7,0.1,1.5,0.8,1.8
	C106.8,107.9,107.6,107.5,107.9,106.8z M106.3,110.6c0.3-0.7-0.1-1.5-0.8-1.8c-0.7-0.3-1.5,0.1-1.8,0.8c-0.3,0.7,0.1,1.5,0.8,1.8
	S106,111.4,106.3,110.6z M103,115.2c0.7,0.3,1.5-0.1,1.8-0.8c0.3-0.7-0.1-1.5-0.8-1.8c-0.7-0.3-1.5,0.1-1.8,0.8
	C101.9,114.1,102.3,115,103,115.2z M101.4,119.1c0.7,0.3,1.5-0.1,1.8-0.8s-0.1-1.5-0.8-1.8s-1.5,0.1-1.8,0.8
	C100.4,118,100.7,118.8,101.4,119.1z M101.7,122.1c0.3-0.7-0.1-1.5-0.8-1.8s-1.5,0.1-1.8,0.8c-0.3,0.7,0.1,1.5,0.8,1.8
	C100.6,123.2,101.4,122.9,101.7,122.1z M100.1,126c0.3-0.7-0.1-1.5-0.8-1.8c-0.7-0.3-1.5,0.1-1.8,0.8c-0.3,0.7,0.1,1.5,0.8,1.8
	C99,127,99.8,126.7,100.1,126z M96.8,130.6c0.7,0.3,1.5-0.1,1.8-0.8s-0.1-1.5-0.8-1.8c-0.7-0.3-1.5,0.1-1.8,0.8
	C95.7,129.5,96.1,130.3,96.8,130.6z M97,133.6c0.3-0.7-0.1-1.5-0.8-1.8s-1.5,0.1-1.8,0.8c-0.3,0.7,0.1,1.5,0.8,1.8
	C95.9,134.7,96.7,134.3,97,133.6z M93.7,138.2c0.7,0.3,1.5-0.1,1.8-0.8c0.3-0.7-0.1-1.5-0.8-1.8c-0.7-0.3-1.5,0.1-1.8,0.8
	C92.6,137.1,93,137.9,93.7,138.2z M93.1,139.5c-0.5-0.2-1-0.1-1.3,0.2c0.6,0.1,1.3,0.2,1.9,0.3C93.6,139.8,93.4,139.6,93.1,139.5z
	 M136.5,47.5c-0.2-0.7-0.3-1.4-0.5-2.1c0,0,0,0,0,0c-0.7-0.3-1.5,0.1-1.8,0.8c-0.3,0.7,0.1,1.5,0.8,1.8
	C135.5,48.1,136.1,47.9,136.5,47.5z M135.1,51c0.3-0.7-0.1-1.5-0.8-1.8c-0.7-0.3-1.5,0.1-1.8,0.8c-0.3,0.7,0.1,1.5,0.8,1.8
	C134,52,134.8,51.7,135.1,51z M133.6,54.8c0.3-0.7-0.1-1.5-0.8-1.8s-1.5,0.1-1.8,0.8c-0.3,0.7,0.1,1.5,0.8,1.8
	C132.5,55.8,133.3,55.5,133.6,54.8z M132,58.6c0.3-0.7-0.1-1.5-0.8-1.8c-0.7-0.3-1.5,0.1-1.8,0.8c-0.3,0.7,0.1,1.5,0.8,1.8
	C130.9,59.7,131.7,59.3,132,58.6z M130.5,62.4c0.3-0.7-0.1-1.5-0.8-1.8c-0.7-0.3-1.5,0.1-1.8,0.8c-0.3,0.7,0.1,1.5,0.8,1.8
	C129.4,63.5,130.2,63.2,130.5,62.4z M128.9,66.3c0.3-0.7-0.1-1.5-0.8-1.8s-1.5,0.1-1.8,0.8c-0.3,0.7,0.1,1.5,0.8,1.8
	S128.6,67,128.9,66.3z M127.4,70.1c0.3-0.7-0.1-1.5-0.8-1.8c-0.7-0.3-1.5,0.1-1.8,0.8s0.1,1.5,0.8,1.8
	C126.3,71.2,127.1,70.8,127.4,70.1z M125.8,73.9c0.3-0.7-0.1-1.5-0.8-1.8c-0.7-0.3-1.5,0.1-1.8,0.8c-0.3,0.7,0.1,1.5,0.8,1.8
	C124.7,75,125.5,74.6,125.8,73.9z M124.3,77.8c0.3-0.7-0.1-1.5-0.8-1.8c-0.7-0.3-1.5,0.1-1.8,0.8c-0.3,0.7,0.1,1.5,0.8,1.8
	C123.2,78.8,124,78.5,124.3,77.8z M122.7,81.6c0.3-0.7-0.1-1.5-0.8-1.8c-0.7-0.3-1.5,0.1-1.8,0.8c-0.3,0.7,0.1,1.5,0.8,1.8
	C121.6,82.6,122.4,82.3,122.7,81.6z M121.1,85.4c0.3-0.7-0.1-1.5-0.8-1.8c-0.7-0.3-1.5,0.1-1.8,0.8c-0.3,0.7,0.1,1.5,0.8,1.8
	C120.1,86.5,120.9,86.1,121.1,85.4z M119.6,89.3c0.3-0.7-0.1-1.5-0.8-1.8s-1.5,0.1-1.8,0.8c-0.3,0.7,0.1,1.5,0.8,1.8
	C118.5,90.3,119.3,90,119.6,89.3z M118,93.1c0.3-0.7-0.1-1.5-0.8-1.8c-0.7-0.3-1.5,0.1-1.8,0.8c-0.3,0.7,0.1,1.5,0.8,1.8
	C116.9,94.1,117.8,93.8,118,93.1z M116.5,96.9c0.3-0.7-0.1-1.5-0.8-1.8c-0.7-0.3-1.5,0.1-1.8,0.8c-0.3,0.7,0.1,1.5,0.8,1.8
	C115.4,98,116.2,97.6,116.5,96.9z M114.9,100.8c0.3-0.7-0.1-1.5-0.8-1.8s-1.5,0.1-1.8,0.8c-0.3,0.7,0.1,1.5,0.8,1.8
	C113.8,101.8,114.6,101.5,114.9,100.8z M113.4,104.6c0.3-0.7-0.1-1.5-0.8-1.8c-0.7-0.3-1.5,0.1-1.8,0.8c-0.3,0.7,0.1,1.5,0.8,1.8
	C112.3,105.6,113.1,105.3,113.4,104.6z M111.8,108.4c0.3-0.7-0.1-1.5-0.8-1.8c-0.7-0.3-1.5,0.1-1.8,0.8c-0.3,0.7,0.1,1.5,0.8,1.8
	S111.5,109.1,111.8,108.4z M110.3,112.2c0.3-0.7-0.1-1.5-0.8-1.8c-0.7-0.3-1.5,0.1-1.8,0.8c-0.3,0.7,0.1,1.5,0.8,1.8
	C109.2,113.3,110,113,110.3,112.2z M108.7,116.1c0.3-0.7-0.1-1.5-0.8-1.8c-0.7-0.3-1.5,0.1-1.8,0.8c-0.3,0.7,0.1,1.5,0.8,1.8
	C107.6,117.1,108.4,116.8,108.7,116.1z M106.4,118.1c-0.7-0.3-1.5,0.1-1.8,0.8c-0.3,0.7,0.1,1.5,0.8,1.8s1.5-0.1,1.8-0.8
	C107.5,119.2,107.1,118.4,106.4,118.1z M103.8,124.5c0.7,0.3,1.5-0.1,1.8-0.8c0.3-0.7-0.1-1.5-0.8-1.8c-0.7-0.3-1.5,0.1-1.8,0.8
	C102.8,123.4,103.1,124.2,103.8,124.5z M102.3,128.3c0.7,0.3,1.5-0.1,1.8-0.8s-0.1-1.5-0.8-1.8c-0.7-0.3-1.5,0.1-1.8,0.8
	C101.2,127.2,101.6,128,102.3,128.3z M102.5,131.4c0.3-0.7-0.1-1.5-0.8-1.8c-0.7-0.3-1.5,0.1-1.8,0.8c-0.3,0.7,0.1,1.5,0.8,1.8
	C101.4,132.5,102.2,132.1,102.5,131.4z M101,135.2c0.3-0.7-0.1-1.5-0.8-1.8c-0.7-0.3-1.5,0.1-1.8,0.8c-0.3,0.7,0.1,1.5,0.8,1.8
	C99.9,136.3,100.7,135.9,101,135.2z M97.6,139.8c0.7,0.3,1.5-0.1,1.8-0.8s-0.1-1.5-0.8-1.8c-0.7-0.3-1.5,0.1-1.8,0.8
	C96.6,138.7,96.9,139.5,97.6,139.8z M137.3,53.3c0.2,0.1,0.3,0.1,0.5,0.1c-0.2-0.9-0.3-1.8-0.5-2.6c-0.3,0.1-0.6,0.4-0.7,0.7
	C136.2,52.2,136.6,53,137.3,53.3z M137.5,56.4c0.3-0.7-0.1-1.5-0.8-1.8s-1.5,0.1-1.8,0.8c-0.3,0.7,0.1,1.5,0.8,1.8
	S137.2,57.1,137.5,56.4z M136,60.2c0.3-0.7-0.1-1.5-0.8-1.8c-0.7-0.3-1.5,0.1-1.8,0.8c-0.3,0.7,0.1,1.5,0.8,1.8
	C134.9,61.3,135.7,60.9,136,60.2z M134.4,64c0.3-0.7-0.1-1.5-0.8-1.8s-1.5,0.1-1.8,0.8c-0.3,0.7,0.1,1.5,0.8,1.8
	S134.1,64.8,134.4,64z M132.9,67.9c0.3-0.7-0.1-1.5-0.8-1.8s-1.5,0.1-1.8,0.8c-0.3,0.7,0.1,1.5,0.8,1.8
	C131.8,68.9,132.6,68.6,132.9,67.9z M131.3,71.7c0.3-0.7-0.1-1.5-0.8-1.8c-0.7-0.3-1.5,0.1-1.8,0.8c-0.3,0.7,0.1,1.5,0.8,1.8
	C130.2,72.8,131,72.4,131.3,71.7z M129.8,75.5c0.3-0.7-0.1-1.5-0.8-1.8c-0.7-0.3-1.5,0.1-1.8,0.8c-0.3,0.7,0.1,1.5,0.8,1.8
	S129.5,76.2,129.8,75.5z M128.2,79.4c0.3-0.7-0.1-1.5-0.8-1.8s-1.5,0.1-1.8,0.8c-0.3,0.7,0.1,1.5,0.8,1.8
	C127.1,80.4,127.9,80.1,128.2,79.4z M126.6,83.2c0.3-0.7-0.1-1.5-0.8-1.8c-0.7-0.3-1.5,0.1-1.8,0.8c-0.3,0.7,0.1,1.5,0.8,1.8
	C125.5,84.2,126.4,83.9,126.6,83.2z M125.1,87c0.3-0.7-0.1-1.5-0.8-1.8c-0.7-0.3-1.5,0.1-1.8,0.8c-0.3,0.7,0.1,1.5,0.8,1.8
	C124,88.1,124.8,87.7,125.1,87z M123.5,90.9c0.3-0.7-0.1-1.5-0.8-1.8c-0.7-0.3-1.5,0.1-1.8,0.8c-0.3,0.7,0.1,1.5,0.8,1.8
	C122.4,91.9,123.3,91.6,123.5,90.9z M122,94.7c0.3-0.7-0.1-1.5-0.8-1.8c-0.7-0.3-1.5,0.1-1.8,0.8c-0.3,0.7,0.1,1.5,0.8,1.8
	C120.9,95.7,121.7,95.4,122,94.7z M120.4,98.5c0.3-0.7-0.1-1.5-0.8-1.8s-1.5,0.1-1.8,0.8s0.1,1.5,0.8,1.8
	C119.3,99.6,120.1,99.2,120.4,98.5z M118.9,102.4c0.3-0.7-0.1-1.5-0.8-1.8c-0.7-0.3-1.5,0.1-1.8,0.8c-0.3,0.7,0.1,1.5,0.8,1.8
	C117.8,103.4,118.6,103.1,118.9,102.4z M117.3,106.2c0.3-0.7-0.1-1.5-0.8-1.8c-0.7-0.3-1.5,0.1-1.8,0.8c-0.3,0.7,0.1,1.5,0.8,1.8
	C116.2,107.2,117,106.9,117.3,106.2z M115.8,110c0.3-0.7-0.1-1.5-0.8-1.8c-0.7-0.3-1.5,0.1-1.8,0.8c-0.3,0.7,0.1,1.5,0.8,1.8
	C114.7,111.1,115.5,110.7,115.8,110z M114.2,113.8c0.3-0.7-0.1-1.5-0.8-1.8c-0.7-0.3-1.5,0.1-1.8,0.8s0.1,1.5,0.8,1.8
	C113.1,114.9,113.9,114.6,114.2,113.8z M112.7,117.7c0.3-0.7-0.1-1.5-0.8-1.8c-0.7-0.3-1.5,0.1-1.8,0.8c-0.3,0.7,0.1,1.5,0.8,1.8
	S112.4,118.4,112.7,117.7z M111.1,121.5c0.3-0.7-0.1-1.5-0.8-1.8c-0.7-0.3-1.5,0.1-1.8,0.8c-0.3,0.7,0.1,1.5,0.8,1.8
	C110,122.6,110.8,122.2,111.1,121.5z M108.8,123.5c-0.7-0.3-1.5,0.1-1.8,0.8c-0.3,0.7,0.1,1.5,0.8,1.8c0.7,0.3,1.5-0.1,1.8-0.8
	C109.8,124.6,109.5,123.8,108.8,123.5z M106.2,129.9c0.7,0.3,1.5-0.1,1.8-0.8c0.3-0.7-0.1-1.5-0.8-1.8c-0.7-0.3-1.5,0.1-1.8,0.8
	C105.2,128.8,105.5,129.6,106.2,129.9z M104.7,133.8c0.7,0.3,1.5-0.1,1.8-0.8s-0.1-1.5-0.8-1.8c-0.7-0.3-1.5,0.1-1.8,0.8
	S103.9,133.5,104.7,133.8z M103.1,137.6c0.7,0.3,1.5-0.1,1.8-0.8s-0.1-1.5-0.8-1.8c-0.7-0.3-1.5,0.1-1.8,0.8
	S102.4,137.3,103.1,137.6z M102.6,138.9c-0.7-0.3-1.5,0.1-1.8,0.8c-0.2,0.4-0.1,0.8,0.1,1.2c0.8,0.1,1.5,0.1,2.3,0.2
	c0.1-0.1,0.1-0.2,0.2-0.3C103.6,140,103.3,139.1,102.6,138.9z M138.1,62.6c0.4,0.1,0.8,0.1,1.1,0c-0.1-0.9-0.2-1.7-0.4-2.6
	c-0.6-0.1-1.3,0.2-1.5,0.8C137.1,61.5,137.4,62.3,138.1,62.6z M138.4,65.6c0.3-0.7-0.1-1.5-0.8-1.8s-1.5,0.1-1.8,0.8
	c-0.3,0.7,0.1,1.5,0.8,1.8S138.1,66.4,138.4,65.6z M136.8,69.5c0.3-0.7-0.1-1.5-0.8-1.8c-0.7-0.3-1.5,0.1-1.8,0.8
	c-0.3,0.7,0.1,1.5,0.8,1.8C135.7,70.5,136.5,70.2,136.8,69.5z M135.2,73.3c0.3-0.7-0.1-1.5-0.8-1.8c-0.7-0.3-1.5,0.1-1.8,0.8
	c-0.3,0.7,0.1,1.5,0.8,1.8C134.2,74.4,135,74,135.2,73.3z M133.7,77.1c0.3-0.7-0.1-1.5-0.8-1.8s-1.5,0.1-1.8,0.8
	c-0.3,0.7,0.1,1.5,0.8,1.8S133.4,77.8,133.7,77.1z M132.1,81c0.3-0.7-0.1-1.5-0.8-1.8c-0.7-0.3-1.5,0.1-1.8,0.8
	c-0.3,0.7,0.1,1.5,0.8,1.8C131,82,131.9,81.7,132.1,81z M130.6,84.8c0.3-0.7-0.1-1.5-0.8-1.8c-0.7-0.3-1.5,0.1-1.8,0.8
	c-0.3,0.7,0.1,1.5,0.8,1.8S130.3,85.5,130.6,84.8z M129,88.6c0.3-0.7-0.1-1.5-0.8-1.8c-0.7-0.3-1.5,0.1-1.8,0.8
	c-0.3,0.7,0.1,1.5,0.8,1.8C127.9,89.7,128.7,89.3,129,88.6z M127.5,92.5c0.3-0.7-0.1-1.5-0.8-1.8c-0.7-0.3-1.5,0.1-1.8,0.8
	c-0.3,0.7,0.1,1.5,0.8,1.8C126.4,93.5,127.2,93.2,127.5,92.5z M125.9,96.3c0.3-0.7-0.1-1.5-0.8-1.8c-0.7-0.3-1.5,0.1-1.8,0.8
	c-0.3,0.7,0.1,1.5,0.8,1.8C124.8,97.3,125.6,97,125.9,96.3z M124.4,100.1c0.3-0.7-0.1-1.5-0.8-1.8c-0.7-0.3-1.5,0.1-1.8,0.8
	c-0.3,0.7,0.1,1.5,0.8,1.8S124.1,100.8,124.4,100.1z M122.8,104c0.3-0.7-0.1-1.5-0.8-1.8c-0.7-0.3-1.5,0.1-1.8,0.8
	c-0.3,0.7,0.1,1.5,0.8,1.8C121.7,105,122.5,104.7,122.8,104z M121.3,107.8c0.3-0.7-0.1-1.5-0.8-1.8c-0.7-0.3-1.5,0.1-1.8,0.8
	s0.1,1.5,0.8,1.8C120.2,108.8,121,108.5,121.3,107.8z M119.7,111.6c0.3-0.7-0.1-1.5-0.8-1.8s-1.5,0.1-1.8,0.8
	c-0.3,0.7,0.1,1.5,0.8,1.8C118.6,112.7,119.4,112.3,119.7,111.6z M118.2,115.4c0.3-0.7-0.1-1.5-0.8-1.8c-0.7-0.3-1.5,0.1-1.8,0.8
	s0.1,1.5,0.8,1.8C117.1,116.5,117.9,116.2,118.2,115.4z M116.6,119.3c0.3-0.7-0.1-1.5-0.8-1.8c-0.7-0.3-1.5,0.1-1.8,0.8
	c-0.3,0.7,0.1,1.5,0.8,1.8C115.5,120.3,116.3,120,116.6,119.3z M115.1,123.1c0.3-0.7-0.1-1.5-0.8-1.8s-1.5,0.1-1.8,0.8
	c-0.3,0.7,0.1,1.5,0.8,1.8C114,124.2,114.8,123.8,115.1,123.1z M113.5,126.9c0.3-0.7-0.1-1.5-0.8-1.8c-0.7-0.3-1.5,0.1-1.8,0.8
	c-0.3,0.7,0.1,1.5,0.8,1.8C112.4,128,113.2,127.6,113.5,126.9z M111.2,129c-0.7-0.3-1.5,0.1-1.8,0.8s0.1,1.5,0.8,1.8
	c0.7,0.3,1.5-0.1,1.8-0.8C112.2,130.1,111.9,129.3,111.2,129z M110.4,134.6c0.3-0.7-0.1-1.5-0.8-1.8c-0.7-0.3-1.5,0.1-1.8,0.8
	c-0.3,0.7,0.1,1.5,0.8,1.8C109.3,135.7,110.1,135.3,110.4,134.6z M107,139.2c0.7,0.3,1.5-0.1,1.8-0.8c0.3-0.7-0.1-1.5-0.8-1.8
	c-0.7-0.3-1.5,0.1-1.8,0.8C106,138.1,106.3,138.9,107,139.2z M106.5,140.5c-0.7-0.3-1.4,0-1.7,0.7c0.8,0.1,1.7,0.1,2.5,0.1
	C107.2,140.9,106.9,140.6,106.5,140.5z M139.6,66.5c0,0.2,0,0.5,0.1,0.7C139.7,67,139.7,66.7,139.6,66.5z M138.9,71.8
	c0.4,0.2,0.8,0.1,1.1,0c-0.1-0.9-0.1-1.7-0.2-2.6c-0.7-0.2-1.4,0.1-1.7,0.8C137.9,70.7,138.2,71.5,138.9,71.8z M139.2,74.9
	c0.3-0.7-0.1-1.5-0.8-1.8s-1.5,0.1-1.8,0.8c-0.3,0.7,0.1,1.5,0.8,1.8S138.9,75.6,139.2,74.9z M137.6,78.7c0.3-0.7-0.1-1.5-0.8-1.8
	c-0.7-0.3-1.5,0.1-1.8,0.8c-0.3,0.7,0.1,1.5,0.8,1.8S137.4,79.4,137.6,78.7z M136.1,82.6c0.3-0.7-0.1-1.5-0.8-1.8
	c-0.7-0.3-1.5,0.1-1.8,0.8c-0.3,0.7,0.1,1.5,0.8,1.8C135,83.6,135.8,83.3,136.1,82.6z M134.5,86.4c0.3-0.7-0.1-1.5-0.8-1.8
	s-1.5,0.1-1.8,0.8c-0.3,0.7,0.1,1.5,0.8,1.8S134.2,87.1,134.5,86.4z M133,90.2c0.3-0.7-0.1-1.5-0.8-1.8s-1.5,0.1-1.8,0.8
	c-0.3,0.7,0.1,1.5,0.8,1.8C131.9,91.3,132.7,90.9,133,90.2z M131.4,94.1c0.3-0.7-0.1-1.5-0.8-1.8c-0.7-0.3-1.5,0.1-1.8,0.8
	c-0.3,0.7,0.1,1.5,0.8,1.8C130.3,95.1,131.1,94.8,131.4,94.1z M129.9,97.9c0.3-0.7-0.1-1.5-0.8-1.8s-1.5,0.1-1.8,0.8
	s0.1,1.5,0.8,1.8C128.8,98.9,129.6,98.6,129.9,97.9z M128.3,101.7c0.3-0.7-0.1-1.5-0.8-1.8c-0.7-0.3-1.5,0.1-1.8,0.8
	c-0.3,0.7,0.1,1.5,0.8,1.8C127.2,102.8,128,102.4,128.3,101.7z M126.8,105.6c0.3-0.7-0.1-1.5-0.8-1.8c-0.7-0.3-1.5,0.1-1.8,0.8
	c-0.3,0.7,0.1,1.5,0.8,1.8C125.7,106.6,126.5,106.3,126.8,105.6z M125.2,109.4c0.3-0.7-0.1-1.5-0.8-1.8s-1.5,0.1-1.8,0.8
	c-0.3,0.7,0.1,1.5,0.8,1.8C124.1,110.4,124.9,110.1,125.2,109.4z M123.7,113.2c0.3-0.7-0.1-1.5-0.8-1.8c-0.7-0.3-1.5,0.1-1.8,0.8
	c-0.3,0.7,0.1,1.5,0.8,1.8C122.6,114.3,123.4,113.9,123.7,113.2z M122.1,117c0.3-0.7-0.1-1.5-0.8-1.8c-0.7-0.3-1.5,0.1-1.8,0.8
	c-0.3,0.7,0.1,1.5,0.8,1.8C121,118.1,121.8,117.8,122.1,117z M120.6,120.9c0.3-0.7-0.1-1.5-0.8-1.8s-1.5,0.1-1.8,0.8
	c-0.3,0.7,0.1,1.5,0.8,1.8C119.5,121.9,120.3,121.6,120.6,120.9z M119,124.7c0.3-0.7-0.1-1.5-0.8-1.8c-0.7-0.3-1.5,0.1-1.8,0.8
	c-0.3,0.7,0.1,1.5,0.8,1.8C117.9,125.8,118.7,125.4,119,124.7z M116.7,126.7c-0.7-0.3-1.5,0.1-1.8,0.8c-0.3,0.7,0.1,1.5,0.8,1.8
	c0.7,0.3,1.5-0.1,1.8-0.8C117.7,127.8,117.4,127,116.7,126.7z M115.9,132.4c0.3-0.7-0.1-1.5-0.8-1.8c-0.7-0.3-1.5,0.1-1.8,0.8
	c-0.3,0.7,0.1,1.5,0.8,1.8C114.8,133.4,115.6,133.1,115.9,132.4z M113.6,134.4c-0.7-0.3-1.5,0.1-1.8,0.8c-0.3,0.7,0.1,1.5,0.8,1.8
	c0.7,0.3,1.5-0.1,1.8-0.8C114.6,135.5,114.3,134.7,113.6,134.4z M112,138.2c-0.7-0.3-1.5,0.1-1.8,0.8c-0.3,0.7,0.1,1.5,0.8,1.8
	c0.7,0.3,1.5-0.1,1.8-0.8C113.1,139.3,112.7,138.5,112,138.2z M139.8,81.1c0.2,0.1,0.4,0.1,0.5,0.1c0-0.9,0-1.8,0-2.8
	c-0.5,0-1.1,0.3-1.3,0.9C138.7,80,139.1,80.8,139.8,81.1z M140,84.2c0.3-0.7-0.1-1.5-0.8-1.8c-0.7-0.3-1.5,0.1-1.8,0.8
	c-0.3,0.7,0.1,1.5,0.8,1.8C138.9,85.2,139.7,84.9,140,84.2z M138.5,88c0.3-0.7-0.1-1.5-0.8-1.8c-0.7-0.3-1.5,0.1-1.8,0.8
	c-0.3,0.7,0.1,1.5,0.8,1.8S138.2,88.7,138.5,88z M136.9,91.8c0.3-0.7-0.1-1.5-0.8-1.8c-0.7-0.3-1.5,0.1-1.8,0.8
	c-0.3,0.7,0.1,1.5,0.8,1.8C135.8,92.9,136.6,92.5,136.9,91.8z M135.4,95.7c0.3-0.7-0.1-1.5-0.8-1.8c-0.7-0.3-1.5,0.1-1.8,0.8
	c-0.3,0.7,0.1,1.5,0.8,1.8S135.1,96.4,135.4,95.7z M133.8,99.5c0.3-0.7-0.1-1.5-0.8-1.8s-1.5,0.1-1.8,0.8c-0.3,0.7,0.1,1.5,0.8,1.8
	S133.5,100.2,133.8,99.5z M132.3,103.3c0.3-0.7-0.1-1.5-0.8-1.8c-0.7-0.3-1.5,0.1-1.8,0.8c-0.3,0.7,0.1,1.5,0.8,1.8
	C131.2,104.4,132,104,132.3,103.3z M130.7,107.2c0.3-0.7-0.1-1.5-0.8-1.8c-0.7-0.3-1.5,0.1-1.8,0.8c-0.3,0.7,0.1,1.5,0.8,1.8
	C129.6,108.2,130.4,107.9,130.7,107.2z M129.2,111c0.3-0.7-0.1-1.5-0.8-1.8s-1.5,0.1-1.8,0.8c-0.3,0.7,0.1,1.5,0.8,1.8
	S128.9,111.7,129.2,111z M127.6,114.8c0.3-0.7-0.1-1.5-0.8-1.8c-0.7-0.3-1.5,0.1-1.8,0.8c-0.3,0.7,0.1,1.5,0.8,1.8
	C126.5,115.9,127.3,115.5,127.6,114.8z M126.1,118.6c0.3-0.7-0.1-1.5-0.8-1.8s-1.5,0.1-1.8,0.8c-0.3,0.7,0.1,1.5,0.8,1.8
	C125,119.7,125.8,119.4,126.1,118.6z M124.5,122.5c0.3-0.7-0.1-1.5-0.8-1.8c-0.7-0.3-1.5,0.1-1.8,0.8c-0.3,0.7,0.1,1.5,0.8,1.8
	S124.2,123.2,124.5,122.5z M122.2,124.5c-0.7-0.3-1.5,0.1-1.8,0.8c-0.3,0.7,0.1,1.5,0.8,1.8c0.7,0.3,1.5-0.1,1.8-0.8
	C123.2,125.6,122.9,124.8,122.2,124.5z M121.4,130.1c0.3-0.7-0.1-1.5-0.8-1.8c-0.7-0.3-1.5,0.1-1.8,0.8s0.1,1.5,0.8,1.8
	C120.3,131.2,121.1,130.8,121.4,130.1z M119.1,132.2c-0.7-0.3-1.5,0.1-1.8,0.8c-0.3,0.7,0.1,1.5,0.8,1.8c0.7,0.3,1.5-0.1,1.8-0.8
	C120.1,133.3,119.8,132.5,119.1,132.2z M116.5,138.6c0.7,0.3,1.5-0.1,1.8-0.8c0.3-0.7-0.1-1.5-0.8-1.8c-0.7-0.3-1.5,0.1-1.8,0.8
	C115.4,137.5,115.8,138.3,116.5,138.6z M116,139.8c-0.7-0.3-1.5,0.1-1.8,0.8c-0.1,0.3-0.1,0.5-0.1,0.8c0.9-0.1,1.8-0.2,2.7-0.4
	C116.8,140.5,116.5,140,116,139.8z M140.1,88.2c-0.1,0.1-0.2,0.2-0.2,0.4c-0.2,0.4-0.1,0.9,0.1,1.3C140,89.3,140.1,88.7,140.1,88.2z
	 M138.3,92.4c-0.3,0.7,0.1,1.5,0.8,1.8c0.2,0.1,0.4,0.1,0.6,0.1c0.1-0.9,0.2-1.8,0.2-2.7C139.2,91.4,138.6,91.8,138.3,92.4z
	 M138.6,95.5c-0.7-0.3-1.5,0.1-1.8,0.8c-0.3,0.7,0.1,1.5,0.8,1.8c0.7,0.3,1.5,0,1.8-0.7c0-0.3,0.1-0.6,0.1-0.9
	C139.3,96,139,95.6,138.6,95.5z M137.8,101.1c0.3-0.7-0.1-1.5-0.8-1.8s-1.5,0.1-1.8,0.8c-0.3,0.7,0.1,1.5,0.8,1.8
	C136.7,102.1,137.5,101.8,137.8,101.1z M136.2,104.9c0.3-0.7-0.1-1.5-0.8-1.8c-0.7-0.3-1.5,0.1-1.8,0.8c-0.3,0.7,0.1,1.5,0.8,1.8
	C135.1,106,135.9,105.6,136.2,104.9z M134.7,108.7c0.3-0.7-0.1-1.5-0.8-1.8c-0.7-0.3-1.5,0.1-1.8,0.8c-0.3,0.7,0.1,1.5,0.8,1.8
	S134.4,109.5,134.7,108.7z M132.3,110.8c-0.7-0.3-1.5,0.1-1.8,0.8c-0.3,0.7,0.1,1.5,0.8,1.8c0.7,0.3,1.5-0.1,1.8-0.8
	C133.4,111.9,133,111.1,132.3,110.8z M131.6,116.4c0.3-0.7-0.1-1.5-0.8-1.8c-0.7-0.3-1.5,0.1-1.8,0.8c-0.3,0.7,0.1,1.5,0.8,1.8
	C130.5,117.5,131.3,117.1,131.6,116.4z M129.2,118.4c-0.7-0.3-1.5,0.1-1.8,0.8c-0.3,0.7,0.1,1.5,0.8,1.8s1.5-0.1,1.8-0.8
	C130.3,119.5,129.9,118.7,129.2,118.4z M128.4,124.1c0.3-0.7-0.1-1.5-0.8-1.8c-0.7-0.3-1.5,0.1-1.8,0.8c-0.3,0.7,0.1,1.5,0.8,1.8
	C127.4,125.1,128.2,124.8,128.4,124.1z M126.9,127.9c0.3-0.7-0.1-1.5-0.8-1.8c-0.7-0.3-1.5,0.1-1.8,0.8c-0.3,0.7,0.1,1.5,0.8,1.8
	C125.8,129,126.6,128.6,126.9,127.9z M124.6,129.9c-0.7-0.3-1.5,0.1-1.8,0.8c-0.3,0.7,0.1,1.5,0.8,1.8c0.7,0.3,1.5-0.1,1.8-0.8
	C125.6,131,125.3,130.2,124.6,129.9z M122,136.3c0.7,0.3,1.5-0.1,1.8-0.8s-0.1-1.5-0.8-1.8c-0.7-0.3-1.5,0.1-1.8,0.8
	C120.9,135.2,121.3,136,122,136.3z M121.5,137.6c-0.7-0.3-1.5,0.1-1.8,0.8c-0.3,0.6,0,1.3,0.6,1.7c0.7-0.3,1.4-0.6,2.1-0.9
	C122.4,138.5,122.1,137.8,121.5,137.6z M137.6,105.5c-0.2,0.5-0.1,1,0.2,1.4c0.1-0.7,0.3-1.4,0.4-2
	C137.9,105,137.7,105.2,137.6,105.5z M136,109.3c-0.3,0.7,0.1,1.5,0.8,1.8c0,0,0.1,0,0.1,0c0.2-0.9,0.4-1.8,0.6-2.7
	C136.9,108.4,136.3,108.7,136,109.3z M134.5,113.1c-0.3,0.7,0.1,1.5,0.8,1.8c0.2,0.1,0.5,0.1,0.7,0.1c0.2-0.8,0.4-1.7,0.6-2.5
	c-0.1-0.1-0.2-0.1-0.3-0.2C135.6,112.1,134.8,112.4,134.5,113.1z M134.7,116.2c-0.7-0.3-1.5,0.1-1.8,0.8c-0.3,0.7,0.1,1.5,0.8,1.8
	c0.4,0.2,0.9,0.1,1.3-0.1c0.2-0.6,0.3-1.1,0.5-1.7C135.3,116.6,135.1,116.3,134.7,116.2z M132.1,122.6c0.7,0.3,1.5-0.1,1.8-0.8
	c0.3-0.7-0.1-1.5-0.8-1.8s-1.5,0.1-1.8,0.8C131.1,121.5,131.4,122.3,132.1,122.6z M132.4,125.7c0.3-0.7-0.1-1.5-0.8-1.8
	c-0.7-0.3-1.5,0.1-1.8,0.8c-0.3,0.7,0.1,1.5,0.8,1.8C131.3,126.7,132.1,126.4,132.4,125.7z M129,130.3c0.7,0.3,1.5-0.1,1.8-0.8
	c0.3-0.7-0.1-1.5-0.8-1.8c-0.7-0.3-1.5,0.1-1.8,0.8C128,129.2,128.3,130,129,130.3z M128.5,131.5c-0.7-0.3-1.5,0.1-1.8,0.8
	s0.1,1.5,0.8,1.8c0.4,0.2,0.8,0.1,1.1-0.1c0.2-0.3,0.5-0.6,0.7-0.9C129.5,132.5,129.2,131.8,128.5,131.5z M125.2,136.1
	c-0.2,0.4-0.1,0.8,0.1,1.2c0.7-0.6,1.4-1.2,2-1.8c-0.1-0.1-0.2-0.1-0.3-0.2C126.3,135.1,125.5,135.4,125.2,136.1z" />
</svg>