<svg id="Layer_1" data-name="Layer 1" xmlns="http://www.w3.org/2000/svg" viewBox="0 0 254 152"><defs><style>.cls-1{fill:#cf3617;}</style></defs><title>Artboard 8</title><path class="cls-1" d="M28.27,138.33a13.81,13.81,0,0,1-3.14.43c-4.45,0-7.55-2.22-7.55-6.88s2.88-7.34,7.55-7.34a9.2,9.2,0,0,1,3.12.56l-.2,2.33a5.67,5.67,0,0,0-3-.73c-2.85,0-4.62,2.17-4.62,5s1.74,4.9,4.67,4.9a7.63,7.63,0,0,0,3-.57Z"/><path class="cls-1" d="M30,123.74h2.65v6h0a3.78,3.78,0,0,1,3.19-1.61c2.4,0,3.45,1.69,3.45,4v6.41H36.64v-5.42c0-1.24,0-2.92-1.71-2.92-1.91,0-2.32,2.07-2.32,3.37v5H30Z"/><path class="cls-1" d="M45,136.83a2.24,2.24,0,0,0,1.85-.91,3.37,3.37,0,0,0,.55-2.08H46.23c-1.19,0-2.94.19-2.94,1.75,0,.87.73,1.24,1.68,1.24m-3.1-7.92a9.11,9.11,0,0,1,3.53-.77c3.09,0,4.38,1.28,4.38,4.28v1.29c0,1,0,1.8,0,2.55s.07,1.48.12,2.27H47.61a12.13,12.13,0,0,1-.12-1.52h0a3.62,3.62,0,0,1-3.13,1.75c-1.8,0-3.55-1.08-3.55-3a3,3,0,0,1,1.73-2.9,8.11,8.11,0,0,1,3.41-.59h1.46c0-1.64-.73-2.19-2.29-2.19a5.31,5.31,0,0,0-3.13,1.1Z"/><path class="cls-1" d="M51.87,128.38h2.34v2.31h0A3.1,3.1,0,0,1,57,128.14a2.86,2.86,0,0,1,.81.08v2.66a2.68,2.68,0,0,0-1.19-.22c-2.14,0-2.14,2.68-2.14,4.14v3.73H51.87Z"/><path class="cls-1" d="M59.46,128.38H62.1v10.15H59.46Zm0-4.38H62.1v2.52H59.46Z"/><path class="cls-1" d="M65.65,130.31h-2v-1.93h2v-2l2.64-.85v2.87h2.34v1.94H68.29V135c0,.86.24,1.67,1.24,1.67a2.45,2.45,0,0,0,1.2-.27l.08,2.09a7.24,7.24,0,0,1-2,.23,3,3,0,0,1-3.21-3.29Z"/><path class="cls-1" d="M72.43,128.38h2.64v10.15H72.43Zm0-4.38h2.64v2.52H72.43Z"/><path class="cls-1" d="M84.12,132.45c-.08-1.28-.67-2.38-2.15-2.38a2.31,2.31,0,0,0-2.35,2.38Zm1.77,5.5a6.88,6.88,0,0,1-3.49.81c-3.35,0-5.3-1.93-5.3-5.26,0-2.94,1.56-5.36,4.71-5.36,3.76,0,4.83,2.58,4.83,6.13h-7a2.66,2.66,0,0,0,2.9,2.56,6.88,6.88,0,0,0,3.37-1Z"/><path class="cls-1" d="M94.64,130.5a6.57,6.57,0,0,0-2.36-.43c-.71,0-1.56.26-1.56,1.12,0,1.62,4.6.6,4.6,4.26,0,2.37-2.11,3.31-4.26,3.31a12.14,12.14,0,0,1-3-.43l.16-2.17a5.84,5.84,0,0,0,2.6.67c.67,0,1.73-.26,1.73-1.24,0-2-4.59-.63-4.59-4.3,0-2.18,1.92-3.15,4-3.15a12.64,12.64,0,0,1,2.88.37Z"/><path class="cls-1" d="M107,127.53h0l-2,5.67h4Zm-1.51-2.76h3.11l5.4,13.76h-3l-1.19-3.16h-5.57L103,138.53h-2.85Z"/><path class="cls-1" d="M115.5,128.38h2.64v10.15H115.5Zm0-4.38h2.64v2.52H115.5Z"/><path class="cls-1" d="M125.18,136.71c1.76,0,2.33-1.85,2.33-3.29s-.67-3.23-2.37-3.23-2.19,1.87-2.19,3.23.5,3.29,2.23,3.29m2.42.67h0a3.78,3.78,0,0,1-3.12,1.39c-3.11,0-4.26-2.57-4.26-5.35s1.15-5.28,4.26-5.28a3.61,3.61,0,0,1,3,1.42h0v-5.82h2.64v14.79H127.6Z"/><polygon class="cls-1" points="136.53 124.77 144.18 124.77 144.18 126.93 139.29 126.93 139.29 130.33 143.95 130.33 143.95 132.49 139.29 132.49 139.29 138.53 136.53 138.53 136.53 124.77"/><path class="cls-1" d="M150.23,136.71c2,0,2.57-1.81,2.57-3.51,0-1.55-.83-3-2.57-3s-2.54,1.5-2.54,3c0,1.68.53,3.51,2.54,3.51m0-8.57a5.09,5.09,0,0,1,5.33,5.38,5.32,5.32,0,0,1-10.63,0,5.08,5.08,0,0,1,5.3-5.38"/><path class="cls-1" d="M166.36,138.53h-2.5v-1.39h-.05a4.2,4.2,0,0,1-3.32,1.62c-2.41,0-3.46-1.7-3.46-4v-6.41h2.65v5.43c0,1.24,0,2.91,1.71,2.91,1.91,0,2.32-2.07,2.32-3.37v-5h2.65Z"/><path class="cls-1" d="M168.49,128.38H171v1.37h0a3.79,3.79,0,0,1,3.33-1.61c2.41,0,3.45,1.69,3.45,4v6.41h-2.64v-5.42c0-1.24,0-2.92-1.71-2.92-1.92,0-2.33,2.07-2.33,3.37v5h-2.64Z"/><path class="cls-1" d="M184.48,136.71c1.75,0,2.32-1.85,2.32-3.29s-.67-3.23-2.37-3.23-2.18,1.87-2.18,3.23.49,3.29,2.23,3.29m2.42.67h0a3.75,3.75,0,0,1-3.11,1.38c-3.12,0-4.26-2.56-4.26-5.34s1.14-5.28,4.26-5.28a3.59,3.59,0,0,1,3,1.42h0v-5.82h2.64v14.79H186.9Z"/><path class="cls-1" d="M195.44,136.83a2.24,2.24,0,0,0,1.85-.91,3.37,3.37,0,0,0,.55-2.08H196.7c-1.19,0-2.94.19-2.94,1.75,0,.87.73,1.24,1.68,1.24m-3.1-7.93a9.36,9.36,0,0,1,3.53-.76c3.09,0,4.38,1.28,4.38,4.27v1.3c0,1,0,1.8,0,2.55s.05,1.48.12,2.27h-2.33A12.27,12.27,0,0,1,198,137h0a3.63,3.63,0,0,1-3.14,1.75c-1.79,0-3.54-1.08-3.54-3a3,3,0,0,1,1.73-2.9,8.11,8.11,0,0,1,3.41-.59h1.46c0-1.64-.73-2.19-2.28-2.19a5.26,5.26,0,0,0-3.14,1.11Z"/><path class="cls-1" d="M203.62,130.31h-2v-1.93h2v-2l2.64-.86v2.89h2.35v1.93h-2.35V135c0,.86.23,1.67,1.24,1.67a2.42,2.42,0,0,0,1.2-.27l.08,2.09a7.24,7.24,0,0,1-1.95.23,3,3,0,0,1-3.21-3.29Z"/><path class="cls-1" d="M210.72,128.38h2.64v10.15h-2.64Zm0-4.38h2.64v2.52h-2.64Z"/><path class="cls-1" d="M220.2,136.71c2,0,2.56-1.81,2.56-3.51,0-1.55-.83-3-2.56-3s-2.54,1.5-2.54,3c0,1.68.53,3.51,2.54,3.51m0-8.57a5.09,5.09,0,0,1,5.32,5.38,5.32,5.32,0,0,1-10.63,0,5.08,5.08,0,0,1,5.31-5.38"/><path class="cls-1" d="M227.17,128.38h2.5v1.37h0a3.79,3.79,0,0,1,3.33-1.61c2.41,0,3.45,1.69,3.45,4v6.41h-2.64v-5.42c0-1.24,0-2.92-1.71-2.92-1.92,0-2.33,2.07-2.33,3.37v5h-2.64Z"/><path class="cls-1" d="M80.26,91.68a54.77,54.77,0,0,1-13.36,1.4q-11.55,0-18.24-7.83T42,61.16V59.83Q42,44.62,49.15,36t19.91-8.62a61.47,61.47,0,0,1,11.94,1,39.17,39.17,0,0,1,8.06,2.38V16.45a36.62,36.62,0,0,0-9.16-2.34,103.18,103.18,0,0,0-14.7-.88q-20.49,0-34.05,12.45t-13.56,33v3.67q0,22,13.35,33.44Q44.11,107,64.87,107.19v0H80.22L87,89.76c-1.85.62-4.08,1.26-6.71,1.92"/><polygon class="cls-1" points="236.5 27.46 236.5 13.37 170.86 13.37 170.86 83.16 180.45 107.21 195.08 107.21 195.08 66.68 227.25 66.68 227.25 52.57 195.08 52.57 195.08 27.46 236.5 27.46"/><path class="cls-1" d="M141.1,13.44H118.4L82,107.28h19.86l8.16-22.48h35.62l8,22.48h24.9ZM114.8,71.15l12.31-34.49,13.42,34.49Z"/><path class="cls-1" d="M141.1,13.37H118.4L82,107.21h19.86l8.16-22.47h35.62l8,22.47h24.9ZM114.8,71.09l12.31-34.5,13.42,34.5Z"/><path class="cls-1" d="M28.27,138.33a13.81,13.81,0,0,1-3.14.43c-4.45,0-7.55-2.22-7.55-6.88s2.88-7.34,7.55-7.34a9.2,9.2,0,0,1,3.12.56l-.2,2.33a5.67,5.67,0,0,0-3-.73c-2.85,0-4.62,2.17-4.62,5s1.74,4.9,4.67,4.9a7.63,7.63,0,0,0,3-.57Z"/><path class="cls-1" d="M30,123.74h2.65v6h0a3.78,3.78,0,0,1,3.19-1.61c2.4,0,3.45,1.69,3.45,4v6.41H36.64v-5.42c0-1.24,0-2.92-1.71-2.92-1.91,0-2.32,2.07-2.32,3.37v5H30Z"/><path class="cls-1" d="M45,136.83a2.24,2.24,0,0,0,1.85-.91,3.37,3.37,0,0,0,.55-2.08H46.23c-1.19,0-2.94.19-2.94,1.75,0,.87.73,1.24,1.68,1.24m-3.1-7.92a9.11,9.11,0,0,1,3.53-.77c3.09,0,4.38,1.28,4.38,4.28v1.29c0,1,0,1.8,0,2.55s.07,1.48.12,2.27H47.61a12.13,12.13,0,0,1-.12-1.52h0a3.62,3.62,0,0,1-3.13,1.75c-1.8,0-3.55-1.08-3.55-3a3,3,0,0,1,1.73-2.9,8.11,8.11,0,0,1,3.41-.59h1.46c0-1.64-.73-2.19-2.29-2.19a5.31,5.31,0,0,0-3.13,1.1Z"/><path class="cls-1" d="M51.87,128.38h2.34v2.31h0A3.1,3.1,0,0,1,57,128.14a2.86,2.86,0,0,1,.81.08v2.66a2.68,2.68,0,0,0-1.19-.22c-2.14,0-2.14,2.68-2.14,4.14v3.73H51.87Z"/><path class="cls-1" d="M59.46,128.38H62.1v10.15H59.46Zm0-4.38H62.1v2.52H59.46Z"/><path class="cls-1" d="M65.65,130.31h-2v-1.93h2v-2l2.64-.85v2.87h2.34v1.94H68.29V135c0,.86.24,1.67,1.24,1.67a2.45,2.45,0,0,0,1.2-.27l.08,2.09a7.24,7.24,0,0,1-2,.23,3,3,0,0,1-3.21-3.29Z"/><path class="cls-1" d="M72.43,128.38h2.64v10.15H72.43Zm0-4.38h2.64v2.52H72.43Z"/><path class="cls-1" d="M84.12,132.45c-.08-1.28-.67-2.38-2.15-2.38a2.31,2.31,0,0,0-2.35,2.38Zm1.77,5.5a6.88,6.88,0,0,1-3.49.81c-3.35,0-5.3-1.93-5.3-5.26,0-2.94,1.56-5.36,4.71-5.36,3.76,0,4.83,2.58,4.83,6.13h-7a2.66,2.66,0,0,0,2.9,2.56,6.88,6.88,0,0,0,3.37-1Z"/><path class="cls-1" d="M94.64,130.5a6.57,6.57,0,0,0-2.36-.43c-.71,0-1.56.26-1.56,1.12,0,1.62,4.6.6,4.6,4.26,0,2.37-2.11,3.31-4.26,3.31a12.14,12.14,0,0,1-3-.43l.16-2.17a5.84,5.84,0,0,0,2.6.67c.67,0,1.73-.26,1.73-1.24,0-2-4.59-.63-4.59-4.3,0-2.18,1.92-3.15,4-3.15a12.64,12.64,0,0,1,2.88.37Z"/><path class="cls-1" d="M107,127.53h0l-2,5.67h4Zm-1.51-2.76h3.11l5.4,13.76h-3l-1.19-3.16h-5.57L103,138.53h-2.85Z"/><path class="cls-1" d="M115.5,128.38h2.64v10.15H115.5Zm0-4.38h2.64v2.52H115.5Z"/><path class="cls-1" d="M125.18,136.71c1.76,0,2.33-1.85,2.33-3.29s-.67-3.23-2.37-3.23-2.19,1.87-2.19,3.23.5,3.29,2.23,3.29m2.42.67h0a3.78,3.78,0,0,1-3.12,1.39c-3.11,0-4.26-2.57-4.26-5.35s1.15-5.28,4.26-5.28a3.61,3.61,0,0,1,3,1.42h0v-5.82h2.64v14.79H127.6Z"/><polygon class="cls-1" points="136.53 124.77 144.18 124.77 144.18 126.93 139.29 126.93 139.29 130.33 143.95 130.33 143.95 132.49 139.29 132.49 139.29 138.53 136.53 138.53 136.53 124.77"/><path class="cls-1" d="M150.23,136.71c2,0,2.57-1.81,2.57-3.51,0-1.55-.83-3-2.57-3s-2.54,1.5-2.54,3c0,1.68.53,3.51,2.54,3.51m0-8.57a5.09,5.09,0,0,1,5.33,5.38,5.32,5.32,0,0,1-10.63,0,5.08,5.08,0,0,1,5.3-5.38"/><path class="cls-1" d="M166.36,138.53h-2.5v-1.39h-.05a4.2,4.2,0,0,1-3.32,1.62c-2.41,0-3.46-1.7-3.46-4v-6.41h2.65v5.43c0,1.24,0,2.91,1.71,2.91,1.91,0,2.32-2.07,2.32-3.37v-5h2.65Z"/><path class="cls-1" d="M168.49,128.38H171v1.37h0a3.79,3.79,0,0,1,3.33-1.61c2.41,0,3.45,1.69,3.45,4v6.41h-2.64v-5.42c0-1.24,0-2.92-1.71-2.92-1.92,0-2.33,2.07-2.33,3.37v5h-2.64Z"/><path class="cls-1" d="M184.48,136.71c1.75,0,2.32-1.85,2.32-3.29s-.67-3.23-2.37-3.23-2.18,1.87-2.18,3.23.49,3.29,2.23,3.29m2.42.67h0a3.75,3.75,0,0,1-3.11,1.38c-3.12,0-4.26-2.56-4.26-5.34s1.14-5.28,4.26-5.28a3.59,3.59,0,0,1,3,1.42h0v-5.82h2.64v14.79H186.9Z"/><path class="cls-1" d="M195.44,136.83a2.24,2.24,0,0,0,1.85-.91,3.37,3.37,0,0,0,.55-2.08H196.7c-1.19,0-2.94.19-2.94,1.75,0,.87.73,1.24,1.68,1.24m-3.1-7.93a9.36,9.36,0,0,1,3.53-.76c3.09,0,4.38,1.28,4.38,4.27v1.3c0,1,0,1.8,0,2.55s.05,1.48.12,2.27h-2.33A12.27,12.27,0,0,1,198,137h0a3.63,3.63,0,0,1-3.14,1.75c-1.79,0-3.54-1.08-3.54-3a3,3,0,0,1,1.73-2.9,8.11,8.11,0,0,1,3.41-.59h1.46c0-1.64-.73-2.19-2.28-2.19a5.26,5.26,0,0,0-3.14,1.11Z"/><path class="cls-1" d="M203.62,130.31h-2v-1.93h2v-2l2.64-.86v2.89h2.35v1.93h-2.35V135c0,.86.23,1.67,1.24,1.67a2.42,2.42,0,0,0,1.2-.27l.08,2.09a7.24,7.24,0,0,1-1.95.23,3,3,0,0,1-3.21-3.29Z"/><path class="cls-1" d="M210.72,128.38h2.64v10.15h-2.64Zm0-4.38h2.64v2.52h-2.64Z"/><path class="cls-1" d="M220.2,136.71c2,0,2.56-1.81,2.56-3.51,0-1.55-.83-3-2.56-3s-2.54,1.5-2.54,3c0,1.68.53,3.51,2.54,3.51m0-8.57a5.09,5.09,0,0,1,5.32,5.38,5.32,5.32,0,0,1-10.63,0,5.08,5.08,0,0,1,5.31-5.38"/><path class="cls-1" d="M227.17,128.38h2.5v1.37h0a3.79,3.79,0,0,1,3.33-1.61c2.41,0,3.45,1.69,3.45,4v6.41h-2.64v-5.42c0-1.24,0-2.92-1.71-2.92-1.92,0-2.33,2.07-2.33,3.37v5h-2.64Z"/><path class="cls-1" d="M80.26,91.68a54.77,54.77,0,0,1-13.36,1.4q-11.55,0-18.24-7.83T42,61.16V59.83Q42,44.62,49.15,36t19.91-8.62a61.47,61.47,0,0,1,11.94,1,39.17,39.17,0,0,1,8.06,2.38V16.45a36.62,36.62,0,0,0-9.16-2.34,103.18,103.18,0,0,0-14.7-.88q-20.49,0-34.05,12.45t-13.56,33v3.67q0,22,13.35,33.44Q44.11,107,64.87,107.19v0H80.22L87,89.76c-1.85.62-4.08,1.26-6.71,1.92"/><polygon class="cls-1" points="236.5 27.46 236.5 13.37 170.86 13.37 170.86 83.16 180.45 107.21 195.08 107.21 195.08 66.68 227.25 66.68 227.25 52.57 195.08 52.57 195.08 27.46 236.5 27.46"/><rect class="cls-1" x="17.5" y="114.96" width="219" height="1.93"/></svg>