<svg id="Layer_1" data-name="Layer 1" xmlns="http://www.w3.org/2000/svg" viewBox="0 0 193 179"><defs><style>.cls-1{fill:#673a8e;}.cls-2{fill:#d9c3df;}.cls-3{fill:#4dbdc8;}.cls-4{fill:#fff;}</style></defs><title>Artboard 9</title><path class="cls-1" d="M12.72,64.38A54.21,54.21,0,0,0,66.94,118.6V91.49a27.11,27.11,0,1,1,0-54.21V10.17A54.21,54.21,0,0,0,12.72,64.38"/><path class="cls-2" d="M126.07,10.17H99.63V37.28h26.44a27.11,27.11,0,0,1,0,54.21h0V118.6h0a54.22,54.22,0,0,0,0-108.43"/><polygon class="cls-3" points="69.58 10.17 69.58 118.6 95.93 118.6 97.15 118.6 123.5 118.6 123.5 91.49 97.15 91.49 97.15 10.17 69.58 10.17"/><rect class="cls-1" x="12.72" y="121.16" width="167.56" height="47.67"/><path class="cls-4" d="M57.52,158.29a5.62,5.62,0,0,0,.87.79,6.49,6.49,0,0,0,1.15.69,6.85,6.85,0,0,0,1.43.48,7.84,7.84,0,0,0,1.75.18,6.11,6.11,0,0,0,1.94-.3,4.85,4.85,0,0,0,1.56-.83,4.25,4.25,0,0,0,1-1.27,3.51,3.51,0,0,0,.39-1.61,4,4,0,0,0-.33-1.7,3.63,3.63,0,0,0-.87-1.19,4.85,4.85,0,0,0-1.23-.78,8.75,8.75,0,0,0-1.39-.47,6.44,6.44,0,0,1-1.91-.68,1.19,1.19,0,0,1-.69-1,.84.84,0,0,1,.14-.48,1.57,1.57,0,0,1,.39-.38,1.93,1.93,0,0,1,.54-.26,1.8,1.8,0,0,1,.6-.1,3.17,3.17,0,0,1,.88.12,4,4,0,0,1,.76.28,6.17,6.17,0,0,1,.63.38c.18.14.35.26.49.38l1.68-1.85c-.12-.12-.29-.28-.51-.47a4.38,4.38,0,0,0-.87-.58,6.47,6.47,0,0,0-1.28-.49,6.94,6.94,0,0,0-1.74-.2,6.17,6.17,0,0,0-2.07.32,4.19,4.19,0,0,0-1.47.87,3.4,3.4,0,0,0-.87,1.26,4.07,4.07,0,0,0-.29,1.52,3.35,3.35,0,0,0,.25,1.33,3.43,3.43,0,0,0,.7,1.06,4.18,4.18,0,0,0,1.08.79,5.52,5.52,0,0,0,1.36.5,9.45,9.45,0,0,1,2.2.79,1.21,1.21,0,0,1,.69,1.1,1.16,1.16,0,0,1-.16.59,1.63,1.63,0,0,1-.43.44,2,2,0,0,1-.6.28,2.16,2.16,0,0,1-.66.1,4,4,0,0,1-1-.14,4.95,4.95,0,0,1-1.66-.89,6.25,6.25,0,0,1-.58-.55Zm19-1.19a3.09,3.09,0,0,1-.77.61,2.42,2.42,0,0,1-1.2.28,1.82,1.82,0,0,1-.9-.22,2.22,2.22,0,0,1-.67-.55,2.3,2.3,0,0,1-.42-.77,2.65,2.65,0,0,1-.15-.87,2.82,2.82,0,0,1,.15-.92,2.25,2.25,0,0,1,.42-.76,2.31,2.31,0,0,1,.67-.53,1.92,1.92,0,0,1,.9-.2,2.27,2.27,0,0,1,1.18.27,3.27,3.27,0,0,1,.75.61l1.68-1.81a4.56,4.56,0,0,0-1.52-1.08,5.26,5.26,0,0,0-2.15-.4,5,5,0,0,0-1.95.37,4.8,4.8,0,0,0-2.92,4.45,5.11,5.11,0,0,0,.36,1.94,4.58,4.58,0,0,0,1,1.54,4.51,4.51,0,0,0,1.53,1,5.3,5.3,0,0,0,2,.35,4.86,4.86,0,0,0,2.17-.44,4.8,4.8,0,0,0,1.48-1.06Zm6.59.7a1.92,1.92,0,0,1-.68-.55,2.66,2.66,0,0,1-.42-.78,2.93,2.93,0,0,1,0-1.79,2.49,2.49,0,0,1,.42-.77,2,2,0,0,1,.68-.54,2.06,2.06,0,0,1,.94-.2,1.92,1.92,0,0,1,.92.2,2,2,0,0,1,.69.54,2.12,2.12,0,0,1,.41.77,2.93,2.93,0,0,1,0,1.79,2.24,2.24,0,0,1-.41.78,2,2,0,0,1-.69.55,1.92,1.92,0,0,1-.92.2,2.06,2.06,0,0,1-.94-.2m-3.56-.35a4.85,4.85,0,0,0,1,1.54A4.61,4.61,0,0,0,82,160a4.92,4.92,0,0,0,2,.38A4.78,4.78,0,0,0,87.51,159a5,5,0,0,0,0-6.83,4.8,4.8,0,0,0-1.53-1,5,5,0,0,0-2-.37,5.1,5.1,0,0,0-2,.37,4.58,4.58,0,0,0-1.53,1,5,5,0,0,0-1,5.29m12.07-.8a6.17,6.17,0,0,0,.18,1.55,3,3,0,0,0,.58,1.18,2.74,2.74,0,0,0,1.06.78,4.22,4.22,0,0,0,1.62.27,4.48,4.48,0,0,0,2.85-1l-1.12-1.69a3,3,0,0,1-.58.33,1.64,1.64,0,0,1-.73.15.94.94,0,0,1-.82-.36,1.69,1.69,0,0,1-.26-1v-3.57H96.7v-2.18H94.37v-2.73H91.59v2.73H90.17v2.18h1.42Zm7.91,3.46h2.78V147.25H99.5Zm10.7,0h2.6v-5.27a4.32,4.32,0,0,0-1-3,3.86,3.86,0,0,0-3-1.11,8.74,8.74,0,0,0-1.43.1,7.78,7.78,0,0,0-1.13.28,5.94,5.94,0,0,0-.87.39,7.35,7.35,0,0,0-.65.42l1.14,1.7a4.3,4.3,0,0,1,1-.52,4.18,4.18,0,0,1,1.53-.23,3.34,3.34,0,0,1,.65.06,1.61,1.61,0,0,1,.55.24,1.24,1.24,0,0,1,.39.4,1.2,1.2,0,0,1,.14.59v.19a4.08,4.08,0,0,0-.64-.06h-1a6.08,6.08,0,0,0-1.64.21,3.84,3.84,0,0,0-1.32.62,2.9,2.9,0,0,0-.88,1,3.08,3.08,0,0,0-.32,1.41,2.75,2.75,0,0,0,.3,1.35,2.53,2.53,0,0,0,.75.86,3,3,0,0,0,1,.45,4.23,4.23,0,0,0,1,.14,4.14,4.14,0,0,0,1.57-.29,3.08,3.08,0,0,0,1.16-.83Zm-.08-3.26a1.41,1.41,0,0,1-.15.67,1.35,1.35,0,0,1-.4.48,1.72,1.72,0,0,1-.55.3,2.11,2.11,0,0,1-.65.11c-.9,0-1.35-.37-1.35-1.12a1,1,0,0,1,.48-.92,3,3,0,0,1,1.64-.33,5.72,5.72,0,0,1,.62,0l.36,0Zm5.21,3.26h2.76v-4.86a2.63,2.63,0,0,1,.11-.76,1.93,1.93,0,0,1,.35-.63,1.69,1.69,0,0,1,.58-.43,1.86,1.86,0,0,1,.81-.17,1.29,1.29,0,0,1,1,.45,1.77,1.77,0,0,1,.38,1.19v5.21h2.77v-5.59a3.71,3.71,0,0,0-.92-2.74,3.3,3.3,0,0,0-2.47-.93,3.65,3.65,0,0,0-1.52.33,3.14,3.14,0,0,0-1.16.87l-.08-1h-2.66Zm17.57,0h2.59V147.25h-2.76v3.93c-.26-.09-.51-.16-.75-.22a4.6,4.6,0,0,0-1-.09,4.83,4.83,0,0,0-1.64.3,4.6,4.6,0,0,0-1.52.9,4.55,4.55,0,0,0-1.12,1.51,4.91,4.91,0,0,0-.44,2.13,5.6,5.6,0,0,0,.31,1.94,4.62,4.62,0,0,0,.84,1.46,3.59,3.59,0,0,0,1.25.94,3.7,3.7,0,0,0,1.56.33,3.39,3.39,0,0,0,1.51-.34,3.55,3.55,0,0,0,1.08-.84Zm-.17-4.09a3.08,3.08,0,0,1-.1.75,1.55,1.55,0,0,1-.32.64,1.53,1.53,0,0,1-.56.43,1.78,1.78,0,0,1-.8.16,1.72,1.72,0,0,1-1.44-.62,2.59,2.59,0,0,1-.48-1.61,2.82,2.82,0,0,1,.58-1.83,2,2,0,0,1,1.65-.72,3.85,3.85,0,0,1,.84.08,2.18,2.18,0,0,1,.63.25Z"/><path class="cls-4" d="M17.3,141a6.17,6.17,0,0,0,.87.79,7.11,7.11,0,0,0,1.15.68,6.85,6.85,0,0,0,1.43.48,7.35,7.35,0,0,0,1.75.18,6.36,6.36,0,0,0,1.94-.29A4.87,4.87,0,0,0,26,142a4.13,4.13,0,0,0,1.05-1.27,3.35,3.35,0,0,0,.39-1.6,4,4,0,0,0-.33-1.71,3.59,3.59,0,0,0-.87-1.18,4.45,4.45,0,0,0-1.22-.78,8.28,8.28,0,0,0-1.4-.48,6.76,6.76,0,0,1-1.91-.67A1.21,1.21,0,0,1,21,133.2a.86.86,0,0,1,.14-.47,1.45,1.45,0,0,1,.39-.39,2.25,2.25,0,0,1,.54-.26,2.09,2.09,0,0,1,.6-.1,3.12,3.12,0,0,1,.88.12,4,4,0,0,1,.76.29,4.18,4.18,0,0,1,.63.37c.19.14.35.26.49.38l1.68-1.85-.51-.47a4.86,4.86,0,0,0-.87-.58,5.91,5.91,0,0,0-1.28-.48,6.5,6.5,0,0,0-1.74-.2,5.92,5.92,0,0,0-2.07.32,4,4,0,0,0-1.46.86,3.6,3.6,0,0,0-.88,1.26,4.12,4.12,0,0,0-.29,1.53,3.39,3.39,0,0,0,.25,1.33,3.55,3.55,0,0,0,.7,1.06,4.43,4.43,0,0,0,1.08.79,6.13,6.13,0,0,0,1.36.5,9.83,9.83,0,0,1,2.2.78,1.23,1.23,0,0,1,.7,1.11,1.06,1.06,0,0,1-.17.58,1.54,1.54,0,0,1-.43.45,2.36,2.36,0,0,1-.6.28,2.5,2.5,0,0,1-.66.09,3.6,3.6,0,0,1-1.05-.14,4.58,4.58,0,0,1-.9-.37,5.34,5.34,0,0,1-.76-.52,5.16,5.16,0,0,1-.58-.55Zm12.6-1.64a6.66,6.66,0,0,0,.17,1.54,3.08,3.08,0,0,0,.58,1.19,2.91,2.91,0,0,0,1.06.77,4.29,4.29,0,0,0,1.62.27,4.44,4.44,0,0,0,2.85-1l-1.11-1.69a4.19,4.19,0,0,1-.58.34,1.83,1.83,0,0,1-.73.14.93.93,0,0,1-.82-.36,1.62,1.62,0,0,1-.26-1V135.9H35v-2.18H32.68V131H29.9v2.74H28.48v2.18H29.9Zm13,3.45h2.6V137.5a4.35,4.35,0,0,0-1-3,3.87,3.87,0,0,0-3.05-1.11,8.79,8.79,0,0,0-1.44.11,6.54,6.54,0,0,0-1.12.28,4.73,4.73,0,0,0-.87.38,6.32,6.32,0,0,0-.66.42l1.14,1.7a4.94,4.94,0,0,1,1-.52,4.44,4.44,0,0,1,1.53-.23,2.78,2.78,0,0,1,.66.07,1.43,1.43,0,0,1,.55.23,1.35,1.35,0,0,1,.39.4,1.2,1.2,0,0,1,.14.59V137a5,5,0,0,0-.65-.05c-.32,0-.65,0-1,0a6.21,6.21,0,0,0-1.65.21,3.85,3.85,0,0,0-1.32.63,2.89,2.89,0,0,0-.87,1,3,3,0,0,0-.32,1.4,2.75,2.75,0,0,0,.3,1.35,2.53,2.53,0,0,0,.75.86,2.92,2.92,0,0,0,1,.45,4.09,4.09,0,0,0,1,.14,4.23,4.23,0,0,0,1.58-.29,3,3,0,0,0,1.16-.83Zm-.08-3.26a1.45,1.45,0,0,1-.15.68,1.71,1.71,0,0,1-.4.48,1.57,1.57,0,0,1-.56.29,1.81,1.81,0,0,1-.65.11c-.89,0-1.34-.37-1.34-1.12a1.06,1.06,0,0,1,.48-.92,3,3,0,0,1,1.64-.33,5.53,5.53,0,0,1,.61,0l.37.05Zm4.92,3.26h2.76V137.9a2.37,2.37,0,0,1,.11-.76,2,2,0,0,1,.35-.63,1.69,1.69,0,0,1,.58-.43,1.86,1.86,0,0,1,.81-.16,1.28,1.28,0,0,1,1,.44,1.72,1.72,0,0,1,.38,1.19v5.21h2.78v-5.59a3.75,3.75,0,0,0-.92-2.74,3.34,3.34,0,0,0-2.47-.92,3.77,3.77,0,0,0-1.52.32,3.14,3.14,0,0,0-1.16.87l-.08-1H47.78Zm17.28,0h2.58V129.9H64.89v3.93c-.26-.09-.51-.16-.75-.22a5.42,5.42,0,0,0-1-.08,4.65,4.65,0,0,0-1.65.3,4.78,4.78,0,0,0-1.52.89,4.63,4.63,0,0,0-1.11,1.51,4.91,4.91,0,0,0-.44,2.13,5.6,5.6,0,0,0,.31,1.94,4.32,4.32,0,0,0,.84,1.47,3.68,3.68,0,0,0,2.8,1.26,3.39,3.39,0,0,0,2.6-1.18Zm-.17-4.09a3.08,3.08,0,0,1-.1.75,1.55,1.55,0,0,1-.32.64,1.5,1.5,0,0,1-.56.43,1.78,1.78,0,0,1-.8.17,1.7,1.7,0,0,1-1.44-.63,2.51,2.51,0,0,1-.48-1.61,2.81,2.81,0,0,1,.58-1.83,2,2,0,0,1,1.65-.71,4,4,0,0,1,.84.07,2.85,2.85,0,0,1,.63.25Zm10.36,4.09h2.6V137.5a4.35,4.35,0,0,0-1-3,3.87,3.87,0,0,0-3.05-1.11,8.57,8.57,0,0,0-1.43.11,6.44,6.44,0,0,0-1.13.28,4.44,4.44,0,0,0-.87.38,7.35,7.35,0,0,0-.65.42l1.13,1.7a5,5,0,0,1,1-.52,4.4,4.4,0,0,1,1.53-.23,2.7,2.7,0,0,1,.65.07,1.43,1.43,0,0,1,.55.23,1.35,1.35,0,0,1,.39.4,1.2,1.2,0,0,1,.14.59V137a4.74,4.74,0,0,0-.64-.05c-.33,0-.66,0-1,0a6.08,6.08,0,0,0-1.64.21,4,4,0,0,0-1.33.63,2.95,2.95,0,0,0-1.19,2.43,2.75,2.75,0,0,0,.3,1.35,2.53,2.53,0,0,0,.75.86,3,3,0,0,0,1,.45,4.15,4.15,0,0,0,1,.14,4.19,4.19,0,0,0,1.58-.29,3,3,0,0,0,1.16-.83Zm-.08-3.26a1.45,1.45,0,0,1-.15.68,1.71,1.71,0,0,1-.4.48,1.61,1.61,0,0,1-.55.29,1.85,1.85,0,0,1-.65.11c-.9,0-1.35-.37-1.35-1.12a1.06,1.06,0,0,1,.48-.92,3,3,0,0,1,1.64-.33,5.4,5.4,0,0,1,.61,0l.37.05Zm4.91,3.26h2.78v-4.47A2.06,2.06,0,0,1,85.05,136a3.37,3.37,0,0,1,1,.14l.44-2.45a2.42,2.42,0,0,0-.51-.14,5.53,5.53,0,0,0-.63,0,2.7,2.7,0,0,0-1.57.42,4.1,4.1,0,0,0-1,.89l-.1-1.14H80.08Zm13.86,0h2.58V129.9H93.77v3.93c-.26-.09-.51-.16-.76-.22a5.23,5.23,0,0,0-1-.08,4.65,4.65,0,0,0-1.65.3,4.78,4.78,0,0,0-1.52.89,4.65,4.65,0,0,0-1.12,1.51,4.91,4.91,0,0,0-.43,2.13,5.6,5.6,0,0,0,.31,1.94,4.32,4.32,0,0,0,.84,1.47,3.68,3.68,0,0,0,2.8,1.26,3.39,3.39,0,0,0,2.6-1.18Zm-.17-4.09a3.08,3.08,0,0,1-.1.75,1.68,1.68,0,0,1-.32.64,1.5,1.5,0,0,1-.56.43,1.81,1.81,0,0,1-.8.17,1.7,1.7,0,0,1-1.44-.63,2.57,2.57,0,0,1-.48-1.61,2.81,2.81,0,0,1,.58-1.83,2,2,0,0,1,1.65-.71,4,4,0,0,1,.84.07,2.67,2.67,0,0,1,.63.25Zm4.41,3.07a4.05,4.05,0,0,0,1.75,1,7.78,7.78,0,0,0,2.29.33,6.12,6.12,0,0,0,1.48-.18,4.12,4.12,0,0,0,1.29-.53,2.77,2.77,0,0,0,.91-.89,2.43,2.43,0,0,0,.33-1.29,2.53,2.53,0,0,0-.63-1.8,4.21,4.21,0,0,0-2-1.06q-1-.27-1.62-.48c-.4-.14-.59-.36-.59-.65a.57.57,0,0,1,.28-.5,1.84,1.84,0,0,1,.93-.18,3.47,3.47,0,0,1,1.28.23,6.34,6.34,0,0,1,1,.52l1.18-1.83a5.74,5.74,0,0,0-1.6-.76,7.2,7.2,0,0,0-2-.26,5.68,5.68,0,0,0-1.51.2,3.89,3.89,0,0,0-1.21.58,2.7,2.7,0,0,0-.8.89,2.2,2.2,0,0,0-.29,1.14,2.37,2.37,0,0,0,.24,1.09,2.56,2.56,0,0,0,.64.79,4,4,0,0,0,.9.55,7.81,7.81,0,0,0,1,.35c.43.11.78.22,1.06.31a3.8,3.8,0,0,1,.64.26.8.8,0,0,1,.32.27.69.69,0,0,1,.08.32.57.57,0,0,1-.4.59,3,3,0,0,1-1,.16,4,4,0,0,1-1.4-.27,3.65,3.65,0,0,1-1.17-.68Zm23.45-3.16c-.19.21-.39.43-.6.64a3.51,3.51,0,0,1-.7.56,3.7,3.7,0,0,1-.9.39,4.85,4.85,0,0,1-1.21.14,3.53,3.53,0,0,1-1.52-.31,3.39,3.39,0,0,1-1.16-.85,3.73,3.73,0,0,1-.74-1.27,4.72,4.72,0,0,1-.26-1.58,4.83,4.83,0,0,1,.26-1.57,4,4,0,0,1,.74-1.3,3.45,3.45,0,0,1,1.18-.88,3.71,3.71,0,0,1,1.56-.31,3.5,3.5,0,0,1,1.89.49,4.82,4.82,0,0,1,1.37,1.3l2-1.91a5.9,5.9,0,0,0-2.23-1.89,7,7,0,0,0-3.13-.65,6.82,6.82,0,0,0-2.71.52,6.35,6.35,0,0,0-3.46,3.61,7.72,7.72,0,0,0,0,5.36,6.48,6.48,0,0,0,1.36,2.12,6.31,6.31,0,0,0,2.1,1.39,6.83,6.83,0,0,0,2.67.5,6.41,6.41,0,0,0,1.71-.21,7,7,0,0,0,1.52-.57,7.24,7.24,0,0,0,1.29-.86,6.4,6.4,0,0,0,1-1.05Zm7,1.88a2,2,0,0,1-.68-.55,2.8,2.8,0,0,1-.42-.78,3,3,0,0,1,0-1.8,2.61,2.61,0,0,1,.42-.77,2.14,2.14,0,0,1,.68-.54,2.2,2.2,0,0,1,.94-.2,2.11,2.11,0,0,1,.92.2,2.3,2.3,0,0,1,.69.54,2.38,2.38,0,0,1,.41.77,3,3,0,0,1,0,1.8,2.53,2.53,0,0,1-.41.78,2.18,2.18,0,0,1-.69.55,2.11,2.11,0,0,1-.92.2,2.2,2.2,0,0,1-.94-.2m-3.56-.35a4.74,4.74,0,0,0,1,1.53,4.61,4.61,0,0,0,1.53,1,4.93,4.93,0,0,0,2,.39,4.8,4.8,0,0,0,2-.39,4.67,4.67,0,0,0,1.52-1,4.58,4.58,0,0,0,1-1.53,5.09,5.09,0,0,0,0-3.76,4.49,4.49,0,0,0-1-1.53,4.36,4.36,0,0,0-1.52-1,5,5,0,0,0-2-.38,5.1,5.1,0,0,0-2,.38,4.31,4.31,0,0,0-1.53,1,4.64,4.64,0,0,0-1,1.53,5.09,5.09,0,0,0,0,3.76m11.1-.78a3.75,3.75,0,0,0,.91,2.73,3.3,3.3,0,0,0,2.47.93,3.47,3.47,0,0,0,1.51-.34,3.36,3.36,0,0,0,1.17-.86l.08,1H145v-9h-2.76v4.88a2.45,2.45,0,0,1-.12.75,1.88,1.88,0,0,1-.34.64,2,2,0,0,1-.56.43,1.67,1.67,0,0,1-.76.16,1.38,1.38,0,0,1-1.1-.44,1.78,1.78,0,0,1-.38-1.22v-5.2H136.2Zm11.09,3.43H150V137.9a2.37,2.37,0,0,1,.12-.76,1.83,1.83,0,0,1,.34-.63,1.79,1.79,0,0,1,.58-.43,1.86,1.86,0,0,1,.81-.16,1.32,1.32,0,0,1,1.05.44,1.77,1.77,0,0,1,.38,1.19v5.21h2.77v-5.59a3.75,3.75,0,0,0-.91-2.74,3.36,3.36,0,0,0-2.48-.92,3.72,3.72,0,0,0-1.51.32,3.26,3.26,0,0,0-1.17.87l-.08-1h-2.65Zm17.47-3a2.92,2.92,0,0,1-.77.61,2.41,2.41,0,0,1-1.19.28,1.9,1.9,0,0,1-.9-.21,2.25,2.25,0,0,1-.67-.55,2.42,2.42,0,0,1-.43-.77,2.94,2.94,0,0,1-.14-.88,3.1,3.1,0,0,1,.14-.92,2.38,2.38,0,0,1,.43-.76,2.19,2.19,0,0,1,.67-.53,2,2,0,0,1,.9-.2,2.27,2.27,0,0,1,1.18.27,3.54,3.54,0,0,1,.75.62l1.67-1.82a4.4,4.4,0,0,0-1.52-1.07,5.2,5.2,0,0,0-2.14-.41,5,5,0,0,0-2,.38,4.53,4.53,0,0,0-1.54,1,4.78,4.78,0,0,0-1.37,3.41,5.16,5.16,0,0,0,.35,2,4.69,4.69,0,0,0,1,1.53,4.51,4.51,0,0,0,1.54,1,5.3,5.3,0,0,0,2,.36,4.89,4.89,0,0,0,2.17-.45,4.64,4.64,0,0,0,1.47-1.06Zm3-7.36h3V129.9h-3Zm.1,10.37h2.77v-9h-2.77Zm5.08,0h2.77V129.9h-2.77Z"/></svg>