<svg id="Layer_1" data-name="Layer 1" xmlns="http://www.w3.org/2000/svg" xmlns:xlink="http://www.w3.org/1999/xlink" viewBox="0 0 421 149"><defs><style>.cls-1{fill:none;}.cls-2{clip-path:url(#clip-path);}.cls-3{fill:url(#radial-gradient);}.cls-4{fill:#002856;}.cls-5{fill:#fff;}</style><clipPath id="clip-path"><path class="cls-1" d="M61.51,11.72H12.85V137.33h50.4v-.09h.2a62.79,62.79,0,1,0,0-125.57c-.65,0-1.29,0-1.94.05"/></clipPath><radialGradient id="radial-gradient" cx="-572.89" cy="833.71" r="2.44" gradientTransform="matrix(0, 34.8, 34.8, 0, -28908.63, 19979.35)" gradientUnits="userSpaceOnUse"><stop offset="0" stop-color="#96d6f7"/><stop offset="0.15" stop-color="#87c5e8"/><stop offset="0.45" stop-color="#5e97c0"/><stop offset="0.86" stop-color="#1e4f82"/><stop offset="1" stop-color="#07356b"/></radialGradient></defs><title>Artboard 10</title><g class="cls-2"><rect class="cls-3" x="2.96" y="2.92" width="133.16" height="143.16" transform="translate(-11.69 12.95) rotate(-9.82)"/></g><path class="cls-4" d="M150.67,19.67H164.5c16.22,0,27.52,10,27.52,26,0,15.42-10.64,26.21-25.85,26.21h-15.5Zm8.41,44.83h7.24c10.13,0,17.52-7.9,17.52-18.76s-7.75-18.61-18.39-18.61h-6.37Z"/><rect class="cls-4" x="196.51" y="36.69" width="8.04" height="35.2"/><rect class="cls-4" x="250.47" y="36.69" width="8.04" height="35.2"/><path class="cls-4" d="M259.37,28.85A4.89,4.89,0,1,1,254.49,24a4.89,4.89,0,0,1,4.88,4.88"/><path class="cls-4" d="M237.05,36.69h8.11V70.22c0,10.57-6.73,16.37-19,16.37-7.46,0-12.52-2.39-16.72-8.33l5.72-4.71a13,13,0,0,0,11.66,6.3c6,0,10.28-3.48,10.28-8.69V67.39c-2.6,3.77-6.16,5.51-11.23,5.51-10.06,0-17.23-7.68-17.23-18.4s7.17-18.9,16.88-18.9c5.21,0,9.41,2.1,11.58,6.16ZM216.78,54.21c0,6.89,4.41,11.88,10.57,11.88s10.35-4.78,10.35-11.73-4.42-12.1-10.64-12.1c-6,0-10.28,5.08-10.28,12"/><path class="cls-4" d="M262.19,36.69h5.21V27.41h8v9.28H282V43.5h-6.58V59.14c0,4.42.51,6.88,4.64,6.88a9.6,9.6,0,0,0,3.9-.87l1.45,6.52A25.62,25.62,0,0,1,278,72.82a10.46,10.46,0,0,1-8.76-4c-1.59-2.17-1.81-3.33-1.81-8.69V43.5h-5.21Z"/><path class="cls-4" d="M313.57,36.69h8V71.88h-8V67C311,71,307.12,73,302,73c-9.77,0-17-7.89-17-18.61,0-10.5,7.32-18.61,16.8-18.61a13.65,13.65,0,0,1,11.74,6.15ZM293.15,54.43c0,6.73,4.42,11.66,10.42,11.66S314,61.09,314,54.28,309.51,42.7,303.43,42.7c-5.86,0-10.28,5-10.28,11.73"/><rect class="cls-4" x="326.7" y="19.67" width="8.11" height="52.21"/><path class="cls-4" d="M255.59,94.54h5.21V85.27h8v9.27h6.58v6.81h-6.58V117c0,4.42.5,6.88,4.64,6.88a9.63,9.63,0,0,0,3.9-.87l1.45,6.51a25.38,25.38,0,0,1-7.46,1.17,10.45,10.45,0,0,1-8.76-4c-1.59-2.17-1.81-3.33-1.81-8.69V101.35h-5.21Z"/><path class="cls-4" d="M152.83,115.48c3.47,5.43,7.53,8.11,12.52,8.11,5.15,0,9.27-3.77,9.27-8.47,0-4.06-2-5.58-10.28-8.77-6.15-2.39-7.09-2.9-9.41-4.85a12.79,12.79,0,0,1-4.27-9.78c0-8.69,6.88-15.06,16.29-15.06,6.66,0,11.51,2.61,15.13,8.11l-5.43,4.71c-2.53-4-5.65-5.87-9.56-5.87-4.49,0-7.82,3-7.82,7.17a6.08,6.08,0,0,0,1.81,4.35c1.45,1.37,2.46,1.81,7.82,3.91,10.14,4,14.2,7.68,14.2,15.21,0,9.7-7.39,16.58-17.89,16.58-7.75,0-13.32-3.18-17.45-9.92Z"/><path class="cls-4" d="M213.47,102.87a15.74,15.74,0,0,0-7.46-2,11.07,11.07,0,0,0-11.37,11.51,10.86,10.86,0,0,0,11.23,11.3,13,13,0,0,0,7.53-2.39l2.82,6.3c-3.83,2-6.95,3.26-11.51,3.26-10.65,0-18.32-7.75-18.32-18.4,0-10.86,8.1-18.82,19.12-18.82A21.05,21.05,0,0,1,216,96.07Z"/><path class="cls-4" d="M236,93.61c10.93,0,19,7.89,19,18.61s-8,18.61-19,18.61-19.05-7.9-19.05-18.61S225,93.61,236,93.61m-11.22,18.61c0,6.66,4.77,11.59,11.22,11.59s11.22-4.93,11.22-11.59S242.4,100.56,236,100.56s-11.22,5-11.22,11.66"/><rect class="cls-4" x="282.24" y="77.53" width="8.11" height="52.21"/><path class="cls-4" d="M323.3,94.55h8v35.19h-8v-4.85c-2.61,4-6.44,5.94-11.58,5.94-9.78,0-17-7.89-17-18.61,0-10.5,7.32-18.61,16.8-18.61a13.64,13.64,0,0,1,11.73,6.15Zm-20.42,17.74c0,6.74,4.42,11.66,10.43,11.66s10.43-5,10.43-11.8-4.49-11.59-10.57-11.59c-5.87,0-10.29,5-10.29,11.73"/><path class="cls-4" d="M336.69,94.55h8V100A12.57,12.57,0,0,1,356,93.46c7.17,0,11.87,4.13,11.87,14v22.3h-8V109.47c0-5.36-1.74-9-6.95-9s-8.18,3.83-8.18,10.06v19.19h-8Z"/><path class="cls-4" d="M400.11,77.53h8v52.21h-8v-5.21c-2.31,4.27-6.08,6.3-11.8,6.3-10,0-16.87-7.6-16.87-18.47s7.31-18.75,17.23-18.75c5.14,0,8.62,1.74,11.44,5.94Zm-20.34,34.83c0,6.66,4.34,11.45,10.5,11.45s10.28-4.79,10.28-11.74c0-6.73-4.28-11.44-10.36-11.44s-10.42,4.92-10.42,11.73"/><path class="cls-4" d="M205.4,28.85A4.88,4.88,0,1,1,200.52,24a4.88,4.88,0,0,1,4.88,4.88"/><path class="cls-5" d="M95.09,36.78C90.56,29.8,83.48,23,72.53,17.57l0,.05a67.54,67.54,0,0,1,17.5,17,66.07,66.07,0,0,0-30.9-3.27,73.58,73.58,0,0,1,33.63,7.4,58.26,58.26,0,0,1,8.4,36.11,50.18,50.18,0,0,0-3.45-33.47c14.29,8.35,21.46,18.87,21.46,18.87h.06A53.37,53.37,0,0,0,95.09,36.78"/></svg>