<?xml version="1.0" encoding="utf-8"?>
<!-- Generator: Adobe Illustrator 19.0.0, SVG Export Plug-In . SVG Version: 6.00 Build 0)  -->
<svg version="1.1" id="layer" xmlns="http://www.w3.org/2000/svg" xmlns:xlink="http://www.w3.org/1999/xlink" x="0px" y="0px"
	 viewBox="-153 -46 652 652" style="enable-background:new -153 -46 652 652;" xml:space="preserve">
<path id="Jacobs_wordmark" d="M-78.8,345c31.9,0,53.5-22.4,53.5-53.5V275H-53v16.5c0,16.3-10,26.9-25.8,26.9
	c-14.8,0-23.3-9.3-24.8-22.4h-27.5C-129.6,324.7-109,345-78.8,345z M-53,257.6h27.7V205h-54v26.2H-53L-53,257.6L-53,257.6z
	 M50,342.3h24.7c-1.9-8-3.2-21-3.2-30.2v-30.5c0-23.5-14.6-37.9-40.4-37.9c-27.9,0-40,17.6-41.9,31.7h24.7c1.5-6.3,7-10.2,16.5-10.2
	c9.3,0,15.4,4.7,15.4,14.2v4l-23.9,1.1c-25.2,1.3-35.5,14-35.5,31.1c0,18.4,13.1,29.4,33,29.4c14.8,0,24.3-7.2,29-13.1
	C48.6,335.9,49.4,339.7,50,342.3L50,342.3z M45.6,307.6c0,12.7-10.8,16.9-19.5,16.9c-8.9,0-13.8-3.4-13.8-10.6
	c0-6.3,4-10.8,14.8-11.4l18.6-0.9L45.6,307.6L45.6,307.6z M133.4,345c13.1,0,26.5-4.6,34.7-11.9l-9.5-19.9
	c-7.2,4.6-16.5,7.6-23.7,7.6c-14.8,0-24.3-10-24.3-26.4c0-15.7,9.3-26.4,25.6-26.4c6.8,0,14.8,3,21.4,7.4l10.4-20.7
	c-8.3-7.2-19.7-11-32.4-11c-32.8,0-52,23.3-52,50.6C83.7,325.4,102.7,345,133.4,345L133.4,345z M219.5,345
	c29.6,0,50.6-19.5,50.6-50.6s-20.1-50.6-49.7-50.6c-29,0-49.7,21.2-49.7,50.6C170.8,324.5,190.5,345,219.5,345L219.5,345z
	 M220.4,321.3c-13.8,0-22.8-10.1-22.8-26.9c0-16.9,8.9-26.9,22.8-26.9c13.8,0,22.8,10.1,22.8,26.9
	C243.2,311.2,234.3,321.3,220.4,321.3L220.4,321.3z M336.9,345c22.9,0,43.4-18.6,43.4-50.6c0-31.1-18.6-50.6-42.5-50.6
	c-12.9,0-22.8,5.5-28.8,14.6V205h-26.2v110.6c0,9.1-0.4,17.1-1.1,26.7h24.7c0.4-3.8,0.8-7.8,0.9-12.1C314.3,340,325.1,345,336.9,345
	z M330.6,321.3c-13.8,0-22.8-10.1-22.8-26.9c0-16.9,8.9-26.9,22.8-26.9c13.8,0,22.8,10.1,22.8,26.9
	C353.4,311.2,344.5,321.3,330.6,321.3L330.6,321.3z M426.4,345c25,0,42.5-12.9,42.5-31.7c0-16.1-9.5-25.6-29.4-29.8l-12.5-2.7
	c-6.3-1.3-9.7-4.2-9.7-7.8c0-4.9,4.7-8,12.5-8c8.7,0,17.1,2.5,26.9,8.2l8.5-19.5c-8.9-6.4-21-10.1-34.5-10.1
	c-24.5,0-40.4,12.5-40.4,32c0,15.5,9.3,24.7,29,28.6l11.6,2.5c7.8,1.7,10.4,4,10.4,8.5c0,4.9-5.5,7.8-15.4,7.8
	c-8.2,0-20.1-4.4-30.2-11l-8.3,19.7C396,339.9,410.8,344.8,426.4,345L426.4,345z"/>
</svg>
