<svg id="Layer_1" data-name="Layer 1" xmlns="http://www.w3.org/2000/svg" viewBox="0 0 203 156"><defs><style>.cls-1{fill:#4aa234;}.cls-2{fill:#2b4489;}.cls-3{fill:#fff;}</style></defs><title>Artboard 11</title><rect class="cls-1" x="10.43" y="95.29" width="182.33" height="50.14"/><polygon class="cls-2" points="26.32 10.94 15.34 25.55 15.34 10.94 10.25 10.94 10.25 42.07 15.34 42.07 15.34 28.65 25.56 42.07 32.19 42.07 19.9 26.61 32.3 10.94 26.32 10.94"/><path class="cls-2" d="M44.19,42.65h.27a10.21,10.21,0,0,0,2.9-.41,13.75,13.75,0,0,0,5.31-3l1-.93-.37-5.45-1.49,1.8A10.91,10.91,0,0,1,47.52,38a7.29,7.29,0,0,1-2.68.52h-.09c-3.86,0-6-2.23-6.64-6.82L38,30.93H54.75l0-1.73c0-3.95-.69-7-2-9-1.66-2.55-4.52-3.86-8.49-3.88a10,10,0,0,0-7.18,2.62,12.32,12.32,0,0,0-3.57,6.61,19.59,19.59,0,0,0-.42,4.21,14.66,14.66,0,0,0,2.59,8.88,10.05,10.05,0,0,0,8.49,4M38,26.75l0-.32A6.62,6.62,0,0,1,38.88,24,5.76,5.76,0,0,1,44.34,21a6,6,0,0,1,5.52,2.81,6.57,6.57,0,0,1,.9,2.42l.06.49Z"/><path class="cls-2" d="M69.32,42.65h.27a10.09,10.09,0,0,0,2.89-.41,13.78,13.78,0,0,0,5.32-3l1-.93-.37-5.45-1.5,1.8A10.84,10.84,0,0,1,72.64,38a7.2,7.2,0,0,1-2.67.52h-.1c-3.85,0-6-2.23-6.64-6.82l-.08-.72H79.88l0-1.73c0-3.95-.68-7-2-9-1.66-2.55-4.52-3.86-8.49-3.88a10.06,10.06,0,0,0-7.18,2.62,12.31,12.31,0,0,0-3.56,6.61,19.59,19.59,0,0,0-.42,4.21,14.53,14.53,0,0,0,2.59,8.88,10.05,10.05,0,0,0,8.49,4m-6.18-15.9,0-.32A6.62,6.62,0,0,1,64,24,5.74,5.74,0,0,1,69.46,21,6,6,0,0,1,75,23.84a6.23,6.23,0,0,1,.9,2.42l.07.49Z"/><path class="cls-2" d="M93.6,47.79h.26c3.52,0,6.31-1,8.31-2.89A7.24,7.24,0,0,0,104.3,41a27.87,27.87,0,0,0,.2-4.36V16.92H99.7V19.8l0,0a8.81,8.81,0,0,0-7.25-3.44,10.06,10.06,0,0,0-3.94.76,9.33,9.33,0,0,0-4,3.16,11.39,11.39,0,0,0-1.93,4.16,16.45,16.45,0,0,0-.46,3.93,12.78,12.78,0,0,0,2.27,7.85,8.73,8.73,0,0,0,7.46,3.75,10.19,10.19,0,0,0,7-2.93l.8-.8,0,1.89c-.21,3.7-2.29,5.51-6.36,5.53h-.13a13.43,13.43,0,0,1-3.47-.45,15.89,15.89,0,0,1-3.49-1.37L84.56,41v4.53l1,.5a15.84,15.84,0,0,0,3.3,1.18,18.53,18.53,0,0,0,4.76.63m6-19.91a10.51,10.51,0,0,1-.4,2.83A7.08,7.08,0,0,1,97,34.32a6,6,0,0,1-3.87,1.43H93a5.43,5.43,0,0,1-4.66-2.23,8.39,8.39,0,0,1-1.41-5c0-3.66,1.14-5.93,3.62-6.94A6.89,6.89,0,0,1,93.22,21,6,6,0,0,1,98,23a7.25,7.25,0,0,1,1.59,4.86"/><path class="cls-2" d="M115.61,42.65v-.36h0l.07.36a9.29,9.29,0,0,0,7.09-3.19l.18-.21v2.82h4.87V25.62l-.06-2.56A6.28,6.28,0,0,0,125,17.9a10.53,10.53,0,0,0-5.79-1.58,14.36,14.36,0,0,0-8.84,3.08l-.9.71v5.07l1.77-1.62A10.34,10.34,0,0,1,113.8,22a10.87,10.87,0,0,1,4.45-1,6.52,6.52,0,0,1,3.23.83,2.77,2.77,0,0,1,1.59,2.48,2.35,2.35,0,0,1-1.27,2.07,12.2,12.2,0,0,1-3.08,1.33l-3.6,1.18c-3.31,1.1-5.32,2.33-6.16,3.78a5.82,5.82,0,0,0-.76,3.23,6.26,6.26,0,0,0,2.13,5,8,8,0,0,0,5.28,1.75m.89-3.74h-.23a3.38,3.38,0,0,1-2.26-.79,2.68,2.68,0,0,1-1-2.18,3.45,3.45,0,0,1,1.5-2.85,11.23,11.23,0,0,1,3.34-1.42,42.78,42.78,0,0,0,4.95-1.79l.1,0v1.64c-.06,3.81-1.56,6.14-4.6,7.11a5.86,5.86,0,0,1-1.85.32"/><path class="cls-2" d="M137.52,29.44a10.28,10.28,0,0,1,1.38-5.76A5.82,5.82,0,0,1,144,21c2.74,0,4.19,1.29,4.43,3.89.06.67.1,1.44.1,2.27V42.07h4.86V27.3l0-2.28c-.09-4.28-1.59-7-4.45-8.08a9.48,9.48,0,0,0-3.42-.62c-3.28,0-6,1.58-8,4.71l-.08.14V16.92h-4.83V42.07h4.86Z"/><path class="cls-2" d="M25,53.69a39.57,39.57,0,0,0-4-.2H10.62V84.33h5.05V74H20a22,22,0,0,0,4.54-.34,9.22,9.22,0,0,0,4.14-2.1c2.09-1.88,3.17-4.77,3.22-8.6a10.69,10.69,0,0,0-1.62-6A7.3,7.3,0,0,0,25,53.69m-9.37,5H21a20.38,20.38,0,0,1,2.2.1c2.5.26,3.71,1.89,3.71,5,0,2.21-.65,3.74-1.87,4.57-.85.61-2.49.91-4.88.91H15.67Z"/><path class="cls-2" d="M45.4,58.65a10,10,0,0,0-7.12,2.61,12.37,12.37,0,0,0-3.53,6.6,18.74,18.74,0,0,0-.41,4.19,14.61,14.61,0,0,0,2.56,8.86,10,10,0,0,0,8.42,4h.24a10.09,10.09,0,0,0,2.89-.41,13.51,13.51,0,0,0,5.27-3l1-.92-.36-5.45L52.87,77a10.8,10.8,0,0,1-4.26,3.26,7.46,7.46,0,0,1-2.74.52h0c-3.81,0-6-2.23-6.57-6.81l-.08-.71H55.78l0-1.73c0-3.93-.68-6.95-2-9-1.65-2.54-4.48-3.85-8.42-3.87m-6.2,10.4,0-.32a6.63,6.63,0,0,1,.83-2.47,5.67,5.67,0,0,1,5.4-2.92,6,6,0,0,1,5.46,2.81,6.29,6.29,0,0,1,.9,2.41l.06.49Z"/><path class="cls-2" d="M76.72,59.27a9.32,9.32,0,0,0-3.39-.62c-3.25,0-5.91,1.58-7.88,4.7l-.08.13V59.25H60.58V84.33h4.83V71.73A10.3,10.3,0,0,1,66.77,66a5.76,5.76,0,0,1,5.09-2.65c2.71,0,4.15,1.29,4.39,3.88.06.68.09,1.44.09,2.27V84.33h4.83V69.59l0-2.26c-.09-4.27-1.57-7-4.41-8.06"/><path class="cls-2" d="M102.24,59.27a9.4,9.4,0,0,0-3.39-.62c-3.26,0-5.91,1.58-7.89,4.7l-.07.13V59.25H86.1V84.33h4.82V71.73A10.21,10.21,0,0,1,92.29,66a5.74,5.74,0,0,1,5.08-2.65c2.72,0,4.15,1.29,4.4,3.88.06.68.09,1.44.09,2.27V84.33h4.82V69.59l0-2.26c-.1-4.27-1.58-7-4.41-8.06"/><polygon class="cls-2" points="120.75 77.31 113.98 59.48 113.89 59.25 108.6 59.25 118.31 83.59 115.85 90.04 121.16 90.04 131.93 59.73 132.1 59.25 126.88 59.25 120.75 77.31"/><polygon class="cls-2" points="155.38 59.25 149.07 59.25 140.48 70.61 140.48 53.34 135.66 53.34 135.66 84.33 140.48 84.33 140.48 73.32 149.16 84.19 149.27 84.33 155.67 84.33 145.72 71.82 155.38 59.25"/><path class="cls-2" d="M161.45,52.92a3.93,3.93,0,0,0-2.82.9,2,2,0,0,0-.51,1.44c0,1.07.56,2.36,3.16,2.36h.2c2.44,0,3-1.29,3-2.4s-.58-2.21-3-2.3"/><path class="cls-2" d="M160.25,59.52l-1.35-.4V84.33h4.82V59.11l-1.25.41a5.36,5.36,0,0,1-2.22,0"/><path class="cls-2" d="M186.25,62l-.26-.35a7.7,7.7,0,0,0-3-2.18,10.25,10.25,0,0,0-4-.79,9.6,9.6,0,0,0-4.7,1.11,9.28,9.28,0,0,0-3.63,3.69A17.46,17.46,0,0,0,168.84,72a21.8,21.8,0,0,0,.48,4.79,10.51,10.51,0,0,0,3,5.79,8.55,8.55,0,0,0,6.09,2.36h.14c3,0,5.69-1.43,8-4.26v3.68h4.47v-31h-4.82ZM184,64.71a6.18,6.18,0,0,1,2.11,3.74,15.5,15.5,0,0,1,.24,2.79,12.07,12.07,0,0,1-1.75,6.92,5.67,5.67,0,0,1-5,2.58,5.1,5.1,0,0,1-4.12-1.89,8.16,8.16,0,0,1-1.66-4.34,16.67,16.67,0,0,1-.17-2.74,16.12,16.12,0,0,1,.25-3.11,7.2,7.2,0,0,1,.87-2.56c1-1.84,2.62-2.74,5.06-2.76A6.26,6.26,0,0,1,184,64.71"/><path class="cls-2" d="M175.43,42.68a11.69,11.69,0,0,0,7.82-3.11l.38-.34L186,42.07h6.08l-5.23-6.54,1.38-1.68,1.37-2V22.24l-1.24,2.93a40.79,40.79,0,0,1-1.85,3.67,33.88,33.88,0,0,1-2,3.28l-.32.42-5.55-6.71.42-.3a16.25,16.25,0,0,0,4.68-5.21,7,7,0,0,0,.76-3.28,6,6,0,0,0-2.31-4.92,8.93,8.93,0,0,0-5.42-1.55,11.79,11.79,0,0,0-3.14.41,7.41,7.41,0,0,0-3.93,2.52,6.62,6.62,0,0,0-1.54,4.29,8.67,8.67,0,0,0,.47,2.87,13.11,13.11,0,0,0,2.71,4.47l.34.37-.62.44c-3.49,2.66-5.25,5.53-5.24,8.54a7.59,7.59,0,0,0,.62,3.07,7.81,7.81,0,0,0,1.85,2.58,9,9,0,0,0,2.92,1.76,11.66,11.66,0,0,0,4.25.79m1.23-27.76v-.36h0l.05.36c1.92,0,2.83.83,2.87,2.54a3.7,3.7,0,0,1-.41,1.72A8.1,8.1,0,0,1,178,20.81a11.12,11.12,0,0,1-1.39,1.31l-.72.59-.72-.84a7.64,7.64,0,0,1-1.33-2,3.66,3.66,0,0,1-.38-1.8,3,3,0,0,1,.84-2.25,3.11,3.11,0,0,1,2.32-.9M174.8,28.85l6,7.21-.26.25a7.1,7.1,0,0,1-4.83,2,4.84,4.84,0,0,1-3.18-1.1,3.42,3.42,0,0,1-1.4-2.79c0-1.63,1.05-3.36,3.07-5.14Z"/><polygon class="cls-3" points="19.72 101.54 19.72 111.36 21.2 111.36 21.2 111.89 15.63 111.89 15.63 111.36 17.06 111.36 17.06 101.54 15.63 101.54 15.63 101.02 21.2 101.02 21.2 101.54 19.72 101.54"/><path class="cls-3" d="M25.84,101l4.3,6.39v-4.69a2.11,2.11,0,0,0-.14-1c-.1-.15-.36-.23-.77-.23h-.51V101H32v.52h-.39c-.41,0-.66.07-.76.19a1.2,1.2,0,0,0-.16.75V112h-.58l-6.44-9.55v7.85a1.52,1.52,0,0,0,.14.84c.09.13.34.19.76.19h.63v.53H21.78v-.53h.43c.44,0,.7-.07.79-.22a3.19,3.19,0,0,0,.12-1.16v-7.5a1.58,1.58,0,0,0-.11-.78c-.08-.1-.31-.16-.69-.16h-.59V101Z"/><path class="cls-3" d="M39.11,101.07l.13,2.91h-.65a4.91,4.91,0,0,0-1.16-2,2.34,2.34,0,0,0-1.58-.57,1.82,1.82,0,0,0-1.3.49A1.57,1.57,0,0,0,34,103a1.15,1.15,0,0,0,.54,1.1,7.24,7.24,0,0,0,1.84.58A4.58,4.58,0,0,1,39.1,106a3.41,3.41,0,0,1,.69,2.19,4.16,4.16,0,0,1-.91,2.7A3,3,0,0,1,36.35,112a3.29,3.29,0,0,1-2.09-.73c-.3.24-.58.47-.82.7H32.9v-3.17h.63c.48,1.79,1.4,2.68,2.77,2.68a2.16,2.16,0,0,0,1.67-.64,2.1,2.1,0,0,0,.59-1.44,1.34,1.34,0,0,0-.26-.8,2.12,2.12,0,0,0-.59-.57,8.45,8.45,0,0,0-1.88-.53,3.85,3.85,0,0,1-2.26-1.18,3.27,3.27,0,0,1-.72-2.16,3.34,3.34,0,0,1,.88-2.36,2.81,2.81,0,0,1,2.19-1,3.46,3.46,0,0,1,2,.7,4.93,4.93,0,0,0,.68-.49Z"/><path class="cls-3" d="M44.77,101.54v7a3.08,3.08,0,0,0,.62,2.26,2.37,2.37,0,0,0,1.67.57,3.3,3.3,0,0,0,1.43-.3,2.26,2.26,0,0,0,1-.9,4.27,4.27,0,0,0,.36-2.06V102.4a2.07,2.07,0,0,0-.07-.71q-.07-.15-.69-.15h-.75V101h3.47v.52h-.51c-.4,0-.65,0-.74.15a1.3,1.3,0,0,0-.14.77v5.63a8,8,0,0,1-.2,1.87,2.61,2.61,0,0,1-1.1,1.44,4.74,4.74,0,0,1-2.73.63,8,8,0,0,1-1.9-.22A3.18,3.18,0,0,1,43,111a2.51,2.51,0,0,1-.74-1.16,5.78,5.78,0,0,1-.14-1.39v-6.93H40.69V101h5.57v.52Z"/><path class="cls-3" d="M56.29,106.34v5h1.42v.53H52.26v-.53h1.38v-9.82H52.26V101h5.45a5.83,5.83,0,0,1,3.58.8,2.29,2.29,0,0,1,1,1.72,2,2,0,0,1-.88,1.66,5.23,5.23,0,0,1-2.62.91v0a5,5,0,0,1,2,.87,2.33,2.33,0,0,1,.82,1.21,7.09,7.09,0,0,1,.18,1.58,2.85,2.85,0,0,0,.15,1.14.58.58,0,0,0,.53.22,2,2,0,0,0,.91-.26v.62a3.8,3.8,0,0,1-1.76.41,3,3,0,0,1-2-.64A3,3,0,0,1,58.7,109a4.28,4.28,0,0,0-.43-2.17,1.66,1.66,0,0,0-1.39-.5Zm0-4.8v4.27h1a2.15,2.15,0,0,0,1.48-.39,2.6,2.6,0,0,0,.42-1.8,2.5,2.5,0,0,0-.39-1.71,2,2,0,0,0-1.36-.37Z"/><path class="cls-3" d="M69.74,108.85H66.31L65.85,110a3.05,3.05,0,0,0-.27,1c0,.29.27.43.81.43H67v.53h-3.5v-.53h.32a1.25,1.25,0,0,0,.84-.21,3.38,3.38,0,0,0,.54-1L69,100.82h.47l4,10.54h1.13v.53H69.24v-.53h1.45Zm-3.2-.56h3l-1.43-3.77Z"/><path class="cls-3" d="M78.81,101l4.3,6.39v-4.69a2,2,0,0,0-.14-1c-.1-.15-.36-.23-.77-.23h-.51V101H85v.52h-.38a1.1,1.1,0,0,0-.78.19,1.29,1.29,0,0,0-.15.75V112H83.1l-6.44-9.55v7.85a1.62,1.62,0,0,0,.14.84c.09.13.34.19.76.19h.63v.53H74.75v-.53h.43c.44,0,.7-.07.79-.22a3.19,3.19,0,0,0,.12-1.16v-7.5a1.58,1.58,0,0,0-.11-.78c-.08-.1-.31-.16-.69-.16H74.7V101Z"/><path class="cls-3" d="M93.57,101.15l.07,3h-.53c-.49-1.86-1.38-2.79-2.68-2.79a1.3,1.3,0,0,0-1.26.77,8.31,8.31,0,0,0-.38,3.12,26.55,26.55,0,0,0,.28,5.28,1.18,1.18,0,0,0,1.25.89c1.35,0,2.33-1,3-2.88h.53l-.17,3.36h-.53c-.16-.23-.36-.47-.6-.75a3.74,3.74,0,0,1-2.38.84,4,4,0,0,1-3-1.46,5.8,5.8,0,0,1-1.33-4,6.14,6.14,0,0,1,1.33-4.11,4.12,4.12,0,0,1,3.28-1.57,3.25,3.25,0,0,1,2.13.79,4,4,0,0,0,.6-.51Z"/><path class="cls-3" d="M99,101.54v4.6h.35c1.13,0,1.78-.64,2-1.92h.53v4.44h-.53c-.09-1.33-.74-2-2-2H99v4.69h1.86c1.64,0,2.7-1,3.21-3h.56l-.23,3.57H95v-.53h1.38v-9.82H95V101h9.1l.14,3h-.52a3.68,3.68,0,0,0-1.27-2,3.74,3.74,0,0,0-2-.49Z"/><path class="cls-3" d="M115.24,111.89h-5.59v-.53H111v-9.82h-1.37V101h5.75a4.25,4.25,0,0,1,2.87.77,2.34,2.34,0,0,1,.87,1.78,2.39,2.39,0,0,1-.67,1.59,3.74,3.74,0,0,1-2.32,1v0q3.38.44,3.38,2.72a2.62,2.62,0,0,1-1.08,2.19,5.28,5.28,0,0,1-3.21.82m-1.56-10.35v4.36h.62a2.66,2.66,0,0,0,1.61-.34c.27-.21.4-.84.4-1.86A3,3,0,0,0,116,102c-.21-.29-.7-.44-1.44-.44Zm.81,4.89h-.81v4.93h.62c1,0,1.6-.15,1.87-.47a3.74,3.74,0,0,0,.41-2.18,2.53,2.53,0,0,0-.48-1.82,2.23,2.23,0,0,0-1.61-.46"/><path class="cls-3" d="M124.38,106.34v5h1.42v.53h-5.45v-.53h1.38v-9.82h-1.38V101h5.45a5.79,5.79,0,0,1,3.57.8,2.27,2.27,0,0,1,1,1.72,2,2,0,0,1-.88,1.66,5.23,5.23,0,0,1-2.62.91v0a5,5,0,0,1,2,.87,2.33,2.33,0,0,1,.82,1.21,7.09,7.09,0,0,1,.18,1.58A2.51,2.51,0,0,0,130,111a.57.57,0,0,0,.52.22,2,2,0,0,0,.92-.26v.62a3.83,3.83,0,0,1-1.76.41,2.55,2.55,0,0,1-2.84-2.93,4.28,4.28,0,0,0-.43-2.17,1.68,1.68,0,0,0-1.4-.5Zm0-4.8v4.27h1a2.17,2.17,0,0,0,1.48-.39,2.61,2.61,0,0,0,.41-1.8,2.52,2.52,0,0,0-.38-1.71,2,2,0,0,0-1.36-.37Z"/><path class="cls-3" d="M132.32,106.41a5.62,5.62,0,0,1,1.44-4,4.55,4.55,0,0,1,3.46-1.56,4.66,4.66,0,0,1,3.35,1.46,5.57,5.57,0,0,1,1.48,4.15,5.68,5.68,0,0,1-1.4,4,4.65,4.65,0,0,1-7-.09,6,6,0,0,1-1.37-4m6.71,0a32.23,32.23,0,0,0-.1-3.29,2.42,2.42,0,0,0-.47-1.28,1.51,1.51,0,0,0-1.27-.49,1.72,1.72,0,0,0-1.19.39,2,2,0,0,0-.55,1.26c-.07.58-.11,1.71-.11,3.39s0,2.77.09,3.3a2.37,2.37,0,0,0,.5,1.28,1.53,1.53,0,0,0,1.26.49,1.7,1.7,0,0,0,1.16-.39,1.88,1.88,0,0,0,.56-1.25,30.59,30.59,0,0,0,.12-3.41"/><path class="cls-3" d="M147.31,101.54v9.82h1.38v.53h-5.46v-.53h1.42v-9.82h-1.42V101h5.46v.52Zm2.2,3.16,4.49,6.66h1.26v.53h-5.71v-.53h1.33l-3.47-5.19,3.61-3.7c.29-.3.44-.52.44-.66s-.21-.27-.63-.27h-.73V101h4.15v.52h-.41a3,3,0,0,0-1.15.19,5.79,5.79,0,0,0-1.23,1Z"/><path class="cls-3" d="M159,101.54v4.6h.35c1.12,0,1.78-.64,1.95-1.92h.54v4.44h-.54c-.09-1.33-.74-2-1.95-2H159v4.69h1.85q2.46,0,3.21-3h.56l-.23,3.57H155v-.53h1.38v-9.82H155V101h9.1l.15,3h-.53a3,3,0,0,0-3.27-2.51Z"/><path class="cls-3" d="M169.21,106.34v5h1.41v.53h-5.44v-.53h1.38v-9.82h-1.38V101h5.44a5.83,5.83,0,0,1,3.58.8,2.27,2.27,0,0,1,1,1.72,2,2,0,0,1-.88,1.66,5.23,5.23,0,0,1-2.62.91v0a5,5,0,0,1,2,.87,2.39,2.39,0,0,1,.82,1.21,6.59,6.59,0,0,1,.17,1.58,2.78,2.78,0,0,0,.16,1.14.57.57,0,0,0,.53.22,2,2,0,0,0,.91-.26v.62a3.83,3.83,0,0,1-1.76.41,2.55,2.55,0,0,1-2.84-2.93,4.28,4.28,0,0,0-.43-2.17,1.68,1.68,0,0,0-1.4-.5Zm0-4.8v4.27h1a2.17,2.17,0,0,0,1.48-.39,2.61,2.61,0,0,0,.41-1.8,2.5,2.5,0,0,0-.39-1.71,2,2,0,0,0-1.35-.37Z"/><path class="cls-3" d="M183.34,101.07l.14,2.91h-.66a4.81,4.81,0,0,0-1.16-2,2.3,2.3,0,0,0-1.57-.57,1.81,1.81,0,0,0-1.3.49,1.57,1.57,0,0,0-.51,1.15,1.16,1.16,0,0,0,.53,1.1,7.38,7.38,0,0,0,1.84.58,4.62,4.62,0,0,1,2.69,1.29,3.41,3.41,0,0,1,.68,2.19,4.21,4.21,0,0,1-.9,2.7,3,3,0,0,1-2.53,1.13,3.33,3.33,0,0,1-2.1-.73c-.3.24-.57.47-.81.7h-.54v-3.17h.62c.48,1.79,1.41,2.68,2.78,2.68a2.18,2.18,0,0,0,1.67-.64,2.13,2.13,0,0,0,.58-1.44,1.33,1.33,0,0,0-.25-.8,2,2,0,0,0-.6-.57,8.27,8.27,0,0,0-1.88-.53,3.85,3.85,0,0,1-2.26-1.18,3.32,3.32,0,0,1-.71-2.16,3.37,3.37,0,0,1,.87-2.36,2.84,2.84,0,0,1,2.2-1,3.46,3.46,0,0,1,2,.7,5.62,5.62,0,0,0,.68-.49Z"/><path class="cls-3" d="M20.74,130.76v4.58H21a1.88,1.88,0,0,0,2.08-1.92h.6v4.47h-.53a2.49,2.49,0,0,0-.53-1.42,1.93,1.93,0,0,0-1.62-.6h-.26v4.71H22.3v.52H16.7v-.52h1.38v-9.82H16.7v-.53h9.12l.08,3.32h-.56c-.38-1.86-1.34-2.79-2.89-2.79Z"/><polygon class="cls-3" points="30.64 130.76 30.64 140.58 32.11 140.58 32.11 141.1 26.55 141.1 26.55 140.58 27.98 140.58 27.98 130.76 26.55 130.76 26.55 130.23 32.11 130.23 32.11 130.76 30.64 130.76"/><path class="cls-3" d="M37.42,130.23l4.31,6.39v-4.68a2,2,0,0,0-.15-1c-.09-.15-.36-.22-.77-.22H40.3v-.53h3.3v.53h-.38c-.41,0-.67.06-.77.19a1.2,1.2,0,0,0-.15.75v9.55h-.59l-6.44-9.55v7.85a1.65,1.65,0,0,0,.14.84c.09.12.35.19.76.19h.64v.52H33.36v-.52h.43c.44,0,.7-.08.79-.22a3.14,3.14,0,0,0,.13-1.16v-7.5a1.57,1.57,0,0,0-.12-.78c-.08-.11-.31-.16-.69-.16h-.59v-.53Z"/><path class="cls-3" d="M49.71,138.07H46.29l-.46,1.11a3,3,0,0,0-.27,1c0,.28.27.43.81.43H47v.52h-3.5v-.52h.31a1.27,1.27,0,0,0,.85-.21,3.53,3.53,0,0,0,.54-1L49,130h.47l4,10.55h1.12v.52H49.22v-.52h1.45Zm-3.19-.56h3l-1.43-3.77Z"/><path class="cls-3" d="M59.12,130.23l4.3,6.39v-4.68a2,2,0,0,0-.14-1c-.1-.15-.36-.22-.77-.22H62v-.53h3.3v.53h-.38c-.42,0-.67.06-.77.19a1.18,1.18,0,0,0-.16.75v9.55h-.58L57,131.7v7.85a1.65,1.65,0,0,0,.14.84c.09.12.35.19.76.19h.63v.52H55.06v-.52h.43c.44,0,.7-.08.78-.22a2.92,2.92,0,0,0,.13-1.16v-7.5a1.74,1.74,0,0,0-.11-.78c-.08-.11-.31-.16-.69-.16H55v-.53Z"/><path class="cls-3" d="M74.21,130.36l.07,3h-.53c-.49-1.85-1.38-2.78-2.67-2.78a1.31,1.31,0,0,0-1.27.77,8.31,8.31,0,0,0-.38,3.12,26.55,26.55,0,0,0,.28,5.28,1.18,1.18,0,0,0,1.25.89c1.35,0,2.33-1,3-2.88h.53l-.17,3.35h-.53c-.16-.22-.36-.46-.6-.74a3.74,3.74,0,0,1-2.38.84,4,4,0,0,1-3-1.47,5.75,5.75,0,0,1-1.32-4,6.17,6.17,0,0,1,1.32-4.11A4.13,4.13,0,0,1,71,130.08a3.24,3.24,0,0,1,2.12.8,4.68,4.68,0,0,0,.6-.52Z"/><polygon class="cls-3" points="79.94 130.76 79.94 140.58 81.42 140.58 81.42 141.1 75.86 141.1 75.86 140.58 77.28 140.58 77.28 130.76 75.86 130.76 75.86 130.23 81.42 130.23 81.42 130.76 79.94 130.76"/><path class="cls-3" d="M88.25,138.07H84.82l-.46,1.11a3,3,0,0,0-.27,1c0,.28.27.43.81.43h.6v.52H82v-.52h.32a1.23,1.23,0,0,0,.84-.21,3.29,3.29,0,0,0,.54-1L87.51,130H88l4,10.55H93.1v.52H87.75v-.52H89.2Zm-3.2-.56h3l-1.43-3.77Z"/><path class="cls-3" d="M102,141.1H92.89v-.52h1.48v-9.82H92.89v-.53h5.76v.53H97v9.82h1a6.48,6.48,0,0,0,1.27-.09,2.14,2.14,0,0,0,.91-.53,3.6,3.6,0,0,0,.84-1.09,10.19,10.19,0,0,0,.61-1.45h.5Z"/><path class="cls-3" d="M111.78,138.07h-3.43l-.45,1.11a2.82,2.82,0,0,0-.28,1c0,.28.28.43.81.43h.6v.52h-3.5v-.52h.32a1.23,1.23,0,0,0,.84-.21,3.29,3.29,0,0,0,.54-1L111,130h.47l4,10.55h1.13v.52h-5.34v-.52h1.45Zm-3.19-.56h3l-1.44-3.77Z"/><path class="cls-3" d="M118.22,140.58v-9.82h-1.36v-.53h5.51a4.88,4.88,0,0,1,3.78,1.52,5.4,5.4,0,0,1,1.4,3.83,5.82,5.82,0,0,1-.43,2.25,5.48,5.48,0,0,1-1.31,1.92,4.15,4.15,0,0,1-1.81,1.11,9.15,9.15,0,0,1-2.28.24h-4.86v-.52Zm2.66-9.82v9.82h.86c1.31,0,2.11-.39,2.38-1.16a13.32,13.32,0,0,0,.41-3.95,13,13,0,0,0-.26-3.15,2,2,0,0,0-.75-1.26,2.59,2.59,0,0,0-1.31-.3Z"/><path class="cls-3" d="M133.81,137.43l1.87-5.49a2.64,2.64,0,0,0,.23-.82c0-.23-.25-.36-.76-.36h-.75v-.53h3.34v.53h-.36a.94.94,0,0,0-.65.15,2.86,2.86,0,0,0-.38.82l-3.3,9.58h-.5l-4.22-10.55h-.91v-.53h4.89v.53h-1.16Z"/><polygon class="cls-3" points="142.01 130.76 142.01 140.58 143.49 140.58 143.49 141.1 137.93 141.1 137.93 140.58 139.35 140.58 139.35 130.76 137.93 130.76 137.93 130.23 143.49 130.23 143.49 130.76 142.01 130.76"/><path class="cls-3" d="M151,130.28l.13,2.92h-.65a4.85,4.85,0,0,0-1.16-2,2.32,2.32,0,0,0-1.58-.57,1.8,1.8,0,0,0-1.3.49,1.55,1.55,0,0,0-.51,1.14,1.14,1.14,0,0,0,.54,1.1,6.51,6.51,0,0,0,1.84.58,4.71,4.71,0,0,1,2.69,1.3,3.43,3.43,0,0,1,.68,2.19,4.23,4.23,0,0,1-.9,2.7,3.09,3.09,0,0,1-2.54,1.13,3.29,3.29,0,0,1-2.09-.73c-.3.24-.57.47-.82.7h-.54v-3.17h.63c.48,1.78,1.4,2.68,2.78,2.68a2.15,2.15,0,0,0,1.67-.65,2.09,2.09,0,0,0,.58-1.43,1.32,1.32,0,0,0-.26-.8,2.12,2.12,0,0,0-.59-.57,7.91,7.91,0,0,0-1.88-.53,3.83,3.83,0,0,1-2.26-1.19,3.24,3.24,0,0,1-.72-2.16,3.37,3.37,0,0,1,.88-2.36,2.83,2.83,0,0,1,2.19-1,3.37,3.37,0,0,1,2,.7,3.91,3.91,0,0,0,.68-.5Z"/><path class="cls-3" d="M156.77,130.76v4.6h.35c1.13,0,1.78-.64,2-1.92h.53v4.44h-.53c-.09-1.33-.74-2-2-2h-.35v4.7h1.86c1.63,0,2.71-1,3.2-3h.56l-.22,3.56h-9.44v-.52h1.38v-9.82h-1.38v-.53h9.1l.15,3h-.53a3.77,3.77,0,0,0-1.26-2,3.72,3.72,0,0,0-2-.48Z"/><path class="cls-3" d="M167.33,135.56v5h1.41v.52h-5.45v-.52h1.38v-9.82h-1.38v-.53h5.45a5.75,5.75,0,0,1,3.58.81,2.24,2.24,0,0,1,1,1.72,2.07,2.07,0,0,1-.88,1.66,5.33,5.33,0,0,1-2.63.91v0a5,5,0,0,1,2,.88,2.41,2.41,0,0,1,.82,1.21,7.73,7.73,0,0,1,.18,1.58,2.73,2.73,0,0,0,.14,1.14.58.58,0,0,0,.53.22,2,2,0,0,0,.91-.26v.61a3.79,3.79,0,0,1-1.75.41,3.08,3.08,0,0,1-2-.63,3,3,0,0,1-.82-2.29,4.28,4.28,0,0,0-.43-2.17,1.66,1.66,0,0,0-1.39-.5Zm0-4.8V135h1a2.17,2.17,0,0,0,1.48-.39,2.66,2.66,0,0,0,.41-1.8,2.54,2.54,0,0,0-.39-1.72,2,2,0,0,0-1.35-.36Z"/><path class="cls-3" d="M182.12,130.28l.14,2.92h-.66a4.64,4.64,0,0,0-1.16-2,2.32,2.32,0,0,0-1.57-.57,1.8,1.8,0,0,0-1.31.49,1.57,1.57,0,0,0-.5,1.14,1.13,1.13,0,0,0,.53,1.1,6.62,6.62,0,0,0,1.84.58,4.71,4.71,0,0,1,2.69,1.3,3.43,3.43,0,0,1,.68,2.19,4.23,4.23,0,0,1-.9,2.7,3.07,3.07,0,0,1-2.53,1.13,3.29,3.29,0,0,1-2.09-.73,10.23,10.23,0,0,0-.82.7h-.55v-3.17h.63c.48,1.78,1.41,2.68,2.78,2.68a2.15,2.15,0,0,0,1.67-.65,2,2,0,0,0,.58-1.43,1.31,1.31,0,0,0-.25-.8,2.15,2.15,0,0,0-.6-.57,7.91,7.91,0,0,0-1.88-.53,3.89,3.89,0,0,1-2.26-1.19,3.29,3.29,0,0,1-.71-2.16,3.36,3.36,0,0,1,.87-2.36,2.86,2.86,0,0,1,2.19-1,3.4,3.4,0,0,1,2,.7,4.85,4.85,0,0,0,.68-.5Z"/><path class="cls-3" d="M105,126.16h-3.57l-.5-.86a4.18,4.18,0,0,1-2.74.94,3.22,3.22,0,0,1-2.29-.74,2.42,2.42,0,0,1-.78-1.8q0-2,3-3.09a4.05,4.05,0,0,1-.64-1.86,1.82,1.82,0,0,1,.79-1.59,3.23,3.23,0,0,1,1.88-.54,3.36,3.36,0,0,1,1.82.48,1.49,1.49,0,0,1,.78,1.33c0,.82-.78,1.43-2.34,1.84l1.88,3.13a9.24,9.24,0,0,0,.77-1.28,2.52,2.52,0,0,0,.3-.88c0-.21-.14-.31-.43-.31H102v-.5h3.24v.5h-.61a.94.94,0,0,0-.47.07,5.59,5.59,0,0,0-.59,1.09,8,8,0,0,1-1,1.73l1.13,1.92H105Zm-4.32-1.23-2.37-4c-.77.29-1.16.73-1.16,1.33a4.17,4.17,0,0,0,.73,2.09c.49.81,1,1.21,1.47,1.21a2.78,2.78,0,0,0,1.33-.63m-1-5.88.53.85a1.17,1.17,0,0,0,.78-.56,2.42,2.42,0,0,0,.19-1.06,1.45,1.45,0,0,0-.29-1,1,1,0,0,0-.77-.35,1.1,1.1,0,0,0-.7.22.77.77,0,0,0-.26.58,3,3,0,0,0,.52,1.31"/></svg>