<svg id="Layer_1" data-name="Layer 1" xmlns="http://www.w3.org/2000/svg" viewBox="0 0 242 134"><defs><style>.cls-1{fill:#6fbab0;}.cls-2{fill:#5a5a61;}</style></defs><title>Artboard 12</title><path class="cls-1" d="M41.62,18.14a15.53,15.53,0,0,0-7.75,2C24.36,26,23.14,42.7,23.14,49.45c0,8.19,1.55,18,5.53,24.34,3.21,5.2,7.42,7.86,13.39,7.86C56.33,81.65,60,64.39,60,50.11c0-16.26-4.75-32-18.36-32m21,.44c4.42,5,9.29,14.5,9.29,31.87,0,24.23-10.18,39.94-30.09,39.94-21.24,0-30.65-17.7-30.65-40.83C11.19,35.18,15,25.11,19.93,19c7.42-8.74,16.93-9.51,21.91-9.51a26.47,26.47,0,0,1,20.8,9.07"/><path class="cls-1" d="M114.2,23.34A16.74,16.74,0,0,0,101.58,18C94,18,89.75,22.9,89.75,29.31c0,5.87,3.09,8.75,10.51,13.73,1.55,1.1,3.31,2.1,4.86,3.2,7,4.65,13.61,9.85,13.61,21.58a24.71,24.71,0,0,1-5,15.27c-4.64,5.64-11.39,7.41-18.92,7.41a33.63,33.63,0,0,1-16-3.87l-.66-1.11c.22-1.66.33-3.21.44-4.87s.22-3.09.22-4.53l1-.34A18.83,18.83,0,0,0,94.06,82c9.18,0,13.17-6.53,13.17-13.06,0-6.86-4.21-10.4-10.29-14.6l-5-3.21c-7-4.87-13.72-9.51-13.72-20.8,0-5.2,1.88-20.8,22.13-20.8a31.22,31.22,0,0,1,15,3.43l.34,1c-.12,1.67-.34,3.21-.45,4.87-.11,1.33-.11,2.77-.22,4.1Z"/><path class="cls-1" d="M175.27,76.12c-.33,4.53-.45,5.42-.55,9.73l-.45.89a33.52,33.52,0,0,1-16,3.65c-8.85,0-17.15-2.33-24.12-10.29-8.85-10.29-9.4-23.46-9.4-29.1,0-23.23,11-41.49,33.85-41.49a38.06,38.06,0,0,1,15.71,3.21l.45.88c-.12,1.55-.34,3.1-.45,4.65s-.22,3.21-.33,4.76l-.88.44c-1.66-1.33-5.54-4.65-13.5-4.65C143.51,18.8,137,33.85,137,50.67,137,70,146.61,81,159.89,81a21.79,21.79,0,0,0,14.6-5.31Z"/><path class="cls-1" d="M214.66,32.08c0-12.83-8.63-13-12.95-13-2.1,0-4.31.11-6.42.22q-.16,13.94,0,27.88c9.85.55,19.37-.78,19.37-15.05M183.79,10.84c2.76,0,5.42,0,8.07-.11,3.21,0,8.41-.22,11.62-.22,6.31,0,22.57,0,22.57,21.13,0,17-11,20.47-14.05,21.35l5.64,11.07c9,17,9.41,17.92,13.17,24.12l-.44.77c-5.2,0-7.42.11-12.18.44l-1-.66A79.9,79.9,0,0,0,213.44,80c-2.77-5.87-7.08-15.16-9.85-20.91l-1.77-3.77c-2.88.12-3.54.12-6.42.12,0,8.07.11,22,.67,33.08l-.56.55c-5,0-6,0-11.06.33l-.55-.66v-3.1c.22-7.19.22-14.27.22-21.46,0-4-.11-39.72-.88-52.67Z"/><path class="cls-2" d="M20.13,103.44a3.82,3.82,0,0,0-3-1.24,2.87,2.87,0,0,0-3.06,3.06c0,1.53.73,2.28,2.61,3.5l1.16.76c1.6,1.07,3.27,2.25,3.27,5a5.17,5.17,0,0,1-1,3.24,4.71,4.71,0,0,1-4,1.63,7.26,7.26,0,0,1-3.57-.92l-.12-.25c0-.26,0-.53.07-.79l.08-.75.23-.06a3.42,3.42,0,0,1,.22.28,4.39,4.39,0,0,0,3.09,1.24,3.26,3.26,0,0,0,3.42-3.49c0-1.93-1.21-2.89-2.63-3.88l-1.17-.76c-1.79-1.19-3.27-2.15-3.27-4.63a4.72,4.72,0,0,1,1.17-3.2,4.82,4.82,0,0,1,3.52-1.29,6.44,6.44,0,0,1,3.22.79l.1.23a6.93,6.93,0,0,0-.1.78c0,.2,0,.41-.05.61Z"/><path class="cls-2" d="M30.34,117.27c0,.46-.06.71-.11,1.4l-.12.22a5.31,5.31,0,0,1-2.33.51c-3.35,0-5.2-2.36-5.2-6.61A8.64,8.64,0,0,1,24,107.62a4.5,4.5,0,0,1,3.75-1.75,5.29,5.29,0,0,1,2.28.51l.13.2c-.08.66-.1.89-.13,1.32l-.15.08a2.93,2.93,0,0,0-2.1-.79h-.16c-3.24.15-3.39,4.18-3.39,5.52a7.2,7.2,0,0,0,1.06,4.18,3.07,3.07,0,0,0,2.61,1.19,3.35,3.35,0,0,0,2.31-.88Z"/><path class="cls-2" d="M38.09,108.13a2.47,2.47,0,0,0-2.05-1c-2.33,0-3.27,2.11-3.27,5.4a8.39,8.39,0,0,0,1,4.43A2.54,2.54,0,0,0,36,118.13a2.81,2.81,0,0,0,1.6-.48c1.34-1,1.54-3.26,1.54-4.74,0-1.24-.13-3.54-1.06-4.78m2.25,1.19a11.75,11.75,0,0,1,.46,3.49,8.08,8.08,0,0,1-1.24,4.77,4.32,4.32,0,0,1-3.63,1.79,4.25,4.25,0,0,1-3.44-1.59,8.42,8.42,0,0,1-1.37-5.07c0-.86,0-3.72,1.62-5.47a4.36,4.36,0,0,1,3.32-1.37c2.23,0,3.62,1.37,4.28,3.45"/><path class="cls-2" d="M47.13,107.39l-2.2,0v6.84c0,.46,0,.91,0,1.34,0,1.37,0,2.46,1.35,2.46a1.86,1.86,0,0,0,1-.3l.15.1a4.44,4.44,0,0,0-.08,1.06l-.15.21a3.78,3.78,0,0,1-1.37.25,2.21,2.21,0,0,1-2.4-2,11.83,11.83,0,0,1-.1-2.15V113.8c0-2.38,0-2.79,0-6.46l-1.47,0-.13-.15c.05-.38.05-.61.07-1l.13-.15c.48,0,.94,0,1.42.05v-1.09a16.77,16.77,0,0,0-.08-2l.13-.15a11.73,11.73,0,0,0,1.42-.35l.15.15c-.08,1.09-.08,1.54-.1,3.49,1.12,0,1.42,0,2.3-.07l.13.15c0,.38-.07.61-.1,1Z"/><path class="cls-2" d="M53.24,107.39l-2.2,0v6.84c0,.46,0,.91,0,1.34,0,1.37,0,2.46,1.34,2.46a1.83,1.83,0,0,0,1-.3l.16.1a4.44,4.44,0,0,0-.08,1.06l-.15.21a3.84,3.84,0,0,1-1.37.25,2.23,2.23,0,0,1-2.41-2,11.83,11.83,0,0,1-.1-2.15V113.8c0-2.38,0-2.79,0-6.46l-1.47,0-.13-.15a8.27,8.27,0,0,0,.08-1l.13-.15c.48,0,.93,0,1.42.05v-1.09a19.14,19.14,0,0,0-.08-2l.13-.15a11.15,11.15,0,0,0,1.41-.35l.16.15c-.08,1.09-.08,1.54-.1,3.49,1.11,0,1.41,0,2.3-.07l.13.15c0,.38-.08.61-.1,1Z"/><path class="cls-2" d="M56.94,101.79a6.09,6.09,0,0,0-1.52.13l-.18-.15c0-.79,0-.91,0-1.57l.17-.15A12.4,12.4,0,0,0,57,99.87l.17.15c0,.76,0,1,0,1.6Zm-.08,17.33a6.48,6.48,0,0,0-1.47,0l-.15-.15c0-1.32.1-2.48.1-5.7,0-2.31,0-4.81-.12-6.91l.12-.13a12.62,12.62,0,0,0,1.52-.26l.13.16c-.05,1-.1,2-.1,4.25,0,.18,0,4.08,0,5.73,0,.76.05,1.49.07,2.25V119Z"/><path class="cls-2" d="M58.84,117.17a4.2,4.2,0,0,0,2.84,1.09,2.39,2.39,0,0,0,2.5-2.51c0-1.37-.83-1.82-1.85-2.38l-.81-.43c-1.62-.89-2.88-1.57-2.88-3.52a3.47,3.47,0,0,1,.83-2.33,4.12,4.12,0,0,1,3.09-1.19,6.73,6.73,0,0,1,2.71.56l.08.17c0,.21,0,.43-.08.63s0,.46,0,.69l-.15,0a3.59,3.59,0,0,0-2.48-.94,2.13,2.13,0,0,0-2.41,2.18c0,1.24.83,1.72,1.7,2.18l1,.51c1.34.68,2.94,1.49,2.94,3.67,0,1.47-.94,3.77-4.18,3.77a7.58,7.58,0,0,1-3-.6l-.1-.23c0-.23,0-.46,0-.69s0-.4,0-.63Z"/><path class="cls-2" d="M69.1,119.12a8.08,8.08,0,0,0-1.47,0L67.5,119c0-2.86.16-10.56.16-13,0-2,0-4-.18-5.93l.15-.15a13.87,13.87,0,0,0,1.57-.23l.13.13c0,1.44-.1,2.91-.13,4.36,0,.94,0,2.76,0,3.29a5.69,5.69,0,0,1,3.7-1.6,2.88,2.88,0,0,1,2.68,1.47c.46.89.48,1.93.51,3.88v2.51c0,2.12,0,3.57.08,5.19l-.13.15c-.69,0-.81,0-1.49,0l-.11-.13c0-.73.06-1.47.06-2.21,0-1.46,0-3.11,0-5.54,0-1.49,0-2.64-.64-3.34a1.89,1.89,0,0,0-1.54-.69,5.06,5.06,0,0,0-3.17,1.7c-.05,5.72,0,7.19.08,10Z"/><path class="cls-2" d="M95.35,116.74c-.06.63-.08.81-.11,1.55l-.12.2a7.2,7.2,0,0,1-3.67,1c-4.59,0-7.4-3.83-7.4-9a11.45,11.45,0,0,1,2-6.87,6.42,6.42,0,0,1,5.5-2.61,8.26,8.26,0,0,1,3.49.74l.1.23c0,.2-.07.38-.1.58l-.08.83-.15.08a4.85,4.85,0,0,0-3.26-1.14c-4.44,0-5.81,4.69-5.81,8.08,0,4.43,2.29,7.73,5.78,7.73a5.33,5.33,0,0,0,3.67-1.4Z"/><path class="cls-2" d="M98.44,119.12a8.06,8.06,0,0,0-1.47,0l-.13-.13c0-2.86.15-10.56.15-13,0-2,0-4-.17-5.93L97,100a13.87,13.87,0,0,0,1.57-.23l.13.13c-.06,1.44-.1,2.91-.13,4.36,0,.94,0,2.76-.05,3.29a5.67,5.67,0,0,1,3.7-1.6,2.89,2.89,0,0,1,2.68,1.47c.46.89.48,1.93.51,3.88v2.51c0,2.12,0,3.57.07,5.19l-.12.15c-.69,0-.81,0-1.5,0l-.1-.13c0-.73,0-1.47,0-2.21,0-1.46,0-3.11,0-5.54,0-1.49,0-2.64-.63-3.34a1.89,1.89,0,0,0-1.54-.69,5,5,0,0,0-3.17,1.7c0,5.72,0,7.19.08,10Z"/><path class="cls-2" d="M113.66,111.57c-2.33.54-2.5.56-3.11.89a3,3,0,0,0-1.7,2.84c0,1.39.69,2.78,2.31,2.78a3.66,3.66,0,0,0,2.5-1.16Zm0,6.72a4.28,4.28,0,0,1-2.81,1.06c-2.3,0-3.54-1.85-3.54-4a4.34,4.34,0,0,1,1.36-3.32,7.72,7.72,0,0,1,3.55-1.41l1.44-.31c0-1.72,0-3.16-2.3-3.16a4.31,4.31,0,0,0-2.81.91l-.18-.1a8.14,8.14,0,0,0,.1-1.22l.13-.18a6.92,6.92,0,0,1,3.14-.68,3.06,3.06,0,0,1,3,1.49c.41.79.41,1.45.38,3.52V114a45.18,45.18,0,0,0,.16,5l-.16.18a10.87,10.87,0,0,0-1.29,0l-.15-.15Z"/><path class="cls-2" d="M119.52,119.12a12.52,12.52,0,0,0-1.5,0l-.12-.13c0-1,0-1.82,0-3.67,0-2.46,0-6.67-.2-8.94l.1-.16a6.8,6.8,0,0,0,1.49-.23l.15.16c0,.53,0,1.11,0,1.8.31-.61,1-2.13,2.69-2.13a2.07,2.07,0,0,1,.91.2l.1.18a4,4,0,0,1,0,.6,6.61,6.61,0,0,0,0,.77l-.15.1a2.4,2.4,0,0,0-1.11-.28,2.1,2.1,0,0,0-1.4.56c-.81.83-.88,2.43-.88,4.91,0,.3,0,3.92.15,6.08Z"/><path class="cls-2" d="M126.21,101.79a6.09,6.09,0,0,0-1.52.13l-.18-.15c0-.79,0-.91,0-1.57l.18-.15a12,12,0,0,0,1.52-.18l.18.15c0,.76,0,1,0,1.6Zm-.08,17.33a6.48,6.48,0,0,0-1.47,0l-.15-.15c0-1.32.1-2.48.1-5.7,0-2.31,0-4.81-.12-6.91l.12-.13a12.62,12.62,0,0,0,1.52-.26l.13.16c-.05,1-.1,2-.1,4.25,0,.18,0,4.08,0,5.73,0,.76.05,1.49.07,2.25V119Z"/><path class="cls-2" d="M133.05,107.39l-2.21,0v6.84c0,.46,0,.91,0,1.34,0,1.37,0,2.46,1.34,2.46a1.86,1.86,0,0,0,1-.3l.15.1a5.06,5.06,0,0,0-.07,1.06l-.16.21a3.77,3.77,0,0,1-1.36.25,2.21,2.21,0,0,1-2.41-2,11.83,11.83,0,0,1-.1-2.15V113.8c0-2.38,0-2.79,0-6.46l-1.47,0-.13-.15c0-.38,0-.61.08-1l.12-.15c.49,0,.94,0,1.42.05v-1.09a19.85,19.85,0,0,0-.07-2l.12-.15a11.29,11.29,0,0,0,1.42-.35l.15.15c-.07,1.09-.07,1.54-.1,3.49,1.12,0,1.42,0,2.31-.07l.12.15c0,.38-.07.61-.1,1Z"/><path class="cls-2" d="M137.86,118.89c-.05-.1-.08-.23-.13-.35-.58-2-3.26-10.11-4.07-12.21l.15-.18a11.36,11.36,0,0,0,1.49-.08l.2.16.08.28c.23.93.43,1.54,1.62,5.52l1.45,4.76,1.54-5.32c.53-1.72.61-2.08,1.42-5.19l.2-.15c.58,0,.74,0,1.32,0l.15.15c-.46,1.24-.68,2-1.37,4.13l-1.57,5c-1.36,4.41-1.8,5.77-2.56,8.76l-.17.18a10.19,10.19,0,0,0-1.47,0l-.1-.15c.48-1.24.78-2,1.54-4.43Z"/><path class="cls-2" d="M153,109.7c2.48,0,3.27-.41,3.67-.66a4.4,4.4,0,0,0,.68-5.73c-.66-.73-1.49-.88-2.83-.88-.66,0-1.42,0-2.08.07,0,2.16,0,3.55,0,7.17a3.63,3.63,0,0,0,.56,0m-2.18-8.46c1.09,0,2.86-.1,4-.1a6,6,0,0,1,3,.6,4.53,4.53,0,0,1,1.87,4.06,4.92,4.92,0,0,1-1.29,3.64,5.38,5.38,0,0,1-2.41,1.25l1.4,2.5c1,1.78,1.95,3.45,3.44,5.73l-.07.18c-.89,0-1.09,0-1.8.07l-.23-.15c-.28-.51-.33-.64-1-2-.83-1.6-2.25-4.08-3.11-5.68l-.26-.43c-.7,0-1,0-1.85,0,0,2.61.08,5.93.18,8l-.15.15c-.71,0-.83,0-1.49,0l-.16-.16c0-1.92,0-2.25,0-4,0-.1,0-10.44-.23-13.63Z"/><path class="cls-2" d="M168.69,111.19a7.9,7.9,0,0,0-.15-1.77,2.67,2.67,0,0,0-2.53-2.35c-1.62,0-2.79,1.59-3,4.12Zm-5.8,1.22c0,3.11,1.07,5.7,4.13,5.7a4.12,4.12,0,0,0,2.71-1l.18.1a7.86,7.86,0,0,0-.1,1.29l-.15.21a3.84,3.84,0,0,1-.94.43,8.29,8.29,0,0,1-2.05.25,4.73,4.73,0,0,1-3.95-1.82,7.8,7.8,0,0,1-1.4-5c0-4.18,2-6.69,4.77-6.69a3.87,3.87,0,0,1,3.21,1.62,8.5,8.5,0,0,1,1,4.74l-.18.15Z"/><path class="cls-2" d="M176,107.29c-1.65,0-2.61,1.32-2.61,3.22s1,3.24,2.66,3.24c1.45,0,2.51-1.16,2.51-3s-.91-3.45-2.56-3.45m-2.91,13.55c0,1.52,1.29,2.61,3.11,2.61s3.07-1.14,3.07-2.55a2,2,0,0,0-.66-1.55c-.56-.51-1.55-.89-3.65-1.67a4,4,0,0,0-1.87,3.16m7.62-13.42c-.94-.08-1.14-.08-2.3-.1a3.71,3.71,0,0,1,1.67,3.34,4.12,4.12,0,0,1-5,4.08,7.22,7.22,0,0,0-.58,1.14l0,.18c.43.15,2.53.91,3,1.11,1.54.58,3.22,1.27,3.22,3.52,0,1.78-1.37,3.8-4.66,3.8-3,0-4.54-1.75-4.54-3.52s1.09-2.61,2.36-3.73a4.48,4.48,0,0,1-.91-.6l-.08-.23c.48-.94.53-1,1.09-2a4,4,0,0,1-2.15-3.72,4.74,4.74,0,0,1,1.26-3.42,4.79,4.79,0,0,1,3.65-1.17l2.08,0,2,0,.11.15a5.48,5.48,0,0,0-.08,1Z"/><path class="cls-2" d="M189.47,117.9a5.11,5.11,0,0,1-3.6,1.45,3.07,3.07,0,0,1-3.16-2.23,9.38,9.38,0,0,1-.23-2.66v-2.18c0-.68,0-2.25,0-3.44,0-1.35,0-1.9-.05-2.54l.13-.12a14,14,0,0,0,1.47-.05l.12.15c-.07,2-.1,4-.1,6.08,0,.35,0,2.13,0,2.51,0,.83,0,3.26,2.35,3.26a4.28,4.28,0,0,0,3-1.57c0-4.76,0-7.55-.1-10.26l.12-.12c.64,0,.76,0,1.45-.05l.15.15c-.08,2-.08,2.15-.08,7.52,0,2.36,0,3.32.13,5.17l-.15.15c-.61,0-.76,0-1.37,0l-.15-.15Z"/><path class="cls-2" d="M195.4,119.12a6.64,6.64,0,0,0-1.47,0l-.13-.15v-8.23c0-4.41,0-7.86-.25-10.67l.15-.15a8.46,8.46,0,0,0,1.5-.23l.15.16c0,1.52,0,3.34,0,5.11,0,4,.1,11.55.22,14Z"/><path class="cls-2" d="M203.71,111.57c-2.33.54-2.51.56-3.12.89a3,3,0,0,0-1.7,2.84c0,1.39.69,2.78,2.31,2.78a3.69,3.69,0,0,0,2.51-1.16Zm0,6.72a4.28,4.28,0,0,1-2.81,1.06c-2.31,0-3.55-1.85-3.55-4a4.32,4.32,0,0,1,1.37-3.32,7.64,7.64,0,0,1,3.55-1.41l1.44-.31c0-1.72,0-3.16-2.31-3.16a4.31,4.31,0,0,0-2.81.91l-.18-.1a8.14,8.14,0,0,0,.1-1.22l.13-.18a6.92,6.92,0,0,1,3.14-.68,3.07,3.07,0,0,1,3,1.49c.4.79.4,1.45.38,3.52V114a45.9,45.9,0,0,0,.15,5l-.15.18a11.13,11.13,0,0,0-1.3,0l-.15-.15Z"/><path class="cls-2" d="M211.76,107.39l-2.2,0v6.84c0,.46,0,.91,0,1.34,0,1.37,0,2.46,1.34,2.46a1.89,1.89,0,0,0,1-.3l.15.1a4.44,4.44,0,0,0-.08,1.06l-.15.21a3.78,3.78,0,0,1-1.37.25,2.21,2.21,0,0,1-2.4-2,11.83,11.83,0,0,1-.1-2.15V113.8c0-2.38,0-2.79,0-6.46l-1.47,0-.13-.15c.05-.38.05-.61.08-1l.12-.15c.48,0,.94,0,1.42.05v-1.09a16.77,16.77,0,0,0-.08-2l.13-.15a11.73,11.73,0,0,0,1.42-.35l.15.15c-.07,1.09-.07,1.54-.1,3.49,1.12,0,1.42,0,2.3-.07l.13.15c-.05.38-.07.61-.1,1Z"/><path class="cls-2" d="M219.84,108.13a2.45,2.45,0,0,0-2.05-1c-2.33,0-3.26,2.11-3.26,5.4a8.39,8.39,0,0,0,1,4.43,2.54,2.54,0,0,0,2.28,1.19,2.78,2.78,0,0,0,1.59-.48c1.35-1,1.55-3.26,1.55-4.74,0-1.24-.13-3.54-1.07-4.78m2.26,1.19a11.75,11.75,0,0,1,.46,3.49,8,8,0,0,1-1.25,4.77,4.29,4.29,0,0,1-3.62,1.79,4.21,4.21,0,0,1-3.44-1.59,8.42,8.42,0,0,1-1.37-5.07c0-.86,0-3.72,1.62-5.47a4.35,4.35,0,0,1,3.32-1.37c2.23,0,3.62,1.37,4.28,3.45"/><path class="cls-2" d="M226.41,119.12a12.35,12.35,0,0,0-1.49,0l-.13-.13c0-1,.05-1.82.05-3.67,0-2.46,0-6.67-.2-8.94l.1-.16a6.8,6.8,0,0,0,1.49-.23l.15.16c0,.53,0,1.11,0,1.8.31-.61,1-2.13,2.69-2.13a2,2,0,0,1,.91.2l.1.18c0,.2,0,.4-.05.6s0,.51,0,.77l-.16.1a2.4,2.4,0,0,0-1.11-.28,2,2,0,0,0-1.39.56c-.81.83-.89,2.43-.89,4.91,0,.3,0,3.92.15,6.08Z"/></svg>