<svg id="Layer_1" data-name="Layer 1" xmlns="http://www.w3.org/2000/svg" viewBox="0 0 537.32 170.08"><defs><style>.cls-1{fill:#1a2b68;}</style></defs><path class="cls-1" d="M214.68,169.58h4.22V149.83c0-6,1.87-8.2,7.08-8.2h6v-3.85h-5.22c-8.57,0-12,3.35-12,12.05Zm109.57,0h4.23V149.83c0-6,1.86-8.2,7.08-8.2h6v-3.85h-5.21c-8.58,0-12.06,3.35-12.06,12.05ZM4.48,127.22H0v42.36H26.71v-4.1H4.48Zm152.06,10.56h-5.35v3.85h5.35v28h4.22v-28h11.31v-3.85H160.76v-1.12c0-7.08,2-9.32,8.07-9.32h4.48v-3.85h-3.73c-9.31,0-13,3.73-13,13.42Zm-25.35,0h-5.71l-15,12.54V123.49h-4.23v46.09h4.23V154.92L126,169.58h5.83l-18.38-17.15ZM298,165.73c-4.72,0-6.83-1.74-6.83-5.84s2.11-6.09,6.46-6.09h7.58v-3.6H298c-7.33,0-10.93,2.86-10.93,9.69s3.6,9.69,11.55,9.69h15V149.83c0-8.7-3.22-12.05-11.92-12.05H290.71v3.85h11.68c5.09,0,7.2,2.23,7.2,8.2v15.9Zm-251.2.5C40,166.23,37,162.5,37,153.68c0-8.57,2.86-12.42,9.57-12.42S56.4,145,56.4,153.93c0,8.69-2.85,12.3-9.56,12.3m36,0c-6.84,0-9.82-3.73-9.82-12.55,0-8.57,2.86-12.42,9.57-12.42s9.81,3.72,9.81,12.67c0,8.69-2.85,12.3-9.56,12.3m109,0c-6.83,0-9.81-3.73-9.81-12.55,0-8.57,2.85-12.42,9.56-12.42s9.82,3.72,9.82,12.67c0,8.69-2.86,12.3-9.57,12.3m179-.5h-8.2c-7.2,0-10.06-3.23-10.06-11.68,0-8.94,2.86-12.42,10.06-12.42h3.85v-3.85h-3.6c-10.06,0-14.66,5.09-14.66,16.27,0,10.68,4.35,15.53,14.41,15.53h12.43V123.49h-4.23Zm-100.75-2.61-5.59-17.39c-1.25-3.85-2.24-4.85-4.23-4.85s-3.1,1-4.34,4.85l-5.35,17.64-7.45-25.59h-4.35l9.69,31.8h4.1l7.58-24.47L268,169.58h4.1l9.57-31.8h-4.22Zm-78.4-25.72c-9.44,0-14,5.59-14,16.4s4.48,16.28,14,16.28,14-5.59,14-16.28-4.59-16.4-14-16.4m-145,0c-9.45,0-14,5.59-14,16.4s4.47,16.28,14,16.28,14-5.59,14-16.28-4.59-16.4-14-16.4m36,0c-9.44,0-14,5.59-14,16.4s4.48,16.28,14,16.28,14-5.59,14-16.28-4.6-16.4-14-16.4M308.6,65.22c0-15.53,6.21-22.61,19.63-22.61,13.17,0,19.38,7,19.38,22.61,0,15-6,22.49-19.38,22.49S308.6,80.63,308.6,65.22m80.75-22c14.41,0,19.38,5.22,19.38,20.63V95.91h10.44v-32c0-21.62-8.33-30.07-29.57-30.07H374c-5.1,0-8.08,2.86-8.08,8.08v54h10.44V45.1a1.65,1.65,0,0,1,1.86-1.87ZM244.62,0H234.31V87.84c0,5.21,2.86,8.07,7.95,8.07h15.4c22.12,0,33.3-9.81,33.3-30.69,0-21.24-10.81-31.43-32.67-31.43h-5.47v9.44h4.84c15.91,0,22.61,6.46,22.61,22,0,14.91-6.7,21.25-22.61,21.25H246.48a1.65,1.65,0,0,1-1.86-1.87ZM0,95.91H10.44V17.39c0-1.61.62-2.48,1.86-2.48H33.42c13.42,0,19,4.47,19,15S47,44.48,32.68,44.48c-8.58,0-12.92,4-12.92,11.3,0,4.6,2.36,7.7,5.58,11.31L51.19,95.91H65.35L30.81,57.64a2.59,2.59,0,0,1-.87-1.86c0-.87.62-1.61,2-1.61,21.37,0,31.18-7.71,31.18-24.23S53.3,5.22,33.3,5.22h-25C3,5.22,0,8.2,0,13.29ZM298.17,65.35c0,20.87,10.06,31.55,30.06,31.55,19.5,0,29.82-10.93,29.82-31.92,0-20.75-10.19-31.56-29.57-31.56-20,0-30.31,10.68-30.31,31.93M510.73,95.91c18.76,0,26.59-5.59,26.59-19,0-11.68-6.71-16.64-24.36-18.63-12.29-1.37-14.53-2.74-14.53-8.2,0-4.85,4.35-6.84,14.16-6.84h20V33.79H513.84c-18,0-25.84,5.47-25.84,16.9,0,11.05,5.83,15,24.47,17,10.31,1.11,14.29,3.73,14.29,9.19,0,7-4,9.57-14.79,9.57H459.3c-15,0-21.5-6.59-21.5-22.11,0-15,5.72-21.87,17.89-21.87,10.44,0,15.29,4.72,15.29,14.78,0,2.86-.38,3.48-1.87,3.48H446v9.44h23.11c8.82,0,12.05-3.73,12.05-13.66,0-14.79-9.07-23.11-25.47-23.11-18.51,0-28.32,10.68-28.32,31.06,0,21.62,10.31,31.43,33.17,31.43ZM182.63,0H172.19V33.79H142.87V15.65H132.43V33.79H98.27C76.41,33.79,64,45.1,64,65.35c0,19.87,11.93,30.56,34.29,30.56h16c5.22,0,8.07-3,8.07-8.07V51.43H111.94V84.6a1.65,1.65,0,0,1-1.87,1.87H98.27c-16,0-23.6-6.71-23.6-21.37,0-14.41,7.7-21.87,23.6-21.87h34.16V72.92c0,15.78,7.21,23,23.11,23H164V86.59h-7.83c-9.44,0-13.29-4.1-13.29-13.67V43.23h29.32V95.91h10.44V43.23h13c14.41,0,19.38,5.22,19.38,20.63V95.91h10.44v-32c0-21.62-8.33-30.07-29.57-30.07H182.63Z"/></svg>