<svg id="Layer_1" data-name="Layer 1" xmlns="http://www.w3.org/2000/svg" xmlns:xlink="http://www.w3.org/1999/xlink" viewBox="0 0 346 154"><defs><style>.cls-1{fill:none;}.cls-2{fill:#002249;}.cls-3{clip-path:url(#clip-path);}.cls-4{fill:url(#linear-gradient);}.cls-5{clip-path:url(#clip-path-2);}.cls-6{fill:url(#linear-gradient-2);}.cls-7{clip-path:url(#clip-path-3);}.cls-8{fill:url(#linear-gradient-3);}.cls-9{clip-path:url(#clip-path-4);}.cls-10{fill:url(#linear-gradient-4);}.cls-11{clip-path:url(#clip-path-5);}.cls-12{fill:url(#linear-gradient-5);}.cls-13{clip-path:url(#clip-path-6);}.cls-14{fill:url(#linear-gradient-6);}.cls-15{clip-path:url(#clip-path-7);}.cls-16{fill:url(#linear-gradient-7);}.cls-17{clip-path:url(#clip-path-8);}.cls-18{fill:url(#linear-gradient-8);}.cls-19{clip-path:url(#clip-path-9);}.cls-20{fill:url(#linear-gradient-9);}.cls-21{clip-path:url(#clip-path-10);}.cls-22{fill:url(#linear-gradient-10);}.cls-23{clip-path:url(#clip-path-11);}.cls-24{fill:url(#linear-gradient-11);}.cls-25{clip-path:url(#clip-path-12);}.cls-26{fill:url(#linear-gradient-12);}.cls-27{clip-path:url(#clip-path-13);}.cls-28{fill:url(#linear-gradient-13);}.cls-29{clip-path:url(#clip-path-14);}.cls-30{fill:url(#linear-gradient-14);}.cls-31{clip-path:url(#clip-path-15);}.cls-32{fill:url(#linear-gradient-15);}.cls-33{clip-path:url(#clip-path-16);}.cls-34{fill:url(#linear-gradient-16);}.cls-35{clip-path:url(#clip-path-17);}.cls-36{fill:url(#linear-gradient-17);}.cls-37{clip-path:url(#clip-path-18);}.cls-38{fill:url(#linear-gradient-18);}.cls-39{clip-path:url(#clip-path-19);}.cls-40{fill:url(#linear-gradient-19);}.cls-41{clip-path:url(#clip-path-20);}.cls-42{fill:url(#linear-gradient-20);}.cls-43{clip-path:url(#clip-path-21);}.cls-44{fill:url(#linear-gradient-21);}.cls-45{clip-path:url(#clip-path-22);}.cls-46{fill:url(#linear-gradient-22);}.cls-47{clip-path:url(#clip-path-23);}.cls-48{fill:url(#linear-gradient-23);}.cls-49{clip-path:url(#clip-path-24);}.cls-50{fill:url(#linear-gradient-24);}.cls-51{clip-path:url(#clip-path-25);}.cls-52{fill:url(#linear-gradient-25);}.cls-53{clip-path:url(#clip-path-26);}.cls-54{fill:url(#linear-gradient-26);}.cls-55{clip-path:url(#clip-path-27);}.cls-56{fill:url(#linear-gradient-27);}.cls-57{clip-path:url(#clip-path-28);}.cls-58{fill:url(#linear-gradient-28);}.cls-59{clip-path:url(#clip-path-29);}.cls-60{fill:url(#linear-gradient-29);}.cls-61{clip-path:url(#clip-path-30);}.cls-62{fill:url(#linear-gradient-30);}.cls-63{clip-path:url(#clip-path-31);}.cls-64{fill:url(#linear-gradient-31);}.cls-65{clip-path:url(#clip-path-32);}.cls-66{fill:url(#linear-gradient-32);}.cls-67{clip-path:url(#clip-path-33);}.cls-68{fill:url(#linear-gradient-33);}.cls-69{clip-path:url(#clip-path-34);}.cls-70{fill:url(#linear-gradient-34);}.cls-71{clip-path:url(#clip-path-35);}.cls-72{fill:url(#linear-gradient-35);}.cls-73{clip-path:url(#clip-path-36);}.cls-74{fill:url(#linear-gradient-36);}.cls-75{clip-path:url(#clip-path-37);}.cls-76{fill:url(#linear-gradient-37);}.cls-77{clip-path:url(#clip-path-38);}.cls-78{fill:url(#linear-gradient-38);}.cls-79{clip-path:url(#clip-path-39);}.cls-80{fill:url(#linear-gradient-39);}.cls-81{clip-path:url(#clip-path-40);}.cls-82{fill:url(#linear-gradient-40);}.cls-83{clip-path:url(#clip-path-41);}.cls-84{fill:url(#linear-gradient-41);}.cls-85{clip-path:url(#clip-path-42);}.cls-86{fill:url(#linear-gradient-42);}.cls-87{clip-path:url(#clip-path-43);}.cls-88{fill:url(#radial-gradient);}</style><clipPath id="clip-path"><path class="cls-1" d="M132.15,77a7.72,7.72,0,1,0,7.71-7.71A7.72,7.72,0,0,0,132.15,77"/></clipPath><linearGradient id="linear-gradient" x1="-1559.41" y1="838.25" x2="-1556.97" y2="838.25" gradientTransform="matrix(53.82, 0, 0, -53.82, 83949.62, 45194.76)" gradientUnits="userSpaceOnUse"><stop offset="0" stop-color="#e84e0f"/><stop offset="0.6" stop-color="#ec6707"/><stop offset="1" stop-color="#ee7203"/></linearGradient><clipPath id="clip-path-2"><path class="cls-1" d="M129.28,59.57c-.25,4,3.11,7.52,7.5,7.8s8.16-2.77,8.41-6.81-3.1-7.52-7.5-7.8l-.55,0a7.61,7.61,0,0,0-7.86,6.83"/></clipPath><linearGradient id="linear-gradient-2" x1="-1557.56" y1="835.67" x2="-1555.12" y2="835.67" gradientTransform="matrix(52.77, -7.42, -7.28, -53.31, 88304.56, 33063.85)" xlink:href="#linear-gradient"/><clipPath id="clip-path-3"><path class="cls-1" d="M136.78,86.63c-4.39.28-7.75,3.77-7.5,7.8s4,7.08,8.41,6.81,7.75-3.76,7.5-7.8a7.62,7.62,0,0,0-7.86-6.83l-.55,0"/></clipPath><linearGradient id="linear-gradient-3" x1="-1561.12" y1="809.42" x2="-1558.68" y2="809.42" gradientTransform="matrix(52.77, 7.42, -7.28, 53.31, 88305.42, -31482.86)" xlink:href="#linear-gradient"/><clipPath id="clip-path-4"><path class="cls-1" d="M122.17,42.57c-.88,3.75,2,7.62,6.35,8.65s8.67-1.17,9.55-4.92-2-7.62-6.36-8.65a9.6,9.6,0,0,0-2.18-.25c-3.54,0-6.63,2.05-7.36,5.17"/></clipPath><linearGradient id="linear-gradient-4" x1="-1559.41" y1="838.6" x2="-1556.97" y2="838.6" gradientTransform="matrix(53.83, 0, 0, -53.83, 83951.88, 45182.61)" xlink:href="#linear-gradient"/><clipPath id="clip-path-5"><path class="cls-1" d="M110.38,30.44c-.35,3.63,3.09,6.93,7.69,7.38s8.6-2.14,9-5.76-3.1-6.93-7.69-7.38c-.35,0-.7-.05-1-.05-4.15,0-7.6,2.46-7.93,5.81"/></clipPath><linearGradient id="linear-gradient-5" x1="-1559.41" y1="838.75" x2="-1556.97" y2="838.75" gradientTransform="matrix(53.83, 0, 0, -53.83, 83951.88, 45177.2)" xlink:href="#linear-gradient"/><clipPath id="clip-path-6"><path class="cls-1" d="M103.39,15.7c-4.68.37-8.25,3.39-8,6.75s4.27,5.78,9,5.41,8.24-3.4,8-6.76c-.25-3.12-3.74-5.44-8-5.44-.31,0-.62,0-.94,0"/></clipPath><linearGradient id="linear-gradient-6" x1="-1559.41" y1="838.85" x2="-1556.97" y2="838.85" gradientTransform="matrix(53.82, 0, 0, -53.82, 83947.35, 45170.95)" xlink:href="#linear-gradient"/><clipPath id="clip-path-7"><path class="cls-1" d="M85.19,11.52c-4.54,1.27-7.54,4.73-6.7,7.71s5.2,4.38,9.74,3.11,7.53-4.73,6.69-7.72C94.3,12.39,91.7,11,88.53,11a12.42,12.42,0,0,0-3.34.48"/></clipPath><linearGradient id="linear-gradient-7" x1="-1559.41" y1="838.9" x2="-1556.97" y2="838.9" gradientTransform="matrix(53.82, 0, 0, -53.82, 83950.75, 45170.74)" xlink:href="#linear-gradient"/><clipPath id="clip-path-8"><path class="cls-1" d="M66.29,12.73c-4.21,2.13-6.57,5.91-5.29,8.44s5.73,2.85,9.93.73S77.5,16,76.21,13.46c-.71-1.41-2.4-2.13-4.49-2.13a12.31,12.31,0,0,0-5.43,1.4"/></clipPath><linearGradient id="linear-gradient-8" x1="-1559.41" y1="838.9" x2="-1556.97" y2="838.9" gradientTransform="matrix(53.82, 0, 0, -53.82, 83948.48, 45169.71)" xlink:href="#linear-gradient"/><clipPath id="clip-path-9"><path class="cls-1" d="M48.19,19.6c-3.6,3-5.2,7-3.56,9s5.89,1.13,9.49-1.86,5.2-7,3.57-9A3.38,3.38,0,0,0,55,16.68a11.46,11.46,0,0,0-6.8,2.92"/></clipPath><linearGradient id="linear-gradient-9" x1="-1559.41" y1="838.83" x2="-1556.97" y2="838.83" gradientTransform="matrix(53.82, 0, 0, -53.82, 83944.5, 45170.03)" xlink:href="#linear-gradient"/><clipPath id="clip-path-10"><path class="cls-1" d="M32.74,31.63C30,35.34,29.18,39.48,31,40.87s5.61-.5,8.4-4.22,3.55-7.84,1.71-9.23A2.42,2.42,0,0,0,39.65,27c-2,0-4.74,1.78-6.91,4.67"/></clipPath><linearGradient id="linear-gradient-10" x1="-1559.41" y1="838.71" x2="-1556.97" y2="838.71" gradientTransform="matrix(53.82, 0, 0, -53.82, 83951.04, 45177.94)" xlink:href="#linear-gradient"/><clipPath id="clip-path-11"><path class="cls-1" d="M21.45,47.89c-1.76,4.25-1.59,8.36.37,9.17s5-2,6.73-6.24,1.59-8.35-.37-9.16a1.78,1.78,0,0,0-.72-.14c-1.93,0-4.46,2.62-6,6.37"/></clipPath><linearGradient id="linear-gradient-11" x1="-1559.41" y1="838.55" x2="-1556.97" y2="838.55" gradientTransform="matrix(53.82, 0, 0, -53.82, 83949.9, 45183.58)" xlink:href="#linear-gradient"/><clipPath id="clip-path-12"><path class="cls-1" d="M15.5,67c-.56,4.54.5,8.39,2.36,8.62s3.82-3.26,4.37-7.8-.5-8.39-2.36-8.62H19.7c-1.81,0-3.66,3.41-4.2,7.81"/></clipPath><linearGradient id="linear-gradient-12" x1="-1559.41" y1="838.35" x2="-1556.97" y2="838.35" gradientTransform="matrix(53.82, 0, 0, -53.82, 83947.35, 45189.63)" xlink:href="#linear-gradient"/><clipPath id="clip-path-13"><path class="cls-1" d="M128.52,102.78c-4.39,1-7.23,4.91-6.35,8.66s5.15,5.94,9.54,4.91,7.24-4.9,6.36-8.65c-.73-3.13-3.82-5.17-7.37-5.17a9.73,9.73,0,0,0-2.18.25"/></clipPath><linearGradient id="linear-gradient-13" x1="-1559.41" y1="837.89" x2="-1556.97" y2="837.89" gradientTransform="matrix(53.82, 0, 0, -53.82, 83949.62, 45208.11)" xlink:href="#linear-gradient"/><clipPath id="clip-path-14"><path class="cls-1" d="M118.07,116.19c-4.6.44-8,3.75-7.69,7.37s4.36,6.2,9,5.76,8-3.75,7.69-7.37c-.33-3.35-3.78-5.81-7.93-5.81-.34,0-.69,0-1,0"/></clipPath><linearGradient id="linear-gradient-14" x1="-1559.41" y1="837.74" x2="-1556.97" y2="837.74" gradientTransform="matrix(53.82, 0, 0, -53.82, 83947.35, 45212.32)" xlink:href="#linear-gradient"/><clipPath id="clip-path-15"><path class="cls-1" d="M95.41,131.55c-.27,3.36,3.3,6.38,8,6.75s8.68-2,8.94-5.4-3.3-6.39-8-6.76c-.32,0-.64,0-.94,0-4.26,0-7.76,2.32-8,5.45"/></clipPath><linearGradient id="linear-gradient-15" x1="-1559.41" y1="837.64" x2="-1556.97" y2="837.64" gradientTransform="matrix(53.82, 0, 0, -53.82, 83949.62, 45217.39)" xlink:href="#linear-gradient"/><clipPath id="clip-path-16"><path class="cls-1" d="M78.49,134.77c-.84,3,2.16,6.44,6.7,7.71a12.52,12.52,0,0,0,3.18.48h.32c3.1-.05,5.62-1.38,6.23-3.58.84-3-2.16-6.44-6.69-7.71a12.14,12.14,0,0,0-3.34-.48c-3.17,0-5.77,1.34-6.4,3.58"/></clipPath><linearGradient id="linear-gradient-16" x1="-1559.41" y1="837.59" x2="-1556.97" y2="837.59" gradientTransform="matrix(53.82, 0, 0, -53.82, 83949.62, 45219.38)" xlink:href="#linear-gradient"/><clipPath id="clip-path-17"><path class="cls-1" d="M61,132.83c-1.28,2.53,1.09,6.31,5.29,8.44s8.64,1.8,9.92-.73-1.08-6.3-5.28-8.43a12.2,12.2,0,0,0-5.44-1.41c-2.08,0-3.77.73-4.49,2.13"/></clipPath><linearGradient id="linear-gradient-17" x1="-1559.41" y1="837.59" x2="-1556.97" y2="837.59" gradientTransform="matrix(53.82, 0, 0, -53.82, 83950.75, 45219.81)" xlink:href="#linear-gradient"/><clipPath id="clip-path-18"><path class="cls-1" d="M44.63,125.41c-1.64,2,0,6,3.56,9s7.86,3.83,9.5,1.86,0-6-3.57-9a11.45,11.45,0,0,0-6.8-2.93,3.34,3.34,0,0,0-2.69,1.07"/></clipPath><linearGradient id="linear-gradient-18" x1="-1559.41" y1="837.65" x2="-1556.97" y2="837.65" gradientTransform="matrix(53.82, 0, 0, -53.82, 83949.62, 45216.82)" xlink:href="#linear-gradient"/><clipPath id="clip-path-19"><path class="cls-1" d="M31,113.13c-1.85,1.39-1.08,5.53,1.71,9.24s6.55,5.6,8.4,4.21,1.08-5.52-1.71-9.23c-2.17-2.89-4.92-4.67-6.91-4.67a2.48,2.48,0,0,0-1.49.45"/></clipPath><linearGradient id="linear-gradient-19" x1="-1559.41" y1="837.77" x2="-1556.97" y2="837.77" gradientTransform="matrix(53.82, 0, 0, -53.82, 83947.92, 45211.44)" xlink:href="#linear-gradient"/><clipPath id="clip-path-20"><path class="cls-1" d="M21.82,96.94c-2,.81-2.12,4.92-.37,9.17s4.77,7,6.73,6.24,2.13-4.92.37-9.17c-1.55-3.76-4.08-6.38-6-6.38a2,2,0,0,0-.73.14"/></clipPath><linearGradient id="linear-gradient-20" x1="-1559.41" y1="837.94" x2="-1556.97" y2="837.94" gradientTransform="matrix(53.82, 0, 0, -53.82, 83949.62, 45206.09)" xlink:href="#linear-gradient"/><clipPath id="clip-path-21"><path class="cls-1" d="M17.86,78.41C16,78.64,14.94,82.5,15.5,87s2.51,8,4.37,7.8,2.92-4.08,2.36-8.62S19.84,78.4,18,78.4h-.18"/></clipPath><linearGradient id="linear-gradient-21" x1="-1559.41" y1="838.14" x2="-1556.97" y2="838.14" gradientTransform="matrix(53.83, 0, 0, -53.83, 83952.46, 45200.19)" xlink:href="#linear-gradient"/><clipPath id="clip-path-22"><path class="cls-1" d="M108.27,77a5.22,5.22,0,1,0,5.22-5.22A5.22,5.22,0,0,0,108.27,77"/></clipPath><linearGradient id="linear-gradient-22" x1="-1603.01" y1="806.58" x2="-1600.57" y2="806.58" gradientTransform="matrix(-38.72, 0, 0, 38.72, -61946.54, -31151.96)" gradientUnits="userSpaceOnUse"><stop offset="0" stop-color="#ea5b0b"/><stop offset="1" stop-color="#e74011"/></linearGradient><clipPath id="clip-path-23"><path class="cls-1" d="M23.41,69.35c-.49,3.55-.26,6.51.5,6.61s1.78-2.68,2.27-6.23.27-6.51-.5-6.61h0c-.76,0-1.75,2.76-2.23,6.24"/></clipPath><linearGradient id="linear-gradient-23" x1="-1603.01" y1="806.47" x2="-1600.57" y2="806.47" gradientTransform="matrix(-38.72, 0, 0, 38.72, -61942.56, -31152.94)" xlink:href="#linear-gradient-22"/><clipPath id="clip-path-24"><path class="cls-1" d="M27.69,54.81c-1.47,3.27-2,6.23-1.09,6.62s2.75-1.94,4.23-5.21,2-6.23,1.09-6.61a.5.5,0,0,0-.21,0c-.93,0-2.66,2.23-4,5.25"/></clipPath><linearGradient id="linear-gradient-24" x1="-1603.01" y1="806.26" x2="-1600.57" y2="806.26" gradientTransform="matrix(-38.72, 0, 0, 38.72, -61946.82, -31160.91)" xlink:href="#linear-gradient-22"/><clipPath id="clip-path-25"><path class="cls-1" d="M41.36,38.65c-1.2,0-3.33,1.44-5.24,3.67-2.32,2.7-3.46,5.54-2.53,6.33s3.55-.76,5.88-3.46,3.46-5.54,2.53-6.34a1,1,0,0,0-.63-.2h0"/></clipPath><linearGradient id="linear-gradient-25" x1="-1603.01" y1="806.08" x2="-1600.57" y2="806.08" gradientTransform="matrix(-38.72, 0, 0, 38.72, -61947.96, -31166.33)" xlink:href="#linear-gradient-22"/><clipPath id="clip-path-26"><path class="cls-1" d="M47.52,33.19C44.65,35.3,43.07,38,44,39.28s4,.55,6.86-1.56,4.45-4.84,3.53-6.09A1.85,1.85,0,0,0,52.81,31a10,10,0,0,0-5.29,2.18"/></clipPath><linearGradient id="linear-gradient-26" x1="-1603.01" y1="805.95" x2="-1600.57" y2="805.95" gradientTransform="matrix(-38.72, 0, 0, 38.72, -61942.84, -31167.05)" xlink:href="#linear-gradient-22"/><clipPath id="clip-path-27"><path class="cls-1" d="M61.11,28.33c-3.27,1.33-5.37,3.75-4.7,5.43s3.89,2,7.15.63,5.38-3.75,4.7-5.42c-.39-1-1.62-1.47-3.22-1.47a10.76,10.76,0,0,0-3.93.83"/></clipPath><linearGradient id="linear-gradient-27" x1="-1603.01" y1="805.89" x2="-1600.57" y2="805.89" gradientTransform="matrix(-38.72, 0, 0, 38.72, -61946.54, -31170.66)" xlink:href="#linear-gradient-22"/><clipPath id="clip-path-28"><path class="cls-1" d="M75.19,27.84c-3.43.53-6,2.6-5.63,4.62s3.35,3.21,6.77,2.68,6-2.6,5.63-4.62c-.27-1.69-2.44-2.81-5.16-2.81a11.26,11.26,0,0,0-1.61.13"/></clipPath><linearGradient id="linear-gradient-28" x1="-1603.01" y1="805.89" x2="-1600.57" y2="805.89" gradientTransform="matrix(-38.72, 0, 0, 38.72, -61948.52, -31171.65)" xlink:href="#linear-gradient-22"/><clipPath id="clip-path-29"><path class="cls-1" d="M82.17,35.05C82,37.31,84.58,39.37,88,39.63s6.24-1.36,6.42-3.63S92,31.68,88.59,31.42q-.36,0-.72,0c-3.05,0-5.54,1.55-5.7,3.66"/></clipPath><linearGradient id="linear-gradient-29" x1="-1603.01" y1="805.95" x2="-1600.57" y2="805.95" gradientTransform="matrix(-38.72, 0, 0, 38.72, -61946.54, -31168.96)" xlink:href="#linear-gradient-22"/><clipPath id="clip-path-30"><path class="cls-1" d="M93.18,41.09c-.76,2.34,1.16,5.07,4.3,6.09s6.31,0,7.07-2.4-1.16-5.07-4.3-6.1a7.82,7.82,0,0,0-2.38-.38c-2.23,0-4.12,1-4.69,2.79"/></clipPath><linearGradient id="linear-gradient-30" x1="-1603.01" y1="806.07" x2="-1600.57" y2="806.07" gradientTransform="matrix(-38.72, 0, 0, 38.72, -61946.54, -31165.92)" xlink:href="#linear-gradient-22"/><clipPath id="clip-path-31"><path class="cls-1" d="M102.08,49.72c-1.46,2.21-.48,5.42,2.18,7.18s6,1.38,7.46-.82.48-5.43-2.19-7.18A6.48,6.48,0,0,0,106,47.79a4.52,4.52,0,0,0-3.88,1.93"/></clipPath><linearGradient id="linear-gradient-31" x1="-1603.01" y1="806.22" x2="-1600.57" y2="806.22" gradientTransform="matrix(-38.72, 0, 0, 38.72, -61946.54, -31161.84)" xlink:href="#linear-gradient-22"/><clipPath id="clip-path-32"><path class="cls-1" d="M108.68,60a5.61,5.61,0,0,0,6.38,9.16,5.35,5.35,0,0,0,1-7.48,5.74,5.74,0,0,0-4.64-2.52,4.71,4.71,0,0,0-2.71.84"/></clipPath><linearGradient id="linear-gradient-32" x1="-1603.01" y1="806.4" x2="-1600.57" y2="806.4" gradientTransform="matrix(-38.72, 0, 0, 38.72, -61947.67, -31157.65)" xlink:href="#linear-gradient-22"/><clipPath id="clip-path-33"><path class="cls-1" d="M23.91,78c-.76.11-1,3.07-.5,6.61s1.5,6.34,2.27,6.24,1-3.07.5-6.62S24.71,78,24,78h0"/></clipPath><linearGradient id="linear-gradient-33" x1="-1603.01" y1="806.7" x2="-1600.57" y2="806.7" gradientTransform="matrix(-38.72, 0, 0, 38.72, -61942.56, -31146.82)" xlink:href="#linear-gradient-22"/><clipPath id="clip-path-34"><path class="cls-1" d="M26.6,92.57c-.87.39-.38,3.35,1.09,6.62s3.36,5.6,4.23,5.21.37-3.36-1.09-6.62c-1.37-3-3.09-5.25-4-5.25a.45.45,0,0,0-.2,0"/></clipPath><linearGradient id="linear-gradient-34" x1="-1603.01" y1="806.91" x2="-1600.57" y2="806.91" gradientTransform="matrix(-38.72, 0, 0, 38.72, -61946.82, -31143.31)" xlink:href="#linear-gradient-22"/><clipPath id="clip-path-35"><path class="cls-1" d="M33.59,105.35c-.93.8.21,3.63,2.53,6.34s5,4.25,5.88,3.46-.21-3.63-2.53-6.34c-1.92-2.22-4-3.67-5.24-3.67a1,1,0,0,0-.64.21"/></clipPath><linearGradient id="linear-gradient-35" x1="-1603.01" y1="807.1" x2="-1600.57" y2="807.1" gradientTransform="matrix(-38.72, 0, 0, 38.72, -61949.37, -31139.82)" xlink:href="#linear-gradient-22"/><clipPath id="clip-path-36"><path class="cls-1" d="M44,114.72c-.92,1.25.66,4,3.53,6.09s5.94,2.81,6.86,1.56-.66-4-3.53-6.09a10,10,0,0,0-5.29-2.18,1.87,1.87,0,0,0-1.57.62"/></clipPath><linearGradient id="linear-gradient-36" x1="-1603.01" y1="807.22" x2="-1600.57" y2="807.22" gradientTransform="matrix(-38.72, 0, 0, 38.72, -61946.54, -31134.94)" xlink:href="#linear-gradient-22"/><clipPath id="clip-path-37"><path class="cls-1" d="M56.41,120.24c-.67,1.68,1.43,4.11,4.7,5.43s6.47,1,7.15-.64-1.43-4.1-4.7-5.42a10.72,10.72,0,0,0-3.93-.83c-1.59,0-2.83.5-3.22,1.46"/></clipPath><linearGradient id="linear-gradient-37" x1="-1603.01" y1="807.28" x2="-1600.57" y2="807.28" gradientTransform="matrix(-38.72, 0, 0, 38.72, -61949.95, -31135.05)" xlink:href="#linear-gradient-22"/><clipPath id="clip-path-38"><path class="cls-1" d="M69.56,121.54c-.32,2,2.2,4.09,5.63,4.62s6.46-.66,6.77-2.68-2.21-4.08-5.63-4.62a11.22,11.22,0,0,0-1.61-.12c-2.72,0-4.9,1.11-5.16,2.8"/></clipPath><linearGradient id="linear-gradient-38" x1="-1603.01" y1="807.28" x2="-1600.57" y2="807.28" gradientTransform="matrix(-38.72, 0, 0, 38.72, -61945.4, -31132.72)" xlink:href="#linear-gradient-22"/><clipPath id="clip-path-39"><path class="cls-1" d="M88,114.37c-3.37.27-6,2.32-5.78,4.59s3,3.89,6.42,3.63,6-2.32,5.78-4.59c-.17-2.1-2.66-3.66-5.71-3.66l-.71,0"/></clipPath><linearGradient id="linear-gradient-39" x1="-1603.01" y1="807.22" x2="-1600.57" y2="807.22" gradientTransform="matrix(-38.72, 0, 0, 38.72, -61946.54, -31134.97)" xlink:href="#linear-gradient-22"/><clipPath id="clip-path-40"><path class="cls-1" d="M97.48,106.82c-3.13,1-5.06,3.75-4.3,6.1s3.93,3.42,7.07,2.4,5.06-3.75,4.3-6.1c-.56-1.75-2.46-2.79-4.69-2.79a7.55,7.55,0,0,0-2.38.39"/></clipPath><linearGradient id="linear-gradient-40" x1="-1603.01" y1="807.11" x2="-1600.57" y2="807.11" gradientTransform="matrix(-38.72, 0, 0, 38.72, -61946.54, -31138)" xlink:href="#linear-gradient-22"/><clipPath id="clip-path-41"><path class="cls-1" d="M104.26,97.1c-2.66,1.76-3.64,5-2.18,7.18s4.79,2.58,7.45.82,3.65-5,2.19-7.17A4.55,4.55,0,0,0,107.83,96a6.57,6.57,0,0,0-3.57,1.1"/></clipPath><linearGradient id="linear-gradient-41" x1="-1603.01" y1="806.96" x2="-1600.57" y2="806.96" gradientTransform="matrix(-38.72, 0, 0, 38.72, -61946.54, -31142.09)" xlink:href="#linear-gradient-22"/><clipPath id="clip-path-42"><path class="cls-1" d="M107.72,86.53a5.09,5.09,0,1,0,7.34-1.68,4.66,4.66,0,0,0-2.7-.84,5.74,5.74,0,0,0-4.64,2.52"/></clipPath><linearGradient id="linear-gradient-42" x1="-1603.01" y1="806.78" x2="-1600.57" y2="806.78" gradientTransform="matrix(-38.72, 0, 0, 38.72, -61946.54, -31146.87)" xlink:href="#linear-gradient-22"/><clipPath id="clip-path-43"><path class="cls-1" d="M50.12,110.91c-.32.88,1.33,2.27,3.66,3.1s4.48.78,4.8-.1-1.33-2.28-3.66-3.11a9.7,9.7,0,0,0-3.05-.59c-.92,0-1.59.23-1.75.7m8.73.71c-.16,1.39,1.89,2.77,4.57,3.06s5-.59,5.14-2-1.89-2.76-4.57-3.06a9.16,9.16,0,0,0-1-.06c-2.22,0-4,.83-4.11,2.05m13.68-5.87c-2.58.3-4.52,1.85-4.33,3.45s2.43,2.67,5,2.37,4.53-1.86,4.34-3.46c-.17-1.42-2-2.42-4.14-2.42a6.77,6.77,0,0,0-.89.06m-30.95-.49c-.23.65,1.28,1.78,3.38,2.52s4,.83,4.22.18-1.29-1.78-3.38-2.52a9.58,9.58,0,0,0-3-.62c-.65,0-1.09.15-1.2.44m7,.12c-.13,1,1.5,2,3.62,2.29s3.95-.33,4.08-1.34-1.5-2-3.62-2.29a8.78,8.78,0,0,0-1-.06c-1.68,0-3,.56-3.08,1.4m10-4.95c-2,.17-3.64,1.32-3.54,2.58s1.85,2.14,3.9,2,3.64-1.31,3.54-2.56-1.58-2-3.42-2l-.48,0M36,99.76c.47.72,1,1.41,1.46,2.09a8.61,8.61,0,0,0,1.4.38c1.91.34,3.58,0,3.71-.74s-1.31-1.64-3.23-2a8.56,8.56,0,0,0-1.46-.14,3.82,3.82,0,0,0-1.88.39m43.43-.06c-2.37.84-3.8,2.9-3.2,4.59s3,2.38,5.39,1.53,3.8-2.9,3.19-4.59a3.34,3.34,0,0,0-3.35-1.89,6,6,0,0,0-2,.36M43.81,96.24c-1.68,0-3,.8-3,1.81s1.35,1.86,3,1.87,3.1-.79,3.11-1.81-1.36-1.85-3.06-1.87h-.06m19.35-1c-1.88.6-3,2.21-2.6,3.59s2.31,2,4.19,1.43,3-2.2,2.61-3.59A2.76,2.76,0,0,0,64.57,95a4.7,4.7,0,0,0-1.41.22M32.78,93.87c.45,1,.93,2,1.45,2.94,1.28-.12,2.25-.7,2.26-1.42s-1.22-1.54-2.79-1.58h-.13a5,5,0,0,0-.79.06m15-2.09c-1.69.2-2.94,1.35-2.8,2.57s1.62,2.05,3.3,1.86,2.93-1.35,2.8-2.57-1.34-1.89-2.81-1.89l-.49,0m36.43.41c-2,1.36-2.72,3.76-1.63,5.36s3.6,1.8,5.59.44,2.72-3.76,1.62-5.36A3.26,3.26,0,0,0,87,91.28a5,5,0,0,0-2.8.91M36,89.86c-1.41.1-2.5,1-2.42,2s1.27,1.76,2.68,1.66,2.49-1,2.42-2-1.14-1.68-2.44-1.68H36m30.19-.8a2.91,2.91,0,1,0,4.44.56,2.73,2.73,0,0,0-2.36-1.19,3.91,3.91,0,0,0-2.08.63M50.48,86.48a2.48,2.48,0,1,0,3.41,1.75,2.58,2.58,0,0,0-2.65-1.83,3.33,3.33,0,0,0-.76.08M37.34,85.16a2.15,2.15,0,1,0,2.93,1.45A2.2,2.2,0,0,0,38,85.07a2.86,2.86,0,0,0-.7.09m49.3-1a3.76,3.76,0,1,0,5.47-1.32,3.42,3.42,0,0,0-2-.61,4.33,4.33,0,0,0-3.5,1.93m-19-1.59a3,3,0,1,0,4.42-.87,2.82,2.82,0,0,0-1.69-.55,3.48,3.48,0,0,0-2.73,1.42m-15.28-1.9a2.8,2.8,0,0,0-2.13,3.28,2.71,2.71,0,0,0,3.43,1.77,2.8,2.8,0,0,0,2.14-3.28,2.62,2.62,0,0,0-2.61-1.88,3.44,3.44,0,0,0-.83.11M38.2,80a2.27,2.27,0,1,0,3,1.43A2.28,2.28,0,0,0,39,79.86a2.63,2.63,0,0,0-.77.12m-1.28-3a2.31,2.31,0,1,0,2.31-2.32A2.31,2.31,0,0,0,36.92,77m13.91,0a2.83,2.83,0,1,0,2.82-2.83A2.82,2.82,0,0,0,50.83,77m16.89,0a3.09,3.09,0,1,0,3.09-3.09A3.09,3.09,0,0,0,67.72,77M87,77a3.83,3.83,0,1,0,3.83-3.83A3.83,3.83,0,0,0,87,77M36.57,71.14a2.43,2.43,0,1,0,3-1.43,2.58,2.58,0,0,0-.77-.12,2.28,2.28,0,0,0-2.22,1.55m13.65-1a2.8,2.8,0,0,0,2.13,3.28,2.73,2.73,0,0,0,3.44-1.77,2.8,2.8,0,0,0-2.14-3.28,3,3,0,0,0-.83-.11,2.6,2.6,0,0,0-2.6,1.88M68.05,67a3.36,3.36,0,1,0,4.42.88,3.45,3.45,0,0,0-2.73-1.43,2.82,2.82,0,0,0-1.69.55m-32.62-.8a2.53,2.53,0,1,0,2.93-1.46,2.86,2.86,0,0,0-.7-.09,2.2,2.2,0,0,0-2.23,1.55m51.86-1.89a4.24,4.24,0,1,0,5.48,1.32,4.37,4.37,0,0,0-3.51-1.93,3.47,3.47,0,0,0-2,.61m-39.17.21a3,3,0,0,0,5.77,1.26,2.73,2.73,0,0,0-2.36-3,3.35,3.35,0,0,0-.76-.09,2.58,2.58,0,0,0-2.65,1.84m-14.51-2.4c-.08,1,1,1.93,2.42,2s2.6-.65,2.68-1.67-1-1.93-2.42-2H36c-1.3,0-2.36.72-2.43,1.68m31.25-1.44a3.5,3.5,0,0,0,5.8,3.7,3.19,3.19,0,0,0-1.36-4.26,3.91,3.91,0,0,0-2.08-.63,2.73,2.73,0,0,0-2.36,1.19M45,59.67c-.14,1.22,1.11,2.37,2.8,2.57s3.16-.64,3.3-1.86S50,58,48.3,57.81l-.49,0c-1.47,0-2.68.79-2.81,1.89m-12.22.48a6.77,6.77,0,0,0,.92.06c1.57,0,2.81-.75,2.79-1.58s-1-1.3-2.26-1.42c-.52,1-1,1.94-1.45,2.94M82.6,56.47c-1.09,1.6-.36,4,1.63,5.36s4.49,1.16,5.58-.44.37-4-1.62-5.36a5,5,0,0,0-2.8-.91,3.28,3.28,0,0,0-2.79,1.35M43.82,54.09c-1.7,0-3.07.86-3,1.88s1.39,1.83,3.1,1.81,3.07-.86,3.06-1.88-1.37-1.81-3-1.81h-.07m16.74,1.08c-.44,1.38.72,3,2.6,3.58s3.76,0,4.2-1.43-.73-3-2.61-3.58a4.66,4.66,0,0,0-1.4-.23,2.73,2.73,0,0,0-2.79,1.66m-21.7-3.38a7.7,7.7,0,0,0-1.4.38c-.51.67-1,1.37-1.46,2.08a5.24,5.24,0,0,0,3.34.26c1.92-.34,3.37-1.23,3.23-2-.1-.55-1-.87-2.25-.87a8.41,8.41,0,0,0-1.46.13M55.07,51c-.1,1.26,1.49,2.41,3.54,2.58s3.8-.73,3.9-2S61,49.19,59,49l-.48,0c-1.84,0-3.33.84-3.42,2m21.16-1.29c-.6,1.69.83,3.76,3.2,4.6s4.78.16,5.38-1.53S84,49,81.62,48.19a6.27,6.27,0,0,0-2-.36,3.35,3.35,0,0,0-3.35,1.89m-24-3.37c-2.12.26-3.75,1.29-3.62,2.29s2,1.6,4.08,1.34,3.74-1.29,3.62-2.3c-.11-.84-1.41-1.39-3.09-1.39a8.47,8.47,0,0,0-1,.06M45,46.24c-2.1.74-3.61,1.87-3.38,2.52s2.12.56,4.22-.18,3.61-1.87,3.38-2.52c-.11-.3-.55-.44-1.21-.44a9.58,9.58,0,0,0-3,.62M68.2,44.81C68,46.42,70,48,72.53,48.27s4.84-.75,5-2.36-1.75-3.16-4.34-3.46a6.58,6.58,0,0,0-.88-.05c-2.2,0-4,1-4.14,2.41M53.78,40c-2.33.83-4,2.22-3.66,3.1s2.46.93,4.8.11,4-2.22,3.66-3.11c-.17-.46-.83-.69-1.76-.69a9.37,9.37,0,0,0-3,.59m9.64-.67c-2.68.29-4.73,1.67-4.57,3.06s2.45,2.29,5.14,2,4.73-1.67,4.57-3.07c-.13-1.21-1.89-2-4.11-2a9.16,9.16,0,0,0-1,.06"/></clipPath><radialGradient id="radial-gradient" cx="-1542.12" cy="858.8" r="2.44" gradientTransform="matrix(0, 26.7, 22.43, 0, -19196.45, 41233.31)" gradientUnits="userSpaceOnUse"><stop offset="0" stop-color="#5bc5f2"/><stop offset="0.13" stop-color="#5bc5f2"/><stop offset="0.21" stop-color="#6aaee0"/><stop offset="0.36" stop-color="#9073b4"/><stop offset="0.45" stop-color="#a84d97"/><stop offset="0.71" stop-color="#e74011"/><stop offset="1" stop-color="#e74011"/></radialGradient></defs><title>Artboard 13</title><path class="cls-2" d="M169.42,98.5A4.69,4.69,0,0,1,175.06,91a24.41,24.41,0,0,0,15.79,5.8c6.12,0,10-2.9,10-7.09v-.16c0-4-2.26-6.2-12.73-8.62-12-2.9-18.77-6.44-18.77-16.84v-.16c0-9.66,8-16.35,19.25-16.35a31.08,31.08,0,0,1,17.89,5.23,4.51,4.51,0,0,1,2.17,4A4.61,4.61,0,0,1,204,61.37a4.84,4.84,0,0,1-2.58-.73c-4.35-2.82-8.54-4.27-13-4.27-5.8,0-9.18,3-9.18,6.69v.16c0,4.35,2.58,6.28,13.45,8.86,11.92,2.9,18.05,7.17,18.05,16.51v.17c0,10.55-8.3,16.83-20.15,16.83a35,35,0,0,1-21.18-7.09"/><path class="cls-2" d="M216.87,76.75v-.16C216.87,60.8,229,47.43,246,47.43c8.46,0,14.1,2,19.25,5.72a5,5,0,0,1,2,4,4.94,4.94,0,0,1-4.92,4.92A5.17,5.17,0,0,1,259.24,61a21.4,21.4,0,0,0-13.69-4.43c-10.4,0-18.29,9.1-18.29,19.9v.16c0,11.6,7.65,20.14,19.17,20.14a23,23,0,0,0,13.62-4.27V81.91H248.93a4.34,4.34,0,0,1-4.43-4.27,4.4,4.4,0,0,1,4.43-4.35h15.71a4.91,4.91,0,0,1,5,5V93.35a6.85,6.85,0,0,1-3.46,6.28,35.92,35.92,0,0,1-20.06,6.12c-17.64,0-29.24-12.56-29.24-29"/><path class="cls-2" d="M279.54,53.07a5,5,0,0,1,5-5h1.05c2.41,0,3.78,1.21,5.15,2.9l28.2,36.49V52.83a4.88,4.88,0,0,1,9.75,0V100.2a4.81,4.81,0,0,1-4.83,4.91h-.41c-2.33,0-3.79-1.21-5.16-3l-29-37.54v35.77a4.87,4.87,0,0,1-9.74,0Z"/><path class="cls-2" d="M174.27,126.92l-3.18-4.32a1.27,1.27,0,0,1-.27-.78,1.06,1.06,0,0,1,1.09-1,1.26,1.26,0,0,1,1.07.66l2.39,3.46,2.44-3.49a1.26,1.26,0,0,1,1.05-.65,1,1,0,0,1,1,1.06,1.32,1.32,0,0,1-.28.76l-3.19,4.3v2.85a1.09,1.09,0,0,1-2.17,0Z"/><path class="cls-2" d="M179.65,127v0a4.09,4.09,0,0,1,8.18,0v0a4,4,0,0,1-4.11,3.94,3.92,3.92,0,0,1-4.07-3.91m6.06,0v0a2,2,0,0,0-2-2.08,1.94,1.94,0,0,0-1.95,2.06v0a2,2,0,0,0,2,2.09,1.93,1.93,0,0,0,2-2.06"/><path class="cls-2" d="M196.07,129.74a1.07,1.07,0,0,1-2.14,0v-.08a2.68,2.68,0,0,1-2.21,1.21,2.48,2.48,0,0,1-2.57-2.8v-3.91a1.07,1.07,0,0,1,2.14,0v3.23c0,1,.48,1.54,1.3,1.54s1.34-.53,1.34-1.54v-3.23a1.07,1.07,0,1,1,2.14,0Z"/><path class="cls-2" d="M197.88,124.16a1.07,1.07,0,0,1,2.14,0v.34c.31-.73.82-1.41,1.45-1.41a1,1,0,0,1,.24,2c-1.08.26-1.69,1.09-1.69,2.61v2a1.07,1.07,0,1,1-2.14,0Z"/><path class="cls-2" d="M208.34,132.49a.87.87,0,0,1-.61-.83.88.88,0,0,1,.88-.87.75.75,0,0,1,.35.07,4.89,4.89,0,0,0,2.08.45c1.47,0,2.16-.71,2.16-2.06v-.37a3,3,0,0,1-2.47,1.23,3.31,3.31,0,0,1-3.35-3.52v0a3.32,3.32,0,0,1,3.35-3.52,3.07,3.07,0,0,1,2.44,1.12h0a1.08,1.08,0,0,1,2.15,0V129a4.07,4.07,0,0,1-1,3,4.46,4.46,0,0,1-3.26,1,7.28,7.28,0,0,1-2.76-.52m4.86-5.9v0a1.84,1.84,0,0,0-3.68,0v0a1.84,1.84,0,0,0,3.68,0"/><path class="cls-2" d="M216.66,128.56v0c0-1.65,1.25-2.41,3-2.41a5.49,5.49,0,0,1,1.85.31v-.13c0-.88-.55-1.38-1.62-1.38a5.24,5.24,0,0,0-1.49.21.72.72,0,0,1-.3.06.87.87,0,0,1-.89-.87.88.88,0,0,1,.57-.83,6.51,6.51,0,0,1,2.42-.4,3.49,3.49,0,0,1,2.55.85,3.3,3.3,0,0,1,.82,2.41v3.44a1,1,0,0,1-1.05,1,1,1,0,0,1-1-.88v0a2.89,2.89,0,0,1-2.28,1,2.33,2.33,0,0,1-2.59-2.31m4.92-.49v-.38a3.34,3.34,0,0,0-1.37-.29c-.92,0-1.48.37-1.48,1v0c0,.58.48.92,1.17.92,1,0,1.68-.55,1.68-1.32"/><path class="cls-2" d="M225.15,130a.85.85,0,0,1,.44-1.58.74.74,0,0,1,.42.12,4,4,0,0,0,2,.67c.62,0,.9-.22.9-.56v0c0-.47-.73-.62-1.56-.87-1.06-.32-2.26-.81-2.26-2.28v0c0-1.54,1.24-2.4,2.77-2.4a5.29,5.29,0,0,1,2.34.58.87.87,0,0,1,.5.8.85.85,0,0,1-.86.85.78.78,0,0,1-.39-.1,4,4,0,0,0-1.64-.48c-.52,0-.79.23-.79.52v0c0,.42.72.62,1.54.9,1.06.35,2.28.86,2.28,2.24v0c0,1.68-1.25,2.44-2.89,2.44a5.24,5.24,0,0,1-2.84-.86"/><path class="cls-2" d="M233.47,128.39a1.19,1.19,0,0,1,1.23,1.2v0a1.23,1.23,0,0,1-2.46,0v0a1.19,1.19,0,0,1,1.23-1.2"/><path class="cls-2" d="M240.18,125.82v0a5.1,5.1,0,0,1,5.26-5.1,5,5,0,0,1,5.22,5.07v0a5.24,5.24,0,0,1-10.48,0m8.21,0v0a3,3,0,0,0-3-3.1,3,3,0,0,0-3,3.07v0a3,3,0,0,0,3,3.1,3,3,0,0,0,2.95-3.08"/><path class="cls-2" d="M259.18,129.74a1.08,1.08,0,0,1-2.15,0v-.08a2.66,2.66,0,0,1-2.21,1.21,2.48,2.48,0,0,1-2.57-2.8v-3.91a1.08,1.08,0,0,1,2.15,0v3.23c0,1,.48,1.54,1.3,1.54s1.33-.53,1.33-1.54v-3.23a1.08,1.08,0,0,1,2.15,0Z"/><path class="cls-2" d="M261,124.16a1.08,1.08,0,0,1,2.15,0v.34c.31-.73.81-1.41,1.45-1.41a1,1,0,0,1,.24,2c-1.09.26-1.69,1.09-1.69,2.61v2a1.08,1.08,0,0,1-2.15,0Z"/><path class="cls-2" d="M270.82,124.16a1.08,1.08,0,0,1,2.15,0v.09a2.65,2.65,0,0,1,2.21-1.22c1.62,0,2.56,1.07,2.56,2.81v3.9a1.07,1.07,0,0,1-2.14,0v-3.23c0-1-.48-1.53-1.3-1.53s-1.33.52-1.33,1.53v3.23a1.08,1.08,0,0,1-2.15,0Z"/><path class="cls-2" d="M283,130.9a3.78,3.78,0,0,1-4-3.9v0a3.77,3.77,0,0,1,3.73-3.94,3.58,3.58,0,0,1,3.64,3.64,1,1,0,0,1-1,1h-4.24a1.75,1.75,0,0,0,1.84,1.48,2.45,2.45,0,0,0,1.53-.51.79.79,0,0,1,.52-.17.82.82,0,0,1,.83.85.85.85,0,0,1-.28.63,3.88,3.88,0,0,1-2.62.92m1.38-4.54a1.63,1.63,0,0,0-1.6-1.61,1.69,1.69,0,0,0-1.63,1.61Z"/><path class="cls-2" d="M288.13,128.59V125h-.07a.92.92,0,0,1,0-1.84h.07v-.94a1.07,1.07,0,0,1,2.14,0v.94h.94a.92.92,0,1,1,0,1.84h-.94v3.22c0,.5.21.74.69.74l.25,0a.9.9,0,0,1,.89.89.88.88,0,0,1-.55.81,3.23,3.23,0,0,1-1.22.21c-1.31,0-2.2-.52-2.2-2.27"/><path class="cls-2" d="M294.92,129.91l-1.84-5.33a1.49,1.49,0,0,1-.1-.51,1,1,0,0,1,1-1,1.08,1.08,0,0,1,1,.83l1.16,3.84,1.18-3.82a1.12,1.12,0,0,1,1.1-.86h.12a1.12,1.12,0,0,1,1.1.86l1.2,3.83,1.18-3.86a1.06,1.06,0,0,1,1-.82,1,1,0,0,1,1,1,2.27,2.27,0,0,1-.07.43l-1.91,5.4a1.22,1.22,0,0,1-1.18,1h-.07a1.19,1.19,0,0,1-1.16-.92l-1.2-3.8-1.21,3.8a1.17,1.17,0,0,1-1.15.92h-.07a1.23,1.23,0,0,1-1.19-1"/><path class="cls-2" d="M304.77,127v0a4,4,0,0,1,4.1-3.92,3.92,3.92,0,0,1,4.07,3.9v0a4.09,4.09,0,0,1-8.17,0m6.06,0v0a2,2,0,0,0-2-2.08,1.94,1.94,0,0,0-2,2.06v0a2,2,0,0,0,2,2.09,1.93,1.93,0,0,0,2-2.06"/><path class="cls-2" d="M314.33,124.16a1.07,1.07,0,1,1,2.14,0v.34c.31-.73.82-1.41,1.45-1.41a1,1,0,0,1,.24,2c-1.08.26-1.69,1.09-1.69,2.61v2a1.07,1.07,0,1,1-2.14,0Z"/><path class="cls-2" d="M320,121.43a1.07,1.07,0,1,1,2.14,0v4.68l2.68-2.54a1.3,1.3,0,0,1,1-.48.94.94,0,0,1,.94,1,1.29,1.29,0,0,1-.49.93l-1.7,1.45,2,2.72a1.14,1.14,0,0,1,.27.69,1,1,0,0,1-1,1,1,1,0,0,1-.93-.49L323,127.74l-.86.78v1.22a1.07,1.07,0,1,1-2.14,0Z"/><path class="cls-2" d="M329.42,128.39a1.19,1.19,0,0,1,1.23,1.2v0a1.23,1.23,0,0,1-2.45,0v0a1.18,1.18,0,0,1,1.22-1.2"/><g class="cls-3"><rect class="cls-4" x="132.15" y="69.29" width="15.43" height="15.43"/></g><g class="cls-5"><polygon class="cls-6" points="127.03 53.02 145.13 50.48 147.44 67.37 129.34 69.91 127.03 53.02"/></g><g class="cls-7"><polygon class="cls-8" points="127.03 101.23 145.13 103.78 147.44 86.9 129.34 84.35 127.03 101.23"/></g><g class="cls-9"><rect class="cls-10" x="121.29" y="37.4" width="17.66" height="14.85"/></g><g class="cls-11"><rect class="cls-12" x="110.03" y="24.63" width="17.35" height="13.62"/></g><g class="cls-13"><rect class="cls-14" x="95.14" y="15.66" width="17.46" height="12.57"/></g><g class="cls-15"><rect class="cls-16" x="77.65" y="11.04" width="18.11" height="12.56"/></g><g class="cls-17"><rect class="cls-18" x="59.72" y="11.33" width="17.77" height="12.7"/></g><g class="cls-19"><rect class="cls-20" x="42.99" y="16.68" width="16.33" height="13.89"/></g><g class="cls-21"><rect class="cls-22" x="29.18" y="26.96" width="13.8" height="15.29"/></g><g class="cls-23"><rect class="cls-24" x="19.69" y="41.52" width="10.62" height="16.35"/></g><g class="cls-25"><rect class="cls-26" x="14.94" y="59.16" width="7.84" height="16.66"/></g><g class="cls-27"><rect class="cls-28" x="121.29" y="102.53" width="17.66" height="14.86"/></g><g class="cls-29"><rect class="cls-30" x="110.03" y="116.14" width="17.35" height="13.63"/></g><g class="cls-31"><rect class="cls-32" x="95.14" y="126.1" width="17.46" height="12.57"/></g><g class="cls-33"><rect class="cls-34" x="77.65" y="131.19" width="18.11" height="11.76"/></g><g class="cls-35"><rect class="cls-36" x="59.72" y="130.7" width="17.77" height="12.7"/></g><g class="cls-37"><rect class="cls-38" x="42.99" y="124.34" width="16.33" height="13.89"/></g><g class="cls-39"><rect class="cls-40" x="29.18" y="112.68" width="13.8" height="15.29"/></g><g class="cls-41"><rect class="cls-42" x="19.7" y="96.8" width="10.61" height="16.35"/></g><g class="cls-43"><rect class="cls-44" x="14.94" y="78.4" width="7.84" height="16.66"/></g><g class="cls-45"><rect class="cls-46" x="108.27" y="71.79" width="10.43" height="10.44"/></g><g class="cls-47"><rect class="cls-48" x="22.92" y="63.11" width="3.75" height="12.95"/></g><g class="cls-49"><rect class="cls-50" x="25.73" y="49.56" width="7.05" height="12.26"/></g><g class="cls-51"><rect class="cls-52" x="32.66" y="38.65" width="10.26" height="10.79"/></g><g class="cls-53"><rect class="cls-54" x="43.07" y="31.01" width="12.23" height="9.52"/></g><g class="cls-55"><rect class="cls-56" x="55.74" y="27.5" width="13.2" height="8.22"/></g><g class="cls-57"><rect class="cls-58" x="69.24" y="27.71" width="13.03" height="7.96"/></g><g class="cls-59"><rect class="cls-60" x="81.99" y="31.39" width="12.56" height="8.51"/></g><g class="cls-61"><rect class="cls-62" x="92.42" y="38.3" width="12.9" height="9.91"/></g><g class="cls-63"><rect class="cls-64" x="100.62" y="47.79" width="12.55" height="10.86"/></g><g class="cls-65"><rect class="cls-66" x="105.96" y="59.16" width="11.83" height="11.59"/></g><g class="cls-67"><rect class="cls-68" x="22.92" y="78.04" width="3.75" height="12.96"/></g><g class="cls-69"><rect class="cls-70" x="25.73" y="92.53" width="7.05" height="12.26"/></g><g class="cls-71"><rect class="cls-72" x="32.66" y="105.14" width="10.26" height="10.8"/></g><g class="cls-73"><rect class="cls-74" x="43.07" y="114.1" width="12.23" height="9.52"/></g><g class="cls-75"><rect class="cls-76" x="55.74" y="118.78" width="13.2" height="8.22"/></g><g class="cls-77"><rect class="cls-78" x="69.24" y="118.74" width="13.03" height="7.96"/></g><g class="cls-79"><rect class="cls-80" x="81.99" y="114.34" width="12.55" height="8.51"/></g><g class="cls-81"><rect class="cls-82" x="92.42" y="106.43" width="12.9" height="9.91"/></g><g class="cls-83"><rect class="cls-84" x="100.62" y="96" width="12.55" height="10.86"/></g><g class="cls-85"><rect class="cls-86" x="105.96" y="84.01" width="11.83" height="11.59"/></g><g class="cls-87"><rect class="cls-88" x="24.46" y="44.42" width="78.55" height="65.41" transform="translate(-16.33 137.14) rotate(-87.29)"/></g></svg>