<svg xmlns="http://www.w3.org/2000/svg" viewBox="0 0 1900 250"><defs><style>.cls-1{isolation:isolate;}.cls-2,.cls-5{fill:#ffdb03;}.cls-3{fill:#fff4ca;}.cls-4{fill:#eac30a;}.cls-5{mix-blend-mode:multiply;}.cls-6{fill:#244b5a;}.cls-7{fill:#fff;}</style></defs><g class="cls-1"><g id="Layer_1" data-name="Layer 1"><rect class="cls-2" x="-8.04" y="-82.24" width="1918.57" height="418.39"/><path class="cls-3" d="M1698.22,180.17c4.62-.83,3.27-5.52,3.2-7.07s2-6.29,5.16-4.19c6.8,5.57,23.3,9.44,23.3,9.44s2.2.28,1.89,4.17c.26,1.56-3.31,2.71-3.31,2.71s-5.73,1.43-5.81,4.21c-.14,4.83,5.14,7.68,10,7.82s9.93.22,10.06-4.62c.08-2.85-1.89-4.52-4.21-5.81-3.07-1.7-2.33-3.11-1.87-4.78.52-1.88,4.05-2.16,4.05-2.16,8.81-.09,16.2-4.84,23.38-8.94,0,0,5-.52,3.18,4.27-2.35,5.21-2.75,9.09,1.63,10.3,6.91,1.14,15.88-5.86,14.66-12.37-1.58-4.6-5.43-2.68-9-2.74-6.51-.53-2.23-5.61-2.23-5.61a47.17,47.17,0,0,0,12.33-19.57c1.44-3.59,4.27-3.31,4.51-.56s.73,7.05,4.25,8.29,7.8-3.86,9.29-9.38-.44-10.46-3.17-11.55-5.67,3.4-7.34,4.32c-2.2,1.88-4.58-2.25-4.58-2.25a35.74,35.74,0,0,1-.23-3.85,50.07,50.07,0,0,0-2.08-15.76,6.18,6.18,0,0,1,3.53-3c1.51-.62,6.33,2.53,7.92,1.27,2-1.58,1.59-3.53.12-7.09s-5.15-5.9-6.87-4.65-1.47,3.61-1.94,5.78c0,0,.1,1.37-2.29,1.66s-3.08-.77-3.08-.77a50.18,50.18,0,0,0-17-20,1.73,1.73,0,0,1,.59-3.1c2.29-.65,7.75-.91,8.29-4.25s-3.58-6.16-6.81-8.2-8-2.76-9.22.56c-.89,2.39.77,4.69,1.49,7.58.62,2.48.42,2.64-1,3.53a49.73,49.73,0,0,0-20.32-4.94c-1.27,0-2.53.1-3.78,0s-2.31-2.19-2.55-3.71c-.28-1.81,1.52-3.92,2.32-5.07,1.2-1.72,2.48-2.23,2.13-4.47s-4-4.77-8.28-4.11-7.86,3.74-7.77,6.11c.41,2.63,2.24,3.57,4.46,4.64,1.33.9,3.23,2,3.46,3.47s-.18,3.79-1.53,4.11a53.16,53.16,0,0,0-21.2,10c-2.59,1.89-2.25-4.58-2.18-7,.19-6.84-2.64-8.43-7.3-7.66-3.89.65-12.34,7.17-12.73,12-1.19,5,.46,7.47,7.3,7.66,2.29.06,8.44-.29,7.45,2.4-3.24,4-6.6,8.21-7.8,13.29-.58,2.45-1.54-.13-2.11-.9a5.29,5.29,0,0,0-3-3c-1.8-.32-4.67,1.76-5.5,4.19s.14,5.07,1.77,5.79a5.34,5.34,0,0,0,4.92-.64c1-.49,2.41-1,2.08.4a57,57,0,0,0-1.57,11.11,50.14,50.14,0,0,0,.22,6.15c.34,1.87-2.21,2-3.62,2.11-1.82.16-3.67-2-4.9-2.65a7.32,7.32,0,0,0-5.91-2c-2.33.33-4.91,3.77-4.53,8.05s2.8,7.6,5.89,7.47a7.48,7.48,0,0,0,6.09-3.92c1-1.27,2.2-3.09,3.69-3.22,1.75-.15,4.5,1.32,4.73,2.28a50,50,0,0,0,9.34,18.47c2.07,3.62-.91,5.49-2.34,5.36s-9.46-1-9.08,4.68S1694.44,181.05,1698.22,180.17ZM1770.47,121c-.94-4.15-.22-7.86,1.62-8.27s4.1,2.6,5.05,6.75.22,7.86-1.62,8.28S1771.42,125.14,1770.47,121ZM1733.9,93.58c1.23-2.76,6.07-3.28,10.81-1.16s7.57,6.07,6.33,8.83-6.07,3.28-10.8,1.17S1732.67,96.35,1733.9,93.58Zm-25.2,7.67c1.39-2.49,4.18-3.57,6.24-2.41s2.6,4.1,1.21,6.58-4.19,3.56-6.24,2.41S1707.31,103.73,1708.7,101.25Zm32.78,37.94c6,.05,10.88,3.66,10.84,8.07s-5,7.92-11,7.87-10.89-3.66-10.85-8.07S1735.45,139.14,1741.48,139.19Zm-40.35-3.61c-1.13-4.8.79-9.36,4.3-10.19s7.26,2.39,8.39,7.19-.79,9.36-4.29,10.19S1702.27,140.38,1701.13,135.58Zm13.06,27.15c.57-1,3.2-.56,5.88,1s4.4,3.57,3.83,4.56-3.19.56-5.87-1S1713.63,163.73,1714.19,162.73Z"/><path class="cls-4" d="M1372.74,51.26c1.55,1.81,3.27,0,3.93-.42s3.27-.76,3.17,1.18c-.69,4.42,1.86,12.67,1.86,12.67s.45,1-1.34,1.9c-.62.52-2-.75-2-.75s-2.11-2.15-3.35-1.47c-2.16,1.19-2,4.24-.86,6.4s2.46,4.42,4.62,3.23c1.28-.7,1.5-2,1.47-3.35,0-1.78.76-1.82,1.62-2.05s2,1.22,2,1.22c2.31,3.84,6.3,5.86,10,8a1.46,1.46,0,0,1-1.06,2.5c-2.89.31-4.7,1.13-4.1,3.37,1.28,3.33,6.67,5.46,9.21,3.25,1.61-1.88-.22-3.08-1.11-4.65-1.45-3,1.88-2.43,1.88-2.43a24.06,24.06,0,0,0,11.78.36c2-.29,2.55,1,1.41,1.84s-2.91,2.14-2.54,4,3.7,2.42,6.51,1.66,4.48-2.9,4.26-4.38-3-1.61-3.8-2.1c-1.39-.49-.19-2.6-.19-2.6a19,19,0,0,1,1.63-1.09,25.63,25.63,0,0,0,6.39-5,3.12,3.12,0,0,1,2.24.77c.66.5.52,3.43,1.48,3.8,1.21.47,2-.21,3.15-1.77s1.26-3.78.27-4.22-2,.28-3,.64c0,0-.58.4-1.32-.58s-.46-1.55-.46-1.55A25.56,25.56,0,0,0,1430.79,57a.87.87,0,0,1,1.51-.54c.88.84,2.4,3.17,4,2.54s1.78-3.16,1.84-5.1-.85-4.23-2.62-3.91c-1.29.23-1.87,1.55-3,2.61-.93.92-1,.87-1.81.47a25.29,25.29,0,0,0-3.07-10.2c-.31-.57-.7-1.08-1-1.64s.37-1.59,1-2.08,2.12-.34,2.83-.29c1.06.08,1.62.51,2.51-.22s1-3-.33-4.69-3.67-2.49-4.69-1.84c-1,.86-1,1.9-.89,3.16,0,.81,0,1.93-.63,2.41s-1.71.9-2.2.39a27,27,0,0,0-9.85-6.74c-1.5-.64,1.43-2.16,2.53-2.77,3-1.68,3-3.33,1.48-5.18-1.29-1.54-6.33-3.57-8.57-2.48-2.51.77-3.16,2.12-1.48,5.17.56,1,2.31,3.64.87,3.9-2.58-.4-5.31-.78-7.85,0-1.22.38-.34-.71-.15-1.16a2.69,2.69,0,0,0,.53-2.11c-.33-.87-2-1.6-3.26-1.33a2.43,2.43,0,0,0-2.08,2.27,2.72,2.72,0,0,0,1.54,2c.47.3,1.06.8.36,1a28.23,28.23,0,0,0-5.28,2.18,24.76,24.76,0,0,0-2.65,1.68c-.72.63-1.43-.46-1.85-1.05-.54-.75-.07-2.12-.1-2.83a3.73,3.73,0,0,0-.64-3.12c-.75-.93-2.92-1.18-4.71.09s-2.61,3.19-1.75,4.52a3.81,3.81,0,0,0,3.29,1.66c.81.1,1.92.17,2.36.79a2.93,2.93,0,0,1,.22,2.66,25.55,25.55,0,0,0-5.7,8.87c-1.06,1.84-2.64,1-3,.35s-2-4.41-4.4-2.78S1371.38,49.82,1372.74,51.26Zm44.62,16.46c1.58-1.49,3.39-2.13,4.05-1.43s-.08,2.47-1.66,4-3.39,2.13-4,1.43S1415.78,69.2,1417.36,67.72Zm2.6-23.13c1.53-.17,3,1.82,3.3,4.44s-.71,4.89-2.24,5.06-3-1.82-3.3-4.44S1418.43,44.76,1420,44.59Zm-9.86-9.09a2.43,2.43,0,0,1,2.66,2.12,2.67,2.67,0,0,1-5.24.1A2.42,2.42,0,0,1,1410.1,35.5Zm-8.21,24.18c1.53,2.66,1.2,5.72-.74,6.84s-4.76-.13-6.3-2.79-1.19-5.73.75-6.84S1400.36,57,1401.89,59.68ZM1393.07,41c1.81-1.73,4.31-2.07,5.58-.74s.82,3.81-1,5.54-4.32,2.07-5.58.74S1391.25,42.77,1393.07,41Zm-8.56,12.74c.59,0,1.08,1.26,1.1,2.83s-.43,2.85-1,2.86-1.07-1.26-1.1-2.83S1383.93,53.78,1384.51,53.77Z"/><path class="cls-5" d="M1177.34,207.17c1.26.65,1.81-.73,2.08-1.11s1.64-1.15,2-.05c.6,2.6,3.85,6.59,3.85,6.59s.48.48-.31,1.35c-.23.43-1.3,0-1.3,0s-1.65-.72-2.18-.06c-.93,1.14-.19,2.8,1,3.73s2.35,1.9,3.28.76a2,2,0,0,0,.06-2.18c-.42-1,0-1.18.44-1.5s1.37.23,1.37.23c2.14,1.62,4.8,1.84,7.29,2.19a.87.87,0,0,1,0,1.62c-1.53.81-2.35,1.67-1.52,2.78,1.45,1.56,4.91,1.53,5.83-.26.47-1.4-.82-1.65-1.66-2.32-1.47-1.34.51-1.77.51-1.77a14.4,14.4,0,0,0,6.6-2.42c1-.6,1.64,0,1.18.7s-1.13,1.84-.51,2.79,2.59.52,4-.54,1.83-2.6,1.38-3.36-2-.24-2.57-.32c-.88,0-.69-1.4-.69-1.4s.38-.62.66-1a15.11,15.11,0,0,0,2.43-4.18,1.9,1.9,0,0,1,1.41-.07c.48.13,1,1.78,1.67,1.78.77,0,1-.56,1.34-1.69s-.14-2.37-.79-2.39-1,.59-1.54,1c0,0-.23.35-.86,0s-.59-.75-.59-.75a15.22,15.22,0,0,0-.37-8,.52.52,0,0,1,.72-.63c.67.27,2,1.22,2.78.51s.28-2.14-.11-3.23-1.41-2.15-2.33-1.58c-.66.41-.68,1.27-1,2.1s-.39.71-.9.66a15.08,15.08,0,0,0-4-5c-.29-.24-.62-.44-.91-.69s-.15-1,.07-1.36,1.09-.66,1.5-.79c.61-.19,1-.08,1.34-.68a2.24,2.24,0,0,0-1.23-2.53c-1.14-.63-2.58-.56-3,0s-.12,1.27.21,2c.15.46.41,1.07.19,1.47s-.75.88-1.13.71a16.09,16.09,0,0,0-7-1.53c-1,0,.31-1.52.79-2.1,1.31-1.61.93-2.52-.34-3.2-1.06-.57-4.3-.57-5.3.53-1.21,1-1.27,1.88.34,3.2.54.44,2.09,1.5,1.35,2a10.44,10.44,0,0,0-4.35,1.75c-.59.48-.34-.31-.34-.61a1.58,1.58,0,0,0-.18-1.28,1.89,1.89,0,0,0-2.1,0,1.48,1.48,0,0,0-.64,1.73,1.62,1.62,0,0,0,1.3.76c.32.06.76.21.42.48a17.58,17.58,0,0,0-2.44,2.38,15.69,15.69,0,0,0-1.09,1.52c-.26.51-.89.07-1.26-.16s-.51-1.17-.68-1.55a2.25,2.25,0,0,0-1-1.58,2.21,2.21,0,0,0-2.59,1.09c-.7,1.11-.73,2.35,0,2.89a2.26,2.26,0,0,0,2.19.19c.47-.12,1.1-.33,1.48-.09a1.76,1.76,0,0,1,.72,1.43,15.19,15.19,0,0,0-1.18,6.17c-.18,1.26-1.24,1.16-1.56.86s-2.08-2-3-.56S1176.27,206.67,1177.34,207.17Zm28.37-.84c.54-1.17,1.4-1.93,1.92-1.69s.51,1.39,0,2.56-1.4,1.94-1.92,1.69S1205.16,207.51,1205.71,206.33ZM1202,193c.81-.44,2.07.34,2.82,1.72s.69,2.87-.12,3.31-2.07-.34-2.81-1.73S1201.18,193.39,1202,193Zm-7.48-2.83a1.32,1.32,0,1,1-.93,1.8A1.44,1.44,0,0,1,1194.51,190.12Zm.84,15.21c1.44,1.13,1.94,2.9,1.12,3.95s-2.67,1-4.11-.14-1.94-2.9-1.11-3.95S1193.91,204.2,1195.35,205.33Zm-9-8.36c.62-1.36,1.93-2.1,2.93-1.65s1.3,1.92.68,3.29-1.92,2.1-2.92,1.65S1185.7,198.34,1186.31,197Zm-1.89,9c.32-.13.87.46,1.23,1.32s.4,1.68.08,1.81-.87-.46-1.24-1.32S1184.1,206.07,1184.42,205.93Z"/><path class="cls-5" d="M548.11,57.88c.91.47,1.3-.53,1.5-.8s1.18-.83,1.46,0c.43,1.88,2.78,4.76,2.78,4.76s.34.34-.23,1c-.17.3-.94,0-.94,0s-1.19-.52-1.57,0c-.67.82-.14,2,.68,2.69s1.7,1.37,2.37.55a1.44,1.44,0,0,0,.05-1.58c-.31-.7,0-.85.31-1.08s1,.17,1,.17c1.54,1.16,3.46,1.33,5.25,1.58a.63.63,0,0,1,0,1.17c-1.1.59-1.69,1.21-1.09,2,1,1.13,3.54,1.11,4.2-.18.34-1-.59-1.19-1.19-1.68-1.06-1,.36-1.27.36-1.27a10.4,10.4,0,0,0,4.76-1.75c.73-.43,1.19,0,.86.51s-.82,1.32-.37,2,1.87.37,2.87-.39a2.17,2.17,0,0,0,1-2.43c-.33-.56-1.44-.17-1.86-.23-.63,0-.49-1-.49-1a8.17,8.17,0,0,1,.47-.7,10.56,10.56,0,0,0,1.75-3,1.37,1.37,0,0,1,1-.06c.35.1.76,1.29,1.21,1.28s.75-.39,1-1.21-.11-1.71-.57-1.73-.74.43-1.11.75c0,0-.17.25-.62,0s-.43-.55-.43-.55a11,11,0,0,0-.27-5.75.38.38,0,0,1,.52-.46c.49.19,1.47.88,2,.37s.2-1.55-.08-2.34-1-1.55-1.68-1.14c-.48.3-.5.92-.76,1.52s-.28.52-.65.48a10.86,10.86,0,0,0-2.86-3.58c-.22-.18-.45-.32-.66-.5s-.11-.69.05-1,.79-.48,1.08-.57.73-.06,1-.49a1.63,1.63,0,0,0-.89-1.83c-.83-.45-1.86-.4-2.17,0a1.37,1.37,0,0,0,.16,1.41c.11.33.29.78.13,1.06s-.54.64-.81.51a11.56,11.56,0,0,0-5-1.1c-.71,0,.22-1.1.56-1.52,1-1.16.67-1.82-.24-2.31s-3.1-.41-3.82.39c-.88.71-.93,1.36.24,2.31.39.31,1.5,1.08,1,1.41a7.61,7.61,0,0,0-3.13,1.26c-.43.35-.25-.22-.25-.43a1.18,1.18,0,0,0-.13-.93,1.36,1.36,0,0,0-1.52,0,1,1,0,0,0-.46,1.24,1.17,1.17,0,0,0,.94.55c.23,0,.55.15.3.35a12.9,12.9,0,0,0-1.76,1.72,9.92,9.92,0,0,0-.78,1.09c-.19.37-.65,0-.91-.11s-.37-.84-.5-1.12a1.34,1.34,0,0,0-2.62-.35c-.51.79-.53,1.69,0,2.09a1.65,1.65,0,0,0,1.58.13c.35-.09.8-.24,1.08-.07s.6.84.51,1a11,11,0,0,0-.85,4.46c-.12.91-.89.83-1.12.62s-1.51-1.44-2.21-.4A2.62,2.62,0,0,0,548.11,57.88Zm20.47-.61c.39-.84,1-1.39,1.39-1.22s.36,1,0,1.85-1,1.4-1.39,1.22S568.19,58.12,568.58,57.27Zm-2.68-9.66c.58-.31,1.49.25,2,1.25s.51,2.07-.08,2.38-1.49-.24-2-1.24S565.32,47.93,565.9,47.61Zm-5.4-2a1,1,0,1,1-.67,1.3A1,1,0,0,1,560.5,45.57Zm.61,11c1,.82,1.4,2.09.8,2.85s-1.92.72-3-.1-1.4-2.09-.8-2.85S560.07,55.73,561.11,56.55Zm-6.53-6c.45-1,1.4-1.52,2.11-1.19a1.75,1.75,0,0,1,.5,2.37c-.45,1-1.39,1.52-2.11,1.19A1.76,1.76,0,0,1,554.58,50.52ZM553.22,57c.23-.1.63.33.89.95s.28,1.21,0,1.3-.63-.33-.89-1S553,57.08,553.22,57Z"/><path class="cls-6" d="M1544.56,167.72c.91.47,1.31-.52,1.5-.8s1.18-.83,1.46,0c.43,1.88,2.78,4.76,2.78,4.76s.35.35-.23,1c-.16.31-.94,0-.94,0s-1.19-.52-1.57-.05c-.67.82-.14,2,.69,2.7s1.69,1.36,2.36.54a1.42,1.42,0,0,0,.05-1.57c-.31-.71,0-.85.31-1.08s1,.17,1,.17c1.54,1.16,3.46,1.32,5.26,1.57a.63.63,0,0,1,0,1.17c-1.11.59-1.7,1.21-1.1,2,1.05,1.12,3.54,1.11,4.2-.19.34-1-.58-1.19-1.19-1.67-1.06-1,.36-1.28.36-1.28a10.25,10.25,0,0,0,4.77-1.75c.73-.43,1.18,0,.85.51s-.81,1.32-.37,2,1.87.38,2.87-.38,1.33-1.88,1-2.44-1.44-.16-1.86-.23c-.63,0-.49-1-.49-1a6.93,6.93,0,0,1,.48-.7,11,11,0,0,0,1.75-3,1.33,1.33,0,0,1,1-.05c.34.09.75,1.29,1.2,1.28s.75-.4,1-1.21-.1-1.72-.57-1.73-.74.43-1.11.74c0,0-.17.25-.62,0s-.43-.54-.43-.54a11.15,11.15,0,0,0-.26-5.76.37.37,0,0,1,.51-.46c.49.2,1.47.88,2,.37s.2-1.55-.08-2.33-1-1.55-1.68-1.14c-.47.3-.49.92-.75,1.52s-.28.51-.65.47a11.13,11.13,0,0,0-2.87-3.58c-.22-.17-.45-.32-.66-.49s-.11-.69,0-1,.79-.47,1.08-.57.73,0,1-.49a1.62,1.62,0,0,0-.89-1.82c-.82-.46-1.86-.41-2.16,0s-.09.92.15,1.4.29.78.13,1.07-.53.63-.81.51a11.68,11.68,0,0,0-5-1.11c-.71,0,.22-1.09.56-1.51,1-1.17.68-1.82-.24-2.31-.76-.41-3.1-.41-3.82.38-.88.72-.92,1.36.24,2.31.39.32,1.51,1.08,1,1.42a7.53,7.53,0,0,0-3.13,1.26c-.43.35-.25-.23-.25-.44a1.14,1.14,0,0,0-.13-.93,1.37,1.37,0,0,0-1.51,0,1.06,1.06,0,0,0-.47,1.25,1.17,1.17,0,0,0,.94.55c.23,0,.55.15.31.34a12.37,12.37,0,0,0-1.76,1.72,11.7,11.7,0,0,0-.79,1.1c-.19.37-.65.05-.91-.12s-.37-.84-.5-1.12a1.34,1.34,0,0,0-2.62-.35c-.51.8-.53,1.7,0,2.09a1.65,1.65,0,0,0,1.59.13c.34-.08.79-.24,1.07-.06s.6.83.51,1a11,11,0,0,0-.85,4.46c-.12.9-.89.83-1.12.62s-1.51-1.45-2.2-.41A2.6,2.6,0,0,0,1544.56,167.72Zm20.47-.6c.39-.85,1-1.4,1.39-1.22s.37,1,0,1.85-1,1.39-1.39,1.22S1564.64,168,1565,167.12Zm-2.68-9.66c.59-.31,1.5.24,2,1.24s.5,2.07-.09,2.39-1.49-.25-2-1.25S1561.77,157.77,1562.35,157.46Zm-5.4-2a1,1,0,1,1,.73,1.72,1,1,0,1,1-.73-1.72Zm.61,11c1,.81,1.4,2.09.8,2.85s-1.92.71-3-.1-1.4-2.1-.8-2.86S1556.52,165.58,1557.56,166.4Zm-6.52-6a1.5,1.5,0,1,1,.49,2.37A1.76,1.76,0,0,1,1551,160.37Zm-1.37,6.46c.23-.1.63.33.89.95s.29,1.21.06,1.31-.64-.33-.9-1S1549.44,166.93,1549.67,166.83Z"/><path class="cls-6" d="M56.77,59.53c1.25-.47.63-1.73.53-2.16s.23-1.87,1.24-1.45c2.21,1.22,7.06,1.45,7.06,1.45s.64,0,.75,1.08c.16.43-.79.94-.79.94s-1.55.7-1.42,1.49c.21,1.37,1.85,1.9,3.22,1.69s2.81-.46,2.6-1.83c-.13-.81-.77-1.18-1.49-1.42-1-.32-.82-.76-.78-1.25s1-.82,1-.82C71.2,56.77,73,55,74.85,53.51c0,0,1.38-.4,1.12,1-.39,1.59-.3,2.71,1,2.82,2,0,4.17-2.48,3.49-4.25-.68-1.22-1.67-.47-2.68-.31-1.86.19-.92-1.46-.92-1.46a13.5,13.5,0,0,0,2.46-6.16c.22-1.09,1-1.16,1.25-.4s.57,2,1.63,2.12,2-1.49,2.13-3.13-.67-2.93-1.49-3.09-1.43,1.25-1.85,1.6c-.52.64-1.41-.4-1.41-.4a9.68,9.68,0,0,1-.26-1.07,14.55,14.55,0,0,0-1.41-4.34,1.76,1.76,0,0,1,.84-1c.39-.25,1.92.39,2.3,0s.26-1.08-.34-2S79,32,78.53,32.43s-.22,1.09-.24,1.73c0,0,.1.38-.56.59s-.91-.06-.91-.06A14.49,14.49,0,0,0,71,29.91a.49.49,0,0,1,0-.9c.62-.3,2.15-.66,2.12-1.63s-1.33-1.55-2.34-2-2.4-.36-2.58.64c-.12.72.46,1.28.82,2.06s.25.72-.1,1.05a14.31,14.31,0,0,0-6-.34c-.36.05-.71.16-1.07.21s-.76-.5-.91-.91.23-1.19.39-1.55c.25-.55.59-.76.37-1.38a2.13,2.13,0,0,0-2.55-.73c-1.16.41-2,1.47-1.87,2.13s.81.89,1.5,1.08c.42.18,1,.39,1.15.8s.15,1.08-.22,1.24a15.18,15.18,0,0,0-5.46,3.92c-.63.66-.87-1.18-1-1.88-.3-1.94-1.18-2.24-2.45-1.78-1.07.39-3.11,2.66-3,4.06-.08,1.48.52,2.08,2.46,1.78.65-.1,2.36-.52,2.22.29A10.11,10.11,0,0,0,51,40.26c0,.72-.44.05-.64-.14a1.52,1.52,0,0,0-1-.69A1.79,1.79,0,0,0,48,40.9a1.38,1.38,0,0,0,.8,1.54A1.55,1.55,0,0,0,50.19,42c.25-.19.63-.4.61,0a16.07,16.07,0,0,0,.13,3.22A13.84,13.84,0,0,0,51.31,47c.19.51-.52.68-.91.78s-1.14-.37-1.52-.49A2.08,2.08,0,0,0,47.11,47a2.09,2.09,0,0,0-.86,2.51c.33,1.19,1.18,2,2,1.8a2.15,2.15,0,0,0,1.51-1.43c.21-.4.46-1,.87-1.1a1.68,1.68,0,0,1,1.46.4,14.34,14.34,0,0,0,3.59,4.73c.77.91,0,1.59-.38,1.63s-2.72.2-2.32,1.79S55.74,60,56.77,59.53Zm17.3-20.45c-.48-1.12-.47-2.2,0-2.42s1.29.53,1.77,1.65.47,2.2,0,2.42S74.55,40.21,74.07,39.08ZM62.33,33.25c.2-.84,1.54-1.24,3-.89s2.45,1.32,2.24,2.16-1.54,1.25-3,.89S62.12,34.1,62.33,33.25Zm-6.71,3.47a1.25,1.25,0,1,1,.68,1.8A1.38,1.38,0,0,1,55.62,36.72Zm11.22,9c1.7-.29,3.26.47,3.48,1.72s-1,2.49-2.69,2.79-3.27-.47-3.48-1.71S65.13,46,66.84,45.72ZM55.27,46.8c-.57-1.29-.26-2.68.68-3.09s2.17.29,2.74,1.59S59,48,58,48.39,55.84,48.1,55.27,46.8Zm5.09,7c.11-.31.88-.32,1.71,0s1.43.78,1.32,1.09-.87.32-1.71,0S60.26,54.09,60.36,53.78Z"/><path class="cls-7" d="M99.38,167.67c1.69,1.48,3.05-.43,3.61-.91s3-1.15,3.12.68c-.06,4.22,3.42,11.57,3.42,11.57s.56.91-1,2c-.51.57-2-.43-2-.43s-2.26-1.72-3.32-.92c-1.86,1.39-1.35,4.23.05,6.08s2.88,3.8,4.74,2.4c1.09-.82,1.13-2.06.92-3.32-.28-1.66.47-1.8,1.24-2.13s2,.88,2,.88c2.66,3.27,6.66,4.63,10.35,6.1a1.38,1.38,0,0,1-.66,2.47c-2.65.67-4.23,1.68-3.38,3.69,1.64,2.93,7,4.2,9,1.8,1.26-2-.62-2.84-1.66-4.19-1.74-2.6,1.44-2.51,1.44-2.51a22.56,22.56,0,0,0,11-1.23c1.78-.53,2.52.62,1.56,1.53s-2.42,2.38-1.84,4.08,3.78,1.77,6.3.68,3.8-3.3,3.39-4.65-3-1.11-3.82-1.46c-1.36-.26-.52-2.4-.52-2.4a16.88,16.88,0,0,1,1.37-1.23,24,24,0,0,0,5.3-5.5,3,3,0,0,1,2.19.43c.68.38.94,3.13,1.89,3.35,1.19.27,1.8-.46,2.7-2.08s.67-3.69-.31-4-1.8.53-2.75,1c0,0-.48.45-1.31-.36s-.63-1.39-.63-1.39a24.05,24.05,0,0,0,2.45-12.36.83.83,0,0,1,1.34-.71c.93.67,2.66,2.64,4.08,1.84s1.23-3.18,1-5-1.35-3.83-3-3.3c-1.17.38-1.53,1.69-2.4,2.83-.75,1-.86,1-1.63.67a23.88,23.88,0,0,0-4.22-9.1c-.36-.49-.79-.92-1.15-1.4s.13-1.53.63-2.07,1.93-.6,2.6-.64c1-.07,1.58.26,2.31-.54s.59-2.94-.93-4.34-3.75-1.83-4.62-1.09c-.86.94-.67,1.91-.4,3.07.05.76.21,1.8-.27,2.33s-1.48,1.07-2,.65a25.78,25.78,0,0,0-10.09-5c-1.48-.4,1-2.21,2-2.92,2.63-2,2.38-3.51.7-5-1.41-1.27-6.38-2.49-8.33-1.18-2.24,1.06-2.67,2.41-.69,5,.66.88,2.63,3.08,1.33,3.52-2.46,0-5.06,0-7.33,1-1.09.52-.41-.61-.29-1.06a2.53,2.53,0,0,0,.21-2,3,3,0,0,0-3.21-.81,2.32,2.32,0,0,0-1.65,2.4,2.54,2.54,0,0,0,1.71,1.65c.48.22,1.09.61.47.9a27.47,27.47,0,0,0-4.63,2.73,23.3,23.3,0,0,0-2.25,1.93c-.6.68-1.4-.24-1.87-.73s-.35-2-.47-2.64a3.55,3.55,0,0,0-1-2.82c-.82-.77-2.88-.71-4.38.71s-2,3.32-1,4.45a3.61,3.61,0,0,0,3.29,1.11c.77,0,1.82-.1,2.31.42a2.78,2.78,0,0,1,.56,2.46,24,24,0,0,0-4.14,9c-.74,1.86-2.33,1.3-2.71.72s-2.44-3.85-4.47-2S97.93,166.51,99.38,167.67Zm43.82,9.42c1.27-1.59,2.88-2.43,3.59-1.86s.25,2.31-1,3.91-2.88,2.43-3.59,1.87S141.92,178.69,143.2,177.09Zm-.65-21.92c1.41-.36,3,1.3,3.67,3.71s0,4.65-1.42,5-3.05-1.3-3.67-3.71S141.14,155.53,142.55,155.17ZM132.14,148a2.09,2.09,0,1,1-2.11,2.42A2.29,2.29,0,0,1,132.14,148Zm-4.44,23.65c1.78,2.28,1.88,5.18.21,6.48s-4.45.51-6.24-1.77-1.88-5.18-.21-6.48S125.92,169.37,127.7,171.65ZM117,155.43c1.46-1.86,3.75-2.5,5.11-1.44s1.27,3.45-.19,5.31-3.75,2.5-5.11,1.43S115.53,157.29,117,155.43Zm-6.29,13c.55-.08,1.17,1,1.4,2.49s0,2.72-.56,2.8-1.17-1-1.4-2.49S110.16,168.54,110.7,168.45Z"/><path class="cls-5" d="M306.45,353.68c8.28-1.49,5.86-9.92,5.74-12.69s3.52-11.29,9.25-7.51c12.21,10,41.82,16.93,41.82,16.93s3.95.5,3.4,7.48c.46,2.8-6,4.86-6,4.86s-10.29,2.57-10.43,7.56c-.24,8.68,9.23,13.79,17.91,14s17.82.4,18.06-8.28c.15-5.12-3.39-8.12-7.55-10.43-5.51-3.05-4.2-5.58-3.36-8.58.93-3.37,7.27-3.88,7.27-3.88,15.8-.15,29.06-8.68,41.95-16.05,0,0,8.91-.92,5.71,7.67-4.22,9.34-4.93,16.31,2.92,18.48,12.41,2.06,28.49-10.52,26.31-22.2-2.82-8.24-9.75-4.8-16.11-4.9-11.68-1-4-10.07-4-10.07,10.39-9.81,17.34-21.29,22.13-35.13,2.59-6.44,7.67-5.93,8.09-1s1.32,12.65,7.64,14.88,14-6.92,16.67-16.84-.8-18.78-5.69-20.73-10.17,6.1-13.17,7.77c-4,3.37-8.23-4.05-8.23-4.05a62.23,62.23,0,0,1-.41-6.92,89.75,89.75,0,0,0-3.74-28.28,11.05,11.05,0,0,1,6.35-5.42c2.71-1.12,11.35,4.54,14.21,2.27,3.57-2.84,2.85-6.33.21-12.72s-9.23-10.58-12.33-8.34-2.64,6.47-3.48,10.37c0,0,.19,2.45-4.12,3s-5.51-1.39-5.51-1.39a90.13,90.13,0,0,0-30.46-36c-2-1.08-1.87-4.72,1-5.56,4.12-1.17,13.92-1.64,14.88-7.63s-6.43-11-12.22-14.71-14.33-5-16.55,1c-1.6,4.3,1.39,8.42,2.69,13.6,1.11,4.46.75,4.74-1.83,6.33a89.45,89.45,0,0,0-36.46-8.86c-2.28-.07-4.53.18-6.77.09s-4.16-3.93-4.58-6.65c-.51-3.24,2.73-7,4.17-9.1,2.15-3.09,4.44-4,3.82-8-.76-3.84-7.23-8.56-14.86-7.38s-14.11,6.71-13.95,11c.73,4.71,4,6.39,8,8.33,2.38,1.61,5.79,3.58,6.2,6.22s-.32,6.79-2.75,7.37c-14.07,3.34-27.14,9.17-38,17.93-4.65,3.39-4-8.21-3.92-12.64.35-12.28-4.72-15.14-13.08-13.75-7,1.16-22.15,12.85-22.85,21.6-2.14,9,.81,13.4,13.09,13.75,4.11.11,15.16-.53,13.38,4.31-5.82,7.11-11.85,14.74-14,23.85-1,4.38-2.75-.23-3.77-1.61a9.51,9.51,0,0,0-5.49-5.38c-3.22-.58-8.37,3.15-9.86,7.52s.24,9.1,3.18,10.38a9.54,9.54,0,0,0,8.83-1.13c1.76-.88,4.31-1.77,3.73.71A101.42,101.42,0,0,0,286.76,259a88,88,0,0,0,.39,11c.62,3.35-4,3.56-6.49,3.78-3.27.29-6.58-3.59-8.8-4.76a13.15,13.15,0,0,0-10.61-3.62c-4.17.59-8.8,6.77-8.12,14.46s5,13.63,10.57,13.39a13.41,13.41,0,0,0,10.93-7c1.77-2.27,3.95-5.54,6.61-5.78,3.14-.27,8.08,2.38,8.49,4.09a89.76,89.76,0,0,0,16.76,33.15c3.72,6.5-1.62,9.84-4.19,9.61s-17-1.83-16.29,8.4S299.67,355.25,306.45,353.68Zm129.66-106.2c-1.7-7.45-.4-14.1,2.9-14.86s7.36,4.68,9.06,12.13.4,14.1-2.9,14.85S437.8,254.93,436.11,247.48Zm-65.64-49.19c2.22-4.95,10.9-5.89,19.4-2.09s13.58,10.89,11.37,15.85-10.9,5.89-19.4,2.09S368.26,203.25,370.47,198.29ZM325.25,212c2.49-4.45,7.51-6.39,11.2-4.32s4.66,7.35,2.17,11.81-7.51,6.39-11.2,4.32S322.75,216.5,325.25,212Zm58.82,68.09c10.82.1,19.53,6.58,19.46,14.48s-8.89,14.23-19.71,14.13-19.54-6.57-19.47-14.48S373.25,280,384.07,280.13Zm-72.4-6.48c-2-8.61,1.42-16.79,7.71-18.28s13,4.3,15.07,12.91-1.42,16.8-7.71,18.28S313.7,282.27,311.67,273.65Zm23.44,48.74c1-1.79,5.74-1,10.55,1.72s7.89,6.39,6.87,8.17-5.73,1-10.54-1.72S334.1,324.17,335.11,322.39Z"/></g></g></svg>