<svg id="Layer_1" data-name="Layer 1" xmlns="http://www.w3.org/2000/svg" viewBox="0 0 742.68 68.03"><defs><style>.cls-1{fill:#244b5a;}.cls-2{fill:#8765a9;}</style></defs><path class="cls-1" d="M25,31.56c-7.34-2.5-11.84-4.3-11.84-9.7,0-6,6.36-7.21,11.7-7.21a43.25,43.25,0,0,1,12.41,2.11,2.28,2.28,0,0,0,2-.35,2.25,2.25,0,0,0,.92-1.82v-5a2.27,2.27,0,0,0-1.63-2.18,49.79,49.79,0,0,0-13.8-2C10.9,5.37,2.63,11.6,2.63,22c0,11.89,9.7,15.32,17.49,18.07,7.4,2.61,11.93,4.48,11.93,9.88,0,6.92-7.28,8-11.62,8a43.06,43.06,0,0,1-16-3.5,2.24,2.24,0,0,0-2.13.2,2.29,2.29,0,0,0-1,1.89v5.07A2.27,2.27,0,0,0,2.7,63.68a45.73,45.73,0,0,0,17.65,3.53c13.7,0,22.21-6.72,22.21-17.55C42.56,37.54,32.81,34.22,25,31.56Z"/><path class="cls-1" d="M96.74,55.75a2.23,2.23,0,0,0-2-.32A47.16,47.16,0,0,1,79,57.93c-19.21,0-23.24-11.83-23.24-21.76,0-13.27,8.75-21.52,22.83-21.52a44.59,44.59,0,0,1,14.7,2.57,2.23,2.23,0,0,0,2.06-.29,2.28,2.28,0,0,0,1-1.85v-5a2.29,2.29,0,0,0-1.53-2.15A53.33,53.33,0,0,0,77.42,5.37c-20,0-32.35,12-32.35,31.21,0,19.47,12.06,30.63,33.09,30.63a60.1,60.1,0,0,0,17.9-2.63,2.27,2.27,0,0,0,1.62-2.17V57.59A2.27,2.27,0,0,0,96.74,55.75Z"/><path class="cls-1" d="M157.08,7.29a2.27,2.27,0,0,0-1.9-1h-5.64a2.25,2.25,0,0,0-2.09,1.39L128.82,51.85,110.11,7.65A2.27,2.27,0,0,0,108,6.27h-6a2.26,2.26,0,0,0-2.09,3.15l23.46,55.35a2.28,2.28,0,0,0,2.09,1.38h6.21a2.27,2.27,0,0,0,2.09-1.38L157.27,9.43A2.26,2.26,0,0,0,157.08,7.29Z"/><path class="cls-1" d="M185.55,5.37c-19.35,0-31.37,11.92-31.37,31.13,0,19.52,11.34,30.71,31.13,30.71,19.3,0,31.29-11.89,31.29-31S205,5.37,185.55,5.37Zm-.16,52.56c-18,0-20.7-13.58-20.7-21.68,0-6.49,2-21.6,20.7-21.6s20.7,15.11,20.7,21.6S204.07,57.93,185.39,57.93Z"/><path class="cls-2" d="M286.48,51.36a2.25,2.25,0,0,0-1.94-.39,54.23,54.23,0,0,1-14.47,2c-9.6,0-21-2.9-21-16.67,0-10.5,7.37-16.51,20.23-16.51a50.75,50.75,0,0,1,14,2.26,2.26,2.26,0,0,0,2.86-2.17V9.81a2.26,2.26,0,0,0-1.71-2.18,72.17,72.17,0,0,0-17.68-2c-16.1,0-34.9,8.13-34.9,31,0,19.46,13.13,30.62,36,30.62a73.6,73.6,0,0,0,17.77-2,2.25,2.25,0,0,0,1.7-2.18V53.14A2.25,2.25,0,0,0,286.48,51.36Z"/><path class="cls-2" d="M324,21.77a2.24,2.24,0,0,0-2.25-2.24c-5.93,0-10.3,3.58-15.3,7.79V22.66a2.24,2.24,0,0,0-2.24-2.24H293.49a2.24,2.24,0,0,0-2.25,2.24V63.81a2.25,2.25,0,0,0,2.25,2.25h11.64a2.24,2.24,0,0,0,2.24-2.25V38.25a30.38,30.38,0,0,1,14.33-3.56A2.25,2.25,0,0,0,324,32.44Z"/><path class="cls-2" d="M349.41,19.53c-14.4,0-24.07,9.54-24.07,23.75,0,15,9.81,24,26.25,24a48.74,48.74,0,0,0,17-3.15A2.26,2.26,0,0,0,370,62v-8.4a2.25,2.25,0,0,0-3-2.13c-6,2-9.73,2.79-13.51,2.79-8.18,0-10.72-2.74-11.46-5.53H369.3a2.24,2.24,0,0,0,2.24-2.25V41.82C371.54,27.86,363.27,19.53,349.41,19.53Zm-7.18,17.38c1-2.83,3.66-4.4,7.59-4.4,3.42,0,5.6,1.54,6.31,4.4Z"/><path class="cls-2" d="M423.39,2.79H411.75A2.25,2.25,0,0,0,409.5,5v16.9A22.14,22.14,0,0,0,399,19.53c-14.45,0-23.42,9.22-23.42,24.07,0,14.55,8.45,23.59,22.05,23.59a24.39,24.39,0,0,0,12.79-3.78v.4a2.25,2.25,0,0,0,2.25,2.25h10.75a2.24,2.24,0,0,0,2.24-2.25V5A2.24,2.24,0,0,0,423.39,2.79Zm-13.89,32V51.9a17,17,0,0,1-8,2.15c-7.7,0-9.32-5.73-9.32-10.53,0-6.84,3.52-10.93,9.4-10.93A15.55,15.55,0,0,1,409.5,34.76Z"/><path class="cls-2" d="M439.21.76c-5.42,0-9.36,3.73-9.36,8.88,0,5,4,8.71,9.36,8.71s9.36-3.75,9.36-8.71S444.55.76,439.21.76Z"/><rect class="cls-2" x="431.15" y="21.32" width="16.13" height="44.74" rx="2.25"/><path class="cls-2" d="M487.59,20.42H475.28V11.18A2.24,2.24,0,0,0,473,8.94H461.39a2.24,2.24,0,0,0-2.24,2.24v9.24h-5.76a2.24,2.24,0,0,0-2.25,2.24v8.09A2.24,2.24,0,0,0,453.39,33h5.76V51.77c0,10,6,15.5,17,15.5a49.1,49.1,0,0,0,11.06-1.36,2.25,2.25,0,0,0,1.69-2.18V55.16A2.25,2.25,0,0,0,486,53a25.12,25.12,0,0,1-6.61,1.06c-4.14,0-4.14-1.07-4.14-2.2V33h12.31a2.24,2.24,0,0,0,2.24-2.24V22.66A2.24,2.24,0,0,0,487.59,20.42Z"/><path class="cls-2" d="M557.41,6.84h-12a2.24,2.24,0,0,0-2.25,2.24V44.25c0,4.07-1.31,8.75-11.5,8.75-11.41,0-11.41-6.77-11.41-9V9.08A2.24,2.24,0,0,0,518,6.84H506a2.24,2.24,0,0,0-2.25,2.24V43c0,15.68,9.81,24.32,27.63,24.32s28.28-9,28.28-24.15v-34A2.24,2.24,0,0,0,557.41,6.84Z"/><path class="cls-2" d="M593.88,19.53c-5.16,0-10.13,2.38-14.57,5v-1.9a2.24,2.24,0,0,0-2.24-2.24H566.4a2.24,2.24,0,0,0-2.25,2.24V63.81a2.25,2.25,0,0,0,2.25,2.25H578a2.24,2.24,0,0,0,2.24-2.25v-29a17.4,17.4,0,0,1,8.19-1.94c5.79,0,6.88,2,6.88,5.6V63.81a2.25,2.25,0,0,0,2.25,2.25h11.64a2.25,2.25,0,0,0,2.25-2.25V37.46C611.49,25.9,605.23,19.53,593.88,19.53Z"/><rect class="cls-2" x="616.49" y="21.32" width="16.13" height="44.74" rx="2.25"/><path class="cls-2" d="M624.59.76c-5.42,0-9.36,3.73-9.36,8.88,0,5,4,8.71,9.36,8.71S634,14.6,634,9.64,629.93.76,624.59.76Z"/><path class="cls-2" d="M663.28,19.53c-15.65,0-26.58,9.76-26.58,23.75s10.67,24,25.93,24c15.78,0,27.23-9.92,27.23-23.59C689.86,29,679.43,19.53,663.28,19.53Zm0,34.52c-6.24,0-10-4.06-10-10.85,0-6.5,3.82-10.53,10-10.53s9.88,4.09,9.88,10.93C673.16,50,669.38,54.05,663.28,54.05Z"/><path class="cls-2" d="M723.75,19.53c-5.16,0-10.13,2.38-14.57,5v-1.9a2.24,2.24,0,0,0-2.24-2.24H696.27A2.24,2.24,0,0,0,694,22.66V63.81a2.25,2.25,0,0,0,2.25,2.25h11.64a2.24,2.24,0,0,0,2.24-2.25v-29a17.4,17.4,0,0,1,8.19-1.94c5.79,0,6.89,2,6.89,5.6V63.81a2.24,2.24,0,0,0,2.24,2.25h11.64a2.25,2.25,0,0,0,2.25-2.25V37.46C741.36,25.9,735.11,19.53,723.75,19.53Z"/></svg>