<svg id="Layer_1" data-name="Layer 1" xmlns="http://www.w3.org/2000/svg" viewBox="0 0 249.45 204.67"><defs><style>.cls-1{fill:#fff;}</style></defs><path class="cls-1" d="M23.59,25.78c-7-2.4-11.37-4.13-11.37-9.31,0-5.72,6.11-6.92,11.24-6.92a41.78,41.78,0,0,1,11.92,2A2.18,2.18,0,0,0,38.2,9.48V4.7a2.2,2.2,0,0,0-1.57-2.1,47.7,47.7,0,0,0-13.25-2c-13.31,0-21.25,6-21.25,16,0,11.42,9.31,14.7,16.8,17.35,7.1,2.5,11.45,4.3,11.45,9.49,0,6.64-7,7.63-11.16,7.63A41.36,41.36,0,0,1,3.89,47.73a2.18,2.18,0,0,0-3,2v4.86a2.18,2.18,0,0,0,1.32,2,44,44,0,0,0,17,3.39c13.16,0,21.33-6.46,21.33-16.85C40.47,31.52,31.11,28.34,23.59,25.78Z"/><path class="cls-1" d="M92.49,49a2.16,2.16,0,0,0-1.95-.32A45.22,45.22,0,0,1,75.43,51.1c-18.43,0-22.3-11.36-22.3-20.9C53.13,17.46,61.52,9.55,75,9.55A42.89,42.89,0,0,1,89.16,12a2.16,2.16,0,0,0,2-.28A2.19,2.19,0,0,0,92.06,10V5.17a2.18,2.18,0,0,0-1.47-2.06A51,51,0,0,0,73.94.63c-19.16,0-31.06,11.48-31.06,30C42.88,49.29,54.46,60,74.65,60a58,58,0,0,0,17.19-2.52,2.19,2.19,0,0,0,1.55-2.09V50.77A2.14,2.14,0,0,0,92.49,49Z"/><path class="cls-1" d="M150.42,2.47a2.17,2.17,0,0,0-1.82-1h-5.41a2.17,2.17,0,0,0-2,1.33L123.29,45.26l-18-42.43a2.17,2.17,0,0,0-2-1.33H97.51a2.17,2.17,0,0,0-1.82,1,2.22,2.22,0,0,0-.19,2.06L118,57.66A2.17,2.17,0,0,0,120,59h6a2.17,2.17,0,0,0,2-1.33L150.61,4.53A2.16,2.16,0,0,0,150.42,2.47Z"/><path class="cls-1" d="M177.76.63c-18.58,0-30.12,11.45-30.12,29.89,0,18.74,10.89,29.49,29.88,29.49,18.54,0,30-11.42,30-29.81S196.43.63,177.76.63ZM177.6,51.1c-17.29,0-19.87-13-19.87-20.82,0-6.23,1.94-20.73,19.87-20.73s19.88,14.5,19.88,20.73S195.54,51.1,177.6,51.1Z"/><path class="cls-1" d="M53.33,118.07a2.16,2.16,0,0,0-1.87-.38,51.71,51.71,0,0,1-13.89,2c-9.21,0-20.2-2.78-20.2-16,0-10.07,7.08-15.85,19.42-15.85A49,49,0,0,1,50.26,90,2.16,2.16,0,0,0,53,87.88V78.17a2.16,2.16,0,0,0-1.63-2.09,69.69,69.69,0,0,0-17-1.92C18.93,74.16.87,82,.87,103.94c0,18.69,12.61,29.4,34.6,29.4a71,71,0,0,0,17.06-1.92,2.15,2.15,0,0,0,1.63-2.09v-9.55A2.18,2.18,0,0,0,53.33,118.07Z"/><path class="cls-1" d="M89.3,89.66a2.15,2.15,0,0,0-2.15-2.15c-5.7,0-9.89,3.51-14.69,7.56V90.52a2.16,2.16,0,0,0-2.16-2.16H60.06a2.16,2.16,0,0,0-2.16,2.16V130a2.16,2.16,0,0,0,2.16,2.16H71.24A2.16,2.16,0,0,0,73.39,130V105.48a29.18,29.18,0,0,1,13.76-3.42,2.15,2.15,0,0,0,2.15-2.15Z"/><path class="cls-1" d="M113.75,87.51c-13.82,0-23.11,9.16-23.11,22.8,0,14.42,9.42,23,25.21,23a46.87,46.87,0,0,0,16.33-3,2.17,2.17,0,0,0,1.35-2v-8.08a2.16,2.16,0,0,0-2.85-2c-5.71,1.93-9.35,2.68-13,2.68-7.85,0-10.3-2.62-11-5.31h26.14a2.16,2.16,0,0,0,2.15-2.16v-4.5C135,95.51,127.06,87.51,113.75,87.51Zm-6.9,16.68c1-2.71,3.52-4.22,7.29-4.22,3.29,0,5.38,1.48,6.06,4.22Z"/><path class="cls-1" d="M184.78,71.44H173.6a2.15,2.15,0,0,0-2.15,2.15V89.82a21.21,21.21,0,0,0-10.11-2.31c-13.88,0-22.49,8.85-22.49,23.11,0,14,8.11,22.65,21.17,22.65a23.36,23.36,0,0,0,12.28-3.63V130a2.16,2.16,0,0,0,2.16,2.16h10.32a2.16,2.16,0,0,0,2.16-2.16V73.59A2.16,2.16,0,0,0,184.78,71.44Zm-13.33,30.69v16.45a16.27,16.27,0,0,1-7.71,2.07c-7.39,0-8.94-5.5-8.94-10.11,0-6.57,3.37-10.49,9-10.49A15,15,0,0,1,171.45,102.13Z"/><path class="cls-1" d="M200,69.49c-5.2,0-9,3.58-9,8.52,0,4.77,3.86,8.37,9,8.37s9-3.6,9-8.37S205.1,69.49,200,69.49Z"/><rect class="cls-1" x="192.23" y="89.22" width="15.49" height="42.96" rx="2.16"/><path class="cls-1" d="M246.42,88.36H234.6V79.49a2.15,2.15,0,0,0-2.15-2.15H221.27a2.16,2.16,0,0,0-2.16,2.15v8.87h-5.52a2.16,2.16,0,0,0-2.16,2.16v7.76a2.16,2.16,0,0,0,2.16,2.15h5.52v18c0,9.6,5.79,14.88,16.29,14.88A47,47,0,0,0,246,132a2.16,2.16,0,0,0,1.62-2.09v-8.23a2.15,2.15,0,0,0-2.71-2.08,24.14,24.14,0,0,1-6.35,1c-4,0-4-1-4-2.11V100.43h11.82a2.16,2.16,0,0,0,2.16-2.15V90.52A2.16,2.16,0,0,0,246.42,88.36Z"/><path class="cls-1" d="M54.32,146H42.83a2.16,2.16,0,0,0-2.16,2.15v33.77c0,3.91-1.25,8.4-11,8.4-11,0-11-6.5-11-8.64V148.17A2.15,2.15,0,0,0,16.51,146H5a2.16,2.16,0,0,0-2.16,2.15v32.52c0,15.06,9.43,23.35,26.53,23.35s27.15-8.67,27.15-23.19V148.17A2.15,2.15,0,0,0,54.32,146Z"/><path class="cls-1" d="M89.33,158.2c-5,0-9.73,2.33-14,4.87v-1.86a2.15,2.15,0,0,0-2.15-2.15H62.94a2.16,2.16,0,0,0-2.16,2.15v39.51a2.16,2.16,0,0,0,2.16,2.16H74.12a2.16,2.16,0,0,0,2.15-2.16V172.84A16.7,16.7,0,0,1,84.13,171c5.56,0,6.62,1.88,6.62,5.37v24.37a2.16,2.16,0,0,0,2.15,2.16h11.18a2.16,2.16,0,0,0,2.16-2.16v-25.3C106.24,164.32,100.23,158.2,89.33,158.2Z"/><rect class="cls-1" x="111.04" y="159.92" width="15.49" height="42.96" rx="2.16"/><path class="cls-1" d="M118.82,140.18c-5.21,0-9,3.59-9,8.53,0,4.76,3.86,8.36,9,8.36s9-3.6,9-8.36S123.94,140.18,118.82,140.18Z"/><path class="cls-1" d="M156,158.2c-15,0-25.51,9.38-25.51,22.8,0,13.57,10.23,23,24.89,23,15.15,0,26.14-9.52,26.14-22.65C181.48,167.31,171.47,158.2,156,158.2Zm0,33.15c-6,0-9.56-3.9-9.56-10.42,0-6.24,3.67-10.11,9.56-10.11s9.49,3.92,9.49,10.5C165.45,187.5,161.82,191.35,156,191.35Z"/><path class="cls-1" d="M214,158.2c-5,0-9.73,2.33-14,4.87v-1.86a2.16,2.16,0,0,0-2.16-2.15H187.64a2.15,2.15,0,0,0-2.16,2.15v39.51a2.16,2.16,0,0,0,2.16,2.16h11.17a2.16,2.16,0,0,0,2.16-2.16V172.84a16.68,16.68,0,0,1,7.86-1.86c5.56,0,6.61,1.88,6.61,5.37v24.37a2.16,2.16,0,0,0,2.16,2.16h11.17a2.16,2.16,0,0,0,2.16-2.16v-25.3C230.93,164.32,224.93,158.2,214,158.2Z"/></svg>