<?xml version="1.0" encoding="utf-8"?>
<svg version="1.1" id="Layer_1" xmlns="http://www.w3.org/2000/svg" xmlns:xlink="http://www.w3.org/1999/xlink" x="0px" y="0px" viewBox="0 0 283.5 93.5" style="enable-background:new 0 0 283.5 93.5;" xml:space="preserve">
	<path fill="#244B5A" d="M124.1,41.6c6.8,1.7,16.2,4,16.2,14.4c0,6.6-4.8,14.3-18.3,14.3c-6.8,0-13.6-2.3-17.4-5.9
	c-0.7-0.7-0.9-1.7-0.5-2.6l2.2-4.7c0.3-0.6,0.9-1.1,1.5-1.2c0.7-0.1,1.4,0.1,1.9,0.5c2.9,2.6,7.7,4.4,12.3,4.4
	c2.4,0,8.1-0.4,8.1-4.4c0-2.6-2.9-3.6-9-5.2c-6.8-1.7-16.2-4-16.2-14.5c0-6.6,4.7-14.4,18.1-14.4c5.5,0,10.9,1.6,14.6,4.2
	c0.8,0.6,1.2,1.7,0.8,2.7l-2,4.9c-0.2,0.6-0.7,1.1-1.3,1.3c-0.6,0.2-1.3,0.1-1.8-0.2c-3.1-2-6.7-3.1-10.3-3.1c-2.4,0-8,0.4-8,4.5
	C115.1,39.1,118,40.1,124.1,41.6 M181.4,56c-0.4-0.4-1-0.6-1.5-0.6c-0.6,0-1.1,0.3-1.5,0.7c-2.8,3-6.1,4.4-10.2,4.4
	c-8.2,0-14.2-6-14.2-14.2c0-8.2,6-14.2,14.2-14.2c4.1,0,7.4,1.4,10.2,4.4c0.4,0.4,0.9,0.7,1.5,0.7c0.6,0,1.1-0.2,1.5-0.6l3.9-3.8
	c0.8-0.8,0.9-2.2,0.1-3c-4.1-4.8-10.3-7.4-17.4-7.4c-6.7,0-12.8,2.4-17.3,6.8c-4.5,4.4-6.9,10.5-6.9,17.2c0,13.7,10.4,24,24.2,24
	c7.1,0,13.3-2.6,17.5-7.4c0.8-0.9,0.7-2.2-0.1-3L181.4,56z M234.6,23.8c-0.4-0.6-1.1-1-1.8-1h-5.9c-0.9,0-1.6,0.5-2,1.3l-13.1,30.4
	l-13-30.4c-0.3-0.8-1.1-1.3-2-1.3h-6.4c-0.7,0-1.4,0.4-1.8,1c-0.4,0.6-0.5,1.4-0.2,2.1l18.3,42.6c0.3,0.8,1.1,1.3,2,1.3h5.9
	c0.9,0,1.6-0.5,2-1.3l18.3-42.6C235,25.2,235,24.4,234.6,23.8 M258.1,60.5c8.1,0,14-6,14-14.2c0-8.2-5.9-14.2-14-14.2
	c-8.2,0-14.1,6-14.1,14.2C244.1,54.5,250,60.5,258.1,60.5 M258.1,22.3c13.8,0,24.2,10.3,24.2,24s-10.4,24-24.2,24
	c-13.9,0-24.3-10.3-24.3-24S244.3,22.3,258.1,22.3 M78.5,74.1c5.8-21.5,1.4-43.7-10.4-60.9c-0.5-0.7-2.7-2.7-4.7-3.4
	c-1.8-0.6-4.3-0.4-5.2-0.2C38.6,15.1,21.6,29.1,12.5,49c-0.6,1.3-1.3,3.8-0.8,6c0.5,2.4,1.7,4.4,2.9,5.6c7,7,15.5,12.6,25.3,16.3
	c9.9,3.7,20.1,5,30,4.2c1.8-0.1,3.9-1,5.5-2.3C76.9,77.4,78.1,75.6,78.5,74.1 M76.7,6.9c13,23,16.1,51.5,6.5,77.9
	c-0.7,1.9-2.5,4-4.5,5.5c-2.1,1.4-4.9,2.3-7.2,2.3c-12.5-0.1-25.2-2.9-37.3-8.6C22.4,78.2,12.3,70.1,4.2,60.5
	c-1.4-1.6-2.7-4.3-3.1-7.4c-0.4-2.9,0.8-5.9,1.7-7.5C16.4,21.7,39.4,6,64.7,1.4c1.2-0.2,4.3-0.1,6.6,0.8C73.6,3.1,76.2,6,76.7,6.9" />
</svg>
