<?xml version="1.0" encoding="utf-8"?>
<svg version="1.1" xmlns="http://www.w3.org/2000/svg" xmlns:xlink="http://www.w3.org/1999/xlink" x="0px" y="0px" viewBox="0 0 93.5 93.5" style="enable-background:new 0 0 93.5 93.5;" xml:space="preserve">
	<path fill="#FF595A" d="M78.5,74c5.8-21.5,1.4-43.7-10.4-60.9c-0.5-0.7-2.7-2.7-4.7-3.4
	c-1.8-0.6-4.3-0.4-5.2-0.2C38.6,15,21.6,29,12.5,48.9c-0.6,1.3-1.3,3.8-0.8,6c0.5,2.4,1.7,4.4,2.9,5.6c7,7,15.5,12.6,25.3,16.3
	c9.9,3.7,20.1,5,30,4.2c1.8-0.1,3.9-1,5.5-2.3C76.9,77.3,78.1,75.5,78.5,74 M76.7,6.8c13,23,16.1,51.5,6.5,77.9
	c-0.7,1.9-2.5,4-4.5,5.5c-2.1,1.4-4.9,2.3-7.2,2.3c-12.5-0.1-25.2-2.9-37.3-8.6C22.4,78.1,12.3,70,4.2,60.4
	c-1.4-1.6-2.7-4.3-3.1-7.4c-0.4-2.9,0.8-5.9,1.7-7.5c13.6-24,36.5-39.7,61.8-44.3c1.2-0.2,4.3-0.1,6.6,0.8C73.6,3,76.2,5.9,76.7,6.8" />
</svg>