<svg id="Layer_1" data-name="Layer 1" xmlns="http://www.w3.org/2000/svg" viewBox="0 0 170.08 56.69"><defs><style>.cls-1{fill:#244B5A;}</style></defs><path class="cls-1" d="M167.09,56.05H150.22a2.4,2.4,0,0,1-1.75-.82h0l-18.24-22v21a1.8,1.8,0,0,1-1.8,1.8H110.65a1.81,1.81,0,0,1-1.8-1.8V2.45a1.81,1.81,0,0,1,1.8-1.81h19.78a2.38,2.38,0,0,1,1.74.82l15.24,18.29V2.45A1.81,1.81,0,0,1,149.22.64h17.87a1.81,1.81,0,0,1,1.8,1.81v51.8A1.81,1.81,0,0,1,167.09,56.05Zm-16.63-2.78h15.65V3.43H150.2V23.48a1.39,1.39,0,0,1-1.39,1.39,1.79,1.79,0,0,1-1.43-.82L130.19,3.43H111.63V53.27h15.82V29.53a1.39,1.39,0,0,1,1.39-1.39,1.79,1.79,0,0,1,1.43.82ZM130,3.24ZM80.3,56.05H62.15a1.81,1.81,0,0,1-1.8-1.8V2.45A1.81,1.81,0,0,1,62.15.64H102.8a1.81,1.81,0,0,1,1.8,1.81V17a1.81,1.81,0,0,1-1.8,1.81H82.1V23h18.34a1.79,1.79,0,0,1,1.8,1.8V39.33a1.8,1.8,0,0,1-1.8,1.8H82.1V54.25A1.81,1.81,0,0,1,80.3,56.05ZM63.13,53.27H79.32V40.15a1.8,1.8,0,0,1,1.8-1.8H99.46V25.73H81.12a1.81,1.81,0,0,1-1.8-1.8V17.85A1.81,1.81,0,0,1,81.12,16h20.7V3.43H63.13Zm37.31-27.54h0ZM37.83,56.05H19.69a1.8,1.8,0,0,1-1.8-1.8V18.73H3a1.81,1.81,0,0,1-1.8-1.8V2.45A1.81,1.81,0,0,1,3,.64H54.53a1.81,1.81,0,0,1,1.8,1.81V16.93a1.81,1.81,0,0,1-1.8,1.8H39.63V54.25A1.81,1.81,0,0,1,37.83,56.05ZM20.67,53.27H36.85V17.75a1.81,1.81,0,0,1,1.8-1.8h14.9V3.43H4V16h14.9a1.81,1.81,0,0,1,1.8,1.8Z"/></svg>