<?xml version="1.0" encoding="utf-8"?>
<svg version="1.1" id="Layer_1" xmlns="http://www.w3.org/2000/svg" xmlns:xlink="http://www.w3.org/1999/xlink" x="0px" y="0px"
	 viewBox="0 0 229.6 94.3" style="enable-background:new 0 0 229.6 94.3;" xml:space="preserve">
<style type="text/css">
	.primary{fill:#FF595A;}
	.white{fill:#FFFFFF;}
</style>
<path class="white" d="M161.6,16.4c0,1.7,1.1,2.7,2.9,2.7l1,0.1l0.5,0c3.8,0,4.4-1.8,4.4-3l0.1-1.1l0-0.7l-0.1-0.8c0-1.9-1-3-2.8-3
	c0,0,0,0,0,0l-0.9-0.1l-0.9,0l-0.8,0.1c-1.1,0-1.9,0.3-2.5,0.9c-0.6,0.6-0.9,1.2-0.9,1.9c0,0.5,0,0.6-0.1,0.7l0,1.2l0.1,0.5
	C161.6,16.1,161.6,16.2,161.6,16.4z"/>
<g>
	<g>
		<path class="white" d="M40.9,13.6c0,0.6-0.6,0.8-1.7,0.8s-2-0.4-2.4-1.2c-0.4-0.6-0.5-1.8-0.5-3.7V9.3l0-0.6l0-0.2l0-0.6
			c0-0.4,0-0.7-0.1-0.9c-0.1-0.1-0.2-0.3-0.6-0.5C35.2,6.4,35,6.1,35,5.9V5.7c0-0.5,0.2-0.8,0.5-1c0.4-0.2,0.6-0.3,0.6-0.5
			c0,0,0.1-0.3,0.2-0.8c0.1-0.5,0.2-0.9,0.3-1.1C36.8,2.1,37.1,2,37.6,2c0.5,0,0.7,0.1,0.9,0.4c0,0.1,0.1,0.4,0.2,1
			C38.7,4,38.8,4.3,39,4.5c0.1,0.1,0.4,0.3,0.9,0.3c0.5,0.1,0.7,0.2,0.9,0.3c0.1,0.1,0.2,0.3,0.2,0.6c0,0.3-0.1,0.6-0.4,0.7
			c-0.1,0.1-0.4,0.1-0.8,0.1c-0.4,0-0.7,0.1-0.9,0.3c-0.1,0.2-0.2,0.8-0.2,1.8l0,0.2c0,0.1,0,0.3,0,0.4l0,0.2v0.4
			c0,1.3,0.1,2,0.3,2.3c0.2,0.3,0.5,0.4,0.9,0.5c0.4,0.1,0.7,0.1,0.9,0.3C40.8,13,40.9,13.3,40.9,13.6z"/>
		<path class="white" d="M43.7,14.3h-0.2c-0.3,0-0.5-0.1-0.7-0.3c-0.2-0.2-0.2-0.5-0.2-0.9l0-0.3v-1.2l0-0.6V9.6l0-0.9V8.1l0-0.9
			c0-0.5,0-1,0-1.5l0-1.5c0-1.8,0-2.8,0-3c0-0.4,0.4-0.6,0.9-0.6c0.6,0,0.9,0.1,1.1,0.3s0.3,1,0.3,2.3s0.2,1.9,0.5,1.9
			c0.1,0,0.3-0.1,0.8-0.2c0.4-0.2,0.9-0.2,1.4-0.2c0.5,0,1,0.1,1.4,0.3c0.9,0.4,1.4,1.3,1.5,2.7c0.1,0.8,0.2,2.1,0.2,3.8v0.9l0,0.3
			v0.6c0,0.5-0.1,0.8-0.2,0.9c-0.2,0.1-0.5,0.2-0.9,0.2c-0.5,0-0.7-0.2-0.9-0.5c-0.1-0.2-0.1-1.1-0.1-2.9c0-1.7-0.1-2.8-0.2-3.1
			c-0.3-0.6-0.8-0.9-1.5-0.9c-0.7,0-1.3,0.2-1.5,0.7c-0.3,0.5-0.4,1.4-0.4,2.8l0,1.8c0,1-0.1,1.6-0.2,1.9
			C44.5,14.2,44.2,14.3,43.7,14.3z"/>
		<path class="white" d="M57.8,10.4c-2,0-3.1,0.2-3.1,0.6c0,0.5,0.2,1,0.6,1.3c0.4,0.3,0.9,0.5,1.5,0.5c0.6,0,1.2-0.1,1.7-0.2
			c0.6-0.2,0.9-0.2,1.1-0.2c0.2,0,0.4,0.1,0.5,0.2c0.1,0.2,0.2,0.4,0.2,0.7s-0.3,0.6-1,1s-1.4,0.5-2.1,0.5h-0.7
			c-0.5,0-1.1-0.1-1.7-0.3c-1.2-0.4-2-1.2-2.3-2.3c-0.2-0.6-0.3-1.3-0.3-1.9V9.7c0-2.3,0.8-3.8,2.4-4.5c0.6-0.3,1.3-0.4,2.1-0.4
			c1.3,0,2.3,0.3,3,1C60,6,60.3,6.4,60.5,7c0.2,0.5,0.3,1,0.3,1.4V9c0,0.5-0.2,0.9-0.6,1.1C59.8,10.3,59,10.4,57.8,10.4z M58.5,8.3
			V8.1c0-0.5-0.2-0.9-0.5-1.2c-0.3-0.3-0.7-0.4-1.2-0.4h-0.2c-0.5,0-1,0.2-1.4,0.6c-0.4,0.4-0.6,0.8-0.6,1.4v0.2
			c0,0.2,0.2,0.3,0.6,0.3h0.5l0.1,0l2-0.1l0.2,0C58.4,8.7,58.5,8.6,58.5,8.3z"/>
	</g>
	<g>
		<path class="white" d="M25.4,30.1c-2.7,0-4.4,0.4-5.3,1.1c-0.5,0.5-0.8,1-0.8,1.5c0,1.5,1,2.9,2.8,4c1.8,1.1,2,1.8,2,2.1
			c0,1-0.3,1.9-1.1,2.8c-0.7,0.8-1.7,1.2-3.1,1.2c-1.6,0-3-0.3-4.4-0.8c-1.3-0.5-2.3-1.2-3.1-2.2c-0.7-1-1.3-2.4-1.8-4.3
			c-0.5-1.9-0.7-4-0.7-6.2c0-3.4,0.9-6.1,2.6-8c1.7-1.9,4-2.8,6.8-2.8c1.3,0,2.9,0.3,4.8,0.8c2.8,0.8,3.7,0.9,4.1,0.9
			c0.8,0,1.6-0.3,2.2-1c0.6-0.6,0.9-1.5,0.9-2.5c0-1.7-1.2-3.2-3.6-4.5c-2.2-1.2-4.9-1.8-7.9-1.8h-1c-5.3,0-9.7,1.9-13.1,5.5
			c-3,3.2-4.5,7.8-4.5,13.7v1.1c0,2.8,0.4,5.6,1.1,8.1c0.8,2.6,1.8,4.7,3.2,6.4c1.4,1.7,3.3,3.1,5.6,4.2c2.3,1,4.6,1.5,6.8,1.5h1
			c4.5,0,7.7-0.6,9.7-1.9c2.2-1.3,3.3-4,3.3-7.9v-2c0-5.3-0.7-6.8-1.3-7.5C29.9,30.6,28.1,30.1,25.4,30.1z"/>
		<path class="white" d="M60.1,36.3c0-3.5-0.1-5.9-0.4-7.3c-0.3-1.5-0.8-2.8-1.6-3.9c-2.1-2.8-5.6-4.2-10.4-4.2H47
			c-2.9,0-5.5,0.5-7.6,1.5c-2.2,1-2.6,2.5-2.6,3.6c0,0.9,0.3,1.7,0.8,2.4c0.7,0.9,1.5,1,2,1c0.4,0,1.1-0.1,3.6-0.7
			c1.7-0.4,3.2-0.7,4.3-0.7c3.6,0,4,1.6,4,3c0,0.3,0,0.4-0.1,0.5c-0.3,0.1-1,0.2-3.2,0.3C41.8,32,37.7,33.8,36,37
			c-0.6,1.2-1,2.4-1,3.6v1.3c0,2.4,0.8,4.5,2.4,6.2c1.6,1.7,3.9,2.6,6.7,2.6h0.6c1.4,0,3.1-0.4,5-1.1c1.9-0.7,2.5-0.9,2.7-1
			c0.1,0,0.2,0.1,0.3,0.3c0.4,0.4,0.9,0.7,1.4,1c0.6,0.3,1.5,0.4,2.8,0.4c1.5,0,2.4-0.3,3-0.9c0.5-0.6,0.7-1.4,0.7-2.6
			c0-1-0.1-2.2-0.4-3.6C60.2,42,60.1,39.6,60.1,36.3z M51.8,39l0,0.4c0,2.1-0.3,2.7-0.5,2.9c-0.8,1.1-2,1.6-3.5,1.6h-0.8
			c-0.9,0-1.7-0.2-2.4-0.8c-0.9-0.6-1-1.1-1-1.5c0-0.1,0-0.3-0.1-0.6v-0.9c0-0.2,0-0.9,1.1-1.6c0.9-0.6,2.2-0.8,4-0.8h2.2
			c0.8,0,0.9,0.2,0.9,0.8L51.8,39z"/>
		<path class="white" d="M76,43.3c-0.9-0.1-1.6-0.4-1.9-0.9c-0.1-0.2-0.6-1.2-0.6-5.9l0-1.1l0-0.6c0-0.4,0-0.7,0-1.1l0-0.6
			c0-3.6,0.3-4.3,0.4-4.4c0.1-0.1,0.5-0.4,1.8-0.6c1.7-0.1,2.3-0.3,2.6-0.4c1.1-0.5,1.7-1.5,1.7-2.8c0-0.8-0.1-2-0.9-2.5
			c-0.3-0.2-0.9-0.5-2.8-0.9c-1.6-0.3-1.9-0.6-1.9-0.7c-0.1-0.1-0.4-0.5-0.7-2.5c-0.4-2.2-0.5-2.7-0.6-3c-0.3-0.8-1.2-1.7-3.2-1.7
			c-1.6,0-2.6,0.4-3.2,1.2c-0.4,0.7-0.8,1.7-1.1,3.4c-0.2,1.2-0.4,1.9-0.4,2.2c-0.1,0.1-0.4,0.4-1.3,0.9c-0.9,0.4-2,1.4-2,3.6v0.5
			c0,0.8,0.3,1.9,1.8,2.7c1,0.6,1.2,0.9,1.2,0.9c0,0,0.2,0.4,0.2,2.1l0.1,3.9V36c0,5.4,0.5,8.9,1.6,10.7c1.5,2.5,4.1,3.7,7.6,3.7
			c3.8,0,5.7-1.1,5.7-3.3c0-1.3-0.4-2.3-1.1-2.9C78.5,43.8,77.5,43.4,76,43.3z"/>
		<path class="white" d="M107.6,30.4c-0.5-4-2.2-6.8-4.8-8.2c-1.4-0.7-2.9-1.1-4.4-1.1c-1.6,0-3,0.2-4.3,0.7c-1,0.4-1.5,0.5-1.7,0.6
			c-0.2-0.3-0.5-1.3-0.5-4.5c0-5.1-0.5-6.4-0.9-7C90.2,10,89,9.6,87,9.6c-2.8,0-3.4,1.6-3.5,2.5c0,0.3-0.1,1.6-0.1,8.6l0.1,4.1
			l-0.1,15.1l0,1.7l0,3.3l0,0.9c0,1.5,0.3,2.6,0.9,3.2c0.6,0.7,1.5,1,2.5,1h0.7c2.1,0,3-0.9,3.4-1.7c0.3-0.6,0.7-1.8,0.7-5.8l0.1-5
			c0-4.6,0.6-6.5,1-7.3c0.6-1,1.8-1.5,3.5-1.5c1.7,0,2.8,0.7,3.4,2c0.2,0.5,0.5,2.2,0.5,8.5c0,7.6,0.3,8.1,0.4,8.5
			c0.4,0.9,1.3,2,3.3,2c1.5,0,2.5-0.2,3.1-0.6c0.7-0.5,1.1-1.5,1.1-3.3l0-4.8C108,36.3,107.9,32.7,107.6,30.4z"/>
		<path class="white" d="M133.4,24.3c-2.1-2-5.1-3-9-3c-2.3,0-4.3,0.4-6.1,1.2c-4.9,2.1-7.4,6.6-7.4,13.5v1.3c0,1.9,0.3,3.8,0.9,5.6
			c1.1,3.5,3.4,5.9,7,7.2c1.8,0.7,3.5,1,5.1,1h1.9c2.2,0,4.3-0.5,6.4-1.5c1.5-0.7,3.4-1.8,3.4-3.5c0-1.1-0.3-2-0.8-2.6
			c-0.6-0.7-1.3-1-2.1-1c-0.4,0-1.2,0.1-3.4,0.7c-1.5,0.4-3.1,0.6-4.7,0.6c-1.5,0-2.7-0.4-3.7-1.1c-0.9-0.7-1.3-1.7-1.4-2.8
			c0.1-0.1,0.9-1,7.7-1c3.6,0,5.9-0.3,7.1-0.8c1-0.4,2.2-1.4,2.2-3.8v-1.8c0-1.3-0.3-2.8-0.9-4.4C135,26.5,134.3,25.2,133.4,24.3z
			 M124,28h0.7c1.1,0,2,0.3,2.8,1c0.7,0.6,1.1,1.5,1.1,2.6v0.5c0,0.2,0,0.2,0,0.2c0,0-0.2,0.1-0.6,0.1l-6.2,0.3l-1.5,0
			c-0.4,0-0.7,0-0.8-0.1v-0.2c0-1.3,0.4-2.3,1.3-3.2C121.6,28.5,122.7,28,124,28z"/>
		<path class="white" d="M154.2,22c-1.3,0-2.4,0.2-3.3,0.6c-0.8,0.4-1.6,0.8-2.2,1.3c-0.2,0.1-0.3,0.2-0.5,0.3c0,0,0-0.1-0.1-0.1
			c-0.4-0.5-0.8-0.9-1.1-1.1c-1.1-0.7-2.2-1.1-3.3-1.1h-0.4c-1.2,0-2.1,0.3-2.8,1c-0.6,0.6-0.9,1.6-0.9,2.9v0.8c0,0.2,0,0.6,0.2,2.1
			c0.1,1,0.2,1.9,0.2,2.6l0.1,1.3l0.1,6.8l-0.3,6.3c0,2.5,0.2,3.2,0.6,3.7c0.5,0.5,1.3,0.8,2.5,0.8c0,0,0,0,0,0l1,0
			c2.2,0,3.5-0.5,4-1.5c0.3-0.6,0.7-2.1,0.7-8.7c0-6.1,0.4-7.9,0.7-8.4c0.4-0.8,0.9-1.4,1.6-1.7c0.7-0.3,1.7-0.5,2.9-0.5
			c1.7,0,2.7-0.2,3.2-0.7c1-0.9,1.5-2.2,1.5-3.7c0-0.7-0.4-1.4-1.1-2.1C156.7,22.4,155.6,22,154.2,22z"/>
		<path class="white" d="M170.8,44.3c0-0.6-0.1-1.6-0.4-3.1c-0.3-1.4-0.4-2.4-0.5-3c0-0.4-0.1-2-0.1-7.2c0-6.4-0.2-7-0.3-7.3
			c-0.4-1.3-1.7-2-3.8-2h-1c-1.3,0-2.2,0.1-2.7,0.4c-1,0.6-1,1.9-1,2.4v0.6l0.7,4.3l0.1,2.4l0,2.5l0,3.5l0,0.7l0,0.7l0,0.7
			c0,0.1,0,0.4-0.2,1.9c-0.2,1.2-0.2,2.5-0.2,4c0,1.7,0.3,2.9,0.9,3.6c0.5,0.6,1.4,0.9,3.1,0.9h0.7c1.9,0,3.2-0.2,3.8-0.8
			c0.7-0.6,1.1-1.8,1.1-3.7l0-1.1L170.8,44.3z"/>
		<path class="white" d="M199.3,34.9c0-2.6-0.1-4.5-0.4-5.8c-0.6-2.9-2.2-4.9-4.7-6.1c-1.3-0.6-2.6-0.9-4-0.9h-1.4
			c-1.6,0-3.4,0.6-5.6,1.8c-0.6,0.3-0.9,0.4-1,0.5c-0.1-0.1-0.2-0.2-0.3-0.3c-0.6-0.7-0.8-0.9-0.9-0.9c-0.7-0.5-1.7-0.8-3.1-0.8
			c-0.6,0-2.3,0-2.9,1.2c-0.4,0.6-0.5,1.7-0.5,3.3l0,1.9l-0.1,4.1l0,7l-0.1,4.2l0,2.1l0,0.7c0,1.1,0.2,1.8,0.7,2.4
			c0.5,0.6,1.4,0.9,2.8,0.9c2.2,0,3.7-0.7,4.2-2.2c0.2-0.5,0.4-1.7,0.4-6.4l0.1-2.9l0.1-2.2c0-4,0.5-5.6,0.9-6.3
			c0.7-1.2,1.9-1.8,3.6-1.8c1.3,0.3,2.5,1.2,3.7,2.6c0.2,0.8,0.6,2.7,0.8,7.8c0.2,6,0.5,7.5,0.6,8.1c0.3,1.3,1.3,2.8,4.1,2.8
			c1.5,0,2.4-0.2,2.9-0.7c0.5-0.5,0.8-1.2,0.8-2.3l-0.2-5.3L199.3,34.9z"/>
		<path class="white" d="M227.9,41.8l0-10.2c0-4.5-0.1-5.4-0.1-5.8c-0.3-1.8-1.5-2.8-3.4-2.8c-1,0-1.9,0.1-2.8,0.4
			c-0.9,0.3-1.2,0.3-1.2,0.3c-0.1,0-0.4-0.1-1.8-0.5l-1.3-0.4c-1.4-0.4-2.6-0.6-3.7-0.6H213c-3.3,0-5.8,1.1-7.5,3.3
			c-0.8,1-1.4,2.4-2,4.3c-0.5,1.9-0.8,3.7-0.8,5.6v1.6c0,4.3,1,7.5,3,9.7c1,1.1,2.3,1.9,3.8,2.6c1.5,0.6,3,0.9,4.6,0.9
			c1.5,0,2.9-0.2,4-0.5l1.3-0.4c0,1.6-0.4,2.9-1.2,3.6c-0.8,0.8-2.1,1.2-4.1,1.2c-1.2,0-2.5-0.1-3.9-0.4c-2.3-0.5-2.5-0.5-2.7-0.5
			c-1.1,0-2,0.5-2.6,1.3c-0.5,0.8-0.8,1.7-0.8,2.8c0,1.9,2.5,2.9,3.3,3.2c1.9,0.7,3.9,1.1,6,1.1h0.8c2,0,3.9-0.3,5.8-0.9
			c5.3-1.8,8.1-5.8,8.1-11.9L227.9,41.8z M220,37.8l-0.1,1.3c0,0.1,0,0.4-0.1,0.8c0,1.9-0.4,2.8-0.7,3.2c-0.9,1-2.1,1.5-3.6,1.5
			h-0.5c-1.5,0-2.6-0.5-3.4-1.6c-0.8-1.1-1.3-2.7-1.3-4.6c0-0.4,0-0.9-0.1-1.3l0-1l0.1-0.6c0-2,0.5-3.5,1.4-4.6
			c0.9-1.1,2.1-1.6,3.7-1.6h0.5c1.4,0,2.4,0.3,3,1.1c0.6,0.7,1,2.1,1,3.9c0,0.2,0,0.4,0.1,0.8L220,37.8z"/>
	</g>
</g>
<g>
	<path class="primary" d="M106.3,82.7c-4.2,0.3-10.1,1.3-14.5,2.1l0,0c1.8-2,4.4-4.8,7-6.8c1.6-1.2,3.3-2.8,5.1-4.4c1-0.9,2-1.9,3-2.7
		c0.9-0.7,1.1-2,0.7-3.7c-0.7-3.2-3.7-7.3-6.8-8.2c-4.9-1.4-10.1,0-12.8,0.9c-1.4,0.5-4.2,2-4.5,4.3c-0.2,1.7,0.9,3.4,3.4,5
		c1.9,1.3,2.6,0.7,3.5-0.3c0.4-0.5,0.9-1,1.7-1.4c3-1.8,5.4-2.2,7.9-1.4c-1.1,1.3-3.1,3.1-5.3,5.1c-4.3,3.9-9.7,8.7-12.2,13.6
		c-0.8,1.5,1.1,4.3,1.7,5.1c1.4,1.9,3.5,3.9,5,3.9c0.1,0,0.2,0,0.3,0c3.1-0.5,7.5-1.7,11.7-2.9c3-0.8,5.9-1.6,8.1-2.1
		c1.4-0.3,2.1-1.2,1.9-2.4C111.1,84.4,108.9,82.5,106.3,82.7z"/>
	<path class="primary" d="M137.3,64.6c-3.1-4.9-7.1-6.7-13.2-5.8c-5.6,0.9-12.5,11.7-12.7,16.9l0,0.8c-0.2,3.5-0.3,5.4,1.6,9.5
		c1.7,3.7,7.9,6.7,13,6.7c0.9,0,1.8-0.1,2.6-0.3l0,0c5.4-1.4,9.5-6.3,10.6-10.1C141.1,75.3,140.5,69.6,137.3,64.6z M119.4,85.3
		c-1.3-1.6-1.4-4.9-0.3-8.3c1.4-4,6-10.4,8.7-11.5c1.2-0.5,2.3-0.4,3.1,0.3c1.8,1.7,2.2,6.5,1.3,9.5c-1.4,4.4-4.3,9.9-10.2,10.9
		C120.9,86.4,120,86.1,119.4,85.3z"/>
	<path class="primary" d="M163.8,82.7c-4.2,0.3-10.1,1.3-14.5,2.1l0,0c1.8-2,4.4-4.8,7-6.8c1.6-1.2,3.3-2.8,5.1-4.4c1-0.9,2-1.9,3-2.7
		c0.9-0.7,1.1-2,0.7-3.7c-0.7-3.2-3.7-7.3-6.8-8.2c-4.9-1.4-10.1,0-12.8,0.9c-1.4,0.5-4.2,2-4.5,4.3c-0.2,1.7,0.9,3.4,3.4,5
		c1.9,1.3,2.6,0.7,3.5-0.3c0.4-0.5,0.9-1,1.7-1.4c3-1.8,5.4-2.2,7.9-1.4c-1.1,1.3-3.1,3.1-5.3,5.1c-4.3,3.9-9.7,8.7-12.2,13.6
		c-0.8,1.5,1.1,4.3,1.7,5.1c1.4,1.9,3.5,3.9,5,3.9c0.1,0,0.2,0,0.3,0c3.1-0.5,7.5-1.7,11.7-2.9c3-0.8,5.9-1.6,8.1-2.1
		c1.4-0.3,2.1-1.2,1.9-2.4C168.6,84.4,166.4,82.5,163.8,82.7z"/>
	<path class="primary" d="M195.1,64.6c-3.1-4.9-7.1-6.7-13.2-5.8c-5.6,0.9-12.5,11.7-12.7,16.9l0,0.8c-0.2,3.5-0.3,5.4,1.6,9.5
		c1.7,3.7,7.9,6.7,13,6.7c0.9,0,1.8-0.1,2.6-0.3l0,0c5.4-1.4,9.5-6.3,10.6-10.1C198.9,75.3,198.3,69.6,195.1,64.6z M177.2,85.3
		c-1.3-1.6-1.4-4.9-0.2-8.3c1.4-4,5.9-10.4,8.7-11.5c1.2-0.5,2.3-0.4,3.1,0.3c1.8,1.7,2.2,6.5,1.3,9.5c-1.4,4.4-4.3,9.9-10.2,10.9
		C178.7,86.4,177.8,86.1,177.2,85.3z"/>
</g>
</svg>
