<?xml version="1.0" encoding="utf-8"?>
<!-- Generator: Adobe Illustrator 24.3.0, SVG Export Plug-In . SVG Version: 6.00 Build 0)  -->
<svg version="1.1" id="Layer_1" xmlns="http://www.w3.org/2000/svg" xmlns:xlink="http://www.w3.org/1999/xlink" x="0px" y="0px"
	 viewBox="0 0 229.6 94.9" style="enable-background:new 0 0 229.6 94.9;" xml:space="preserve">
<style type="text/css">
	.st0{fill:#A2195B;}
	.st1{fill:#EA5E5B;}
</style>
<g>
	<g>
		<path class="st0" d="M161.4,16.4c0,1.7,1.1,2.7,2.9,2.7l1,0.1l0.5,0c3.8,0,4.4-1.8,4.4-3l0.1-1.1l0-0.7l-0.1-0.8c0-1.9-1-3-2.8-3
			c0,0,0,0,0,0l-0.9-0.1l-0.9,0l-0.8,0.1c-1.1,0-1.9,0.3-2.5,0.9c-0.6,0.6-0.9,1.2-0.9,1.9c0,0.5,0,0.6-0.1,0.7l0,1.2l0.1,0.5
			C161.4,16.1,161.4,16.2,161.4,16.4z"/>
		<g>
			<g>
				<path class="st0" d="M40.7,13.7c0,0.6-0.6,0.8-1.7,0.8s-2-0.4-2.4-1.2c-0.4-0.6-0.5-1.8-0.5-3.7V9.3l0-0.6l0-0.2l0-0.6
					c0-0.4,0-0.7-0.1-0.9c-0.1-0.1-0.2-0.3-0.6-0.5c-0.3-0.2-0.5-0.4-0.5-0.7V5.7c0-0.5,0.2-0.8,0.5-1c0.4-0.2,0.6-0.3,0.6-0.5
					c0,0,0.1-0.3,0.2-0.8c0.1-0.5,0.2-0.9,0.3-1.1C36.6,2.1,36.9,2,37.4,2c0.5,0,0.7,0.1,0.9,0.4c0,0.1,0.1,0.4,0.2,1
					c0.1,0.6,0.2,0.9,0.3,1.1c0.1,0.1,0.4,0.3,0.9,0.3c0.5,0.1,0.7,0.2,0.9,0.3c0.1,0.1,0.2,0.3,0.2,0.6c0,0.3-0.1,0.6-0.4,0.7
					c-0.1,0.1-0.4,0.1-0.8,0.1c-0.4,0-0.7,0.1-0.9,0.3c-0.1,0.2-0.2,0.8-0.2,1.8l0,0.2c0,0.1,0,0.3,0,0.4l0,0.2v0.4
					c0,1.3,0.1,2,0.3,2.3c0.2,0.3,0.5,0.4,0.9,0.5c0.4,0.1,0.7,0.1,0.9,0.3C40.6,13,40.7,13.3,40.7,13.7z"/>
				<path class="st0" d="M43.5,14.4h-0.2c-0.3,0-0.5-0.1-0.7-0.3c-0.2-0.2-0.2-0.5-0.2-0.9l0-0.3v-1.2l0-0.6V9.6l0-0.9V8.1l0-0.9
					c0-0.5,0-1,0-1.5l0-1.5c0-1.8,0-2.8,0-3c0-0.4,0.4-0.6,0.9-0.6c0.6,0,0.9,0.1,1.1,0.3s0.3,1,0.3,2.3s0.2,1.9,0.5,1.9
					c0.1,0,0.3-0.1,0.8-0.2c0.4-0.2,0.9-0.2,1.4-0.2c0.5,0,1,0.1,1.4,0.3c0.9,0.4,1.4,1.3,1.5,2.7c0.1,0.8,0.2,2.1,0.2,3.8v0.9
					l0,0.3v0.6c0,0.5-0.1,0.8-0.2,0.9c-0.2,0.1-0.5,0.2-0.9,0.2c-0.5,0-0.7-0.2-0.9-0.5c-0.1-0.2-0.1-1.1-0.1-2.9
					c0-1.7-0.1-2.8-0.2-3.1c-0.3-0.6-0.8-0.9-1.5-0.9c-0.7,0-1.3,0.2-1.5,0.7c-0.3,0.5-0.4,1.4-0.4,2.8l0,1.8c0,1-0.1,1.6-0.2,1.9
					C44.3,14.2,43.9,14.4,43.5,14.4z"/>
				<path class="st0" d="M57.5,10.4c-2,0-3.1,0.2-3.1,0.6c0,0.5,0.2,1,0.6,1.3c0.4,0.3,0.9,0.5,1.5,0.5c0.6,0,1.2-0.1,1.7-0.2
					c0.6-0.2,0.9-0.2,1.1-0.2c0.2,0,0.4,0.1,0.5,0.2c0.1,0.2,0.2,0.4,0.2,0.7c0,0.3-0.3,0.6-1,1c-0.7,0.3-1.4,0.5-2.1,0.5h-0.7
					c-0.5,0-1.1-0.1-1.7-0.3c-1.2-0.4-2-1.2-2.3-2.3c-0.2-0.6-0.3-1.3-0.3-1.9V9.7c0-2.3,0.8-3.8,2.4-4.5c0.6-0.3,1.3-0.4,2.1-0.4
					c1.3,0,2.3,0.3,3,1C59.8,6.1,60,6.5,60.2,7c0.2,0.5,0.3,1,0.3,1.4v0.6c0,0.5-0.2,0.9-0.6,1.1C59.6,10.3,58.8,10.4,57.5,10.4z
					 M58.3,8.3V8.2c0-0.5-0.2-0.9-0.5-1.2c-0.3-0.3-0.7-0.4-1.2-0.4h-0.2c-0.5,0-1,0.2-1.4,0.6c-0.4,0.4-0.6,0.8-0.6,1.4v0.2
					c0,0.2,0.2,0.3,0.6,0.3h0.5l0.1,0l2-0.1l0.2,0C58.2,8.7,58.3,8.6,58.3,8.3z"/>
			</g>
			<g>
				<path class="st0" d="M25.2,30.1c-2.7,0-4.4,0.4-5.3,1.1c-0.5,0.5-0.8,1-0.8,1.5c0,1.5,1,2.9,2.8,4c1.8,1.1,2,1.8,2,2.1
					c0,1-0.3,1.9-1.1,2.8c-0.7,0.8-1.7,1.2-3.1,1.2c-1.6,0-3-0.3-4.4-0.8c-1.3-0.5-2.3-1.2-3.1-2.2c-0.7-1-1.3-2.4-1.8-4.3
					c-0.5-1.9-0.7-4-0.7-6.2c0-3.4,0.9-6.1,2.6-8c1.7-1.9,4-2.8,6.8-2.8c1.3,0,2.9,0.3,4.8,0.8c2.8,0.8,3.7,0.9,4.1,0.9
					c0.8,0,1.6-0.3,2.2-1c0.6-0.6,0.9-1.5,0.9-2.5c0-1.7-1.2-3.2-3.6-4.5c-2.2-1.2-4.9-1.8-7.9-1.8h-1c-5.3,0-9.7,1.9-13.1,5.5
					c-3,3.2-4.5,7.8-4.5,13.7v1.1c0,2.8,0.4,5.6,1.1,8.1c0.8,2.6,1.8,4.7,3.2,6.4c1.4,1.7,3.3,3.1,5.6,4.2c2.3,1,4.6,1.5,6.8,1.5h1
					c4.5,0,7.7-0.6,9.7-1.9c2.2-1.3,3.3-4,3.3-7.9v-2c0-5.3-0.7-6.8-1.3-7.5C29.7,30.6,27.9,30.1,25.2,30.1z"/>
				<path class="st0" d="M59.9,36.3c0-3.5-0.1-5.9-0.4-7.3c-0.3-1.5-0.8-2.8-1.6-3.9c-2.1-2.8-5.6-4.2-10.4-4.2h-0.7
					c-2.9,0-5.5,0.5-7.6,1.5c-2.2,1-2.6,2.5-2.6,3.6c0,0.9,0.3,1.7,0.8,2.4c0.7,0.9,1.5,1,2,1c0.4,0,1.1-0.1,3.6-0.7
					c1.7-0.4,3.2-0.7,4.3-0.7c3.6,0,4,1.6,4,3c0,0.3,0,0.4-0.1,0.5c-0.3,0.1-1,0.2-3.2,0.3c-6.5,0.3-10.6,2-12.3,5.3
					c-0.6,1.2-1,2.4-1,3.6v1.3c0,2.4,0.8,4.5,2.4,6.2c1.6,1.7,3.9,2.6,6.7,2.6h0.6c1.4,0,3.1-0.4,5-1.1c1.9-0.7,2.5-0.9,2.7-1
					c0.1,0,0.2,0.1,0.3,0.3c0.4,0.4,0.9,0.7,1.4,1c0.6,0.3,1.5,0.4,2.8,0.4c1.5,0,2.4-0.3,3-0.9c0.5-0.6,0.7-1.4,0.7-2.6
					c0-1-0.1-2.2-0.4-3.6C60,42,59.9,39.6,59.9,36.3z M51.6,39l0,0.4c0,2.1-0.3,2.7-0.5,2.9c-0.8,1.1-2,1.6-3.5,1.6h-0.8
					c-0.9,0-1.7-0.2-2.4-0.8c-0.9-0.6-1-1.1-1-1.5c0-0.1,0-0.3-0.1-0.6v-0.9c0-0.2,0-0.9,1.1-1.6c0.9-0.6,2.2-0.8,4-0.8h2.2
					c0.8,0,0.9,0.2,0.9,0.8L51.6,39z"/>
				<path class="st0" d="M75.8,43.3c-0.9-0.1-1.6-0.4-1.9-0.9c-0.1-0.2-0.6-1.2-0.6-5.9l0-1.1l0-0.6c0-0.4,0-0.7,0-1.1l0-0.6
					c0-3.6,0.3-4.3,0.4-4.4c0.1-0.1,0.5-0.4,1.8-0.6c1.7-0.1,2.3-0.3,2.6-0.4c1.1-0.5,1.7-1.5,1.7-2.8c0-0.8-0.1-2-0.9-2.5
					c-0.3-0.2-0.9-0.5-2.8-0.9c-1.6-0.3-1.9-0.6-1.9-0.7c-0.1-0.1-0.4-0.5-0.7-2.5c-0.4-2.2-0.5-2.7-0.6-3c-0.3-0.8-1.2-1.7-3.2-1.7
					c-1.6,0-2.6,0.4-3.2,1.2c-0.4,0.7-0.8,1.7-1.1,3.4c-0.2,1.2-0.4,1.9-0.4,2.2c-0.1,0.1-0.4,0.4-1.3,0.9c-0.9,0.4-2,1.4-2,3.6v0.5
					c0,0.8,0.3,1.9,1.8,2.7c1,0.6,1.2,0.9,1.2,0.9c0,0,0.2,0.4,0.2,2.1l0.1,3.9V36c0,5.4,0.5,8.9,1.6,10.7c1.5,2.5,4.1,3.7,7.6,3.7
					c3.8,0,5.7-1.1,5.7-3.3c0-1.3-0.4-2.3-1.1-2.9C78.2,43.8,77.2,43.4,75.8,43.3z"/>
				<path class="st0" d="M107.4,30.4c-0.5-4-2.2-6.8-4.8-8.2c-1.4-0.7-2.9-1.1-4.4-1.1c-1.6,0-3,0.2-4.3,0.7c-1,0.4-1.5,0.5-1.7,0.6
					c-0.2-0.3-0.5-1.3-0.5-4.5c0-5.1-0.5-6.4-0.9-7C90,10,88.7,9.6,86.8,9.6c-2.8,0-3.4,1.6-3.5,2.5c0,0.3-0.1,1.6-0.1,8.6l0.1,4.1
					l-0.1,15.1l0,1.7l0,3.3l0,0.9c0,1.5,0.3,2.6,0.9,3.2c0.6,0.7,1.5,1,2.5,1h0.7c2.1,0,3-0.9,3.4-1.7c0.3-0.6,0.7-1.8,0.7-5.8
					l0.1-5c0-4.6,0.6-6.5,1-7.3c0.6-1,1.8-1.5,3.5-1.5c1.7,0,2.8,0.7,3.4,2c0.2,0.5,0.5,2.2,0.5,8.5c0,7.6,0.3,8.1,0.4,8.5
					c0.4,0.9,1.3,2,3.3,2c1.5,0,2.5-0.2,3.1-0.6c0.7-0.5,1.1-1.5,1.1-3.3l0-4.8C107.8,36.3,107.7,32.7,107.4,30.4z"/>
				<path class="st0" d="M133.1,24.4c-2.1-2-5.1-3-9-3c-2.3,0-4.3,0.4-6.1,1.2c-4.9,2.1-7.4,6.6-7.4,13.5v1.3c0,1.9,0.3,3.8,0.9,5.6
					c1.1,3.5,3.4,5.9,7,7.2c1.8,0.7,3.5,1,5.1,1h1.9c2.2,0,4.3-0.5,6.4-1.5c1.5-0.7,3.4-1.8,3.4-3.5c0-1.1-0.3-2-0.8-2.6
					c-0.6-0.7-1.3-1-2.1-1c-0.4,0-1.2,0.1-3.4,0.7c-1.5,0.4-3.1,0.6-4.7,0.6c-1.5,0-2.7-0.4-3.7-1.1c-0.9-0.7-1.3-1.7-1.4-2.8
					c0.1-0.1,0.9-1,7.7-1c3.6,0,5.9-0.3,7.1-0.8c1-0.4,2.2-1.4,2.2-3.8v-1.8c0-1.3-0.3-2.8-0.9-4.4
					C134.8,26.5,134.1,25.2,133.1,24.4z M123.8,28.1h0.7c1.1,0,2,0.3,2.8,1c0.7,0.6,1.1,1.5,1.1,2.6v0.5c0,0.2,0,0.2,0,0.2
					c0,0-0.2,0.1-0.6,0.1l-6.2,0.3l-1.5,0c-0.4,0-0.7,0-0.8-0.1v-0.2c0-1.3,0.4-2.3,1.3-3.2S122.5,28.1,123.8,28.1z"/>
				<path class="st0" d="M154,22.1c-1.3,0-2.4,0.2-3.3,0.6c-0.8,0.4-1.6,0.8-2.2,1.3c-0.2,0.1-0.3,0.2-0.5,0.3c0,0,0-0.1-0.1-0.1
					c-0.4-0.5-0.8-0.9-1.1-1.1c-1.1-0.7-2.2-1.1-3.3-1.1h-0.4c-1.2,0-2.1,0.3-2.8,1c-0.6,0.6-0.9,1.6-0.9,2.9v0.8
					c0,0.2,0,0.6,0.2,2.1c0.1,1,0.2,1.9,0.2,2.6l0.1,1.3l0.1,6.8l-0.3,6.3c0,2.5,0.2,3.2,0.6,3.7c0.5,0.5,1.3,0.8,2.5,0.8
					c0,0,0,0,0,0l1,0c2.2,0,3.5-0.5,4-1.5c0.3-0.6,0.7-2.1,0.7-8.7c0-6.1,0.4-7.9,0.7-8.4c0.4-0.8,0.9-1.4,1.6-1.7
					c0.7-0.3,1.7-0.5,2.9-0.5c1.7,0,2.7-0.2,3.2-0.7c1-0.9,1.5-2.2,1.5-3.7c0-0.7-0.4-1.4-1.1-2.1C156.5,22.4,155.4,22.1,154,22.1z"
					/>
				<path class="st0" d="M170.6,44.3c0-0.6-0.1-1.6-0.4-3.1c-0.3-1.4-0.4-2.4-0.5-3c0-0.4-0.1-2-0.1-7.2c0-6.4-0.2-7-0.3-7.3
					c-0.4-1.3-1.7-2-3.8-2h-1c-1.3,0-2.2,0.1-2.7,0.4c-1,0.6-1,1.9-1,2.4v0.6l0.7,4.3l0.1,2.4l0,2.5l0,3.5l0,0.7l0,0.7l0,0.7
					c0,0.1,0,0.4-0.2,1.9c-0.2,1.2-0.2,2.5-0.2,4c0,1.7,0.3,2.9,0.9,3.6c0.5,0.6,1.4,0.9,3.1,0.9h0.7c1.9,0,3.2-0.2,3.8-0.8
					c0.7-0.6,1.1-1.8,1.1-3.7l0-1.1L170.6,44.3z"/>
				<path class="st0" d="M199.1,34.9c0-2.6-0.1-4.5-0.4-5.8c-0.6-2.9-2.2-4.9-4.7-6.1c-1.3-0.6-2.6-0.9-4-0.9h-1.4
					c-1.6,0-3.4,0.6-5.6,1.8c-0.6,0.3-0.9,0.4-1,0.5c-0.1-0.1-0.2-0.2-0.3-0.3c-0.6-0.7-0.8-0.9-0.9-0.9c-0.7-0.5-1.7-0.8-3.1-0.8
					c-0.6,0-2.3,0-2.9,1.2c-0.4,0.6-0.5,1.7-0.5,3.3l0,1.9l-0.1,4.1l0,7l-0.1,4.2l0,2.1l0,0.7c0,1.1,0.2,1.8,0.7,2.4
					c0.5,0.6,1.4,0.9,2.8,0.9c2.2,0,3.7-0.7,4.2-2.2c0.2-0.5,0.4-1.7,0.4-6.4l0.1-2.9l0.1-2.2c0-4,0.5-5.6,0.9-6.3
					c0.7-1.2,1.9-1.8,3.6-1.8c1.3,0.3,2.5,1.2,3.7,2.6c0.2,0.8,0.6,2.7,0.8,7.8c0.2,6,0.5,7.5,0.6,8.1c0.3,1.3,1.3,2.8,4.1,2.8
					c1.5,0,2.4-0.2,2.9-0.7c0.5-0.5,0.8-1.2,0.8-2.3l-0.2-5.3L199.1,34.9z"/>
				<path class="st0" d="M227.7,41.8l0-10.2c0-4.5-0.1-5.4-0.1-5.8c-0.3-1.8-1.5-2.8-3.4-2.8c-1,0-1.9,0.1-2.8,0.4
					c-0.9,0.3-1.2,0.3-1.2,0.3c-0.1,0-0.4-0.1-1.8-0.5l-1.3-0.4c-1.4-0.4-2.6-0.6-3.7-0.6h-0.7c-3.3,0-5.8,1.1-7.5,3.3
					c-0.8,1-1.4,2.4-2,4.3c-0.5,1.9-0.8,3.7-0.8,5.6v1.6c0,4.3,1,7.5,3,9.7c1,1.1,2.3,1.9,3.8,2.6c1.5,0.6,3,0.9,4.6,0.9
					c1.5,0,2.9-0.2,4-0.5l1.3-0.4c0,1.6-0.4,2.9-1.2,3.6c-0.8,0.8-2.1,1.2-4.1,1.2c-1.2,0-2.5-0.1-3.9-0.4c-2.3-0.5-2.5-0.5-2.7-0.5
					c-1.1,0-2,0.5-2.6,1.3c-0.5,0.8-0.8,1.7-0.8,2.8c0,1.9,2.5,2.9,3.3,3.2c1.9,0.7,3.9,1.1,6,1.1h0.8c2,0,3.9-0.3,5.8-0.9
					C225.3,59,228,55,228,49L227.7,41.8z M219.8,37.8l-0.1,1.3c0,0.1,0,0.4-0.1,0.8c0,1.9-0.4,2.8-0.7,3.2c-0.9,1-2.1,1.5-3.6,1.5
					h-0.5c-1.5,0-2.6-0.5-3.4-1.6c-0.8-1.1-1.3-2.7-1.3-4.6c0-0.4,0-0.9-0.1-1.3l0-1l0.1-0.6c0-2,0.5-3.5,1.4-4.6
					c0.9-1.1,2.1-1.6,3.7-1.6h0.5c1.4,0,2.4,0.3,3,1.1c0.6,0.7,1,2.1,1,3.9c0,0.2,0,0.4,0.1,0.8L219.8,37.8z"/>
			</g>
		</g>
	</g>
	<g>
		<path class="st1" d="M102.3,94.3c-2.8,0.5-8.7-6.6-7.2-9.4c2.8-5.6,9.2-10.8,13.9-15.1c0.9-0.8,1.6-1.5,2.2-2.1
			c-2.9-0.5-5.8,0.9-7.7,2.9c-1.3,1.4-2.4,1.3-4,0.3c-7.8-5.1-1.6-9.1,1.1-10.1c2.5-0.9,7.7-2.3,12.5-0.9c4,1.2,9.6,9.4,6.1,12.5
			c-2.6,2.3-5.4,5-7.8,6.8c-2,1.5-3.7,3.2-5.4,5c3.9-0.7,8.7-1.4,12.2-1.7c4.9-0.3,7.8,6,3.2,7C116,90.7,107.3,93.4,102.3,94.3z"/>
		<path class="st1" d="M140.2,93c-5.3,1.4-13.6-1.9-15.7-6.5c-1.9-4.1-1.8-5.8-1.6-10.1c0.3-5,6.8-15.8,12.7-16.7
			c5.6-0.9,10,0.5,13.3,5.8c3,4.8,3.8,10.3,1.8,17.4C149.6,87,145.4,91.7,140.2,93z M131.7,78c-1.5,4.3-1.1,8.5,2,8
			c10.8-1.9,12.5-21.3,6-18.6C137.4,68.2,133,74.1,131.7,78z"/>
		<path class="st1" d="M160.8,94.3c-2.8,0.5-8.7-6.6-7.2-9.4c2.8-5.6,9.2-10.8,13.9-15.1c0.9-0.8,1.6-1.5,2.2-2.1
			c-2.9-0.5-5.8,0.9-7.7,2.9c-1.3,1.4-2.4,1.3-4,0.3c-7.8-5.1-1.6-9.1,1.1-10.1c2.5-0.9,7.7-2.3,12.5-0.9c4,1.2,9.6,9.4,6.1,12.5
			c-2.6,2.3-5.4,5-7.8,6.8c-2,1.5-3.7,3.2-5.4,5c3.9-0.7,8.7-1.4,12.2-1.7c4.9-0.3,7.8,6,3.2,7C174.6,90.7,165.8,93.4,160.8,94.3z"
			/>
		<path class="st1" d="M194.5,91.4c0.4,6.3-7.8,1.2-8-4.2c-0.2-4.9,0-10.2,0.4-14.5c-2.5-0.8-5.9-3.7-4.2-6.7c1.1-2,4-6.6,6.4-7.5
			c3-1.1,9.1,3.8,8.2,6.3C194.9,70.9,193.9,83.3,194.5,91.4z"/>
	</g>
</g>
</svg>
